<?xml version="1.0" encoding="UTF-8" ?>
<svg version="1.1" width="20" height="21" xmlns="http://www.w3.org/2000/svg">
<rect x="5" y="0" width="2" height="4" fill="#0F0F0F" />
<rect x="0" y="5" width="4" height="3" fill="#0F0F0F" />
<rect x="8" y="5" width="4" height="3" fill="#0F0F0F" />
<rect x="13" y="5" width="4" height="3" fill="#0F0F0F" />
<rect x="18" y="5" width="2" height="2" fill="#0F0F0F" />
<rect x="5" y="6" width="2" height="1" fill="#0F0F0F" />
<rect x="18" y="8" width="2" height="2" fill="#0F0F0F" />
<rect x="5" y="9" width="2" height="3" fill="#0F0F0F" />
<rect x="18" y="11" width="2" height="1" fill="#0F0F0F" />
<rect x="5" y="13" width="2" height="2" fill="#0F0F0F" />
<rect x="18" y="13" width="2" height="2" fill="#0F0F0F" />
<rect x="5" y="16" width="2" height="4" fill="#0F0F0F" />
<rect x="18" y="16" width="2" height="4" fill="#0F0F0F" />
<rect x="8" y="18" width="4" height="2" fill="#0F0F0F" />
<rect x="13" y="18" width="4" height="2" fill="#0F0F0F" />
</svg>
