<?xml version="1.0" encoding="UTF-8" ?>
<svg version="1.1" width="32" height="43" xmlns="http://www.w3.org/2000/svg">
<rect x="0" y="0" width="24" height="1" fill="#888888" />
<rect x="24" y="0" width="1" height="1" fill="#CDCDCD" />
<rect x="0" y="1" width="1" height="1" fill="#868686" />
<rect x="1" y="1" width="1" height="1" fill="#CBCBCB" />
<rect x="2" y="1" width="20" height="1" fill="#D9D9D9" />
<rect x="22" y="1" width="1" height="1" fill="#D7D7D7" />
<rect x="23" y="1" width="1" height="1" fill="#929292" />
<rect x="24" y="1" width="1" height="1" fill="#626262" />
<rect x="25" y="1" width="1" height="1" fill="#898989" />
<rect x="0" y="2" width="1" height="38" fill="#888888" />
<rect x="1" y="2" width="26" height="38" fill="#FFFFFF" />
<rect x="23" y="2" width="1" height="5" fill="#999999" />
<rect x="24" y="2" width="1" height="1" fill="#5A5A5A" />
<rect x="25" y="2" width="1" height="1" fill="#565656" />
<rect x="26" y="2" width="1" height="1" fill="#939393" />
<rect x="24" y="3" width="1" height="1" fill="#8B8B8B" />
<rect x="25" y="3" width="1" height="1" fill="#6B6B6B" />
<rect x="26" y="3" width="1" height="1" fill="#323232" />
<rect x="27" y="3" width="1" height="1" fill="#AEAEAE" />
<rect x="24" y="4" width="1" height="1" fill="#ACACAC" />
<rect x="25" y="4" width="1" height="1" fill="#B3B3B3" />
<rect x="26" y="4" width="1" height="1" fill="#737373" />
<rect x="27" y="4" width="1" height="1" fill="#111111" />
<rect x="28" y="4" width="1" height="1" fill="#A5A5A5" />
<rect x="24" y="5" width="1" height="1" fill="#C3C3C3" />
<rect x="25" y="5" width="1" height="1" fill="#E1E1E1" />
<rect x="26" y="5" width="1" height="1" fill="#B2B2B2" />
<rect x="27" y="5" width="1" height="1" fill="#6F6F6F" />
<rect x="28" y="5" width="1" height="1" fill="#464646" />
<rect x="29" y="5" width="1" height="1" fill="#8C8C8C" />
<rect x="24" y="6" width="1" height="1" fill="#C9C9C9" />
<rect x="25" y="6" width="1" height="1" fill="#F7F7F7" />
<rect x="26" y="6" width="1" height="1" fill="#E1E1E1" />
<rect x="27" y="6" width="1" height="1" fill="#B1B1B1" />
<rect x="28" y="6" width="1" height="1" fill="#6A6A6A" />
<rect x="29" y="6" width="1" height="1" fill="#595959" />
<rect x="30" y="6" width="1" height="1" fill="#8D8D8D" />
<rect x="23" y="7" width="1" height="1" fill="#777777" />
<rect x="24" y="7" width="1" height="1" fill="#868686" />
<rect x="25" y="7" width="1" height="1" fill="#AAAAAA" />
<rect x="26" y="7" width="1" height="1" fill="#A6A6A6" />
<rect x="27" y="7" width="1" height="1" fill="#8C8C8C" />
<rect x="28" y="7" width="1" height="1" fill="#676767" />
<rect x="29" y="7" width="1" height="1" fill="#313131" />
<rect x="30" y="7" width="1" height="1" fill="#222222" />
<rect x="31" y="7" width="1" height="1" fill="#A5A5A5" />
<rect x="23" y="8" width="1" height="1" fill="#484848" />
<rect x="24" y="8" width="5" height="1" fill="#1A1A1A" />
<rect x="29" y="8" width="1" height="1" fill="#181818" />
<rect x="30" y="8" width="1" height="1" fill="#111111" />
<rect x="31" y="8" width="1" height="1" fill="#010101" />
<rect x="23" y="9" width="1" height="1" fill="#E5E5E5" />
<rect x="24" y="9" width="5" height="1" fill="#DFDFDF" />
<rect x="29" y="9" width="1" height="1" fill="#CCCCCC" />
<rect x="30" y="9" width="1" height="1" fill="#8F8F8F" />
<rect x="31" y="9" width="1" height="32" fill="#060606" />
<rect x="26" y="10" width="4" height="30" fill="#FFFFFF" />
<rect x="29" y="10" width="1" height="30" fill="#E9E9E9" />
<rect x="30" y="10" width="1" height="31" fill="#A3A3A3" />
<rect x="12" y="12" width="1" height="1" fill="#F1F1F1" />
<rect x="13" y="12" width="1" height="1" fill="#E5E5E9" />
<rect x="14" y="12" width="1" height="1" fill="#D2D2FC" />
<rect x="15" y="12" width="1" height="1" fill="#CFCFFF" />
<rect x="16" y="12" width="1" height="1" fill="#D9D9F5" />
<rect x="17" y="12" width="1" height="1" fill="#EAEAEA" />
<rect x="11" y="13" width="1" height="1" fill="#E4E4E4" />
<rect x="12" y="13" width="1" height="1" fill="#B7B7B7" />
<rect x="13" y="13" width="1" height="1" fill="#7A7A90" />
<rect x="14" y="13" width="1" height="1" fill="#1C1CEE" />
<rect x="15" y="13" width="1" height="1" fill="#0B0BFF" />
<rect x="16" y="13" width="1" height="1" fill="#3C3CCE" />
<rect x="17" y="13" width="1" height="1" fill="#929292" />
<rect x="18" y="13" width="1" height="1" fill="#CACACA" />
<rect x="19" y="13" width="1" height="1" fill="#F1F1F1" />
<rect x="11" y="14" width="1" height="1" fill="#C5C5C5" />
<rect x="12" y="14" width="1" height="1" fill="#7070AC" />
<rect x="13" y="14" width="1" height="1" fill="#1F1FE0" />
<rect x="14" y="14" width="1" height="1" fill="#0505FA" />
<rect x="15" y="14" width="1" height="3" fill="#0000FF" />
<rect x="16" y="14" width="1" height="1" fill="#0E0EF1" />
<rect x="17" y="14" width="1" height="1" fill="#3737D0" />
<rect x="18" y="14" width="1" height="1" fill="#8E8E98" />
<rect x="19" y="14" width="1" height="1" fill="#E1E1E1" />
<rect x="11" y="15" width="1" height="1" fill="#BABABA" />
<rect x="12" y="15" width="1" height="1" fill="#5757A9" />
<rect x="13" y="15" width="2" height="1" fill="#0000FF" />
<rect x="16" y="15" width="1" height="1" fill="#0000FF" />
<rect x="17" y="15" width="1" height="1" fill="#1616E9" />
<rect x="18" y="15" width="1" height="1" fill="#797987" />
<rect x="19" y="15" width="1" height="1" fill="#DBDBDB" />
<rect x="11" y="16" width="1" height="1" fill="#C5C5C5" />
<rect x="12" y="16" width="1" height="1" fill="#7070AC" />
<rect x="13" y="16" width="1" height="1" fill="#1F1FE0" />
<rect x="14" y="16" width="1" height="1" fill="#0505FA" />
<rect x="16" y="16" width="1" height="1" fill="#0E0EF1" />
<rect x="17" y="16" width="1" height="1" fill="#3737D0" />
<rect x="18" y="16" width="1" height="1" fill="#8E8E98" />
<rect x="19" y="16" width="1" height="1" fill="#E1E1E1" />
<rect x="11" y="17" width="1" height="1" fill="#E4E4E4" />
<rect x="12" y="17" width="1" height="1" fill="#B7B7B7" />
<rect x="13" y="17" width="1" height="1" fill="#7A7A90" />
<rect x="14" y="17" width="1" height="1" fill="#1C1CEE" />
<rect x="15" y="17" width="1" height="1" fill="#0B0BFF" />
<rect x="16" y="17" width="1" height="1" fill="#3C3CCE" />
<rect x="17" y="17" width="1" height="1" fill="#929292" />
<rect x="18" y="17" width="1" height="1" fill="#CACACA" />
<rect x="19" y="17" width="1" height="1" fill="#F1F1F1" />
<rect x="11" y="18" width="1" height="1" fill="#FAFAFA" />
<rect x="12" y="18" width="1" height="1" fill="#F1F1F1" />
<rect x="13" y="18" width="1" height="1" fill="#E5E5E9" />
<rect x="14" y="18" width="1" height="1" fill="#D2D2FC" />
<rect x="15" y="18" width="1" height="1" fill="#CFCFFF" />
<rect x="16" y="18" width="1" height="1" fill="#D9D9F5" />
<rect x="17" y="18" width="1" height="1" fill="#EAEAEA" />
<rect x="18" y="18" width="1" height="1" fill="#F5F5F5" />
<rect x="19" y="18" width="1" height="1" fill="#FCFCFC" />
<rect x="10" y="20" width="1" height="1" fill="#B9B9FF" />
<rect x="11" y="20" width="8" height="1" fill="#A4A4FF" />
<rect x="19" y="20" width="1" height="1" fill="#E6E6FF" />
<rect x="10" y="21" width="1" height="1" fill="#5252FF" />
<rect x="11" y="21" width="1" height="1" fill="#1C1CFC" />
<rect x="12" y="21" width="1" height="1" fill="#1111FB" />
<rect x="13" y="21" width="6" height="11" fill="#0000FF" />
<rect x="19" y="21" width="1" height="8" fill="#B7B7FF" />
<rect x="11" y="22" width="1" height="1" fill="#CCCCE6" />
<rect x="12" y="22" width="1" height="1" fill="#7D7DE0" />
<rect x="12" y="23" width="1" height="1" fill="#A2A2F3" />
<rect x="12" y="24" width="1" height="5" fill="#ADADFF" />
<rect x="12" y="29" width="1" height="1" fill="#A3A3F5" />
<rect x="19" y="29" width="1" height="1" fill="#ACACF4" />
<rect x="20" y="29" width="1" height="1" fill="#F7F7F7" />
<rect x="10" y="30" width="1" height="1" fill="#F2F2FF" />
<rect x="11" y="30" width="1" height="1" fill="#D4D4E5" />
<rect x="12" y="30" width="1" height="1" fill="#8181DF" />
<rect x="19" y="30" width="1" height="1" fill="#8989DD" />
<rect x="20" y="30" width="1" height="1" fill="#D6D6E7" />
<rect x="21" y="30" width="1" height="1" fill="#F2F2FF" />
<rect x="10" y="31" width="1" height="1" fill="#5959FF" />
<rect x="11" y="31" width="10" height="1" fill="#2525FA" />
<rect x="21" y="31" width="1" height="1" fill="#6161FF" />
<rect x="10" y="32" width="1" height="1" fill="#B2B2FF" />
<rect x="11" y="32" width="10" height="1" fill="#9B9BFF" />
<rect x="21" y="32" width="1" height="1" fill="#B5B5FF" />
<rect x="0" y="40" width="1" height="1" fill="#868686" />
<rect x="1" y="40" width="1" height="1" fill="#C9C9C9" />
<rect x="2" y="40" width="27" height="1" fill="#D7D7D7" />
<rect x="29" y="40" width="1" height="1" fill="#D2D2D2" />
<rect x="0" y="41" width="1" height="1" fill="#3C3C3C" />
<rect x="1" y="41" width="1" height="1" fill="#575757" />
<rect x="2" y="41" width="28" height="1" fill="#5C5C5C" />
<rect x="30" y="41" width="1" height="1" fill="#4A4A4A" />
<rect x="31" y="41" width="1" height="1" fill="#030303" />
<rect x="0" y="42" width="32" height="1" fill="#525252" />
</svg>
