<?xml version="1.0" encoding="UTF-8" ?>
<svg version="1.1" width="23" height="28" xmlns="http://www.w3.org/2000/svg">
<rect x="2" y="0" width="15" height="3" fill="#808080" />
<rect x="3" y="1" width="1" height="1" fill="#FFFF00" />
<rect x="4" y="1" width="12" height="2" fill="#FFFFFF" />
<rect x="7" y="1" width="1" height="1" fill="#FFFF00" />
<rect x="11" y="1" width="1" height="1" fill="#FFFF00" />
<rect x="15" y="1" width="1" height="1" fill="#FFFF00" />
<rect x="16" y="1" width="1" height="3" fill="#808080" />
<rect x="17" y="1" width="1" height="1" fill="#000000" />
<rect x="0" y="2" width="2" height="1" fill="#808080" />
<rect x="3" y="2" width="12" height="1" fill="#808080" />
<rect x="17" y="2" width="1" height="1" fill="#808080" />
<rect x="18" y="2" width="1" height="1" fill="#000000" />
<rect x="0" y="3" width="1" height="24" fill="#808080" />
<rect x="1" y="3" width="18" height="25" fill="#FFFFFF" />
<rect x="1" y="3" width="1" height="1" fill="#FFFF00" />
<rect x="5" y="3" width="1" height="1" fill="#FFFF00" />
<rect x="9" y="3" width="1" height="1" fill="#FFFF00" />
<rect x="13" y="3" width="1" height="1" fill="#FFFF00" />
<rect x="14" y="3" width="1" height="6" fill="#808080" />
<rect x="15" y="3" width="1" height="1" fill="#000000" />
<rect x="17" y="3" width="1" height="1" fill="#C0C0C0" />
<rect x="18" y="3" width="1" height="1" fill="#808080" />
<rect x="19" y="3" width="1" height="1" fill="#000000" />
<rect x="3" y="4" width="1" height="1" fill="#FFFF00" />
<rect x="7" y="4" width="1" height="1" fill="#FFFF00" />
<rect x="11" y="4" width="1" height="1" fill="#FFFF00" />
<rect x="15" y="4" width="1" height="1" fill="#808080" />
<rect x="16" y="4" width="1" height="1" fill="#000000" />
<rect x="18" y="4" width="1" height="1" fill="#C0C0C0" />
<rect x="19" y="4" width="1" height="1" fill="#808080" />
<rect x="20" y="4" width="1" height="1" fill="#000000" />
<rect x="1" y="5" width="1" height="1" fill="#FFFF00" />
<rect x="5" y="5" width="1" height="1" fill="#FFFF00" />
<rect x="9" y="5" width="1" height="1" fill="#FFFF00" />
<rect x="13" y="5" width="1" height="1" fill="#FFFF00" />
<rect x="15" y="5" width="1" height="1" fill="#C0C0C0" />
<rect x="16" y="5" width="1" height="1" fill="#808080" />
<rect x="17" y="5" width="1" height="1" fill="#000000" />
<rect x="19" y="5" width="1" height="1" fill="#C0C0C0" />
<rect x="20" y="5" width="1" height="1" fill="#808080" />
<rect x="21" y="5" width="1" height="2" fill="#000000" />
<rect x="3" y="6" width="1" height="1" fill="#FFFF00" />
<rect x="7" y="6" width="1" height="1" fill="#FFFF00" />
<rect x="11" y="6" width="1" height="1" fill="#FFFF00" />
<rect x="16" y="6" width="1" height="1" fill="#C0C0C0" />
<rect x="17" y="6" width="1" height="1" fill="#808080" />
<rect x="18" y="6" width="3" height="1" fill="#000000" />
<rect x="22" y="6" width="1" height="20" fill="#000000" />
<rect x="1" y="7" width="1" height="1" fill="#FFFF00" />
<rect x="5" y="7" width="1" height="1" fill="#FFFF00" />
<rect x="9" y="7" width="1" height="1" fill="#FFFF00" />
<rect x="13" y="7" width="1" height="1" fill="#FFFF00" />
<rect x="17" y="7" width="1" height="1" fill="#C0C0C0" />
<rect x="18" y="7" width="1" height="1" fill="#808080" />
<rect x="19" y="7" width="1" height="2" fill="#000000" />
<rect x="20" y="7" width="1" height="1" fill="#FFFFFF" />
<rect x="21" y="7" width="1" height="18" fill="#C0C0C0" />
<rect x="3" y="8" width="1" height="1" fill="#FFFF00" />
<rect x="7" y="8" width="1" height="1" fill="#FFFF00" />
<rect x="11" y="8" width="1" height="1" fill="#FFFF00" />
<rect x="15" y="8" width="4" height="1" fill="#000000" />
<rect x="20" y="8" width="1" height="20" fill="#000000" />
<rect x="1" y="9" width="1" height="1" fill="#FFFF00" />
<rect x="5" y="9" width="1" height="1" fill="#FFFF00" />
<rect x="8" y="9" width="3" height="1" fill="#008080" />
<rect x="13" y="9" width="1" height="1" fill="#FFFF00" />
<rect x="17" y="9" width="1" height="1" fill="#FFFF00" />
<rect x="19" y="9" width="1" height="18" fill="#C0C0C0" />
<rect x="3" y="10" width="1" height="1" fill="#FFFF00" />
<rect x="6" y="10" width="2" height="1" fill="#008080" />
<rect x="8" y="10" width="1" height="1" fill="#C0C0C0" />
<rect x="9" y="10" width="1" height="1" fill="#000080" />
<rect x="10" y="10" width="1" height="1" fill="#008080" />
<rect x="11" y="10" width="1" height="2" fill="#008000" />
<rect x="12" y="10" width="1" height="1" fill="#008080" />
<rect x="15" y="10" width="1" height="1" fill="#FFFF00" />
<rect x="1" y="11" width="1" height="1" fill="#FFFF00" />
<rect x="5" y="11" width="1" height="2" fill="#008080" />
<rect x="6" y="11" width="1" height="1" fill="#C0C0C0" />
<rect x="7" y="11" width="1" height="1" fill="#008080" />
<rect x="8" y="11" width="3" height="1" fill="#008000" />
<rect x="12" y="11" width="1" height="2" fill="#008000" />
<rect x="13" y="11" width="1" height="1" fill="#008080" />
<rect x="17" y="11" width="1" height="1" fill="#FFFF00" />
<rect x="3" y="12" width="1" height="1" fill="#FFFF00" />
<rect x="7" y="12" width="1" height="1" fill="#008000" />
<rect x="8" y="12" width="1" height="1" fill="#000080" />
<rect x="9" y="12" width="1" height="2" fill="#0000FF" />
<rect x="10" y="12" width="2" height="1" fill="#008080" />
<rect x="13" y="12" width="1" height="1" fill="#000000" />
<rect x="15" y="12" width="1" height="1" fill="#FFFF00" />
<rect x="1" y="13" width="1" height="1" fill="#FFFF00" />
<rect x="4" y="13" width="1" height="4" fill="#008080" />
<rect x="6" y="13" width="2" height="1" fill="#C0C0C0" />
<rect x="8" y="13" width="1" height="1" fill="#008080" />
<rect x="10" y="13" width="1" height="1" fill="#000080" />
<rect x="11" y="13" width="1" height="2" fill="#008080" />
<rect x="12" y="13" width="1" height="1" fill="#000080" />
<rect x="13" y="13" width="1" height="1" fill="#008080" />
<rect x="14" y="13" width="1" height="4" fill="#000000" />
<rect x="17" y="13" width="1" height="1" fill="#FFFF00" />
<rect x="3" y="14" width="1" height="1" fill="#FFFF00" />
<rect x="6" y="14" width="1" height="1" fill="#C0C0C0" />
<rect x="8" y="14" width="1" height="2" fill="#808080" />
<rect x="9" y="14" width="1" height="5" fill="#008000" />
<rect x="10" y="14" width="1" height="1" fill="#008080" />
<rect x="12" y="14" width="2" height="1" fill="#0000FF" />
<rect x="15" y="14" width="1" height="1" fill="#FFFF00" />
<rect x="1" y="15" width="1" height="1" fill="#FFFF00" />
<rect x="5" y="15" width="1" height="1" fill="#008080" />
<rect x="7" y="15" width="1" height="1" fill="#C0C0C0" />
<rect x="10" y="15" width="1" height="1" fill="#008000" />
<rect x="11" y="15" width="2" height="1" fill="#0000FF" />
<rect x="13" y="15" width="1" height="3" fill="#000080" />
<rect x="17" y="15" width="1" height="1" fill="#FFFF00" />
<rect x="3" y="16" width="1" height="1" fill="#FFFF00" />
<rect x="5" y="16" width="1" height="1" fill="#808080" />
<rect x="6" y="16" width="2" height="3" fill="#0000FF" />
<rect x="8" y="16" width="1" height="1" fill="#008000" />
<rect x="10" y="16" width="1" height="1" fill="#008080" />
<rect x="11" y="16" width="1" height="2" fill="#000080" />
<rect x="12" y="16" width="1" height="1" fill="#0000FF" />
<rect x="15" y="16" width="1" height="1" fill="#FFFF00" />
<rect x="1" y="17" width="1" height="1" fill="#FFFF00" />
<rect x="5" y="17" width="1" height="2" fill="#008080" />
<rect x="8" y="17" width="1" height="1" fill="#008080" />
<rect x="10" y="17" width="1" height="1" fill="#000080" />
<rect x="12" y="17" width="1" height="2" fill="#000080" />
<rect x="17" y="17" width="1" height="1" fill="#FFFF00" />
<rect x="3" y="18" width="1" height="1" fill="#FFFF00" />
<rect x="8" y="18" width="1" height="1" fill="#0000FF" />
<rect x="10" y="18" width="1" height="1" fill="#0000FF" />
<rect x="11" y="18" width="1" height="1" fill="#008080" />
<rect x="13" y="18" width="1" height="1" fill="#000000" />
<rect x="15" y="18" width="1" height="1" fill="#FFFF00" />
<rect x="1" y="19" width="1" height="1" fill="#FFFF00" />
<rect x="5" y="19" width="1" height="1" fill="#FFFF00" />
<rect x="6" y="19" width="3" height="1" fill="#000080" />
<rect x="9" y="19" width="1" height="1" fill="#0000FF" />
<rect x="10" y="19" width="1" height="1" fill="#000080" />
<rect x="11" y="19" width="2" height="1" fill="#000000" />
<rect x="13" y="19" width="1" height="1" fill="#FFFF00" />
<rect x="17" y="19" width="1" height="1" fill="#FFFF00" />
<rect x="3" y="20" width="1" height="1" fill="#FFFF00" />
<rect x="7" y="20" width="1" height="1" fill="#FFFF00" />
<rect x="8" y="20" width="3" height="1" fill="#000000" />
<rect x="11" y="20" width="1" height="1" fill="#FFFF00" />
<rect x="15" y="20" width="1" height="1" fill="#FFFF00" />
<rect x="1" y="21" width="1" height="1" fill="#FFFF00" />
<rect x="5" y="21" width="1" height="1" fill="#FFFF00" />
<rect x="9" y="21" width="1" height="1" fill="#FFFF00" />
<rect x="13" y="21" width="1" height="1" fill="#FFFF00" />
<rect x="17" y="21" width="1" height="1" fill="#FFFF00" />
<rect x="3" y="22" width="1" height="1" fill="#FFFF00" />
<rect x="7" y="22" width="1" height="1" fill="#FFFF00" />
<rect x="11" y="22" width="1" height="1" fill="#FFFF00" />
<rect x="15" y="22" width="1" height="1" fill="#FFFF00" />
<rect x="1" y="23" width="1" height="1" fill="#FFFF00" />
<rect x="5" y="23" width="1" height="1" fill="#FFFF00" />
<rect x="9" y="23" width="1" height="1" fill="#FFFF00" />
<rect x="13" y="23" width="1" height="1" fill="#FFFF00" />
<rect x="17" y="23" width="1" height="1" fill="#FFFF00" />
<rect x="3" y="24" width="1" height="1" fill="#FFFF00" />
<rect x="7" y="24" width="1" height="1" fill="#FFFF00" />
<rect x="11" y="24" width="1" height="1" fill="#FFFF00" />
<rect x="15" y="24" width="1" height="1" fill="#FFFF00" />
<rect x="1" y="25" width="1" height="1" fill="#FFFF00" />
<rect x="5" y="25" width="1" height="1" fill="#FFFF00" />
<rect x="9" y="25" width="1" height="1" fill="#FFFF00" />
<rect x="13" y="25" width="1" height="1" fill="#FFFF00" />
<rect x="17" y="25" width="1" height="1" fill="#FFFF00" />
<rect x="21" y="25" width="1" height="1" fill="#000000" />
<rect x="3" y="26" width="1" height="1" fill="#FFFF00" />
<rect x="7" y="26" width="1" height="1" fill="#FFFF00" />
<rect x="11" y="26" width="1" height="1" fill="#FFFF00" />
<rect x="15" y="26" width="1" height="1" fill="#FFFF00" />
<rect x="0" y="27" width="20" height="1" fill="#000000" />
</svg>
