<?xml version="1.0" encoding="UTF-8" ?>
<svg version="1.1" width="26" height="23" xmlns="http://www.w3.org/2000/svg">
<rect x="3" y="0" width="1" height="1" fill="#BBBBB5" />
<rect x="4" y="0" width="1" height="1" fill="#99996D" />
<rect x="5" y="0" width="7" height="1" fill="#949462" />
<rect x="12" y="0" width="1" height="1" fill="#969667" />
<rect x="13" y="0" width="1" height="1" fill="#B8B8B0" />
<rect x="2" y="1" width="1" height="1" fill="#B8B8AF" />
<rect x="3" y="1" width="1" height="1" fill="#A6A685" />
<rect x="4" y="1" width="1" height="1" fill="#919047" />
<rect x="5" y="1" width="1" height="1" fill="#8D8D2F" />
<rect x="6" y="1" width="5" height="1" fill="#8D8D27" />
<rect x="11" y="1" width="1" height="1" fill="#8A8A27" />
<rect x="12" y="1" width="1" height="1" fill="#81812D" />
<rect x="13" y="1" width="1" height="1" fill="#8C8C7C" />
<rect x="14" y="1" width="1" height="1" fill="#ACACAC" />
<rect x="1" y="2" width="1" height="1" fill="#BEBEBD" />
<rect x="2" y="2" width="1" height="1" fill="#A1A17D" />
<rect x="3" y="2" width="1" height="1" fill="#7B7B21" />
<rect x="4" y="2" width="1" height="1" fill="#EDE8CF" />
<rect x="5" y="2" width="1" height="1" fill="#FDFCB4" />
<rect x="6" y="2" width="1" height="1" fill="#FDFD97" />
<rect x="7" y="2" width="1" height="1" fill="#FDFC95" />
<rect x="8" y="2" width="1" height="1" fill="#FDFD99" />
<rect x="9" y="2" width="1" height="1" fill="#FDFC95" />
<rect x="10" y="2" width="1" height="1" fill="#FDFD97" />
<rect x="11" y="2" width="1" height="1" fill="#EFEF98" />
<rect x="12" y="2" width="1" height="1" fill="#C1C08C" />
<rect x="13" y="2" width="1" height="1" fill="#28281A" />
<rect x="14" y="2" width="1" height="1" fill="#71716F" />
<rect x="15" y="2" width="1" height="1" fill="#BCBCBC" />
<rect x="1" y="3" width="1" height="1" fill="#979768" />
<rect x="2" y="3" width="1" height="1" fill="#9C9B5B" />
<rect x="3" y="3" width="1" height="1" fill="#DFD8B0" />
<rect x="4" y="3" width="1" height="1" fill="#D7B240" />
<rect x="5" y="3" width="1" height="1" fill="#D6C875" />
<rect x="6" y="3" width="1" height="1" fill="#D6C564" />
<rect x="7" y="3" width="1" height="1" fill="#D6B537" />
<rect x="8" y="3" width="1" height="1" fill="#D6D595" />
<rect x="9" y="3" width="1" height="1" fill="#D6B83E" />
<rect x="10" y="3" width="1" height="1" fill="#D6C25D" />
<rect x="11" y="3" width="1" height="1" fill="#D3C876" />
<rect x="12" y="3" width="1" height="1" fill="#C8A11D" />
<rect x="13" y="3" width="1" height="1" fill="#898205" />
<rect x="14" y="3" width="1" height="1" fill="#484817" />
<rect x="15" y="3" width="1" height="1" fill="#5F5F5F" />
<rect x="0" y="4" width="1" height="1" fill="#979768" />
<rect x="1" y="4" width="1" height="1" fill="#767623" />
<rect x="2" y="4" width="1" height="1" fill="#7D7C23" />
<rect x="3" y="4" width="1" height="1" fill="#A5A15B" />
<rect x="4" y="4" width="1" height="1" fill="#94810C" />
<rect x="5" y="4" width="1" height="1" fill="#928A2B" />
<rect x="6" y="4" width="1" height="1" fill="#928825" />
<rect x="7" y="4" width="1" height="1" fill="#92800D" />
<rect x="8" y="4" width="1" height="1" fill="#929140" />
<rect x="9" y="4" width="1" height="1" fill="#928211" />
<rect x="10" y="4" width="1" height="1" fill="#928722" />
<rect x="11" y="4" width="1" height="1" fill="#928C2F" />
<rect x="12" y="4" width="1" height="1" fill="#917C00" />
<rect x="13" y="4" width="1" height="1" fill="#807C00" />
<rect x="14" y="4" width="1" height="1" fill="#555500" />
<rect x="15" y="4" width="1" height="1" fill="#58581E" />
<rect x="16" y="4" width="8" height="1" fill="#8D8D52" />
<rect x="24" y="4" width="1" height="1" fill="#7B7B52" />
<rect x="25" y="4" width="1" height="1" fill="#5B5B5B" />
<rect x="0" y="5" width="1" height="16" fill="#787826" />
<rect x="1" y="5" width="1" height="1" fill="#84841E" />
<rect x="2" y="5" width="22" height="1" fill="#9B9B35" />
<rect x="24" y="5" width="1" height="1" fill="#6B6B24" />
<rect x="25" y="5" width="1" height="17" fill="#0F0F0F" />
<rect x="1" y="6" width="1" height="15" fill="#BEBE58" />
<rect x="2" y="6" width="1" height="1" fill="#FFFD93" />
<rect x="3" y="6" width="1" height="1" fill="#FFFA8B" />
<rect x="4" y="6" width="1" height="1" fill="#FEFEA1" />
<rect x="5" y="6" width="1" height="1" fill="#FFFB91" />
<rect x="6" y="6" width="1" height="1" fill="#FFFB94" />
<rect x="7" y="6" width="1" height="1" fill="#FEFD9E" />
<rect x="8" y="6" width="1" height="1" fill="#FFF989" />
<rect x="9" y="6" width="1" height="1" fill="#FEFD9D" />
<rect x="10" y="6" width="1" height="1" fill="#FFFC95" />
<rect x="11" y="6" width="1" height="1" fill="#FFFB8E" />
<rect x="12" y="6" width="1" height="1" fill="#FFFF9E" />
<rect x="13" y="6" width="1" height="1" fill="#FFFA8C" />
<rect x="14" y="6" width="9" height="1" fill="#FFF988" />
<rect x="23" y="6" width="1" height="1" fill="#FCF688" />
<rect x="24" y="6" width="1" height="1" fill="#ACA85E" />
<rect x="2" y="7" width="1" height="1" fill="#FFEF6A" />
<rect x="3" y="7" width="1" height="1" fill="#FED62A" />
<rect x="4" y="7" width="1" height="1" fill="#F9F4D4" />
<rect x="5" y="7" width="1" height="1" fill="#FDDF5D" />
<rect x="6" y="7" width="1" height="1" fill="#FCE370" />
<rect x="7" y="7" width="1" height="1" fill="#FAF1C1" />
<rect x="8" y="7" width="1" height="1" fill="#FFD318" />
<rect x="9" y="7" width="1" height="1" fill="#FAEFB5" />
<rect x="10" y="7" width="1" height="1" fill="#FCE57D" />
<rect x="11" y="7" width="1" height="1" fill="#FFDF45" />
<rect x="12" y="7" width="1" height="1" fill="#FFFDBC" />
<rect x="13" y="7" width="1" height="1" fill="#FFDA31" />
<rect x="14" y="7" width="9" height="1" fill="#FFD211" />
<rect x="23" y="7" width="1" height="1" fill="#E7BA11" />
<rect x="24" y="7" width="1" height="1" fill="#91720C" />
<rect x="2" y="8" width="1" height="1" fill="#FDF79C" />
<rect x="3" y="8" width="1" height="1" fill="#FBE79A" />
<rect x="4" y="8" width="1" height="1" fill="#FCDD5E" />
<rect x="5" y="8" width="1" height="1" fill="#FBE488" />
<rect x="6" y="8" width="1" height="1" fill="#FBE381" />
<rect x="7" y="8" width="1" height="1" fill="#FCDE65" />
<rect x="8" y="8" width="1" height="1" fill="#FAE8A0" />
<rect x="9" y="8" width="1" height="1" fill="#FCDF69" />
<rect x="10" y="8" width="1" height="1" fill="#FEE56E" />
<rect x="11" y="8" width="1" height="1" fill="#CFC3A3" />
<rect x="12" y="8" width="1" height="1" fill="#615EE0" />
<rect x="13" y="8" width="1" height="1" fill="#E2B82A" />
<rect x="14" y="8" width="6" height="1" fill="#FFCC00" />
<rect x="20" y="8" width="1" height="1" fill="#F8C500" />
<rect x="21" y="8" width="1" height="1" fill="#DEAB00" />
<rect x="22" y="8" width="1" height="1" fill="#F7C400" />
<rect x="23" y="8" width="1" height="1" fill="#E4B100" />
<rect x="24" y="8" width="1" height="6" fill="#8D6A00" />
<rect x="2" y="9" width="1" height="1" fill="#FEF695" />
<rect x="3" y="9" width="1" height="1" fill="#FBE58A" />
<rect x="4" y="9" width="1" height="1" fill="#FCDF6E" />
<rect x="5" y="9" width="1" height="1" fill="#FBE382" />
<rect x="6" y="9" width="1" height="1" fill="#FBE27F" />
<rect x="7" y="9" width="1" height="1" fill="#FCE071" />
<rect x="8" y="9" width="1" height="1" fill="#FBE58D" />
<rect x="9" y="9" width="1" height="1" fill="#AD9275" />
<rect x="10" y="9" width="1" height="1" fill="#CAB171" />
<rect x="11" y="9" width="1" height="1" fill="#B6A79C" />
<rect x="12" y="9" width="1" height="1" fill="#0E0BF1" />
<rect x="13" y="9" width="1" height="1" fill="#D2A82D" />
<rect x="14" y="9" width="1" height="1" fill="#BE9841" />
<rect x="15" y="9" width="1" height="1" fill="#BA9545" />
<rect x="16" y="9" width="3" height="1" fill="#FFCC00" />
<rect x="19" y="9" width="1" height="1" fill="#F5C200" />
<rect x="20" y="9" width="1" height="1" fill="#E8B500" />
<rect x="21" y="9" width="1" height="1" fill="#E2AF00" />
<rect x="22" y="9" width="1" height="1" fill="#E8B500" />
<rect x="23" y="9" width="1" height="1" fill="#DAA700" />
<rect x="2" y="10" width="1" height="1" fill="#FFF075" />
<rect x="3" y="10" width="1" height="1" fill="#FDD842" />
<rect x="4" y="10" width="1" height="1" fill="#FAECB6" />
<rect x="5" y="10" width="1" height="1" fill="#FCDE65" />
<rect x="6" y="10" width="1" height="1" fill="#FCE072" />
<rect x="7" y="10" width="1" height="1" fill="#FBEAA7" />
<rect x="8" y="10" width="1" height="1" fill="#FFD72E" />
<rect x="9" y="10" width="1" height="1" fill="#6755A2" />
<rect x="10" y="10" width="1" height="1" fill="#81677E" />
<rect x="11" y="10" width="1" height="1" fill="#92756D" />
<rect x="12" y="10" width="1" height="1" fill="#0B09F4" />
<rect x="13" y="10" width="1" height="1" fill="#A88757" />
<rect x="14" y="10" width="1" height="1" fill="#715A8E" />
<rect x="15" y="10" width="1" height="1" fill="#7E6581" />
<rect x="16" y="10" width="2" height="2" fill="#FFCC00" />
<rect x="18" y="10" width="1" height="1" fill="#F8C500" />
<rect x="19" y="10" width="1" height="1" fill="#E7B400" />
<rect x="20" y="10" width="1" height="1" fill="#DDAA00" />
<rect x="21" y="10" width="1" height="1" fill="#F5C200" />
<rect x="22" y="10" width="1" height="1" fill="#DDAA00" />
<rect x="23" y="10" width="1" height="1" fill="#D19E00" />
<rect x="2" y="11" width="1" height="1" fill="#FDFCB7" />
<rect x="3" y="11" width="1" height="1" fill="#F9F2D6" />
<rect x="4" y="11" width="1" height="1" fill="#FED222" />
<rect x="5" y="11" width="1" height="1" fill="#FAE8A0" />
<rect x="6" y="11" width="1" height="1" fill="#FBE58C" />
<rect x="7" y="11" width="1" height="1" fill="#FFD72E" />
<rect x="8" y="11" width="1" height="1" fill="#FFFCC0" />
<rect x="9" y="11" width="1" height="1" fill="#F9D439" />
<rect x="10" y="11" width="1" height="1" fill="#7D6482" />
<rect x="11" y="11" width="1" height="1" fill="#0605F9" />
<rect x="12" y="11" width="1" height="1" fill="#0000FF" />
<rect x="13" y="11" width="1" height="1" fill="#0705F8" />
<rect x="14" y="11" width="1" height="1" fill="#977968" />
<rect x="15" y="11" width="1" height="1" fill="#FAC805" />
<rect x="18" y="11" width="1" height="1" fill="#DDAA00" />
<rect x="19" y="11" width="1" height="1" fill="#E3B000" />
<rect x="20" y="11" width="1" height="1" fill="#F3C000" />
<rect x="21" y="11" width="1" height="1" fill="#CE9B00" />
<rect x="22" y="11" width="1" height="1" fill="#F2BF00" />
<rect x="23" y="11" width="1" height="1" fill="#E3B000" />
<rect x="2" y="12" width="1" height="1" fill="#FEF17A" />
<rect x="3" y="12" width="1" height="1" fill="#FDDA4E" />
<rect x="4" y="12" width="1" height="1" fill="#FAEAAA" />
<rect x="5" y="12" width="1" height="1" fill="#FCDF69" />
<rect x="6" y="12" width="1" height="1" fill="#FEE355" />
<rect x="7" y="12" width="1" height="1" fill="#D9CF8B" />
<rect x="8" y="12" width="1" height="1" fill="#4847EE" />
<rect x="9" y="12" width="1" height="1" fill="#4238CB" />
<rect x="10" y="12" width="1" height="1" fill="#201ADF" />
<rect x="11" y="12" width="1" height="1" fill="#3636C9" />
<rect x="12" y="12" width="1" height="1" fill="#B3B34C" />
<rect x="13" y="12" width="1" height="1" fill="#2121DE" />
<rect x="14" y="12" width="1" height="1" fill="#271FD8" />
<rect x="15" y="12" width="1" height="1" fill="#4235BD" />
<rect x="16" y="12" width="1" height="1" fill="#5C49A3" />
<rect x="17" y="12" width="1" height="1" fill="#EEBE11" />
<rect x="18" y="12" width="1" height="1" fill="#F6C300" />
<rect x="19" y="12" width="1" height="1" fill="#E7B400" />
<rect x="20" y="12" width="1" height="1" fill="#DFAC00" />
<rect x="21" y="12" width="1" height="1" fill="#F2BF00" />
<rect x="22" y="12" width="1" height="1" fill="#DFAC00" />
<rect x="23" y="12" width="1" height="1" fill="#D29F00" />
<rect x="2" y="13" width="1" height="1" fill="#FEF590" />
<rect x="3" y="13" width="1" height="1" fill="#FBE27E" />
<rect x="4" y="13" width="1" height="1" fill="#FCE27A" />
<rect x="5" y="13" width="1" height="1" fill="#FEE55D" />
<rect x="6" y="13" width="1" height="1" fill="#FFE64D" />
<rect x="7" y="13" width="1" height="1" fill="#E6CC55" />
<rect x="8" y="13" width="1" height="1" fill="#866C7B" />
<rect x="9" y="13" width="1" height="1" fill="#82687D" />
<rect x="10" y="13" width="1" height="1" fill="#4033BF" />
<rect x="11" y="13" width="1" height="1" fill="#2424DB" />
<rect x="12" y="13" width="1" height="1" fill="#767689" />
<rect x="13" y="13" width="1" height="1" fill="#1616E9" />
<rect x="14" y="13" width="1" height="1" fill="#4E3EB1" />
<rect x="15" y="13" width="1" height="1" fill="#82687D" />
<rect x="16" y="13" width="1" height="1" fill="#94766B" />
<rect x="17" y="13" width="1" height="1" fill="#F4C30B" />
<rect x="18" y="13" width="1" height="1" fill="#EDBA00" />
<rect x="19" y="13" width="1" height="1" fill="#E5B200" />
<rect x="20" y="13" width="1" height="1" fill="#E6B300" />
<rect x="21" y="13" width="1" height="1" fill="#E5B200" />
<rect x="22" y="13" width="1" height="1" fill="#E6B300" />
<rect x="23" y="13" width="1" height="1" fill="#D8A500" />
<rect x="2" y="14" width="1" height="1" fill="#FDF8A2" />
<rect x="3" y="14" width="1" height="1" fill="#FBEAA3" />
<rect x="4" y="14" width="1" height="1" fill="#FEDC3A" />
<rect x="5" y="14" width="1" height="1" fill="#FFE957" />
<rect x="6" y="14" width="1" height="1" fill="#FFE751" />
<rect x="7" y="14" width="1" height="1" fill="#FFD722" />
<rect x="8" y="14" width="1" height="1" fill="#FFCC01" />
<rect x="9" y="14" width="1" height="1" fill="#CAA135" />
<rect x="10" y="14" width="1" height="1" fill="#7E6581" />
<rect x="11" y="14" width="1" height="1" fill="#3329CC" />
<rect x="12" y="14" width="1" height="1" fill="#0403FB" />
<rect x="13" y="14" width="1" height="1" fill="#3B2FC4" />
<rect x="14" y="14" width="1" height="1" fill="#8A6F75" />
<rect x="15" y="14" width="1" height="1" fill="#D2A82D" />
<rect x="16" y="14" width="1" height="1" fill="#FDCA00" />
<rect x="17" y="14" width="1" height="1" fill="#F2BF00" />
<rect x="18" y="14" width="1" height="1" fill="#E1AE00" />
<rect x="19" y="14" width="1" height="1" fill="#E4B100" />
<rect x="20" y="14" width="1" height="1" fill="#ECB900" />
<rect x="21" y="14" width="1" height="1" fill="#DBA800" />
<rect x="22" y="14" width="1" height="1" fill="#EBB800" />
<rect x="23" y="14" width="1" height="1" fill="#D5AA0F" />
<rect x="24" y="14" width="1" height="1" fill="#836A14" />
<rect x="2" y="15" width="1" height="1" fill="#FFEE67" />
<rect x="3" y="15" width="1" height="1" fill="#FFD418" />
<rect x="4" y="15" width="1" height="1" fill="#FFF781" />
<rect x="5" y="15" width="1" height="1" fill="#FFDD32" />
<rect x="6" y="15" width="1" height="1" fill="#FFE13E" />
<rect x="7" y="15" width="1" height="1" fill="#FFF374" />
<rect x="8" y="15" width="1" height="1" fill="#FFCE05" />
<rect x="9" y="15" width="1" height="1" fill="#4C3DB3" />
<rect x="10" y="15" width="1" height="1" fill="#896E76" />
<rect x="11" y="15" width="1" height="2" fill="#B69249" />
<rect x="12" y="15" width="1" height="2" fill="#0E0BF1" />
<rect x="13" y="15" width="1" height="2" fill="#D2A82D" />
<rect x="14" y="15" width="1" height="1" fill="#6F5990" />
<rect x="15" y="15" width="1" height="1" fill="#655199" />
<rect x="16" y="15" width="1" height="1" fill="#F6C300" />
<rect x="17" y="15" width="1" height="1" fill="#D3A000" />
<rect x="18" y="15" width="1" height="1" fill="#EEBB00" />
<rect x="19" y="15" width="1" height="1" fill="#E8B500" />
<rect x="20" y="15" width="1" height="1" fill="#D9A600" />
<rect x="21" y="15" width="1" height="1" fill="#FCC900" />
<rect x="22" y="15" width="1" height="1" fill="#D5A404" />
<rect x="23" y="15" width="1" height="1" fill="#B19936" />
<rect x="24" y="15" width="1" height="1" fill="#6C6A43" />
<rect x="2" y="16" width="1" height="1" fill="#FFFC90" />
<rect x="3" y="16" width="1" height="1" fill="#FFF273" />
<rect x="4" y="16" width="1" height="1" fill="#FFD926" />
<rect x="5" y="16" width="1" height="1" fill="#FFCF09" />
<rect x="6" y="16" width="1" height="1" fill="#FFD00C" />
<rect x="7" y="16" width="1" height="1" fill="#FFD316" />
<rect x="8" y="16" width="1" height="1" fill="#FFCC01" />
<rect x="9" y="16" width="1" height="1" fill="#DEB121" />
<rect x="10" y="16" width="1" height="1" fill="#E9BA16" />
<rect x="14" y="16" width="1" height="1" fill="#E4B71B" />
<rect x="15" y="16" width="1" height="1" fill="#D3A61C" />
<rect x="16" y="16" width="1" height="1" fill="#D9A600" />
<rect x="17" y="16" width="1" height="1" fill="#F3C000" />
<rect x="18" y="16" width="1" height="1" fill="#E0AD00" />
<rect x="19" y="16" width="1" height="1" fill="#E4B100" />
<rect x="20" y="16" width="1" height="1" fill="#EFBC00" />
<rect x="21" y="16" width="1" height="1" fill="#D5A200" />
<rect x="22" y="16" width="1" height="1" fill="#AE9B40" />
<rect x="23" y="16" width="1" height="1" fill="#B49931" />
<rect x="24" y="16" width="1" height="1" fill="#876A0C" />
<rect x="2" y="17" width="1" height="1" fill="#FFF57A" />
<rect x="3" y="17" width="1" height="1" fill="#FFE241" />
<rect x="4" y="17" width="1" height="1" fill="#FFE958" />
<rect x="5" y="17" width="1" height="1" fill="#FFD61F" />
<rect x="6" y="17" width="5" height="1" fill="#FFCC00" />
<rect x="11" y="17" width="1" height="1" fill="#E2B51D" />
<rect x="12" y="17" width="1" height="1" fill="#9E7E61" />
<rect x="13" y="17" width="1" height="1" fill="#EDBE12" />
<rect x="14" y="17" width="1" height="1" fill="#EDBA00" />
<rect x="15" y="17" width="1" height="2" fill="#E4B100" />
<rect x="16" y="17" width="1" height="1" fill="#E9B600" />
<rect x="17" y="17" width="1" height="1" fill="#E1AE00" />
<rect x="18" y="17" width="1" height="1" fill="#E7B400" />
<rect x="19" y="17" width="1" height="1" fill="#E6B300" />
<rect x="20" y="17" width="1" height="1" fill="#D5A90E" />
<rect x="21" y="17" width="1" height="1" fill="#AE993C" />
<rect x="22" y="17" width="1" height="1" fill="#B5992E" />
<rect x="23" y="17" width="1" height="2" fill="#B29934" />
<rect x="24" y="17" width="1" height="1" fill="#786A2A" />
<rect x="2" y="18" width="1" height="3" fill="#FFED64" />
<rect x="3" y="18" width="1" height="1" fill="#FFD00B" />
<rect x="4" y="18" width="1" height="1" fill="#FFE956" />
<rect x="5" y="18" width="1" height="1" fill="#FFD721" />
<rect x="6" y="18" width="4" height="1" fill="#FFCC00" />
<rect x="10" y="18" width="1" height="1" fill="#F5C200" />
<rect x="11" y="18" width="1" height="1" fill="#F2BF00" />
<rect x="12" y="18" width="1" height="1" fill="#FECB00" />
<rect x="13" y="18" width="1" height="1" fill="#F0BD00" />
<rect x="14" y="18" width="1" height="1" fill="#E4B100" />
<rect x="16" y="18" width="1" height="1" fill="#EAB700" />
<rect x="17" y="18" width="1" height="1" fill="#E0AD00" />
<rect x="18" y="18" width="1" height="1" fill="#E8B500" />
<rect x="19" y="18" width="1" height="1" fill="#D5AB11" />
<rect x="20" y="18" width="1" height="1" fill="#B6992B" />
<rect x="21" y="18" width="1" height="1" fill="#AC9940" />
<rect x="22" y="18" width="1" height="1" fill="#B6992C" />
<rect x="24" y="18" width="1" height="1" fill="#776A2D" />
<rect x="3" y="19" width="6" height="2" fill="#FFCC00" />
<rect x="9" y="19" width="1" height="1" fill="#FAC700" />
<rect x="10" y="19" width="1" height="1" fill="#E5B200" />
<rect x="11" y="19" width="1" height="1" fill="#DEAB00" />
<rect x="12" y="19" width="1" height="1" fill="#F6C300" />
<rect x="13" y="19" width="1" height="1" fill="#D9A600" />
<rect x="14" y="19" width="1" height="1" fill="#E9B600" />
<rect x="15" y="19" width="1" height="1" fill="#EAB700" />
<rect x="16" y="19" width="1" height="1" fill="#D8A500" />
<rect x="17" y="19" width="1" height="1" fill="#F5C200" />
<rect x="18" y="19" width="1" height="1" fill="#D5A709" />
<rect x="19" y="19" width="1" height="1" fill="#B49930" />
<rect x="20" y="19" width="1" height="1" fill="#A89948" />
<rect x="21" y="19" width="1" height="1" fill="#C5990F" />
<rect x="22" y="19" width="1" height="1" fill="#A99947" />
<rect x="23" y="19" width="1" height="1" fill="#B49930" />
<rect x="24" y="19" width="1" height="1" fill="#886A0A" />
<rect x="9" y="20" width="1" height="1" fill="#DDAA00" />
<rect x="10" y="20" width="1" height="1" fill="#E6B300" />
<rect x="11" y="20" width="1" height="1" fill="#EEBB00" />
<rect x="12" y="20" width="1" height="1" fill="#D3A000" />
<rect x="13" y="20" width="1" height="1" fill="#F3C000" />
<rect x="14" y="20" width="1" height="1" fill="#E1AE00" />
<rect x="15" y="20" width="1" height="1" fill="#E0AD00" />
<rect x="16" y="20" width="1" height="1" fill="#F5C200" />
<rect x="17" y="20" width="1" height="1" fill="#D4A100" />
<rect x="18" y="20" width="1" height="1" fill="#AE9A3F" />
<rect x="19" y="20" width="1" height="1" fill="#B19937" />
<rect x="20" y="20" width="1" height="1" fill="#BE991C" />
<rect x="21" y="20" width="1" height="1" fill="#9E995C" />
<rect x="22" y="20" width="1" height="1" fill="#BE991D" />
<rect x="23" y="20" width="1" height="1" fill="#B19936" />
<rect x="24" y="20" width="1" height="1" fill="#6D6A40" />
<rect x="0" y="21" width="1" height="1" fill="#404026" />
<rect x="1" y="21" width="1" height="1" fill="#3D3D1C" />
<rect x="2" y="21" width="1" height="1" fill="#524C20" />
<rect x="3" y="21" width="6" height="1" fill="#524100" />
<rect x="9" y="21" width="1" height="1" fill="#463500" />
<rect x="10" y="21" width="1" height="1" fill="#4A3900" />
<rect x="11" y="21" width="1" height="1" fill="#4D3D00" />
<rect x="12" y="21" width="1" height="1" fill="#423200" />
<rect x="13" y="21" width="1" height="1" fill="#4F3E00" />
<rect x="14" y="21" width="1" height="1" fill="#483800" />
<rect x="15" y="21" width="1" height="1" fill="#473700" />
<rect x="16" y="21" width="1" height="1" fill="#4F3F00" />
<rect x="17" y="21" width="1" height="1" fill="#433200" />
<rect x="18" y="21" width="1" height="1" fill="#363116" />
<rect x="19" y="21" width="1" height="1" fill="#383112" />
<rect x="20" y="21" width="1" height="1" fill="#3E3107" />
<rect x="21" y="21" width="1" height="1" fill="#313120" />
<rect x="22" y="21" width="1" height="1" fill="#3E3108" />
<rect x="23" y="21" width="1" height="1" fill="#393111" />
<rect x="24" y="21" width="1" height="1" fill="#222217" />
<rect x="0" y="22" width="1" height="1" fill="#6C6C6C" />
<rect x="1" y="22" width="24" height="1" fill="#575757" />
<rect x="25" y="22" width="1" height="1" fill="#5F5F5F" />
</svg>
