<?xml version="1.0" encoding="UTF-8" ?>
<svg version="1.1" width="18" height="21" xmlns="http://www.w3.org/2000/svg" shape-rendering="crispEdges">
<rect x="9" y="0" width="1" height="1" fill="#A7B09F" />
<rect x="10" y="0" width="1" height="1" fill="#9FAB93" />
<rect x="9" y="1" width="1" height="3" fill="#76915B" />
<rect x="10" y="1" width="1" height="1" fill="#577B33" />
<rect x="11" y="1" width="1" height="1" fill="#AEAEAE" />
<rect x="12" y="1" width="1" height="1" fill="#BDBDBD" />
<rect x="10" y="2" width="1" height="1" fill="#2B4F07" />
<rect x="11" y="2" width="1" height="1" fill="#232323" />
<rect x="12" y="2" width="1" height="1" fill="#A4A4A4" />
<rect x="10" y="3" width="1" height="1" fill="#53772F" />
<rect x="11" y="3" width="1" height="1" fill="#9A9A9A" />
<rect x="12" y="3" width="1" height="1" fill="#535353" />
<rect x="13" y="3" width="1" height="1" fill="#909090" />
<rect x="6" y="4" width="1" height="1" fill="#B4B8AF" />
<rect x="7" y="4" width="1" height="1" fill="#879B72" />
<rect x="8" y="4" width="1" height="1" fill="#869B70" />
<rect x="9" y="4" width="1" height="1" fill="#5A7F36" />
<rect x="10" y="4" width="1" height="1" fill="#6D914A" />
<rect x="11" y="4" width="1" height="1" fill="#EDEFEC" />
<rect x="12" y="4" width="1" height="1" fill="#6F815E" />
<rect x="13" y="4" width="1" height="1" fill="#666E5D" />
<rect x="14" y="4" width="1" height="1" fill="#8F8F8F" />
<rect x="4" y="5" width="1" height="1" fill="#AEB5A8" />
<rect x="5" y="5" width="1" height="1" fill="#A6AF9C" />
<rect x="6" y="5" width="1" height="1" fill="#95A585" />
<rect x="7" y="5" width="1" height="1" fill="#598231" />
<rect x="8" y="5" width="2" height="1" fill="#58812E" />
<rect x="10" y="5" width="1" height="1" fill="#85A565" />
<rect x="11" y="5" width="1" height="1" fill="#EBFAE0" />
<rect x="12" y="5" width="1" height="1" fill="#BAFE9E" />
<rect x="13" y="5" width="1" height="1" fill="#4A8144" />
<rect x="14" y="5" width="1" height="1" fill="#415947" />
<rect x="15" y="5" width="1" height="1" fill="#A1A1A1" />
<rect x="16" y="5" width="1" height="1" fill="#BDBDBD" />
<rect x="4" y="6" width="1" height="1" fill="#668645" />
<rect x="5" y="6" width="1" height="1" fill="#396A08" />
<rect x="6" y="6" width="1" height="1" fill="#608739" />
<rect x="7" y="6" width="1" height="1" fill="#ECEFE9" />
<rect x="8" y="6" width="2" height="1" fill="#F0F2ED" />
<rect x="10" y="6" width="1" height="1" fill="#E6F6D6" />
<rect x="11" y="6" width="1" height="1" fill="#C4FF9A" />
<rect x="12" y="6" width="1" height="1" fill="#52FF71" />
<rect x="13" y="6" width="1" height="1" fill="#34F864" />
<rect x="14" y="6" width="1" height="1" fill="#219B40" />
<rect x="15" y="6" width="1" height="1" fill="#242424" />
<rect x="16" y="6" width="1" height="1" fill="#B2B2B2" />
<rect x="2" y="7" width="1" height="1" fill="#B3B8AE" />
<rect x="3" y="7" width="1" height="1" fill="#638542" />
<rect x="4" y="7" width="1" height="1" fill="#A0B58A" />
<rect x="5" y="7" width="1" height="1" fill="#C3D1B5" />
<rect x="6" y="7" width="1" height="1" fill="#C7DAB5" />
<rect x="7" y="7" width="1" height="1" fill="#D7FCB3" />
<rect x="8" y="7" width="1" height="1" fill="#84FD97" />
<rect x="9" y="7" width="1" height="1" fill="#68FD8D" />
<rect x="10" y="7" width="1" height="1" fill="#65FE86" />
<rect x="11" y="7" width="1" height="1" fill="#59FF73" />
<rect x="12" y="7" width="1" height="1" fill="#3AFF68" />
<rect x="13" y="7" width="1" height="1" fill="#33E866" />
<rect x="14" y="7" width="1" height="1" fill="#2EB23F" />
<rect x="15" y="7" width="1" height="1" fill="#276708" />
<rect x="16" y="7" width="1" height="1" fill="#333830" />
<rect x="17" y="7" width="1" height="1" fill="#959595" />
<rect x="1" y="8" width="1" height="1" fill="#A7B09E" />
<rect x="2" y="8" width="1" height="1" fill="#7D9663" />
<rect x="3" y="8" width="1" height="1" fill="#93AC79" />
<rect x="4" y="8" width="1" height="1" fill="#C9E2AF" />
<rect x="5" y="8" width="1" height="1" fill="#C0FBBD" />
<rect x="6" y="8" width="1" height="1" fill="#91F19A" />
<rect x="7" y="8" width="1" height="1" fill="#80CD4E" />
<rect x="8" y="8" width="1" height="1" fill="#46CC39" />
<rect x="9" y="8" width="1" height="1" fill="#33D94E" />
<rect x="10" y="8" width="3" height="1" fill="#33E566" />
<rect x="13" y="8" width="1" height="1" fill="#33C647" />
<rect x="14" y="8" width="1" height="1" fill="#298C20" />
<rect x="15" y="8" width="1" height="1" fill="#244F0F" />
<rect x="16" y="8" width="1" height="1" fill="#5A5E58" />
<rect x="17" y="8" width="1" height="1" fill="#A2A2A2" />
<rect x="1" y="9" width="1" height="1" fill="#8EA07C" />
<rect x="2" y="9" width="1" height="1" fill="#4A781C" />
<rect x="3" y="9" width="1" height="1" fill="#D9EBC8" />
<rect x="4" y="9" width="1" height="1" fill="#BBF4A7" />
<rect x="5" y="9" width="1" height="1" fill="#6BD96F" />
<rect x="6" y="9" width="1" height="1" fill="#25AB3B" />
<rect x="7" y="9" width="1" height="1" fill="#257101" />
<rect x="8" y="9" width="1" height="1" fill="#257000" />
<rect x="9" y="9" width="1" height="1" fill="#258327" />
<rect x="10" y="9" width="1" height="1" fill="#29A553" />
<rect x="11" y="9" width="1" height="1" fill="#33CB64" />
<rect x="12" y="9" width="1" height="1" fill="#33C14F" />
<rect x="13" y="9" width="1" height="1" fill="#2B8E1D" />
<rect x="14" y="9" width="1" height="1" fill="#2B5914" />
<rect x="15" y="9" width="1" height="1" fill="#494949" />
<rect x="16" y="9" width="1" height="1" fill="#B5B5B5" />
<rect x="0" y="10" width="1" height="1" fill="#BCBEBB" />
<rect x="1" y="10" width="1" height="1" fill="#8DA07A" />
<rect x="2" y="10" width="1" height="1" fill="#4D7E1C" />
<rect x="3" y="10" width="1" height="1" fill="#B7EE89" />
<rect x="4" y="10" width="1" height="1" fill="#62D673" />
<rect x="5" y="10" width="1" height="1" fill="#1F713A" />
<rect x="6" y="10" width="3" height="1" fill="#080808" />
<rect x="9" y="10" width="1" height="1" fill="#040404" />
<rect x="10" y="10" width="1" height="1" fill="#0F3C1D" />
<rect x="11" y="10" width="1" height="1" fill="#33C65B" />
<rect x="12" y="10" width="1" height="1" fill="#319C10" />
<rect x="13" y="10" width="1" height="1" fill="#183E05" />
<rect x="14" y="10" width="1" height="1" fill="#4E4E4E" />
<rect x="0" y="11" width="1" height="1" fill="#7D9565" />
<rect x="1" y="11" width="1" height="1" fill="#7D9B5F" />
<rect x="2" y="11" width="1" height="1" fill="#C3DCBE" />
<rect x="3" y="11" width="1" height="1" fill="#5DD679" />
<rect x="4" y="11" width="1" height="1" fill="#216032" />
<rect x="5" y="11" width="1" height="1" fill="#4A5A50" />
<rect x="6" y="11" width="3" height="1" fill="#9C9C9C" />
<rect x="9" y="11" width="1" height="1" fill="#4A4A4A" />
<rect x="10" y="11" width="1" height="1" fill="#0F3006" />
<rect x="11" y="11" width="1" height="1" fill="#309A12" />
<rect x="12" y="11" width="1" height="1" fill="#103303" />
<rect x="13" y="11" width="1" height="1" fill="#636A5F" />
<rect x="14" y="11" width="1" height="1" fill="#AAAAAA" />
<rect x="0" y="12" width="1" height="5" fill="#6D8B4F" />
<rect x="1" y="12" width="1" height="1" fill="#709B44" />
<rect x="2" y="12" width="1" height="1" fill="#C5E7AE" />
<rect x="3" y="12" width="1" height="1" fill="#2A6539" />
<rect x="4" y="12" width="1" height="1" fill="#526759" />
<rect x="5" y="12" width="1" height="1" fill="#949494" />
<rect x="9" y="12" width="1" height="2" fill="#5B5B5B" />
<rect x="10" y="12" width="1" height="1" fill="#061300" />
<rect x="11" y="12" width="1" height="1" fill="#1B4307" />
<rect x="12" y="12" width="1" height="1" fill="#62685E" />
<rect x="13" y="12" width="1" height="1" fill="#A1A1A1" />
<rect x="1" y="13" width="1" height="1" fill="#569C30" />
<rect x="2" y="13" width="1" height="1" fill="#83DF76" />
<rect x="3" y="13" width="1" height="1" fill="#0F1A0E" />
<rect x="4" y="13" width="1" height="4" fill="#808080" />
<rect x="10" y="13" width="1" height="1" fill="#141414" />
<rect x="11" y="13" width="1" height="1" fill="#4C4C4C" />
<rect x="12" y="13" width="1" height="1" fill="#ACACAC" />
<rect x="1" y="14" width="1" height="2" fill="#339C24" />
<rect x="2" y="14" width="1" height="2" fill="#2DDF59" />
<rect x="3" y="14" width="1" height="2" fill="#051A0A" />
<rect x="9" y="14" width="1" height="1" fill="#686868" />
<rect x="10" y="14" width="1" height="1" fill="#4A4A4A" />
<rect x="9" y="15" width="1" height="1" fill="#B6B6B6" />
<rect x="10" y="15" width="1" height="1" fill="#B2B2B2" />
<rect x="1" y="16" width="1" height="1" fill="#339024" />
<rect x="2" y="16" width="1" height="1" fill="#2DC159" />
<rect x="3" y="16" width="1" height="1" fill="#05160A" />
<rect x="0" y="17" width="1" height="1" fill="#92A381" />
<rect x="1" y="17" width="1" height="1" fill="#53844B" />
<rect x="2" y="17" width="1" height="1" fill="#1C6C32" />
<rect x="3" y="17" width="1" height="1" fill="#174806" />
<rect x="4" y="17" width="1" height="1" fill="#4F5E48" />
<rect x="5" y="17" width="1" height="1" fill="#919191" />
<rect x="1" y="18" width="1" height="1" fill="#8A8A8A" />
<rect x="2" y="18" width="1" height="1" fill="#283323" />
<rect x="3" y="18" width="1" height="1" fill="#287104" />
<rect x="4" y="18" width="1" height="1" fill="#0D2800" />
<rect x="5" y="18" width="1" height="1" fill="#434343" />
<rect x="6" y="18" width="1" height="1" fill="#A0A0A0" />
<rect x="7" y="18" width="1" height="1" fill="#BFBFBF" />
<rect x="1" y="19" width="1" height="1" fill="#BFBFBF" />
<rect x="2" y="19" width="1" height="1" fill="#A5A5A5" />
<rect x="3" y="19" width="1" height="1" fill="#141613" />
<rect x="4" y="19" width="1" height="1" fill="#000100" />
<rect x="5" y="19" width="1" height="1" fill="#020202" />
<rect x="6" y="19" width="1" height="1" fill="#2B2B2B" />
<rect x="7" y="19" width="1" height="1" fill="#BCBCBC" />
<rect x="2" y="20" width="1" height="1" fill="#BABABA" />
<rect x="3" y="20" width="1" height="1" fill="#969696" />
<rect x="4" y="20" width="2" height="1" fill="#919191" />
<rect x="6" y="20" width="1" height="1" fill="#9B9B9B" />
<rect x="7" y="20" width="1" height="1" fill="#BFBFBF" />
</svg>