<?xml version="1.0" encoding="UTF-8" ?>
<svg version="1.1" width="22" height="25" xmlns="http://www.w3.org/2000/svg">
<rect x="0" y="0" width="1" height="1" fill="#9E9E9E" />
<rect x="1" y="0" width="15" height="1" fill="#969696" />
<rect x="16" y="0" width="1" height="1" fill="#9D9D9D" />
<rect x="17" y="0" width="1" height="1" fill="#BDBDBD" />
<rect x="0" y="1" width="1" height="22" fill="#919191" />
<rect x="1" y="1" width="1" height="1" fill="#A7A7A7" />
<rect x="2" y="1" width="12" height="1" fill="#BEBEBE" />
<rect x="14" y="1" width="1" height="1" fill="#BCBCBC" />
<rect x="15" y="1" width="1" height="1" fill="#A6A6A6" />
<rect x="16" y="1" width="1" height="1" fill="#818181" />
<rect x="17" y="1" width="1" height="1" fill="#656565" />
<rect x="18" y="1" width="1" height="1" fill="#A3A3A3" />
<rect x="1" y="2" width="1" height="17" fill="#C9C9C9" />
<rect x="2" y="2" width="11" height="1" fill="#F8F8F8" />
<rect x="13" y="2" width="1" height="1" fill="#F6F6F6" />
<rect x="14" y="2" width="1" height="1" fill="#F3F3F3" />
<rect x="15" y="2" width="1" height="3" fill="#C8C8C8" />
<rect x="16" y="2" width="1" height="1" fill="#7B7B7B" />
<rect x="17" y="2" width="1" height="1" fill="#454545" />
<rect x="18" y="2" width="1" height="1" fill="#767676" />
<rect x="19" y="2" width="1" height="1" fill="#A6A6A6" />
<rect x="2" y="3" width="10" height="1" fill="#F8F8F8" />
<rect x="12" y="3" width="1" height="1" fill="#F7F7F7" />
<rect x="13" y="3" width="1" height="1" fill="#F2F2F2" />
<rect x="14" y="3" width="1" height="4" fill="#F1F1F1" />
<rect x="16" y="3" width="1" height="2" fill="#979797" />
<rect x="17" y="3" width="1" height="2" fill="#EFEFEF" />
<rect x="18" y="3" width="1" height="1" fill="#525252" />
<rect x="19" y="3" width="1" height="1" fill="#5B5B5B" />
<rect x="20" y="3" width="1" height="1" fill="#BBBBBB" />
<rect x="2" y="4" width="9" height="1" fill="#F8F8F8" />
<rect x="11" y="4" width="1" height="1" fill="#F6F6F6" />
<rect x="12" y="4" width="1" height="1" fill="#F2F2F2" />
<rect x="13" y="4" width="1" height="2" fill="#F1F1F1" />
<rect x="18" y="4" width="1" height="1" fill="#D6D6D6" />
<rect x="19" y="4" width="1" height="1" fill="#7C7C7C" />
<rect x="20" y="4" width="1" height="1" fill="#4A4A4A" />
<rect x="2" y="5" width="8" height="2" fill="#F8F8F8" />
<rect x="10" y="5" width="1" height="1" fill="#CCCCCC" />
<rect x="11" y="5" width="1" height="1" fill="#BBBBBB" />
<rect x="12" y="5" width="1" height="1" fill="#F1F1F1" />
<rect x="15" y="5" width="1" height="1" fill="#ABABAB" />
<rect x="16" y="5" width="1" height="1" fill="#414141" />
<rect x="17" y="5" width="1" height="1" fill="#676767" />
<rect x="18" y="5" width="1" height="1" fill="#6B6B6B" />
<rect x="19" y="5" width="1" height="1" fill="#393939" />
<rect x="20" y="5" width="1" height="1" fill="#131313" />
<rect x="21" y="5" width="1" height="1" fill="#535353" />
<rect x="10" y="6" width="1" height="1" fill="#ACACAC" />
<rect x="11" y="6" width="1" height="1" fill="#818181" />
<rect x="12" y="6" width="1" height="1" fill="#C4C4C4" />
<rect x="13" y="6" width="1" height="1" fill="#E9E9E9" />
<rect x="15" y="6" width="1" height="1" fill="#B3B3B3" />
<rect x="16" y="6" width="1" height="1" fill="#4D4D4D" />
<rect x="17" y="6" width="1" height="1" fill="#474747" />
<rect x="18" y="6" width="2" height="1" fill="#464646" />
<rect x="20" y="6" width="1" height="1" fill="#363636" />
<rect x="21" y="6" width="1" height="18" fill="#010101" />
<rect x="2" y="7" width="5" height="2" fill="#F8F8F8" />
<rect x="7" y="7" width="1" height="1" fill="#F5F5F5" />
<rect x="8" y="7" width="1" height="1" fill="#E8E8E8" />
<rect x="9" y="7" width="1" height="1" fill="#E7E7E7" />
<rect x="10" y="7" width="1" height="1" fill="#A4A4A4" />
<rect x="11" y="7" width="1" height="3" fill="#666666" />
<rect x="12" y="7" width="1" height="1" fill="#6E6E6E" />
<rect x="13" y="7" width="1" height="1" fill="#CDCDCD" />
<rect x="14" y="7" width="1" height="1" fill="#EAEAEA" />
<rect x="15" y="7" width="1" height="1" fill="#EBEBEB" />
<rect x="16" y="7" width="1" height="1" fill="#E0E0E0" />
<rect x="17" y="7" width="1" height="1" fill="#D0D0D0" />
<rect x="18" y="7" width="1" height="1" fill="#CECECE" />
<rect x="19" y="7" width="1" height="1" fill="#CDCDCD" />
<rect x="20" y="7" width="1" height="16" fill="#9C9C9C" />
<rect x="7" y="8" width="1" height="1" fill="#DDDDDD" />
<rect x="8" y="8" width="1" height="1" fill="#797979" />
<rect x="9" y="8" width="1" height="1" fill="#777777" />
<rect x="10" y="8" width="1" height="1" fill="#6E6E6E" />
<rect x="12" y="8" width="1" height="1" fill="#676767" />
<rect x="13" y="8" width="1" height="1" fill="#737373" />
<rect x="14" y="8" width="1" height="1" fill="#B9B9B9" />
<rect x="15" y="8" width="1" height="1" fill="#E4E4E4" />
<rect x="16" y="8" width="1" height="1" fill="#E2E2E2" />
<rect x="17" y="8" width="1" height="1" fill="#DCDCDC" />
<rect x="18" y="8" width="1" height="1" fill="#DBDBDB" />
<rect x="19" y="8" width="1" height="1" fill="#D4D4D4" />
<rect x="2" y="9" width="4" height="1" fill="#F8F8F8" />
<rect x="6" y="9" width="1" height="1" fill="#CCCCCC" />
<rect x="7" y="9" width="1" height="1" fill="#949494" />
<rect x="8" y="9" width="1" height="1" fill="#989898" />
<rect x="9" y="9" width="1" height="1" fill="#B4B4B4" />
<rect x="10" y="9" width="1" height="1" fill="#8F8F8F" />
<rect x="12" y="9" width="1" height="1" fill="#6B6B6B" />
<rect x="13" y="9" width="1" height="1" fill="#ABABAB" />
<rect x="14" y="9" width="1" height="1" fill="#D2D2D2" />
<rect x="15" y="9" width="1" height="1" fill="#E2E2E2" />
<rect x="16" y="9" width="1" height="1" fill="#DFDFDF" />
<rect x="17" y="9" width="2" height="13" fill="#DDDDDD" />
<rect x="19" y="9" width="1" height="13" fill="#D5D5D5" />
<rect x="2" y="10" width="3" height="1" fill="#F8F8F8" />
<rect x="5" y="10" width="1" height="1" fill="#F4F4F4" />
<rect x="6" y="10" width="1" height="1" fill="#B1B1B1" />
<rect x="7" y="10" width="1" height="1" fill="#767676" />
<rect x="8" y="10" width="1" height="1" fill="#C8C8C8" />
<rect x="9" y="10" width="1" height="1" fill="#E2E2E2" />
<rect x="10" y="10" width="1" height="1" fill="#A5A5A5" />
<rect x="11" y="10" width="1" height="1" fill="#767676" />
<rect x="12" y="10" width="1" height="1" fill="#A0A0A0" />
<rect x="13" y="10" width="1" height="1" fill="#D7D7D7" />
<rect x="14" y="10" width="1" height="1" fill="#E3E3E3" />
<rect x="15" y="10" width="1" height="1" fill="#E1E1E1" />
<rect x="16" y="10" width="1" height="12" fill="#DDDDDD" />
<rect x="2" y="11" width="2" height="1" fill="#F8F8F8" />
<rect x="4" y="11" width="1" height="1" fill="#F5F5F5" />
<rect x="5" y="11" width="1" height="1" fill="#EEEEEE" />
<rect x="6" y="11" width="1" height="2" fill="#ADADAD" />
<rect x="7" y="11" width="1" height="2" fill="#7C7C7C" />
<rect x="8" y="11" width="1" height="2" fill="#E7E7E7" />
<rect x="9" y="11" width="1" height="2" fill="#EAEAEA" />
<rect x="10" y="11" width="1" height="1" fill="#B3B3B3" />
<rect x="11" y="11" width="1" height="1" fill="#9E9E9E" />
<rect x="12" y="11" width="2" height="2" fill="#E3E3E3" />
<rect x="14" y="11" width="1" height="1" fill="#E2E2E2" />
<rect x="15" y="11" width="1" height="1" fill="#E0E0E0" />
<rect x="2" y="12" width="1" height="2" fill="#F8F8F8" />
<rect x="3" y="12" width="1" height="2" fill="#F6F6F6" />
<rect x="4" y="12" width="1" height="1" fill="#ECECEC" />
<rect x="5" y="12" width="1" height="3" fill="#EAEAEA" />
<rect x="10" y="12" width="1" height="1" fill="#E8E8E8" />
<rect x="11" y="12" width="1" height="1" fill="#E5E5E5" />
<rect x="14" y="12" width="1" height="1" fill="#DFDFDF" />
<rect x="15" y="12" width="1" height="1" fill="#DDDDDD" />
<rect x="4" y="13" width="1" height="2" fill="#EBEBEB" />
<rect x="6" y="13" width="1" height="1" fill="#DADADA" />
<rect x="7" y="13" width="1" height="1" fill="#CECECE" />
<rect x="8" y="13" width="1" height="1" fill="#E9E9E9" />
<rect x="9" y="13" width="1" height="1" fill="#E6E6E6" />
<rect x="10" y="13" width="1" height="1" fill="#E5E5E5" />
<rect x="11" y="13" width="1" height="1" fill="#E4E4E4" />
<rect x="12" y="13" width="1" height="1" fill="#E3E3E3" />
<rect x="13" y="13" width="1" height="1" fill="#DFDFDF" />
<rect x="14" y="13" width="1" height="1" fill="#A5A5A5" />
<rect x="15" y="13" width="1" height="1" fill="#A3A3A3" />
<rect x="2" y="14" width="1" height="1" fill="#F5F5F5" />
<rect x="3" y="14" width="1" height="1" fill="#F0F0F0" />
<rect x="6" y="14" width="1" height="1" fill="#E8E8E8" />
<rect x="7" y="14" width="2" height="1" fill="#E6E6E6" />
<rect x="9" y="14" width="1" height="1" fill="#E4E4E4" />
<rect x="10" y="14" width="1" height="1" fill="#C2C2C2" />
<rect x="11" y="14" width="1" height="1" fill="#B5B5B5" />
<rect x="12" y="14" width="1" height="1" fill="#E0E0E0" />
<rect x="13" y="14" width="1" height="1" fill="#DDDDDD" />
<rect x="14" y="14" width="1" height="1" fill="#909090" />
<rect x="15" y="14" width="1" height="2" fill="#8F8F8F" />
<rect x="2" y="15" width="1" height="4" fill="#F3F3F3" />
<rect x="3" y="15" width="2" height="3" fill="#EAEAEA" />
<rect x="5" y="15" width="1" height="1" fill="#E9E9E9" />
<rect x="6" y="15" width="1" height="1" fill="#E6E6E6" />
<rect x="7" y="15" width="2" height="1" fill="#E3E3E3" />
<rect x="9" y="15" width="1" height="1" fill="#C8C8C8" />
<rect x="10" y="15" width="1" height="1" fill="#919191" />
<rect x="11" y="15" width="1" height="1" fill="#898989" />
<rect x="12" y="15" width="1" height="1" fill="#DCDCDC" />
<rect x="13" y="15" width="1" height="1" fill="#D3D3D3" />
<rect x="14" y="15" width="1" height="1" fill="#8B8B8B" />
<rect x="5" y="16" width="1" height="2" fill="#E5E5E5" />
<rect x="6" y="16" width="1" height="2" fill="#E3E3E3" />
<rect x="7" y="16" width="1" height="1" fill="#E2E2E2" />
<rect x="8" y="16" width="1" height="1" fill="#DCDCDC" />
<rect x="9" y="16" width="1" height="1" fill="#838383" />
<rect x="10" y="16" width="1" height="3" fill="#666666" />
<rect x="11" y="16" width="1" height="1" fill="#878787" />
<rect x="12" y="16" width="1" height="1" fill="#D4D4D4" />
<rect x="13" y="16" width="1" height="1" fill="#B5B5B5" />
<rect x="14" y="16" width="1" height="1" fill="#828282" />
<rect x="15" y="16" width="1" height="1" fill="#939393" />
<rect x="7" y="17" width="1" height="1" fill="#CDCDCD" />
<rect x="8" y="17" width="1" height="1" fill="#7E7E7E" />
<rect x="9" y="17" width="1" height="1" fill="#6B6B6B" />
<rect x="11" y="17" width="1" height="1" fill="#6C6C6C" />
<rect x="12" y="17" width="1" height="1" fill="#7A7A7A" />
<rect x="13" y="17" width="1" height="1" fill="#757575" />
<rect x="14" y="17" width="1" height="1" fill="#A6A6A6" />
<rect x="15" y="17" width="1" height="1" fill="#CFCFCF" />
<rect x="3" y="18" width="1" height="1" fill="#E9E9E9" />
<rect x="4" y="18" width="1" height="1" fill="#E6E6E6" />
<rect x="5" y="18" width="1" height="1" fill="#E4E4E4" />
<rect x="6" y="18" width="1" height="1" fill="#E1E1E1" />
<rect x="7" y="18" width="1" height="1" fill="#D5D5D5" />
<rect x="8" y="18" width="1" height="1" fill="#AEAEAE" />
<rect x="9" y="18" width="1" height="1" fill="#787878" />
<rect x="11" y="18" width="1" height="1" fill="#7B7B7B" />
<rect x="12" y="18" width="2" height="1" fill="#ADADAD" />
<rect x="14" y="18" width="1" height="1" fill="#CACACA" />
<rect x="15" y="18" width="1" height="4" fill="#DDDDDD" />
<rect x="1" y="19" width="1" height="1" fill="#C6C6C6" />
<rect x="2" y="19" width="1" height="1" fill="#EFEFEF" />
<rect x="3" y="19" width="1" height="1" fill="#E7E7E7" />
<rect x="4" y="19" width="1" height="1" fill="#E3E3E3" />
<rect x="5" y="19" width="1" height="1" fill="#E2E2E2" />
<rect x="6" y="19" width="1" height="1" fill="#DFDFDF" />
<rect x="7" y="19" width="2" height="3" fill="#DDDDDD" />
<rect x="9" y="19" width="1" height="1" fill="#A4A4A4" />
<rect x="10" y="19" width="1" height="1" fill="#7B7B7B" />
<rect x="11" y="19" width="1" height="1" fill="#898989" />
<rect x="12" y="19" width="3" height="3" fill="#DDDDDD" />
<rect x="1" y="20" width="1" height="1" fill="#C0C0C0" />
<rect x="2" y="20" width="1" height="1" fill="#E7E7E7" />
<rect x="3" y="20" width="1" height="1" fill="#E3E3E3" />
<rect x="4" y="20" width="1" height="1" fill="#E2E2E2" />
<rect x="5" y="20" width="1" height="1" fill="#DFDFDF" />
<rect x="6" y="20" width="1" height="2" fill="#DDDDDD" />
<rect x="9" y="20" width="1" height="2" fill="#DDDDDD" />
<rect x="10" y="20" width="1" height="1" fill="#A7A7A7" />
<rect x="11" y="20" width="1" height="1" fill="#959595" />
<rect x="1" y="21" width="1" height="1" fill="#BDBDBD" />
<rect x="2" y="21" width="1" height="1" fill="#E3E3E3" />
<rect x="3" y="21" width="1" height="1" fill="#E2E2E2" />
<rect x="4" y="21" width="1" height="1" fill="#DEDEDE" />
<rect x="5" y="21" width="1" height="1" fill="#DDDDDD" />
<rect x="10" y="21" width="1" height="1" fill="#D7D7D7" />
<rect x="11" y="21" width="1" height="1" fill="#D5D5D5" />
<rect x="1" y="22" width="1" height="1" fill="#B3B3B3" />
<rect x="2" y="22" width="2" height="1" fill="#D3D3D3" />
<rect x="4" y="22" width="1" height="1" fill="#D2D2D2" />
<rect x="5" y="22" width="14" height="1" fill="#D1D1D1" />
<rect x="19" y="22" width="1" height="1" fill="#CFCFCF" />
<rect x="0" y="23" width="2" height="1" fill="#606060" />
<rect x="2" y="23" width="18" height="1" fill="#707070" />
<rect x="20" y="23" width="1" height="1" fill="#555555" />
<rect x="0" y="24" width="1" height="1" fill="#474747" />
<rect x="1" y="24" width="20" height="1" fill="#2B2B2B" />
<rect x="21" y="24" width="1" height="1" fill="#2C2C2C" />
</svg>
