<?xml version="1.0" encoding="UTF-8" ?>
<svg version="1.1" width="27" height="27" xmlns="http://www.w3.org/2000/svg">
<rect x="7" y="0" width="1" height="1" fill="#BFBFBF" />
<rect x="8" y="0" width="1" height="1" fill="#B7B7B7" />
<rect x="9" y="0" width="8" height="1" fill="#B6B6B6" />
<rect x="17" y="0" width="1" height="1" fill="#BEBEBE" />
<rect x="7" y="1" width="1" height="1" fill="#BCBCBC" />
<rect x="8" y="1" width="1" height="1" fill="#929292" />
<rect x="9" y="1" width="7" height="1" fill="#898989" />
<rect x="16" y="1" width="1" height="1" fill="#8A8A8A" />
<rect x="17" y="1" width="1" height="1" fill="#B4B4B4" />
<rect x="5" y="2" width="1" height="1" fill="#AAAAAA" />
<rect x="6" y="2" width="1" height="1" fill="#969696" />
<rect x="7" y="2" width="1" height="1" fill="#9B9B9B" />
<rect x="8" y="2" width="1" height="1" fill="#CECECE" />
<rect x="9" y="2" width="2" height="1" fill="#D8D8D8" />
<rect x="11" y="2" width="1" height="1" fill="#D5D5D5" />
<rect x="12" y="2" width="1" height="1" fill="#C6C6C6" />
<rect x="13" y="2" width="2" height="1" fill="#C5C5C5" />
<rect x="15" y="2" width="1" height="1" fill="#B5B5B5" />
<rect x="16" y="2" width="1" height="1" fill="#868686" />
<rect x="17" y="2" width="1" height="2" fill="#939393" />
<rect x="18" y="2" width="1" height="1" fill="#969696" />
<rect x="19" y="2" width="1" height="1" fill="#A4A4A4" />
<rect x="4" y="3" width="1" height="1" fill="#AAAAAA" />
<rect x="5" y="3" width="1" height="1" fill="#B2B2B2" />
<rect x="6" y="3" width="1" height="1" fill="#BEBEBE" />
<rect x="7" y="3" width="1" height="1" fill="#C1C1C1" />
<rect x="8" y="3" width="1" height="1" fill="#E4E4E4" />
<rect x="9" y="3" width="1" height="1" fill="#DEDEDE" />
<rect x="10" y="3" width="1" height="1" fill="#D6D6D6" />
<rect x="11" y="3" width="1" height="1" fill="#D4D4D4" />
<rect x="12" y="3" width="1" height="1" fill="#C9C9C9" />
<rect x="13" y="3" width="1" height="1" fill="#C8C8C8" />
<rect x="14" y="3" width="1" height="1" fill="#BEBEBE" />
<rect x="15" y="3" width="1" height="1" fill="#A3A3A3" />
<rect x="16" y="3" width="1" height="1" fill="#747474" />
<rect x="18" y="3" width="1" height="1" fill="#878787" />
<rect x="19" y="3" width="1" height="1" fill="#707070" />
<rect x="20" y="3" width="1" height="1" fill="#6C6C6C" />
<rect x="21" y="3" width="1" height="1" fill="#B4B4B4" />
<rect x="2" y="4" width="1" height="1" fill="#BDBDBD" />
<rect x="3" y="4" width="1" height="1" fill="#B1B1B1" />
<rect x="4" y="4" width="1" height="1" fill="#A7A7A7" />
<rect x="5" y="4" width="1" height="1" fill="#CDCDCD" />
<rect x="6" y="4" width="1" height="1" fill="#F1F1F1" />
<rect x="7" y="4" width="1" height="1" fill="#EFEFEF" />
<rect x="8" y="4" width="1" height="1" fill="#D7D7D7" />
<rect x="9" y="4" width="1" height="1" fill="#B1B1B1" />
<rect x="10" y="4" width="4" height="1" fill="#9D9D9D" />
<rect x="14" y="4" width="1" height="1" fill="#8D8D8D" />
<rect x="15" y="4" width="1" height="1" fill="#7A7A7A" />
<rect x="16" y="4" width="1" height="1" fill="#767676" />
<rect x="17" y="4" width="1" height="1" fill="#A5A5A5" />
<rect x="18" y="4" width="1" height="1" fill="#929292" />
<rect x="19" y="4" width="1" height="1" fill="#5A5A5A" />
<rect x="20" y="4" width="1" height="1" fill="#262626" />
<rect x="21" y="4" width="1" height="1" fill="#808080" />
<rect x="22" y="4" width="1" height="1" fill="#AEAEAE" />
<rect x="1" y="5" width="1" height="1" fill="#BFBFBF" />
<rect x="2" y="5" width="1" height="1" fill="#B2B2B2" />
<rect x="3" y="5" width="1" height="1" fill="#8A8A8A" />
<rect x="4" y="5" width="1" height="1" fill="#DDDDDD" />
<rect x="5" y="5" width="1" height="1" fill="#E9E9E9" />
<rect x="6" y="5" width="1" height="1" fill="#DDDDDD" />
<rect x="7" y="5" width="1" height="1" fill="#D8D8D8" />
<rect x="8" y="5" width="1" height="1" fill="#B7B7B7" />
<rect x="9" y="5" width="1" height="1" fill="#7E7E7E" />
<rect x="10" y="5" width="1" height="1" fill="#5F5F5F" />
<rect x="11" y="5" width="1" height="1" fill="#606060" />
<rect x="12" y="5" width="3" height="1" fill="#626262" />
<rect x="15" y="5" width="1" height="1" fill="#757575" />
<rect x="16" y="5" width="1" height="1" fill="#B2B2B2" />
<rect x="17" y="5" width="2" height="1" fill="#B1B1B1" />
<rect x="19" y="5" width="1" height="1" fill="#999999" />
<rect x="20" y="5" width="1" height="1" fill="#5D5D5D" />
<rect x="21" y="5" width="1" height="1" fill="#0F0F0F" />
<rect x="22" y="5" width="1" height="1" fill="#797979" />
<rect x="23" y="5" width="1" height="1" fill="#BCBCBC" />
<rect x="1" y="6" width="1" height="1" fill="#ABABAB" />
<rect x="2" y="6" width="1" height="1" fill="#A3A3A3" />
<rect x="3" y="6" width="1" height="1" fill="#E1E1E1" />
<rect x="4" y="6" width="1" height="1" fill="#E2E2E2" />
<rect x="5" y="6" width="1" height="1" fill="#DFDFDF" />
<rect x="6" y="6" width="1" height="1" fill="#D2D2D2" />
<rect x="7" y="6" width="1" height="1" fill="#B7B7B7" />
<rect x="8" y="6" width="1" height="1" fill="#959595" />
<rect x="9" y="6" width="1" height="1" fill="#717171" />
<rect x="10" y="6" width="1" height="1" fill="#6B6B6B" />
<rect x="11" y="6" width="1" height="1" fill="#848484" />
<rect x="12" y="6" width="1" height="1" fill="#9F9F9F" />
<rect x="13" y="6" width="2" height="1" fill="#A1A1A1" />
<rect x="15" y="6" width="1" height="1" fill="#A6A6A6" />
<rect x="16" y="6" width="1" height="1" fill="#B1B1B1" />
<rect x="17" y="6" width="1" height="1" fill="#969696" />
<rect x="18" y="6" width="1" height="1" fill="#A2A2A2" />
<rect x="19" y="6" width="1" height="1" fill="#A1A1A1" />
<rect x="20" y="6" width="1" height="1" fill="#7A7A7A" />
<rect x="21" y="6" width="1" height="1" fill="#535353" />
<rect x="22" y="6" width="1" height="1" fill="#343434" />
<rect x="23" y="6" width="1" height="1" fill="#666666" />
<rect x="1" y="7" width="1" height="1" fill="#A6A6A6" />
<rect x="2" y="7" width="1" height="1" fill="#919191" />
<rect x="3" y="7" width="1" height="1" fill="#B7B7B7" />
<rect x="4" y="7" width="1" height="1" fill="#CDCDCD" />
<rect x="5" y="7" width="1" height="1" fill="#CBCBCB" />
<rect x="6" y="7" width="1" height="1" fill="#B7B7B7" />
<rect x="7" y="7" width="1" height="1" fill="#969696" />
<rect x="8" y="7" width="1" height="1" fill="#767676" />
<rect x="9" y="7" width="1" height="1" fill="#737373" />
<rect x="10" y="7" width="1" height="1" fill="#868686" />
<rect x="11" y="7" width="1" height="1" fill="#A2A2A2" />
<rect x="12" y="7" width="1" height="1" fill="#B1B1B1" />
<rect x="13" y="7" width="2" height="1" fill="#B2B2B2" />
<rect x="15" y="7" width="1" height="1" fill="#ACACAC" />
<rect x="16" y="7" width="1" height="1" fill="#999999" />
<rect x="17" y="7" width="1" height="1" fill="#9E9E9E" />
<rect x="18" y="7" width="1" height="1" fill="#9C9C9C" />
<rect x="19" y="7" width="1" height="1" fill="#9B9B9B" />
<rect x="20" y="7" width="1" height="1" fill="#999999" />
<rect x="21" y="7" width="1" height="1" fill="#676767" />
<rect x="22" y="7" width="1" height="1" fill="#222222" />
<rect x="23" y="7" width="1" height="1" fill="#4F4F4F" />
<rect x="0" y="8" width="1" height="1" fill="#B2B2B2" />
<rect x="1" y="8" width="1" height="1" fill="#AAAAAA" />
<rect x="2" y="8" width="1" height="1" fill="#A4A4A4" />
<rect x="3" y="8" width="1" height="1" fill="#959595" />
<rect x="4" y="8" width="1" height="1" fill="#A4A4A4" />
<rect x="5" y="8" width="1" height="1" fill="#A6A6A6" />
<rect x="6" y="8" width="1" height="1" fill="#969696" />
<rect x="7" y="8" width="1" height="1" fill="#777777" />
<rect x="8" y="8" width="1" height="1" fill="#636363" />
<rect x="9" y="8" width="1" height="1" fill="#818181" />
<rect x="10" y="8" width="1" height="1" fill="#A0A0A0" />
<rect x="11" y="8" width="3" height="1" fill="#B2B2B2" />
<rect x="14" y="8" width="1" height="1" fill="#ABABAB" />
<rect x="15" y="8" width="1" height="1" fill="#9F9F9F" />
<rect x="16" y="8" width="1" height="1" fill="#959595" />
<rect x="17" y="8" width="1" height="1" fill="#A0A0A0" />
<rect x="18" y="8" width="1" height="1" fill="#9B9B9B" />
<rect x="19" y="8" width="1" height="1" fill="#9A9A9A" />
<rect x="20" y="8" width="1" height="1" fill="#9D9D9D" />
<rect x="21" y="8" width="1" height="1" fill="#737373" />
<rect x="22" y="8" width="1" height="1" fill="#3C3C3C" />
<rect x="23" y="8" width="1" height="1" fill="#474747" />
<rect x="24" y="8" width="1" height="1" fill="#8A8A8A" />
<rect x="25" y="8" width="1" height="1" fill="#BDBDBD" />
<rect x="0" y="9" width="1" height="8" fill="#999999" />
<rect x="1" y="9" width="1" height="3" fill="#B3B3B3" />
<rect x="2" y="9" width="1" height="1" fill="#DFDFDF" />
<rect x="3" y="9" width="1" height="1" fill="#B7B7B7" />
<rect x="4" y="9" width="1" height="1" fill="#808080" />
<rect x="5" y="9" width="1" height="1" fill="#797979" />
<rect x="6" y="9" width="1" height="1" fill="#7A7A7A" />
<rect x="7" y="9" width="1" height="1" fill="#696969" />
<rect x="8" y="9" width="1" height="1" fill="#6B6B6B" />
<rect x="9" y="9" width="1" height="1" fill="#979797" />
<rect x="10" y="9" width="1" height="2" fill="#B2B2B2" />
<rect x="11" y="9" width="1" height="1" fill="#B0B0B0" />
<rect x="12" y="9" width="2" height="1" fill="#A7A7A7" />
<rect x="14" y="9" width="1" height="1" fill="#949494" />
<rect x="15" y="9" width="1" height="1" fill="#898989" />
<rect x="16" y="9" width="1" height="1" fill="#A6A6A6" />
<rect x="17" y="9" width="1" height="1" fill="#888888" />
<rect x="18" y="9" width="1" height="1" fill="#999999" />
<rect x="19" y="9" width="1" height="1" fill="#A0A0A0" />
<rect x="20" y="9" width="2" height="3" fill="#868686" />
<rect x="22" y="9" width="1" height="8" fill="#6D6D6D" />
<rect x="23" y="9" width="1" height="8" fill="#383838" />
<rect x="24" y="9" width="1" height="8" fill="#242424" />
<rect x="25" y="9" width="1" height="8" fill="#B8B8B8" />
<rect x="2" y="10" width="1" height="1" fill="#E6E6E6" />
<rect x="3" y="10" width="1" height="1" fill="#D8D8D8" />
<rect x="4" y="10" width="1" height="1" fill="#B4B4B4" />
<rect x="5" y="10" width="1" height="1" fill="#848484" />
<rect x="6" y="10" width="1" height="1" fill="#797979" />
<rect x="7" y="10" width="1" height="1" fill="#AAAAAA" />
<rect x="8" y="10" width="1" height="2" fill="#BCBCBC" />
<rect x="9" y="10" width="1" height="1" fill="#B7B7B7" />
<rect x="11" y="10" width="1" height="1" fill="#A3A3A3" />
<rect x="12" y="10" width="1" height="1" fill="#5E5E5E" />
<rect x="13" y="10" width="1" height="1" fill="#585858" />
<rect x="14" y="10" width="1" height="1" fill="#565656" />
<rect x="15" y="10" width="1" height="1" fill="#555555" />
<rect x="16" y="10" width="1" height="1" fill="#585858" />
<rect x="17" y="10" width="1" height="1" fill="#555555" />
<rect x="18" y="10" width="1" height="1" fill="#727272" />
<rect x="19" y="10" width="1" height="1" fill="#898989" />
<rect x="2" y="11" width="1" height="1" fill="#E9E9E9" />
<rect x="3" y="11" width="1" height="1" fill="#E6E6E6" />
<rect x="4" y="11" width="1" height="1" fill="#D4D4D4" />
<rect x="5" y="11" width="1" height="1" fill="#B9B9B9" />
<rect x="6" y="11" width="1" height="1" fill="#AFAFAF" />
<rect x="7" y="11" width="1" height="1" fill="#C2C2C2" />
<rect x="9" y="11" width="1" height="1" fill="#B5B5B5" />
<rect x="10" y="11" width="1" height="1" fill="#989898" />
<rect x="11" y="11" width="1" height="2" fill="#707070" />
<rect x="12" y="11" width="1" height="1" fill="#727272" />
<rect x="13" y="11" width="1" height="1" fill="#939393" />
<rect x="14" y="11" width="2" height="1" fill="#A0A0A0" />
<rect x="16" y="11" width="1" height="1" fill="#9F9F9F" />
<rect x="17" y="11" width="1" height="1" fill="#7C7C7C" />
<rect x="18" y="11" width="1" height="1" fill="#4C4C4C" />
<rect x="19" y="11" width="1" height="1" fill="#4B4B4B" />
<rect x="1" y="12" width="1" height="1" fill="#A0A0A0" />
<rect x="2" y="12" width="2" height="1" fill="#BFBFBF" />
<rect x="4" y="12" width="1" height="1" fill="#BABABA" />
<rect x="5" y="12" width="1" height="1" fill="#ABABAB" />
<rect x="6" y="12" width="1" height="1" fill="#AEAEAE" />
<rect x="7" y="12" width="1" height="1" fill="#CACACA" />
<rect x="8" y="12" width="1" height="1" fill="#B6B6B6" />
<rect x="9" y="12" width="1" height="1" fill="#979797" />
<rect x="10" y="12" width="1" height="1" fill="#7A7A7A" />
<rect x="12" y="12" width="1" height="1" fill="#A0A0A0" />
<rect x="13" y="12" width="1" height="1" fill="#CDCDCD" />
<rect x="14" y="12" width="1" height="1" fill="#DFDFDF" />
<rect x="15" y="12" width="1" height="1" fill="#DCDCDC" />
<rect x="16" y="12" width="1" height="1" fill="#D2D2D2" />
<rect x="17" y="12" width="1" height="1" fill="#AAAAAA" />
<rect x="18" y="12" width="1" height="1" fill="#666666" />
<rect x="19" y="12" width="1" height="1" fill="#404040" />
<rect x="20" y="12" width="1" height="1" fill="#535353" />
<rect x="21" y="12" width="1" height="1" fill="#7F7F7F" />
<rect x="1" y="13" width="1" height="1" fill="#8F8F8F" />
<rect x="2" y="13" width="2" height="1" fill="#9A9A9A" />
<rect x="4" y="13" width="1" height="1" fill="#919191" />
<rect x="5" y="13" width="1" height="1" fill="#7C7C7C" />
<rect x="6" y="13" width="1" height="1" fill="#828282" />
<rect x="7" y="13" width="1" height="1" fill="#B3B3B3" />
<rect x="8" y="13" width="1" height="1" fill="#B2B2B2" />
<rect x="9" y="13" width="1" height="2" fill="#737373" />
<rect x="10" y="13" width="1" height="1" fill="#696969" />
<rect x="11" y="13" width="1" height="1" fill="#9F9F9F" />
<rect x="12" y="13" width="1" height="1" fill="#D0D0D0" />
<rect x="13" y="13" width="1" height="1" fill="#EEEEEE" />
<rect x="14" y="13" width="1" height="2" fill="#F8F8F8" />
<rect x="15" y="13" width="1" height="2" fill="#F1F1F1" />
<rect x="16" y="13" width="1" height="3" fill="#DCDCDC" />
<rect x="17" y="13" width="1" height="3" fill="#C6C6C6" />
<rect x="18" y="13" width="1" height="1" fill="#A4A4A4" />
<rect x="19" y="13" width="1" height="1" fill="#5F5F5F" />
<rect x="20" y="13" width="1" height="4" fill="#0E0E0E" />
<rect x="21" y="13" width="1" height="4" fill="#757575" />
<rect x="1" y="14" width="1" height="1" fill="#B2B2B2" />
<rect x="2" y="14" width="2" height="1" fill="#E7E7E7" />
<rect x="4" y="14" width="1" height="1" fill="#BDBDBD" />
<rect x="5" y="14" width="1" height="1" fill="#999999" />
<rect x="6" y="14" width="1" height="1" fill="#757575" />
<rect x="7" y="14" width="1" height="1" fill="#595959" />
<rect x="8" y="14" width="1" height="1" fill="#A3A3A3" />
<rect x="10" y="14" width="1" height="1" fill="#7E7E7E" />
<rect x="11" y="14" width="1" height="1" fill="#D1D1D1" />
<rect x="12" y="14" width="1" height="1" fill="#F4F4F4" />
<rect x="13" y="14" width="1" height="2" fill="#F8F8F8" />
<rect x="18" y="14" width="1" height="1" fill="#B7B7B7" />
<rect x="19" y="14" width="1" height="1" fill="#767676" />
<rect x="1" y="15" width="1" height="1" fill="#B8B8B8" />
<rect x="2" y="15" width="1" height="1" fill="#F2F2F2" />
<rect x="3" y="15" width="1" height="3" fill="#EAEAEA" />
<rect x="4" y="15" width="1" height="1" fill="#CECECE" />
<rect x="5" y="15" width="1" height="1" fill="#B5B5B5" />
<rect x="6" y="15" width="1" height="1" fill="#989898" />
<rect x="7" y="15" width="1" height="1" fill="#767676" />
<rect x="8" y="15" width="1" height="1" fill="#6A6A6A" />
<rect x="9" y="15" width="1" height="1" fill="#575757" />
<rect x="10" y="15" width="1" height="2" fill="#7F7F7F" />
<rect x="11" y="15" width="1" height="1" fill="#D3D3D3" />
<rect x="12" y="15" width="1" height="1" fill="#F5F5F5" />
<rect x="14" y="15" width="1" height="1" fill="#EEEEEE" />
<rect x="15" y="15" width="1" height="1" fill="#E2E2E2" />
<rect x="18" y="15" width="1" height="1" fill="#B8B8B8" />
<rect x="19" y="15" width="1" height="2" fill="#777777" />
<rect x="1" y="16" width="1" height="1" fill="#B6B6B6" />
<rect x="2" y="16" width="1" height="1" fill="#EFEFEF" />
<rect x="4" y="16" width="1" height="1" fill="#DFDFDF" />
<rect x="5" y="16" width="1" height="1" fill="#CCCCCC" />
<rect x="6" y="16" width="1" height="1" fill="#B5B5B5" />
<rect x="7" y="16" width="1" height="1" fill="#999999" />
<rect x="8" y="16" width="1" height="1" fill="#727272" />
<rect x="9" y="16" width="1" height="1" fill="#585858" />
<rect x="11" y="16" width="1" height="1" fill="#D1D1D1" />
<rect x="12" y="16" width="1" height="1" fill="#E8E8E8" />
<rect x="13" y="16" width="1" height="1" fill="#EAEAEA" />
<rect x="14" y="16" width="1" height="1" fill="#E4E4E4" />
<rect x="15" y="16" width="1" height="1" fill="#D9D9D9" />
<rect x="16" y="16" width="1" height="1" fill="#CECECE" />
<rect x="17" y="16" width="1" height="1" fill="#BDBDBD" />
<rect x="18" y="16" width="1" height="1" fill="#B5B5B5" />
<rect x="0" y="17" width="1" height="1" fill="#A4A4A4" />
<rect x="1" y="17" width="1" height="1" fill="#AFAFAF" />
<rect x="2" y="17" width="1" height="1" fill="#D4D4D4" />
<rect x="4" y="17" width="1" height="1" fill="#E4E4E4" />
<rect x="5" y="17" width="1" height="1" fill="#D6D6D6" />
<rect x="6" y="17" width="1" height="3" fill="#C4C4C4" />
<rect x="7" y="17" width="1" height="3" fill="#AFAFAF" />
<rect x="8" y="17" width="1" height="3" fill="#8D8D8D" />
<rect x="9" y="17" width="1" height="1" fill="#636363" />
<rect x="10" y="17" width="1" height="1" fill="#777777" />
<rect x="11" y="17" width="1" height="1" fill="#BDBDBD" />
<rect x="12" y="17" width="1" height="1" fill="#D3D3D3" />
<rect x="13" y="17" width="2" height="1" fill="#D5D5D5" />
<rect x="15" y="17" width="1" height="1" fill="#CFCFCF" />
<rect x="16" y="17" width="1" height="1" fill="#BCBCBC" />
<rect x="17" y="17" width="1" height="1" fill="#B4B4B4" />
<rect x="18" y="17" width="1" height="1" fill="#ABABAB" />
<rect x="19" y="17" width="1" height="1" fill="#6F6F6F" />
<rect x="20" y="17" width="1" height="1" fill="#0D0D0D" />
<rect x="21" y="17" width="1" height="1" fill="#6D6D6D" />
<rect x="22" y="17" width="1" height="1" fill="#585858" />
<rect x="23" y="17" width="1" height="1" fill="#3E3E3E" />
<rect x="24" y="17" width="1" height="1" fill="#505050" />
<rect x="25" y="17" width="1" height="1" fill="#BABABA" />
<rect x="1" y="18" width="1" height="2" fill="#A6A6A6" />
<rect x="2" y="18" width="1" height="1" fill="#9B9B9B" />
<rect x="3" y="18" width="1" height="1" fill="#E4E4E4" />
<rect x="4" y="18" width="1" height="1" fill="#D2D2D2" />
<rect x="5" y="18" width="1" height="2" fill="#CCCCCC" />
<rect x="9" y="18" width="1" height="1" fill="#656565" />
<rect x="10" y="18" width="1" height="1" fill="#636363" />
<rect x="11" y="18" width="1" height="1" fill="#8B8B8B" />
<rect x="12" y="18" width="1" height="1" fill="#B9B9B9" />
<rect x="13" y="18" width="2" height="1" fill="#BFBFBF" />
<rect x="15" y="18" width="1" height="1" fill="#BCBCBC" />
<rect x="16" y="18" width="1" height="1" fill="#B2B2B2" />
<rect x="17" y="18" width="1" height="1" fill="#B0B0B0" />
<rect x="18" y="18" width="1" height="1" fill="#949494" />
<rect x="19" y="18" width="1" height="1" fill="#565656" />
<rect x="20" y="18" width="1" height="1" fill="#0E0E0E" />
<rect x="21" y="18" width="1" height="1" fill="#555555" />
<rect x="22" y="18" width="1" height="1" fill="#222222" />
<rect x="23" y="18" width="1" height="3" fill="#4F4F4F" />
<rect x="2" y="19" width="1" height="1" fill="#8A8A8A" />
<rect x="3" y="19" width="1" height="1" fill="#979797" />
<rect x="4" y="19" width="1" height="1" fill="#C0C0C0" />
<rect x="9" y="19" width="1" height="1" fill="#808080" />
<rect x="10" y="19" width="1" height="1" fill="#626262" />
<rect x="11" y="19" width="1" height="1" fill="#484848" />
<rect x="12" y="19" width="1" height="1" fill="#8A8A8A" />
<rect x="13" y="19" width="1" height="1" fill="#AAAAAA" />
<rect x="14" y="19" width="2" height="1" fill="#B4B4B4" />
<rect x="16" y="19" width="1" height="1" fill="#B1B1B1" />
<rect x="17" y="19" width="1" height="1" fill="#959595" />
<rect x="18" y="19" width="1" height="1" fill="#4C4C4C" />
<rect x="19" y="19" width="1" height="1" fill="#2A2A2A" />
<rect x="20" y="19" width="1" height="1" fill="#484848" />
<rect x="21" y="19" width="1" height="1" fill="#191919" />
<rect x="22" y="19" width="1" height="1" fill="#060606" />
<rect x="1" y="20" width="1" height="1" fill="#B5B5B5" />
<rect x="2" y="20" width="1" height="1" fill="#A1A1A1" />
<rect x="3" y="20" width="1" height="1" fill="#868686" />
<rect x="4" y="20" width="1" height="1" fill="#9C9C9C" />
<rect x="5" y="20" width="1" height="1" fill="#B0B0B0" />
<rect x="6" y="20" width="1" height="1" fill="#B1B1B1" />
<rect x="7" y="20" width="1" height="1" fill="#969696" />
<rect x="8" y="20" width="1" height="1" fill="#898989" />
<rect x="9" y="20" width="1" height="1" fill="#787878" />
<rect x="10" y="20" width="1" height="1" fill="#696969" />
<rect x="11" y="20" width="1" height="1" fill="#5A5A5A" />
<rect x="12" y="20" width="1" height="1" fill="#393939" />
<rect x="13" y="20" width="1" height="1" fill="#424242" />
<rect x="14" y="20" width="2" height="1" fill="#484848" />
<rect x="16" y="20" width="1" height="1" fill="#474747" />
<rect x="17" y="20" width="1" height="1" fill="#3A3A3A" />
<rect x="18" y="20" width="1" height="1" fill="#5C5C5C" />
<rect x="19" y="20" width="1" height="1" fill="#797979" />
<rect x="20" y="20" width="1" height="1" fill="#707070" />
<rect x="21" y="20" width="1" height="1" fill="#404040" />
<rect x="22" y="20" width="1" height="1" fill="#141414" />
<rect x="2" y="21" width="1" height="1" fill="#B8B8B8" />
<rect x="3" y="21" width="1" height="1" fill="#9C9C9C" />
<rect x="4" y="21" width="1" height="1" fill="#656565" />
<rect x="5" y="21" width="1" height="1" fill="#737373" />
<rect x="6" y="21" width="1" height="1" fill="#848484" />
<rect x="7" y="21" width="2" height="1" fill="#717171" />
<rect x="9" y="21" width="1" height="2" fill="#6F6F6F" />
<rect x="10" y="21" width="1" height="1" fill="#777777" />
<rect x="11" y="21" width="1" height="1" fill="#787878" />
<rect x="12" y="21" width="1" height="1" fill="#373737" />
<rect x="13" y="21" width="2" height="1" fill="#313131" />
<rect x="15" y="21" width="1" height="1" fill="#2E2E2E" />
<rect x="16" y="21" width="1" height="1" fill="#252525" />
<rect x="17" y="21" width="1" height="1" fill="#1E1E1E" />
<rect x="18" y="21" width="1" height="1" fill="#707070" />
<rect x="19" y="21" width="1" height="1" fill="#ACACAC" />
<rect x="20" y="21" width="1" height="1" fill="#9B9B9B" />
<rect x="21" y="21" width="1" height="1" fill="#747474" />
<rect x="22" y="21" width="1" height="1" fill="#3D3D3D" />
<rect x="23" y="21" width="1" height="1" fill="#474747" />
<rect x="24" y="21" width="1" height="1" fill="#878787" />
<rect x="25" y="21" width="1" height="1" fill="#BDBDBD" />
<rect x="4" y="22" width="1" height="1" fill="#414141" />
<rect x="5" y="22" width="1" height="1" fill="#303030" />
<rect x="6" y="22" width="1" height="1" fill="#424242" />
<rect x="7" y="22" width="1" height="1" fill="#444444" />
<rect x="8" y="22" width="1" height="1" fill="#4E4E4E" />
<rect x="10" y="22" width="5" height="1" fill="#828282" />
<rect x="15" y="22" width="1" height="1" fill="#7A7A7A" />
<rect x="16" y="22" width="1" height="1" fill="#626262" />
<rect x="17" y="22" width="1" height="1" fill="#494949" />
<rect x="18" y="22" width="1" height="1" fill="#5E5E5E" />
<rect x="19" y="22" width="1" height="1" fill="#8D8D8D" />
<rect x="20" y="22" width="1" height="1" fill="#BBBBBB" />
<rect x="21" y="22" width="1" height="1" fill="#969696" />
<rect x="22" y="22" width="1" height="1" fill="#747474" />
<rect x="23" y="22" width="1" height="1" fill="#404040" />
<rect x="24" y="22" width="1" height="1" fill="#2A2A2A" />
<rect x="25" y="22" width="1" height="1" fill="#9F9F9F" />
<rect x="26" y="22" width="1" height="1" fill="#B9B9B9" />
<rect x="4" y="23" width="1" height="1" fill="#B3B3B3" />
<rect x="5" y="23" width="1" height="1" fill="#555555" />
<rect x="6" y="23" width="1" height="1" fill="#070707" />
<rect x="7" y="23" width="1" height="1" fill="#0E0E0E" />
<rect x="8" y="23" width="1" height="1" fill="#565656" />
<rect x="9" y="23" width="1" height="1" fill="#676767" />
<rect x="10" y="23" width="5" height="1" fill="#696969" />
<rect x="15" y="23" width="1" height="1" fill="#636363" />
<rect x="16" y="23" width="1" height="1" fill="#4E4E4E" />
<rect x="17" y="23" width="1" height="1" fill="#161616" />
<rect x="18" y="23" width="1" height="1" fill="#0A0A0A" />
<rect x="19" y="23" width="1" height="1" fill="#323232" />
<rect x="20" y="23" width="1" height="1" fill="#868686" />
<rect x="21" y="23" width="1" height="1" fill="#BDBDBD" />
<rect x="22" y="23" width="1" height="1" fill="#9A9A9A" />
<rect x="23" y="23" width="1" height="1" fill="#707070" />
<rect x="24" y="23" width="1" height="1" fill="#494949" />
<rect x="25" y="23" width="1" height="1" fill="#141414" />
<rect x="26" y="23" width="1" height="1" fill="#919191" />
<rect x="5" y="24" width="1" height="1" fill="#9F9F9F" />
<rect x="6" y="24" width="1" height="1" fill="#828282" />
<rect x="7" y="24" width="1" height="1" fill="#7B7B7B" />
<rect x="8" y="24" width="1" height="1" fill="#303030" />
<rect x="9" y="24" width="6" height="1" fill="#212121" />
<rect x="15" y="24" width="1" height="1" fill="#1F1F1F" />
<rect x="16" y="24" width="1" height="1" fill="#1B1B1B" />
<rect x="17" y="24" width="1" height="1" fill="#6C6C6C" />
<rect x="18" y="24" width="1" height="1" fill="#828282" />
<rect x="19" y="24" width="1" height="1" fill="#8F8F8F" />
<rect x="20" y="24" width="1" height="1" fill="#A6A6A6" />
<rect x="21" y="24" width="1" height="1" fill="#959595" />
<rect x="22" y="24" width="1" height="1" fill="#A9A9A9" />
<rect x="23" y="24" width="1" height="1" fill="#929292" />
<rect x="24" y="24" width="1" height="1" fill="#4D4D4D" />
<rect x="25" y="24" width="1" height="1" fill="#040404" />
<rect x="26" y="24" width="1" height="1" fill="#8C8C8C" />
<rect x="7" y="25" width="1" height="1" fill="#B8B8B8" />
<rect x="8" y="25" width="1" height="1" fill="#676767" />
<rect x="9" y="25" width="7" height="1" fill="#575757" />
<rect x="16" y="25" width="1" height="1" fill="#595959" />
<rect x="17" y="25" width="1" height="1" fill="#AAAAAA" />
<rect x="20" y="25" width="1" height="1" fill="#BCBCBC" />
<rect x="21" y="25" width="1" height="1" fill="#9D9D9D" />
<rect x="22" y="25" width="1" height="1" fill="#7E7E7E" />
<rect x="23" y="25" width="1" height="1" fill="#575757" />
<rect x="24" y="25" width="1" height="1" fill="#3B3B3B" />
<rect x="25" y="25" width="1" height="1" fill="#555555" />
<rect x="26" y="25" width="1" height="1" fill="#A4A4A4" />
<rect x="22" y="26" width="1" height="1" fill="#606060" />
<rect x="23" y="26" width="1" height="1" fill="#2B2B2B" />
<rect x="24" y="26" width="1" height="1" fill="#474747" />
</svg>
