<?xml version="1.0" encoding="UTF-8" ?>
<svg version="1.1" width="26" height="23" xmlns="http://www.w3.org/2000/svg" shape-rendering="crispEdges">
<rect x="3" y="0" width="1" height="1" fill="#BDBDBD" />
<rect x="4" y="0" width="1" height="1" fill="#A7A7A7" />
<rect x="5" y="0" width="7" height="1" fill="#A4A4A4" />
<rect x="12" y="0" width="1" height="1" fill="#A5A5A5" />
<rect x="13" y="0" width="1" height="1" fill="#BBBBBB" />
<rect x="2" y="1" width="1" height="1" fill="#BBBBBB" />
<rect x="3" y="1" width="1" height="1" fill="#AFAFAF" />
<rect x="4" y="1" width="1" height="1" fill="#A5A5A5" />
<rect x="5" y="1" width="6" height="1" fill="#A3A3A3" />
<rect x="11" y="1" width="1" height="1" fill="#A0A0A0" />
<rect x="12" y="1" width="1" height="1" fill="#989898" />
<rect x="13" y="1" width="1" height="1" fill="#909090" />
<rect x="14" y="1" width="1" height="1" fill="#ACACAC" />
<rect x="1" y="2" width="1" height="1" fill="#BFBFBF" />
<rect x="2" y="2" width="1" height="1" fill="#ACACAC" />
<rect x="3" y="2" width="1" height="1" fill="#969696" />
<rect x="4" y="2" width="1" height="1" fill="#EBEBEB" />
<rect x="5" y="2" width="6" height="1" fill="#F7F7F7" />
<rect x="11" y="2" width="1" height="1" fill="#EAEAEA" />
<rect x="12" y="2" width="1" height="1" fill="#C0C0C0" />
<rect x="13" y="2" width="1" height="1" fill="#282828" />
<rect x="14" y="2" width="1" height="1" fill="#717171" />
<rect x="15" y="2" width="1" height="1" fill="#BCBCBC" />
<rect x="1" y="3" width="1" height="1" fill="#A5A5A5" />
<rect x="2" y="3" width="1" height="1" fill="#ADADAD" />
<rect x="3" y="3" width="1" height="1" fill="#E1E1E1" />
<rect x="4" y="3" width="2" height="1" fill="#E2E2E2" />
<rect x="6" y="3" width="1" height="1" fill="#DDDDDD" />
<rect x="7" y="3" width="4" height="1" fill="#D5D5D5" />
<rect x="11" y="3" width="1" height="1" fill="#CCCCCC" />
<rect x="12" y="3" width="1" height="1" fill="#B5B5B5" />
<rect x="13" y="3" width="1" height="1" fill="#969696" />
<rect x="14" y="3" width="1" height="1" fill="#505050" />
<rect x="15" y="3" width="1" height="1" fill="#5F5F5F" />
<rect x="0" y="4" width="1" height="1" fill="#A6A6A6" />
<rect x="1" y="4" width="1" height="1" fill="#919191" />
<rect x="2" y="4" width="1" height="1" fill="#979797" />
<rect x="3" y="4" width="1" height="1" fill="#B6B6B6" />
<rect x="4" y="4" width="1" height="2" fill="#ADADAD" />
<rect x="5" y="4" width="1" height="1" fill="#ABABAB" />
<rect x="6" y="4" width="1" height="1" fill="#A8A8A8" />
<rect x="7" y="4" width="4" height="1" fill="#A4A4A4" />
<rect x="11" y="4" width="1" height="1" fill="#A1A1A1" />
<rect x="12" y="4" width="2" height="1" fill="#999999" />
<rect x="14" y="4" width="2" height="1" fill="#6B6B6B" />
<rect x="16" y="4" width="8" height="1" fill="#9F9F9F" />
<rect x="24" y="4" width="1" height="1" fill="#878787" />
<rect x="25" y="4" width="1" height="1" fill="#5B5B5B" />
<rect x="0" y="5" width="1" height="16" fill="#929292" />
<rect x="1" y="5" width="1" height="1" fill="#9C9C9C" />
<rect x="2" y="5" width="2" height="1" fill="#ADADAD" />
<rect x="5" y="5" width="19" height="1" fill="#ADADAD" />
<rect x="24" y="5" width="1" height="1" fill="#787878" />
<rect x="25" y="5" width="1" height="17" fill="#0F0F0F" />
<rect x="1" y="6" width="1" height="15" fill="#C7C7C7" />
<rect x="2" y="6" width="4" height="2" fill="#F8F8F8" />
<rect x="6" y="6" width="1" height="1" fill="#F7F7F7" />
<rect x="7" y="6" width="2" height="1" fill="#F6F6F6" />
<rect x="9" y="6" width="8" height="1" fill="#F5F5F5" />
<rect x="17" y="6" width="3" height="1" fill="#F3F3F3" />
<rect x="20" y="6" width="1" height="1" fill="#F2F2F2" />
<rect x="21" y="6" width="2" height="1" fill="#F0F0F0" />
<rect x="23" y="6" width="1" height="1" fill="#EDEDED" />
<rect x="24" y="6" width="1" height="1" fill="#A3A3A3" />
<rect x="6" y="7" width="1" height="1" fill="#F3F3F3" />
<rect x="7" y="7" width="2" height="1" fill="#ECECEC" />
<rect x="9" y="7" width="1" height="1" fill="#E3E3E3" />
<rect x="10" y="7" width="6" height="1" fill="#E0E0E0" />
<rect x="16" y="7" width="1" height="1" fill="#DEDEDE" />
<rect x="17" y="7" width="1" height="1" fill="#D2D2D2" />
<rect x="18" y="7" width="2" height="1" fill="#D1D1D1" />
<rect x="20" y="7" width="1" height="1" fill="#CCCCCC" />
<rect x="21" y="7" width="2" height="1" fill="#BABABA" />
<rect x="23" y="7" width="1" height="1" fill="#A5A5A5" />
<rect x="24" y="7" width="1" height="1" fill="#666666" />
<rect x="2" y="8" width="1" height="2" fill="#F8F8F8" />
<rect x="3" y="8" width="1" height="1" fill="#F7F7F7" />
<rect x="4" y="8" width="1" height="1" fill="#F0F0F0" />
<rect x="5" y="8" width="1" height="1" fill="#EFEFEF" />
<rect x="6" y="8" width="1" height="1" fill="#EDEDED" />
<rect x="7" y="8" width="2" height="1" fill="#EAEAEA" />
<rect x="9" y="8" width="1" height="1" fill="#E0E0E0" />
<rect x="10" y="8" width="1" height="1" fill="#DDDDDD" />
<rect x="11" y="8" width="1" height="1" fill="#C2C2C2" />
<rect x="12" y="8" width="1" height="1" fill="#848484" />
<rect x="13" y="8" width="1" height="1" fill="#CCCCCC" />
<rect x="14" y="8" width="1" height="1" fill="#DDDDDD" />
<rect x="15" y="8" width="1" height="1" fill="#D9D9D9" />
<rect x="16" y="8" width="1" height="1" fill="#D1D1D1" />
<rect x="17" y="8" width="1" height="1" fill="#CDCDCD" />
<rect x="18" y="8" width="1" height="1" fill="#CCCCCC" />
<rect x="19" y="8" width="1" height="1" fill="#C4C4C4" />
<rect x="20" y="8" width="1" height="1" fill="#B9B9B9" />
<rect x="21" y="8" width="2" height="1" fill="#B2B2B2" />
<rect x="23" y="8" width="1" height="1" fill="#9A9A9A" />
<rect x="24" y="8" width="1" height="13" fill="#5D5D5D" />
<rect x="3" y="9" width="1" height="1" fill="#F6F6F6" />
<rect x="4" y="9" width="1" height="1" fill="#ECECEC" />
<rect x="5" y="9" width="2" height="1" fill="#EAEAEA" />
<rect x="7" y="9" width="1" height="1" fill="#E9E9E9" />
<rect x="8" y="9" width="1" height="1" fill="#E5E5E5" />
<rect x="9" y="9" width="1" height="1" fill="#B1B1B1" />
<rect x="10" y="9" width="1" height="1" fill="#BFBFBF" />
<rect x="11" y="9" width="1" height="1" fill="#B4B4B4" />
<rect x="12" y="9" width="1" height="1" fill="#555555" />
<rect x="13" y="9" width="1" height="1" fill="#C4C4C4" />
<rect x="14" y="9" width="1" height="1" fill="#B8B8B8" />
<rect x="15" y="9" width="1" height="1" fill="#B0B0B0" />
<rect x="16" y="9" width="2" height="1" fill="#CCCCCC" />
<rect x="18" y="9" width="1" height="1" fill="#C4C4C4" />
<rect x="19" y="9" width="1" height="1" fill="#BABABA" />
<rect x="20" y="9" width="2" height="1" fill="#B2B2B2" />
<rect x="22" y="9" width="1" height="1" fill="#A4A4A4" />
<rect x="23" y="9" width="1" height="1" fill="#929292" />
<rect x="2" y="10" width="1" height="1" fill="#F7F7F7" />
<rect x="3" y="10" width="1" height="1" fill="#F4F4F4" />
<rect x="4" y="10" width="1" height="1" fill="#EBEBEB" />
<rect x="5" y="10" width="1" height="2" fill="#EAEAEA" />
<rect x="6" y="10" width="1" height="1" fill="#E9E9E9" />
<rect x="7" y="10" width="1" height="1" fill="#E5E5E5" />
<rect x="8" y="10" width="1" height="2" fill="#DDDDDD" />
<rect x="9" y="10" width="1" height="1" fill="#878787" />
<rect x="10" y="10" width="1" height="1" fill="#969696" />
<rect x="11" y="10" width="1" height="1" fill="#9F9F9F" />
<rect x="12" y="10" width="1" height="1" fill="#535353" />
<rect x="13" y="10" width="1" height="1" fill="#ACACAC" />
<rect x="14" y="10" width="1" height="1" fill="#8B8B8B" />
<rect x="15" y="10" width="1" height="1" fill="#8C8C8C" />
<rect x="16" y="10" width="1" height="1" fill="#CBCBCB" />
<rect x="17" y="10" width="1" height="1" fill="#C7C7C7" />
<rect x="18" y="10" width="1" height="1" fill="#B9B9B9" />
<rect x="19" y="10" width="1" height="2" fill="#B2B2B2" />
<rect x="20" y="10" width="1" height="1" fill="#B0B0B0" />
<rect x="21" y="10" width="1" height="1" fill="#A9A9A9" />
<rect x="22" y="10" width="1" height="1" fill="#959595" />
<rect x="23" y="10" width="1" height="1" fill="#8A8A8A" />
<rect x="2" y="11" width="1" height="3" fill="#F3F3F3" />
<rect x="3" y="11" width="2" height="2" fill="#EAEAEA" />
<rect x="6" y="11" width="1" height="1" fill="#E5E5E5" />
<rect x="7" y="11" width="1" height="1" fill="#DDDDDD" />
<rect x="9" y="11" width="1" height="1" fill="#DADADA" />
<rect x="10" y="11" width="1" height="1" fill="#939393" />
<rect x="11" y="11" width="1" height="1" fill="#505050" />
<rect x="12" y="11" width="1" height="1" fill="#4D4D4D" />
<rect x="13" y="11" width="1" height="1" fill="#515151" />
<rect x="14" y="11" width="1" height="1" fill="#989898" />
<rect x="15" y="11" width="2" height="1" fill="#C9C9C9" />
<rect x="17" y="11" width="1" height="1" fill="#B5B5B5" />
<rect x="18" y="11" width="1" height="2" fill="#B2B2B2" />
<rect x="20" y="11" width="1" height="1" fill="#A9A9A9" />
<rect x="21" y="11" width="1" height="1" fill="#888888" />
<rect x="22" y="11" width="1" height="1" fill="#A7A7A7" />
<rect x="23" y="11" width="1" height="1" fill="#9A9A9A" />
<rect x="5" y="12" width="1" height="1" fill="#E4E4E4" />
<rect x="6" y="12" width="1" height="1" fill="#DFDFDF" />
<rect x="7" y="12" width="1" height="1" fill="#C8C8C8" />
<rect x="8" y="12" width="1" height="1" fill="#757575" />
<rect x="9" y="12" width="1" height="1" fill="#727272" />
<rect x="10" y="12" width="1" height="1" fill="#5F5F5F" />
<rect x="11" y="12" width="1" height="1" fill="#717171" />
<rect x="12" y="12" width="1" height="1" fill="#C5C5C5" />
<rect x="13" y="12" width="1" height="1" fill="#636363" />
<rect x="14" y="12" width="1" height="1" fill="#616161" />
<rect x="15" y="12" width="1" height="1" fill="#6E6E6E" />
<rect x="16" y="12" width="1" height="1" fill="#777777" />
<rect x="17" y="12" width="1" height="1" fill="#ACACAC" />
<rect x="19" y="12" width="1" height="1" fill="#A3A3A3" />
<rect x="20" y="12" width="1" height="1" fill="#969696" />
<rect x="21" y="12" width="1" height="1" fill="#A6A6A6" />
<rect x="22" y="12" width="1" height="1" fill="#969696" />
<rect x="23" y="12" width="1" height="1" fill="#8B8B8B" />
<rect x="3" y="13" width="1" height="1" fill="#E9E9E9" />
<rect x="4" y="13" width="1" height="1" fill="#E4E4E4" />
<rect x="5" y="13" width="1" height="1" fill="#DFDFDF" />
<rect x="6" y="13" width="1" height="4" fill="#DDDDDD" />
<rect x="7" y="13" width="1" height="1" fill="#CFCFCF" />
<rect x="8" y="13" width="1" height="1" fill="#999999" />
<rect x="9" y="13" width="1" height="1" fill="#979797" />
<rect x="10" y="13" width="1" height="1" fill="#717171" />
<rect x="11" y="13" width="1" height="1" fill="#656565" />
<rect x="12" y="13" width="1" height="1" fill="#9C9C9C" />
<rect x="13" y="13" width="1" height="1" fill="#5C5C5C" />
<rect x="14" y="13" width="1" height="1" fill="#747474" />
<rect x="15" y="13" width="1" height="1" fill="#898989" />
<rect x="16" y="13" width="1" height="1" fill="#878787" />
<rect x="17" y="13" width="1" height="1" fill="#AEAEAE" />
<rect x="18" y="13" width="1" height="1" fill="#A3A3A3" />
<rect x="19" y="13" width="2" height="1" fill="#9C9C9C" />
<rect x="21" y="13" width="1" height="1" fill="#9B9B9B" />
<rect x="22" y="13" width="1" height="1" fill="#9C9C9C" />
<rect x="23" y="13" width="1" height="1" fill="#909090" />
<rect x="2" y="14" width="1" height="1" fill="#F2F2F2" />
<rect x="3" y="14" width="1" height="1" fill="#E5E5E5" />
<rect x="4" y="14" width="1" height="1" fill="#DEDEDE" />
<rect x="5" y="14" width="1" height="3" fill="#DDDDDD" />
<rect x="7" y="14" width="1" height="1" fill="#DCDCDC" />
<rect x="8" y="14" width="1" height="1" fill="#D8D8D8" />
<rect x="9" y="14" width="1" height="1" fill="#BEBEBE" />
<rect x="10" y="14" width="1" height="1" fill="#929292" />
<rect x="11" y="14" width="1" height="1" fill="#676767" />
<rect x="12" y="14" width="1" height="1" fill="#4F4F4F" />
<rect x="13" y="14" width="1" height="1" fill="#6A6A6A" />
<rect x="14" y="14" width="1" height="1" fill="#929292" />
<rect x="15" y="14" width="1" height="1" fill="#ACACAC" />
<rect x="16" y="14" width="1" height="1" fill="#B0B0B0" />
<rect x="17" y="14" width="1" height="1" fill="#A7A7A7" />
<rect x="18" y="14" width="1" height="1" fill="#999999" />
<rect x="19" y="14" width="1" height="1" fill="#9B9B9B" />
<rect x="20" y="14" width="1" height="1" fill="#A1A1A1" />
<rect x="21" y="14" width="1" height="1" fill="#939393" />
<rect x="22" y="14" width="1" height="1" fill="#A1A1A1" />
<rect x="23" y="14" width="1" height="1" fill="#959595" />
<rect x="2" y="15" width="1" height="4" fill="#EFEFEF" />
<rect x="3" y="15" width="2" height="4" fill="#DDDDDD" />
<rect x="7" y="15" width="1" height="2" fill="#DADADA" />
<rect x="8" y="15" width="1" height="2" fill="#CDCDCD" />
<rect x="9" y="15" width="1" height="1" fill="#737373" />
<rect x="10" y="15" width="1" height="1" fill="#919191" />
<rect x="11" y="15" width="1" height="2" fill="#A8A8A8" />
<rect x="12" y="15" width="1" height="1" fill="#545454" />
<rect x="13" y="15" width="1" height="1" fill="#B5B5B5" />
<rect x="14" y="15" width="1" height="1" fill="#838383" />
<rect x="15" y="15" width="1" height="1" fill="#757575" />
<rect x="16" y="15" width="1" height="1" fill="#AAAAAA" />
<rect x="17" y="15" width="1" height="1" fill="#8C8C8C" />
<rect x="18" y="15" width="1" height="1" fill="#A3A3A3" />
<rect x="19" y="15" width="1" height="1" fill="#9E9E9E" />
<rect x="20" y="15" width="1" height="1" fill="#919191" />
<rect x="21" y="15" width="1" height="1" fill="#AFAFAF" />
<rect x="22" y="15" width="1" height="1" fill="#909090" />
<rect x="23" y="15" width="1" height="6" fill="#868686" />
<rect x="9" y="16" width="1" height="1" fill="#BBBBBB" />
<rect x="10" y="16" width="1" height="1" fill="#C1C1C1" />
<rect x="12" y="16" width="1" height="1" fill="#535353" />
<rect x="13" y="16" width="1" height="1" fill="#A4A4A4" />
<rect x="14" y="16" width="1" height="1" fill="#A9A9A9" />
<rect x="15" y="16" width="1" height="1" fill="#999999" />
<rect x="16" y="16" width="1" height="1" fill="#929292" />
<rect x="17" y="16" width="1" height="1" fill="#A8A8A8" />
<rect x="18" y="16" width="1" height="1" fill="#979797" />
<rect x="19" y="16" width="1" height="1" fill="#9B9B9B" />
<rect x="20" y="16" width="1" height="1" fill="#A4A4A4" />
<rect x="21" y="16" width="1" height="1" fill="#8E8E8E" />
<rect x="22" y="16" width="1" height="1" fill="#888888" />
<rect x="5" y="17" width="1" height="1" fill="#D6D6D6" />
<rect x="6" y="17" width="1" height="1" fill="#D3D3D3" />
<rect x="7" y="17" width="1" height="1" fill="#D1D1D1" />
<rect x="8" y="17" width="2" height="1" fill="#CCCCCC" />
<rect x="10" y="17" width="1" height="1" fill="#C4C4C4" />
<rect x="11" y="17" width="1" height="1" fill="#AEAEAE" />
<rect x="12" y="17" width="1" height="1" fill="#8C8C8C" />
<rect x="13" y="17" width="1" height="1" fill="#ABABAB" />
<rect x="14" y="17" width="1" height="1" fill="#A2A2A2" />
<rect x="15" y="17" width="1" height="1" fill="#9B9B9B" />
<rect x="16" y="17" width="1" height="1" fill="#9F9F9F" />
<rect x="17" y="17" width="1" height="1" fill="#989898" />
<rect x="18" y="17" width="1" height="2" fill="#9E9E9E" />
<rect x="19" y="17" width="1" height="1" fill="#9C9C9C" />
<rect x="20" y="17" width="1" height="1" fill="#949494" />
<rect x="21" y="17" width="2" height="4" fill="#868686" />
<rect x="5" y="18" width="1" height="1" fill="#D2D2D2" />
<rect x="6" y="18" width="3" height="1" fill="#CCCCCC" />
<rect x="9" y="18" width="1" height="1" fill="#C5C5C5" />
<rect x="10" y="18" width="1" height="1" fill="#B2B2B2" />
<rect x="11" y="18" width="1" height="1" fill="#A6A6A6" />
<rect x="12" y="18" width="1" height="1" fill="#B1B1B1" />
<rect x="13" y="18" width="1" height="1" fill="#A5A5A5" />
<rect x="14" y="18" width="1" height="1" fill="#9B9B9B" />
<rect x="15" y="18" width="1" height="1" fill="#9A9A9A" />
<rect x="16" y="18" width="1" height="1" fill="#A0A0A0" />
<rect x="17" y="18" width="1" height="1" fill="#979797" />
<rect x="19" y="18" width="1" height="1" fill="#959595" />
<rect x="20" y="18" width="1" height="3" fill="#868686" />
<rect x="2" y="19" width="1" height="1" fill="#EEEEEE" />
<rect x="3" y="19" width="2" height="1" fill="#DBDBDB" />
<rect x="5" y="19" width="1" height="1" fill="#D1D1D1" />
<rect x="6" y="19" width="1" height="2" fill="#CCCCCC" />
<rect x="7" y="19" width="1" height="1" fill="#CBCBCB" />
<rect x="8" y="19" width="1" height="1" fill="#C9C9C9" />
<rect x="9" y="19" width="1" height="1" fill="#B3B3B3" />
<rect x="10" y="19" width="1" height="2" fill="#9C9C9C" />
<rect x="11" y="19" width="1" height="1" fill="#959595" />
<rect x="12" y="19" width="1" height="1" fill="#AAAAAA" />
<rect x="13" y="19" width="1" height="1" fill="#929292" />
<rect x="14" y="19" width="1" height="1" fill="#9F9F9F" />
<rect x="15" y="19" width="1" height="1" fill="#A0A0A0" />
<rect x="16" y="19" width="1" height="1" fill="#909090" />
<rect x="17" y="19" width="1" height="1" fill="#A9A9A9" />
<rect x="18" y="19" width="1" height="1" fill="#929292" />
<rect x="19" y="19" width="1" height="2" fill="#868686" />
<rect x="2" y="20" width="1" height="1" fill="#E9E9E9" />
<rect x="3" y="20" width="2" height="1" fill="#CECECE" />
<rect x="5" y="20" width="1" height="1" fill="#CDCDCD" />
<rect x="7" y="20" width="1" height="1" fill="#C7C7C7" />
<rect x="8" y="20" width="1" height="1" fill="#B5B5B5" />
<rect x="9" y="20" width="1" height="1" fill="#959595" />
<rect x="11" y="20" width="1" height="1" fill="#A4A4A4" />
<rect x="12" y="20" width="1" height="1" fill="#8C8C8C" />
<rect x="13" y="20" width="1" height="1" fill="#A8A8A8" />
<rect x="14" y="20" width="1" height="1" fill="#989898" />
<rect x="15" y="20" width="1" height="1" fill="#979797" />
<rect x="16" y="20" width="1" height="1" fill="#A9A9A9" />
<rect x="17" y="20" width="1" height="1" fill="#8D8D8D" />
<rect x="18" y="20" width="1" height="1" fill="#878787" />
<rect x="0" y="21" width="1" height="1" fill="#494949" />
<rect x="1" y="21" width="1" height="1" fill="#404040" />
<rect x="2" y="21" width="1" height="1" fill="#4B4B4B" />
<rect x="3" y="21" width="4" height="1" fill="#414141" />
<rect x="7" y="21" width="1" height="1" fill="#404040" />
<rect x="8" y="21" width="1" height="1" fill="#393939" />
<rect x="9" y="21" width="1" height="1" fill="#2F2F2F" />
<rect x="10" y="21" width="1" height="1" fill="#323232" />
<rect x="11" y="21" width="1" height="1" fill="#353535" />
<rect x="12" y="21" width="1" height="1" fill="#2C2C2C" />
<rect x="13" y="21" width="1" height="1" fill="#373737" />
<rect x="14" y="21" width="1" height="1" fill="#313131" />
<rect x="15" y="21" width="1" height="1" fill="#303030" />
<rect x="16" y="21" width="1" height="1" fill="#373737" />
<rect x="17" y="21" width="1" height="1" fill="#2C2C2C" />
<rect x="18" y="21" width="6" height="1" fill="#2B2B2B" />
<rect x="24" y="21" width="1" height="1" fill="#1E1E1E" />
<rect x="0" y="22" width="1" height="1" fill="#6C6C6C" />
<rect x="1" y="22" width="24" height="1" fill="#575757" />
<rect x="25" y="22" width="1" height="1" fill="#5F5F5F" />
</svg>