<?xml version="1.0" encoding="UTF-8" ?>
<svg version="1.1" width="18" height="21" xmlns="http://www.w3.org/2000/svg" shape-rendering="crispEdges">
<rect x="9" y="0" width="1" height="1" fill="#B6B6B6" />
<rect x="10" y="0" width="1" height="1" fill="#B2B2B2" />
<rect x="9" y="1" width="1" height="3" fill="#A2A2A2" />
<rect x="10" y="1" width="1" height="1" fill="#919191" />
<rect x="11" y="1" width="1" height="1" fill="#AEAEAE" />
<rect x="12" y="1" width="1" height="1" fill="#BDBDBD" />
<rect x="10" y="2" width="1" height="1" fill="#656565" />
<rect x="11" y="2" width="1" height="1" fill="#232323" />
<rect x="12" y="2" width="1" height="1" fill="#A4A4A4" />
<rect x="10" y="3" width="1" height="1" fill="#8E8E8E" />
<rect x="11" y="3" width="1" height="1" fill="#9A9A9A" />
<rect x="12" y="3" width="1" height="1" fill="#535353" />
<rect x="13" y="3" width="1" height="1" fill="#909090" />
<rect x="6" y="4" width="1" height="1" fill="#BBBBBB" />
<rect x="7" y="4" width="2" height="1" fill="#A8A8A8" />
<rect x="9" y="4" width="1" height="1" fill="#969696" />
<rect x="10" y="4" width="1" height="1" fill="#A8A8A8" />
<rect x="11" y="4" width="1" height="1" fill="#EEEEEE" />
<rect x="12" y="4" width="1" height="1" fill="#757575" />
<rect x="13" y="4" width="1" height="1" fill="#686868" />
<rect x="14" y="4" width="1" height="1" fill="#8F8F8F" />
<rect x="4" y="5" width="1" height="1" fill="#B9B9B9" />
<rect x="5" y="5" width="1" height="1" fill="#B5B5B5" />
<rect x="6" y="5" width="1" height="1" fill="#B0B0B0" />
<rect x="7" y="5" width="1" height="1" fill="#9C9C9C" />
<rect x="8" y="5" width="2" height="1" fill="#9B9B9B" />
<rect x="10" y="5" width="1" height="1" fill="#B5B5B5" />
<rect x="11" y="5" width="1" height="1" fill="#F1F1F1" />
<rect x="12" y="5" width="1" height="1" fill="#DCDCDC" />
<rect x="13" y="5" width="1" height="1" fill="#6A6A6A" />
<rect x="14" y="5" width="1" height="1" fill="#515151" />
<rect x="15" y="5" width="1" height="1" fill="#A1A1A1" />
<rect x="16" y="5" width="1" height="1" fill="#BDBDBD" />
<rect x="4" y="6" width="1" height="1" fill="#9B9B9B" />
<rect x="5" y="6" width="1" height="1" fill="#888888" />
<rect x="6" y="6" width="1" height="1" fill="#9F9F9F" />
<rect x="7" y="6" width="1" height="1" fill="#F1F1F1" />
<rect x="8" y="6" width="2" height="1" fill="#F3F3F3" />
<rect x="10" y="6" width="1" height="1" fill="#EDEDED" />
<rect x="11" y="6" width="1" height="1" fill="#DCDCDC" />
<rect x="12" y="6" width="1" height="1" fill="#C6C6C6" />
<rect x="13" y="6" width="1" height="1" fill="#BBBBBB" />
<rect x="14" y="6" width="1" height="1" fill="#757575" />
<rect x="15" y="6" width="1" height="1" fill="#242424" />
<rect x="16" y="6" width="1" height="1" fill="#B2B2B2" />
<rect x="2" y="7" width="1" height="1" fill="#BBBBBB" />
<rect x="3" y="7" width="1" height="1" fill="#9A9A9A" />
<rect x="4" y="7" width="1" height="1" fill="#C3C3C3" />
<rect x="5" y="7" width="1" height="1" fill="#D9D9D9" />
<rect x="6" y="7" width="1" height="1" fill="#DCDCDC" />
<rect x="7" y="7" width="3" height="1" fill="#E4E4E4" />
<rect x="10" y="7" width="1" height="1" fill="#DCDCDC" />
<rect x="11" y="7" width="1" height="1" fill="#C7C7C7" />
<rect x="12" y="7" width="1" height="1" fill="#C1C1C1" />
<rect x="13" y="7" width="1" height="1" fill="#BABABA" />
<rect x="14" y="7" width="1" height="1" fill="#969696" />
<rect x="15" y="7" width="1" height="1" fill="#5B5B5B" />
<rect x="16" y="7" width="1" height="1" fill="#373737" />
<rect x="17" y="7" width="1" height="1" fill="#959595" />
<rect x="1" y="8" width="1" height="1" fill="#B6B6B6" />
<rect x="2" y="8" width="1" height="1" fill="#A6A6A6" />
<rect x="3" y="8" width="1" height="1" fill="#BCBCBC" />
<rect x="4" y="8" width="1" height="2" fill="#DCDCDC" />
<rect x="5" y="8" width="1" height="1" fill="#E7E7E7" />
<rect x="6" y="8" width="1" height="1" fill="#D8D8D8" />
<rect x="7" y="8" width="1" height="1" fill="#B2B2B2" />
<rect x="8" y="8" width="1" height="1" fill="#B1B1B1" />
<rect x="9" y="8" width="1" height="1" fill="#BDBDBD" />
<rect x="10" y="8" width="1" height="1" fill="#C3C3C3" />
<rect x="11" y="8" width="2" height="1" fill="#B9B9B9" />
<rect x="13" y="8" width="1" height="1" fill="#A7A7A7" />
<rect x="14" y="8" width="1" height="1" fill="#7A7A7A" />
<rect x="15" y="8" width="1" height="1" fill="#474747" />
<rect x="16" y="8" width="1" height="1" fill="#5E5E5E" />
<rect x="17" y="8" width="1" height="1" fill="#A2A2A2" />
<rect x="1" y="9" width="1" height="1" fill="#ABABAB" />
<rect x="2" y="9" width="1" height="1" fill="#939393" />
<rect x="3" y="9" width="1" height="1" fill="#E6E6E6" />
<rect x="5" y="9" width="1" height="1" fill="#B7B7B7" />
<rect x="6" y="9" width="1" height="1" fill="#8A8A8A" />
<rect x="7" y="9" width="1" height="1" fill="#636363" />
<rect x="8" y="9" width="1" height="1" fill="#626262" />
<rect x="9" y="9" width="1" height="1" fill="#737373" />
<rect x="10" y="9" width="1" height="1" fill="#909090" />
<rect x="11" y="9" width="1" height="1" fill="#B1B1B1" />
<rect x="12" y="9" width="1" height="1" fill="#A8A8A8" />
<rect x="13" y="9" width="1" height="1" fill="#7D7D7D" />
<rect x="14" y="9" width="1" height="1" fill="#505050" />
<rect x="15" y="9" width="1" height="1" fill="#494949" />
<rect x="16" y="9" width="1" height="1" fill="#B5B5B5" />
<rect x="0" y="10" width="1" height="1" fill="#BFBFBF" />
<rect x="1" y="10" width="1" height="1" fill="#ACACAC" />
<rect x="2" y="10" width="1" height="1" fill="#959595" />
<rect x="3" y="10" width="1" height="1" fill="#D4D4D4" />
<rect x="4" y="10" width="1" height="1" fill="#BBBBBB" />
<rect x="5" y="10" width="1" height="1" fill="#636363" />
<rect x="6" y="10" width="3" height="1" fill="#080808" />
<rect x="9" y="10" width="1" height="1" fill="#040404" />
<rect x="10" y="10" width="1" height="1" fill="#343434" />
<rect x="11" y="10" width="1" height="1" fill="#ADADAD" />
<rect x="12" y="10" width="1" height="1" fill="#888888" />
<rect x="13" y="10" width="1" height="1" fill="#373737" />
<rect x="14" y="10" width="1" height="1" fill="#4E4E4E" />
<rect x="0" y="11" width="1" height="1" fill="#A4A4A4" />
<rect x="1" y="11" width="1" height="1" fill="#AEAEAE" />
<rect x="2" y="11" width="1" height="1" fill="#E0E0E0" />
<rect x="3" y="11" width="1" height="1" fill="#D1D1D1" />
<rect x="4" y="11" width="1" height="1" fill="#5B5B5B" />
<rect x="5" y="11" width="1" height="1" fill="#585858" />
<rect x="6" y="11" width="3" height="1" fill="#9C9C9C" />
<rect x="9" y="11" width="1" height="1" fill="#4A4A4A" />
<rect x="10" y="11" width="1" height="1" fill="#2A2A2A" />
<rect x="11" y="11" width="1" height="1" fill="#868686" />
<rect x="12" y="11" width="1" height="1" fill="#2C2C2C" />
<rect x="13" y="11" width="1" height="1" fill="#696969" />
<rect x="14" y="11" width="1" height="1" fill="#AAAAAA" />
<rect x="0" y="12" width="1" height="5" fill="#9E9E9E" />
<rect x="1" y="12" width="1" height="1" fill="#A9A9A9" />
<rect x="2" y="12" width="1" height="1" fill="#D6D6D6" />
<rect x="3" y="12" width="1" height="1" fill="#636363" />
<rect x="4" y="12" width="1" height="1" fill="#676767" />
<rect x="5" y="12" width="1" height="1" fill="#949494" />
<rect x="9" y="12" width="1" height="2" fill="#5B5B5B" />
<rect x="10" y="12" width="1" height="1" fill="#101010" />
<rect x="11" y="12" width="1" height="1" fill="#3B3B3B" />
<rect x="12" y="12" width="1" height="1" fill="#676767" />
<rect x="13" y="12" width="1" height="1" fill="#A1A1A1" />
<rect x="1" y="13" width="1" height="1" fill="#A3A3A3" />
<rect x="2" y="13" width="1" height="1" fill="#BCBCBC" />
<rect x="3" y="13" width="1" height="1" fill="#161616" />
<rect x="4" y="13" width="1" height="4" fill="#808080" />
<rect x="10" y="13" width="1" height="1" fill="#141414" />
<rect x="11" y="13" width="1" height="1" fill="#4C4C4C" />
<rect x="12" y="13" width="1" height="1" fill="#ACACAC" />
<rect x="1" y="14" width="1" height="1" fill="#9E9E9E" />
<rect x="2" y="14" width="1" height="1" fill="#B1B1B1" />
<rect x="3" y="14" width="1" height="1" fill="#151515" />
<rect x="9" y="14" width="1" height="1" fill="#686868" />
<rect x="10" y="14" width="1" height="1" fill="#4A4A4A" />
<rect x="1" y="15" width="1" height="1" fill="#9B9B9B" />
<rect x="2" y="15" width="1" height="1" fill="#A9A9A9" />
<rect x="3" y="15" width="1" height="1" fill="#141414" />
<rect x="9" y="15" width="1" height="1" fill="#B6B6B6" />
<rect x="10" y="15" width="1" height="1" fill="#B2B2B2" />
<rect x="1" y="16" width="1" height="1" fill="#919191" />
<rect x="2" y="16" width="1" height="1" fill="#8F8F8F" />
<rect x="3" y="16" width="1" height="1" fill="#111111" />
<rect x="0" y="17" width="1" height="1" fill="#ADADAD" />
<rect x="1" y="17" width="1" height="1" fill="#858585" />
<rect x="2" y="17" width="1" height="1" fill="#525252" />
<rect x="3" y="17" width="1" height="1" fill="#444444" />
<rect x="4" y="17" width="1" height="1" fill="#5E5E5E" />
<rect x="5" y="17" width="1" height="1" fill="#919191" />
<rect x="1" y="18" width="1" height="1" fill="#8A8A8A" />
<rect x="2" y="18" width="1" height="1" fill="#323232" />
<rect x="3" y="18" width="1" height="1" fill="#6E6E6E" />
<rect x="4" y="18" width="1" height="1" fill="#272727" />
<rect x="5" y="18" width="1" height="1" fill="#434343" />
<rect x="6" y="18" width="1" height="1" fill="#A0A0A0" />
<rect x="7" y="18" width="1" height="1" fill="#BFBFBF" />
<rect x="1" y="19" width="1" height="1" fill="#BFBFBF" />
<rect x="2" y="19" width="1" height="1" fill="#A5A5A5" />
<rect x="3" y="19" width="1" height="1" fill="#161616" />
<rect x="4" y="19" width="1" height="1" fill="#010101" />
<rect x="5" y="19" width="1" height="1" fill="#020202" />
<rect x="6" y="19" width="1" height="1" fill="#2B2B2B" />
<rect x="7" y="19" width="1" height="1" fill="#BCBCBC" />
<rect x="2" y="20" width="1" height="1" fill="#BABABA" />
<rect x="3" y="20" width="1" height="1" fill="#969696" />
<rect x="4" y="20" width="2" height="1" fill="#919191" />
<rect x="6" y="20" width="1" height="1" fill="#9B9B9B" />
<rect x="7" y="20" width="1" height="1" fill="#BFBFBF" />
</svg>