<?xml version="1.0" encoding="UTF-8" ?>
<svg version="1.1" width="27" height="27" xmlns="http://www.w3.org/2000/svg">
<rect x="0" y="0" width="1" height="1" fill="#B8B8B8" />
<rect x="1" y="0" width="18" height="1" fill="#B6B6B6" />
<rect x="19" y="0" width="1" height="1" fill="#ABABAB" />
<rect x="20" y="0" width="1" height="1" fill="#A6A6A6" />
<rect x="0" y="1" width="1" height="1" fill="#939393" />
<rect x="1" y="1" width="18" height="1" fill="#898989" />
<rect x="19" y="1" width="1" height="1" fill="#4E4E4E" />
<rect x="20" y="1" width="1" height="1" fill="#353535" />
<rect x="0" y="2" width="1" height="19" fill="#919191" />
<rect x="1" y="2" width="1" height="1" fill="#B6B6B6" />
<rect x="2" y="2" width="16" height="1" fill="#D8D8D8" />
<rect x="18" y="2" width="1" height="1" fill="#C2C2C2" />
<rect x="19" y="2" width="1" height="1" fill="#636363" />
<rect x="20" y="2" width="1" height="9" fill="#2D2D2D" />
<rect x="1" y="3" width="1" height="12" fill="#C9C9C9" />
<rect x="2" y="3" width="13" height="1" fill="#F8F8F8" />
<rect x="15" y="3" width="1" height="1" fill="#F7F7F7" />
<rect x="16" y="3" width="1" height="1" fill="#F5F5F5" />
<rect x="17" y="3" width="1" height="1" fill="#F8F8F8" />
<rect x="18" y="3" width="1" height="1" fill="#DADADA" />
<rect x="19" y="3" width="1" height="5" fill="#6D6D6D" />
<rect x="2" y="4" width="1" height="7" fill="#F8F8F8" />
<rect x="3" y="4" width="1" height="1" fill="#F3F3F3" />
<rect x="4" y="4" width="1" height="1" fill="#D6D6D6" />
<rect x="5" y="4" width="7" height="1" fill="#D2D2D2" />
<rect x="12" y="4" width="1" height="1" fill="#D5D5D5" />
<rect x="13" y="4" width="1" height="1" fill="#F2F2F2" />
<rect x="14" y="4" width="1" height="1" fill="#F6F6F6" />
<rect x="15" y="4" width="1" height="1" fill="#F2F2F2" />
<rect x="16" y="4" width="1" height="1" fill="#F0F0F0" />
<rect x="17" y="4" width="1" height="1" fill="#F4F4F4" />
<rect x="18" y="4" width="1" height="1" fill="#D8D8D8" />
<rect x="3" y="5" width="1" height="1" fill="#E6E6E6" />
<rect x="4" y="5" width="1" height="1" fill="#797979" />
<rect x="5" y="5" width="7" height="1" fill="#6B6B6B" />
<rect x="12" y="5" width="1" height="1" fill="#747474" />
<rect x="13" y="5" width="1" height="1" fill="#E1E1E1" />
<rect x="14" y="5" width="1" height="1" fill="#EFEFEF" />
<rect x="15" y="5" width="3" height="2" fill="#EAEAEA" />
<rect x="18" y="5" width="1" height="2" fill="#D5D5D5" />
<rect x="3" y="6" width="1" height="1" fill="#F4F4F4" />
<rect x="4" y="6" width="1" height="1" fill="#DEDEDE" />
<rect x="5" y="6" width="7" height="1" fill="#DBDBDB" />
<rect x="12" y="6" width="1" height="1" fill="#DCDCDC" />
<rect x="13" y="6" width="1" height="1" fill="#EFEFEF" />
<rect x="14" y="6" width="1" height="1" fill="#EDEDED" />
<rect x="3" y="7" width="1" height="1" fill="#EEEEEE" />
<rect x="4" y="7" width="1" height="1" fill="#ADADAD" />
<rect x="5" y="7" width="8" height="1" fill="#A5A5A5" />
<rect x="13" y="7" width="1" height="1" fill="#A2A2A2" />
<rect x="14" y="7" width="1" height="1" fill="#A0A0A0" />
<rect x="15" y="7" width="1" height="1" fill="#A6A6A6" />
<rect x="16" y="7" width="2" height="1" fill="#B1B1B1" />
<rect x="18" y="7" width="1" height="1" fill="#C4C4C4" />
<rect x="3" y="8" width="1" height="1" fill="#ECECEC" />
<rect x="4" y="8" width="1" height="1" fill="#A2A2A2" />
<rect x="5" y="8" width="1" height="1" fill="#989898" />
<rect x="6" y="8" width="1" height="1" fill="#979797" />
<rect x="7" y="8" width="1" height="1" fill="#959595" />
<rect x="8" y="8" width="6" height="1" fill="#939393" />
<rect x="14" y="8" width="1" height="1" fill="#7E7E7E" />
<rect x="15" y="8" width="1" height="1" fill="#888888" />
<rect x="16" y="8" width="2" height="1" fill="#ADADAD" />
<rect x="18" y="8" width="1" height="1" fill="#929292" />
<rect x="19" y="8" width="1" height="1" fill="#484848" />
<rect x="3" y="9" width="1" height="1" fill="#F6F6F6" />
<rect x="4" y="9" width="1" height="1" fill="#E9E9E9" />
<rect x="5" y="9" width="1" height="1" fill="#E7E7E7" />
<rect x="6" y="9" width="1" height="1" fill="#E5E5E5" />
<rect x="7" y="9" width="1" height="1" fill="#E0E0E0" />
<rect x="8" y="9" width="5" height="1" fill="#DBDBDB" />
<rect x="13" y="9" width="1" height="1" fill="#DEDEDE" />
<rect x="14" y="9" width="1" height="1" fill="#B1B1B1" />
<rect x="15" y="9" width="1" height="1" fill="#B9B9B9" />
<rect x="16" y="9" width="1" height="1" fill="#F8F8F8" />
<rect x="17" y="9" width="1" height="1" fill="#F7F7F7" />
<rect x="18" y="9" width="1" height="1" fill="#5D5D5D" />
<rect x="19" y="9" width="1" height="1" fill="#0D0D0D" />
<rect x="3" y="10" width="1" height="1" fill="#E8E8E8" />
<rect x="4" y="10" width="1" height="1" fill="#848484" />
<rect x="5" y="10" width="1" height="1" fill="#777777" />
<rect x="6" y="10" width="2" height="1" fill="#767676" />
<rect x="8" y="10" width="4" height="1" fill="#757575" />
<rect x="12" y="10" width="1" height="1" fill="#777777" />
<rect x="13" y="10" width="1" height="1" fill="#8D8D8D" />
<rect x="14" y="10" width="1" height="1" fill="#C8C8C8" />
<rect x="15" y="10" width="1" height="1" fill="#F0F0F0" />
<rect x="16" y="10" width="1" height="1" fill="#F6F6F6" />
<rect x="17" y="10" width="1" height="1" fill="#EDEDED" />
<rect x="18" y="10" width="1" height="1" fill="#D0D0D0" />
<rect x="19" y="10" width="1" height="1" fill="#696969" />
<rect x="2" y="11" width="1" height="1" fill="#F6F6F6" />
<rect x="3" y="11" width="1" height="1" fill="#EDEDED" />
<rect x="4" y="11" width="1" height="1" fill="#C6C6C6" />
<rect x="5" y="11" width="2" height="1" fill="#C1C1C1" />
<rect x="7" y="11" width="1" height="1" fill="#C0C0C0" />
<rect x="8" y="11" width="3" height="1" fill="#BDBDBD" />
<rect x="11" y="11" width="1" height="1" fill="#A9A9A9" />
<rect x="12" y="11" width="1" height="1" fill="#818181" />
<rect x="13" y="11" width="1" height="1" fill="#C3C3C3" />
<rect x="14" y="11" width="1" height="1" fill="#E9E9E9" />
<rect x="15" y="11" width="1" height="1" fill="#F6F6F6" />
<rect x="16" y="11" width="1" height="1" fill="#F2F2F2" />
<rect x="17" y="11" width="1" height="1" fill="#EBEBEB" />
<rect x="18" y="11" width="1" height="1" fill="#DEDEDE" />
<rect x="19" y="11" width="1" height="1" fill="#B8B8B8" />
<rect x="20" y="11" width="1" height="1" fill="#7F7F7F" />
<rect x="21" y="11" width="1" height="1" fill="#434343" />
<rect x="22" y="11" width="1" height="1" fill="#A4A4A4" />
<rect x="2" y="12" width="1" height="1" fill="#F4F4F4" />
<rect x="3" y="12" width="1" height="1" fill="#E7E7E7" />
<rect x="4" y="12" width="1" height="1" fill="#BCBCBC" />
<rect x="5" y="12" width="2" height="1" fill="#B6B6B6" />
<rect x="7" y="12" width="1" height="1" fill="#B5B5B5" />
<rect x="8" y="12" width="2" height="1" fill="#B2B2B2" />
<rect x="10" y="12" width="1" height="1" fill="#B9B9B9" />
<rect x="11" y="12" width="1" height="1" fill="#BDBDBD" />
<rect x="12" y="12" width="1" height="1" fill="#BBBBBB" />
<rect x="13" y="12" width="1" height="1" fill="#EDEDED" />
<rect x="14" y="12" width="1" height="1" fill="#F4F4F4" />
<rect x="15" y="12" width="1" height="1" fill="#F1F1F1" />
<rect x="16" y="12" width="1" height="1" fill="#EDEDED" />
<rect x="17" y="12" width="1" height="1" fill="#E5E5E5" />
<rect x="18" y="12" width="1" height="1" fill="#DBDBDB" />
<rect x="19" y="12" width="1" height="1" fill="#D1D1D1" />
<rect x="20" y="12" width="1" height="1" fill="#AEAEAE" />
<rect x="21" y="12" width="1" height="1" fill="#525252" />
<rect x="22" y="12" width="1" height="1" fill="#6B6B6B" />
<rect x="23" y="12" width="1" height="1" fill="#9C9C9C" />
<rect x="2" y="13" width="1" height="2" fill="#F3F3F3" />
<rect x="3" y="13" width="1" height="1" fill="#DDDDDD" />
<rect x="4" y="13" width="1" height="1" fill="#8B8B8B" />
<rect x="5" y="13" width="4" height="1" fill="#808080" />
<rect x="9" y="13" width="1" height="1" fill="#717171" />
<rect x="10" y="13" width="1" height="1" fill="#868686" />
<rect x="11" y="13" width="1" height="1" fill="#B8B8B8" />
<rect x="12" y="13" width="1" height="1" fill="#F8F8F8" />
<rect x="13" y="13" width="1" height="1" fill="#F6F6F6" />
<rect x="14" y="13" width="1" height="1" fill="#EEEEEE" />
<rect x="15" y="13" width="1" height="1" fill="#E9E9E9" />
<rect x="16" y="13" width="1" height="1" fill="#E5E5E5" />
<rect x="17" y="13" width="1" height="1" fill="#DDDDDD" />
<rect x="18" y="13" width="1" height="1" fill="#D5D5D5" />
<rect x="19" y="13" width="1" height="1" fill="#C5C5C5" />
<rect x="20" y="13" width="1" height="1" fill="#B6B6B6" />
<rect x="21" y="13" width="1" height="1" fill="#B7B7B7" />
<rect x="22" y="13" width="1" height="1" fill="#464646" />
<rect x="23" y="13" width="1" height="1" fill="#666666" />
<rect x="24" y="13" width="1" height="1" fill="#A7A7A7" />
<rect x="3" y="14" width="1" height="1" fill="#E9E9E9" />
<rect x="4" y="14" width="5" height="1" fill="#E6E6E6" />
<rect x="9" y="14" width="1" height="1" fill="#9D9D9D" />
<rect x="10" y="14" width="1" height="1" fill="#BFBFBF" />
<rect x="11" y="14" width="1" height="2" fill="#F5F5F5" />
<rect x="12" y="14" width="1" height="1" fill="#F7F7F7" />
<rect x="13" y="14" width="1" height="1" fill="#EDEDED" />
<rect x="14" y="14" width="1" height="1" fill="#EAEAEA" />
<rect x="15" y="14" width="1" height="1" fill="#E3E3E3" />
<rect x="16" y="14" width="1" height="1" fill="#D8D8D8" />
<rect x="17" y="14" width="1" height="1" fill="#D7D7D7" />
<rect x="18" y="14" width="1" height="1" fill="#C8C8C8" />
<rect x="19" y="14" width="1" height="1" fill="#C0C0C0" />
<rect x="20" y="14" width="1" height="1" fill="#B7B7B7" />
<rect x="21" y="14" width="1" height="1" fill="#9A9A9A" />
<rect x="22" y="14" width="1" height="1" fill="#969696" />
<rect x="23" y="14" width="1" height="1" fill="#4B4B4B" />
<rect x="24" y="14" width="1" height="1" fill="#474747" />
<rect x="1" y="15" width="1" height="1" fill="#C3C3C3" />
<rect x="2" y="15" width="1" height="1" fill="#ECECEC" />
<rect x="3" y="15" width="1" height="1" fill="#DEDEDE" />
<rect x="4" y="15" width="1" height="1" fill="#929292" />
<rect x="5" y="15" width="4" height="1" fill="#888888" />
<rect x="9" y="15" width="1" height="1" fill="#868686" />
<rect x="10" y="15" width="1" height="1" fill="#C2C2C2" />
<rect x="12" y="15" width="1" height="1" fill="#EDEDED" />
<rect x="13" y="15" width="1" height="1" fill="#EBEBEB" />
<rect x="14" y="15" width="1" height="1" fill="#E1E1E1" />
<rect x="15" y="15" width="1" height="1" fill="#DADADA" />
<rect x="16" y="15" width="1" height="1" fill="#D4D4D4" />
<rect x="17" y="15" width="1" height="1" fill="#C7C7C7" />
<rect x="18" y="15" width="1" height="1" fill="#C2C2C2" />
<rect x="19" y="15" width="1" height="1" fill="#B3B3B3" />
<rect x="20" y="15" width="1" height="2" fill="#A5A5A5" />
<rect x="21" y="15" width="1" height="1" fill="#ABABAB" />
<rect x="22" y="15" width="1" height="1" fill="#9B9B9B" />
<rect x="23" y="15" width="1" height="1" fill="#7C7C7C" />
<rect x="24" y="15" width="1" height="1" fill="#575757" />
<rect x="25" y="15" width="1" height="1" fill="#444444" />
<rect x="26" y="15" width="1" height="1" fill="#ADADAD" />
<rect x="1" y="16" width="1" height="1" fill="#BDBDBD" />
<rect x="2" y="16" width="1" height="1" fill="#E3E3E3" />
<rect x="3" y="16" width="1" height="1" fill="#DBDBDB" />
<rect x="4" y="16" width="1" height="1" fill="#A9A9A9" />
<rect x="5" y="16" width="2" height="1" fill="#A3A3A3" />
<rect x="7" y="16" width="1" height="1" fill="#999999" />
<rect x="8" y="16" width="1" height="1" fill="#777777" />
<rect x="9" y="16" width="1" height="1" fill="#AEAEAE" />
<rect x="10" y="16" width="1" height="1" fill="#BFBFBF" />
<rect x="11" y="16" width="1" height="1" fill="#C8C8C8" />
<rect x="12" y="16" width="1" height="1" fill="#E0E0E0" />
<rect x="13" y="16" width="1" height="1" fill="#E3E3E3" />
<rect x="14" y="16" width="1" height="1" fill="#DCDCDC" />
<rect x="15" y="16" width="1" height="1" fill="#D3D3D3" />
<rect x="16" y="16" width="1" height="1" fill="#CACACA" />
<rect x="17" y="16" width="1" height="1" fill="#C1C1C1" />
<rect x="18" y="16" width="1" height="1" fill="#B1B1B1" />
<rect x="19" y="16" width="1" height="1" fill="#A8A8A8" />
<rect x="21" y="16" width="1" height="1" fill="#A3A3A3" />
<rect x="22" y="16" width="1" height="1" fill="#939393" />
<rect x="23" y="16" width="1" height="1" fill="#9D9D9D" />
<rect x="24" y="16" width="1" height="1" fill="#757575" />
<rect x="25" y="16" width="1" height="1" fill="#151515" />
<rect x="26" y="16" width="1" height="3" fill="#A6A6A6" />
<rect x="1" y="17" width="1" height="1" fill="#B6B6B6" />
<rect x="2" y="17" width="1" height="1" fill="#D8D8D8" />
<rect x="3" y="17" width="1" height="1" fill="#D5D5D5" />
<rect x="4" y="17" width="1" height="1" fill="#BEBEBE" />
<rect x="5" y="17" width="2" height="1" fill="#BCBCBC" />
<rect x="7" y="17" width="1" height="1" fill="#AFAFAF" />
<rect x="8" y="17" width="1" height="1" fill="#838383" />
<rect x="9" y="17" width="1" height="1" fill="#DBDBDB" />
<rect x="10" y="17" width="1" height="1" fill="#CDCDCD" />
<rect x="11" y="17" width="1" height="1" fill="#AEAEAE" />
<rect x="12" y="17" width="1" height="1" fill="#C1C1C1" />
<rect x="13" y="17" width="1" height="1" fill="#CECECE" />
<rect x="14" y="17" width="1" height="1" fill="#D1D1D1" />
<rect x="15" y="17" width="1" height="1" fill="#CACACA" />
<rect x="16" y="17" width="1" height="1" fill="#BEBEBE" />
<rect x="17" y="17" width="1" height="1" fill="#B5B5B5" />
<rect x="18" y="17" width="1" height="1" fill="#A5A5A5" />
<rect x="19" y="17" width="1" height="1" fill="#A4A4A4" />
<rect x="20" y="17" width="1" height="1" fill="#A3A3A3" />
<rect x="21" y="17" width="1" height="1" fill="#8D8D8D" />
<rect x="22" y="17" width="1" height="1" fill="#A1A1A1" />
<rect x="23" y="17" width="1" height="1" fill="#BBBBBB" />
<rect x="24" y="17" width="1" height="2" fill="#8B8B8B" />
<rect x="25" y="17" width="1" height="1" fill="#111111" />
<rect x="1" y="18" width="1" height="2" fill="#AFAFAF" />
<rect x="2" y="18" width="1" height="1" fill="#CCCCCC" />
<rect x="3" y="18" width="1" height="1" fill="#BFBFBF" />
<rect x="4" y="18" width="1" height="1" fill="#757575" />
<rect x="5" y="18" width="2" height="1" fill="#6B6B6B" />
<rect x="7" y="18" width="1" height="1" fill="#6E6E6E" />
<rect x="8" y="18" width="1" height="1" fill="#787878" />
<rect x="9" y="18" width="1" height="1" fill="#D8D8D8" />
<rect x="10" y="18" width="1" height="2" fill="#F8F8F8" />
<rect x="11" y="18" width="1" height="1" fill="#D7D7D7" />
<rect x="12" y="18" width="1" height="1" fill="#8C8C8C" />
<rect x="13" y="18" width="1" height="1" fill="#A9A9A9" />
<rect x="14" y="18" width="1" height="1" fill="#B8B8B8" />
<rect x="15" y="18" width="1" height="1" fill="#BDBDBD" />
<rect x="16" y="18" width="1" height="1" fill="#B7B7B7" />
<rect x="17" y="18" width="1" height="1" fill="#989898" />
<rect x="18" y="18" width="1" height="1" fill="#A7A7A7" />
<rect x="19" y="18" width="1" height="1" fill="#A3A3A3" />
<rect x="20" y="18" width="1" height="1" fill="#8F8F8F" />
<rect x="21" y="18" width="1" height="1" fill="#7D7D7D" />
<rect x="22" y="18" width="1" height="1" fill="#DCDCDC" />
<rect x="23" y="18" width="1" height="1" fill="#E0E0E0" />
<rect x="25" y="18" width="1" height="1" fill="#121212" />
<rect x="2" y="19" width="1" height="1" fill="#C8C8C8" />
<rect x="3" y="19" width="1" height="1" fill="#C0C0C0" />
<rect x="4" y="19" width="1" height="1" fill="#B2B2B2" />
<rect x="5" y="19" width="2" height="1" fill="#B0B0B0" />
<rect x="7" y="19" width="1" height="1" fill="#A7A7A7" />
<rect x="8" y="19" width="1" height="1" fill="#848484" />
<rect x="9" y="19" width="1" height="1" fill="#DBDBDB" />
<rect x="11" y="19" width="1" height="1" fill="#E7E7E7" />
<rect x="12" y="19" width="1" height="1" fill="#BCBCBC" />
<rect x="13" y="19" width="1" height="1" fill="#969696" />
<rect x="14" y="19" width="1" height="1" fill="#8F8F8F" />
<rect x="15" y="19" width="1" height="1" fill="#909090" />
<rect x="16" y="19" width="1" height="1" fill="#8F8F8F" />
<rect x="17" y="19" width="1" height="1" fill="#898989" />
<rect x="18" y="19" width="1" height="1" fill="#848484" />
<rect x="19" y="19" width="1" height="1" fill="#858585" />
<rect x="20" y="19" width="1" height="1" fill="#979797" />
<rect x="21" y="19" width="1" height="1" fill="#C6C6C6" />
<rect x="22" y="19" width="1" height="1" fill="#E4E4E4" />
<rect x="23" y="19" width="1" height="1" fill="#DBDBDB" />
<rect x="24" y="19" width="1" height="1" fill="#8D8D8D" />
<rect x="25" y="19" width="1" height="1" fill="#171717" />
<rect x="26" y="19" width="1" height="1" fill="#A7A7A7" />
<rect x="1" y="20" width="1" height="1" fill="#ABABAB" />
<rect x="2" y="20" width="1" height="1" fill="#C3C3C3" />
<rect x="3" y="20" width="1" height="1" fill="#BFBFBF" />
<rect x="4" y="20" width="3" height="1" fill="#B8B8B8" />
<rect x="7" y="20" width="1" height="1" fill="#ADADAD" />
<rect x="8" y="20" width="1" height="1" fill="#878787" />
<rect x="9" y="20" width="1" height="1" fill="#DCDCDC" />
<rect x="10" y="20" width="1" height="1" fill="#EAEAEA" />
<rect x="11" y="20" width="1" height="1" fill="#CCCCCC" />
<rect x="12" y="20" width="1" height="1" fill="#A5A5A5" />
<rect x="13" y="20" width="1" height="1" fill="#C4C4C4" />
<rect x="14" y="20" width="4" height="1" fill="#CACACA" />
<rect x="18" y="20" width="1" height="1" fill="#C0C0C0" />
<rect x="19" y="20" width="1" height="1" fill="#BBBBBB" />
<rect x="20" y="20" width="1" height="1" fill="#B3B3B3" />
<rect x="21" y="20" width="1" height="1" fill="#9E9E9E" />
<rect x="22" y="20" width="1" height="1" fill="#CBCBCB" />
<rect x="23" y="20" width="1" height="1" fill="#D1D1D1" />
<rect x="24" y="20" width="1" height="1" fill="#8C8C8C" />
<rect x="25" y="20" width="1" height="1" fill="#141414" />
<rect x="26" y="20" width="1" height="6" fill="#A6A6A6" />
<rect x="0" y="21" width="1" height="1" fill="#696969" />
<rect x="1" y="21" width="1" height="1" fill="#6A6A6A" />
<rect x="2" y="21" width="1" height="1" fill="#797979" />
<rect x="3" y="21" width="1" height="1" fill="#787878" />
<rect x="4" y="21" width="1" height="1" fill="#727272" />
<rect x="5" y="21" width="2" height="1" fill="#717171" />
<rect x="7" y="21" width="1" height="1" fill="#757575" />
<rect x="8" y="21" width="1" height="1" fill="#868686" />
<rect x="9" y="21" width="1" height="1" fill="#D0D0D0" />
<rect x="10" y="21" width="1" height="1" fill="#CCCCCC" />
<rect x="11" y="21" width="1" height="1" fill="#B2B2B2" />
<rect x="12" y="21" width="1" height="1" fill="#B5B5B5" />
<rect x="13" y="21" width="1" height="1" fill="#ECECEC" />
<rect x="14" y="21" width="1" height="1" fill="#F8F8F8" />
<rect x="15" y="21" width="1" height="1" fill="#F6F6F6" />
<rect x="16" y="21" width="2" height="1" fill="#F3F3F3" />
<rect x="18" y="21" width="1" height="1" fill="#EDEDED" />
<rect x="19" y="21" width="1" height="1" fill="#E3E3E3" />
<rect x="20" y="21" width="1" height="1" fill="#CCCCCC" />
<rect x="21" y="21" width="1" height="1" fill="#9D9D9D" />
<rect x="22" y="21" width="1" height="1" fill="#ADADAD" />
<rect x="23" y="21" width="1" height="1" fill="#C0C0C0" />
<rect x="24" y="21" width="1" height="1" fill="#8B8B8B" />
<rect x="25" y="21" width="1" height="3" fill="#111111" />
<rect x="0" y="22" width="1" height="1" fill="#393939" />
<rect x="1" y="22" width="6" height="1" fill="#1A1A1A" />
<rect x="7" y="22" width="1" height="1" fill="#313131" />
<rect x="8" y="22" width="1" height="1" fill="#848484" />
<rect x="9" y="22" width="1" height="1" fill="#B2B2B2" />
<rect x="10" y="22" width="1" height="1" fill="#AAAAAA" />
<rect x="11" y="22" width="1" height="1" fill="#B3B3B3" />
<rect x="12" y="22" width="2" height="2" fill="#F8F8F8" />
<rect x="14" y="22" width="1" height="1" fill="#F7F7F7" />
<rect x="15" y="22" width="1" height="1" fill="#F2F2F2" />
<rect x="16" y="22" width="2" height="2" fill="#EAEAEA" />
<rect x="18" y="22" width="1" height="1" fill="#E9E9E9" />
<rect x="19" y="22" width="1" height="1" fill="#E0E0E0" />
<rect x="20" y="22" width="1" height="1" fill="#D8D8D8" />
<rect x="21" y="22" width="1" height="1" fill="#DCDCDC" />
<rect x="22" y="22" width="1" height="1" fill="#A2A2A2" />
<rect x="23" y="22" width="1" height="1" fill="#ACACAC" />
<rect x="24" y="22" width="1" height="1" fill="#848484" />
<rect x="0" y="23" width="1" height="1" fill="#B2B2B2" />
<rect x="1" y="23" width="6" height="1" fill="#AFAFAF" />
<rect x="7" y="23" width="1" height="1" fill="#A6A6A6" />
<rect x="8" y="23" width="1" height="2" fill="#878787" />
<rect x="9" y="23" width="1" height="1" fill="#808080" />
<rect x="10" y="23" width="1" height="1" fill="#B9B9B9" />
<rect x="11" y="23" width="1" height="1" fill="#F1F1F1" />
<rect x="14" y="23" width="1" height="1" fill="#F4F4F4" />
<rect x="15" y="23" width="1" height="1" fill="#EFEFEF" />
<rect x="18" y="23" width="1" height="1" fill="#E2E2E2" />
<rect x="19" y="23" width="1" height="1" fill="#DBDBDB" />
<rect x="20" y="23" width="2" height="1" fill="#D7D7D7" />
<rect x="22" y="23" width="1" height="1" fill="#D1D1D1" />
<rect x="23" y="23" width="1" height="1" fill="#ABABAB" />
<rect x="24" y="23" width="1" height="1" fill="#5F5F5F" />
<rect x="7" y="24" width="1" height="1" fill="#B4B4B4" />
<rect x="9" y="24" width="1" height="1" fill="#A6A6A6" />
<rect x="10" y="24" width="1" height="1" fill="#C6C6C6" />
<rect x="11" y="24" width="1" height="1" fill="#DCDCDC" />
<rect x="12" y="24" width="1" height="1" fill="#E1E1E1" />
<rect x="13" y="24" width="1" height="1" fill="#DBDBDB" />
<rect x="14" y="24" width="1" height="1" fill="#D9D9D9" />
<rect x="15" y="24" width="1" height="1" fill="#D7D7D7" />
<rect x="16" y="24" width="2" height="1" fill="#D6D6D6" />
<rect x="18" y="24" width="1" height="1" fill="#D3D3D3" />
<rect x="19" y="24" width="1" height="1" fill="#D1D1D1" />
<rect x="20" y="24" width="3" height="1" fill="#D0D0D0" />
<rect x="23" y="24" width="1" height="1" fill="#C1C1C1" />
<rect x="24" y="24" width="1" height="1" fill="#7D7D7D" />
<rect x="25" y="24" width="1" height="1" fill="#161616" />
<rect x="7" y="25" width="1" height="1" fill="#A7A7A7" />
<rect x="8" y="25" width="1" height="1" fill="#4C4C4C" />
<rect x="9" y="25" width="1" height="1" fill="#666666" />
<rect x="10" y="25" width="1" height="1" fill="#707070" />
<rect x="11" y="25" width="1" height="1" fill="#717171" />
<rect x="12" y="25" width="1" height="1" fill="#757575" />
<rect x="13" y="25" width="1" height="1" fill="#717171" />
<rect x="14" y="25" width="10" height="1" fill="#707070" />
<rect x="24" y="25" width="1" height="1" fill="#4D4D4D" />
<rect x="25" y="25" width="1" height="1" fill="#151515" />
<rect x="7" y="26" width="1" height="1" fill="#A1A1A1" />
<rect x="8" y="26" width="1" height="1" fill="#2E2E2E" />
<rect x="9" y="26" width="16" height="1" fill="#2B2B2B" />
<rect x="25" y="26" width="1" height="1" fill="#383838" />
<rect x="26" y="26" width="1" height="1" fill="#ACACAC" />
</svg>
