<?xml version="1.0" encoding="UTF-8" ?>
<svg version="1.1" width="28" height="26" xmlns="http://www.w3.org/2000/svg">
<rect x="22" y="0" width="1" height="1" fill="#BFBEBC" />
<rect x="23" y="0" width="1" height="1" fill="#BAB2A2" />
<rect x="24" y="0" width="1" height="1" fill="#BEBBB4" />
<rect x="22" y="1" width="1" height="1" fill="#BCB6AB" />
<rect x="23" y="1" width="1" height="1" fill="#9F751F" />
<rect x="24" y="1" width="1" height="1" fill="#B3A382" />
<rect x="9" y="2" width="1" height="1" fill="#BCBCBC" />
<rect x="10" y="2" width="1" height="1" fill="#9C9C9C" />
<rect x="11" y="2" width="6" height="1" fill="#969696" />
<rect x="17" y="2" width="1" height="1" fill="#A1A1A1" />
<rect x="21" y="2" width="1" height="1" fill="#B6AA91" />
<rect x="22" y="2" width="1" height="1" fill="#AB8940" />
<rect x="23" y="2" width="1" height="1" fill="#DBCA88" />
<rect x="24" y="2" width="1" height="1" fill="#96917A" />
<rect x="25" y="2" width="1" height="1" fill="#919191" />
<rect x="7" y="3" width="1" height="1" fill="#B1B1B1" />
<rect x="8" y="3" width="1" height="1" fill="#A4A4A4" />
<rect x="9" y="3" width="1" height="1" fill="#A5A5A5" />
<rect x="10" y="3" width="1" height="1" fill="#B4B4B4" />
<rect x="11" y="3" width="1" height="1" fill="#BBBBBB" />
<rect x="12" y="3" width="1" height="1" fill="#B5AB8D" />
<rect x="13" y="3" width="1" height="1" fill="#AC975A" />
<rect x="14" y="3" width="1" height="1" fill="#BCBBB7" />
<rect x="15" y="3" width="2" height="1" fill="#BEBEBE" />
<rect x="17" y="3" width="1" height="1" fill="#B7B7B7" />
<rect x="18" y="3" width="2" height="1" fill="#A4A4A4" />
<rect x="20" y="3" width="1" height="1" fill="#A99B7E" />
<rect x="21" y="3" width="1" height="1" fill="#B79E63" />
<rect x="22" y="3" width="1" height="1" fill="#C7B068" />
<rect x="23" y="3" width="1" height="1" fill="#ACA989" />
<rect x="24" y="3" width="1" height="1" fill="#54544B" />
<rect x="25" y="3" width="1" height="1" fill="#696969" />
<rect x="4" y="4" width="1" height="1" fill="#BCBCBC" />
<rect x="5" y="4" width="2" height="1" fill="#B1B1B1" />
<rect x="7" y="4" width="1" height="1" fill="#A8A8A8" />
<rect x="8" y="4" width="1" height="1" fill="#A1A1A1" />
<rect x="9" y="4" width="1" height="1" fill="#AAAAAA" />
<rect x="10" y="4" width="1" height="1" fill="#E3E3E3" />
<rect x="11" y="4" width="1" height="1" fill="#F4F4F4" />
<rect x="12" y="4" width="1" height="1" fill="#E6D294" />
<rect x="13" y="4" width="1" height="1" fill="#D4AA2A" />
<rect x="14" y="4" width="1" height="1" fill="#F7F5E0" />
<rect x="15" y="4" width="1" height="1" fill="#FAFAED" />
<rect x="16" y="4" width="1" height="1" fill="#FAFAE6" />
<rect x="17" y="4" width="1" height="1" fill="#E4E4CA" />
<rect x="18" y="4" width="1" height="1" fill="#A4A48A" />
<rect x="19" y="4" width="1" height="1" fill="#90866B" />
<rect x="20" y="4" width="1" height="1" fill="#A28749" />
<rect x="21" y="4" width="1" height="1" fill="#BEA55D" />
<rect x="22" y="4" width="1" height="1" fill="#C0C09E" />
<rect x="23" y="4" width="1" height="1" fill="#4A4A46" />
<rect x="24" y="4" width="1" height="1" fill="#141414" />
<rect x="25" y="4" width="1" height="5" fill="#525252" />
<rect x="3" y="5" width="1" height="1" fill="#BFBFBF" />
<rect x="4" y="5" width="1" height="1" fill="#B2B2B2" />
<rect x="5" y="5" width="1" height="1" fill="#898989" />
<rect x="6" y="5" width="1" height="1" fill="#878787" />
<rect x="7" y="5" width="1" height="1" fill="#BDBDBD" />
<rect x="8" y="5" width="1" height="1" fill="#EFEFEF" />
<rect x="9" y="5" width="2" height="2" fill="#F8F8F8" />
<rect x="11" y="5" width="1" height="1" fill="#F8F8F7" />
<rect x="12" y="5" width="1" height="1" fill="#E7D396" />
<rect x="13" y="5" width="1" height="1" fill="#D6AE29" />
<rect x="14" y="5" width="1" height="1" fill="#FCFAC1" />
<rect x="15" y="5" width="1" height="1" fill="#FFFFCB" />
<rect x="16" y="5" width="1" height="1" fill="#FFFFB2" />
<rect x="17" y="5" width="1" height="1" fill="#FEFE98" />
<rect x="18" y="5" width="1" height="1" fill="#F9F690" />
<rect x="19" y="5" width="1" height="1" fill="#AF8723" />
<rect x="20" y="5" width="1" height="1" fill="#D2BD76" />
<rect x="21" y="5" width="1" height="1" fill="#BDBD9D" />
<rect x="22" y="5" width="1" height="1" fill="#424242" />
<rect x="23" y="5" width="1" height="1" fill="#080808" />
<rect x="24" y="5" width="1" height="4" fill="#000000" />
<rect x="3" y="6" width="1" height="1" fill="#AAAAAA" />
<rect x="4" y="6" width="1" height="1" fill="#A2A2A2" />
<rect x="5" y="6" width="1" height="1" fill="#D5D5D5" />
<rect x="6" y="6" width="1" height="1" fill="#989898" />
<rect x="7" y="6" width="1" height="1" fill="#C3C3C3" />
<rect x="8" y="6" width="1" height="1" fill="#F6F6F6" />
<rect x="11" y="6" width="1" height="1" fill="#FCFCE2" />
<rect x="12" y="6" width="1" height="1" fill="#FAF6C1" />
<rect x="13" y="6" width="1" height="1" fill="#F7EEAB" />
<rect x="14" y="6" width="1" height="1" fill="#FEFECA" />
<rect x="15" y="6" width="1" height="1" fill="#FFFFAF" />
<rect x="16" y="6" width="1" height="1" fill="#FFFF9E" />
<rect x="17" y="6" width="1" height="1" fill="#EADF79" />
<rect x="18" y="6" width="1" height="1" fill="#AF8723" />
<rect x="19" y="6" width="1" height="1" fill="#DECE89" />
<rect x="20" y="6" width="1" height="1" fill="#A4A080" />
<rect x="21" y="6" width="1" height="1" fill="#4F4F48" />
<rect x="22" y="6" width="1" height="1" fill="#0E0E0E" />
<rect x="23" y="6" width="1" height="1" fill="#020202" />
<rect x="2" y="7" width="1" height="1" fill="#A9A9A9" />
<rect x="3" y="7" width="1" height="1" fill="#AEAEAE" />
<rect x="4" y="7" width="1" height="1" fill="#CBCBCB" />
<rect x="5" y="7" width="1" height="1" fill="#F2F2F2" />
<rect x="6" y="7" width="1" height="1" fill="#D1D1D1" />
<rect x="7" y="7" width="1" height="1" fill="#BEBEBE" />
<rect x="8" y="7" width="1" height="1" fill="#CCCCCC" />
<rect x="9" y="7" width="1" height="1" fill="#F8F8F6" />
<rect x="10" y="7" width="1" height="1" fill="#FBFBE2" />
<rect x="11" y="7" width="1" height="1" fill="#FEFED3" />
<rect x="12" y="7" width="1" height="1" fill="#FFFFCC" />
<rect x="13" y="7" width="1" height="1" fill="#FFFFC7" />
<rect x="14" y="7" width="1" height="1" fill="#FFFFB1" />
<rect x="15" y="7" width="1" height="1" fill="#FFFF9F" />
<rect x="16" y="7" width="1" height="1" fill="#E3D46E" />
<rect x="17" y="7" width="1" height="1" fill="#C9AD4F" />
<rect x="18" y="7" width="1" height="1" fill="#D1BC75" />
<rect x="19" y="7" width="1" height="1" fill="#A5A181" />
<rect x="20" y="7" width="1" height="1" fill="#54544B" />
<rect x="21" y="7" width="1" height="1" fill="#161616" />
<rect x="22" y="7" width="2" height="2" fill="#000000" />
<rect x="2" y="8" width="1" height="1" fill="#989898" />
<rect x="3" y="8" width="1" height="1" fill="#B7B7B7" />
<rect x="4" y="8" width="1" height="1" fill="#F1F1F1" />
<rect x="5" y="8" width="2" height="3" fill="#F8F8F8" />
<rect x="7" y="8" width="1" height="1" fill="#CFCFCF" />
<rect x="8" y="8" width="1" height="1" fill="#C6C6C0" />
<rect x="9" y="8" width="1" height="1" fill="#FBFBE6" />
<rect x="10" y="8" width="1" height="1" fill="#FEFED0" />
<rect x="11" y="8" width="1" height="1" fill="#FFFFCC" />
<rect x="12" y="8" width="1" height="1" fill="#FFFFC5" />
<rect x="13" y="8" width="1" height="1" fill="#FFFFB5" />
<rect x="14" y="8" width="1" height="1" fill="#FFFF9B" />
<rect x="15" y="8" width="1" height="1" fill="#E6D973" />
<rect x="16" y="8" width="1" height="1" fill="#CCB356" />
<rect x="17" y="8" width="1" height="1" fill="#BEA55D" />
<rect x="18" y="8" width="1" height="1" fill="#BDBD9D" />
<rect x="19" y="8" width="1" height="1" fill="#4F4F48" />
<rect x="20" y="8" width="1" height="1" fill="#161616" />
<rect x="21" y="8" width="1" height="1" fill="#000000" />
<rect x="0" y="9" width="1" height="1" fill="#BFBFBF" />
<rect x="1" y="9" width="1" height="1" fill="#BABABA" />
<rect x="2" y="9" width="1" height="1" fill="#9E9E9E" />
<rect x="3" y="9" width="1" height="1" fill="#C1C1C1" />
<rect x="4" y="9" width="1" height="2" fill="#F8F8F8" />
<rect x="7" y="9" width="1" height="1" fill="#F8F8F5" />
<rect x="8" y="9" width="1" height="1" fill="#FBFBE7" />
<rect x="9" y="9" width="2" height="2" fill="#FFFFCC" />
<rect x="11" y="9" width="1" height="1" fill="#FFFFC8" />
<rect x="12" y="9" width="1" height="1" fill="#FFFFB4" />
<rect x="13" y="9" width="1" height="1" fill="#FDFC96" />
<rect x="14" y="9" width="1" height="1" fill="#F4EF89" />
<rect x="15" y="9" width="1" height="1" fill="#BB9937" />
<rect x="16" y="9" width="1" height="1" fill="#C7B068" />
<rect x="17" y="9" width="1" height="1" fill="#C0C09E" />
<rect x="18" y="9" width="1" height="1" fill="#424242" />
<rect x="19" y="9" width="1" height="1" fill="#0E0E0E" />
<rect x="20" y="9" width="1" height="2" fill="#000000" />
<rect x="21" y="9" width="1" height="1" fill="#030303" />
<rect x="22" y="9" width="3" height="1" fill="#090909" />
<rect x="25" y="9" width="1" height="1" fill="#4E4E4E" />
<rect x="26" y="9" width="1" height="1" fill="#AFAFAF" />
<rect x="27" y="9" width="1" height="1" fill="#BFBFBF" />
<rect x="0" y="10" width="1" height="1" fill="#B8B8B8" />
<rect x="1" y="10" width="1" height="1" fill="#919191" />
<rect x="2" y="10" width="1" height="1" fill="#C5C5C5" />
<rect x="3" y="10" width="1" height="1" fill="#EAEAEA" />
<rect x="7" y="10" width="1" height="1" fill="#FBFBE3" />
<rect x="8" y="10" width="1" height="1" fill="#FEFECF" />
<rect x="11" y="10" width="1" height="1" fill="#FFFFAF" />
<rect x="12" y="10" width="1" height="1" fill="#FFFF9C" />
<rect x="13" y="10" width="1" height="1" fill="#EFE781" />
<rect x="14" y="10" width="1" height="1" fill="#A97F19" />
<rect x="15" y="10" width="1" height="1" fill="#DDCC87" />
<rect x="16" y="10" width="1" height="1" fill="#ACA989" />
<rect x="17" y="10" width="1" height="1" fill="#4A4A46" />
<rect x="18" y="10" width="1" height="1" fill="#080808" />
<rect x="19" y="10" width="1" height="1" fill="#020202" />
<rect x="21" y="10" width="1" height="1" fill="#171717" />
<rect x="22" y="10" width="3" height="1" fill="#444444" />
<rect x="25" y="10" width="1" height="1" fill="#303030" />
<rect x="26" y="10" width="1" height="1" fill="#383838" />
<rect x="27" y="10" width="1" height="1" fill="#BBBBBB" />
<rect x="0" y="11" width="1" height="6" fill="#B7B7B7" />
<rect x="1" y="11" width="1" height="6" fill="#8B8B8B" />
<rect x="2" y="11" width="1" height="1" fill="#D1D1D1" />
<rect x="3" y="11" width="1" height="1" fill="#F5F5F5" />
<rect x="4" y="11" width="1" height="1" fill="#F9F9F1" />
<rect x="5" y="11" width="2" height="1" fill="#FDFDDB" />
<rect x="7" y="11" width="1" height="1" fill="#FEFED3" />
<rect x="8" y="11" width="1" height="1" fill="#FFFFCC" />
<rect x="9" y="11" width="1" height="1" fill="#FFFFC9" />
<rect x="10" y="11" width="1" height="1" fill="#FFFFAF" />
<rect x="11" y="11" width="1" height="1" fill="#FFFF9F" />
<rect x="12" y="11" width="1" height="1" fill="#E4D771" />
<rect x="13" y="11" width="1" height="1" fill="#C2A343" />
<rect x="14" y="11" width="1" height="1" fill="#DAC881" />
<rect x="15" y="11" width="1" height="1" fill="#A19C7C" />
<rect x="16" y="11" width="1" height="1" fill="#54544B" />
<rect x="17" y="11" width="1" height="1" fill="#141414" />
<rect x="18" y="11" width="1" height="1" fill="#020202" />
<rect x="19" y="11" width="1" height="1" fill="#282828" />
<rect x="20" y="11" width="1" height="1" fill="#4F3C29" />
<rect x="21" y="11" width="1" height="1" fill="#6E4C2B" />
<rect x="22" y="11" width="3" height="1" fill="#7F5D3C" />
<rect x="25" y="11" width="1" height="1" fill="#483522" />
<rect x="26" y="11" width="1" height="6" fill="#262626" />
<rect x="27" y="11" width="1" height="6" fill="#BABABA" />
<rect x="2" y="12" width="1" height="1" fill="#B3B3B3" />
<rect x="3" y="12" width="1" height="1" fill="#C7C7C7" />
<rect x="4" y="12" width="1" height="1" fill="#C8C8C2" />
<rect x="5" y="12" width="1" height="1" fill="#CCCCAE" />
<rect x="6" y="12" width="1" height="1" fill="#F4F4C5" />
<rect x="7" y="12" width="1" height="1" fill="#FFFFCC" />
<rect x="8" y="12" width="1" height="1" fill="#FFFFC5" />
<rect x="9" y="12" width="1" height="1" fill="#FFFFB4" />
<rect x="10" y="12" width="1" height="1" fill="#FFFF9D" />
<rect x="11" y="12" width="1" height="1" fill="#EEEEA4" />
<rect x="12" y="12" width="1" height="1" fill="#CFBA65" />
<rect x="13" y="12" width="1" height="1" fill="#AF851A" />
<rect x="14" y="12" width="1" height="1" fill="#B3B08E" />
<rect x="15" y="12" width="1" height="1" fill="#52524A" />
<rect x="16" y="12" width="1" height="1" fill="#272727" />
<rect x="17" y="12" width="1" height="1" fill="#29241E" />
<rect x="18" y="12" width="1" height="1" fill="#432D17" />
<rect x="19" y="12" width="1" height="1" fill="#654F39" />
<rect x="20" y="12" width="1" height="1" fill="#866039" />
<rect x="21" y="12" width="1" height="1" fill="#83572C" />
<rect x="22" y="12" width="3" height="1" fill="#583B1D" />
<rect x="25" y="12" width="1" height="1" fill="#322111" />
<rect x="2" y="13" width="1" height="1" fill="#969696" />
<rect x="3" y="13" width="1" height="1" fill="#9D9D99" />
<rect x="4" y="13" width="1" height="1" fill="#9E9E94" />
<rect x="5" y="13" width="1" height="1" fill="#9F9F94" />
<rect x="6" y="13" width="1" height="1" fill="#E9E9B8" />
<rect x="7" y="13" width="1" height="1" fill="#FFFFC2" />
<rect x="8" y="13" width="1" height="1" fill="#FFFFB5" />
<rect x="9" y="13" width="1" height="1" fill="#FEFE9A" />
<rect x="10" y="13" width="1" height="1" fill="#F4F4A0" />
<rect x="11" y="13" width="1" height="1" fill="#DADAB0" />
<rect x="12" y="13" width="1" height="1" fill="#CBBB7D" />
<rect x="13" y="13" width="1" height="1" fill="#B8952A" />
<rect x="14" y="13" width="1" height="1" fill="#6C603C" />
<rect x="15" y="13" width="1" height="1" fill="#332919" />
<rect x="16" y="13" width="1" height="1" fill="#3D3228" />
<rect x="17" y="13" width="1" height="1" fill="#6C5742" />
<rect x="18" y="13" width="3" height="3" fill="#996633" />
<rect x="21" y="13" width="1" height="1" fill="#6F4A25" />
<rect x="22" y="13" width="2" height="1" fill="#1E140A" />
<rect x="24" y="13" width="1" height="1" fill="#15110E" />
<rect x="25" y="13" width="1" height="1" fill="#090909" />
<rect x="2" y="14" width="1" height="1" fill="#D2D2D2" />
<rect x="3" y="14" width="1" height="1" fill="#F8F8E1" />
<rect x="4" y="14" width="1" height="1" fill="#FBFBCA" />
<rect x="5" y="14" width="1" height="1" fill="#FBFBC9" />
<rect x="6" y="14" width="1" height="1" fill="#FEFEA5" />
<rect x="7" y="14" width="1" height="1" fill="#FFFF9B" />
<rect x="8" y="14" width="1" height="1" fill="#FFFF9A" />
<rect x="9" y="14" width="1" height="1" fill="#FAFA9C" />
<rect x="10" y="14" width="1" height="1" fill="#CACABA" />
<rect x="11" y="14" width="1" height="1" fill="#E7E7A8" />
<rect x="12" y="14" width="1" height="1" fill="#E5E4A7" />
<rect x="13" y="14" width="1" height="1" fill="#C2B89A" />
<rect x="14" y="14" width="1" height="1" fill="#C8990C" />
<rect x="15" y="14" width="1" height="1" fill="#A37124" />
<rect x="16" y="14" width="1" height="1" fill="#956433" />
<rect x="17" y="14" width="1" height="1" fill="#976534" />
<rect x="21" y="14" width="1" height="1" fill="#976532" />
<rect x="22" y="14" width="2" height="1" fill="#946331" />
<rect x="24" y="14" width="1" height="1" fill="#645342" />
<rect x="25" y="14" width="1" height="1" fill="#2B2B2B" />
<rect x="2" y="15" width="1" height="1" fill="#D5D5D5" />
<rect x="3" y="15" width="1" height="1" fill="#FBFBD2" />
<rect x="4" y="15" width="2" height="1" fill="#FFFFA6" />
<rect x="6" y="15" width="1" height="1" fill="#FFFF9C" />
<rect x="7" y="15" width="1" height="1" fill="#FFFF99" />
<rect x="8" y="15" width="1" height="1" fill="#F0F0A2" />
<rect x="9" y="15" width="1" height="1" fill="#D3D3B4" />
<rect x="10" y="15" width="1" height="1" fill="#EBEBA6" />
<rect x="11" y="15" width="1" height="1" fill="#DBDBAF" />
<rect x="12" y="15" width="1" height="1" fill="#DDDDAE" />
<rect x="13" y="15" width="1" height="1" fill="#E7E59F" />
<rect x="14" y="15" width="1" height="1" fill="#C5B990" />
<rect x="15" y="15" width="1" height="1" fill="#DBB332" />
<rect x="16" y="15" width="1" height="1" fill="#C08D20" />
<rect x="17" y="15" width="1" height="1" fill="#996633" />
<rect x="21" y="15" width="3" height="2" fill="#996633" />
<rect x="24" y="15" width="1" height="2" fill="#675644" />
<rect x="25" y="15" width="1" height="2" fill="#2C2C2C" />
<rect x="2" y="16" width="1" height="1" fill="#B3A17D" />
<rect x="3" y="16" width="1" height="1" fill="#E1D388" />
<rect x="4" y="16" width="3" height="1" fill="#FFFF99" />
<rect x="7" y="16" width="1" height="1" fill="#EDEDA4" />
<rect x="8" y="16" width="1" height="1" fill="#CFC694" />
<rect x="9" y="16" width="1" height="1" fill="#B19965" />
<rect x="10" y="16" width="1" height="1" fill="#D8D4A2" />
<rect x="11" y="16" width="2" height="1" fill="#E0E0AC" />
<rect x="13" y="16" width="1" height="1" fill="#DFDA9F" />
<rect x="14" y="16" width="1" height="1" fill="#E0C762" />
<rect x="15" y="16" width="1" height="1" fill="#DFC661" />
<rect x="16" y="16" width="1" height="1" fill="#C9A43E" />
<rect x="17" y="16" width="1" height="1" fill="#B38019" />
<rect x="18" y="16" width="1" height="1" fill="#B07E19" />
<rect x="19" y="16" width="1" height="1" fill="#604119" />
<rect x="20" y="16" width="1" height="1" fill="#785028" />
<rect x="0" y="17" width="1" height="1" fill="#BABABA" />
<rect x="1" y="17" width="1" height="1" fill="#9A9A9A" />
<rect x="2" y="17" width="1" height="1" fill="#947B48" />
<rect x="3" y="17" width="1" height="1" fill="#B89E47" />
<rect x="4" y="17" width="1" height="1" fill="#E9DE78" />
<rect x="5" y="17" width="1" height="1" fill="#FFFF99" />
<rect x="6" y="17" width="1" height="1" fill="#F1F1A2" />
<rect x="7" y="17" width="1" height="1" fill="#CFC796" />
<rect x="8" y="17" width="1" height="1" fill="#B09A6F" />
<rect x="9" y="17" width="1" height="1" fill="#A88741" />
<rect x="10" y="17" width="1" height="1" fill="#CBC6A4" />
<rect x="11" y="17" width="1" height="1" fill="#E3E3AA" />
<rect x="12" y="17" width="1" height="1" fill="#E2DC9A" />
<rect x="13" y="17" width="1" height="1" fill="#D7C47B" />
<rect x="14" y="17" width="1" height="1" fill="#ECC83B" />
<rect x="15" y="17" width="1" height="1" fill="#CFBB72" />
<rect x="16" y="17" width="1" height="1" fill="#C6AD61" />
<rect x="17" y="17" width="1" height="1" fill="#C9A128" />
<rect x="18" y="17" width="1" height="1" fill="#C79600" />
<rect x="19" y="17" width="1" height="1" fill="#574100" />
<rect x="20" y="17" width="1" height="1" fill="#583C15" />
<rect x="21" y="17" width="1" height="1" fill="#7D532A" />
<rect x="22" y="17" width="1" height="1" fill="#946331" />
<rect x="23" y="17" width="1" height="1" fill="#734D26" />
<rect x="24" y="17" width="1" height="1" fill="#4A3E31" />
<rect x="25" y="17" width="1" height="1" fill="#373737" />
<rect x="26" y="17" width="1" height="1" fill="#515151" />
<rect x="27" y="17" width="1" height="1" fill="#BCBCBC" />
<rect x="2" y="18" width="1" height="2" fill="#989898" />
<rect x="3" y="18" width="1" height="1" fill="#907848" />
<rect x="4" y="18" width="1" height="1" fill="#B28A22" />
<rect x="5" y="18" width="1" height="1" fill="#F9F691" />
<rect x="6" y="18" width="1" height="1" fill="#CBC8AD" />
<rect x="7" y="18" width="1" height="1" fill="#AB8F58" />
<rect x="8" y="18" width="1" height="1" fill="#A88641" />
<rect x="9" y="18" width="1" height="1" fill="#C8C6B3" />
<rect x="10" y="18" width="1" height="1" fill="#F4F39F" />
<rect x="11" y="18" width="1" height="1" fill="#D8D6AC" />
<rect x="12" y="18" width="1" height="1" fill="#D6C16C" />
<rect x="13" y="18" width="1" height="1" fill="#E9C020" />
<rect x="14" y="18" width="1" height="1" fill="#C3BEAC" />
<rect x="15" y="18" width="1" height="1" fill="#C8A53B" />
<rect x="16" y="18" width="1" height="1" fill="#C6AC5E" />
<rect x="17" y="18" width="1" height="1" fill="#C4B487" />
<rect x="18" y="18" width="2" height="2" fill="#CC9900" />
<rect x="20" y="18" width="1" height="2" fill="#574100" />
<rect x="21" y="18" width="1" height="1" fill="#322111" />
<rect x="22" y="18" width="1" height="1" fill="#81562B" />
<rect x="23" y="18" width="1" height="1" fill="#181005" />
<rect x="24" y="18" width="1" height="1" fill="#030200" />
<rect x="25" y="18" width="1" height="2" fill="#525252" />
<rect x="3" y="19" width="1" height="1" fill="#A28B48" />
<rect x="4" y="19" width="1" height="1" fill="#BD8C06" />
<rect x="5" y="19" width="1" height="1" fill="#AB811B" />
<rect x="6" y="19" width="1" height="1" fill="#A27820" />
<rect x="7" y="19" width="1" height="1" fill="#AE9666" />
<rect x="8" y="19" width="1" height="1" fill="#CCB876" />
<rect x="9" y="19" width="1" height="1" fill="#F0CA2F" />
<rect x="10" y="19" width="1" height="1" fill="#D1CBA4" />
<rect x="11" y="19" width="1" height="1" fill="#E5CA59" />
<rect x="12" y="19" width="1" height="1" fill="#A48714" />
<rect x="13" y="19" width="1" height="1" fill="#483A06" />
<rect x="14" y="19" width="1" height="1" fill="#C19920" />
<rect x="15" y="19" width="1" height="1" fill="#C4B27B" />
<rect x="16" y="19" width="1" height="1" fill="#C6AD61" />
<rect x="17" y="19" width="1" height="1" fill="#CA9E19" />
<rect x="21" y="19" width="1" height="1" fill="#090603" />
<rect x="22" y="19" width="1" height="1" fill="#261908" />
<rect x="23" y="19" width="1" height="1" fill="#734D01" />
<rect x="24" y="19" width="1" height="1" fill="#2B1D00" />
<rect x="2" y="20" width="1" height="1" fill="#B0B0B0" />
<rect x="3" y="20" width="1" height="1" fill="#80775A" />
<rect x="4" y="20" width="1" height="1" fill="#6A4E00" />
<rect x="5" y="20" width="2" height="1" fill="#B78400" />
<rect x="7" y="20" width="1" height="1" fill="#AF882A" />
<rect x="8" y="20" width="1" height="1" fill="#B18C35" />
<rect x="9" y="20" width="1" height="1" fill="#C29107" />
<rect x="10" y="20" width="1" height="1" fill="#C6A543" />
<rect x="11" y="20" width="1" height="1" fill="#D7AC1C" />
<rect x="12" y="20" width="1" height="1" fill="#866800" />
<rect x="13" y="20" width="1" height="1" fill="#241B00" />
<rect x="14" y="20" width="1" height="1" fill="#C19100" />
<rect x="15" y="20" width="1" height="1" fill="#C9A438" />
<rect x="16" y="20" width="1" height="1" fill="#CAA128" />
<rect x="17" y="20" width="1" height="1" fill="#AD8100" />
<rect x="18" y="20" width="2" height="1" fill="#523E00" />
<rect x="20" y="20" width="1" height="1" fill="#573D00" />
<rect x="21" y="20" width="1" height="1" fill="#5B3D00" />
<rect x="22" y="20" width="1" height="1" fill="#583B00" />
<rect x="23" y="20" width="1" height="1" fill="#412B00" />
<rect x="24" y="20" width="1" height="1" fill="#60594B" />
<rect x="25" y="20" width="1" height="1" fill="#949494" />
<rect x="3" y="21" width="1" height="1" fill="#888888" />
<rect x="4" y="21" width="1" height="1" fill="#544D36" />
<rect x="5" y="21" width="2" height="1" fill="#816100" />
<rect x="7" y="21" width="1" height="1" fill="#986E00" />
<rect x="8" y="21" width="1" height="1" fill="#AC7900" />
<rect x="9" y="21" width="1" height="1" fill="#A87700" />
<rect x="10" y="21" width="1" height="1" fill="#876400" />
<rect x="11" y="21" width="1" height="1" fill="#816100" />
<rect x="12" y="21" width="1" height="1" fill="#4D3A00" />
<rect x="13" y="21" width="1" height="1" fill="#171100" />
<rect x="14" y="21" width="1" height="1" fill="#7A5C00" />
<rect x="15" y="21" width="2" height="1" fill="#816100" />
<rect x="17" y="21" width="1" height="1" fill="#6E5200" />
<rect x="18" y="21" width="2" height="1" fill="#382500" />
<rect x="20" y="21" width="1" height="1" fill="#503500" />
<rect x="21" y="21" width="1" height="1" fill="#614100" />
<rect x="22" y="21" width="1" height="1" fill="#5E4108" />
<rect x="23" y="21" width="1" height="1" fill="#49463F" />
<rect x="24" y="21" width="1" height="1" fill="#969696" />
<rect x="4" y="22" width="1" height="1" fill="#999999" />
<rect x="5" y="22" width="2" height="1" fill="#1A1A1A" />
<rect x="7" y="22" width="1" height="1" fill="#6C540C" />
<rect x="8" y="22" width="1" height="1" fill="#B08400" />
<rect x="9" y="22" width="1" height="1" fill="#A37A00" />
<rect x="10" y="22" width="1" height="1" fill="#302400" />
<rect x="11" y="22" width="1" height="1" fill="#16130C" />
<rect x="12" y="22" width="1" height="1" fill="#121212" />
<rect x="13" y="22" width="1" height="1" fill="#13120F" />
<rect x="14" y="22" width="1" height="1" fill="#150E01" />
<rect x="15" y="22" width="2" height="1" fill="#150E00" />
<rect x="17" y="22" width="1" height="1" fill="#322100" />
<rect x="18" y="22" width="2" height="1" fill="#845800" />
<rect x="20" y="22" width="1" height="1" fill="#47350F" />
<rect x="21" y="22" width="1" height="1" fill="#1A1A1A" />
<rect x="22" y="22" width="1" height="1" fill="#2D2D2D" />
<rect x="23" y="22" width="1" height="1" fill="#ADADAD" />
<rect x="4" y="23" width="1" height="1" fill="#BCBCBC" />
<rect x="5" y="23" width="2" height="1" fill="#AFAFAF" />
<rect x="7" y="23" width="1" height="1" fill="#59574F" />
<rect x="8" y="23" width="1" height="1" fill="#120E00" />
<rect x="9" y="23" width="1" height="1" fill="#211900" />
<rect x="10" y="23" width="1" height="1" fill="#A37A00" />
<rect x="11" y="23" width="1" height="1" fill="#91804D" />
<rect x="12" y="23" width="1" height="1" fill="#7A7A7A" />
<rect x="13" y="23" width="1" height="1" fill="#7D7565" />
<rect x="14" y="23" width="1" height="1" fill="#8A5E07" />
<rect x="15" y="23" width="2" height="1" fill="#8B5D00" />
<rect x="17" y="23" width="1" height="1" fill="#6B4700" />
<rect x="18" y="23" width="2" height="1" fill="#0E0900" />
<rect x="20" y="23" width="1" height="1" fill="#6A6864" />
<rect x="21" y="23" width="1" height="1" fill="#AFAFAF" />
<rect x="22" y="23" width="1" height="1" fill="#B1B1B1" />
<rect x="23" y="23" width="1" height="1" fill="#BEBEBE" />
<rect x="7" y="24" width="1" height="1" fill="#9E9E9E" />
<rect x="8" y="24" width="1" height="1" fill="#828282" />
<rect x="9" y="24" width="1" height="1" fill="#7D7B77" />
<rect x="10" y="24" width="1" height="1" fill="#4A3C12" />
<rect x="11" y="24" width="1" height="1" fill="#332D1B" />
<rect x="12" y="24" width="1" height="1" fill="#2B2B2B" />
<rect x="13" y="24" width="1" height="1" fill="#2C2923" />
<rect x="14" y="24" width="1" height="1" fill="#312102" />
<rect x="15" y="24" width="2" height="1" fill="#312100" />
<rect x="17" y="24" width="1" height="1" fill="#463A22" />
<rect x="18" y="24" width="2" height="1" fill="#828282" />
<rect x="20" y="24" width="1" height="1" fill="#A6A6A6" />
<rect x="9" y="25" width="1" height="1" fill="#B7B7B7" />
<rect x="10" y="25" width="1" height="1" fill="#656565" />
<rect x="11" y="25" width="6" height="1" fill="#575757" />
<rect x="17" y="25" width="1" height="1" fill="#727272" />
</svg>
