<?xml version="1.0" encoding="UTF-8" ?>
<svg version="1.1" width="26" height="27" xmlns="http://www.w3.org/2000/svg">
<rect x="12" y="0" width="1" height="1" fill="#BCB6AA" />
<rect x="13" y="0" width="1" height="1" fill="#BCB7AC" />
<rect x="17" y="0" width="1" height="1" fill="#BDAFAF" />
<rect x="18" y="0" width="1" height="1" fill="#B99E9E" />
<rect x="19" y="0" width="1" height="1" fill="#B89E9E" />
<rect x="20" y="0" width="1" height="1" fill="#A39E9E" />
<rect x="21" y="0" width="1" height="1" fill="#B2B2B2" />
<rect x="12" y="1" width="1" height="1" fill="#A8894B" />
<rect x="13" y="1" width="1" height="1" fill="#AA8E56" />
<rect x="17" y="1" width="1" height="1" fill="#AE6565" />
<rect x="18" y="1" width="1" height="1" fill="#9B0A0A" />
<rect x="19" y="1" width="1" height="1" fill="#950A0A" />
<rect x="20" y="1" width="1" height="1" fill="#260A0A" />
<rect x="21" y="1" width="1" height="1" fill="#757575" />
<rect x="10" y="2" width="1" height="1" fill="#BDB9B2" />
<rect x="11" y="2" width="1" height="1" fill="#A78747" />
<rect x="12" y="2" width="1" height="1" fill="#CCB65A" />
<rect x="13" y="2" width="1" height="1" fill="#9B9357" />
<rect x="14" y="2" width="1" height="1" fill="#505050" />
<rect x="15" y="2" width="1" height="1" fill="#BABABA" />
<rect x="17" y="2" width="1" height="2" fill="#AC6060" />
<rect x="18" y="2" width="1" height="1" fill="#AD0014" />
<rect x="19" y="2" width="1" height="1" fill="#D90046" />
<rect x="20" y="2" width="1" height="1" fill="#2A000E" />
<rect x="21" y="2" width="1" height="7" fill="#707070" />
<rect x="9" y="3" width="1" height="1" fill="#BAB1A1" />
<rect x="10" y="3" width="1" height="1" fill="#B09760" />
<rect x="11" y="3" width="1" height="1" fill="#C7AD4E" />
<rect x="12" y="3" width="1" height="1" fill="#DCC34D" />
<rect x="13" y="3" width="1" height="1" fill="#BAA12E" />
<rect x="14" y="3" width="1" height="1" fill="#786312" />
<rect x="15" y="3" width="1" height="1" fill="#63625E" />
<rect x="16" y="3" width="1" height="1" fill="#A7A7A7" />
<rect x="18" y="3" width="1" height="2" fill="#B4001B" />
<rect x="19" y="3" width="1" height="4" fill="#F40062" />
<rect x="20" y="3" width="1" height="4" fill="#300013" />
<rect x="8" y="4" width="1" height="1" fill="#BAB3A4" />
<rect x="9" y="4" width="1" height="1" fill="#B5A06C" />
<rect x="10" y="4" width="1" height="1" fill="#BA962F" />
<rect x="11" y="4" width="1" height="1" fill="#EADA68" />
<rect x="12" y="4" width="1" height="1" fill="#B89A28" />
<rect x="13" y="4" width="1" height="1" fill="#C29C10" />
<rect x="14" y="4" width="1" height="1" fill="#DCBA20" />
<rect x="15" y="4" width="1" height="1" fill="#4A3C02" />
<rect x="16" y="4" width="1" height="1" fill="#7A7668" />
<rect x="17" y="4" width="1" height="1" fill="#944747" />
<rect x="7" y="5" width="1" height="1" fill="#BFBEBB" />
<rect x="8" y="5" width="1" height="1" fill="#AB8F55" />
<rect x="9" y="5" width="1" height="1" fill="#BC9B34" />
<rect x="10" y="5" width="1" height="1" fill="#F8F185" />
<rect x="11" y="5" width="1" height="1" fill="#CDA113" />
<rect x="12" y="5" width="1" height="1" fill="#4A3904" />
<rect x="13" y="5" width="1" height="1" fill="#6A6A41" />
<rect x="14" y="5" width="1" height="1" fill="#F9EF79" />
<rect x="15" y="5" width="1" height="1" fill="#FFCF0B" />
<rect x="16" y="5" width="1" height="1" fill="#4B3C01" />
<rect x="17" y="5" width="1" height="1" fill="#4E0300" />
<rect x="18" y="5" width="1" height="1" fill="#B1001B" />
<rect x="6" y="6" width="1" height="1" fill="#BFBFBD" />
<rect x="7" y="6" width="1" height="1" fill="#A78747" />
<rect x="8" y="6" width="1" height="1" fill="#CAB255" />
<rect x="9" y="6" width="1" height="1" fill="#E4D05C" />
<rect x="10" y="6" width="1" height="1" fill="#C59F1B" />
<rect x="11" y="6" width="1" height="1" fill="#3E3004" />
<rect x="12" y="6" width="1" height="1" fill="#787469" />
<rect x="13" y="6" width="1" height="1" fill="#75756C" />
<rect x="14" y="6" width="1" height="1" fill="#595730" />
<rect x="15" y="6" width="1" height="1" fill="#F6ED77" />
<rect x="16" y="6" width="1" height="1" fill="#DAB921" />
<rect x="17" y="6" width="1" height="1" fill="#755200" />
<rect x="18" y="6" width="1" height="1" fill="#5B001B" />
<rect x="5" y="7" width="1" height="1" fill="#BBB3A5" />
<rect x="6" y="7" width="1" height="1" fill="#AB8E53" />
<rect x="7" y="7" width="1" height="1" fill="#CAB356" />
<rect x="8" y="7" width="1" height="1" fill="#DBC14B" />
<rect x="9" y="7" width="1" height="1" fill="#B4992C" />
<rect x="10" y="7" width="1" height="1" fill="#5B470C" />
<rect x="11" y="7" width="1" height="1" fill="#716E66" />
<rect x="12" y="7" width="1" height="1" fill="#BDBDBD" />
<rect x="13" y="7" width="1" height="1" fill="#B6B6B6" />
<rect x="14" y="7" width="1" height="1" fill="#73736B" />
<rect x="15" y="7" width="1" height="1" fill="#6E6E44" />
<rect x="16" y="7" width="1" height="1" fill="#D8C851" />
<rect x="17" y="7" width="1" height="1" fill="#C8AF2C" />
<rect x="18" y="7" width="1" height="1" fill="#88550C" />
<rect x="19" y="7" width="1" height="1" fill="#69002A" />
<rect x="20" y="7" width="1" height="1" fill="#150008" />
<rect x="4" y="8" width="1" height="1" fill="#BAB1A1" />
<rect x="5" y="8" width="1" height="1" fill="#B59F6C" />
<rect x="6" y="8" width="1" height="1" fill="#BD9C36" />
<rect x="7" y="8" width="1" height="1" fill="#E3CE5A" />
<rect x="8" y="8" width="1" height="1" fill="#B4992C" />
<rect x="9" y="8" width="1" height="1" fill="#715A17" />
<rect x="10" y="8" width="1" height="1" fill="#555555" />
<rect x="11" y="8" width="1" height="1" fill="#C8C8C8" />
<rect x="12" y="8" width="1" height="1" fill="#EEEEEE" />
<rect x="13" y="8" width="1" height="1" fill="#ECECEC" />
<rect x="14" y="8" width="1" height="1" fill="#BFBFBF" />
<rect x="15" y="8" width="1" height="1" fill="#4D4D4D" />
<rect x="16" y="8" width="1" height="1" fill="#8D8D5C" />
<rect x="17" y="8" width="1" height="1" fill="#D3C24C" />
<rect x="18" y="8" width="1" height="1" fill="#D2B526" />
<rect x="19" y="8" width="1" height="1" fill="#544300" />
<rect x="20" y="8" width="1" height="1" fill="#100D00" />
<rect x="3" y="9" width="1" height="1" fill="#BDB9B1" />
<rect x="4" y="9" width="1" height="1" fill="#B19861" />
<rect x="5" y="9" width="1" height="1" fill="#B9962E" />
<rect x="6" y="9" width="1" height="1" fill="#F8F185" />
<rect x="7" y="9" width="1" height="1" fill="#C39E1D" />
<rect x="8" y="9" width="1" height="1" fill="#5D490D" />
<rect x="9" y="9" width="1" height="1" fill="#555555" />
<rect x="10" y="9" width="1" height="1" fill="#D5D5D5" />
<rect x="11" y="9" width="1" height="1" fill="#F3F3F3" />
<rect x="12" y="9" width="2" height="2" fill="#F8F8F8" />
<rect x="14" y="9" width="1" height="1" fill="#F1F1EF" />
<rect x="15" y="9" width="1" height="1" fill="#D3D3C8" />
<rect x="16" y="9" width="1" height="1" fill="#494946" />
<rect x="17" y="9" width="1" height="1" fill="#7D7D4F" />
<rect x="18" y="9" width="1" height="1" fill="#EADE68" />
<rect x="19" y="9" width="1" height="1" fill="#F5CA11" />
<rect x="20" y="9" width="1" height="1" fill="#473A03" />
<rect x="21" y="9" width="1" height="1" fill="#706D64" />
<rect x="22" y="9" width="1" height="1" fill="#B2B2B2" />
<rect x="3" y="10" width="1" height="1" fill="#A88848" />
<rect x="4" y="10" width="1" height="1" fill="#C6AC4C" />
<rect x="5" y="10" width="1" height="1" fill="#EBDC6B" />
<rect x="6" y="10" width="1" height="1" fill="#CEA211" />
<rect x="7" y="10" width="1" height="1" fill="#3E3004" />
<rect x="8" y="10" width="1" height="1" fill="#6F6D65" />
<rect x="9" y="10" width="1" height="1" fill="#CACACA" />
<rect x="10" y="10" width="1" height="1" fill="#F4F4F4" />
<rect x="11" y="10" width="1" height="1" fill="#F7F7F7" />
<rect x="14" y="10" width="1" height="1" fill="#F8F8E7" />
<rect x="15" y="10" width="1" height="1" fill="#F9F9A3" />
<rect x="16" y="10" width="1" height="1" fill="#C7C7AF" />
<rect x="17" y="10" width="1" height="1" fill="#696963" />
<rect x="18" y="10" width="1" height="1" fill="#5A5831" />
<rect x="19" y="10" width="1" height="1" fill="#FEF682" />
<rect x="20" y="10" width="1" height="1" fill="#E8C219" />
<rect x="21" y="10" width="1" height="1" fill="#6A580D" />
<rect x="22" y="10" width="1" height="1" fill="#525252" />
<rect x="1" y="11" width="1" height="1" fill="#BCB6AB" />
<rect x="2" y="11" width="1" height="1" fill="#A8894A" />
<rect x="3" y="11" width="1" height="1" fill="#CCB65A" />
<rect x="4" y="11" width="1" height="1" fill="#DDC44E" />
<rect x="5" y="11" width="1" height="1" fill="#B89B28" />
<rect x="6" y="11" width="1" height="1" fill="#473603" />
<rect x="7" y="11" width="1" height="1" fill="#78756A" />
<rect x="8" y="11" width="1" height="1" fill="#BDBDBD" />
<rect x="9" y="11" width="1" height="1" fill="#EEEEEE" />
<rect x="10" y="11" width="3" height="1" fill="#F8F8F8" />
<rect x="13" y="11" width="1" height="1" fill="#FAFADE" />
<rect x="14" y="11" width="1" height="1" fill="#FCFCBF" />
<rect x="15" y="11" width="1" height="1" fill="#FAFAD6" />
<rect x="16" y="11" width="1" height="1" fill="#F1F1B7" />
<rect x="17" y="11" width="1" height="1" fill="#BABA98" />
<rect x="18" y="11" width="1" height="1" fill="#797970" />
<rect x="19" y="11" width="1" height="1" fill="#5F5E37" />
<rect x="20" y="11" width="1" height="1" fill="#E0D15B" />
<rect x="21" y="11" width="1" height="1" fill="#CCB12A" />
<rect x="22" y="11" width="1" height="1" fill="#836E17" />
<rect x="23" y="11" width="1" height="1" fill="#525252" />
<rect x="24" y="11" width="1" height="1" fill="#B3B3B3" />
<rect x="0" y="12" width="1" height="1" fill="#BAB1A0" />
<rect x="1" y="12" width="1" height="1" fill="#B39C67" />
<rect x="2" y="12" width="1" height="1" fill="#C3A644" />
<rect x="3" y="12" width="1" height="1" fill="#DEC651" />
<rect x="4" y="12" width="1" height="1" fill="#B2992E" />
<rect x="5" y="12" width="1" height="1" fill="#6E5815" />
<rect x="6" y="12" width="1" height="1" fill="#5A5A5A" />
<rect x="7" y="12" width="1" height="1" fill="#C2C2C2" />
<rect x="8" y="12" width="1" height="1" fill="#EDEDED" />
<rect x="9" y="12" width="3" height="1" fill="#F8F8F8" />
<rect x="12" y="12" width="1" height="1" fill="#FAFADE" />
<rect x="13" y="12" width="1" height="1" fill="#FBFBCA" />
<rect x="14" y="12" width="1" height="1" fill="#FCFCC4" />
<rect x="15" y="12" width="1" height="1" fill="#FBFBCF" />
<rect x="16" y="12" width="1" height="1" fill="#FCFCC5" />
<rect x="17" y="12" width="1" height="1" fill="#EFEFBC" />
<rect x="18" y="12" width="1" height="1" fill="#BCBC9D" />
<rect x="19" y="12" width="1" height="1" fill="#595957" />
<rect x="20" y="12" width="1" height="1" fill="#878758" />
<rect x="21" y="12" width="1" height="1" fill="#D2C14B" />
<rect x="22" y="12" width="1" height="1" fill="#CBB02A" />
<rect x="23" y="12" width="1" height="1" fill="#6D5A0E" />
<rect x="24" y="12" width="1" height="1" fill="#6E6C63" />
<rect x="25" y="12" width="1" height="1" fill="#A5A5A5" />
<rect x="0" y="13" width="1" height="1" fill="#A59575" />
<rect x="1" y="13" width="1" height="1" fill="#886614" />
<rect x="2" y="13" width="1" height="1" fill="#C7C472" />
<rect x="3" y="13" width="1" height="1" fill="#AF9324" />
<rect x="4" y="13" width="1" height="1" fill="#695313" />
<rect x="5" y="13" width="1" height="1" fill="#535353" />
<rect x="6" y="13" width="1" height="1" fill="#D5D5D5" />
<rect x="7" y="13" width="1" height="1" fill="#F1F1F1" />
<rect x="8" y="13" width="2" height="2" fill="#F8F8F8" />
<rect x="10" y="13" width="1" height="1" fill="#F8F8F6" />
<rect x="11" y="13" width="1" height="1" fill="#F9F9E7" />
<rect x="12" y="13" width="1" height="1" fill="#FCFCC0" />
<rect x="13" y="13" width="1" height="1" fill="#FCFCC4" />
<rect x="14" y="13" width="1" height="1" fill="#FAFADA" />
<rect x="15" y="13" width="1" height="1" fill="#FDFDAE" />
<rect x="16" y="13" width="1" height="1" fill="#FBFBD6" />
<rect x="17" y="13" width="1" height="11" fill="#FBFBC8" />
<rect x="18" y="13" width="1" height="1" fill="#F3F3B2" />
<rect x="19" y="13" width="1" height="1" fill="#CFCFBB" />
<rect x="20" y="13" width="1" height="1" fill="#494945" />
<rect x="21" y="13" width="1" height="1" fill="#888859" />
<rect x="22" y="13" width="1" height="1" fill="#CCBE4F" />
<rect x="23" y="13" width="1" height="1" fill="#B38F00" />
<rect x="24" y="13" width="1" height="1" fill="#151100" />
<rect x="25" y="13" width="1" height="2" fill="#808080" />
<rect x="0" y="14" width="1" height="1" fill="#777675" />
<rect x="1" y="14" width="1" height="1" fill="#050401" />
<rect x="2" y="14" width="1" height="1" fill="#080804" />
<rect x="3" y="14" width="1" height="1" fill="#070601" />
<rect x="4" y="14" width="1" height="1" fill="#62615E" />
<rect x="5" y="14" width="1" height="1" fill="#D2D2D2" />
<rect x="6" y="14" width="1" height="1" fill="#F7F7F7" />
<rect x="7" y="14" width="1" height="3" fill="#F8F8F8" />
<rect x="10" y="14" width="1" height="1" fill="#F9F9EF" />
<rect x="11" y="14" width="1" height="1" fill="#FEFEA7" />
<rect x="12" y="14" width="1" height="1" fill="#FBFBD5" />
<rect x="13" y="14" width="1" height="1" fill="#FBFBD0" />
<rect x="14" y="14" width="1" height="1" fill="#FEFEAD" />
<rect x="15" y="14" width="1" height="1" fill="#F8F8F1" />
<rect x="16" y="14" width="1" height="1" fill="#FDFDB4" />
<rect x="18" y="14" width="1" height="1" fill="#FAFADD" />
<rect x="19" y="14" width="1" height="1" fill="#FBFB9C" />
<rect x="20" y="14" width="1" height="1" fill="#D0D0BE" />
<rect x="21" y="14" width="1" height="1" fill="#565655" />
<rect x="22" y="14" width="1" height="1" fill="#080703" />
<rect x="23" y="14" width="1" height="1" fill="#070600" />
<rect x="24" y="14" width="1" height="1" fill="#010100" />
<rect x="0" y="15" width="1" height="1" fill="#ADADAD" />
<rect x="1" y="15" width="1" height="1" fill="#878787" />
<rect x="2" y="15" width="1" height="1" fill="#666666" />
<rect x="3" y="15" width="1" height="1" fill="#888888" />
<rect x="4" y="15" width="1" height="1" fill="#C0C0C0" />
<rect x="5" y="15" width="1" height="1" fill="#EFEFEF" />
<rect x="6" y="15" width="1" height="2" fill="#F8F8F8" />
<rect x="8" y="15" width="1" height="1" fill="#F8F8F8" />
<rect x="9" y="15" width="1" height="1" fill="#FAFAE1" />
<rect x="10" y="15" width="1" height="1" fill="#FDFDB6" />
<rect x="11" y="15" width="1" height="1" fill="#FAFADA" />
<rect x="12" y="15" width="1" height="1" fill="#FCFCC2" />
<rect x="13" y="15" width="1" height="1" fill="#FCFCC5" />
<rect x="14" y="15" width="1" height="1" fill="#FAFAD7" />
<rect x="15" y="15" width="1" height="1" fill="#FDFDB3" />
<rect x="16" y="15" width="1" height="1" fill="#FBFBD3" />
<rect x="18" y="15" width="1" height="1" fill="#FCFCBE" />
<rect x="19" y="15" width="1" height="1" fill="#F9F9DD" />
<rect x="20" y="15" width="1" height="1" fill="#F3F3B1" />
<rect x="21" y="15" width="1" height="1" fill="#BDBD9E" />
<rect x="22" y="15" width="1" height="1" fill="#626262" />
<rect x="23" y="15" width="1" height="1" fill="#121212" />
<rect x="24" y="15" width="1" height="1" fill="#808080" />
<rect x="25" y="15" width="1" height="1" fill="#B0B0B0" />
<rect x="1" y="16" width="1" height="9" fill="#B6B6B6" />
<rect x="2" y="16" width="1" height="9" fill="#8A8A8A" />
<rect x="3" y="16" width="1" height="1" fill="#C7C7C7" />
<rect x="4" y="16" width="1" height="1" fill="#EDEDED" />
<rect x="5" y="16" width="1" height="2" fill="#F8F8F8" />
<rect x="8" y="16" width="1" height="1" fill="#FAFADD" />
<rect x="9" y="16" width="1" height="1" fill="#FCFCC8" />
<rect x="10" y="16" width="1" height="1" fill="#FBFBC9" />
<rect x="11" y="16" width="1" height="1" fill="#FCFCC8" />
<rect x="12" y="16" width="2" height="1" fill="#FBFBC9" />
<rect x="14" y="16" width="1" height="1" fill="#FCFCC8" />
<rect x="15" y="16" width="1" height="1" fill="#FBFBCA" />
<rect x="16" y="16" width="1" height="1" fill="#FCFCC8" />
<rect x="18" y="16" width="1" height="1" fill="#FBFBC9" />
<rect x="19" y="16" width="1" height="1" fill="#FCFCC7" />
<rect x="20" y="16" width="1" height="1" fill="#FBFBC9" />
<rect x="21" y="16" width="1" height="1" fill="#E0E0CB" />
<rect x="22" y="16" width="1" height="9" fill="#838383" />
<rect x="23" y="16" width="1" height="10" fill="#181818" />
<rect x="24" y="16" width="1" height="10" fill="#ACACAC" />
<rect x="3" y="17" width="1" height="7" fill="#D6D6D6" />
<rect x="4" y="17" width="1" height="3" fill="#F8F8F8" />
<rect x="6" y="17" width="1" height="1" fill="#F8F8F7" />
<rect x="7" y="17" width="1" height="1" fill="#FAFAE3" />
<rect x="8" y="17" width="1" height="1" fill="#FCFCC6" />
<rect x="9" y="17" width="1" height="1" fill="#F2EEB3" />
<rect x="10" y="17" width="1" height="1" fill="#DECFAB" />
<rect x="11" y="17" width="1" height="1" fill="#E2D377" />
<rect x="12" y="17" width="1" height="1" fill="#DFD19A" />
<rect x="13" y="17" width="1" height="1" fill="#DFD196" />
<rect x="14" y="17" width="1" height="1" fill="#D9CE7B" />
<rect x="15" y="17" width="1" height="1" fill="#B4B4AF" />
<rect x="16" y="17" width="1" height="1" fill="#E9E9B3" />
<rect x="18" y="17" width="1" height="1" fill="#FBFBD2" />
<rect x="19" y="17" width="1" height="1" fill="#FDFDB5" />
<rect x="20" y="17" width="1" height="1" fill="#FBFBD5" />
<rect x="21" y="17" width="1" height="1" fill="#DFDFD3" />
<rect x="5" y="18" width="1" height="1" fill="#F8F8F7" />
<rect x="6" y="18" width="1" height="1" fill="#F9F9F1" />
<rect x="7" y="18" width="1" height="1" fill="#FDFDB0" />
<rect x="8" y="18" width="1" height="1" fill="#FBFBCD" />
<rect x="9" y="18" width="1" height="1" fill="#D9C8A2" />
<rect x="10" y="18" width="1" height="1" fill="#9A6701" />
<rect x="11" y="18" width="1" height="1" fill="#9E6D07" />
<rect x="12" y="18" width="1" height="1" fill="#9F6D03" />
<rect x="13" y="18" width="1" height="1" fill="#9F6C00" />
<rect x="14" y="18" width="1" height="1" fill="#815700" />
<rect x="15" y="18" width="1" height="1" fill="#070500" />
<rect x="16" y="18" width="1" height="1" fill="#B5B5B1" />
<rect x="18" y="18" width="1" height="1" fill="#FDFDB5" />
<rect x="19" y="18" width="1" height="1" fill="#F9F9EF" />
<rect x="20" y="18" width="1" height="1" fill="#FDFDAE" />
<rect x="21" y="18" width="1" height="1" fill="#E1E1B9" />
<rect x="5" y="19" width="1" height="1" fill="#F9F9E5" />
<rect x="6" y="19" width="1" height="1" fill="#FEFEAB" />
<rect x="7" y="19" width="1" height="1" fill="#FAFADA" />
<rect x="8" y="19" width="1" height="1" fill="#FCFCC5" />
<rect x="9" y="19" width="1" height="1" fill="#DCCB71" />
<rect x="10" y="19" width="1" height="1" fill="#A2730D" />
<rect x="11" y="19" width="1" height="1" fill="#E3D46E" />
<rect x="12" y="19" width="1" height="1" fill="#EDC92D" />
<rect x="13" y="19" width="1" height="1" fill="#EDBA00" />
<rect x="14" y="19" width="1" height="1" fill="#C19700" />
<rect x="15" y="19" width="1" height="1" fill="#0A0800" />
<rect x="16" y="19" width="1" height="1" fill="#B9B97C" />
<rect x="18" y="19" width="1" height="1" fill="#FAFAD7" />
<rect x="19" y="19" width="1" height="1" fill="#FEFEAC" />
<rect x="20" y="19" width="1" height="1" fill="#FAFADC" />
<rect x="21" y="19" width="1" height="1" fill="#DFDFD7" />
<rect x="4" y="20" width="1" height="1" fill="#FAFADD" />
<rect x="5" y="20" width="1" height="1" fill="#FCFCC4" />
<rect x="6" y="20" width="1" height="1" fill="#FBFBD1" />
<rect x="7" y="20" width="1" height="1" fill="#FCFCC3" />
<rect x="8" y="20" width="1" height="2" fill="#FBFBCA" />
<rect x="9" y="20" width="1" height="1" fill="#DAC98C" />
<rect x="10" y="20" width="1" height="1" fill="#A37206" />
<rect x="11" y="20" width="1" height="1" fill="#F2D136" />
<rect x="12" y="20" width="1" height="1" fill="#FFD316" />
<rect x="13" y="20" width="1" height="1" fill="#FFBF00" />
<rect x="14" y="20" width="1" height="1" fill="#CF8D00" />
<rect x="15" y="20" width="1" height="1" fill="#0B0700" />
<rect x="16" y="20" width="1" height="1" fill="#B7B799" />
<rect x="18" y="20" width="1" height="1" fill="#FCFCC4" />
<rect x="19" y="20" width="1" height="1" fill="#FBFBD1" />
<rect x="20" y="20" width="1" height="1" fill="#FCFCC3" />
<rect x="21" y="20" width="1" height="1" fill="#E0E0C7" />
<rect x="4" y="21" width="1" height="1" fill="#FAFADB" />
<rect x="5" y="21" width="1" height="1" fill="#FCFCC2" />
<rect x="6" y="21" width="1" height="1" fill="#FBFBD5" />
<rect x="7" y="21" width="1" height="1" fill="#FCFCC1" />
<rect x="9" y="21" width="1" height="1" fill="#DAC98E" />
<rect x="10" y="21" width="1" height="2" fill="#A37000" />
<rect x="11" y="21" width="1" height="1" fill="#F2BF00" />
<rect x="12" y="21" width="1" height="1" fill="#FFC000" />
<rect x="13" y="21" width="1" height="1" fill="#F7AC00" />
<rect x="14" y="21" width="1" height="1" fill="#C07C00" />
<rect x="15" y="21" width="1" height="1" fill="#0A0700" />
<rect x="16" y="21" width="1" height="1" fill="#B7B79C" />
<rect x="18" y="21" width="1" height="1" fill="#FCFCC3" />
<rect x="19" y="21" width="1" height="1" fill="#FBFBD4" />
<rect x="20" y="21" width="1" height="1" fill="#FCFCC1" />
<rect x="21" y="21" width="1" height="1" fill="#E0E0C5" />
<rect x="4" y="22" width="1" height="1" fill="#F8F8F2" />
<rect x="5" y="22" width="1" height="1" fill="#FAFADA" />
<rect x="6" y="22" width="1" height="1" fill="#FEFEA7" />
<rect x="7" y="22" width="1" height="1" fill="#FAFADC" />
<rect x="8" y="22" width="1" height="1" fill="#FCFCC4" />
<rect x="9" y="22" width="1" height="1" fill="#DCCC6F" />
<rect x="11" y="22" width="1" height="1" fill="#F2B900" />
<rect x="12" y="22" width="1" height="1" fill="#FBA900" />
<rect x="13" y="22" width="1" height="1" fill="#E39600" />
<rect x="14" y="22" width="1" height="1" fill="#A07700" />
<rect x="15" y="22" width="1" height="1" fill="#080600" />
<rect x="16" y="22" width="1" height="1" fill="#BABA79" />
<rect x="18" y="22" width="1" height="1" fill="#FAFAD8" />
<rect x="19" y="22" width="1" height="1" fill="#FEFEA9" />
<rect x="20" y="22" width="1" height="1" fill="#FAFADE" />
<rect x="21" y="22" width="1" height="1" fill="#DFDFD9" />
<rect x="4" y="23" width="1" height="1" fill="#FBFBCF" />
<rect x="5" y="23" width="1" height="1" fill="#FDFDB5" />
<rect x="6" y="23" width="1" height="1" fill="#F9F9EE" />
<rect x="7" y="23" width="1" height="1" fill="#FDFDB2" />
<rect x="8" y="23" width="1" height="1" fill="#FBFBCD" />
<rect x="9" y="23" width="1" height="1" fill="#D9C8A0" />
<rect x="10" y="23" width="1" height="1" fill="#A36C00" />
<rect x="11" y="23" width="1" height="1" fill="#F29700" />
<rect x="12" y="23" width="1" height="1" fill="#E19B00" />
<rect x="13" y="23" width="1" height="1" fill="#BB8600" />
<rect x="14" y="23" width="1" height="1" fill="#805700" />
<rect x="15" y="23" width="1" height="1" fill="#070500" />
<rect x="16" y="23" width="1" height="1" fill="#B6B6AF" />
<rect x="18" y="23" width="1" height="1" fill="#FDFDB7" />
<rect x="19" y="23" width="1" height="1" fill="#F9F9EC" />
<rect x="20" y="23" width="1" height="1" fill="#FDFDB0" />
<rect x="21" y="23" width="1" height="1" fill="#E1E1BA" />
<rect x="3" y="24" width="1" height="1" fill="#C1C1C1" />
<rect x="4" y="24" width="1" height="1" fill="#DBDBCC" />
<rect x="5" y="24" width="1" height="1" fill="#DCDCC3" />
<rect x="6" y="24" width="1" height="1" fill="#DADAD9" />
<rect x="7" y="24" width="1" height="1" fill="#DCDCC2" />
<rect x="8" y="24" width="1" height="1" fill="#DBDBCD" />
<rect x="9" y="24" width="1" height="1" fill="#C4B492" />
<rect x="10" y="24" width="1" height="1" fill="#A06B00" />
<rect x="11" y="24" width="1" height="1" fill="#D49300" />
<rect x="12" y="24" width="1" height="1" fill="#BB8300" />
<rect x="13" y="24" width="1" height="1" fill="#A37000" />
<rect x="14" y="24" width="1" height="1" fill="#7C5300" />
<rect x="15" y="24" width="1" height="1" fill="#070400" />
<rect x="16" y="24" width="1" height="1" fill="#9F9F9F" />
<rect x="17" y="24" width="1" height="1" fill="#DBDBCB" />
<rect x="18" y="24" width="1" height="1" fill="#DCDCC4" />
<rect x="19" y="24" width="1" height="1" fill="#DADAD9" />
<rect x="20" y="24" width="1" height="1" fill="#DCDCC1" />
<rect x="21" y="24" width="1" height="1" fill="#D3D3C5" />
<rect x="1" y="25" width="1" height="1" fill="#ADADAD" />
<rect x="2" y="25" width="1" height="1" fill="#515151" />
<rect x="3" y="25" width="1" height="1" fill="#646464" />
<rect x="4" y="25" width="5" height="1" fill="#707070" />
<rect x="9" y="25" width="1" height="1" fill="#665D4B" />
<rect x="10" y="25" width="1" height="1" fill="#573B00" />
<rect x="11" y="25" width="1" height="1" fill="#6C5000" />
<rect x="12" y="25" width="1" height="1" fill="#5E4200" />
<rect x="13" y="25" width="1" height="1" fill="#543800" />
<rect x="14" y="25" width="1" height="1" fill="#442D00" />
<rect x="15" y="25" width="1" height="1" fill="#040200" />
<rect x="16" y="25" width="1" height="1" fill="#515151" />
<rect x="17" y="25" width="5" height="1" fill="#707070" />
<rect x="22" y="25" width="1" height="1" fill="#484848" />
<rect x="1" y="26" width="1" height="1" fill="#A8A8A8" />
<rect x="2" y="26" width="1" height="1" fill="#353535" />
<rect x="3" y="26" width="20" height="1" fill="#2B2B2B" />
<rect x="23" y="26" width="1" height="1" fill="#3D3D3D" />
<rect x="24" y="26" width="1" height="1" fill="#B1B1B1" />
</svg>
