<?xml version="1.0" encoding="UTF-8" ?>
<svg version="1.1" width="18" height="18" xmlns="http://www.w3.org/2000/svg">
<rect x="5" y="0" width="2" height="2" fill="#AEAEAE" />
<rect x="6" y="0" width="6" height="2" fill="#A0A0A0" />
<rect x="11" y="0" width="2" height="2" fill="#A6A6A6" />
<rect x="12" y="0" width="1" height="2" fill="#BEBEBE" />
<rect x="2" y="1" width="2" height="1" fill="#BCBCBC" />
<rect x="3" y="1" width="2" height="2" fill="#AFAFAF" />
<rect x="5" y="1" width="2" height="2" fill="#A8A8A8" />
<rect x="6" y="1" width="2" height="2" fill="#9D9D9D" />
<rect x="7" y="1" width="2" height="2" fill="#8D938D" />
<rect x="8" y="1" width="2" height="2" fill="#65A065" />
<rect x="9" y="1" width="2" height="2" fill="#5D8D5D" />
<rect x="10" y="1" width="2" height="2" fill="#5D805D" />
<rect x="11" y="1" width="2" height="2" fill="#668866" />
<rect x="12" y="1" width="2" height="2" fill="#8AAC8A" />
<rect x="13" y="1" width="2" height="2" fill="#8C96A5" />
<rect x="14" y="1" width="1" height="2" fill="#A6A6B7" />
<rect x="1" y="2" width="2" height="2" fill="#BFBFBF" />
<rect x="2" y="2" width="2" height="2" fill="#B0B0B0" />
<rect x="3" y="2" width="2" height="2" fill="#838383" />
<rect x="4" y="2" width="2" height="2" fill="#7C857C" />
<rect x="5" y="2" width="2" height="2" fill="#BDC8BD" />
<rect x="6" y="2" width="2" height="2" fill="#E1ECE1" />
<rect x="7" y="2" width="2" height="2" fill="#A7C8A7" />
<rect x="8" y="2" width="2" height="2" fill="#19F219" />
<rect x="9" y="2" width="2" height="2" fill="#00AD00" />
<rect x="10" y="2" width="2" height="2" fill="#008000" />
<rect x="11" y="2" width="2" height="2" fill="#007F02" />
<rect x="12" y="2" width="2" height="2" fill="#007B0A" />
<rect x="13" y="2" width="2" height="2" fill="#00225F" />
<rect x="14" y="2" width="2" height="2" fill="#5A5A9E" />
<rect x="15" y="2" width="1" height="2" fill="#BABABE" />
<rect x="1" y="3" width="2" height="2" fill="#A8A8A8" />
<rect x="2" y="3" width="2" height="2" fill="#959595" />
<rect x="3" y="3" width="2" height="2" fill="#B3B4B3" />
<rect x="4" y="3" width="2" height="2" fill="#3BDC3B" />
<rect x="5" y="3" width="2" height="2" fill="#25F425" />
<rect x="6" y="3" width="2" height="2" fill="#2CFB2C" />
<rect x="7" y="3" width="2" height="2" fill="#21EB21" />
<rect x="8" y="3" width="2" height="2" fill="#05A405" />
<rect x="9" y="3" width="2" height="2" fill="#008900" />
<rect x="11" y="3" width="2" height="2" fill="#006E24" />
<rect x="12" y="3" width="2" height="2" fill="#001EC4" />
<rect x="13" y="3" width="2" height="2" fill="#000796" />
<rect x="14" y="3" width="2" height="2" fill="#121286" />
<rect x="15" y="3" width="1" height="2" fill="#4C4C99" />
<rect x="1" y="4" width="2" height="2" fill="#A2A2A2" />
<rect x="2" y="4" width="2" height="2" fill="#758675" />
<rect x="3" y="4" width="2" height="2" fill="#4F9B4F" />
<rect x="4" y="4" width="2" height="2" fill="#12AF12" />
<rect x="5" y="4" width="2" height="2" fill="#00DD00" />
<rect x="6" y="4" width="2" height="2" fill="#00E700" />
<rect x="7" y="4" width="2" height="2" fill="#00A90D" />
<rect x="8" y="4" width="2" height="2" fill="#004681" />
<rect x="9" y="4" width="2" height="2" fill="#006437" />
<rect x="10" y="4" width="2" height="2" fill="#00623C" />
<rect x="11" y="4" width="2" height="2" fill="#002C9B" />
<rect x="12" y="4" width="2" height="2" fill="#0003B3" />
<rect x="13" y="4" width="2" height="2" fill="#0000C4" />
<rect x="14" y="4" width="2" height="2" fill="#000081" />
<rect x="15" y="4" width="1" height="2" fill="#313159" />
<rect x="0" y="5" width="2" height="1" fill="#B0B0B0" />
<rect x="1" y="5" width="2" height="2" fill="#8181AB" />
<rect x="2" y="5" width="2" height="2" fill="#3F529A" />
<rect x="3" y="5" width="2" height="2" fill="#00535A" />
<rect x="4" y="5" width="2" height="2" fill="#007614" />
<rect x="5" y="5" width="2" height="2" fill="#00AD00" />
<rect x="6" y="5" width="2" height="2" fill="#00A91D" />
<rect x="7" y="5" width="2" height="2" fill="#004B69" />
<rect x="8" y="5" width="2" height="2" fill="#000BE9" />
<rect x="9" y="5" width="2" height="2" fill="#003497" />
<rect x="10" y="5" width="2" height="2" fill="#00318B" />
<rect x="11" y="5" width="2" height="2" fill="#0000CB" />
<rect x="12" y="5" width="2" height="2" fill="#0000AF" />
<rect x="13" y="5" width="2" height="2" fill="#0021A7" />
<rect x="14" y="5" width="2" height="2" fill="#002D54" />
<rect x="15" y="5" width="2" height="2" fill="#204220" />
<rect x="16" y="5" width="2" height="2" fill="#7E7E7E" />
<rect x="17" y="5" width="1" height="2" fill="#B2B2B2" />
<rect x="0" y="6" width="2" height="5" fill="#949494" />
<rect x="1" y="6" width="2" height="4" fill="#4444BB" />
<rect x="2" y="6" width="2" height="3" fill="#0000FF" />
<rect x="3" y="6" width="2" height="2" fill="#0001FD" />
<rect x="4" y="6" width="2" height="2" fill="#005752" />
<rect x="5" y="6" width="2" height="2" fill="#007020" />
<rect x="6" y="6" width="2" height="2" fill="#004C67" />
<rect x="7" y="6" width="3" height="7" fill="#0000FF" />
<rect x="9" y="6" width="2" height="2" fill="#0000F5" />
<rect x="10" y="6" width="2" height="2" fill="#0000C9" />
<rect x="11" y="6" width="2" height="2" fill="#0404A2" />
<rect x="12" y="6" width="2" height="2" fill="#1717F1" />
<rect x="13" y="6" width="2" height="2" fill="#076E46" />
<rect x="14" y="6" width="2" height="2" fill="#008800" />
<rect x="15" y="6" width="2" height="7" fill="#005F00" />
<rect x="16" y="6" width="2" height="7" fill="#060606" />
<rect x="17" y="6" width="1" height="7" fill="#9A9A9A" />
<rect x="4" y="7" width="2" height="1" fill="#000AEB" />
<rect x="5" y="7" width="2" height="1" fill="#000DE5" />
<rect x="6" y="7" width="1" height="1" fill="#0009ED" />
<rect x="9" y="7" width="1" height="1" fill="#0000B7" />
<rect x="10" y="7" width="2" height="1" fill="#0000B6" />
<rect x="11" y="7" width="2" height="1" fill="#1E1EEA" />
<rect x="12" y="7" width="2" height="1" fill="#A3A3C9" />
<rect x="13" y="7" width="2" height="1" fill="#31DF38" />
<rect x="14" y="7" width="1" height="1" fill="#00BA00" />
<rect x="4" y="8" width="3" height="1" fill="#0000FF" />
<rect x="9" y="8" width="1" height="1" fill="#0000E4" />
<rect x="10" y="8" width="1" height="1" fill="#3434D5" />
<rect x="11" y="8" width="1" height="1" fill="#7593BB" />
<rect x="12" y="8" width="1" height="1" fill="#43E448" />
<rect x="13" y="8" width="1" height="1" fill="#12BC12" />
<rect x="14" y="8" width="1" height="1" fill="#009600" />
<rect x="1" y="9" width="1" height="1" fill="#445F87" />
<rect x="2" y="9" width="1" height="1" fill="#00388E" />
<rect x="3" y="9" width="1" height="1" fill="#00388F" />
<rect x="4" y="9" width="1" height="1" fill="#0038BA" />
<rect x="5" y="9" width="1" height="1" fill="#001AE6" />
<rect x="6" y="9" width="1" height="1" fill="#0000FF" />
<rect x="9" y="9" width="1" height="1" fill="#0024B8" />
<rect x="10" y="9" width="1" height="1" fill="#2B7A80" />
<rect x="11" y="9" width="1" height="1" fill="#58D858" />
<rect x="12" y="9" width="1" height="1" fill="#06C806" />
<rect x="13" y="9" width="1" height="1" fill="#009400" />
<rect x="14" y="9" width="1" height="3" fill="#008000" />
<rect x="0" y="10" width="1" height="1" fill="#819481" />
<rect x="1" y="10" width="1" height="1" fill="#498649" />
<rect x="2" y="10" width="1" height="1" fill="#1F911F" />
<rect x="3" y="10" width="1" height="1" fill="#009B01" />
<rect x="4" y="10" width="1" height="1" fill="#00864F" />
<rect x="5" y="10" width="1" height="1" fill="#00499C" />
<rect x="6" y="10" width="1" height="1" fill="#0012DA" />
<rect x="9" y="10" width="1" height="2" fill="#00515E" />
<rect x="10" y="10" width="1" height="1" fill="#00A800" />
<rect x="11" y="10" width="1" height="1" fill="#00D300" />
<rect x="12" y="10" width="1" height="1" fill="#008500" />
<rect x="13" y="10" width="1" height="3" fill="#008000" />
<rect x="0" y="11" width="1" height="1" fill="#3D943D" />
<rect x="1" y="11" width="1" height="1" fill="#599D59" />
<rect x="2" y="11" width="1" height="1" fill="#90CD90" />
<rect x="3" y="11" width="1" height="1" fill="#00FC00" />
<rect x="4" y="11" width="1" height="1" fill="#009C02" />
<rect x="5" y="11" width="1" height="1" fill="#007F04" />
<rect x="6" y="11" width="1" height="1" fill="#005555" />
<rect x="10" y="11" width="1" height="1" fill="#008100" />
<rect x="11" y="11" width="1" height="1" fill="#008200" />
<rect x="12" y="11" width="1" height="1" fill="#008000" />
<rect x="0" y="12" width="1" height="1" fill="#9FB59F" />
<rect x="1" y="12" width="1" height="1" fill="#63A163" />
<rect x="2" y="12" width="1" height="1" fill="#24AA24" />
<rect x="3" y="12" width="1" height="1" fill="#00FE00" />
<rect x="4" y="12" width="1" height="1" fill="#009C00" />
<rect x="5" y="12" width="1" height="2" fill="#008000" />
<rect x="6" y="12" width="1" height="1" fill="#005733" />
<rect x="7" y="12" width="2" height="1" fill="#00009F" />
<rect x="9" y="12" width="1" height="1" fill="#001478" />
<rect x="10" y="12" width="1" height="1" fill="#001F60" />
<rect x="11" y="12" width="1" height="1" fill="#003050" />
<rect x="12" y="12" width="1" height="1" fill="#007B05" />
<rect x="14" y="12" width="1" height="1" fill="#005100" />
<rect x="15" y="12" width="1" height="1" fill="#253D25" />
<rect x="16" y="12" width="1" height="1" fill="#929292" />
<rect x="17" y="12" width="1" height="1" fill="#B7B7B7" />
<rect x="1" y="13" width="1" height="1" fill="#67A267" />
<rect x="2" y="13" width="1" height="1" fill="#008E00" />
<rect x="3" y="13" width="1" height="1" fill="#00BC00" />
<rect x="4" y="13" width="1" height="1" fill="#008D00" />
<rect x="6" y="13" width="1" height="1" fill="#005729" />
<rect x="7" y="13" width="4" height="2" fill="#000080" />
<rect x="11" y="13" width="1" height="1" fill="#000B75" />
<rect x="12" y="13" width="1" height="1" fill="#003A46" />
<rect x="13" y="13" width="1" height="1" fill="#003D43" />
<rect x="14" y="13" width="1" height="1" fill="#001F22" />
<rect x="15" y="13" width="1" height="1" fill="#313131" />
<rect x="1" y="14" width="1" height="1" fill="#81AB81" />
<rect x="2" y="14" width="1" height="1" fill="#2C8635" />
<rect x="3" y="14" width="3" height="1" fill="#005A26" />
<rect x="6" y="14" width="1" height="1" fill="#003D43" />
<rect x="11" y="14" width="1" height="1" fill="#000079" />
<rect x="12" y="14" width="1" height="1" fill="#00005C" />
<rect x="13" y="14" width="1" height="1" fill="#00005A" />
<rect x="14" y="14" width="1" height="1" fill="#1C1C4A" />
<rect x="15" y="14" width="1" height="1" fill="#5C5C5C" />
<rect x="2" y="15" width="1" height="1" fill="#9696B2" />
<rect x="3" y="15" width="2" height="1" fill="#0D0D84" />
<rect x="5" y="15" width="1" height="1" fill="#06067D" />
<rect x="6" y="15" width="5" height="1" fill="#000077" />
<rect x="11" y="15" width="1" height="1" fill="#020265" />
<rect x="12" y="15" width="1" height="1" fill="#0C0C13" />
<rect x="13" y="15" width="1" height="1" fill="#0D0D0D" />
<rect x="14" y="15" width="1" height="1" fill="#646464" />
<rect x="2" y="16" width="1" height="1" fill="#B9B9BE" />
<rect x="3" y="16" width="2" height="1" fill="#A0A0B5" />
<rect x="5" y="16" width="1" height="1" fill="#49495E" />
<rect x="6" y="16" width="5" height="1" fill="#000015" />
<rect x="11" y="16" width="1" height="1" fill="#1C1C2E" />
<rect x="12" y="16" width="1" height="1" fill="#989899" />
<rect x="13" y="16" width="1" height="1" fill="#A0A0A0" />
<rect x="14" y="16" width="1" height="1" fill="#B0B0B0" />
<rect x="5" y="17" width="1" height="1" fill="#979797" />
<rect x="6" y="17" width="5" height="1" fill="#757575" />
<rect x="11" y="17" width="1" height="1" fill="#828282" />
<rect x="12" y="17" width="1" height="1" fill="#BCBCBC" />
</svg>
