<?xml version="1.0" encoding="UTF-8" ?>
<svg version="1.1" width="27" height="27" xmlns="http://www.w3.org/2000/svg" shape-rendering="crispEdges">
<rect x="0" y="0" width="1" height="1" fill="#B8B8B8" />
<rect x="1" y="0" width="18" height="1" fill="#B6B6B6" />
<rect x="19" y="0" width="1" height="1" fill="#ABABAB" />
<rect x="20" y="0" width="1" height="1" fill="#A6A6A6" />
<rect x="0" y="1" width="1" height="1" fill="#939393" />
<rect x="1" y="1" width="18" height="1" fill="#898989" />
<rect x="19" y="1" width="1" height="1" fill="#4E4E4E" />
<rect x="20" y="1" width="1" height="1" fill="#353535" />
<rect x="0" y="2" width="1" height="19" fill="#919191" />
<rect x="1" y="2" width="1" height="1" fill="#B6B6B6" />
<rect x="2" y="2" width="16" height="1" fill="#D8D8D8" />
<rect x="18" y="2" width="1" height="1" fill="#C2C2C2" />
<rect x="19" y="2" width="1" height="1" fill="#636363" />
<rect x="20" y="2" width="1" height="9" fill="#2D2D2D" />
<rect x="1" y="3" width="1" height="13" fill="#C9C9C9" />
<rect x="2" y="3" width="13" height="1" fill="#F8F8F8" />
<rect x="15" y="3" width="1" height="1" fill="#F9F9E6" />
<rect x="16" y="3" width="1" height="1" fill="#FBFBD1" />
<rect x="17" y="3" width="1" height="1" fill="#F8F8F4" />
<rect x="18" y="3" width="1" height="1" fill="#DADADA" />
<rect x="19" y="3" width="1" height="5" fill="#6D6D6D" />
<rect x="2" y="4" width="1" height="11" fill="#F8F8F8" />
<rect x="3" y="4" width="1" height="1" fill="#F2F3F8" />
<rect x="4" y="4" width="1" height="1" fill="#CAD6FA" />
<rect x="5" y="4" width="7" height="1" fill="#C5D2FA" />
<rect x="12" y="4" width="1" height="1" fill="#C9D5FA" />
<rect x="13" y="4" width="1" height="1" fill="#F0F2F8" />
<rect x="14" y="4" width="1" height="1" fill="#F9F9E9" />
<rect x="15" y="4" width="1" height="1" fill="#FBFBCE" />
<rect x="16" y="4" width="1" height="1" fill="#FDFDB8" />
<rect x="17" y="4" width="1" height="1" fill="#FAFADC" />
<rect x="18" y="4" width="1" height="1" fill="#DADAD2" />
<rect x="3" y="5" width="1" height="1" fill="#E0E6F9" />
<rect x="4" y="5" width="1" height="1" fill="#4D79FE" />
<rect x="5" y="5" width="7" height="1" fill="#396BFF" />
<rect x="12" y="5" width="1" height="1" fill="#4674FE" />
<rect x="13" y="5" width="1" height="1" fill="#D9E1F7" />
<rect x="14" y="5" width="1" height="1" fill="#FCFCBF" />
<rect x="15" y="5" width="1" height="1" fill="#FCFCBE" />
<rect x="16" y="5" width="1" height="1" fill="#F9F9E7" />
<rect x="17" y="5" width="1" height="1" fill="#FEFEA3" />
<rect x="18" y="5" width="1" height="1" fill="#DCDCBD" />
<rect x="3" y="6" width="1" height="1" fill="#F3F4F8" />
<rect x="4" y="6" width="1" height="1" fill="#D5DEF9" />
<rect x="5" y="6" width="7" height="1" fill="#D1DBF9" />
<rect x="12" y="6" width="1" height="1" fill="#D4DDF4" />
<rect x="13" y="6" width="1" height="1" fill="#F6F8B9" />
<rect x="14" y="6" width="2" height="1" fill="#FBFBCF" />
<rect x="16" y="6" width="1" height="1" fill="#FDFDB5" />
<rect x="17" y="6" width="1" height="1" fill="#FAFAE1" />
<rect x="18" y="6" width="1" height="1" fill="#DADAD4" />
<rect x="3" y="7" width="1" height="1" fill="#E6E6F8" />
<rect x="4" y="7" width="1" height="1" fill="#7979FC" />
<rect x="5" y="7" width="7" height="1" fill="#6B6BFC" />
<rect x="12" y="7" width="1" height="1" fill="#6B6BF9" />
<rect x="13" y="7" width="1" height="1" fill="#6D6DDA" />
<rect x="14" y="7" width="1" height="1" fill="#6C6CEC" />
<rect x="15" y="7" width="1" height="1" fill="#8989D2" />
<rect x="16" y="7" width="1" height="1" fill="#BABA94" />
<rect x="17" y="7" width="1" height="1" fill="#B7B7B4" />
<rect x="18" y="7" width="1" height="1" fill="#C6C6C6" />
<rect x="3" y="8" width="1" height="1" fill="#E4E4F9" />
<rect x="4" y="8" width="1" height="1" fill="#6666FC" />
<rect x="5" y="8" width="2" height="1" fill="#5555FD" />
<rect x="7" y="8" width="1" height="1" fill="#5656F6" />
<rect x="8" y="8" width="1" height="1" fill="#5858DD" />
<rect x="9" y="8" width="1" height="1" fill="#5656F5" />
<rect x="10" y="8" width="1" height="1" fill="#5757EB" />
<rect x="11" y="8" width="1" height="1" fill="#5757E6" />
<rect x="12" y="8" width="1" height="1" fill="#5555FA" />
<rect x="13" y="8" width="1" height="1" fill="#5757E1" />
<rect x="14" y="8" width="1" height="1" fill="#3E3ED8" />
<rect x="15" y="8" width="1" height="1" fill="#5E5EC6" />
<rect x="16" y="8" width="2" height="1" fill="#ADADAD" />
<rect x="18" y="8" width="1" height="1" fill="#929292" />
<rect x="19" y="8" width="1" height="1" fill="#484848" />
<rect x="3" y="9" width="1" height="1" fill="#F4F4F8" />
<rect x="4" y="9" width="1" height="1" fill="#DFDFF9" />
<rect x="5" y="9" width="2" height="1" fill="#DCDCF9" />
<rect x="7" y="9" width="1" height="1" fill="#DDDDE7" />
<rect x="8" y="9" width="1" height="1" fill="#E2E2A6" />
<rect x="9" y="9" width="1" height="1" fill="#DDDDE4" />
<rect x="10" y="9" width="1" height="1" fill="#DFDFCD" />
<rect x="11" y="9" width="1" height="1" fill="#E0E0BE" />
<rect x="12" y="9" width="1" height="1" fill="#DDDDF2" />
<rect x="13" y="9" width="1" height="1" fill="#EEEEA7" />
<rect x="14" y="9" width="1" height="1" fill="#B8B894" />
<rect x="15" y="9" width="1" height="1" fill="#B9B9B9" />
<rect x="16" y="9" width="1" height="1" fill="#F7F8F8" />
<rect x="17" y="9" width="1" height="1" fill="#F3F9F9" />
<rect x="18" y="9" width="1" height="1" fill="#5B6161" />
<rect x="19" y="9" width="1" height="1" fill="#0C0F0F" />
<rect x="3" y="10" width="1" height="1" fill="#DDDDF9" />
<rect x="4" y="10" width="1" height="1" fill="#3232FE" />
<rect x="5" y="10" width="2" height="1" fill="#1C1CFE" />
<rect x="7" y="10" width="1" height="1" fill="#1C1CFC" />
<rect x="8" y="10" width="1" height="1" fill="#1D1DF4" />
<rect x="9" y="10" width="1" height="1" fill="#1C1CFC" />
<rect x="10" y="10" width="1" height="1" fill="#1D1DF9" />
<rect x="11" y="10" width="1" height="1" fill="#1D1DF7" />
<rect x="12" y="10" width="1" height="1" fill="#2424F6" />
<rect x="13" y="10" width="1" height="1" fill="#80809C" />
<rect x="14" y="10" width="1" height="1" fill="#C9C9C4" />
<rect x="15" y="10" width="1" height="1" fill="#F0F0F0" />
<rect x="16" y="10" width="1" height="1" fill="#F2F9F9" />
<rect x="17" y="10" width="1" height="1" fill="#D4FEFE" />
<rect x="18" y="10" width="1" height="1" fill="#BEEBEB" />
<rect x="19" y="10" width="1" height="1" fill="#617979" />
<rect x="3" y="11" width="1" height="1" fill="#EDEDF8" />
<rect x="4" y="11" width="1" height="1" fill="#ABABFA" />
<rect x="5" y="11" width="1" height="1" fill="#A6A6D1" />
<rect x="6" y="11" width="1" height="1" fill="#A5A5D8" />
<rect x="7" y="11" width="1" height="1" fill="#A4A4ED" />
<rect x="8" y="11" width="1" height="1" fill="#A7A7BD" />
<rect x="9" y="11" width="1" height="1" fill="#A7A7EF" />
<rect x="10" y="11" width="1" height="1" fill="#A7A7DC" />
<rect x="11" y="11" width="1" height="1" fill="#9090B8" />
<rect x="12" y="11" width="1" height="1" fill="#6060B2" />
<rect x="13" y="11" width="1" height="1" fill="#BDBDCB" />
<rect x="14" y="11" width="1" height="1" fill="#E9E9E9" />
<rect x="15" y="11" width="1" height="1" fill="#EDFAFA" />
<rect x="16" y="11" width="1" height="1" fill="#D9FDFD" />
<rect x="17" y="11" width="1" height="1" fill="#CDFFFF" />
<rect x="18" y="11" width="1" height="1" fill="#B5FFFF" />
<rect x="19" y="11" width="1" height="1" fill="#8AD6D6" />
<rect x="20" y="11" width="1" height="1" fill="#5C9090" />
<rect x="21" y="11" width="1" height="1" fill="#434343" />
<rect x="22" y="11" width="1" height="1" fill="#A4A4A4" />
<rect x="3" y="12" width="1" height="1" fill="#EBEBF8" />
<rect x="4" y="12" width="1" height="1" fill="#9999FB" />
<rect x="5" y="12" width="1" height="1" fill="#9191D7" />
<rect x="6" y="12" width="1" height="1" fill="#9191DD" />
<rect x="7" y="12" width="1" height="1" fill="#8F8FEF" />
<rect x="8" y="12" width="1" height="1" fill="#9292C5" />
<rect x="9" y="12" width="1" height="1" fill="#9292F1" />
<rect x="10" y="12" width="1" height="1" fill="#B0B0C5" />
<rect x="11" y="12" width="1" height="1" fill="#C5C59C" />
<rect x="12" y="12" width="1" height="1" fill="#BBBBBB" />
<rect x="13" y="12" width="1" height="1" fill="#EDEDED" />
<rect x="14" y="12" width="1" height="1" fill="#EDFAFA" />
<rect x="15" y="12" width="1" height="1" fill="#DCFDFD" />
<rect x="16" y="12" width="1" height="1" fill="#C9FFFF" />
<rect x="17" y="12" width="1" height="1" fill="#B8FFFF" />
<rect x="18" y="12" width="1" height="1" fill="#A2FFFF" />
<rect x="19" y="12" width="1" height="1" fill="#85F5FF" />
<rect x="20" y="12" width="1" height="1" fill="#63CCDD" />
<rect x="21" y="12" width="1" height="1" fill="#416D6D" />
<rect x="22" y="12" width="1" height="1" fill="#646E6E" />
<rect x="23" y="12" width="1" height="1" fill="#9B9B9B" />
<rect x="3" y="13" width="1" height="1" fill="#DFDFF9" />
<rect x="4" y="13" width="1" height="1" fill="#4747FE" />
<rect x="5" y="13" width="1" height="1" fill="#3333F1" />
<rect x="6" y="13" width="1" height="1" fill="#3232F3" />
<rect x="7" y="13" width="1" height="1" fill="#3232FA" />
<rect x="8" y="13" width="1" height="1" fill="#3333EB" />
<rect x="9" y="13" width="1" height="1" fill="#2121E8" />
<rect x="10" y="13" width="1" height="1" fill="#5F5FC0" />
<rect x="11" y="13" width="1" height="1" fill="#B8B8B8" />
<rect x="12" y="13" width="1" height="1" fill="#F7F8F8" />
<rect x="13" y="13" width="1" height="1" fill="#F1F9F9" />
<rect x="14" y="13" width="1" height="1" fill="#DAFDFD" />
<rect x="15" y="13" width="1" height="1" fill="#C8FFFF" />
<rect x="16" y="13" width="1" height="1" fill="#BCFFFF" />
<rect x="17" y="13" width="1" height="1" fill="#9CFFFF" />
<rect x="18" y="13" width="1" height="1" fill="#8BF8FF" />
<rect x="19" y="13" width="1" height="1" fill="#68E7FF" />
<rect x="20" y="13" width="1" height="1" fill="#56DBFF" />
<rect x="21" y="13" width="1" height="1" fill="#84E9FD" />
<rect x="22" y="13" width="1" height="1" fill="#255460" />
<rect x="23" y="13" width="1" height="1" fill="#5A676C" />
<rect x="24" y="13" width="1" height="1" fill="#A7A7A7" />
<rect x="3" y="14" width="1" height="1" fill="#F8F8F9" />
<rect x="4" y="14" width="1" height="1" fill="#F7F7FE" />
<rect x="5" y="14" width="1" height="1" fill="#F7F7BD" />
<rect x="6" y="14" width="1" height="1" fill="#F4F4C5" />
<rect x="7" y="14" width="1" height="1" fill="#F2F2E5" />
<rect x="8" y="14" width="1" height="1" fill="#F7F79E" />
<rect x="9" y="14" width="1" height="1" fill="#9F9F8E" />
<rect x="10" y="14" width="1" height="1" fill="#BEBEC2" />
<rect x="11" y="14" width="1" height="1" fill="#F5F5F5" />
<rect x="12" y="14" width="1" height="1" fill="#F5F8F8" />
<rect x="13" y="14" width="1" height="1" fill="#D4FEFE" />
<rect x="14" y="14" width="1" height="1" fill="#CDFFFF" />
<rect x="15" y="14" width="1" height="1" fill="#B9FFFF" />
<rect x="16" y="14" width="1" height="1" fill="#9AFFFF" />
<rect x="17" y="14" width="1" height="1" fill="#99FFFF" />
<rect x="18" y="14" width="1" height="1" fill="#55DDFF" />
<rect x="19" y="14" width="1" height="1" fill="#63E4FF" />
<rect x="20" y="14" width="1" height="1" fill="#7FE7FF" />
<rect x="21" y="14" width="1" height="1" fill="#369DFF" />
<rect x="22" y="14" width="1" height="1" fill="#32BCF9" />
<rect x="23" y="14" width="1" height="1" fill="#1E6177" />
<rect x="24" y="14" width="1" height="1" fill="#474747" />
<rect x="2" y="15" width="1" height="1" fill="#FAFADF" />
<rect x="3" y="15" width="1" height="1" fill="#E6E6BB" />
<rect x="4" y="15" width="1" height="1" fill="#5555F7" />
<rect x="5" y="15" width="1" height="1" fill="#4242ED" />
<rect x="6" y="15" width="1" height="1" fill="#4141F0" />
<rect x="7" y="15" width="1" height="1" fill="#5555E5" />
<rect x="8" y="15" width="1" height="1" fill="#A3A38D" />
<rect x="9" y="15" width="1" height="1" fill="#8E8E87" />
<rect x="10" y="15" width="1" height="1" fill="#C2C2C2" />
<rect x="11" y="15" width="1" height="1" fill="#EEFAFA" />
<rect x="12" y="15" width="1" height="1" fill="#D7FDFD" />
<rect x="13" y="15" width="1" height="1" fill="#CEFFFF" />
<rect x="14" y="15" width="1" height="1" fill="#B5FFFF" />
<rect x="15" y="15" width="1" height="1" fill="#A1FFFF" />
<rect x="16" y="15" width="1" height="1" fill="#8DF9FF" />
<rect x="17" y="15" width="1" height="1" fill="#53DCFF" />
<rect x="18" y="15" width="1" height="1" fill="#6FEAFF" />
<rect x="19" y="15" width="1" height="1" fill="#68D5FF" />
<rect x="20" y="15" width="1" height="1" fill="#47B6FF" />
<rect x="21" y="15" width="1" height="1" fill="#33BFFF" />
<rect x="22" y="15" width="1" height="1" fill="#33ACFF" />
<rect x="23" y="15" width="1" height="1" fill="#4F83AB" />
<rect x="24" y="15" width="1" height="1" fill="#575757" />
<rect x="25" y="15" width="1" height="1" fill="#444444" />
<rect x="26" y="15" width="1" height="1" fill="#ADADAD" />
<rect x="1" y="16" width="1" height="1" fill="#CBCBAC" />
<rect x="2" y="16" width="1" height="1" fill="#FDFDC9" />
<rect x="3" y="16" width="1" height="1" fill="#EFEFD3" />
<rect x="4" y="16" width="1" height="1" fill="#8F8FFA" />
<rect x="5" y="16" width="1" height="1" fill="#8282DC" />
<rect x="6" y="16" width="1" height="1" fill="#8282E2" />
<rect x="7" y="16" width="1" height="1" fill="#8383E5" />
<rect x="8" y="16" width="1" height="1" fill="#868688" />
<rect x="9" y="16" width="1" height="1" fill="#B2B2B2" />
<rect x="10" y="16" width="1" height="1" fill="#BFBFBF" />
<rect x="11" y="16" width="1" height="1" fill="#BAD1D1" />
<rect x="12" y="16" width="2" height="1" fill="#B2FFFF" />
<rect x="14" y="16" width="1" height="1" fill="#A3FFFF" />
<rect x="15" y="16" width="1" height="1" fill="#85F5FF" />
<rect x="16" y="16" width="1" height="1" fill="#65E5FF" />
<rect x="17" y="16" width="1" height="1" fill="#67E6FF" />
<rect x="18" y="16" width="1" height="1" fill="#66D3FF" />
<rect x="19" y="16" width="1" height="1" fill="#4EC0FF" />
<rect x="20" y="16" width="1" height="1" fill="#33B3FF" />
<rect x="21" y="16" width="1" height="1" fill="#33B2FF" />
<rect x="22" y="16" width="1" height="1" fill="#5497CF" />
<rect x="23" y="16" width="1" height="1" fill="#879EB4" />
<rect x="24" y="16" width="1" height="1" fill="#757575" />
<rect x="25" y="16" width="1" height="1" fill="#151515" />
<rect x="26" y="16" width="1" height="3" fill="#A6A6A6" />
<rect x="1" y="17" width="1" height="1" fill="#CDCDA2" />
<rect x="2" y="17" width="1" height="1" fill="#FFFFC6" />
<rect x="3" y="17" width="1" height="1" fill="#F6F6E6" />
<rect x="4" y="17" width="1" height="1" fill="#BFBFFC" />
<rect x="5" y="17" width="1" height="1" fill="#B7B7CE" />
<rect x="6" y="17" width="1" height="1" fill="#B7B7D6" />
<rect x="7" y="17" width="1" height="1" fill="#ACACE5" />
<rect x="8" y="17" width="1" height="1" fill="#838384" />
<rect x="9" y="17" width="1" height="1" fill="#DBDBDB" />
<rect x="10" y="17" width="1" height="1" fill="#CDCDCD" />
<rect x="11" y="17" width="1" height="1" fill="#A1B6B6" />
<rect x="12" y="17" width="1" height="1" fill="#92DEDF" />
<rect x="13" y="17" width="1" height="1" fill="#80EDF9" />
<rect x="14" y="17" width="1" height="1" fill="#7CF1FF" />
<rect x="15" y="17" width="1" height="1" fill="#61E3FF" />
<rect x="16" y="17" width="1" height="1" fill="#3ECFFF" />
<rect x="17" y="17" width="1" height="1" fill="#77E1FF" />
<rect x="18" y="17" width="1" height="1" fill="#4ABAFF" />
<rect x="19" y="17" width="1" height="1" fill="#33B2FF" />
<rect x="20" y="17" width="1" height="1" fill="#37B3F6" />
<rect x="21" y="17" width="1" height="1" fill="#4790D8" />
<rect x="22" y="17" width="1" height="1" fill="#91A1B1" />
<rect x="23" y="17" width="1" height="1" fill="#BBBBBB" />
<rect x="24" y="17" width="1" height="2" fill="#8B8B8B" />
<rect x="25" y="17" width="1" height="1" fill="#111111" />
<rect x="1" y="18" width="1" height="1" fill="#CDCDCA" />
<rect x="2" y="18" width="1" height="1" fill="#FFFFD9" />
<rect x="3" y="18" width="1" height="1" fill="#E1E1AB" />
<rect x="4" y="18" width="1" height="1" fill="#2626F5" />
<rect x="5" y="18" width="1" height="1" fill="#0E0EFB" />
<rect x="6" y="18" width="1" height="1" fill="#0E0EFC" />
<rect x="7" y="18" width="1" height="1" fill="#2424E2" />
<rect x="8" y="18" width="1" height="1" fill="#76767A" />
<rect x="9" y="18" width="1" height="1" fill="#D8D8D8" />
<rect x="10" y="18" width="1" height="2" fill="#F8F8F8" />
<rect x="11" y="18" width="1" height="1" fill="#D7D7D7" />
<rect x="12" y="18" width="1" height="1" fill="#848D90" />
<rect x="13" y="18" width="1" height="1" fill="#44BDE5" />
<rect x="14" y="18" width="1" height="1" fill="#37C8F8" />
<rect x="15" y="18" width="1" height="1" fill="#38C8F8" />
<rect x="16" y="18" width="1" height="1" fill="#37C1F8" />
<rect x="17" y="18" width="1" height="1" fill="#379BF8" />
<rect x="18" y="18" width="1" height="1" fill="#37B9F8" />
<rect x="19" y="18" width="1" height="1" fill="#38B2F8" />
<rect x="20" y="18" width="1" height="1" fill="#4891DB" />
<rect x="21" y="18" width="1" height="1" fill="#7D7D7D" />
<rect x="22" y="18" width="1" height="1" fill="#DDDDD8" />
<rect x="23" y="18" width="1" height="1" fill="#E0E0DE" />
<rect x="25" y="18" width="1" height="1" fill="#121212" />
<rect x="1" y="19" width="1" height="1" fill="#CDCD9C" />
<rect x="2" y="19" width="1" height="1" fill="#FFFFC2" />
<rect x="3" y="19" width="1" height="1" fill="#F9F9EF" />
<rect x="4" y="19" width="1" height="1" fill="#D7D7FD" />
<rect x="5" y="19" width="1" height="1" fill="#D2D2C7" />
<rect x="6" y="19" width="1" height="1" fill="#D2D2D0" />
<rect x="7" y="19" width="1" height="1" fill="#C2C2E5" />
<rect x="8" y="19" width="1" height="1" fill="#858586" />
<rect x="9" y="19" width="1" height="1" fill="#DBDBDB" />
<rect x="11" y="19" width="1" height="1" fill="#E4E4E4" />
<rect x="12" y="19" width="1" height="1" fill="#B1B3B3" />
<rect x="13" y="19" width="1" height="1" fill="#778E95" />
<rect x="14" y="19" width="1" height="1" fill="#738D96" />
<rect x="15" y="19" width="1" height="1" fill="#77929B" />
<rect x="16" y="19" width="1" height="1" fill="#768F99" />
<rect x="17" y="19" width="1" height="1" fill="#6C7F90" />
<rect x="18" y="19" width="1" height="1" fill="#748C97" />
<rect x="19" y="19" width="1" height="1" fill="#778E9B" />
<rect x="20" y="19" width="1" height="1" fill="#8895A3" />
<rect x="21" y="19" width="1" height="1" fill="#BEBEBD" />
<rect x="22" y="19" width="1" height="1" fill="#EFEFAE" />
<rect x="23" y="19" width="1" height="1" fill="#E3E3BC" />
<rect x="24" y="19" width="1" height="1" fill="#8D8D8D" />
<rect x="25" y="19" width="1" height="1" fill="#171717" />
<rect x="26" y="19" width="1" height="1" fill="#A7A7A7" />
<rect x="1" y="20" width="1" height="1" fill="#BBBBA3" />
<rect x="2" y="20" width="1" height="1" fill="#E1E1C6" />
<rect x="3" y="20" width="2" height="1" fill="#E1E1E1" />
<rect x="5" y="20" width="1" height="1" fill="#E1E1C5" />
<rect x="6" y="20" width="1" height="1" fill="#E1E1CA" />
<rect x="7" y="20" width="1" height="1" fill="#CDCDCD" />
<rect x="8" y="20" width="1" height="1" fill="#888888" />
<rect x="9" y="20" width="1" height="1" fill="#DCDCDC" />
<rect x="10" y="20" width="1" height="1" fill="#E6E6E6" />
<rect x="11" y="20" width="1" height="1" fill="#C6C6C6" />
<rect x="12" y="20" width="1" height="1" fill="#A0A0A0" />
<rect x="13" y="20" width="1" height="1" fill="#BEBEBE" />
<rect x="14" y="20" width="1" height="1" fill="#C8C8C8" />
<rect x="15" y="20" width="1" height="1" fill="#CACACA" />
<rect x="16" y="20" width="1" height="1" fill="#C9C9C9" />
<rect x="17" y="20" width="1" height="1" fill="#C5C5C5" />
<rect x="18" y="20" width="1" height="1" fill="#CBCBA1" />
<rect x="19" y="20" width="1" height="1" fill="#CCCCAC" />
<rect x="20" y="20" width="1" height="1" fill="#C1C1C1" />
<rect x="21" y="20" width="1" height="1" fill="#A3A3A2" />
<rect x="22" y="20" width="1" height="1" fill="#D3D3B3" />
<rect x="23" y="20" width="1" height="1" fill="#D5D5C3" />
<rect x="24" y="20" width="1" height="1" fill="#8C8C8C" />
<rect x="25" y="20" width="1" height="1" fill="#141414" />
<rect x="26" y="20" width="1" height="6" fill="#A6A6A6" />
<rect x="0" y="21" width="1" height="1" fill="#696969" />
<rect x="1" y="21" width="1" height="1" fill="#6F6F6F" />
<rect x="2" y="21" width="5" height="1" fill="#818181" />
<rect x="7" y="21" width="1" height="1" fill="#828282" />
<rect x="8" y="21" width="1" height="1" fill="#868686" />
<rect x="9" y="21" width="1" height="1" fill="#CCCCCC" />
<rect x="10" y="21" width="1" height="1" fill="#C6C6C6" />
<rect x="11" y="21" width="1" height="1" fill="#ACACAC" />
<rect x="12" y="21" width="1" height="1" fill="#B5B5B5" />
<rect x="13" y="21" width="1" height="1" fill="#ECECEC" />
<rect x="14" y="21" width="1" height="1" fill="#FAFAE3" />
<rect x="15" y="21" width="1" height="1" fill="#FAFAE2" />
<rect x="16" y="21" width="1" height="1" fill="#F8F8F3" />
<rect x="17" y="21" width="1" height="1" fill="#FAFAD8" />
<rect x="18" y="21" width="1" height="1" fill="#FCFCC4" />
<rect x="19" y="21" width="1" height="1" fill="#FCFCC8" />
<rect x="20" y="21" width="1" height="1" fill="#E9E9CC" />
<rect x="21" y="21" width="1" height="1" fill="#B0B0B0" />
<rect x="22" y="21" width="1" height="1" fill="#B2B2B2" />
<rect x="23" y="21" width="1" height="1" fill="#C0C0C0" />
<rect x="24" y="21" width="1" height="1" fill="#8B8B8B" />
<rect x="25" y="21" width="1" height="3" fill="#111111" />
<rect x="0" y="22" width="1" height="1" fill="#393939" />
<rect x="1" y="22" width="6" height="1" fill="#1A1A1A" />
<rect x="7" y="22" width="1" height="1" fill="#313131" />
<rect x="8" y="22" width="1" height="1" fill="#848484" />
<rect x="9" y="22" width="1" height="1" fill="#AAAAAA" />
<rect x="10" y="22" width="1" height="1" fill="#A5A5A5" />
<rect x="11" y="22" width="1" height="1" fill="#B3B3B3" />
<rect x="12" y="22" width="1" height="1" fill="#F8F8F7" />
<rect x="13" y="22" width="1" height="1" fill="#F9F9ED" />
<rect x="14" y="22" width="1" height="1" fill="#FCFCC1" />
<rect x="15" y="22" width="1" height="1" fill="#FCFCC0" />
<rect x="16" y="22" width="1" height="1" fill="#FAFAE0" />
<rect x="17" y="22" width="1" height="1" fill="#FEFEAB" />
<rect x="18" y="22" width="1" height="1" fill="#FBFBD6" />
<rect x="19" y="22" width="1" height="1" fill="#FBFBCB" />
<rect x="20" y="22" width="1" height="1" fill="#FDFDB6" />
<rect x="21" y="22" width="1" height="1" fill="#F8F8EA" />
<rect x="22" y="22" width="1" height="1" fill="#ACACA9" />
<rect x="23" y="22" width="1" height="1" fill="#AEAEAE" />
<rect x="24" y="22" width="1" height="1" fill="#848484" />
<rect x="0" y="23" width="1" height="1" fill="#B2B2B2" />
<rect x="1" y="23" width="6" height="1" fill="#AFAFAF" />
<rect x="7" y="23" width="1" height="1" fill="#A6A6A6" />
<rect x="8" y="23" width="1" height="2" fill="#878787" />
<rect x="9" y="23" width="1" height="1" fill="#808080" />
<rect x="10" y="23" width="1" height="1" fill="#B8B8B8" />
<rect x="11" y="23" width="1" height="1" fill="#F1F1F1" />
<rect x="12" y="23" width="1" height="1" fill="#F8F8F2" />
<rect x="13" y="23" width="1" height="1" fill="#FDFDB0" />
<rect x="14" y="23" width="1" height="1" fill="#FBFBD1" />
<rect x="15" y="23" width="1" height="1" fill="#FBFBD2" />
<rect x="16" y="23" width="1" height="1" fill="#FDFDAD" />
<rect x="17" y="23" width="1" height="1" fill="#F9F9E9" />
<rect x="18" y="23" width="1" height="1" fill="#FDFDBA" />
<rect x="19" y="23" width="1" height="1" fill="#FCFCC6" />
<rect x="20" y="23" width="1" height="1" fill="#FAFADD" />
<rect x="21" y="23" width="1" height="1" fill="#FEFEA2" />
<rect x="22" y="23" width="1" height="1" fill="#F1F1DD" />
<rect x="23" y="23" width="1" height="1" fill="#B8B8B8" />
<rect x="24" y="23" width="1" height="1" fill="#5F5F5F" />
<rect x="7" y="24" width="1" height="1" fill="#B4B4B4" />
<rect x="9" y="24" width="1" height="1" fill="#A6A6A6" />
<rect x="10" y="24" width="1" height="1" fill="#CACACA" />
<rect x="11" y="24" width="1" height="1" fill="#DFDFDF" />
<rect x="12" y="24" width="1" height="1" fill="#DADAD8" />
<rect x="13" y="24" width="1" height="1" fill="#DCDCC1" />
<rect x="14" y="24" width="1" height="1" fill="#DBDBCE" />
<rect x="15" y="24" width="1" height="1" fill="#DBDBCF" />
<rect x="16" y="24" width="1" height="1" fill="#DCDCC0" />
<rect x="17" y="24" width="1" height="1" fill="#DADAD8" />
<rect x="18" y="24" width="1" height="1" fill="#DCDCC5" />
<rect x="19" y="24" width="1" height="1" fill="#DBDBCA" />
<rect x="20" y="24" width="1" height="1" fill="#DBDBD3" />
<rect x="21" y="24" width="1" height="1" fill="#DCDCBC" />
<rect x="22" y="24" width="1" height="1" fill="#DBDBD3" />
<rect x="23" y="24" width="1" height="1" fill="#C6C6C6" />
<rect x="24" y="24" width="1" height="1" fill="#7D7D7D" />
<rect x="25" y="24" width="1" height="1" fill="#161616" />
<rect x="7" y="25" width="1" height="1" fill="#A7A7A7" />
<rect x="8" y="25" width="1" height="1" fill="#4C4C4C" />
<rect x="9" y="25" width="1" height="1" fill="#666666" />
<rect x="10" y="25" width="1" height="1" fill="#737373" />
<rect x="11" y="25" width="1" height="1" fill="#747474" />
<rect x="12" y="25" width="12" height="1" fill="#707070" />
<rect x="24" y="25" width="1" height="1" fill="#4D4D4D" />
<rect x="25" y="25" width="1" height="1" fill="#151515" />
<rect x="7" y="26" width="1" height="1" fill="#A1A1A1" />
<rect x="8" y="26" width="1" height="1" fill="#2E2E2E" />
<rect x="9" y="26" width="16" height="1" fill="#2B2B2B" />
<rect x="25" y="26" width="1" height="1" fill="#383838" />
<rect x="26" y="26" width="1" height="1" fill="#ACACAC" />
</svg>