<?xml version="1.0" encoding="UTF-8" ?>
<svg version="1.1" width="27" height="24" xmlns="http://www.w3.org/2000/svg">
<rect x="9" y="0" width="1" height="1" fill="#ABABAB" />
<rect x="10" y="0" width="13" height="1" fill="#969696" />
<rect x="23" y="0" width="1" height="1" fill="#A3A3A3" />
<rect x="8" y="1" width="1" height="1" fill="#ABABAB" />
<rect x="9" y="1" width="1" height="1" fill="#A6A6A6" />
<rect x="10" y="1" width="1" height="1" fill="#AEAEAE" />
<rect x="11" y="1" width="10" height="1" fill="#BEBEBE" />
<rect x="21" y="1" width="1" height="1" fill="#ADADAD" />
<rect x="22" y="1" width="1" height="1" fill="#747474" />
<rect x="23" y="1" width="1" height="1" fill="#696969" />
<rect x="6" y="2" width="1" height="1" fill="#BDBDBD" />
<rect x="7" y="2" width="1" height="1" fill="#B2B2B2" />
<rect x="8" y="2" width="1" height="1" fill="#9F9F9F" />
<rect x="9" y="2" width="1" height="1" fill="#B8B8B8" />
<rect x="10" y="2" width="1" height="1" fill="#D2D6E1" />
<rect x="11" y="2" width="8" height="1" fill="#C5D2FA" />
<rect x="19" y="2" width="1" height="1" fill="#D0DAF9" />
<rect x="20" y="2" width="1" height="1" fill="#F7F7F8" />
<rect x="21" y="2" width="1" height="1" fill="#AFAFAF" />
<rect x="22" y="2" width="1" height="1" fill="#626262" />
<rect x="23" y="2" width="1" height="1" fill="#5C5C5C" />
<rect x="6" y="3" width="1" height="2" fill="#B5B5B5" />
<rect x="7" y="3" width="1" height="2" fill="#888888" />
<rect x="8" y="3" width="1" height="1" fill="#BABABA" />
<rect x="9" y="3" width="1" height="1" fill="#E3E3E3" />
<rect x="10" y="3" width="1" height="1" fill="#C5D2FA" />
<rect x="11" y="3" width="8" height="1" fill="#396BFF" />
<rect x="19" y="3" width="1" height="1" fill="#6188FD" />
<rect x="20" y="3" width="1" height="1" fill="#F3F4F7" />
<rect x="21" y="3" width="1" height="1" fill="#3D3D3D" />
<rect x="22" y="3" width="1" height="2" fill="#646464" />
<rect x="8" y="4" width="1" height="1" fill="#D3D3D3" />
<rect x="9" y="4" width="1" height="1" fill="#F4F4F4" />
<rect x="10" y="4" width="1" height="1" fill="#EDF0F8" />
<rect x="11" y="4" width="8" height="1" fill="#D1DBF9" />
<rect x="19" y="4" width="1" height="1" fill="#D2DAF2" />
<rect x="20" y="4" width="1" height="1" fill="#D5D5D5" />
<rect x="21" y="4" width="1" height="1" fill="#343434" />
<rect x="5" y="5" width="1" height="1" fill="#B2B2B2" />
<rect x="6" y="5" width="1" height="1" fill="#A2A2A2" />
<rect x="7" y="5" width="1" height="1" fill="#ADADAD" />
<rect x="8" y="5" width="1" height="1" fill="#E4E4E4" />
<rect x="9" y="5" width="1" height="1" fill="#C0C0FA" />
<rect x="10" y="5" width="8" height="1" fill="#8888FC" />
<rect x="18" y="5" width="1" height="1" fill="#B9B9FA" />
<rect x="19" y="5" width="1" height="1" fill="#D6D6D6" />
<rect x="20" y="5" width="1" height="1" fill="#5B5B5B" />
<rect x="21" y="5" width="1" height="1" fill="#686868" />
<rect x="22" y="5" width="1" height="1" fill="#999999" />
<rect x="5" y="6" width="1" height="1" fill="#A8A8A8" />
<rect x="6" y="6" width="1" height="1" fill="#969696" />
<rect x="7" y="6" width="1" height="1" fill="#D7D7D7" />
<rect x="8" y="6" width="1" height="1" fill="#F0F0F0" />
<rect x="9" y="6" width="1" height="1" fill="#B7B7FA" />
<rect x="10" y="6" width="8" height="1" fill="#7777FD" />
<rect x="18" y="6" width="1" height="1" fill="#A9A9F4" />
<rect x="19" y="6" width="1" height="1" fill="#B8B8B8" />
<rect x="20" y="6" width="1" height="1" fill="#050505" />
<rect x="21" y="6" width="1" height="1" fill="#5F5F5F" />
<rect x="22" y="6" width="2" height="1" fill="#7E7E7E" />
<rect x="24" y="6" width="1" height="1" fill="#828282" />
<rect x="25" y="6" width="1" height="1" fill="#B5B5B5" />
<rect x="4" y="7" width="1" height="1" fill="#BCBCBC" />
<rect x="5" y="7" width="1" height="1" fill="#A7A7A7" />
<rect x="6" y="7" width="1" height="1" fill="#A2A2A2" />
<rect x="7" y="7" width="1" height="1" fill="#F3F3F3" />
<rect x="8" y="7" width="1" height="1" fill="#E3E8F4" />
<rect x="9" y="7" width="8" height="1" fill="#DCE2F3" />
<rect x="17" y="7" width="1" height="1" fill="#EFF1F6" />
<rect x="18" y="7" width="1" height="1" fill="#DADADA" />
<rect x="19" y="7" width="1" height="1" fill="#929292" />
<rect x="20" y="7" width="1" height="1" fill="#121212" />
<rect x="21" y="7" width="1" height="1" fill="#0F0F0F" />
<rect x="22" y="7" width="1" height="1" fill="#070707" />
<rect x="23" y="7" width="1" height="1" fill="#050505" />
<rect x="24" y="7" width="1" height="1" fill="#191919" />
<rect x="25" y="7" width="1" height="1" fill="#919191" />
<rect x="26" y="7" width="1" height="1" fill="#B7B7B7" />
<rect x="4" y="8" width="1" height="1" fill="#9F9F9F" />
<rect x="5" y="8" width="1" height="1" fill="#A4A4A4" />
<rect x="6" y="8" width="1" height="1" fill="#CECECE" />
<rect x="7" y="8" width="1" height="1" fill="#F6F6F6" />
<rect x="8" y="8" width="1" height="1" fill="#5778DB" />
<rect x="9" y="8" width="8" height="1" fill="#1C49D1" />
<rect x="17" y="8" width="1" height="1" fill="#AFBEEB" />
<rect x="18" y="8" width="1" height="1" fill="#959595" />
<rect x="19" y="8" width="1" height="1" fill="#2B2B2B" />
<rect x="20" y="8" width="1" height="1" fill="#757575" />
<rect x="21" y="8" width="1" height="1" fill="#777777" />
<rect x="22" y="8" width="1" height="1" fill="#393939" />
<rect x="23" y="8" width="1" height="1" fill="#232323" />
<rect x="24" y="8" width="1" height="1" fill="#707070" />
<rect x="25" y="8" width="1" height="1" fill="#262626" />
<rect x="26" y="8" width="1" height="1" fill="#7D7D7D" />
<rect x="4" y="9" width="1" height="1" fill="#9B9B9B" />
<rect x="5" y="9" width="1" height="1" fill="#AFAFAF" />
<rect x="6" y="9" width="1" height="1" fill="#ECECEC" />
<rect x="7" y="9" width="1" height="1" fill="#F7F7F7" />
<rect x="8" y="9" width="1" height="1" fill="#BAC7ED" />
<rect x="9" y="9" width="8" height="1" fill="#A3B4E9" />
<rect x="17" y="9" width="1" height="1" fill="#DCE2F3" />
<rect x="18" y="9" width="1" height="1" fill="#8B8B8B" />
<rect x="19" y="9" width="1" height="1" fill="#1C1C1C" />
<rect x="20" y="9" width="1" height="1" fill="#838383" />
<rect x="21" y="9" width="2" height="1" fill="#444444" />
<rect x="23" y="9" width="1" height="1" fill="#4C4C4C" />
<rect x="24" y="9" width="1" height="1" fill="#2B2B2B" />
<rect x="25" y="9" width="1" height="1" fill="#080808" />
<rect x="26" y="9" width="1" height="5" fill="#757575" />
<rect x="1" y="10" width="1" height="1" fill="#B8B8B8" />
<rect x="2" y="10" width="2" height="1" fill="#A7A7A7" />
<rect x="4" y="10" width="1" height="1" fill="#929292" />
<rect x="5" y="10" width="1" height="1" fill="#A1A1A1" />
<rect x="6" y="10" width="12" height="1" fill="#C7C7C7" />
<rect x="18" y="10" width="1" height="1" fill="#898989" />
<rect x="19" y="10" width="1" height="1" fill="#3D3D3D" />
<rect x="20" y="10" width="1" height="1" fill="#4D4D4D" />
<rect x="21" y="10" width="1" height="1" fill="#3E3E3E" />
<rect x="22" y="10" width="1" height="1" fill="#434343" />
<rect x="23" y="10" width="1" height="1" fill="#474747" />
<rect x="24" y="10" width="1" height="1" fill="#353535" />
<rect x="25" y="10" width="1" height="1" fill="#090909" />
<rect x="0" y="11" width="1" height="1" fill="#BABABA" />
<rect x="1" y="11" width="1" height="1" fill="#ADADAD" />
<rect x="2" y="11" width="3" height="1" fill="#9D9D9D" />
<rect x="5" y="11" width="1" height="1" fill="#9C9C9C" />
<rect x="6" y="11" width="3" height="1" fill="#9A9A9A" />
<rect x="9" y="11" width="1" height="1" fill="#999999" />
<rect x="10" y="11" width="3" height="1" fill="#979797" />
<rect x="13" y="11" width="1" height="1" fill="#959595" />
<rect x="14" y="11" width="4" height="1" fill="#949494" />
<rect x="18" y="11" width="1" height="1" fill="#828282" />
<rect x="19" y="11" width="1" height="1" fill="#5A5A5A" />
<rect x="20" y="11" width="1" height="1" fill="#1C1C1C" />
<rect x="21" y="11" width="1" height="1" fill="#575757" />
<rect x="22" y="11" width="1" height="1" fill="#414141" />
<rect x="23" y="11" width="1" height="1" fill="#3B3B3B" />
<rect x="24" y="11" width="1" height="3" fill="#7D7D7D" />
<rect x="25" y="11" width="1" height="3" fill="#161616" />
<rect x="0" y="12" width="1" height="1" fill="#A1A1A1" />
<rect x="1" y="12" width="1" height="1" fill="#ACACAC" />
<rect x="2" y="12" width="3" height="1" fill="#F4F4F4" />
<rect x="5" y="12" width="1" height="1" fill="#EFEFEF" />
<rect x="6" y="12" width="3" height="1" fill="#E7E7E7" />
<rect x="9" y="12" width="1" height="1" fill="#E1E1E1" />
<rect x="10" y="12" width="3" height="1" fill="#DADADA" />
<rect x="13" y="12" width="1" height="1" fill="#D1D1D1" />
<rect x="14" y="12" width="4" height="1" fill="#CACACA" />
<rect x="18" y="12" width="1" height="1" fill="#737373" />
<rect x="19" y="12" width="1" height="1" fill="#1F1F1F" />
<rect x="20" y="12" width="1" height="1" fill="#7F7F7F" />
<rect x="21" y="12" width="1" height="1" fill="#232323" />
<rect x="22" y="12" width="1" height="1" fill="#464646" />
<rect x="23" y="12" width="1" height="1" fill="#838383" />
<rect x="0" y="13" width="1" height="5" fill="#A0A0A0" />
<rect x="1" y="13" width="1" height="1" fill="#909090" />
<rect x="2" y="13" width="3" height="1" fill="#A3A3A3" />
<rect x="5" y="13" width="1" height="1" fill="#A2A2A2" />
<rect x="6" y="13" width="3" height="1" fill="#A0A0A0" />
<rect x="9" y="13" width="1" height="1" fill="#9E9E9E" />
<rect x="10" y="13" width="3" height="1" fill="#9C9C9C" />
<rect x="13" y="13" width="1" height="1" fill="#9A9A9A" />
<rect x="14" y="13" width="4" height="1" fill="#989898" />
<rect x="18" y="13" width="1" height="1" fill="#818181" />
<rect x="19" y="13" width="1" height="1" fill="#565656" />
<rect x="20" y="13" width="1" height="1" fill="#242424" />
<rect x="21" y="13" width="1" height="1" fill="#535353" />
<rect x="22" y="13" width="1" height="1" fill="#767676" />
<rect x="23" y="13" width="1" height="1" fill="#868686" />
<rect x="1" y="14" width="1" height="1" fill="#999999" />
<rect x="2" y="14" width="3" height="1" fill="#C0C0C0" />
<rect x="5" y="14" width="1" height="1" fill="#BDBDBD" />
<rect x="6" y="14" width="2" height="1" fill="#B9B9B9" />
<rect x="8" y="14" width="1" height="1" fill="#B4B4B4" />
<rect x="9" y="14" width="1" height="1" fill="#B3B3B3" />
<rect x="10" y="14" width="1" height="1" fill="#B0B0B0" />
<rect x="11" y="14" width="6" height="1" fill="#AAAAAA" />
<rect x="17" y="14" width="1" height="1" fill="#A1A1A1" />
<rect x="18" y="14" width="1" height="1" fill="#9D9D9D" />
<rect x="19" y="14" width="1" height="1" fill="#7C7C7C" />
<rect x="20" y="14" width="1" height="4" fill="#030303" />
<rect x="21" y="14" width="1" height="2" fill="#656565" />
<rect x="22" y="14" width="1" height="1" fill="#868686" />
<rect x="23" y="14" width="1" height="1" fill="#727272" />
<rect x="24" y="14" width="1" height="1" fill="#444444" />
<rect x="25" y="14" width="1" height="1" fill="#5D5D5D" />
<rect x="26" y="14" width="1" height="1" fill="#9B9B9B" />
<rect x="1" y="15" width="1" height="3" fill="#ACACAC" />
<rect x="2" y="15" width="2" height="1" fill="#F8F8F8" />
<rect x="4" y="15" width="1" height="1" fill="#F5F5F5" />
<rect x="5" y="15" width="1" height="1" fill="#F0F0F0" />
<rect x="6" y="15" width="1" height="1" fill="#E9E9E9" />
<rect x="7" y="15" width="1" height="1" fill="#E6E6E6" />
<rect x="8" y="15" width="1" height="1" fill="#E0E0E0" />
<rect x="9" y="15" width="1" height="1" fill="#DBDBDB" />
<rect x="10" y="15" width="1" height="1" fill="#D5D5D5" />
<rect x="11" y="15" width="1" height="1" fill="#CACBCA" />
<rect x="12" y="15" width="1" height="1" fill="#9DBB9D" />
<rect x="13" y="15" width="4" height="1" fill="#93B793" />
<rect x="17" y="15" width="1" height="1" fill="#A8B4A8" />
<rect x="18" y="15" width="1" height="3" fill="#B2B2B2" />
<rect x="19" y="15" width="1" height="3" fill="#8C8C8C" />
<rect x="22" y="15" width="1" height="1" fill="#727272" />
<rect x="23" y="15" width="1" height="1" fill="#444444" />
<rect x="24" y="15" width="1" height="4" fill="#0D0D0D" />
<rect x="25" y="15" width="1" height="4" fill="#A0A0A0" />
<rect x="2" y="16" width="1" height="1" fill="#F8F8F8" />
<rect x="3" y="16" width="1" height="1" fill="#F7F7F7" />
<rect x="4" y="16" width="1" height="1" fill="#EFEFEF" />
<rect x="5" y="16" width="1" height="1" fill="#EAEAEA" />
<rect x="6" y="16" width="1" height="1" fill="#E7E7E7" />
<rect x="7" y="16" width="1" height="1" fill="#DEDEDE" />
<rect x="8" y="16" width="1" height="1" fill="#DCDCDC" />
<rect x="9" y="16" width="1" height="1" fill="#D4D4D4" />
<rect x="10" y="16" width="1" height="2" fill="#CCCCCC" />
<rect x="11" y="16" width="1" height="1" fill="#C3C9C3" />
<rect x="12" y="16" width="1" height="1" fill="#269426" />
<rect x="13" y="16" width="4" height="1" fill="#008700" />
<rect x="17" y="16" width="1" height="1" fill="#77A477" />
<rect x="21" y="16" width="1" height="1" fill="#5F5F5F" />
<rect x="22" y="16" width="1" height="1" fill="#3F3F3F" />
<rect x="23" y="16" width="1" height="1" fill="#040404" />
<rect x="2" y="17" width="1" height="1" fill="#F7F7F7" />
<rect x="3" y="17" width="1" height="1" fill="#EEEEEE" />
<rect x="4" y="17" width="1" height="1" fill="#EBEBEB" />
<rect x="5" y="17" width="1" height="1" fill="#E6E6E6" />
<rect x="6" y="17" width="1" height="1" fill="#DFDFDF" />
<rect x="7" y="17" width="1" height="1" fill="#DDDDDD" />
<rect x="8" y="17" width="1" height="1" fill="#D3D3D3" />
<rect x="9" y="17" width="1" height="1" fill="#CDCDCD" />
<rect x="11" y="17" width="1" height="1" fill="#C3CDC3" />
<rect x="12" y="17" width="1" height="1" fill="#26E326" />
<rect x="13" y="17" width="4" height="1" fill="#00E900" />
<rect x="17" y="17" width="1" height="1" fill="#77C477" />
<rect x="21" y="17" width="1" height="1" fill="#121212" />
<rect x="22" y="17" width="1" height="1" fill="#343434" />
<rect x="23" y="17" width="1" height="1" fill="#373737" />
<rect x="0" y="18" width="1" height="1" fill="#737373" />
<rect x="1" y="18" width="1" height="1" fill="#454545" />
<rect x="2" y="18" width="1" height="1" fill="#636363" />
<rect x="3" y="18" width="1" height="1" fill="#5F5F5F" />
<rect x="4" y="18" width="1" height="1" fill="#5E5E5E" />
<rect x="5" y="18" width="1" height="1" fill="#5C5C5C" />
<rect x="6" y="18" width="2" height="1" fill="#595959" />
<rect x="8" y="18" width="1" height="1" fill="#545454" />
<rect x="9" y="18" width="2" height="1" fill="#525252" />
<rect x="11" y="18" width="1" height="1" fill="#4F534F" />
<rect x="12" y="18" width="1" height="1" fill="#0F630F" />
<rect x="13" y="18" width="4" height="1" fill="#006700" />
<rect x="17" y="18" width="1" height="1" fill="#305230" />
<rect x="18" y="18" width="1" height="1" fill="#484848" />
<rect x="19" y="18" width="1" height="1" fill="#393939" />
<rect x="20" y="18" width="1" height="1" fill="#010101" />
<rect x="21" y="18" width="1" height="1" fill="#2B2B2B" />
<rect x="22" y="18" width="1" height="2" fill="#4D4D4D" />
<rect x="23" y="18" width="1" height="1" fill="#434343" />
<rect x="0" y="19" width="1" height="1" fill="#7C7C7C" />
<rect x="1" y="19" width="1" height="1" fill="#3F3F3F" />
<rect x="2" y="19" width="1" height="1" fill="#353535" />
<rect x="3" y="19" width="1" height="1" fill="#565656" />
<rect x="4" y="19" width="1" height="1" fill="#585858" />
<rect x="5" y="19" width="1" height="1" fill="#545454" />
<rect x="6" y="19" width="2" height="1" fill="#515151" />
<rect x="8" y="19" width="1" height="1" fill="#4D4D4D" />
<rect x="9" y="19" width="2" height="1" fill="#4B4B4B" />
<rect x="11" y="19" width="1" height="1" fill="#4A4A4A" />
<rect x="12" y="19" width="1" height="1" fill="#434343" />
<rect x="13" y="19" width="5" height="1" fill="#414141" />
<rect x="18" y="19" width="1" height="1" fill="#252525" />
<rect x="19" y="19" width="1" height="1" fill="#070707" />
<rect x="20" y="19" width="1" height="1" fill="#222222" />
<rect x="21" y="19" width="1" height="1" fill="#505050" />
<rect x="23" y="19" width="1" height="1" fill="#3F3F3F" />
<rect x="24" y="19" width="1" height="1" fill="#4F4F4F" />
<rect x="25" y="19" width="1" height="1" fill="#ACACAC" />
<rect x="1" y="20" width="1" height="2" fill="#ADADAD" />
<rect x="2" y="20" width="1" height="2" fill="#929292" />
<rect x="3" y="20" width="1" height="2" fill="#EAEAEA" />
<rect x="4" y="20" width="1" height="2" fill="#EFEFEF" />
<rect x="5" y="20" width="1" height="2" fill="#E5E5E5" />
<rect x="6" y="20" width="2" height="2" fill="#DDDDDD" />
<rect x="8" y="20" width="1" height="2" fill="#D1D1D1" />
<rect x="9" y="20" width="2" height="2" fill="#CCCCCC" />
<rect x="11" y="20" width="1" height="2" fill="#CBCBCB" />
<rect x="12" y="20" width="1" height="2" fill="#B7B7B7" />
<rect x="13" y="20" width="5" height="2" fill="#B2B2B2" />
<rect x="18" y="20" width="1" height="2" fill="#636363" />
<rect x="19" y="20" width="1" height="2" fill="#141414" />
<rect x="20" y="20" width="1" height="2" fill="#5D5D5D" />
<rect x="21" y="20" width="1" height="1" fill="#555555" />
<rect x="22" y="20" width="1" height="1" fill="#353535" />
<rect x="23" y="20" width="1" height="1" fill="#4B4B4B" />
<rect x="21" y="21" width="1" height="1" fill="#1E1E1E" />
<rect x="22" y="21" width="1" height="1" fill="#606060" />
<rect x="23" y="21" width="1" height="1" fill="#B4B4B4" />
<rect x="1" y="22" width="1" height="1" fill="#BABABA" />
<rect x="2" y="22" width="1" height="1" fill="#A4A4A4" />
<rect x="3" y="22" width="1" height="1" fill="#5B5B5B" />
<rect x="4" y="22" width="1" height="1" fill="#4D4D4D" />
<rect x="5" y="22" width="1" height="1" fill="#494949" />
<rect x="6" y="22" width="2" height="1" fill="#474747" />
<rect x="8" y="22" width="1" height="1" fill="#434343" />
<rect x="9" y="22" width="3" height="1" fill="#414141" />
<rect x="12" y="22" width="1" height="1" fill="#3B3B3B" />
<rect x="13" y="22" width="5" height="1" fill="#393939" />
<rect x="18" y="22" width="1" height="1" fill="#202020" />
<rect x="19" y="22" width="1" height="1" fill="#060606" />
<rect x="20" y="22" width="1" height="1" fill="#1E1E1E" />
<rect x="21" y="22" width="1" height="1" fill="#6A6A6A" />
<rect x="22" y="22" width="1" height="1" fill="#A3A3A3" />
<rect x="2" y="23" width="1" height="1" fill="#B5B5B5" />
<rect x="3" y="23" width="1" height="1" fill="#646464" />
<rect x="4" y="23" width="17" height="1" fill="#575757" />
<rect x="21" y="23" width="1" height="1" fill="#A6A6A6" />
</svg>
