<?xml version="1.0" encoding="UTF-8" ?>
<svg version="1.1" width="22" height="25" xmlns="http://www.w3.org/2000/svg">
<rect x="0" y="0" width="1" height="1" fill="#9E9E9E" />
<rect x="1" y="0" width="15" height="1" fill="#969696" />
<rect x="16" y="0" width="1" height="1" fill="#9D9D9D" />
<rect x="0" y="1" width="1" height="22" fill="#919191" />
<rect x="1" y="1" width="1" height="1" fill="#A7A7A7" />
<rect x="2" y="1" width="10" height="1" fill="#BEBEBE" />
<rect x="12" y="1" width="1" height="1" fill="#BEBEBB" />
<rect x="13" y="1" width="1" height="1" fill="#C1C197" />
<rect x="14" y="1" width="1" height="1" fill="#BFBFAC" />
<rect x="15" y="1" width="1" height="1" fill="#A9A9A9" />
<rect x="16" y="1" width="1" height="1" fill="#818181" />
<rect x="17" y="1" width="1" height="1" fill="#656565" />
<rect x="1" y="2" width="1" height="20" fill="#C9C9C9" />
<rect x="2" y="2" width="9" height="1" fill="#F8F8F8" />
<rect x="11" y="2" width="1" height="1" fill="#F9F9F1" />
<rect x="12" y="2" width="1" height="1" fill="#FAFADC" />
<rect x="13" y="2" width="1" height="1" fill="#FDFDB9" />
<rect x="14" y="2" width="1" height="1" fill="#FBFBCE" />
<rect x="15" y="2" width="1" height="1" fill="#CECEBE" />
<rect x="16" y="2" width="1" height="1" fill="#7B7B7B" />
<rect x="17" y="2" width="1" height="1" fill="#454545" />
<rect x="18" y="2" width="1" height="1" fill="#767676" />
<rect x="2" y="3" width="8" height="4" fill="#F8F8F8" />
<rect x="10" y="3" width="1" height="1" fill="#F8F8F6" />
<rect x="11" y="3" width="1" height="1" fill="#FAFADB" />
<rect x="12" y="3" width="1" height="1" fill="#FEFEA2" />
<rect x="13" y="3" width="1" height="1" fill="#F9F9E6" />
<rect x="14" y="3" width="1" height="1" fill="#FCFCBF" />
<rect x="15" y="3" width="1" height="1" fill="#D1D194" />
<rect x="16" y="3" width="1" height="2" fill="#979797" />
<rect x="17" y="3" width="1" height="2" fill="#EFEFEF" />
<rect x="18" y="3" width="1" height="1" fill="#525252" />
<rect x="19" y="3" width="1" height="1" fill="#5B5B5B" />
<rect x="10" y="4" width="1" height="1" fill="#FBFBD0" />
<rect x="11" y="4" width="1" height="1" fill="#FCFCBD" />
<rect x="12" y="4" width="1" height="1" fill="#FAFAE1" />
<rect x="13" y="4" width="1" height="1" fill="#FDFDB5" />
<rect x="14" y="4" width="1" height="1" fill="#FBFBCF" />
<rect x="15" y="4" width="1" height="1" fill="#CECEC1" />
<rect x="18" y="4" width="1" height="1" fill="#D6D6D6" />
<rect x="19" y="4" width="1" height="1" fill="#7C7C7C" />
<rect x="20" y="4" width="1" height="1" fill="#4A4A4A" />
<rect x="10" y="5" width="1" height="1" fill="#BFDD99" />
<rect x="11" y="5" width="1" height="1" fill="#ACD568" />
<rect x="12" y="5" width="1" height="1" fill="#FCFCC3" />
<rect x="13" y="5" width="1" height="1" fill="#FBFBCD" />
<rect x="14" y="5" width="1" height="1" fill="#FCFCC7" />
<rect x="15" y="5" width="1" height="1" fill="#B2B28E" />
<rect x="16" y="5" width="1" height="1" fill="#414141" />
<rect x="17" y="5" width="1" height="1" fill="#676767" />
<rect x="18" y="5" width="1" height="1" fill="#6B6B6B" />
<rect x="19" y="5" width="1" height="1" fill="#393939" />
<rect x="20" y="5" width="1" height="1" fill="#131313" />
<rect x="21" y="5" width="1" height="1" fill="#535353" />
<rect x="10" y="6" width="1" height="1" fill="#91C676" />
<rect x="11" y="6" width="1" height="1" fill="#5BAD1E" />
<rect x="12" y="6" width="1" height="1" fill="#BDDE6C" />
<rect x="13" y="6" width="1" height="1" fill="#F0F5C4" />
<rect x="14" y="6" width="1" height="1" fill="#FCFCC5" />
<rect x="15" y="6" width="1" height="1" fill="#BEBE87" />
<rect x="16" y="6" width="1" height="1" fill="#555537" />
<rect x="17" y="6" width="1" height="1" fill="#474745" />
<rect x="18" y="6" width="2" height="1" fill="#464646" />
<rect x="20" y="6" width="1" height="1" fill="#363636" />
<rect x="21" y="6" width="1" height="18" fill="#010101" />
<rect x="2" y="7" width="5" height="2" fill="#F8F8F8" />
<rect x="7" y="7" width="1" height="1" fill="#F3F6F2" />
<rect x="8" y="7" width="2" height="1" fill="#E2EDDC" />
<rect x="10" y="7" width="1" height="1" fill="#86C169" />
<rect x="11" y="7" width="1" height="3" fill="#339900" />
<rect x="12" y="7" width="1" height="1" fill="#3F9F09" />
<rect x="13" y="7" width="1" height="1" fill="#CAE571" />
<rect x="14" y="7" width="1" height="1" fill="#F2F7C6" />
<rect x="15" y="7" width="1" height="1" fill="#FBFBD1" />
<rect x="16" y="7" width="1" height="1" fill="#F7F7A9" />
<rect x="17" y="7" width="1" height="1" fill="#D5D5C4" />
<rect x="18" y="7" width="1" height="1" fill="#D1D1CE" />
<rect x="19" y="7" width="1" height="1" fill="#CFCFCF" />
<rect x="20" y="7" width="1" height="16" fill="#9C9C9C" />
<rect x="7" y="8" width="1" height="1" fill="#D3E6CA" />
<rect x="8" y="8" width="1" height="1" fill="#4DA520" />
<rect x="9" y="8" width="1" height="1" fill="#49A41C" />
<rect x="10" y="8" width="1" height="1" fill="#3E9E0D" />
<rect x="12" y="8" width="1" height="1" fill="#359A01" />
<rect x="13" y="8" width="1" height="1" fill="#46A30E" />
<rect x="14" y="8" width="1" height="1" fill="#B8DB6B" />
<rect x="15" y="8" width="1" height="1" fill="#FCFCC0" />
<rect x="16" y="8" width="1" height="1" fill="#F9F9E1" />
<rect x="17" y="8" width="1" height="1" fill="#F9F9A5" />
<rect x="18" y="8" width="1" height="1" fill="#F5F5D9" />
<rect x="19" y="8" width="1" height="1" fill="#E1E1E1" />
<rect x="2" y="9" width="3" height="1" fill="#F8F8F8" />
<rect x="5" y="9" width="1" height="1" fill="#FBFBCE" />
<rect x="6" y="9" width="1" height="1" fill="#B3D0AB" />
<rect x="7" y="9" width="1" height="1" fill="#479886" />
<rect x="8" y="9" width="1" height="1" fill="#139945" />
<rect x="9" y="9" width="1" height="1" fill="#8CC88B" />
<rect x="10" y="9" width="1" height="1" fill="#71B74E" />
<rect x="12" y="9" width="1" height="1" fill="#3C9D07" />
<rect x="13" y="9" width="1" height="1" fill="#A3D154" />
<rect x="14" y="9" width="1" height="1" fill="#E1EFAA" />
<rect x="15" y="9" width="1" height="1" fill="#FBFBCC" />
<rect x="16" y="9" width="1" height="1" fill="#FCFCBE" />
<rect x="17" y="9" width="1" height="1" fill="#FBFBD5" />
<rect x="18" y="9" width="1" height="1" fill="#FCFCC3" />
<rect x="19" y="9" width="1" height="1" fill="#E6E6C2" />
<rect x="2" y="10" width="1" height="1" fill="#F8F8F8" />
<rect x="3" y="10" width="1" height="1" fill="#F8F8F3" />
<rect x="4" y="10" width="1" height="1" fill="#FBFBD4" />
<rect x="5" y="10" width="1" height="1" fill="#FCFCC6" />
<rect x="6" y="10" width="1" height="1" fill="#8DBA99" />
<rect x="7" y="10" width="1" height="1" fill="#167973" />
<rect x="8" y="10" width="1" height="1" fill="#68C0A3" />
<rect x="9" y="10" width="1" height="1" fill="#D7EDC5" />
<rect x="10" y="10" width="1" height="1" fill="#92C863" />
<rect x="11" y="10" width="1" height="1" fill="#4DA613" />
<rect x="12" y="10" width="1" height="1" fill="#91C84A" />
<rect x="13" y="10" width="1" height="1" fill="#E9F3AC" />
<rect x="14" y="10" width="2" height="1" fill="#FBFBCA" />
<rect x="16" y="10" width="1" height="1" fill="#FCFCC4" />
<rect x="17" y="10" width="1" height="1" fill="#FBFBCE" />
<rect x="18" y="10" width="1" height="1" fill="#FCFCC6" />
<rect x="19" y="10" width="1" height="1" fill="#E6E6C6" />
<rect x="2" y="11" width="1" height="1" fill="#F8F8F1" />
<rect x="3" y="11" width="1" height="1" fill="#FAFADE" />
<rect x="4" y="11" width="1" height="1" fill="#FDFDB2" />
<rect x="5" y="11" width="1" height="1" fill="#FBFBD2" />
<rect x="6" y="11" width="1" height="1" fill="#8BB8AD" />
<rect x="7" y="11" width="1" height="1" fill="#358581" />
<rect x="8" y="11" width="1" height="1" fill="#F5F7E3" />
<rect x="9" y="11" width="1" height="1" fill="#FDFDBA" />
<rect x="10" y="11" width="1" height="1" fill="#A9D462" />
<rect x="11" y="11" width="1" height="1" fill="#8CC548" />
<rect x="12" y="11" width="1" height="1" fill="#FDFDB0" />
<rect x="13" y="11" width="1" height="1" fill="#FAFADC" />
<rect x="14" y="11" width="2" height="1" fill="#FCFCC2" />
<rect x="16" y="11" width="1" height="1" fill="#FAFADC" />
<rect x="17" y="11" width="1" height="1" fill="#FDFDB0" />
<rect x="18" y="11" width="1" height="1" fill="#FBFBD3" />
<rect x="19" y="11" width="1" height="1" fill="#E4E4D9" />
<rect x="2" y="12" width="1" height="1" fill="#FAFAD7" />
<rect x="3" y="12" width="1" height="1" fill="#FEFEA7" />
<rect x="4" y="12" width="1" height="1" fill="#F9F9EC" />
<rect x="5" y="12" width="1" height="1" fill="#FDFDBA" />
<rect x="6" y="12" width="1" height="1" fill="#8EBB84" />
<rect x="7" y="12" width="1" height="1" fill="#368671" />
<rect x="8" y="12" width="1" height="1" fill="#FAFC9B" />
<rect x="9" y="12" width="1" height="1" fill="#FAFADF" />
<rect x="10" y="12" width="1" height="1" fill="#F8FAC2" />
<rect x="11" y="12" width="1" height="1" fill="#F9FBB1" />
<rect x="12" y="12" width="1" height="1" fill="#F9F9EF" />
<rect x="13" y="12" width="1" height="1" fill="#FEFEAB" />
<rect x="14" y="12" width="1" height="1" fill="#FBFBD2" />
<rect x="15" y="12" width="1" height="1" fill="#FBFBD3" />
<rect x="16" y="12" width="1" height="1" fill="#FEFEAA" />
<rect x="17" y="12" width="1" height="1" fill="#F9F9EE" />
<rect x="18" y="12" width="1" height="1" fill="#FDFDB7" />
<rect x="19" y="12" width="1" height="1" fill="#E7E7B2" />
<rect x="2" y="13" width="1" height="1" fill="#F9F9EF" />
<rect x="3" y="13" width="1" height="1" fill="#FAFADA" />
<rect x="4" y="13" width="1" height="1" fill="#FDFDB6" />
<rect x="5" y="13" width="1" height="1" fill="#FBFBD0" />
<rect x="6" y="13" width="1" height="1" fill="#DFEBBB" />
<rect x="7" y="13" width="1" height="1" fill="#CADF9D" />
<rect x="8" y="13" width="1" height="1" fill="#F9F9DE" />
<rect x="9" y="13" width="1" height="1" fill="#FCFCBD" />
<rect x="10" y="13" width="1" height="1" fill="#FBFBCA" />
<rect x="11" y="13" width="1" height="1" fill="#FBFBD2" />
<rect x="12" y="13" width="1" height="1" fill="#FDFDB5" />
<rect x="13" y="13" width="1" height="1" fill="#FAFAD8" />
<rect x="14" y="13" width="1" height="1" fill="#89B7AC" />
<rect x="15" y="13" width="1" height="1" fill="#86B5AB" />
<rect x="16" y="13" width="1" height="1" fill="#FAFAD8" />
<rect x="17" y="13" width="1" height="1" fill="#FDFDB5" />
<rect x="18" y="13" width="1" height="1" fill="#FBFBD1" />
<rect x="19" y="13" width="1" height="1" fill="#E5E5D6" />
<rect x="2" y="14" width="1" height="1" fill="#F9F9E7" />
<rect x="3" y="14" width="1" height="1" fill="#FCFCC8" />
<rect x="4" y="14" width="1" height="1" fill="#FBFBC9" />
<rect x="5" y="14" width="2" height="1" fill="#FCFCC8" />
<rect x="7" y="14" width="1" height="1" fill="#FBFBC9" />
<rect x="8" y="14" width="1" height="1" fill="#FCFCC7" />
<rect x="9" y="14" width="1" height="1" fill="#FBFBC9" />
<rect x="10" y="14" width="1" height="1" fill="#C5E09F" />
<rect x="11" y="14" width="1" height="1" fill="#B2D791" />
<rect x="12" y="14" width="1" height="1" fill="#FBFBC9" />
<rect x="13" y="14" width="1" height="1" fill="#FCFCC8" />
<rect x="14" y="14" width="1" height="1" fill="#62A08C" />
<rect x="15" y="14" width="1" height="1" fill="#5F9F8B" />
<rect x="16" y="14" width="1" height="1" fill="#FCFCC8" />
<rect x="17" y="14" width="1" height="1" fill="#FBFBC9" />
<rect x="18" y="14" width="1" height="1" fill="#FCFCC8" />
<rect x="19" y="14" width="1" height="1" fill="#E5E5CA" />
<rect x="2" y="15" width="1" height="1" fill="#FAFAE0" />
<rect x="3" y="15" width="1" height="1" fill="#FDFDB9" />
<rect x="4" y="15" width="1" height="1" fill="#FAFAD9" />
<rect x="5" y="15" width="1" height="1" fill="#FCFCC2" />
<rect x="6" y="15" width="1" height="1" fill="#FCFCC6" />
<rect x="7" y="15" width="1" height="1" fill="#FBFBD5" />
<rect x="8" y="15" width="1" height="1" fill="#FDFDB5" />
<rect x="9" y="15" width="1" height="1" fill="#CFE5B3" />
<rect x="10" y="15" width="1" height="1" fill="#76BA55" />
<rect x="11" y="15" width="1" height="1" fill="#6EB642" />
<rect x="12" y="15" width="1" height="1" fill="#F6F8D8" />
<rect x="13" y="15" width="1" height="1" fill="#C2E698" />
<rect x="14" y="15" width="1" height="1" fill="#489774" />
<rect x="15" y="15" width="1" height="1" fill="#609F83" />
<rect x="16" y="15" width="1" height="1" fill="#FDFDBA" />
<rect x="17" y="15" width="1" height="1" fill="#FAFADA" />
<rect x="18" y="15" width="1" height="1" fill="#FCFCC1" />
<rect x="19" y="15" width="1" height="1" fill="#E6E6BF" />
<rect x="2" y="16" width="1" height="1" fill="#F8F8F6" />
<rect x="3" y="16" width="1" height="1" fill="#F9F9E8" />
<rect x="4" y="16" width="1" height="1" fill="#FEFEA7" />
<rect x="5" y="16" width="1" height="1" fill="#FAFAD7" />
<rect x="6" y="16" width="1" height="1" fill="#FBFBCD" />
<rect x="7" y="16" width="1" height="1" fill="#FBFCAE" />
<rect x="8" y="16" width="1" height="1" fill="#EEF3E9" />
<rect x="9" y="16" width="1" height="1" fill="#61AF3A" />
<rect x="10" y="16" width="1" height="3" fill="#339900" />
<rect x="11" y="16" width="1" height="1" fill="#6CB62B" />
<rect x="12" y="16" width="1" height="1" fill="#E4F38D" />
<rect x="13" y="16" width="1" height="1" fill="#2AA968" />
<rect x="14" y="16" width="1" height="1" fill="#097F69" />
<rect x="15" y="16" width="1" height="1" fill="#67A2A0" />
<rect x="16" y="16" width="1" height="1" fill="#F9F9E6" />
<rect x="17" y="16" width="1" height="1" fill="#FEFEA5" />
<rect x="18" y="16" width="1" height="1" fill="#FAFAD9" />
<rect x="19" y="16" width="1" height="1" fill="#E4E4E1" />
<rect x="2" y="17" width="1" height="1" fill="#FAFADC" />
<rect x="3" y="17" width="1" height="1" fill="#FDFDB1" />
<rect x="4" y="17" width="1" height="1" fill="#FAFAE1" />
<rect x="5" y="17" width="1" height="1" fill="#FCFCBE" />
<rect x="6" y="17" width="1" height="1" fill="#FCFCC5" />
<rect x="7" y="17" width="1" height="1" fill="#D7E8C0" />
<rect x="8" y="17" width="1" height="1" fill="#59AB2F" />
<rect x="9" y="17" width="1" height="1" fill="#3C9D0B" />
<rect x="11" y="17" width="1" height="1" fill="#3E9E08" />
<rect x="12" y="17" width="1" height="1" fill="#54AA1A" />
<rect x="13" y="17" width="1" height="1" fill="#319C13" />
<rect x="14" y="17" width="1" height="1" fill="#8DC38E" />
<rect x="15" y="17" width="1" height="1" fill="#DFEACA" />
<rect x="16" y="17" width="1" height="1" fill="#FDFDB3" />
<rect x="17" y="17" width="1" height="1" fill="#FAFAE2" />
<rect x="18" y="17" width="1" height="1" fill="#FCFCBD" />
<rect x="19" y="17" width="1" height="1" fill="#E7E7BA" />
<rect x="2" y="18" width="1" height="1" fill="#F9F9EA" />
<rect x="3" y="18" width="1" height="1" fill="#FBFBCF" />
<rect x="4" y="18" width="1" height="1" fill="#FCFCC1" />
<rect x="5" y="18" width="1" height="1" fill="#FBFBCC" />
<rect x="6" y="18" width="1" height="2" fill="#FBFBCA" />
<rect x="7" y="18" width="1" height="1" fill="#EBF3B6" />
<rect x="8" y="18" width="1" height="1" fill="#AAD395" />
<rect x="9" y="18" width="1" height="1" fill="#50A724" />
<rect x="11" y="18" width="1" height="1" fill="#57AB1B" />
<rect x="12" y="18" width="1" height="1" fill="#ADD65F" />
<rect x="13" y="18" width="1" height="1" fill="#A9D28B" />
<rect x="14" y="18" width="1" height="1" fill="#DCECAE" />
<rect x="15" y="18" width="1" height="1" fill="#FCFCC6" />
<rect x="16" y="18" width="1" height="1" fill="#FBFBCF" />
<rect x="17" y="18" width="1" height="1" fill="#FCFCC1" />
<rect x="18" y="18" width="1" height="1" fill="#FBFBCC" />
<rect x="19" y="18" width="1" height="1" fill="#E5E5CF" />
<rect x="2" y="19" width="1" height="1" fill="#F9F9EC" />
<rect x="3" y="19" width="1" height="1" fill="#FBFBD2" />
<rect x="4" y="19" width="1" height="1" fill="#FCFCBE" />
<rect x="5" y="19" width="1" height="1" fill="#FBFBCD" />
<rect x="7" y="19" width="1" height="1" fill="#FCFCC1" />
<rect x="8" y="19" width="1" height="1" fill="#FBFBD5" />
<rect x="9" y="19" width="1" height="1" fill="#9BCB79" />
<rect x="10" y="19" width="1" height="1" fill="#55AA2B" />
<rect x="11" y="19" width="1" height="1" fill="#6FB738" />
<rect x="12" y="19" width="1" height="1" fill="#FCFCBE" />
<rect x="13" y="19" width="1" height="1" fill="#FBFBD1" />
<rect x="14" y="19" width="1" height="1" fill="#FCFCC6" />
<rect x="15" y="19" width="1" height="1" fill="#FCFCC5" />
<rect x="16" y="19" width="1" height="1" fill="#FBFBD1" />
<rect x="17" y="19" width="1" height="1" fill="#FCFCBE" />
<rect x="18" y="19" width="1" height="1" fill="#FBFBCD" />
<rect x="19" y="19" width="1" height="1" fill="#E5E5D1" />
<rect x="2" y="20" width="1" height="1" fill="#FAFADB" />
<rect x="3" y="20" width="1" height="1" fill="#FDFDAF" />
<rect x="4" y="20" width="1" height="1" fill="#F9F9E4" />
<rect x="5" y="20" width="1" height="1" fill="#FCFCBD" />
<rect x="6" y="20" width="1" height="1" fill="#FCFCC4" />
<rect x="7" y="20" width="1" height="1" fill="#FAFADC" />
<rect x="8" y="20" width="1" height="1" fill="#FEFEA7" />
<rect x="9" y="20" width="1" height="1" fill="#FAFADA" />
<rect x="10" y="20" width="1" height="1" fill="#9FCE82" />
<rect x="11" y="20" width="1" height="1" fill="#81BF5E" />
<rect x="12" y="20" width="1" height="1" fill="#F9F9E6" />
<rect x="13" y="20" width="1" height="1" fill="#FDFDB1" />
<rect x="14" y="20" width="1" height="1" fill="#FBFBD0" />
<rect x="15" y="20" width="1" height="1" fill="#FBFBD1" />
<rect x="16" y="20" width="1" height="1" fill="#FDFDB1" />
<rect x="17" y="20" width="1" height="1" fill="#F9F9E6" />
<rect x="18" y="20" width="1" height="1" fill="#FCFCBB" />
<rect x="19" y="20" width="1" height="1" fill="#E7E7B8" />
<rect x="2" y="21" width="1" height="1" fill="#F8F8F5" />
<rect x="3" y="21" width="1" height="1" fill="#F9F9E6" />
<rect x="4" y="21" width="1" height="1" fill="#FEFEA9" />
<rect x="5" y="21" width="1" height="1" fill="#FBFBD6" />
<rect x="6" y="21" width="1" height="1" fill="#FBFBCD" />
<rect x="7" y="21" width="1" height="1" fill="#FDFDB2" />
<rect x="8" y="21" width="1" height="1" fill="#F9F9EE" />
<rect x="9" y="21" width="1" height="1" fill="#FDFDB5" />
<rect x="10" y="21" width="1" height="1" fill="#F2F7C3" />
<rect x="11" y="21" width="1" height="1" fill="#EDF4CF" />
<rect x="12" y="21" width="1" height="1" fill="#FEFEA7" />
<rect x="13" y="21" width="1" height="1" fill="#FAFAE3" />
<rect x="14" y="21" width="1" height="1" fill="#FCFCC0" />
<rect x="15" y="21" width="1" height="1" fill="#FCFCBF" />
<rect x="16" y="21" width="1" height="1" fill="#F9F9E4" />
<rect x="17" y="21" width="1" height="1" fill="#FEFEA8" />
<rect x="18" y="21" width="1" height="1" fill="#FAFAD7" />
<rect x="19" y="21" width="1" height="1" fill="#E4E4DF" />
<rect x="1" y="22" width="1" height="1" fill="#B7B7B7" />
<rect x="2" y="22" width="1" height="1" fill="#DADADA" />
<rect x="3" y="22" width="1" height="1" fill="#DADAD6" />
<rect x="4" y="22" width="1" height="1" fill="#DCDCBF" />
<rect x="5" y="22" width="1" height="1" fill="#DBDBD0" />
<rect x="6" y="22" width="1" height="1" fill="#DBDBCD" />
<rect x="7" y="22" width="1" height="1" fill="#DCDCC2" />
<rect x="8" y="22" width="1" height="1" fill="#DADAD9" />
<rect x="9" y="22" width="1" height="1" fill="#DCDCC3" />
<rect x="10" y="22" width="1" height="1" fill="#DBDBCC" />
<rect x="11" y="22" width="1" height="1" fill="#DBDBD1" />
<rect x="12" y="22" width="1" height="1" fill="#DCDCBE" />
<rect x="13" y="22" width="1" height="1" fill="#DADAD5" />
<rect x="14" y="22" width="1" height="1" fill="#DBDBC8" />
<rect x="15" y="22" width="1" height="1" fill="#DBDBC7" />
<rect x="16" y="22" width="1" height="1" fill="#DADAD5" />
<rect x="17" y="22" width="1" height="1" fill="#DCDCBE" />
<rect x="18" y="22" width="1" height="1" fill="#DBDBD1" />
<rect x="19" y="22" width="1" height="1" fill="#D4D4D4" />
<rect x="0" y="23" width="2" height="1" fill="#606060" />
<rect x="2" y="23" width="18" height="1" fill="#707070" />
<rect x="20" y="23" width="1" height="1" fill="#555555" />
<rect x="0" y="24" width="1" height="1" fill="#474747" />
<rect x="1" y="24" width="20" height="1" fill="#2B2B2B" />
<rect x="21" y="24" width="1" height="1" fill="#2C2C2C" />
</svg>
