<?xml version="1.0" encoding="UTF-8" ?>
<svg version="1.1" width="27" height="27" xmlns="http://www.w3.org/2000/svg">
<rect x="7" y="0" width="1" height="1" fill="#BEBFBD" />
<rect x="8" y="0" width="1" height="1" fill="#ABB3A3" />
<rect x="9" y="0" width="6" height="1" fill="#A7B09E" />
<rect x="15" y="0" width="1" height="1" fill="#A7B0A9" />
<rect x="16" y="0" width="1" height="1" fill="#A8B0CB" />
<rect x="17" y="0" width="1" height="1" fill="#BBBDC2" />
<rect x="7" y="1" width="1" height="1" fill="#B6B9B2" />
<rect x="8" y="1" width="1" height="1" fill="#4F7826" />
<rect x="9" y="1" width="6" height="1" fill="#3B6B0A" />
<rect x="15" y="1" width="1" height="1" fill="#3B6B46" />
<rect x="16" y="1" width="1" height="1" fill="#3D6DFA" />
<rect x="17" y="1" width="1" height="1" fill="#A4AECD" />
<rect x="5" y="2" width="1" height="1" fill="#8A9D76" />
<rect x="6" y="2" width="1" height="1" fill="#5B7F36" />
<rect x="7" y="2" width="1" height="1" fill="#638640" />
<rect x="8" y="2" width="1" height="1" fill="#B1C39F" />
<rect x="9" y="2" width="2" height="1" fill="#C1CFB2" />
<rect x="11" y="2" width="1" height="1" fill="#B5D0A7" />
<rect x="12" y="2" width="1" height="1" fill="#81D473" />
<rect x="13" y="2" width="2" height="1" fill="#7CD46E" />
<rect x="15" y="2" width="1" height="1" fill="#61BD65" />
<rect x="16" y="2" width="1" height="1" fill="#10794B" />
<rect x="17" y="2" width="1" height="1" fill="#4B7ECA" />
<rect x="18" y="2" width="1" height="1" fill="#5B7FED" />
<rect x="19" y="2" width="1" height="1" fill="#7C95DE" />
<rect x="4" y="3" width="1" height="1" fill="#8B9E78" />
<rect x="5" y="3" width="1" height="1" fill="#88A26E" />
<rect x="6" y="3" width="1" height="1" fill="#93AD79" />
<rect x="7" y="3" width="1" height="1" fill="#99B37F" />
<rect x="8" y="3" width="1" height="1" fill="#D6F0BD" />
<rect x="9" y="3" width="1" height="1" fill="#E3FBCA" />
<rect x="10" y="3" width="1" height="1" fill="#C5FBC0" />
<rect x="11" y="3" width="1" height="1" fill="#90FCA9" />
<rect x="12" y="3" width="1" height="1" fill="#6AFF83" />
<rect x="13" y="3" width="1" height="1" fill="#67ED80" />
<rect x="14" y="3" width="1" height="1" fill="#67DA68" />
<rect x="15" y="3" width="1" height="1" fill="#4EBA3B" />
<rect x="16" y="3" width="1" height="1" fill="#018004" />
<rect x="17" y="3" width="1" height="1" fill="#157FA2" />
<rect x="18" y="3" width="1" height="1" fill="#2871E9" />
<rect x="19" y="3" width="1" height="1" fill="#4365CB" />
<rect x="20" y="3" width="1" height="1" fill="#6C6C6C" />
<rect x="21" y="3" width="1" height="1" fill="#B4B4B4" />
<rect x="2" y="4" width="1" height="1" fill="#B8BBB5" />
<rect x="3" y="4" width="1" height="1" fill="#9CA98F" />
<rect x="4" y="4" width="1" height="1" fill="#729252" />
<rect x="5" y="4" width="1" height="1" fill="#AEC795" />
<rect x="6" y="4" width="1" height="1" fill="#E0FADB" />
<rect x="7" y="4" width="1" height="1" fill="#C3F9CD" />
<rect x="8" y="4" width="1" height="1" fill="#AAF397" />
<rect x="9" y="4" width="1" height="1" fill="#9CE67C" />
<rect x="10" y="4" width="1" height="1" fill="#6BDE63" />
<rect x="11" y="4" width="2" height="1" fill="#26DE4C" />
<rect x="13" y="4" width="1" height="1" fill="#26C44C" />
<rect x="14" y="4" width="1" height="1" fill="#26A628" />
<rect x="15" y="4" width="1" height="1" fill="#208C10" />
<rect x="16" y="4" width="1" height="1" fill="#0D7A44" />
<rect x="17" y="4" width="1" height="1" fill="#03929B" />
<rect x="18" y="4" width="1" height="1" fill="#1584CF" />
<rect x="19" y="4" width="1" height="1" fill="#1E56AF" />
<rect x="20" y="4" width="1" height="1" fill="#1A264A" />
<rect x="21" y="4" width="1" height="1" fill="#7E8085" />
<rect x="22" y="4" width="1" height="1" fill="#AEAEAE" />
<rect x="1" y="5" width="1" height="1" fill="#BEBFBD" />
<rect x="2" y="5" width="1" height="1" fill="#9FAB92" />
<rect x="3" y="5" width="1" height="1" fill="#3A6B09" />
<rect x="4" y="5" width="1" height="1" fill="#CAD7BD" />
<rect x="5" y="5" width="1" height="1" fill="#E0FCC4" />
<rect x="6" y="5" width="1" height="1" fill="#9DFF89" />
<rect x="7" y="5" width="1" height="1" fill="#33F966" />
<rect x="8" y="5" width="1" height="1" fill="#33D263" />
<rect x="9" y="5" width="1" height="1" fill="#139C25" />
<rect x="10" y="5" width="1" height="1" fill="#018003" />
<rect x="11" y="5" width="1" height="1" fill="#017F08" />
<rect x="12" y="5" width="3" height="1" fill="#008108" />
<rect x="15" y="5" width="1" height="1" fill="#0C7B45" />
<rect x="16" y="5" width="1" height="1" fill="#3069FF" />
<rect x="17" y="5" width="1" height="1" fill="#0C8DFF" />
<rect x="18" y="5" width="1" height="1" fill="#0198C8" />
<rect x="19" y="5" width="1" height="1" fill="#1188BD" />
<rect x="20" y="5" width="1" height="1" fill="#2E5CE6" />
<rect x="21" y="5" width="1" height="1" fill="#080D24" />
<rect x="22" y="5" width="1" height="1" fill="#78787A" />
<rect x="23" y="5" width="1" height="1" fill="#BCBCBC" />
<rect x="1" y="6" width="1" height="1" fill="#8D9F7A" />
<rect x="2" y="6" width="1" height="1" fill="#6C8E4A" />
<rect x="3" y="6" width="1" height="1" fill="#D0DAC5" />
<rect x="4" y="6" width="1" height="1" fill="#D4F5B2" />
<rect x="5" y="6" width="1" height="1" fill="#D0FEA2" />
<rect x="6" y="6" width="1" height="1" fill="#9DF289" />
<rect x="7" y="6" width="1" height="1" fill="#33D260" />
<rect x="8" y="6" width="1" height="1" fill="#33AB21" />
<rect x="9" y="6" width="1" height="1" fill="#138D08" />
<rect x="10" y="6" width="1" height="1" fill="#107850" />
<rect x="11" y="6" width="1" height="1" fill="#2272CC" />
<rect x="12" y="6" width="1" height="1" fill="#0391CC" />
<rect x="13" y="6" width="2" height="1" fill="#0094CC" />
<rect x="15" y="6" width="1" height="1" fill="#0293D9" />
<rect x="16" y="6" width="1" height="1" fill="#0B8EFF" />
<rect x="17" y="6" width="1" height="1" fill="#2277FF" />
<rect x="18" y="6" width="1" height="1" fill="#1287F4" />
<rect x="19" y="6" width="1" height="1" fill="#1188F1" />
<rect x="20" y="6" width="1" height="1" fill="#325CF2" />
<rect x="21" y="6" width="1" height="1" fill="#2A0D8B" />
<rect x="22" y="6" width="1" height="1" fill="#271944" />
<rect x="23" y="6" width="1" height="1" fill="#666666" />
<rect x="1" y="7" width="1" height="1" fill="#8097AB" />
<rect x="2" y="7" width="1" height="1" fill="#467A89" />
<rect x="3" y="7" width="1" height="1" fill="#87C16B" />
<rect x="4" y="7" width="1" height="1" fill="#79F178" />
<rect x="5" y="7" width="1" height="1" fill="#75EF7C" />
<rect x="6" y="7" width="1" height="1" fill="#60D263" />
<rect x="7" y="7" width="1" height="1" fill="#31AC28" />
<rect x="8" y="7" width="1" height="1" fill="#1A9007" />
<rect x="9" y="7" width="1" height="1" fill="#1A7B5A" />
<rect x="10" y="7" width="1" height="1" fill="#1A78BC" />
<rect x="11" y="7" width="1" height="1" fill="#1287FF" />
<rect x="12" y="7" width="1" height="1" fill="#0198FF" />
<rect x="13" y="7" width="2" height="1" fill="#0099FF" />
<rect x="15" y="7" width="1" height="1" fill="#0792FF" />
<rect x="16" y="7" width="1" height="1" fill="#1D7CFF" />
<rect x="17" y="7" width="1" height="1" fill="#1782FF" />
<rect x="18" y="7" width="1" height="2" fill="#1A7FFF" />
<rect x="19" y="7" width="1" height="1" fill="#1B7EFF" />
<rect x="20" y="7" width="1" height="1" fill="#1676FB" />
<rect x="21" y="7" width="1" height="1" fill="#1610D9" />
<rect x="22" y="7" width="1" height="1" fill="#08004B" />
<rect x="23" y="7" width="1" height="1" fill="#4F4F4F" />
<rect x="0" y="8" width="1" height="1" fill="#9FABCF" />
<rect x="1" y="8" width="1" height="1" fill="#7D9EE8" />
<rect x="2" y="8" width="1" height="1" fill="#589ADA" />
<rect x="3" y="8" width="1" height="1" fill="#229959" />
<rect x="4" y="8" width="1" height="1" fill="#2FBF48" />
<rect x="5" y="8" width="1" height="1" fill="#33C243" />
<rect x="6" y="8" width="1" height="1" fill="#2EAD2E" />
<rect x="7" y="8" width="1" height="1" fill="#1F8F00" />
<rect x="8" y="8" width="1" height="1" fill="#058200" />
<rect x="9" y="8" width="1" height="1" fill="#157B9E" />
<rect x="10" y="8" width="1" height="1" fill="#1485FF" />
<rect x="11" y="8" width="3" height="1" fill="#0099FF" />
<rect x="14" y="8" width="1" height="1" fill="#0891FF" />
<rect x="15" y="8" width="1" height="1" fill="#1584FF" />
<rect x="16" y="8" width="1" height="1" fill="#2178FF" />
<rect x="17" y="8" width="1" height="1" fill="#1584FF" />
<rect x="19" y="8" width="1" height="1" fill="#1C7DFF" />
<rect x="20" y="8" width="1" height="1" fill="#107AFF" />
<rect x="21" y="8" width="1" height="1" fill="#0211FF" />
<rect x="22" y="8" width="1" height="1" fill="#0B007D" />
<rect x="23" y="8" width="1" height="1" fill="#3E3453" />
<rect x="24" y="8" width="1" height="1" fill="#8A8A8A" />
<rect x="25" y="8" width="1" height="1" fill="#BDBDBD" />
<rect x="0" y="9" width="1" height="3" fill="#6083EB" />
<rect x="1" y="9" width="1" height="3" fill="#78ABFF" />
<rect x="2" y="9" width="1" height="1" fill="#A0EBFF" />
<rect x="3" y="9" width="1" height="1" fill="#07A5FF" />
<rect x="4" y="9" width="1" height="1" fill="#247952" />
<rect x="5" y="9" width="1" height="1" fill="#2D820D" />
<rect x="6" y="9" width="1" height="1" fill="#1F9009" />
<rect x="7" y="9" width="1" height="1" fill="#00831D" />
<rect x="8" y="9" width="1" height="1" fill="#05881D" />
<rect x="9" y="9" width="1" height="1" fill="#0293A9" />
<rect x="10" y="9" width="1" height="1" fill="#0099FA" />
<rect x="11" y="9" width="1" height="1" fill="#0198F2" />
<rect x="12" y="9" width="1" height="1" fill="#0891EB" />
<rect x="13" y="9" width="1" height="1" fill="#0990EB" />
<rect x="14" y="9" width="1" height="1" fill="#1E7BEB" />
<rect x="15" y="9" width="1" height="1" fill="#2B6EEB" />
<rect x="16" y="9" width="1" height="1" fill="#0A8FEB" />
<rect x="17" y="9" width="1" height="1" fill="#2C6DEB" />
<rect x="18" y="9" width="1" height="1" fill="#1B7EF6" />
<rect x="19" y="9" width="1" height="1" fill="#1584FF" />
<rect x="20" y="9" width="1" height="3" fill="#2E5CFF" />
<rect x="21" y="9" width="1" height="3" fill="#060DFF" />
<rect x="22" y="9" width="1" height="8" fill="#2100BD" />
<rect x="23" y="9" width="1" height="8" fill="#1E005A" />
<rect x="24" y="9" width="1" height="8" fill="#242424" />
<rect x="25" y="9" width="1" height="8" fill="#B8B8B8" />
<rect x="2" y="10" width="1" height="1" fill="#A9FCFF" />
<rect x="3" y="10" width="1" height="1" fill="#2EF4FF" />
<rect x="4" y="10" width="1" height="1" fill="#0FAAE9" />
<rect x="5" y="10" width="1" height="1" fill="#068A69" />
<rect x="6" y="10" width="1" height="1" fill="#048946" />
<rect x="7" y="10" width="1" height="1" fill="#049AE2" />
<rect x="8" y="10" width="1" height="1" fill="#26BCE2" />
<rect x="9" y="10" width="1" height="1" fill="#11A9F4" />
<rect x="10" y="10" width="1" height="1" fill="#0099DC" />
<rect x="11" y="10" width="1" height="1" fill="#0B8E99" />
<rect x="12" y="10" width="1" height="1" fill="#405A66" />
<rect x="13" y="10" width="1" height="1" fill="#445661" />
<rect x="14" y="10" width="1" height="1" fill="#475361" />
<rect x="15" y="10" width="1" height="1" fill="#495161" />
<rect x="16" y="10" width="1" height="1" fill="#445561" />
<rect x="17" y="10" width="1" height="1" fill="#495161" />
<rect x="18" y="10" width="1" height="1" fill="#3A5FB9" />
<rect x="19" y="10" width="1" height="1" fill="#2F6AFF" />
<rect x="2" y="11" width="1" height="1" fill="#C0FFFF" />
<rect x="3" y="11" width="1" height="1" fill="#98FFFF" />
<rect x="4" y="11" width="1" height="1" fill="#3DE4FF" />
<rect x="5" y="11" width="1" height="1" fill="#21C5D0" />
<rect x="6" y="11" width="1" height="1" fill="#21B5C2" />
<rect x="7" y="11" width="1" height="1" fill="#20B9FF" />
<rect x="8" y="11" width="1" height="1" fill="#14ADFF" />
<rect x="9" y="11" width="1" height="1" fill="#07A0FF" />
<rect x="10" y="11" width="1" height="1" fill="#1486C4" />
<rect x="11" y="11" width="1" height="1" fill="#3D6969" />
<rect x="12" y="11" width="1" height="1" fill="#6E7272" />
<rect x="13" y="11" width="1" height="1" fill="#7B93AA" />
<rect x="14" y="11" width="2" height="1" fill="#7FA0C2" />
<rect x="16" y="11" width="1" height="1" fill="#7F9FC0" />
<rect x="17" y="11" width="1" height="1" fill="#757C83" />
<rect x="18" y="11" width="1" height="1" fill="#3C4663" />
<rect x="19" y="11" width="1" height="1" fill="#1D398F" />
<rect x="0" y="12" width="1" height="1" fill="#6092A1" />
<rect x="1" y="12" width="1" height="1" fill="#5BA492" />
<rect x="2" y="12" width="2" height="1" fill="#8BD492" />
<rect x="4" y="12" width="1" height="1" fill="#48D492" />
<rect x="5" y="12" width="1" height="1" fill="#33C492" />
<rect x="6" y="12" width="1" height="1" fill="#33BDB4" />
<rect x="7" y="12" width="1" height="1" fill="#2FC8FF" />
<rect x="8" y="12" width="1" height="1" fill="#08A1FF" />
<rect x="9" y="12" width="1" height="1" fill="#1485D0" />
<rect x="10" y="12" width="1" height="1" fill="#3C7195" />
<rect x="11" y="12" width="1" height="1" fill="#6C7073" />
<rect x="12" y="12" width="1" height="1" fill="#8BA0B4" />
<rect x="13" y="12" width="1" height="1" fill="#B2CDE8" />
<rect x="14" y="12" width="1" height="1" fill="#C1DFFC" />
<rect x="15" y="12" width="1" height="1" fill="#BDDFFD" />
<rect x="16" y="12" width="1" height="1" fill="#AEE1FE" />
<rect x="17" y="12" width="1" height="1" fill="#95B1C8" />
<rect x="18" y="12" width="1" height="1" fill="#5F6872" />
<rect x="19" y="12" width="1" height="1" fill="#303A57" />
<rect x="20" y="12" width="1" height="1" fill="#1A359D" />
<rect x="21" y="12" width="1" height="1" fill="#0407F1" />
<rect x="0" y="13" width="1" height="4" fill="#60A53D" />
<rect x="1" y="13" width="1" height="1" fill="#41A20E" />
<rect x="2" y="13" width="2" height="1" fill="#51AD1E" />
<rect x="4" y="13" width="1" height="1" fill="#3AA617" />
<rect x="5" y="13" width="1" height="1" fill="#339E09" />
<rect x="6" y="13" width="1" height="1" fill="#30A43F" />
<rect x="7" y="13" width="1" height="1" fill="#26BAD0" />
<rect x="8" y="13" width="1" height="1" fill="#069EF7" />
<rect x="9" y="13" width="1" height="2" fill="#306A90" />
<rect x="10" y="13" width="1" height="1" fill="#65696D" />
<rect x="11" y="13" width="1" height="1" fill="#8F9FAE" />
<rect x="12" y="13" width="1" height="1" fill="#AAD0F7" />
<rect x="13" y="13" width="1" height="1" fill="#E1EEFA" />
<rect x="14" y="13" width="1" height="1" fill="#F4F9F9" />
<rect x="15" y="13" width="1" height="1" fill="#E4FBFB" />
<rect x="16" y="13" width="1" height="1" fill="#C1FEFF" />
<rect x="17" y="13" width="1" height="1" fill="#92D7FF" />
<rect x="18" y="13" width="1" height="1" fill="#7CA7C3" />
<rect x="19" y="13" width="1" height="1" fill="#4E5C63" />
<rect x="20" y="13" width="1" height="4" fill="#00001A" />
<rect x="21" y="13" width="1" height="4" fill="#0000DF" />
<rect x="1" y="14" width="1" height="1" fill="#76C643" />
<rect x="2" y="14" width="2" height="1" fill="#C7FC94" />
<rect x="4" y="14" width="1" height="1" fill="#56D66E" />
<rect x="5" y="14" width="1" height="1" fill="#33B02E" />
<rect x="6" y="14" width="1" height="1" fill="#249202" />
<rect x="7" y="14" width="1" height="1" fill="#01841B" />
<rect x="8" y="14" width="1" height="1" fill="#0096D9" />
<rect x="10" y="14" width="1" height="1" fill="#6A7E91" />
<rect x="11" y="14" width="1" height="1" fill="#A8D1FB" />
<rect x="12" y="14" width="1" height="1" fill="#EFF4F8" />
<rect x="13" y="14" width="1" height="1" fill="#F7F8F8" />
<rect x="14" y="14" width="1" height="1" fill="#E4FBFB" />
<rect x="15" y="14" width="1" height="1" fill="#C1FFFF" />
<rect x="16" y="14" width="1" height="1" fill="#99FEFF" />
<rect x="17" y="14" width="1" height="1" fill="#4BD7FF" />
<rect x="18" y="14" width="1" height="1" fill="#36AFE1" />
<rect x="19" y="14" width="1" height="1" fill="#246687" />
<rect x="1" y="15" width="1" height="1" fill="#87C565" />
<rect x="2" y="15" width="1" height="1" fill="#E5FBD0" />
<rect x="3" y="15" width="1" height="1" fill="#CCFF9A" />
<rect x="4" y="15" width="1" height="1" fill="#57F572" />
<rect x="5" y="15" width="1" height="1" fill="#33D758" />
<rect x="6" y="15" width="1" height="1" fill="#2FB134" />
<rect x="7" y="15" width="1" height="1" fill="#239205" />
<rect x="8" y="15" width="1" height="1" fill="#068838" />
<rect x="9" y="15" width="1" height="1" fill="#306349" />
<rect x="10" y="15" width="1" height="2" fill="#6B7F93" />
<rect x="11" y="15" width="1" height="1" fill="#A9D3FE" />
<rect x="12" y="15" width="1" height="1" fill="#F2F5F8" />
<rect x="13" y="15" width="1" height="1" fill="#E1FCFC" />
<rect x="14" y="15" width="1" height="1" fill="#C0FEFE" />
<rect x="15" y="15" width="1" height="1" fill="#A3FFFF" />
<rect x="16" y="15" width="1" height="1" fill="#97FEFF" />
<rect x="17" y="15" width="1" height="1" fill="#49D7FF" />
<rect x="18" y="15" width="1" height="1" fill="#33B0E3" />
<rect x="19" y="15" width="1" height="2" fill="#226688" />
<rect x="1" y="16" width="1" height="1" fill="#82C65A" />
<rect x="2" y="16" width="1" height="1" fill="#DDFCBD" />
<rect x="3" y="16" width="1" height="2" fill="#CCFF99" />
<rect x="4" y="16" width="1" height="1" fill="#93FF86" />
<rect x="5" y="16" width="1" height="1" fill="#57F272" />
<rect x="6" y="16" width="1" height="1" fill="#33D657" />
<rect x="7" y="16" width="1" height="1" fill="#31B030" />
<rect x="8" y="16" width="1" height="1" fill="#1E9308" />
<rect x="9" y="16" width="1" height="1" fill="#3A6530" />
<rect x="11" y="16" width="1" height="1" fill="#A5D4FE" />
<rect x="12" y="16" width="1" height="1" fill="#DDF8FC" />
<rect x="13" y="16" width="1" height="1" fill="#C0FEFE" />
<rect x="14" y="16" width="1" height="1" fill="#A6FFFF" />
<rect x="15" y="16" width="1" height="1" fill="#8CF9FF" />
<rect x="16" y="16" width="1" height="1" fill="#64E4FE" />
<rect x="17" y="16" width="1" height="1" fill="#3EBDEA" />
<rect x="18" y="16" width="1" height="1" fill="#33A4D7" />
<rect x="0" y="17" width="1" height="1" fill="#7BAD62" />
<rect x="1" y="17" width="1" height="1" fill="#7BC04F" />
<rect x="2" y="17" width="1" height="1" fill="#ABE978" />
<rect x="4" y="17" width="1" height="1" fill="#ABFF8E" />
<rect x="5" y="17" width="1" height="1" fill="#66FF77" />
<rect x="6" y="17" width="1" height="3" fill="#33EF66" />
<rect x="7" y="17" width="1" height="3" fill="#33C85E" />
<rect x="8" y="17" width="1" height="3" fill="#33A110" />
<rect x="9" y="17" width="1" height="1" fill="#436A30" />
<rect x="10" y="17" width="1" height="1" fill="#697785" />
<rect x="11" y="17" width="1" height="1" fill="#9BC2E3" />
<rect x="12" y="17" width="1" height="1" fill="#BBEDFD" />
<rect x="13" y="17" width="1" height="1" fill="#90F1FF" />
<rect x="14" y="17" width="1" height="1" fill="#7CF1FF" />
<rect x="15" y="17" width="1" height="1" fill="#6AE4FB" />
<rect x="16" y="17" width="1" height="1" fill="#33BDF0" />
<rect x="17" y="17" width="1" height="1" fill="#33A1D4" />
<rect x="18" y="17" width="1" height="1" fill="#3391C4" />
<rect x="19" y="17" width="1" height="1" fill="#225D7F" />
<rect x="20" y="17" width="1" height="1" fill="#010017" />
<rect x="21" y="17" width="1" height="1" fill="#0D00C6" />
<rect x="22" y="17" width="1" height="1" fill="#1D0097" />
<rect x="23" y="17" width="1" height="1" fill="#2C1657" />
<rect x="24" y="17" width="1" height="1" fill="#505050" />
<rect x="25" y="17" width="1" height="1" fill="#BABABA" />
<rect x="1" y="18" width="1" height="2" fill="#80AE69" />
<rect x="2" y="18" width="1" height="1" fill="#53AE20" />
<rect x="3" y="18" width="1" height="1" fill="#C3F98F" />
<rect x="4" y="18" width="1" height="1" fill="#55FE70" />
<rect x="5" y="18" width="1" height="2" fill="#33FF66" />
<rect x="9" y="18" width="1" height="1" fill="#426C2D" />
<rect x="10" y="18" width="1" height="1" fill="#61655F" />
<rect x="11" y="18" width="1" height="1" fill="#868E97" />
<rect x="12" y="18" width="1" height="1" fill="#92C5F4" />
<rect x="13" y="18" width="1" height="1" fill="#50C9FC" />
<rect x="14" y="18" width="1" height="1" fill="#33C9FC" />
<rect x="15" y="18" width="1" height="1" fill="#33BDF0" />
<rect x="16" y="18" width="1" height="1" fill="#3399CC" />
<rect x="17" y="18" width="1" height="1" fill="#3397CA" />
<rect x="18" y="18" width="1" height="1" fill="#3178AA" />
<rect x="19" y="18" width="1" height="1" fill="#244061" />
<rect x="20" y="18" width="1" height="1" fill="#0F000F" />
<rect x="21" y="18" width="1" height="1" fill="#2C007F" />
<rect x="22" y="18" width="1" height="1" fill="#110033" />
<rect x="23" y="18" width="1" height="3" fill="#4F4F4F" />
<rect x="2" y="19" width="1" height="1" fill="#399D06" />
<rect x="3" y="19" width="1" height="1" fill="#4EAB1B" />
<rect x="4" y="19" width="1" height="1" fill="#39EB54" />
<rect x="9" y="19" width="1" height="1" fill="#369108" />
<rect x="10" y="19" width="1" height="1" fill="#44772A" />
<rect x="11" y="19" width="1" height="1" fill="#54636C" />
<rect x="12" y="19" width="1" height="1" fill="#469DCD" />
<rect x="13" y="19" width="1" height="1" fill="#38A2D5" />
<rect x="14" y="19" width="1" height="1" fill="#33A2D5" />
<rect x="15" y="19" width="1" height="1" fill="#33A0D3" />
<rect x="16" y="19" width="1" height="1" fill="#3398CB" />
<rect x="17" y="19" width="1" height="1" fill="#3378AB" />
<rect x="18" y="19" width="1" height="1" fill="#1C3B57" />
<rect x="19" y="19" width="1" height="1" fill="#3E0C12" />
<rect x="20" y="19" width="1" height="1" fill="#980003" />
<rect x="21" y="19" width="1" height="1" fill="#1D0018" />
<rect x="22" y="19" width="1" height="1" fill="#03000A" />
<rect x="1" y="20" width="1" height="1" fill="#A6B99D" />
<rect x="2" y="20" width="1" height="1" fill="#75AB59" />
<rect x="3" y="20" width="1" height="1" fill="#349901" />
<rect x="4" y="20" width="1" height="1" fill="#33B81F" />
<rect x="5" y="20" width="1" height="1" fill="#33D24A" />
<rect x="6" y="20" width="1" height="1" fill="#33D153" />
<rect x="7" y="20" width="1" height="1" fill="#33AC26" />
<rect x="8" y="20" width="1" height="1" fill="#339C06" />
<rect x="9" y="20" width="1" height="1" fill="#209000" />
<rect x="10" y="20" width="1" height="1" fill="#197E0C" />
<rect x="11" y="20" width="1" height="1" fill="#1D6427" />
<rect x="12" y="20" width="1" height="1" fill="#15414F" />
<rect x="13" y="20" width="3" height="1" fill="#153E52" />
<rect x="16" y="20" width="1" height="1" fill="#153D52" />
<rect x="17" y="20" width="1" height="1" fill="#152D42" />
<rect x="18" y="20" width="1" height="1" fill="#5E563D" />
<rect x="19" y="20" width="1" height="1" fill="#B4513D" />
<rect x="20" y="20" width="1" height="1" fill="#DF0037" />
<rect x="21" y="20" width="1" height="1" fill="#880008" />
<rect x="22" y="20" width="1" height="1" fill="#2B0000" />
<rect x="2" y="21" width="1" height="1" fill="#ACBBA5" />
<rect x="3" y="21" width="1" height="1" fill="#67A847" />
<rect x="4" y="21" width="1" height="1" fill="#317111" />
<rect x="5" y="21" width="1" height="1" fill="#2A8623" />
<rect x="6" y="21" width="1" height="1" fill="#339D2D" />
<rect x="7" y="21" width="1" height="1" fill="#328700" />
<rect x="8" y="21" width="1" height="1" fill="#238E00" />
<rect x="9" y="21" width="1" height="1" fill="#18803A" />
<rect x="10" y="21" width="1" height="1" fill="#13765E" />
<rect x="11" y="21" width="1" height="1" fill="#13695E" />
<rect x="12" y="21" width="1" height="1" fill="#132B5E" />
<rect x="13" y="21" width="2" height="1" fill="#13255E" />
<rect x="15" y="21" width="1" height="1" fill="#0E1C5E" />
<rect x="16" y="21" width="1" height="1" fill="#00005D" />
<rect x="17" y="21" width="1" height="1" fill="#0F0040" />
<rect x="18" y="21" width="1" height="1" fill="#8C483D" />
<rect x="19" y="21" width="1" height="1" fill="#F26F4D" />
<rect x="20" y="21" width="1" height="1" fill="#FC435F" />
<rect x="21" y="21" width="1" height="1" fill="#E3092E" />
<rect x="22" y="21" width="1" height="1" fill="#7F000D" />
<rect x="23" y="21" width="1" height="1" fill="#5E3232" />
<rect x="24" y="21" width="1" height="1" fill="#878787" />
<rect x="25" y="21" width="1" height="1" fill="#BDBDBD" />
<rect x="4" y="22" width="1" height="1" fill="#414141" />
<rect x="5" y="22" width="1" height="1" fill="#243B0C" />
<rect x="6" y="22" width="1" height="1" fill="#2C5800" />
<rect x="7" y="22" width="1" height="1" fill="#295A03" />
<rect x="8" y="22" width="1" height="1" fill="#076B1E" />
<rect x="9" y="22" width="1" height="1" fill="#1B61AC" />
<rect x="10" y="22" width="5" height="1" fill="#2C58FF" />
<rect x="15" y="22" width="1" height="1" fill="#2342FC" />
<rect x="16" y="22" width="1" height="1" fill="#0800EF" />
<rect x="17" y="22" width="1" height="1" fill="#24009B" />
<rect x="18" y="22" width="1" height="1" fill="#76003A" />
<rect x="19" y="22" width="1" height="1" fill="#C83A1D" />
<rect x="20" y="22" width="1" height="1" fill="#F9A159" />
<rect x="21" y="22" width="1" height="1" fill="#FE2E64" />
<rect x="22" y="22" width="1" height="1" fill="#E30A2D" />
<rect x="23" y="22" width="1" height="1" fill="#870008" />
<rect x="24" y="22" width="1" height="1" fill="#361F1F" />
<rect x="25" y="22" width="1" height="1" fill="#A09F9F" />
<rect x="26" y="22" width="1" height="1" fill="#B9B9B9" />
<rect x="4" y="23" width="1" height="1" fill="#B3B3B3" />
<rect x="5" y="23" width="1" height="1" fill="#545651" />
<rect x="6" y="23" width="1" height="1" fill="#050900" />
<rect x="7" y="23" width="1" height="1" fill="#040912" />
<rect x="8" y="23" width="1" height="1" fill="#010BC5" />
<rect x="9" y="23" width="1" height="1" fill="#030AF6" />
<rect x="10" y="23" width="5" height="1" fill="#0509FF" />
<rect x="15" y="23" width="1" height="1" fill="#0F07E8" />
<rect x="16" y="23" width="1" height="1" fill="#2E009F" />
<rect x="17" y="23" width="1" height="1" fill="#0D002D" />
<rect x="18" y="23" width="1" height="1" fill="#0C0006" />
<rect x="19" y="23" width="1" height="1" fill="#510603" />
<rect x="20" y="23" width="1" height="1" fill="#D52313" />
<rect x="21" y="23" width="1" height="1" fill="#F9A55A" />
<rect x="22" y="23" width="1" height="1" fill="#FC4260" />
<rect x="23" y="23" width="1" height="1" fill="#E00036" />
<rect x="24" y="23" width="1" height="1" fill="#9A0303" />
<rect x="25" y="23" width="1" height="1" fill="#181111" />
<rect x="26" y="23" width="1" height="1" fill="#919191" />
<rect x="5" y="24" width="1" height="1" fill="#9F9F9F" />
<rect x="6" y="24" width="1" height="1" fill="#828282" />
<rect x="7" y="24" width="1" height="1" fill="#78787F" />
<rect x="8" y="24" width="1" height="1" fill="#141459" />
<rect x="9" y="24" width="6" height="1" fill="#000052" />
<rect x="15" y="24" width="1" height="1" fill="#04004A" />
<rect x="16" y="24" width="1" height="1" fill="#130333" />
<rect x="17" y="24" width="1" height="1" fill="#6A6771" />
<rect x="18" y="24" width="1" height="1" fill="#828282" />
<rect x="19" y="24" width="1" height="1" fill="#988282" />
<rect x="20" y="24" width="1" height="1" fill="#C67C79" />
<rect x="21" y="24" width="1" height="1" fill="#D9492D" />
<rect x="22" y="24" width="1" height="1" fill="#F35A21" />
<rect x="23" y="24" width="1" height="1" fill="#EA3D13" />
<rect x="24" y="24" width="1" height="1" fill="#A60000" />
<rect x="25" y="24" width="1" height="1" fill="#090000" />
<rect x="26" y="24" width="1" height="1" fill="#8C8C8C" />
<rect x="7" y="25" width="1" height="1" fill="#B8B8B8" />
<rect x="8" y="25" width="1" height="1" fill="#676767" />
<rect x="9" y="25" width="7" height="1" fill="#575757" />
<rect x="16" y="25" width="1" height="1" fill="#595959" />
<rect x="17" y="25" width="1" height="1" fill="#AAAAAA" />
<rect x="20" y="25" width="1" height="1" fill="#C1B5B5" />
<rect x="21" y="25" width="1" height="1" fill="#C66464" />
<rect x="22" y="25" width="1" height="1" fill="#A0551F" />
<rect x="23" y="25" width="1" height="1" fill="#803100" />
<rect x="24" y="25" width="1" height="1" fill="#6B1010" />
<rect x="25" y="25" width="1" height="1" fill="#585353" />
<rect x="26" y="25" width="1" height="1" fill="#A4A4A4" />
<rect x="22" y="26" width="1" height="1" fill="#606060" />
<rect x="23" y="26" width="1" height="1" fill="#2B2B2B" />
<rect x="24" y="26" width="1" height="1" fill="#474747" />
<rect x="25" y="26" width="1" height="1" fill="#BABABA" />
</svg>
