<?xml version="1.0" encoding="UTF-8" ?>
<svg version="1.1" width="25" height="25" xmlns="http://www.w3.org/2000/svg">
<rect x="7" y="0" width="1" height="1" fill="#B79494" />
<rect x="8" y="0" width="8" height="1" fill="#A43636" />
<rect x="16" y="0" width="1" height="1" fill="#AB5A5A" />
<rect x="4" y="1" width="1" height="1" fill="#C0BFBF" />
<rect x="5" y="1" width="1" height="1" fill="#B17777" />
<rect x="6" y="1" width="1" height="1" fill="#AD6262" />
<rect x="7" y="1" width="1" height="1" fill="#AF5353" />
<rect x="8" y="1" width="1" height="1" fill="#B43232" />
<rect x="9" y="1" width="1" height="1" fill="#C73232" />
<rect x="10" y="1" width="5" height="1" fill="#CB3232" />
<rect x="15" y="1" width="1" height="1" fill="#BF1919" />
<rect x="16" y="1" width="1" height="1" fill="#9D1919" />
<rect x="17" y="1" width="2" height="1" fill="#626262" />
<rect x="19" y="1" width="1" height="1" fill="#989898" />
<rect x="3" y="2" width="1" height="1" fill="#BEB4B4" />
<rect x="4" y="2" width="1" height="1" fill="#B68E8E" />
<rect x="5" y="2" width="1" height="1" fill="#AA3434" />
<rect x="6" y="2" width="1" height="1" fill="#AD1A1A" />
<rect x="7" y="2" width="1" height="1" fill="#BF372E" />
<rect x="8" y="2" width="1" height="1" fill="#DD7359" />
<rect x="9" y="2" width="1" height="1" fill="#FA7359" />
<rect x="10" y="2" width="1" height="1" fill="#FF7359" />
<rect x="11" y="2" width="1" height="1" fill="#FF6E54" />
<rect x="12" y="2" width="2" height="1" fill="#FF664C" />
<rect x="14" y="2" width="1" height="1" fill="#FF5355" />
<rect x="15" y="2" width="1" height="1" fill="#ED2734" />
<rect x="16" y="2" width="1" height="1" fill="#B2000D" />
<rect x="17" y="2" width="1" height="1" fill="#41000D" />
<rect x="18" y="2" width="1" height="1" fill="#370003" />
<rect x="19" y="2" width="1" height="1" fill="#685252" />
<rect x="20" y="2" width="1" height="1" fill="#A0A0A0" />
<rect x="2" y="3" width="1" height="1" fill="#BFBDBD" />
<rect x="3" y="3" width="1" height="1" fill="#B78F8F" />
<rect x="4" y="3" width="1" height="1" fill="#9D0404" />
<rect x="5" y="3" width="1" height="1" fill="#C3514F" />
<rect x="6" y="3" width="1" height="1" fill="#E96864" />
<rect x="7" y="3" width="1" height="1" fill="#FF7754" />
<rect x="8" y="3" width="3" height="1" fill="#FF9731" />
<rect x="11" y="3" width="1" height="1" fill="#FF821E" />
<rect x="12" y="3" width="2" height="1" fill="#FF6302" />
<rect x="14" y="3" width="1" height="1" fill="#FF1C25" />
<rect x="15" y="3" width="2" height="4" fill="#FF0033" />
<rect x="17" y="3" width="1" height="1" fill="#FD0031" />
<rect x="18" y="3" width="1" height="1" fill="#D7000B" />
<rect x="19" y="3" width="1" height="1" fill="#5B0001" />
<rect x="20" y="3" width="1" height="1" fill="#444040" />
<rect x="21" y="3" width="1" height="1" fill="#BBBBBB" />
<rect x="22" y="3" width="1" height="1" fill="#BFBFBF" />
<rect x="2" y="4" width="1" height="1" fill="#B17979" />
<rect x="3" y="4" width="1" height="1" fill="#B23030" />
<rect x="4" y="4" width="1" height="1" fill="#EB5252" />
<rect x="5" y="4" width="1" height="1" fill="#F38142" />
<rect x="6" y="4" width="1" height="1" fill="#FA8F3D" />
<rect x="7" y="4" width="1" height="1" fill="#FF852D" />
<rect x="8" y="4" width="3" height="1" fill="#FF700A" />
<rect x="11" y="4" width="1" height="1" fill="#FF4B17" />
<rect x="12" y="4" width="2" height="1" fill="#FF1429" />
<rect x="14" y="4" width="1" height="1" fill="#FF0630" />
<rect x="17" y="4" width="1" height="3" fill="#FF0033" />
<rect x="18" y="4" width="1" height="1" fill="#F7002B" />
<rect x="19" y="4" width="1" height="1" fill="#C60011" />
<rect x="20" y="4" width="1" height="1" fill="#780D0D" />
<rect x="21" y="4" width="1" height="1" fill="#383838" />
<rect x="22" y="4" width="1" height="1" fill="#AFAFAF" />
<rect x="1" y="5" width="1" height="1" fill="#B17474" />
<rect x="2" y="5" width="1" height="1" fill="#AF4747" />
<rect x="3" y="5" width="1" height="1" fill="#C74B3E" />
<rect x="4" y="5" width="1" height="1" fill="#FF8349" />
<rect x="5" y="5" width="1" height="1" fill="#FF9438" />
<rect x="6" y="5" width="1" height="1" fill="#FF8923" />
<rect x="7" y="5" width="1" height="1" fill="#FF750F" />
<rect x="8" y="5" width="1" height="1" fill="#FF6103" />
<rect x="9" y="5" width="1" height="1" fill="#FF3419" />
<rect x="10" y="5" width="1" height="1" fill="#FF2C1D" />
<rect x="11" y="5" width="1" height="1" fill="#FF1A26" />
<rect x="12" y="5" width="3" height="2" fill="#FF0033" />
<rect x="18" y="5" width="1" height="2" fill="#FF0033" />
<rect x="19" y="5" width="1" height="1" fill="#F20026" />
<rect x="20" y="5" width="1" height="1" fill="#B70013" />
<rect x="21" y="5" width="1" height="1" fill="#570909" />
<rect x="22" y="5" width="1" height="1" fill="#534949" />
<rect x="23" y="5" width="1" height="1" fill="#9A9A9A" />
<rect x="1" y="6" width="1" height="1" fill="#A53B3B" />
<rect x="2" y="6" width="1" height="1" fill="#B92F2F" />
<rect x="3" y="6" width="1" height="1" fill="#E5725A" />
<rect x="4" y="6" width="1" height="3" fill="#FF9933" />
<rect x="5" y="6" width="1" height="1" fill="#FF8B25" />
<rect x="6" y="6" width="1" height="1" fill="#FF750F" />
<rect x="7" y="6" width="1" height="1" fill="#FF5B06" />
<rect x="8" y="6" width="1" height="1" fill="#FF3D15" />
<rect x="9" y="6" width="1" height="1" fill="#FF092E" />
<rect x="10" y="6" width="2" height="1" fill="#FF0033" />
<rect x="19" y="6" width="1" height="7" fill="#FF0033" />
<rect x="20" y="6" width="1" height="1" fill="#E20021" />
<rect x="21" y="6" width="1" height="1" fill="#970000" />
<rect x="22" y="6" width="1" height="1" fill="#130000" />
<rect x="23" y="6" width="1" height="1" fill="#7E7E7E" />
<rect x="0" y="7" width="1" height="1" fill="#BCACAC" />
<rect x="1" y="7" width="1" height="1" fill="#A83D3D" />
<rect x="2" y="7" width="1" height="1" fill="#CB3833" />
<rect x="3" y="7" width="1" height="1" fill="#FF7656" />
<rect x="5" y="7" width="1" height="2" fill="#FF710B" />
<rect x="6" y="7" width="1" height="1" fill="#FF6F0F" />
<rect x="7" y="7" width="1" height="1" fill="#FE5A2B" />
<rect x="8" y="7" width="2" height="1" fill="#FE1C49" />
<rect x="10" y="7" width="1" height="1" fill="#FF0A3B" />
<rect x="11" y="7" width="3" height="2" fill="#FF0033" />
<rect x="14" y="7" width="1" height="1" fill="#FE1443" />
<rect x="15" y="7" width="2" height="1" fill="#FE1C49" />
<rect x="17" y="7" width="1" height="1" fill="#FE1B49" />
<rect x="18" y="7" width="1" height="1" fill="#FF0637" />
<rect x="20" y="7" width="1" height="6" fill="#ED0021" />
<rect x="21" y="7" width="1" height="1" fill="#B70000" />
<rect x="22" y="7" width="1" height="1" fill="#260000" />
<rect x="23" y="7" width="1" height="1" fill="#767070" />
<rect x="24" y="7" width="1" height="1" fill="#B4B4B4" />
<rect x="0" y="8" width="1" height="1" fill="#A02323" />
<rect x="1" y="8" width="1" height="1" fill="#BA4545" />
<rect x="2" y="8" width="1" height="1" fill="#E1754B" />
<rect x="3" y="8" width="1" height="1" fill="#FF9537" />
<rect x="6" y="8" width="1" height="1" fill="#FCAD78" />
<rect x="7" y="8" width="1" height="1" fill="#F9E4DE" />
<rect x="8" y="8" width="2" height="1" fill="#F9DCE2" />
<rect x="10" y="8" width="1" height="1" fill="#FD5173" />
<rect x="14" y="8" width="1" height="1" fill="#FB9EB1" />
<rect x="15" y="8" width="2" height="1" fill="#F9DCE2" />
<rect x="17" y="8" width="1" height="1" fill="#F9D5DC" />
<rect x="18" y="8" width="1" height="1" fill="#FE2C56" />
<rect x="21" y="8" width="1" height="1" fill="#C40000" />
<rect x="22" y="8" width="1" height="1" fill="#8F0000" />
<rect x="23" y="8" width="1" height="1" fill="#3D0E0E" />
<rect x="24" y="8" width="1" height="1" fill="#5F5F5F" />
<rect x="0" y="9" width="1" height="7" fill="#9C0F0F" />
<rect x="1" y="9" width="1" height="1" fill="#D34747" />
<rect x="2" y="9" width="1" height="1" fill="#F67E4E" />
<rect x="3" y="9" width="1" height="1" fill="#FF912B" />
<rect x="4" y="9" width="1" height="1" fill="#FF7712" />
<rect x="5" y="9" width="1" height="1" fill="#FF361E" />
<rect x="6" y="9" width="1" height="1" fill="#FE3F50" />
<rect x="7" y="9" width="1" height="1" fill="#FB89A0" />
<rect x="8" y="9" width="2" height="1" fill="#F8F8F8" />
<rect x="10" y="9" width="1" height="1" fill="#FAC2CD" />
<rect x="11" y="9" width="1" height="1" fill="#FC6180" />
<rect x="12" y="9" width="1" height="1" fill="#FE1D4A" />
<rect x="13" y="9" width="1" height="1" fill="#FB9AAD" />
<rect x="14" y="9" width="1" height="1" fill="#F9E0E5" />
<rect x="15" y="9" width="1" height="1" fill="#F8F8F8" />
<rect x="16" y="9" width="1" height="1" fill="#F9CED7" />
<rect x="17" y="9" width="1" height="1" fill="#FD5375" />
<rect x="18" y="9" width="1" height="1" fill="#FF1140" />
<rect x="21" y="9" width="1" height="6" fill="#C60000" />
<rect x="22" y="9" width="1" height="6" fill="#9F0000" />
<rect x="23" y="9" width="1" height="7" fill="#350000" />
<rect x="24" y="9" width="1" height="7" fill="#525252" />
<rect x="1" y="10" width="1" height="6" fill="#E04747" />
<rect x="2" y="10" width="1" height="5" fill="#FF7E4E" />
<rect x="3" y="10" width="1" height="1" fill="#FF8D27" />
<rect x="4" y="10" width="1" height="1" fill="#FF6500" />
<rect x="5" y="10" width="1" height="1" fill="#FF1728" />
<rect x="6" y="10" width="1" height="5" fill="#FF0033" />
<rect x="7" y="10" width="1" height="1" fill="#FE2E57" />
<rect x="8" y="10" width="1" height="1" fill="#FB98AC" />
<rect x="9" y="10" width="1" height="1" fill="#F8EAED" />
<rect x="10" y="10" width="1" height="1" fill="#F8F8F8" />
<rect x="11" y="10" width="1" height="1" fill="#FABFCA" />
<rect x="12" y="10" width="1" height="1" fill="#FB839B" />
<rect x="13" y="10" width="1" height="1" fill="#F8F0F2" />
<rect x="14" y="10" width="1" height="1" fill="#F8F8F8" />
<rect x="15" y="10" width="1" height="1" fill="#F9C4CF" />
<rect x="16" y="10" width="1" height="1" fill="#FC6A87" />
<rect x="17" y="10" width="2" height="5" fill="#FF0033" />
<rect x="3" y="11" width="1" height="1" fill="#FF8829" />
<rect x="4" y="11" width="1" height="1" fill="#FF510A" />
<rect x="5" y="11" width="1" height="1" fill="#FF122A" />
<rect x="7" y="11" width="1" height="3" fill="#FF0033" />
<rect x="8" y="11" width="1" height="1" fill="#FE1241" />
<rect x="9" y="11" width="1" height="1" fill="#FAABBB" />
<rect x="10" y="11" width="1" height="1" fill="#F9E6EA" />
<rect x="11" y="11" width="3" height="3" fill="#F8F8F8" />
<rect x="14" y="11" width="1" height="1" fill="#F9D4DC" />
<rect x="15" y="11" width="1" height="1" fill="#FC6684" />
<rect x="16" y="11" width="1" height="3" fill="#FF0033" />
<rect x="3" y="12" width="1" height="1" fill="#FF7633" />
<rect x="4" y="12" width="1" height="1" fill="#FF0331" />
<rect x="5" y="12" width="1" height="1" fill="#FF0133" />
<rect x="8" y="12" width="1" height="1" fill="#FF0134" />
<rect x="9" y="12" width="1" height="1" fill="#FF0738" />
<rect x="10" y="12" width="1" height="1" fill="#FAA0B2" />
<rect x="14" y="12" width="1" height="1" fill="#FD4B6F" />
<rect x="15" y="12" width="1" height="1" fill="#FF0436" />
<rect x="3" y="13" width="1" height="2" fill="#FF7533" />
<rect x="4" y="13" width="2" height="3" fill="#FF0033" />
<rect x="8" y="13" width="1" height="1" fill="#FF1140" />
<rect x="9" y="13" width="1" height="1" fill="#FB9FB1" />
<rect x="10" y="13" width="1" height="1" fill="#F9E1E5" />
<rect x="14" y="13" width="1" height="1" fill="#F9CAD3" />
<rect x="15" y="13" width="1" height="1" fill="#FC5E7E" />
<rect x="19" y="13" width="1" height="1" fill="#E9001D" />
<rect x="20" y="13" width="1" height="1" fill="#D50009" />
<rect x="7" y="14" width="1" height="1" fill="#FE2953" />
<rect x="8" y="14" width="1" height="1" fill="#FB8AA0" />
<rect x="9" y="14" width="1" height="1" fill="#F8E7EB" />
<rect x="10" y="14" width="1" height="1" fill="#F8F8F8" />
<rect x="11" y="14" width="1" height="1" fill="#F9C5CF" />
<rect x="12" y="14" width="1" height="1" fill="#FB8FA5" />
<rect x="13" y="14" width="1" height="1" fill="#F8F1F2" />
<rect x="14" y="14" width="1" height="1" fill="#F8F8F8" />
<rect x="15" y="14" width="1" height="1" fill="#FABDC9" />
<rect x="16" y="14" width="1" height="1" fill="#FC5E7E" />
<rect x="19" y="14" width="1" height="1" fill="#E20016" />
<rect x="20" y="14" width="1" height="1" fill="#CC0000" />
<rect x="2" y="15" width="1" height="1" fill="#FF7748" />
<rect x="3" y="15" width="1" height="1" fill="#FF6A28" />
<rect x="6" y="15" width="1" height="1" fill="#FE2651" />
<rect x="7" y="15" width="1" height="1" fill="#FB7F98" />
<rect x="8" y="15" width="2" height="1" fill="#F8F8F8" />
<rect x="10" y="15" width="1" height="1" fill="#F9CCD5" />
<rect x="11" y="15" width="1" height="1" fill="#FC6B88" />
<rect x="12" y="15" width="1" height="1" fill="#FE1F4C" />
<rect x="13" y="15" width="1" height="1" fill="#FAA8B9" />
<rect x="14" y="15" width="1" height="1" fill="#F9E4E8" />
<rect x="15" y="15" width="1" height="1" fill="#F8F8F8" />
<rect x="16" y="15" width="1" height="1" fill="#F9CAD3" />
<rect x="17" y="15" width="1" height="1" fill="#FD4468" />
<rect x="18" y="15" width="1" height="1" fill="#F30E33" />
<rect x="19" y="15" width="1" height="1" fill="#DC0010" />
<rect x="20" y="15" width="1" height="1" fill="#C70000" />
<rect x="21" y="15" width="1" height="1" fill="#B90000" />
<rect x="22" y="15" width="1" height="1" fill="#9D0000" />
<rect x="0" y="16" width="1" height="1" fill="#9E1919" />
<rect x="1" y="16" width="1" height="1" fill="#DC4646" />
<rect x="2" y="16" width="1" height="1" fill="#FC6334" />
<rect x="3" y="16" width="1" height="1" fill="#FF4F0B" />
<rect x="4" y="16" width="1" height="1" fill="#FF0630" />
<rect x="5" y="16" width="1" height="1" fill="#FF0132" />
<rect x="6" y="16" width="1" height="1" fill="#FB8099" />
<rect x="7" y="16" width="3" height="1" fill="#F8EAED" />
<rect x="10" y="16" width="1" height="1" fill="#FD5677" />
<rect x="11" y="16" width="3" height="3" fill="#FF0033" />
<rect x="14" y="16" width="1" height="1" fill="#FAA8B9" />
<rect x="15" y="16" width="2" height="1" fill="#F8EAED" />
<rect x="17" y="16" width="1" height="1" fill="#F7E3E6" />
<rect x="18" y="16" width="1" height="1" fill="#D52F2F" />
<rect x="19" y="16" width="1" height="2" fill="#CC0000" />
<rect x="20" y="16" width="1" height="2" fill="#BA0000" />
<rect x="21" y="16" width="1" height="1" fill="#980000" />
<rect x="22" y="16" width="1" height="1" fill="#920000" />
<rect x="23" y="16" width="1" height="1" fill="#390707" />
<rect x="24" y="16" width="1" height="1" fill="#585858" />
<rect x="0" y="17" width="1" height="1" fill="#BAA1A1" />
<rect x="1" y="17" width="1" height="1" fill="#AF3D3D" />
<rect x="2" y="17" width="1" height="1" fill="#D2390A" />
<rect x="3" y="17" width="1" height="1" fill="#FF6202" />
<rect x="4" y="17" width="1" height="1" fill="#FF5309" />
<rect x="5" y="17" width="1" height="1" fill="#FF132A" />
<rect x="6" y="17" width="1" height="1" fill="#FE1846" />
<rect x="7" y="17" width="3" height="1" fill="#FE2C56" />
<rect x="10" y="17" width="1" height="1" fill="#FF1040" />
<rect x="14" y="17" width="1" height="1" fill="#FE1F4C" />
<rect x="15" y="17" width="2" height="1" fill="#FE2C56" />
<rect x="17" y="17" width="1" height="1" fill="#FC2A53" />
<rect x="18" y="17" width="1" height="1" fill="#D60911" />
<rect x="21" y="17" width="1" height="1" fill="#8B0000" />
<rect x="22" y="17" width="1" height="1" fill="#290000" />
<rect x="23" y="17" width="1" height="1" fill="#716868" />
<rect x="24" y="17" width="1" height="1" fill="#ADADAD" />
<rect x="1" y="18" width="1" height="1" fill="#A53B3B" />
<rect x="2" y="18" width="1" height="1" fill="#BA1300" />
<rect x="3" y="18" width="1" height="1" fill="#E83700" />
<rect x="4" y="18" width="1" height="1" fill="#FF6500" />
<rect x="5" y="18" width="1" height="1" fill="#FF1728" />
<rect x="6" y="18" width="5" height="2" fill="#FF0033" />
<rect x="14" y="18" width="1" height="1" fill="#FF0033" />
<rect x="15" y="18" width="1" height="1" fill="#F00024" />
<rect x="16" y="18" width="1" height="1" fill="#E10015" />
<rect x="17" y="18" width="1" height="1" fill="#E00014" />
<rect x="18" y="18" width="1" height="1" fill="#D00004" />
<rect x="19" y="18" width="1" height="1" fill="#BA0000" />
<rect x="20" y="18" width="1" height="1" fill="#A60000" />
<rect x="21" y="18" width="1" height="1" fill="#880000" />
<rect x="22" y="18" width="1" height="1" fill="#110000" />
<rect x="23" y="18" width="1" height="1" fill="#7E7E7E" />
<rect x="1" y="19" width="1" height="1" fill="#AF6C6C" />
<rect x="2" y="19" width="1" height="1" fill="#B02626" />
<rect x="3" y="19" width="1" height="1" fill="#C50F00" />
<rect x="4" y="19" width="1" height="1" fill="#EC4000" />
<rect x="5" y="19" width="1" height="1" fill="#FB0E28" />
<rect x="11" y="19" width="1" height="1" fill="#FF0033" />
<rect x="12" y="19" width="1" height="1" fill="#FC0030" />
<rect x="13" y="19" width="1" height="1" fill="#ED0021" />
<rect x="14" y="19" width="1" height="1" fill="#EC0020" />
<rect x="15" y="19" width="1" height="1" fill="#DD0011" />
<rect x="16" y="19" width="1" height="1" fill="#CC0000" />
<rect x="17" y="19" width="1" height="1" fill="#CB0000" />
<rect x="18" y="19" width="1" height="1" fill="#BD0000" />
<rect x="19" y="19" width="1" height="1" fill="#A70000" />
<rect x="20" y="19" width="1" height="1" fill="#860000" />
<rect x="21" y="19" width="1" height="1" fill="#5E0808" />
<rect x="22" y="19" width="1" height="1" fill="#493F3F" />
<rect x="23" y="19" width="1" height="1" fill="#969696" />
<rect x="2" y="20" width="1" height="1" fill="#B07373" />
<rect x="3" y="20" width="1" height="1" fill="#A21414" />
<rect x="4" y="20" width="1" height="1" fill="#B10000" />
<rect x="5" y="20" width="1" height="1" fill="#E80022" />
<rect x="6" y="20" width="6" height="1" fill="#F8002C" />
<rect x="12" y="20" width="1" height="1" fill="#F00024" />
<rect x="13" y="20" width="1" height="1" fill="#CE0002" />
<rect x="14" y="20" width="1" height="2" fill="#CC0000" />
<rect x="15" y="20" width="1" height="1" fill="#C90000" />
<rect x="16" y="20" width="1" height="1" fill="#C50000" />
<rect x="17" y="20" width="1" height="1" fill="#C40000" />
<rect x="18" y="20" width="1" height="1" fill="#A20000" />
<rect x="19" y="20" width="1" height="1" fill="#8D0000" />
<rect x="20" y="20" width="1" height="1" fill="#600909" />
<rect x="21" y="20" width="1" height="1" fill="#2D2D2D" />
<rect x="22" y="20" width="1" height="1" fill="#ADADAD" />
<rect x="2" y="21" width="1" height="1" fill="#BEB8B8" />
<rect x="3" y="21" width="1" height="1" fill="#958686" />
<rect x="4" y="21" width="1" height="1" fill="#140000" />
<rect x="5" y="21" width="1" height="1" fill="#A60004" />
<rect x="6" y="21" width="6" height="1" fill="#D10005" />
<rect x="12" y="21" width="1" height="1" fill="#D00004" />
<rect x="13" y="21" width="1" height="1" fill="#CC0000" />
<rect x="15" y="21" width="1" height="1" fill="#B50000" />
<rect x="16" y="21" width="1" height="1" fill="#9E0000" />
<rect x="17" y="21" width="1" height="1" fill="#9D0000" />
<rect x="18" y="21" width="1" height="1" fill="#9A0000" />
<rect x="19" y="21" width="1" height="1" fill="#490000" />
<rect x="20" y="21" width="1" height="1" fill="#453C3C" />
<rect x="21" y="21" width="1" height="1" fill="#B1B1B1" />
<rect x="22" y="21" width="1" height="1" fill="#BEBEBE" />
<rect x="3" y="22" width="1" height="1" fill="#B2B2B2" />
<rect x="4" y="22" width="1" height="1" fill="#828181" />
<rect x="5" y="22" width="1" height="1" fill="#501D1D" />
<rect x="6" y="22" width="1" height="1" fill="#410000" />
<rect x="7" y="22" width="1" height="1" fill="#630000" />
<rect x="8" y="22" width="7" height="1" fill="#A90000" />
<rect x="15" y="22" width="1" height="1" fill="#A10000" />
<rect x="16" y="22" width="1" height="1" fill="#7E0000" />
<rect x="17" y="22" width="2" height="1" fill="#310000" />
<rect x="19" y="22" width="1" height="1" fill="#604B4B" />
<rect x="20" y="22" width="1" height="1" fill="#989898" />
<rect x="4" y="23" width="1" height="1" fill="#BFBFBF" />
<rect x="5" y="23" width="1" height="1" fill="#6E6E6E" />
<rect x="6" y="23" width="1" height="1" fill="#575757" />
<rect x="7" y="23" width="1" height="1" fill="#563B3B" />
<rect x="8" y="23" width="8" height="1" fill="#540000" />
<rect x="16" y="23" width="1" height="1" fill="#551616" />
<rect x="17" y="23" width="2" height="1" fill="#575757" />
<rect x="19" y="23" width="1" height="1" fill="#939393" />
<rect x="7" y="24" width="1" height="1" fill="#909090" />
<rect x="8" y="24" width="8" height="1" fill="#2B2B2B" />
<rect x="16" y="24" width="1" height="1" fill="#515151" />
</svg>
