<svg width="256px" height="301px" preserveAspectRatio="xMidYMid" version="1.1" viewBox="0 0 256 301" xmlns="http://www.w3.org/2000/svg"><path d="m256 97.1-9.3-25.1 6.4-14.4c0.8-1.9 0.4-4-1-5.5l-17.5-17.7c-7.7-7.7-19.1-10.4-29.4-6.8l-4.9 1.7-26.8-29-45.3-0.3h-0.3l-45.6 0.4-26.7 29.2-4.8-1.7c-10.4-3.7-21.9-1-29.6 6.9l-17.8 18c-1.2 1.2-1.5 2.9-0.9 4.4l6.7 15-9.2 25.1 6 22.7 27.2 103.3c3.1 11.9 10.3 22.3 20.4 29.5 0 0 33 23.3 65.5 44.4 2.9 1.9 5.9 3.2 9.1 3.2s6.2-1.3 9.1-3.2c36.6-24 65.5-44.5 65.5-44.5 10-7.2 17.2-17.6 20.3-29.5l27-103.3z" fill="#f15a22"/><path d="m134 184.8c-1.2-0.5-2.5-0.9-2.9-0.9h-3.2c-0.4 0-1.7 0.4-2.9 0.9l-13 5.4c-1.2 0.5-3.2 1.4-4.4 2l-19.6 10.2c-1.2 0.6-1.3 1.7-0.2 2.5l17.3 12.2c1.1 0.8 2.8 2.1 3.8 3l7.7 6.6c1 0.9 2.6 2.3 3.6 3.2l7.4 6.6c1 0.9 2.6 0.9 3.6 0l7.6-6.6c1-0.9 2.6-2.3 3.6-3.2l7.7-6.7c1-0.9 2.7-2.2 3.8-3l17.3-12.3c1.1-0.8 1-1.9-0.2-2.5l-19.6-10c-1.2-0.6-3.2-1.5-4.4-2z" fill="#fff"/><path d="m227.81 101.56c0.4-1.3 0.4-1.8 0.4-1.8 0-1.3-0.1-3.5-0.3-4.8l-1-2.9c-0.6-1.2-1.6-3.1-2.4-4.2l-11.3-16.7c-0.7-1.1-2-2.8-2.9-3.9l-14.6-18.3c-0.8-1-1.6-1.9-1.7-1.8h-0.2s-1.1 0.2-2.4 0.4l-22.3 4.4c-1.3 0.3-3.4 0.7-4.7 0.9l-0.4 0.1c-1.3 0.2-3.4 0.1-4.7-0.3l-18.7-6c-1.3-0.4-3.4-1-4.6-1.3 0 0-3.8-0.9-6.9-0.8-3.1 0-6.9 0.8-6.9 0.8-1.3 0.3-3.4 0.9-4.6 1.3l-18.7 6c-1.3 0.4-3.4 0.5-4.7 0.3l-0.4-0.1c-1.3-0.2-3.4-0.7-4.7-0.9l-22.5-4.2c-1.3-0.3-2.4-0.4-2.4-0.4h-0.2c-0.1 0-0.9 0.8-1.7 1.8l-14.6 18.3c-0.8 1-2.1 2.8-2.9 3.9l-11.3 16.7c-0.7 1.1-1.8 3-2.4 4.2l-1 2.9c-0.2 1.3-0.4 3.5-0.3 4.8 0 0 0 0.4 0.4 1.8 0.7 2.4 2.4 4.6 2.4 4.6 0.8 1 2.3 2.7 3.2 3.6l33.1 35.2c0.9 1 1.2 2.8 0.7 4l-6.9 16.3c-0.5 1.2-0.6 3.2-0.1 4.5l1.9 5.1c1.6 4.3 4.3 8.1 7.9 11l6.7 5.4c1 0.8 2.8 1.1 4 0.5l21.2-10.1c1.2-0.6 3-1.8 4-2.7l15.2-13.7c2.2-2 2.3-5.4 0.3-7.6l-31.9-21.5c-1.1-0.7-1.5-2.3-0.9-3.5l14-26.4c0.6-1.2 0.7-3.1 0.2-4.3l-1.7-3.9c-0.5-1.2-2-2.6-3.2-3.1l-41.1-15.4c-1.2-0.5-1.2-1 0.1-1.1l26.5-2.5c1.3-0.1 3.4 0.1 4.7 0.4l23.6 6.6c1.3 0.4 2.1 1.7 1.9 3l-8.2 44.9c-0.2 1.3-0.2 3.1 0.1 4.1s1.6 1.9 2.9 2.2l16.4 3.5c1.3 0.3 3.4 0.3 4.7 0l15.3-3.5c1.3-0.3 2.6-1.3 2.9-2.2s0.4-2.8 0.1-4.1l-8.1-44.9c-0.2-1.3 0.6-2.7 1.9-3l23.6-6.6c1.3-0.4 3.4-0.5 4.7-0.4l26.5 2.5c1.3 0.1 1.4 0.6 0.1 1.1l-41.1 15.6c-1.2 0.5-2.7 1.8-3.2 3.1l-1.7 3.9c-0.5 1.2-0.5 3.2 0.2 4.3l14.1 26.4c0.6 1.2 0.2 2.7-0.9 3.5l-31.9 21.6c-2.1 2.1-1.9 5.6 0.3 7.6l15.2 13.7c1 0.9 2.8 2.1 4 2.6l21.3 10.1c1.2 0.6 3 0.3 4-0.5l6.7-5.5c3.6-2.9 6.3-6.7 7.8-11l1.9-5.1c0.5-1.2 0.4-3.3-0.1-4.5l-6.9-16.3c-0.5-1.2-0.2-3 0.7-4l33.1-35.2c0.9-1 2.3-2.6 3.2-3.6-0.2-0.3 1.6-2.5 2.2-4.9z" fill="#fff"/></svg>
