<?xml version="1.0" encoding="UTF-8" ?>
<svg version="1.1" width="36" height="41" xmlns="http://www.w3.org/2000/svg">
<rect x="12" y="0" width="1" height="8" fill="#FF3B1E" />
<rect x="13" y="0" width="1" height="8" fill="#FF391D" />
<rect x="14" y="0" width="1" height="8" fill="#FF381B" />
<rect x="15" y="0" width="1" height="7" fill="#FF371A" />
<rect x="16" y="0" width="1" height="7" fill="#FF3518" />
<rect x="17" y="0" width="1" height="7" fill="#FF3417" />
<rect x="18" y="0" width="1" height="7" fill="#FF3315" />
<rect x="19" y="0" width="1" height="7" fill="#FF3214" />
<rect x="20" y="0" width="1" height="7" fill="#FF3013" />
<rect x="21" y="0" width="1" height="7" fill="#FF2F11" />
<rect x="22" y="0" width="1" height="8" fill="#FF2E10" />
<rect x="23" y="0" width="1" height="8" fill="#FF2D0E" />
<rect x="24" y="0" width="1" height="8" fill="#FF2B0D" />
<rect x="11" y="1" width="1" height="6" fill="#FF3C20" />
<rect x="25" y="1" width="1" height="6" fill="#FF2A0B" />
<rect x="10" y="2" width="1" height="5" fill="#FF3D21" />
<rect x="26" y="2" width="1" height="5" fill="#FF290A" />
<rect x="9" y="3" width="1" height="4" fill="#FF3E22" />
<rect x="27" y="3" width="1" height="4" fill="#FF2708" />
<rect x="5" y="4" width="1" height="1" fill="#FF4328" />
<rect x="6" y="4" width="1" height="1" fill="#FF4227" />
<rect x="7" y="4" width="1" height="2" fill="#FF4125" />
<rect x="8" y="4" width="1" height="1" fill="#FF4122" opacity="0.996078" />
<rect x="28" y="4" width="1" height="1" fill="#FF2302" opacity="0.827451" />
<rect x="29" y="4" width="1" height="2" fill="#FF2506" />
<rect x="30" y="4" width="1" height="1" fill="#FF2404" />
<rect x="31" y="4" width="1" height="1" fill="#FF2203" />
<rect x="3" y="5" width="4" height="6" fill="#FF5500" />
<rect x="8" y="5" width="1" height="1" fill="#FF4024" />
<rect x="28" y="5" width="1" height="1" fill="#FF2607" />
<rect x="30" y="5" width="4" height="6" fill="#FF2000" />
<rect x="2" y="6" width="1" height="15" fill="#FF5500" />
<rect x="7" y="6" width="2" height="2" fill="#FF5500" />
<rect x="28" y="6" width="2" height="2" fill="#FF2000" />
<rect x="34" y="6" width="1" height="15" fill="#FF2000" />
<rect x="1" y="7" width="1" height="2" fill="#FF5500" />
<rect x="9" y="7" width="2" height="4" fill="#FFFFFF" />
<rect x="11" y="7" width="1" height="1" fill="#FF603E" />
<rect x="15" y="7" width="1" height="1" fill="#FF845E" />
<rect x="16" y="7" width="5" height="5" fill="#FFFFFF" />
<rect x="21" y="7" width="1" height="1" fill="#FF3D22" />
<rect x="25" y="7" width="1" height="1" fill="#FF6B55" />
<rect x="26" y="7" width="2" height="4" fill="#FFFFFF" />
<rect x="35" y="7" width="1" height="2" fill="#FF2000" />
<rect x="7" y="8" width="1" height="1" fill="#FF5500" />
<rect x="8" y="8" width="1" height="11" fill="#FFFFFF" />
<rect x="11" y="8" width="5" height="3" fill="#FFFFFF" />
<rect x="21" y="8" width="5" height="3" fill="#FFFFFF" />
<rect x="28" y="8" width="1" height="11" fill="#FFFFFF" />
<rect x="29" y="8" width="1" height="1" fill="#FF2000" />
<rect x="1" y="9" width="1" height="1" fill="#FF5700" opacity="0.137255" />
<rect x="7" y="9" width="1" height="1" fill="#FF8142" />
<rect x="29" y="9" width="1" height="1" fill="#FF462B" />
<rect x="7" y="10" width="1" height="8" fill="#FFFFFF" />
<rect x="29" y="10" width="1" height="8" fill="#FFFFFF" />
<rect x="1" y="11" width="1" height="1" fill="#FF5500" opacity="0.984314" />
<rect x="3" y="11" width="3" height="1" fill="#FF5500" />
<rect x="6" y="11" width="1" height="6" fill="#FFFFFF" />
<rect x="9" y="11" width="5" height="1" fill="#FF5500" />
<rect x="14" y="11" width="1" height="1" fill="#FFF0E8" />
<rect x="15" y="11" width="1" height="1" fill="#FFFFFF" />
<rect x="21" y="11" width="1" height="1" fill="#FFFFFF" />
<rect x="22" y="11" width="1" height="1" fill="#FF4C32" />
<rect x="23" y="11" width="5" height="1" fill="#FF2000" />
<rect x="30" y="11" width="1" height="6" fill="#FFFFFF" />
<rect x="31" y="11" width="3" height="1" fill="#FF2000" />
<rect x="35" y="11" width="1" height="1" fill="#FF2000" opacity="0.533333" />
<rect x="1" y="12" width="1" height="5" fill="#FF5500" />
<rect x="3" y="12" width="2" height="12" fill="#FF5500" />
<rect x="5" y="12" width="1" height="4" fill="#FFFFFF" />
<rect x="9" y="12" width="2" height="8" fill="#FFFFFF" />
<rect x="11" y="12" width="4" height="1" fill="#FF5500" />
<rect x="15" y="12" width="1" height="9" fill="#FF5300" />
<rect x="16" y="12" width="1" height="1" fill="#FF4A00" />
<rect x="17" y="12" width="3" height="8" fill="#FFFFFF" />
<rect x="20" y="12" width="1" height="2" fill="#FF2800" />
<rect x="21" y="12" width="4" height="1" fill="#FF2000" />
<rect x="25" y="12" width="1" height="1" fill="#FF2F11" />
<rect x="26" y="12" width="2" height="8" fill="#FFFFFF" />
<rect x="31" y="12" width="1" height="4" fill="#FFFFFF" />
<rect x="32" y="12" width="2" height="12" fill="#FF2000" />
<rect x="35" y="12" width="1" height="5" fill="#FF2000" />
<rect x="11" y="13" width="3" height="5" fill="#FFFFFF" />
<rect x="14" y="13" width="1" height="1" fill="#FF5500" />
<rect x="16" y="13" width="1" height="1" fill="#FFE7DD" />
<rect x="21" y="13" width="2" height="1" fill="#FF2000" />
<rect x="23" y="13" width="3" height="5" fill="#FFFFFF" />
<rect x="14" y="14" width="1" height="2" fill="#FFFFFF" />
<rect x="16" y="14" width="1" height="5" fill="#FFFFFF" />
<rect x="20" y="14" width="1" height="5" fill="#FFFFFF" />
<rect x="21" y="14" width="1" height="7" fill="#FF2000" />
<rect x="22" y="14" width="1" height="3" fill="#FFFFFF" />
<rect x="5" y="16" width="1" height="16" fill="#FF5500" />
<rect x="14" y="16" width="1" height="1" fill="#FF5602" />
<rect x="31" y="16" width="1" height="15" fill="#FF2000" />
<rect x="6" y="17" width="1" height="16" fill="#FF5500" />
<rect x="14" y="17" width="1" height="3" fill="#FF5500" />
<rect x="22" y="17" width="1" height="3" fill="#FF2000" />
<rect x="30" y="17" width="1" height="16" fill="#FF2000" />
<rect x="7" y="18" width="1" height="16" fill="#FF5500" />
<rect x="11" y="18" width="2" height="9" fill="#FFFFFF" />
<rect x="13" y="18" width="1" height="1" fill="#FF5500" />
<rect x="23" y="18" width="1" height="1" fill="#FF7460" />
<rect x="24" y="18" width="2" height="9" fill="#FFFFFF" />
<rect x="29" y="18" width="1" height="16" fill="#FF2000" />
<rect x="8" y="19" width="1" height="16" fill="#FF5500" />
<rect x="13" y="19" width="1" height="7" fill="#FFFFFF" />
<rect x="16" y="19" width="1" height="1" fill="#FFEAE2" />
<rect x="20" y="19" width="1" height="1" fill="#FF6548" />
<rect x="23" y="19" width="1" height="7" fill="#FFFFFF" />
<rect x="28" y="19" width="1" height="16" fill="#FF2000" />
<rect x="9" y="20" width="1" height="3" fill="#FF5500" />
<rect x="10" y="20" width="1" height="6" fill="#FFFFFF" />
<rect x="14" y="20" width="1" height="6" fill="#FFFFFF" />
<rect x="16" y="20" width="1" height="1" fill="#FF4A00" />
<rect x="17" y="20" width="1" height="2" fill="#FF4200" />
<rect x="18" y="20" width="1" height="6" fill="#FF3900" />
<rect x="19" y="20" width="1" height="2" fill="#FF3100" />
<rect x="20" y="20" width="1" height="1" fill="#FF2800" />
<rect x="22" y="20" width="1" height="6" fill="#FFFFFF" />
<rect x="26" y="20" width="1" height="6" fill="#FFFFFF" />
<rect x="27" y="20" width="1" height="3" fill="#FF2000" />
<rect x="15" y="21" width="2" height="3" fill="#FFFFFF" />
<rect x="20" y="21" width="2" height="3" fill="#FFFFFF" />
<rect x="17" y="22" width="1" height="1" fill="#FFFFFF" />
<rect x="19" y="22" width="1" height="2" fill="#FFFFFF" />
<rect x="9" y="23" width="1" height="2" fill="#FFFFFF" />
<rect x="17" y="23" width="1" height="1" fill="#FF6935" />
<rect x="27" y="23" width="1" height="1" fill="#FFECE9" />
<rect x="3" y="24" width="1" height="1" fill="#FF5500" opacity="0.694118" />
<rect x="4" y="24" width="1" height="4" fill="#FF5500" />
<rect x="15" y="24" width="1" height="1" fill="#FFFFFF" />
<rect x="16" y="24" width="1" height="3" fill="#FF4A00" />
<rect x="17" y="24" width="1" height="2" fill="#FF4200" />
<rect x="19" y="24" width="1" height="2" fill="#FF3100" />
<rect x="20" y="24" width="1" height="1" fill="#FFFEFE" />
<rect x="21" y="24" width="1" height="1" fill="#FFFFFF" />
<rect x="27" y="24" width="1" height="12" fill="#FF2000" />
<rect x="32" y="24" width="1" height="4" fill="#FF2000" />
<rect x="33" y="24" width="1" height="1" fill="#FF2000" opacity="0.690196" />
<rect x="9" y="25" width="1" height="11" fill="#FF5500" />
<rect x="15" y="25" width="1" height="2" fill="#FF5300" />
<rect x="20" y="25" width="1" height="2" fill="#FF2800" />
<rect x="21" y="25" width="1" height="2" fill="#FF2000" />
<rect x="10" y="26" width="1" height="11" fill="#FF5500" />
<rect x="13" y="26" width="2" height="2" fill="#FF5500" />
<rect x="17" y="26" width="3" height="6" fill="#FFFFFF" />
<rect x="22" y="26" width="2" height="2" fill="#FF2000" />
<rect x="26" y="26" width="1" height="11" fill="#FF2000" />
<rect x="11" y="27" width="2" height="10" fill="#FF5500" />
<rect x="15" y="27" width="2" height="4" fill="#FFFFFF" />
<rect x="20" y="27" width="2" height="4" fill="#FFFFFF" />
<rect x="24" y="27" width="2" height="10" fill="#FF2000" />
<rect x="13" y="28" width="2" height="1" fill="#FFFFFF" />
<rect x="22" y="28" width="2" height="1" fill="#FFFFFF" />
<rect x="13" y="29" width="1" height="10" fill="#FF5500" />
<rect x="14" y="29" width="1" height="1" fill="#FFFFFF" />
<rect x="22" y="29" width="1" height="1" fill="#FFFFFF" />
<rect x="23" y="29" width="1" height="10" fill="#FF2000" />
<rect x="14" y="30" width="1" height="9" fill="#FF5500" />
<rect x="22" y="30" width="1" height="9" fill="#FF2000" />
<rect x="15" y="31" width="1" height="9" fill="#FF5300" />
<rect x="16" y="31" width="1" height="1" fill="#FFFFFF" />
<rect x="20" y="31" width="1" height="1" fill="#FFFFFF" />
<rect x="21" y="31" width="1" height="9" fill="#FF2000" />
<rect x="31" y="31" width="1" height="1" fill="#FF2000" opacity="0.976471" />
<rect x="16" y="32" width="1" height="9" fill="#FF4A00" />
<rect x="17" y="32" width="1" height="1" fill="#FF8A61" />
<rect x="18" y="32" width="1" height="1" fill="#FFFFFF" />
<rect x="19" y="32" width="1" height="1" fill="#FF7757" />
<rect x="20" y="32" width="1" height="9" fill="#FF2800" />
<rect x="6" y="33" width="1" height="1" fill="#FF5700" opacity="0.137255" />
<rect x="17" y="33" width="1" height="8" fill="#FF4200" />
<rect x="18" y="33" width="1" height="8" fill="#FF3900" />
<rect x="19" y="33" width="1" height="8" fill="#FF3100" />
<rect x="30" y="33" width="1" height="1" fill="#FF2200" opacity="0.149020" />
<rect x="7" y="34" width="1" height="1" fill="#FF5500" opacity="0.917647" />
<rect x="29" y="34" width="1" height="1" fill="#FF2000" opacity="0.929412" />
<rect x="12" y="37" width="1" height="1" fill="#FF5500" />
<rect x="24" y="37" width="1" height="1" fill="#FF2000" />
</svg>
