<?xml version="1.0" encoding="UTF-8" ?>
<svg version="1.1" width="248" height="168" xmlns="http://www.w3.org/2000/svg">
<rect x="8" y="0" width="232" height="8" fill="#008080" />
<rect x="0" y="8" width="8" height="152" fill="#008080" />
<rect x="8" y="8" width="8" height="8" fill="#FFFFFF" />
<rect x="16" y="8" width="8" height="8" fill="#00FFFF" />
<rect x="24" y="8" width="8" height="8" fill="#FFFFFF" />
<rect x="32" y="8" width="8" height="8" fill="#00FFFF" />
<rect x="40" y="8" width="8" height="8" fill="#FFFFFF" />
<rect x="48" y="8" width="8" height="8" fill="#00FFFF" />
<rect x="56" y="8" width="8" height="8" fill="#FFFFFF" />
<rect x="64" y="8" width="8" height="8" fill="#00FFFF" />
<rect x="72" y="8" width="8" height="8" fill="#FFFFFF" />
<rect x="80" y="8" width="8" height="8" fill="#00FFFF" />
<rect x="88" y="8" width="8" height="8" fill="#FFFFFF" />
<rect x="96" y="8" width="8" height="8" fill="#00FFFF" />
<rect x="104" y="8" width="8" height="8" fill="#FFFFFF" />
<rect x="112" y="8" width="8" height="8" fill="#00FFFF" />
<rect x="120" y="8" width="8" height="8" fill="#FFFFFF" />
<rect x="128" y="8" width="8" height="8" fill="#00FFFF" />
<rect x="136" y="8" width="8" height="8" fill="#FFFFFF" />
<rect x="144" y="8" width="8" height="8" fill="#00FFFF" />
<rect x="152" y="8" width="8" height="8" fill="#FFFFFF" />
<rect x="160" y="8" width="8" height="8" fill="#00FFFF" />
<rect x="168" y="8" width="8" height="8" fill="#FFFFFF" />
<rect x="176" y="8" width="8" height="8" fill="#00FFFF" />
<rect x="184" y="8" width="8" height="8" fill="#FFFFFF" />
<rect x="192" y="8" width="8" height="8" fill="#00FFFF" />
<rect x="200" y="8" width="8" height="8" fill="#FFFFFF" />
<rect x="208" y="8" width="8" height="8" fill="#00FFFF" />
<rect x="216" y="8" width="8" height="8" fill="#FFFFFF" />
<rect x="224" y="8" width="8" height="8" fill="#00FFFF" />
<rect x="232" y="8" width="8" height="152" fill="#000080" />
<rect x="240" y="8" width="8" height="152" fill="#000000" />
<rect x="8" y="16" width="8" height="8" fill="#00FFFF" />
<rect x="16" y="16" width="16" height="136" fill="#008080" />
<rect x="32" y="16" width="120" height="8" fill="#000000" />
<rect x="152" y="16" width="80" height="40" fill="#008080" />
<rect x="8" y="24" width="8" height="8" fill="#FFFFFF" />
<rect x="32" y="24" width="8" height="24" fill="#000000" />
<rect x="40" y="24" width="112" height="8" fill="#C0C0C0" />
<rect x="8" y="32" width="8" height="8" fill="#00FFFF" />
<rect x="40" y="32" width="104" height="8" fill="#FFFFFF" />
<rect x="144" y="32" width="8" height="16" fill="#C0C0C0" />
<rect x="8" y="40" width="8" height="8" fill="#FFFFFF" />
<rect x="40" y="40" width="104" height="8" fill="#C0C0C0" />
<rect x="8" y="48" width="8" height="8" fill="#00FFFF" />
<rect x="32" y="48" width="120" height="8" fill="#008080" />
<rect x="8" y="56" width="8" height="8" fill="#FFFFFF" />
<rect x="32" y="56" width="16" height="8" fill="#FFFFFF" />
<rect x="48" y="56" width="8" height="24" fill="#000000" />
<rect x="56" y="56" width="8" height="96" fill="#008080" />
<rect x="64" y="56" width="16" height="8" fill="#FFFFFF" />
<rect x="80" y="56" width="8" height="24" fill="#000000" />
<rect x="88" y="56" width="8" height="96" fill="#008080" />
<rect x="96" y="56" width="16" height="8" fill="#FFFFFF" />
<rect x="112" y="56" width="8" height="24" fill="#000000" />
<rect x="120" y="56" width="8" height="96" fill="#008080" />
<rect x="128" y="56" width="16" height="8" fill="#FFFFFF" />
<rect x="144" y="56" width="8" height="24" fill="#000000" />
<rect x="152" y="56" width="8" height="96" fill="#008080" />
<rect x="160" y="56" width="16" height="8" fill="#FFFFFF" />
<rect x="176" y="56" width="8" height="24" fill="#000000" />
<rect x="184" y="56" width="8" height="64" fill="#008080" />
<rect x="192" y="56" width="16" height="8" fill="#FFFFFF" />
<rect x="208" y="56" width="8" height="24" fill="#000000" />
<rect x="216" y="56" width="16" height="96" fill="#008080" />
<rect x="8" y="64" width="8" height="8" fill="#00FFFF" />
<rect x="32" y="64" width="8" height="8" fill="#FFFFFF" />
<rect x="40" y="64" width="8" height="8" fill="#C0C0C0" />
<rect x="64" y="64" width="8" height="8" fill="#FFFFFF" />
<rect x="72" y="64" width="8" height="8" fill="#C0C0C0" />
<rect x="96" y="64" width="8" height="8" fill="#FFFFFF" />
<rect x="104" y="64" width="8" height="8" fill="#C0C0C0" />
<rect x="128" y="64" width="8" height="8" fill="#FFFFFF" />
<rect x="136" y="64" width="8" height="8" fill="#C0C0C0" />
<rect x="160" y="64" width="8" height="8" fill="#FFFFFF" />
<rect x="168" y="64" width="8" height="8" fill="#C0C0C0" />
<rect x="192" y="64" width="8" height="8" fill="#FFFFFF" />
<rect x="200" y="64" width="8" height="8" fill="#C0C0C0" />
<rect x="8" y="72" width="8" height="8" fill="#FFFFFF" />
<rect x="32" y="72" width="16" height="8" fill="#000000" />
<rect x="64" y="72" width="16" height="8" fill="#000000" />
<rect x="96" y="72" width="16" height="8" fill="#000000" />
<rect x="128" y="72" width="16" height="8" fill="#000000" />
<rect x="160" y="72" width="16" height="8" fill="#000000" />
<rect x="192" y="72" width="16" height="8" fill="#000000" />
<rect x="8" y="80" width="8" height="8" fill="#00FFFF" />
<rect x="32" y="80" width="24" height="8" fill="#008080" />
<rect x="64" y="80" width="24" height="8" fill="#008080" />
<rect x="96" y="80" width="24" height="8" fill="#008080" />
<rect x="128" y="80" width="24" height="8" fill="#008080" />
<rect x="160" y="80" width="24" height="8" fill="#008080" />
<rect x="192" y="80" width="24" height="8" fill="#008080" />
<rect x="8" y="88" width="8" height="8" fill="#FFFFFF" />
<rect x="32" y="88" width="16" height="8" fill="#FFFFFF" />
<rect x="48" y="88" width="8" height="24" fill="#000000" />
<rect x="64" y="88" width="16" height="8" fill="#FFFFFF" />
<rect x="80" y="88" width="8" height="24" fill="#000000" />
<rect x="96" y="88" width="16" height="8" fill="#FFFFFF" />
<rect x="112" y="88" width="8" height="24" fill="#000000" />
<rect x="128" y="88" width="16" height="8" fill="#FFFFFF" />
<rect x="144" y="88" width="8" height="24" fill="#000000" />
<rect x="160" y="88" width="16" height="8" fill="#FFFFFF" />
<rect x="176" y="88" width="8" height="24" fill="#000000" />
<rect x="192" y="88" width="16" height="8" fill="#FFFFFF" />
<rect x="208" y="88" width="8" height="24" fill="#000000" />
<rect x="8" y="96" width="8" height="8" fill="#00FFFF" />
<rect x="32" y="96" width="8" height="8" fill="#FFFFFF" />
<rect x="40" y="96" width="8" height="8" fill="#C0C0C0" />
<rect x="64" y="96" width="8" height="8" fill="#FFFFFF" />
<rect x="72" y="96" width="8" height="8" fill="#C0C0C0" />
<rect x="96" y="96" width="8" height="8" fill="#FFFFFF" />
<rect x="104" y="96" width="8" height="8" fill="#C0C0C0" />
<rect x="128" y="96" width="8" height="8" fill="#FFFFFF" />
<rect x="136" y="96" width="8" height="8" fill="#C0C0C0" />
<rect x="160" y="96" width="8" height="8" fill="#FFFFFF" />
<rect x="168" y="96" width="8" height="8" fill="#C0C0C0" />
<rect x="192" y="96" width="8" height="8" fill="#FFFFFF" />
<rect x="200" y="96" width="8" height="8" fill="#C0C0C0" />
<rect x="8" y="104" width="8" height="8" fill="#FFFFFF" />
<rect x="32" y="104" width="16" height="8" fill="#000000" />
<rect x="64" y="104" width="16" height="8" fill="#000000" />
<rect x="96" y="104" width="16" height="8" fill="#000000" />
<rect x="128" y="104" width="16" height="8" fill="#000000" />
<rect x="160" y="104" width="16" height="8" fill="#000000" />
<rect x="192" y="104" width="16" height="8" fill="#000000" />
<rect x="8" y="112" width="8" height="8" fill="#00FFFF" />
<rect x="32" y="112" width="24" height="8" fill="#008080" />
<rect x="64" y="112" width="24" height="8" fill="#008080" />
<rect x="96" y="112" width="24" height="8" fill="#008080" />
<rect x="128" y="112" width="24" height="8" fill="#008080" />
<rect x="160" y="112" width="24" height="8" fill="#008080" />
<rect x="192" y="112" width="24" height="8" fill="#008080" />
<rect x="8" y="120" width="8" height="8" fill="#FFFFFF" />
<rect x="32" y="120" width="16" height="8" fill="#FFFFFF" />
<rect x="48" y="120" width="8" height="24" fill="#000000" />
<rect x="64" y="120" width="16" height="8" fill="#FFFFFF" />
<rect x="80" y="120" width="8" height="24" fill="#000000" />
<rect x="96" y="120" width="16" height="8" fill="#FFFFFF" />
<rect x="112" y="120" width="8" height="24" fill="#000000" />
<rect x="128" y="120" width="16" height="8" fill="#FFFFFF" />
<rect x="144" y="120" width="8" height="24" fill="#000000" />
<rect x="160" y="120" width="48" height="8" fill="#FFFFFF" />
<rect x="208" y="120" width="8" height="24" fill="#000000" />
<rect x="8" y="128" width="8" height="8" fill="#00FFFF" />
<rect x="32" y="128" width="8" height="8" fill="#FFFFFF" />
<rect x="40" y="128" width="8" height="8" fill="#C0C0C0" />
<rect x="64" y="128" width="8" height="8" fill="#FFFFFF" />
<rect x="72" y="128" width="8" height="8" fill="#C0C0C0" />
<rect x="96" y="128" width="8" height="8" fill="#FFFFFF" />
<rect x="104" y="128" width="8" height="8" fill="#C0C0C0" />
<rect x="128" y="128" width="8" height="8" fill="#FFFFFF" />
<rect x="136" y="128" width="8" height="8" fill="#C0C0C0" />
<rect x="160" y="128" width="8" height="8" fill="#FFFFFF" />
<rect x="168" y="128" width="40" height="8" fill="#C0C0C0" />
<rect x="8" y="136" width="8" height="8" fill="#FFFFFF" />
<rect x="32" y="136" width="16" height="8" fill="#000000" />
<rect x="64" y="136" width="16" height="8" fill="#000000" />
<rect x="96" y="136" width="16" height="8" fill="#000000" />
<rect x="128" y="136" width="16" height="8" fill="#000000" />
<rect x="160" y="136" width="48" height="8" fill="#000000" />
<rect x="8" y="144" width="8" height="8" fill="#00FFFF" />
<rect x="32" y="144" width="24" height="8" fill="#008080" />
<rect x="64" y="144" width="24" height="8" fill="#008080" />
<rect x="96" y="144" width="24" height="8" fill="#008080" />
<rect x="128" y="144" width="24" height="8" fill="#008080" />
<rect x="160" y="144" width="56" height="8" fill="#008080" />
<rect x="8" y="152" width="8" height="8" fill="#008080" />
<rect x="16" y="152" width="216" height="8" fill="#000080" />
<rect x="8" y="160" width="232" height="8" fill="#000000" />
</svg>
