<?xml version="1.0" encoding="UTF-8" ?>
<svg version="1.1" width="31" height="21" xmlns="http://www.w3.org/2000/svg">
  <rect x="0" y="1" width="29" height="19" fill="#008080"/>
  <rect x="1" y="0" width="29" height="2" fill="#008080"/>
  <rect x="1" y="1" width="28" height="1" fill="#FFFFFF"/>
  <rect x="1" y="1" width="1" height="19" fill="#FFFFFF"/>
  <rect x="2" y="1" width="1" height="1" fill="#00FFFF"/>
  <rect x="4" y="1" width="1" height="1" fill="#00FFFF"/>
  <rect x="6" y="1" width="1" height="1" fill="#00FFFF"/>
  <rect x="8" y="1" width="1" height="1" fill="#00FFFF"/>
  <rect x="10" y="1" width="1" height="1" fill="#00FFFF"/>
  <rect x="12" y="1" width="1" height="1" fill="#00FFFF"/>
  <rect x="14" y="1" width="1" height="1" fill="#00FFFF"/>
  <rect x="16" y="1" width="1" height="1" fill="#00FFFF"/>
  <rect x="18" y="1" width="1" height="1" fill="#00FFFF"/>
  <rect x="20" y="1" width="1" height="1" fill="#00FFFF"/>
  <rect x="22" y="1" width="1" height="1" fill="#00FFFF"/>
  <rect x="24" y="1" width="1" height="1" fill="#00FFFF"/>
  <rect x="26" y="1" width="1" height="1" fill="#00FFFF"/>
  <rect x="28" y="1" width="1" height="1" fill="#00FFFF"/>
  <rect x="1" y="2" width="1" height="1" fill="#00FFFF"/>
  <rect x="1" y="4" width="1" height="1" fill="#00FFFF"/>
  <rect x="1" y="6" width="1" height="1" fill="#00FFFF"/>
  <rect x="1" y="8" width="1" height="1" fill="#00FFFF"/>
  <rect x="1" y="10" width="1" height="1" fill="#00FFFF"/>
  <rect x="1" y="12" width="1" height="1" fill="#00FFFF"/>
  <rect x="1" y="14" width="1" height="1" fill="#00FFFF"/>
  <rect x="1" y="16" width="1" height="1" fill="#00FFFF"/>
  <rect x="1" y="18" width="1" height="1" fill="#00FFFF"/>
  <rect x="4" y="2" width="15" height="4" fill="#000000"/>
  <rect x="5" y="3" width="14" height="3" fill="#C0C0C0"/>
  <rect x="5" y="4" width="13" height="1" fill="#FFFFFF"/>
  <rect x="4" y="7" width="3" height="3" fill="#000000"/>
  <rect x="4" y="7" width="2" height="2" fill="#FFFFFF"/>
  <rect x="5" y="8" width="1" height="1" fill="#C0C0C0"/>
  <rect x="8" y="7" width="3" height="3" fill="#000000"/>
  <rect x="8" y="7" width="2" height="2" fill="#FFFFFF"/>
  <rect x="9" y="8" width="1" height="1" fill="#C0C0C0"/>
  <rect x="12" y="7" width="3" height="3" fill="#000000"/>
  <rect x="12" y="7" width="2" height="2" fill="#FFFFFF"/>
  <rect x="13" y="8" width="1" height="1" fill="#C0C0C0"/>
  <rect x="16" y="7" width="3" height="3" fill="#000000"/>
  <rect x="16" y="7" width="2" height="2" fill="#FFFFFF"/>
  <rect x="17" y="8" width="1" height="1" fill="#C0C0C0"/>
  <rect x="20" y="7" width="3" height="3" fill="#000000"/>
  <rect x="20" y="7" width="2" height="2" fill="#FFFFFF"/>
  <rect x="21" y="8" width="1" height="1" fill="#C0C0C0"/>
  <rect x="24" y="7" width="3" height="3" fill="#000000"/>
  <rect x="24" y="7" width="2" height="2" fill="#FFFFFF"/>
  <rect x="25" y="8" width="1" height="1" fill="#C0C0C0"/>
  <rect x="4" y="11" width="3" height="3" fill="#000000"/>
  <rect x="4" y="11" width="2" height="2" fill="#FFFFFF"/>
  <rect x="5" y="12" width="1" height="1" fill="#C0C0C0"/>
  <rect x="8" y="11" width="3" height="3" fill="#000000"/>
  <rect x="8" y="11" width="2" height="2" fill="#FFFFFF"/>
  <rect x="9" y="12" width="1" height="1" fill="#C0C0C0"/>
  <rect x="12" y="11" width="3" height="3" fill="#000000"/>
  <rect x="12" y="11" width="2" height="2" fill="#FFFFFF"/>
  <rect x="13" y="12" width="1" height="1" fill="#C0C0C0"/>
  <rect x="16" y="11" width="3" height="3" fill="#000000"/>
  <rect x="16" y="11" width="2" height="2" fill="#FFFFFF"/>
  <rect x="17" y="12" width="1" height="1" fill="#C0C0C0"/>
  <rect x="20" y="11" width="3" height="3" fill="#000000"/>
  <rect x="20" y="11" width="2" height="2" fill="#FFFFFF"/>
  <rect x="21" y="12" width="1" height="1" fill="#C0C0C0"/>
  <rect x="24" y="11" width="3" height="3" fill="#000000"/>
  <rect x="24" y="11" width="2" height="2" fill="#FFFFFF"/>
  <rect x="25" y="12" width="1" height="1" fill="#C0C0C0"/>
  <rect x="4" y="15" width="3" height="3" fill="#000000"/>
  <rect x="4" y="15" width="2" height="2" fill="#FFFFFF"/>
  <rect x="5" y="16" width="1" height="1" fill="#C0C0C0"/>
  <rect x="8" y="15" width="3" height="3" fill="#000000"/>
  <rect x="8" y="15" width="2" height="2" fill="#FFFFFF"/>
  <rect x="9" y="16" width="1" height="1" fill="#C0C0C0"/>
  <rect x="12" y="15" width="3" height="3" fill="#000000"/>
  <rect x="12" y="15" width="2" height="2" fill="#FFFFFF"/>
  <rect x="13" y="16" width="1" height="1" fill="#C0C0C0"/>
  <rect x="16" y="15" width="3" height="3" fill="#000000"/>
  <rect x="16" y="15" width="2" height="2" fill="#FFFFFF"/>
  <rect x="17" y="16" width="1" height="1" fill="#C0C0C0"/>
  <rect x="20" y="15" width="7" height="3" fill="#000000"/>
  <rect x="20" y="15" width="6" height="2" fill="#FFFFFF"/>
  <rect x="21" y="16" width="5" height="1" fill="#C0C0C0"/>
  <rect x="29" y="1" width="1" height="19" fill="#000080"/>
  <rect x="2" y="19" width="28" height="1" fill="#000080"/>
  <rect x="1" y="20" width="29" height="1" fill="#000000"/>
  <rect x="30" y="1" width="1" height="19" fill="#000000"/>
</svg>
