<?xml version="1.0" encoding="UTF-8" ?>
<svg version="1.1" width="36" height="36" xmlns="http://www.w3.org/2000/svg" shape-rendering="crispEdges">
<rect x="15" y="0" width="1" height="1" fill="#E1382B" opacity="0.396078" />
<rect x="16" y="0" width="1" height="1" fill="#E0392D" opacity="0.670588" />
<rect x="17" y="0" width="1" height="1" fill="#E1392C" opacity="0.866667" />
<rect x="18" y="0" width="1" height="9" fill="#E23A2D" />
<rect x="19" y="0" width="1" height="1" fill="#E23A2D" opacity="0.933333" />
<rect x="20" y="0" width="1" height="1" fill="#E23B2E" opacity="0.768627" />
<rect x="21" y="0" width="1" height="1" fill="#E43B2E" opacity="0.219608" />
<rect x="12" y="1" width="1" height="1" fill="#DF352A" opacity="0.431373" />
<rect x="13" y="1" width="1" height="1" fill="#E0362A" opacity="0.984314" />
<rect x="14" y="1" width="1" height="9" fill="#DF372B" />
<rect x="15" y="1" width="2" height="8" fill="#E0382C" />
<rect x="17" y="1" width="1" height="8" fill="#E1392C" />
<rect x="19" y="1" width="1" height="8" fill="#E23A2D" />
<rect x="20" y="1" width="1" height="8" fill="#E23B2E" />
<rect x="21" y="1" width="1" height="8" fill="#E33B2F" />
<rect x="22" y="1" width="2" height="8" fill="#E43C2F" />
<rect x="24" y="1" width="1" height="1" fill="#E64033" opacity="0.078431" />
<rect x="10" y="2" width="1" height="1" fill="#DB2424" opacity="0.027451" />
<rect x="11" y="2" width="1" height="1" fill="#DE3429" opacity="0.839216" />
<rect x="12" y="2" width="1" height="10" fill="#DE362A" />
<rect x="13" y="2" width="1" height="9" fill="#DF362A" />
<rect x="24" y="2" width="1" height="7" fill="#E53D30" />
<rect x="25" y="2" width="1" height="7" fill="#E53E31" />
<rect x="26" y="2" width="1" height="1" fill="#E53F32" opacity="0.380392" />
<rect x="8" y="3" width="1" height="1" fill="#DD3428" opacity="0.325490" />
<rect x="9" y="3" width="1" height="13" fill="#DD3428" />
<rect x="10" y="3" width="1" height="11" fill="#DD3529" />
<rect x="11" y="3" width="1" height="10" fill="#DE3529" />
<rect x="26" y="3" width="1" height="6" fill="#E63E31" />
<rect x="27" y="3" width="1" height="6" fill="#E73F32" />
<rect x="28" y="3" width="1" height="1" fill="#E74032" opacity="0.921569" />
<rect x="7" y="4" width="1" height="1" fill="#DB3327" opacity="0.800000" />
<rect x="8" y="4" width="1" height="14" fill="#DC3328" />
<rect x="28" y="4" width="2" height="5" fill="#E74032" />
<rect x="6" y="5" width="1" height="1" fill="#DB3227" opacity="0.968627" />
<rect x="7" y="5" width="1" height="12" fill="#DB3327" />
<rect x="30" y="5" width="1" height="1" fill="#E94132" opacity="0.321569" />
<rect x="5" y="6" width="1" height="1" fill="#DA3126" opacity="0.972549" />
<rect x="6" y="6" width="1" height="9" fill="#DB3227" />
<rect x="30" y="6" width="1" height="3" fill="#E84133" />
<rect x="31" y="6" width="1" height="3" fill="#E94134" />
<rect x="32" y="6" width="1" height="1" fill="#E94235" opacity="0.227451" />
<rect x="4" y="7" width="1" height="1" fill="#DA3126" opacity="0.815686" />
<rect x="5" y="7" width="1" height="6" fill="#DA3126" />
<rect x="32" y="7" width="1" height="2" fill="#E94234" />
<rect x="3" y="8" width="1" height="1" fill="#D92F26" opacity="0.317647" />
<rect x="4" y="8" width="1" height="4" fill="#DA3126" />
<rect x="3" y="9" width="1" height="1" fill="#D93025" />
<rect x="15" y="9" width="1" height="1" fill="#E0382C" />
<rect x="16" y="9" width="1" height="1" fill="#E4564C" opacity="0.788235" />
<rect x="17" y="9" width="1" height="1" fill="#F5BDBA" opacity="0.807843" />
<rect x="18" y="9" width="1" height="1" fill="#FFFBF2" opacity="0.996078" />
<rect x="19" y="9" width="1" height="1" fill="#FEF2CE" opacity="0.901961" />
<rect x="20" y="9" width="1" height="1" fill="#FCD767" opacity="0.784314" />
<rect x="21" y="9" width="2" height="1" fill="#FBBE0C" />
<rect x="23" y="9" width="1" height="1" fill="#FBBE0B" />
<rect x="24" y="9" width="1" height="1" fill="#FBBE0A" />
<rect x="25" y="9" width="2" height="1" fill="#FBBD09" />
<rect x="27" y="9" width="1" height="1" fill="#FBBD08" />
<rect x="28" y="9" width="1" height="1" fill="#FBBD07" />
<rect x="29" y="9" width="1" height="1" fill="#FBBD06" />
<rect x="30" y="9" width="2" height="1" fill="#FBBC05" />
<rect x="32" y="9" width="2" height="1" fill="#FBBC04" />
<rect x="34" y="9" width="1" height="1" fill="#FF8000" opacity="0.007843" />
<rect x="2" y="10" width="1" height="1" fill="#2BAA55" opacity="0.023529" />
<rect x="3" y="10" width="1" height="1" fill="#D53326" opacity="0.972549" />
<rect x="14" y="10" width="1" height="1" fill="#E0392D" opacity="0.929412" />
<rect x="15" y="10" width="7" height="2" fill="#FFFFFF" />
<rect x="22" y="10" width="1" height="1" fill="#FCD769" opacity="0.780392" />
<rect x="23" y="10" width="1" height="1" fill="#FBBE0C" />
<rect x="24" y="10" width="1" height="1" fill="#FBBE0B" />
<rect x="25" y="10" width="2" height="1" fill="#FBBE0A" />
<rect x="27" y="10" width="1" height="1" fill="#FBBD09" />
<rect x="28" y="10" width="1" height="1" fill="#FBBD08" />
<rect x="29" y="10" width="1" height="1" fill="#FBBD07" />
<rect x="30" y="10" width="1" height="1" fill="#FBBD06" />
<rect x="31" y="10" width="1" height="1" fill="#FBBC06" />
<rect x="32" y="10" width="1" height="1" fill="#FBBC05" />
<rect x="33" y="10" width="1" height="1" fill="#FBBC04" />
<rect x="34" y="10" width="1" height="1" fill="#FCBC03" opacity="0.866667" />
<rect x="2" y="11" width="1" height="1" fill="#33A752" opacity="0.815686" />
<rect x="3" y="11" width="1" height="1" fill="#33A652" opacity="0.952941" />
<rect x="13" y="11" width="1" height="1" fill="#F7CECC" opacity="0.858824" />
<rect x="14" y="11" width="1" height="1" fill="#FFFFFF" />
<rect x="22" y="11" width="2" height="1" fill="#FFFFFF" />
<rect x="24" y="11" width="1" height="1" fill="#FBBE0C" />
<rect x="25" y="11" width="2" height="1" fill="#FBBE0B" />
<rect x="27" y="11" width="1" height="1" fill="#FBBE0A" />
<rect x="28" y="11" width="1" height="1" fill="#FBBD09" />
<rect x="29" y="11" width="1" height="1" fill="#FBBD08" />
<rect x="30" y="11" width="2" height="1" fill="#FBBD07" />
<rect x="32" y="11" width="1" height="1" fill="#FBBD06" />
<rect x="33" y="11" width="1" height="1" fill="#FBBC05" />
<rect x="34" y="11" width="1" height="1" fill="#FBBC04" />
<rect x="1" y="12" width="1" height="1" fill="#32A751" opacity="0.419608" />
<rect x="2" y="12" width="1" height="1" fill="#32A651" />
<rect x="3" y="12" width="2" height="1" fill="#32A551" />
<rect x="12" y="12" width="2" height="1" fill="#FFFFFF" />
<rect x="14" y="12" width="1" height="1" fill="#DBE9FB" />
<rect x="15" y="12" width="7" height="12" fill="#1A73E8" />
<rect x="22" y="12" width="1" height="1" fill="#468EEC" />
<rect x="23" y="12" width="2" height="1" fill="#FFFFFF" />
<rect x="25" y="12" width="1" height="1" fill="#FBC628" opacity="0.807843" />
<rect x="26" y="12" width="1" height="1" fill="#FBBE0D" />
<rect x="27" y="12" width="1" height="1" fill="#FBBE0C" />
<rect x="28" y="12" width="1" height="1" fill="#FBBE0B" />
<rect x="29" y="12" width="1" height="1" fill="#FBBE0A" />
<rect x="30" y="12" width="2" height="1" fill="#FBBD09" />
<rect x="32" y="12" width="1" height="1" fill="#FBBD08" />
<rect x="33" y="12" width="1" height="1" fill="#FBBD07" />
<rect x="34" y="12" width="1" height="1" fill="#FBBD06" />
<rect x="35" y="12" width="1" height="1" fill="#FBBC06" />
<rect x="1" y="13" width="1" height="1" fill="#32A651" opacity="0.976471" />
<rect x="2" y="13" width="1" height="1" fill="#32A551" />
<rect x="3" y="13" width="2" height="1" fill="#31A550" />
<rect x="5" y="13" width="1" height="1" fill="#6B7D43" opacity="0.749020" />
<rect x="11" y="13" width="1" height="1" fill="#F7CDCB" opacity="0.858824" />
<rect x="12" y="13" width="1" height="1" fill="#FFFFFF" />
<rect x="13" y="13" width="1" height="1" fill="#ABCCF7" />
<rect x="14" y="13" width="1" height="11" fill="#1A73E8" />
<rect x="22" y="13" width="1" height="11" fill="#1A73E8" />
<rect x="23" y="13" width="1" height="1" fill="#1E75E8" />
<rect x="24" y="13" width="2" height="2" fill="#FFFFFF" />
<rect x="26" y="13" width="1" height="1" fill="#FBBF0E" opacity="0.988235" />
<rect x="27" y="13" width="1" height="1" fill="#FBBE0D" />
<rect x="28" y="13" width="1" height="1" fill="#FBBE0C" />
<rect x="29" y="13" width="1" height="1" fill="#FBBE0B" />
<rect x="30" y="13" width="2" height="1" fill="#FBBE0A" />
<rect x="32" y="13" width="1" height="1" fill="#FBBD09" />
<rect x="33" y="13" width="1" height="1" fill="#FBBD08" />
<rect x="34" y="13" width="2" height="1" fill="#FBBD07" />
<rect x="1" y="14" width="1" height="1" fill="#32A551" />
<rect x="2" y="14" width="1" height="1" fill="#31A551" />
<rect x="3" y="14" width="2" height="1" fill="#31A450" />
<rect x="5" y="14" width="1" height="1" fill="#30A450" />
<rect x="10" y="14" width="1" height="1" fill="#DE372B" opacity="0.929412" />
<rect x="11" y="14" width="1" height="10" fill="#FFFFFF" />
<rect x="12" y="14" width="1" height="1" fill="#DEEBFC" />
<rect x="13" y="14" width="1" height="9" fill="#1A73E8" />
<rect x="23" y="14" width="1" height="10" fill="#1A73E8" />
<rect x="26" y="14" width="1" height="1" fill="#FFFCF5" opacity="0.956863" />
<rect x="27" y="14" width="1" height="1" fill="#FBBF0E" />
<rect x="28" y="14" width="1" height="1" fill="#FBBE0D" />
<rect x="29" y="14" width="1" height="1" fill="#FBBE0C" />
<rect x="30" y="14" width="2" height="1" fill="#FBBE0B" />
<rect x="32" y="14" width="1" height="1" fill="#FBBE0A" />
<rect x="33" y="14" width="1" height="1" fill="#FBBD09" />
<rect x="34" y="14" width="2" height="1" fill="#FBBD08" />
<rect x="0" y="15" width="1" height="1" fill="#30A34F" opacity="0.392157" />
<rect x="1" y="15" width="1" height="1" fill="#31A450" />
<rect x="2" y="15" width="1" height="1" fill="#30A450" />
<rect x="3" y="15" width="2" height="1" fill="#30A34F" />
<rect x="5" y="15" width="1" height="1" fill="#2FA34F" />
<rect x="6" y="15" width="1" height="1" fill="#D0392A" opacity="0.945098" />
<rect x="10" y="15" width="1" height="7" fill="#FFFFFF" />
<rect x="12" y="15" width="1" height="7" fill="#1A73E8" />
<rect x="24" y="15" width="1" height="6" fill="#1A73E8" />
<rect x="25" y="15" width="2" height="1" fill="#FFFFFF" />
<rect x="27" y="15" width="1" height="1" fill="#FBBF10" />
<rect x="28" y="15" width="1" height="1" fill="#FBBF0F" />
<rect x="29" y="15" width="1" height="1" fill="#FBBF0E" />
<rect x="30" y="15" width="1" height="1" fill="#FBBF0D" />
<rect x="31" y="15" width="1" height="1" fill="#FBBE0D" />
<rect x="32" y="15" width="1" height="1" fill="#FBBE0C" />
<rect x="33" y="15" width="1" height="1" fill="#FBBE0B" />
<rect x="34" y="15" width="2" height="1" fill="#FBBE0A" />
<rect x="0" y="16" width="1" height="1" fill="#31A550" opacity="0.674510" />
<rect x="1" y="16" width="1" height="1" fill="#30A44F" />
<rect x="2" y="16" width="1" height="2" fill="#30A34F" />
<rect x="3" y="16" width="1" height="1" fill="#2FA34F" />
<rect x="4" y="16" width="2" height="2" fill="#2FA24E" />
<rect x="6" y="16" width="1" height="1" fill="#2EA14E" opacity="0.976471" />
<rect x="9" y="16" width="1" height="1" fill="#E35449" opacity="0.776471" />
<rect x="25" y="16" width="1" height="1" fill="#D7E7FB" />
<rect x="26" y="16" width="1" height="7" fill="#FFFFFF" />
<rect x="27" y="16" width="1" height="1" fill="#FBBF11" />
<rect x="28" y="16" width="1" height="1" fill="#FBBF10" />
<rect x="29" y="16" width="1" height="1" fill="#FBBF0F" />
<rect x="30" y="16" width="2" height="1" fill="#FBBF0E" />
<rect x="32" y="16" width="1" height="1" fill="#FBBE0D" />
<rect x="33" y="16" width="1" height="1" fill="#FBBE0C" />
<rect x="34" y="16" width="2" height="1" fill="#FBBE0B" />
<rect x="0" y="17" width="1" height="1" fill="#30A34F" opacity="0.862745" />
<rect x="1" y="17" width="1" height="1" fill="#30A34F" />
<rect x="3" y="17" width="1" height="1" fill="#2FA24E" />
<rect x="6" y="17" width="1" height="1" fill="#2EA14D" />
<rect x="7" y="17" width="1" height="1" fill="#A25734" opacity="0.803922" />
<rect x="9" y="17" width="1" height="1" fill="#F4BCB8" opacity="0.800000" />
<rect x="25" y="17" width="1" height="1" fill="#68A3F0" />
<rect x="27" y="17" width="1" height="1" fill="#FBC012" />
<rect x="28" y="17" width="1" height="1" fill="#FBC011" />
<rect x="29" y="17" width="1" height="1" fill="#FBBF10" />
<rect x="30" y="17" width="2" height="1" fill="#FBBF0F" />
<rect x="32" y="17" width="1" height="1" fill="#FBBF0E" />
<rect x="33" y="17" width="1" height="1" fill="#FBBE0D" />
<rect x="34" y="17" width="2" height="1" fill="#FBBE0C" />
<rect x="0" y="18" width="1" height="1" fill="#2FA24E" opacity="0.988235" />
<rect x="1" y="18" width="2" height="1" fill="#2FA24E" />
<rect x="3" y="18" width="2" height="1" fill="#2EA14D" />
<rect x="5" y="18" width="1" height="1" fill="#2EA04D" />
<rect x="6" y="18" width="1" height="1" fill="#2DA04C" />
<rect x="7" y="18" width="1" height="1" fill="#2D9F4C" />
<rect x="8" y="18" width="1" height="1" fill="#578443" opacity="0.756863" />
<rect x="9" y="18" width="1" height="1" fill="#FEF9F8" opacity="0.976471" />
<rect x="25" y="18" width="1" height="1" fill="#2077E9" />
<rect x="27" y="18" width="1" height="1" fill="#FBC014" />
<rect x="28" y="18" width="1" height="1" fill="#FBC013" />
<rect x="29" y="18" width="1" height="1" fill="#FBC012" />
<rect x="30" y="18" width="1" height="1" fill="#FBC011" />
<rect x="31" y="18" width="1" height="1" fill="#FBBF11" />
<rect x="32" y="18" width="1" height="1" fill="#FBBF10" />
<rect x="33" y="18" width="1" height="1" fill="#FBBF0F" />
<rect x="34" y="18" width="2" height="1" fill="#FBBF0E" />
<rect x="0" y="19" width="1" height="1" fill="#2FA24E" opacity="0.921569" />
<rect x="1" y="19" width="1" height="1" fill="#2EA14E" />
<rect x="2" y="19" width="2" height="1" fill="#2EA14D" />
<rect x="4" y="19" width="1" height="1" fill="#2DA04D" />
<rect x="5" y="19" width="1" height="1" fill="#2DA04C" />
<rect x="6" y="19" width="1" height="1" fill="#2D9F4C" />
<rect x="7" y="19" width="1" height="1" fill="#2C9F4C" />
<rect x="8" y="19" width="1" height="1" fill="#2C9F4B" />
<rect x="9" y="19" width="1" height="1" fill="#F9DAD8" opacity="0.886275" />
<rect x="25" y="19" width="1" height="1" fill="#458DEC" />
<rect x="27" y="19" width="1" height="1" fill="#FBC015" />
<rect x="28" y="19" width="1" height="1" fill="#FBC014" />
<rect x="29" y="19" width="1" height="1" fill="#FBC013" />
<rect x="30" y="19" width="2" height="1" fill="#FBC012" />
<rect x="32" y="19" width="1" height="1" fill="#FBC011" />
<rect x="33" y="19" width="1" height="1" fill="#FBBF10" />
<rect x="34" y="19" width="2" height="1" fill="#FBBF0F" />
<rect x="0" y="20" width="1" height="1" fill="#2EA14E" opacity="0.768627" />
<rect x="1" y="20" width="2" height="1" fill="#2EA14D" />
<rect x="3" y="20" width="1" height="1" fill="#2DA04D" />
<rect x="4" y="20" width="1" height="1" fill="#2DA04C" />
<rect x="5" y="20" width="1" height="1" fill="#2D9F4C" />
<rect x="6" y="20" width="1" height="1" fill="#2C9F4B" />
<rect x="7" y="20" width="2" height="1" fill="#2C9E4B" />
<rect x="9" y="20" width="1" height="1" fill="#EA827A" opacity="0.776471" />
<rect x="25" y="20" width="1" height="1" fill="#9CC3F5" />
<rect x="27" y="20" width="1" height="1" fill="#FBC116" />
<rect x="28" y="20" width="1" height="1" fill="#FBC115" />
<rect x="29" y="20" width="1" height="1" fill="#FBC014" />
<rect x="30" y="20" width="2" height="1" fill="#FBC013" />
<rect x="32" y="20" width="1" height="1" fill="#FBC012" />
<rect x="33" y="20" width="1" height="1" fill="#FBC011" />
<rect x="34" y="20" width="2" height="1" fill="#FBBF10" />
<rect x="0" y="21" width="1" height="1" fill="#2BA04E" opacity="0.231373" />
<rect x="1" y="21" width="2" height="1" fill="#2DA04C" />
<rect x="3" y="21" width="1" height="1" fill="#2C9F4C" />
<rect x="4" y="21" width="1" height="1" fill="#2C9F4B" />
<rect x="5" y="21" width="1" height="1" fill="#2C9E4B" />
<rect x="6" y="21" width="1" height="1" fill="#2B9E4B" />
<rect x="7" y="21" width="2" height="1" fill="#2B9D4A" />
<rect x="9" y="21" width="1" height="1" fill="#2A9C4A" opacity="0.992157" />
<rect x="24" y="21" width="1" height="1" fill="#2B7DEA" />
<rect x="25" y="21" width="1" height="3" fill="#FFFFFF" />
<rect x="27" y="21" width="1" height="1" fill="#FBC118" />
<rect x="28" y="21" width="1" height="1" fill="#FBC117" />
<rect x="29" y="21" width="1" height="1" fill="#FBC116" />
<rect x="30" y="21" width="2" height="1" fill="#FBC115" />
<rect x="32" y="21" width="1" height="1" fill="#FBC014" />
<rect x="33" y="21" width="1" height="1" fill="#FBC013" />
<rect x="34" y="21" width="2" height="1" fill="#FBC012" />
<rect x="1" y="22" width="1" height="1" fill="#2D9F4C" />
<rect x="2" y="22" width="1" height="1" fill="#2C9F4C" />
<rect x="3" y="22" width="2" height="1" fill="#2C9E4B" />
<rect x="5" y="22" width="1" height="1" fill="#2B9E4B" />
<rect x="6" y="22" width="1" height="1" fill="#2B9D4A" />
<rect x="7" y="22" width="1" height="1" fill="#2A9D4A" />
<rect x="8" y="22" width="1" height="1" fill="#2A9C4A" />
<rect x="9" y="22" width="1" height="1" fill="#2A9C49" />
<rect x="10" y="22" width="1" height="1" fill="#97B78F" opacity="0.752941" />
<rect x="12" y="22" width="1" height="1" fill="#468EEC" />
<rect x="24" y="22" width="1" height="1" fill="#FCFDFF" />
<rect x="27" y="22" width="1" height="1" fill="#FBC219" />
<rect x="28" y="22" width="1" height="1" fill="#FBC118" />
<rect x="29" y="22" width="1" height="1" fill="#FBC117" />
<rect x="30" y="22" width="2" height="1" fill="#FBC116" />
<rect x="32" y="22" width="1" height="1" fill="#FBC115" />
<rect x="33" y="22" width="1" height="1" fill="#FBC014" />
<rect x="34" y="22" width="2" height="1" fill="#FBC013" />
<rect x="1" y="23" width="1" height="1" fill="#2C9F4C" />
<rect x="2" y="23" width="1" height="1" fill="#2C9E4B" />
<rect x="3" y="23" width="1" height="1" fill="#2B9E4B" />
<rect x="4" y="23" width="1" height="1" fill="#2B9D4B" />
<rect x="5" y="23" width="1" height="1" fill="#2B9D4A" />
<rect x="6" y="23" width="1" height="1" fill="#2A9D4A" />
<rect x="7" y="23" width="2" height="1" fill="#2A9C49" />
<rect x="9" y="23" width="1" height="1" fill="#299B49" />
<rect x="10" y="23" width="1" height="1" fill="#299B48" />
<rect x="12" y="23" width="1" height="2" fill="#FFFFFF" />
<rect x="13" y="23" width="1" height="1" fill="#1E75E8" />
<rect x="24" y="23" width="1" height="1" fill="#FFFFFF" />
<rect x="26" y="23" width="1" height="1" fill="#E8CF5D" opacity="0.745098" />
<rect x="27" y="23" width="1" height="1" fill="#FBC21A" />
<rect x="28" y="23" width="1" height="1" fill="#FBC219" />
<rect x="29" y="23" width="1" height="1" fill="#FBC218" />
<rect x="30" y="23" width="2" height="1" fill="#FBC117" />
<rect x="32" y="23" width="1" height="1" fill="#FBC116" />
<rect x="33" y="23" width="1" height="1" fill="#FBC115" />
<rect x="34" y="23" width="2" height="1" fill="#FBC014" />
<rect x="1" y="24" width="1" height="1" fill="#28A151" opacity="0.074510" />
<rect x="2" y="24" width="1" height="2" fill="#2B9D4A" />
<rect x="3" y="24" width="1" height="1" fill="#2A9D4A" />
<rect x="4" y="24" width="1" height="1" fill="#2A9C4A" />
<rect x="5" y="24" width="1" height="1" fill="#2A9C49" />
<rect x="6" y="24" width="2" height="1" fill="#299B49" />
<rect x="8" y="24" width="1" height="1" fill="#299B48" />
<rect x="9" y="24" width="2" height="1" fill="#289A48" />
<rect x="11" y="24" width="1" height="1" fill="#289A47" />
<rect x="13" y="24" width="2" height="2" fill="#FFFFFF" />
<rect x="15" y="24" width="6" height="1" fill="#1A73E8" />
<rect x="21" y="24" width="1" height="1" fill="#2C7EEA" />
<rect x="22" y="24" width="1" height="1" fill="#FCFDFF" />
<rect x="23" y="24" width="1" height="2" fill="#FFFFFF" />
<rect x="24" y="24" width="1" height="1" fill="#FEFFFE" opacity="0.996078" />
<rect x="25" y="24" width="1" height="1" fill="#C7B626" opacity="0.839216" />
<rect x="26" y="24" width="1" height="1" fill="#FCC31D" />
<rect x="27" y="24" width="1" height="1" fill="#FBC21C" />
<rect x="28" y="24" width="1" height="1" fill="#FBC21B" />
<rect x="29" y="24" width="1" height="1" fill="#FBC21A" />
<rect x="30" y="24" width="2" height="1" fill="#FBC219" />
<rect x="32" y="24" width="1" height="1" fill="#FBC118" />
<rect x="33" y="24" width="1" height="1" fill="#FBC117" />
<rect x="34" y="24" width="1" height="1" fill="#FBC116" />
<rect x="35" y="24" width="1" height="1" fill="#FBC116" opacity="0.976471" />
<rect x="3" y="25" width="2" height="1" fill="#2A9C49" />
<rect x="5" y="25" width="1" height="1" fill="#299C49" />
<rect x="6" y="25" width="2" height="1" fill="#299B48" />
<rect x="8" y="25" width="1" height="1" fill="#289A48" />
<rect x="9" y="25" width="1" height="1" fill="#289A47" />
<rect x="10" y="25" width="1" height="1" fill="#289947" />
<rect x="11" y="25" width="1" height="1" fill="#279947" />
<rect x="12" y="25" width="1" height="1" fill="#40A45B" opacity="0.800000" />
<rect x="15" y="25" width="1" height="2" fill="#FFFFFF" />
<rect x="16" y="25" width="1" height="1" fill="#D8E7FB" />
<rect x="17" y="25" width="1" height="1" fill="#67A2F0" />
<rect x="18" y="25" width="1" height="1" fill="#1F76E9" />
<rect x="19" y="25" width="1" height="1" fill="#458DEC" />
<rect x="20" y="25" width="1" height="1" fill="#9BC2F5" />
<rect x="21" y="25" width="2" height="2" fill="#FFFFFF" />
<rect x="24" y="25" width="1" height="1" fill="#249441" opacity="0.949020" />
<rect x="25" y="25" width="2" height="1" fill="#FCC31E" />
<rect x="27" y="25" width="1" height="1" fill="#FCC31D" />
<rect x="28" y="25" width="1" height="1" fill="#FCC31C" />
<rect x="29" y="25" width="1" height="1" fill="#FBC21B" />
<rect x="30" y="25" width="2" height="1" fill="#FBC21A" />
<rect x="32" y="25" width="1" height="1" fill="#FBC219" />
<rect x="33" y="25" width="1" height="1" fill="#FBC118" />
<rect x="34" y="25" width="1" height="1" fill="#FBC117" />
<rect x="35" y="25" width="1" height="1" fill="#FBC116" opacity="0.274510" />
<rect x="2" y="26" width="1" height="1" fill="#2A9C49" opacity="0.384314" />
<rect x="3" y="26" width="1" height="1" fill="#2A9C49" />
<rect x="4" y="26" width="2" height="1" fill="#299B49" />
<rect x="6" y="26" width="2" height="1" fill="#289A48" />
<rect x="8" y="26" width="1" height="1" fill="#289A47" />
<rect x="9" y="26" width="2" height="1" fill="#279947" />
<rect x="11" y="26" width="1" height="1" fill="#279846" />
<rect x="12" y="26" width="1" height="1" fill="#269846" />
<rect x="13" y="26" width="1" height="1" fill="#269846" opacity="0.988235" />
<rect x="14" y="26" width="1" height="1" fill="#F6FBF8" opacity="0.949020" />
<rect x="16" y="26" width="5" height="1" fill="#FFFFFF" />
<rect x="23" y="26" width="1" height="1" fill="#64B37A" opacity="0.772549" />
<rect x="24" y="26" width="1" height="1" fill="#F7C321" opacity="0.972549" />
<rect x="25" y="26" width="2" height="1" fill="#FCC31F" />
<rect x="27" y="26" width="1" height="1" fill="#FCC31E" />
<rect x="28" y="26" width="1" height="1" fill="#FCC31D" />
<rect x="29" y="26" width="1" height="1" fill="#FCC31C" />
<rect x="30" y="26" width="2" height="1" fill="#FBC21B" />
<rect x="32" y="26" width="1" height="1" fill="#FBC21A" />
<rect x="33" y="26" width="1" height="1" fill="#FBC219" />
<rect x="34" y="26" width="1" height="1" fill="#FBC218" />
<rect x="3" y="27" width="1" height="1" fill="#299B48" />
<rect x="4" y="27" width="2" height="1" fill="#289A48" />
<rect x="6" y="27" width="1" height="1" fill="#289947" />
<rect x="7" y="27" width="2" height="1" fill="#279947" />
<rect x="9" y="27" width="2" height="1" fill="#269846" />
<rect x="11" y="27" width="1" height="1" fill="#269746" />
<rect x="12" y="27" width="1" height="1" fill="#259745" />
<rect x="13" y="27" width="2" height="1" fill="#259645" />
<rect x="15" y="27" width="1" height="1" fill="#249644" />
<rect x="16" y="27" width="2" height="1" fill="#249544" />
<rect x="18" y="27" width="3" height="1" fill="#239443" />
<rect x="21" y="27" width="2" height="1" fill="#229342" />
<rect x="23" y="27" width="1" height="1" fill="#229242" />
<rect x="24" y="27" width="1" height="1" fill="#FCC422" />
<rect x="25" y="27" width="2" height="1" fill="#FCC421" />
<rect x="27" y="27" width="1" height="1" fill="#FCC320" />
<rect x="28" y="27" width="1" height="1" fill="#FCC31F" />
<rect x="29" y="27" width="1" height="1" fill="#FCC31E" />
<rect x="30" y="27" width="2" height="1" fill="#FCC31D" />
<rect x="32" y="27" width="1" height="1" fill="#FCC31C" />
<rect x="33" y="27" width="1" height="1" fill="#FBC21B" />
<rect x="3" y="28" width="1" height="1" fill="#289B48" opacity="0.925490" />
<rect x="4" y="28" width="1" height="1" fill="#289A47" />
<rect x="5" y="28" width="1" height="1" fill="#289947" />
<rect x="6" y="28" width="1" height="1" fill="#279947" />
<rect x="7" y="28" width="2" height="1" fill="#279846" />
<rect x="9" y="28" width="1" height="1" fill="#269746" />
<rect x="10" y="28" width="2" height="1" fill="#269745" />
<rect x="12" y="28" width="1" height="1" fill="#259645" />
<rect x="13" y="28" width="1" height="1" fill="#259644" />
<rect x="14" y="28" width="1" height="1" fill="#249644" />
<rect x="15" y="28" width="1" height="1" fill="#249544" />
<rect x="16" y="28" width="1" height="1" fill="#249543" />
<rect x="17" y="28" width="2" height="1" fill="#239443" />
<rect x="19" y="28" width="1" height="1" fill="#239342" />
<rect x="20" y="28" width="1" height="2" fill="#229342" />
<rect x="21" y="28" width="1" height="1" fill="#229242" />
<rect x="22" y="28" width="1" height="1" fill="#229241" />
<rect x="23" y="28" width="1" height="1" fill="#83AA33" opacity="0.760784" />
<rect x="24" y="28" width="1" height="1" fill="#FCC423" />
<rect x="25" y="28" width="2" height="1" fill="#FCC422" />
<rect x="27" y="28" width="1" height="1" fill="#FCC421" />
<rect x="28" y="28" width="1" height="1" fill="#FCC420" />
<rect x="29" y="28" width="1" height="1" fill="#FCC31F" />
<rect x="30" y="28" width="2" height="1" fill="#FCC31E" />
<rect x="32" y="28" width="1" height="1" fill="#FCC31D" />
<rect x="33" y="28" width="1" height="1" fill="#FFC218" opacity="0.082353" />
<rect x="4" y="29" width="2" height="1" fill="#279947" />
<rect x="6" y="29" width="1" height="1" fill="#279846" />
<rect x="7" y="29" width="2" height="1" fill="#269846" />
<rect x="9" y="29" width="1" height="1" fill="#269745" />
<rect x="10" y="29" width="1" height="1" fill="#259745" />
<rect x="11" y="29" width="1" height="1" fill="#259645" />
<rect x="12" y="29" width="1" height="1" fill="#259644" />
<rect x="13" y="29" width="2" height="1" fill="#249544" />
<rect x="15" y="29" width="3" height="1" fill="#239443" />
<rect x="18" y="29" width="2" height="1" fill="#229342" />
<rect x="21" y="29" width="2" height="1" fill="#219241" />
<rect x="23" y="29" width="1" height="1" fill="#FCC525" />
<rect x="24" y="29" width="1" height="1" fill="#FCC524" />
<rect x="25" y="29" width="2" height="1" fill="#FCC423" />
<rect x="27" y="29" width="1" height="1" fill="#FCC422" />
<rect x="28" y="29" width="1" height="1" fill="#FCC421" />
<rect x="29" y="29" width="1" height="1" fill="#FCC420" />
<rect x="30" y="29" width="2" height="1" fill="#FCC31F" />
<rect x="32" y="29" width="1" height="1" fill="#FCC31E" />
<rect x="5" y="30" width="1" height="1" fill="#279847" opacity="0.309804" />
<rect x="6" y="30" width="1" height="1" fill="#269745" />
<rect x="7" y="30" width="1" height="1" fill="#259745" />
<rect x="8" y="30" width="1" height="1" fill="#259645" />
<rect x="9" y="30" width="1" height="1" fill="#259644" />
<rect x="10" y="30" width="1" height="1" fill="#249644" />
<rect x="11" y="30" width="1" height="1" fill="#249544" />
<rect x="12" y="30" width="1" height="1" fill="#249543" />
<rect x="13" y="30" width="2" height="1" fill="#239443" />
<rect x="15" y="30" width="1" height="1" fill="#239342" />
<rect x="16" y="30" width="2" height="1" fill="#229342" />
<rect x="18" y="30" width="2" height="1" fill="#219241" />
<rect x="20" y="30" width="1" height="1" fill="#219141" />
<rect x="21" y="30" width="1" height="1" fill="#22923F" opacity="0.917647" />
<rect x="22" y="30" width="1" height="1" fill="#FCC628" />
<rect x="23" y="30" width="1" height="1" fill="#FCC527" />
<rect x="24" y="30" width="1" height="1" fill="#FCC526" />
<rect x="25" y="30" width="2" height="1" fill="#FCC525" />
<rect x="27" y="30" width="1" height="1" fill="#FCC524" />
<rect x="28" y="30" width="1" height="1" fill="#FCC423" />
<rect x="29" y="30" width="1" height="1" fill="#FCC422" />
<rect x="30" y="30" width="1" height="1" fill="#FCC421" />
<rect x="31" y="30" width="1" height="1" fill="#FCC421" opacity="0.988235" />
<rect x="6" y="31" width="1" height="1" fill="#259745" />
<rect x="7" y="31" width="1" height="1" fill="#259645" />
<rect x="8" y="31" width="1" height="1" fill="#259644" />
<rect x="9" y="31" width="2" height="1" fill="#249544" />
<rect x="11" y="31" width="1" height="1" fill="#249543" />
<rect x="12" y="31" width="2" height="1" fill="#239443" />
<rect x="14" y="31" width="1" height="1" fill="#239342" />
<rect x="15" y="31" width="2" height="1" fill="#229342" />
<rect x="17" y="31" width="1" height="1" fill="#229241" />
<rect x="18" y="31" width="1" height="1" fill="#219241" />
<rect x="19" y="31" width="1" height="1" fill="#219141" />
<rect x="20" y="31" width="1" height="1" fill="#209140" />
<rect x="21" y="31" width="1" height="1" fill="#FAC52A" opacity="0.992157" />
<rect x="22" y="31" width="1" height="1" fill="#FCC629" />
<rect x="23" y="31" width="1" height="1" fill="#FCC628" />
<rect x="24" y="31" width="1" height="1" fill="#FCC527" />
<rect x="25" y="31" width="2" height="1" fill="#FCC526" />
<rect x="27" y="31" width="1" height="1" fill="#FCC525" />
<rect x="28" y="31" width="1" height="1" fill="#FCC524" />
<rect x="29" y="31" width="1" height="1" fill="#FCC523" />
<rect x="30" y="31" width="1" height="1" fill="#FCC422" opacity="0.988235" />
<rect x="6" y="32" width="1" height="1" fill="#269643" opacity="0.239216" />
<rect x="7" y="32" width="1" height="1" fill="#259644" />
<rect x="8" y="32" width="1" height="1" fill="#249544" />
<rect x="9" y="32" width="1" height="1" fill="#249543" />
<rect x="10" y="32" width="2" height="1" fill="#239443" />
<rect x="12" y="32" width="1" height="1" fill="#239442" />
<rect x="13" y="32" width="2" height="1" fill="#229342" />
<rect x="15" y="32" width="1" height="1" fill="#229241" />
<rect x="16" y="32" width="2" height="1" fill="#219241" />
<rect x="18" y="32" width="1" height="1" fill="#219140" />
<rect x="19" y="32" width="1" height="1" fill="#209140" />
<rect x="20" y="32" width="1" height="1" fill="#209040" />
<rect x="21" y="32" width="2" height="1" fill="#FCC62A" />
<rect x="23" y="32" width="1" height="1" fill="#FCC629" />
<rect x="24" y="32" width="1" height="1" fill="#FCC628" />
<rect x="25" y="32" width="1" height="1" fill="#FCC627" />
<rect x="26" y="32" width="1" height="1" fill="#FCC527" />
<rect x="27" y="32" width="1" height="1" fill="#FCC526" />
<rect x="28" y="32" width="1" height="1" fill="#FCC525" />
<rect x="29" y="32" width="1" height="1" fill="#FCC524" />
<rect x="9" y="33" width="1" height="1" fill="#239443" />
<rect x="10" y="33" width="1" height="1" fill="#239342" />
<rect x="11" y="33" width="1" height="2" fill="#229342" />
<rect x="12" y="33" width="1" height="1" fill="#229242" />
<rect x="13" y="33" width="1" height="1" fill="#229241" />
<rect x="14" y="33" width="1" height="1" fill="#219241" />
<rect x="15" y="33" width="1" height="1" fill="#219141" />
<rect x="16" y="33" width="2" height="1" fill="#209140" />
<rect x="18" y="33" width="1" height="1" fill="#209040" />
<rect x="19" y="33" width="1" height="1" fill="#1F903F" />
<rect x="20" y="33" width="1" height="1" fill="#9FB035" opacity="0.780392" />
<rect x="21" y="33" width="2" height="1" fill="#FCC72C" />
<rect x="23" y="33" width="1" height="1" fill="#FCC72B" />
<rect x="24" y="33" width="1" height="1" fill="#FCC62A" />
<rect x="25" y="33" width="2" height="1" fill="#FCC629" />
<rect x="27" y="33" width="1" height="1" fill="#FCC628" />
<rect x="28" y="33" width="1" height="1" fill="#FFC523" opacity="0.086275" />
<rect x="9" y="34" width="1" height="1" fill="#008080" opacity="0.007843" />
<rect x="10" y="34" width="1" height="1" fill="#219342" opacity="0.866667" />
<rect x="12" y="34" width="2" height="1" fill="#219241" />
<rect x="14" y="34" width="1" height="1" fill="#219141" />
<rect x="15" y="34" width="1" height="1" fill="#209140" />
<rect x="16" y="34" width="2" height="1" fill="#209040" />
<rect x="18" y="34" width="1" height="2" fill="#1F8F3F" />
<rect x="19" y="34" width="1" height="1" fill="#1F8F3F" opacity="0.992157" />
<rect x="20" y="34" width="1" height="1" fill="#FCC72E" />
<rect x="21" y="34" width="2" height="1" fill="#FCC72D" />
<rect x="23" y="34" width="1" height="1" fill="#FCC72C" />
<rect x="24" y="34" width="1" height="1" fill="#FCC72B" />
<rect x="25" y="34" width="2" height="1" fill="#FCC62A" />
<rect x="11" y="35" width="1" height="1" fill="#00FF00" opacity="0.003922" />
<rect x="12" y="35" width="1" height="1" fill="#219141" />
<rect x="13" y="35" width="1" height="1" fill="#219140" />
<rect x="14" y="35" width="1" height="1" fill="#209140" />
<rect x="15" y="35" width="1" height="1" fill="#209040" />
<rect x="16" y="35" width="1" height="1" fill="#20903F" />
<rect x="17" y="35" width="1" height="1" fill="#1F8F3F" />
<rect x="19" y="35" width="1" height="1" fill="#E7C231" opacity="0.925490" />
<rect x="20" y="35" width="1" height="1" fill="#FCC82F" />
<rect x="21" y="35" width="2" height="1" fill="#FCC72E" />
<rect x="23" y="35" width="1" height="1" fill="#FCC72D" />
<rect x="24" y="35" width="1" height="1" fill="#FCC72C" opacity="0.972549" />
<rect x="25" y="35" width="1" height="1" fill="#FBC82C" opacity="0.274510" />
</svg>