<svg width="48" height="48" version="1.1" viewBox="0 0 48 48" xmlns="http://www.w3.org/2000/svg"><defs><linearGradient id="a" x1="3.2173" x2="44.781" y1="15" y2="15" gradientUnits="userSpaceOnUse"><stop stop-color="#d93025" offset="0"/><stop stop-color="#ea4335" offset="1"/></linearGradient><linearGradient id="b" x1="20.722" x2="41.504" y1="47.679" y2="11.684" gradientUnits="userSpaceOnUse"><stop stop-color="#fcc934" offset="0"/><stop stop-color="#fbbc04" offset="1"/></linearGradient><linearGradient id="c" x1="26.598" x2="5.8161" y1="46.502" y2="10.506" gradientUnits="userSpaceOnUse"><stop stop-color="#1e8e3e" offset="0"/><stop stop-color="#34a853" offset="1"/></linearGradient></defs><circle cx="24" cy="23.995" r="12" fill="#fff"/><path d="M3.2154,36A24,24,0,1,0,12,3.2154,24,24,0,0,0,3.2154,36ZM34.3923,18A12,12,0,1,1,18,13.6077,12,12,0,0,1,34.3923,18Z" fill="none"/><path d="M24,12H44.7812a23.9939,23.9939,0,0,0-41.5639.0029L13.6079,30l.0093-.0024A11.9852,11.9852,0,0,1,24,12Z" fill="url(#a)"/><circle cx="24" cy="24" r="9.5" fill="#1a73e8"/><path d="M34.3913,30.0029,24.0007,48A23.994,23.994,0,0,0,44.78,12.0031H23.9989l-.0025.0093A11.985,11.985,0,0,1,34.3913,30.0029Z" fill="url(#b)"/><path d="m13.609 30.003-10.391-17.997a23.994 23.994 0 0 0 20.784 35.994l10.391-17.997-0.0067-0.0068a11.985 11.985 0 0 1-20.778 7e-3z" fill="url(#c)"/><script/><link/></svg>
