<svg xmlns="http://www.w3.org/2000/svg" viewBox="0 -0.5 48 41">

<path stroke="#808080" d="M6 0h13M5 1h1M19 1h1M4 2h1M20 2h1M3 3h1M21 3h1M2 4h1M22 4h1M1 5h1M23 5h1M0 6h1M24 6h22M0 7h1M0 8h1M0 9h1M0 10h1M0 11h1M29 11h7M0 12h1M29 12h1M35 12h1M0 13h1M29 13h1M35 13h1M0 14h1M29 14h1M35 14h1M0 15h1M12 15h4M21 15h7M29 15h1M35 15h1M0 16h1M11 16h1M16 16h1M19 16h2M28 16h1M35 16h1M0 17h1M11 17h1M16 17h3M34 17h2M0 18h1M11 18h1M34 18h1M0 19h1M11 19h1M33 19h1M0 20h1M11 20h1M17 20h2M26 20h4M33 20h1M0 21h1M11 21h1M16 21h1M19 21h1M25 21h1M30 21h1M33 21h1M0 22h1M11 22h5M20 22h1M24 22h1M31 22h1M33 22h1M0 23h1M23 23h1M33 23h1M0 24h1M23 24h1M31 24h1M33 24h1M0 25h1M23 25h1M31 25h1M33 25h1M0 26h1M23 26h1M31 26h1M33 26h1M0 27h1M23 27h1M31 27h1M33 27h1M0 28h1M23 28h1M31 28h1M33 28h1M0 29h1M0 30h1M0 31h1M21 31h1M0 32h1M21 32h1M0 33h1M21 33h1M0 34h1M21 34h1M0 35h1M21 35h1M0 36h1M0 37h1M0 38h1M0 39h1" />
<path stroke="#ffffff" d="M6 1h13M5 2h1M4 3h1M3 4h1M2 5h1M1 7h45M1 8h1M1 9h1M1 10h1M1 11h1M1 12h1M30 12h5M1 13h1M30 13h2M1 14h1M30 14h1M1 15h1M30 15h1M1 16h1M12 16h4M21 16h7M30 16h1M1 17h1M12 17h1M19 17h1M1 18h1M12 18h1M16 18h3M1 19h1M12 19h1M1 20h1M12 20h1M1 21h1M1 22h1M1 23h1M21 23h1M1 24h1M21 24h1M1 25h1M21 25h1M1 26h1M21 26h1M1 27h1M21 27h1M1 28h1M21 28h1M1 29h1M1 30h1M20 30h1M1 31h1M1 32h1M1 33h1M1 34h1M1 35h1M1 36h1M1 37h1M1 38h1" />
<path stroke="#ffff00" d="M6 2h1M8 2h1M10 2h1M12 2h1M14 2h1M16 2h1M18 2h1M5 3h1M7 3h1M9 3h1M11 3h1M13 3h1M15 3h1M17 3h1M19 3h1M4 4h1M6 4h1M8 4h1M10 4h1M12 4h1M14 4h1M16 4h1M18 4h1M20 4h1M3 5h1M5 5h1M7 5h1M9 5h1M11 5h1M13 5h1M15 5h1M17 5h1M19 5h1M21 5h1M2 8h1M4 8h1M6 8h1M8 8h1M10 8h1M12 8h1M14 8h1M16 8h1M18 8h1M20 8h1M22 8h1M24 8h1M26 8h1M28 8h1M30 8h1M32 8h1M34 8h1M36 8h1M38 8h1M40 8h1M42 8h1M44 8h1M3 9h1M5 9h1M7 9h1M9 9h1M11 9h1M13 9h1M15 9h1M17 9h1M19 9h1M21 9h1M23 9h1M25 9h1M27 9h1M29 9h1M31 9h1M33 9h1M35 9h1M37 9h1M39 9h1M41 9h1M43 9h1M45 9h1M2 10h1M4 10h1M6 10h1M8 10h1M10 10h1M12 10h1M14 10h1M16 10h1M18 10h1M20 10h1M22 10h1M24 10h1M26 10h1M28 10h1M30 10h1M32 10h1M34 10h1M36 10h1M38 10h1M40 10h1M42 10h1M44 10h1M3 11h1M5 11h1M7 11h1M9 11h1M11 11h1M13 11h1M15 11h1M17 11h1M19 11h1M21 11h1M23 11h1M25 11h1M27 11h1M37 11h1M39 11h1M41 11h1M43 11h1M45 11h1M2 12h1M4 12h1M6 12h1M8 12h1M10 12h1M12 12h1M14 12h1M16 12h1M18 12h1M20 12h1M22 12h1M24 12h1M26 12h1M28 12h1M38 12h1M40 12h1M42 12h1M44 12h1M3 13h1M5 13h1M7 13h1M9 13h1M11 13h1M13 13h1M15 13h1M17 13h1M19 13h1M21 13h1M23 13h1M25 13h1M27 13h1M37 13h1M39 13h1M41 13h1M43 13h1M45 13h1M2 14h1M4 14h1M6 14h1M8 14h1M10 14h1M12 14h1M14 14h1M16 14h1M18 14h1M20 14h1M22 14h1M24 14h1M26 14h1M28 14h1M38 14h1M40 14h1M42 14h1M44 14h1M3 15h1M5 15h1M7 15h1M9 15h1M11 15h1M17 15h1M19 15h1M37 15h1M39 15h1M41 15h1M43 15h1M45 15h1M2 16h1M4 16h1M6 16h1M8 16h1M10 16h1M18 16h1M38 16h1M40 16h1M42 16h1M44 16h1M3 17h1M5 17h1M7 17h1M9 17h1M37 17h1M39 17h1M41 17h1M43 17h1M45 17h1M2 18h1M4 18h1M6 18h1M8 18h1M10 18h1M36 18h1M38 18h1M40 18h1M42 18h1M44 18h1M3 19h1M5 19h1M7 19h1M9 19h1M35 19h1M37 19h1M39 19h1M41 19h1M43 19h1M45 19h1M2 20h1M4 20h1M6 20h1M8 20h1M10 20h1M36 20h1M38 20h1M40 20h1M42 20h1M44 20h1M3 21h1M5 21h1M7 21h1M9 21h1M35 21h1M37 21h1M39 21h1M41 21h1M43 21h1M45 21h1M2 22h1M4 22h1M6 22h1M8 22h1M10 22h1M18 22h1M26 22h1M28 22h1M36 22h1M38 22h1M40 22h1M42 22h1M44 22h1M3 23h1M5 23h1M7 23h1M9 23h1M11 23h1M17 23h1M19 23h1M25 23h1M27 23h1M29 23h1M35 23h1M37 23h1M39 23h1M41 23h1M43 23h1M45 23h1M2 24h1M4 24h1M6 24h1M8 24h1M10 24h1M12 24h1M14 24h1M16 24h1M18 24h1M26 24h1M28 24h1M30 24h1M36 24h1M38 24h1M40 24h1M42 24h1M44 24h1M3 25h1M5 25h1M7 25h1M9 25h1M11 25h1M13 25h1M15 25h1M17 25h1M19 25h1M25 25h1M27 25h1M29 25h1M35 25h1M37 25h1M39 25h1M41 25h1M43 25h1M45 25h1M2 26h1M4 26h1M6 26h1M8 26h1M10 26h1M12 26h1M14 26h1M16 26h1M18 26h1M26 26h1M28 26h1M30 26h1M36 26h1M38 26h1M40 26h1M42 26h1M44 26h1M3 27h1M5 27h1M7 27h1M9 27h1M11 27h1M13 27h1M15 27h1M17 27h1M19 27h1M25 27h1M27 27h1M29 27h1M35 27h1M37 27h1M39 27h1M41 27h1M43 27h1M45 27h1M2 28h1M4 28h1M6 28h1M8 28h1M10 28h1M12 28h1M14 28h1M16 28h1M18 28h1M26 28h1M28 28h1M30 28h1M36 28h1M38 28h1M40 28h1M42 28h1M44 28h1M3 29h1M5 29h1M7 29h1M9 29h1M11 29h1M13 29h1M15 29h1M17 29h1M19 29h1M25 29h1M27 29h1M29 29h1M35 29h1M37 29h1M39 29h1M41 29h1M43 29h1M45 29h1M2 30h1M4 30h1M6 30h1M8 30h1M10 30h1M12 30h1M14 30h1M16 30h1M18 30h1M26 30h1M28 30h1M36 30h1M38 30h1M40 30h1M42 30h1M44 30h1M3 31h1M5 31h1M7 31h1M9 31h1M11 31h1M13 31h1M15 31h1M17 31h1M27 31h1M37 31h1M39 31h1M41 31h1M43 31h1M45 31h1M2 32h1M4 32h1M6 32h1M8 32h1M10 32h1M12 32h1M14 32h1M16 32h1M18 32h1M26 32h1M28 32h1M38 32h1M40 32h1M42 32h1M44 32h1M3 33h1M5 33h1M7 33h1M9 33h1M11 33h1M13 33h1M15 33h1M17 33h1M27 33h1M37 33h1M39 33h1M41 33h1M43 33h1M45 33h1M2 34h1M4 34h1M6 34h1M8 34h1M10 34h1M12 34h1M14 34h1M16 34h1M18 34h1M26 34h1M28 34h1M38 34h1M40 34h1M42 34h1M44 34h1M3 35h1M5 35h1M7 35h1M9 35h1M11 35h1M13 35h1M15 35h1M17 35h1M27 35h1M37 35h1M39 35h1M41 35h1M43 35h1M45 35h1M2 36h1M4 36h1M6 36h1M8 36h1M10 36h1M12 36h1M14 36h1M16 36h1M18 36h1M20 36h1M22 36h1M24 36h1M26 36h1M28 36h1M30 36h1M32 36h1M34 36h1M36 36h1M38 36h1M40 36h1M42 36h1M44 36h1M3 37h1M5 37h1M7 37h1M9 37h1M11 37h1M13 37h1M15 37h1M17 37h1M19 37h1M21 37h1M23 37h1M25 37h1M27 37h1M29 37h1M31 37h1M33 37h1M35 37h1M37 37h1M39 37h1M41 37h1M43 37h1M45 37h1M2 38h1M4 38h1M6 38h1M8 38h1M10 38h1M12 38h1M14 38h1M16 38h1M18 38h1M20 38h1M22 38h1M24 38h1M26 38h1M28 38h1M30 38h1M32 38h1M34 38h1M36 38h1M38 38h1M40 38h1M42 38h1M44 38h1" />
<path stroke="#c0c0c0" d="M7 2h1M9 2h1M11 2h1M13 2h1M15 2h1M17 2h1M19 2h1M6 3h1M8 3h1M10 3h1M12 3h1M14 3h1M16 3h1M18 3h1M20 3h1M5 4h1M7 4h1M9 4h1M11 4h1M13 4h1M15 4h1M17 4h1M19 4h1M21 4h1M4 5h1M6 5h1M8 5h1M10 5h1M12 5h1M14 5h1M16 5h1M18 5h1M20 5h1M22 5h1M1 6h23M3 8h1M5 8h1M7 8h1M9 8h1M11 8h1M13 8h1M15 8h1M17 8h1M19 8h1M21 8h1M23 8h1M25 8h1M27 8h1M29 8h1M31 8h1M33 8h1M35 8h1M37 8h1M39 8h1M41 8h1M43 8h1M45 8h1M2 9h1M4 9h1M6 9h1M8 9h1M10 9h1M12 9h1M14 9h1M16 9h1M18 9h1M20 9h1M22 9h1M24 9h1M26 9h1M28 9h1M30 9h1M32 9h1M34 9h1M36 9h1M38 9h1M40 9h1M42 9h1M44 9h1M3 10h1M5 10h1M7 10h1M9 10h1M11 10h1M13 10h1M15 10h1M17 10h1M19 10h1M21 10h1M23 10h1M25 10h1M27 10h1M29 10h1M31 10h1M33 10h1M35 10h1M37 10h1M39 10h1M41 10h1M43 10h1M45 10h1M2 11h1M4 11h1M6 11h1M8 11h1M10 11h1M12 11h1M14 11h1M16 11h1M18 11h1M20 11h1M22 11h1M24 11h1M26 11h1M28 11h1M38 11h1M40 11h1M42 11h1M44 11h1M3 12h1M5 12h1M7 12h1M9 12h1M11 12h1M13 12h1M15 12h1M17 12h1M19 12h1M21 12h1M23 12h1M25 12h1M27 12h1M37 12h1M39 12h1M41 12h1M43 12h1M45 12h1M2 13h1M4 13h1M6 13h1M8 13h1M10 13h1M12 13h1M14 13h1M16 13h1M18 13h1M20 13h1M22 13h1M24 13h1M26 13h1M28 13h1M32 13h3M38 13h1M40 13h1M42 13h1M44 13h1M3 14h1M5 14h1M7 14h1M9 14h1M11 14h1M13 14h1M15 14h1M17 14h1M19 14h1M21 14h1M23 14h1M25 14h1M27 14h1M31 14h4M37 14h1M39 14h1M41 14h1M43 14h1M45 14h1M2 15h1M4 15h1M6 15h1M8 15h1M10 15h1M16 15h1M18 15h1M20 15h1M28 15h1M31 15h4M38 15h1M40 15h1M42 15h1M44 15h1M3 16h1M5 16h1M7 16h1M9 16h1M17 16h1M31 16h4M37 16h1M39 16h1M41 16h1M43 16h1M45 16h1M2 17h1M4 17h1M6 17h1M8 17h1M10 17h1M13 17h3M20 17h10M31 17h3M38 17h1M40 17h1M42 17h1M44 17h1M3 18h1M5 18h1M7 18h1M9 18h1M13 18h3M19 18h12M32 18h2M37 18h1M39 18h1M41 18h1M43 18h1M45 18h1M2 19h1M4 19h1M6 19h1M8 19h1M10 19h1M13 19h19M36 19h1M38 19h1M40 19h1M42 19h1M44 19h1M3 20h1M5 20h1M7 20h1M9 20h1M13 20h4M19 20h7M30 20h2M35 20h1M37 20h1M39 20h1M41 20h1M43 20h1M45 20h1M2 21h1M4 21h1M6 21h1M8 21h1M10 21h1M12 21h4M20 21h5M31 21h1M36 21h1M38 21h1M40 21h1M42 21h1M44 21h1M3 22h1M5 22h1M7 22h1M9 22h1M17 22h1M21 22h3M27 22h1M29 22h1M35 22h1M37 22h1M39 22h1M41 22h1M43 22h1M45 22h1M2 23h1M4 23h1M6 23h1M8 23h1M10 23h1M16 23h1M18 23h1M22 23h1M26 23h1M28 23h1M30 23h1M36 23h1M38 23h1M40 23h1M42 23h1M44 23h1M3 24h1M5 24h1M7 24h1M9 24h1M11 24h1M13 24h1M15 24h1M17 24h1M19 24h1M22 24h1M25 24h1M27 24h1M29 24h1M35 24h1M37 24h1M39 24h1M41 24h1M43 24h1M45 24h1M2 25h1M4 25h1M6 25h1M8 25h1M10 25h1M12 25h1M14 25h1M16 25h1M18 25h1M22 25h1M26 25h1M28 25h1M30 25h1M32 25h1M36 25h1M38 25h1M40 25h1M42 25h1M44 25h1M3 26h1M5 26h1M7 26h1M9 26h1M11 26h1M13 26h1M15 26h1M17 26h1M19 26h1M22 26h1M25 26h1M27 26h1M29 26h1M32 26h1M35 26h1M37 26h1M39 26h1M41 26h1M43 26h1M45 26h1M2 27h1M4 27h1M6 27h1M8 27h1M10 27h1M12 27h1M14 27h1M16 27h1M18 27h1M22 27h1M26 27h1M28 27h1M30 27h1M32 27h1M36 27h1M38 27h1M40 27h1M42 27h1M44 27h1M3 28h1M5 28h1M7 28h1M9 28h1M11 28h1M13 28h1M15 28h1M17 28h1M19 28h1M22 28h1M25 28h1M27 28h1M29 28h1M32 28h1M35 28h1M37 28h1M39 28h1M41 28h1M43 28h1M45 28h1M2 29h1M4 29h1M6 29h1M8 29h1M10 29h1M12 29h1M14 29h1M16 29h1M18 29h1M26 29h1M28 29h1M30 29h1M36 29h1M38 29h1M40 29h1M42 29h1M44 29h1M3 30h1M5 30h1M7 30h1M9 30h1M11 30h1M13 30h1M15 30h1M17 30h1M27 30h1M29 30h1M31 30h4M37 30h1M39 30h1M41 30h1M43 30h1M45 30h1M2 31h1M4 31h1M6 31h1M8 31h1M10 31h1M12 31h1M14 31h1M16 31h1M18 31h1M26 31h1M28 31h1M30 31h1M38 31h1M40 31h1M42 31h1M44 31h1M3 32h1M5 32h1M7 32h1M9 32h1M11 32h1M13 32h1M15 32h1M17 32h1M27 32h1M37 32h1M39 32h1M41 32h1M43 32h1M45 32h1M2 33h1M4 33h1M6 33h1M8 33h1M10 33h1M12 33h1M14 33h1M16 33h1M18 33h1M26 33h1M28 33h1M38 33h1M40 33h1M42 33h1M44 33h1M3 34h1M5 34h1M7 34h1M9 34h1M11 34h1M13 34h1M15 34h1M17 34h1M27 34h1M37 34h1M39 34h1M41 34h1M43 34h1M45 34h1M2 35h1M4 35h1M6 35h1M8 35h1M10 35h1M12 35h1M14 35h1M16 35h1M18 35h1M26 35h1M28 35h1M38 35h1M40 35h1M42 35h1M44 35h1M3 36h1M5 36h1M7 36h1M9 36h1M11 36h1M13 36h1M15 36h1M17 36h1M19 36h1M21 36h1M23 36h1M25 36h1M27 36h1M29 36h1M31 36h1M33 36h1M35 36h1M37 36h1M39 36h1M41 36h1M43 36h1M45 36h1M2 37h1M4 37h1M6 37h1M8 37h1M10 37h1M12 37h1M14 37h1M16 37h1M18 37h1M20 37h1M22 37h1M24 37h1M26 37h1M28 37h1M30 37h1M32 37h1M34 37h1M36 37h1M38 37h1M40 37h1M42 37h1M44 37h1M3 38h1M5 38h1M7 38h1M9 38h1M11 38h1M13 38h1M15 38h1M17 38h1M19 38h1M21 38h1M23 38h1M25 38h1M27 38h1M29 38h1M31 38h1M33 38h1M35 38h1M37 38h1M39 38h1M41 38h1M43 38h1M45 38h1" />
<path stroke="#000000" d="M46 7h1M47 8h1M47 9h1M47 10h1M36 11h1M47 11h1M36 12h1M47 12h1M36 13h1M47 13h1M36 14h1M47 14h1M36 15h1M47 15h1M29 16h1M36 16h1M47 16h1M30 17h1M36 17h1M47 17h1M31 18h1M35 18h1M47 18h1M32 19h1M34 19h1M47 19h1M32 20h1M34 20h1M47 20h1M17 21h2M26 21h4M32 21h1M34 21h1M47 21h1M16 22h1M19 22h1M25 22h1M30 22h1M32 22h1M34 22h1M47 22h1M12 23h4M20 23h1M24 23h1M31 23h2M34 23h1M47 23h1M20 24h1M24 24h1M32 24h1M34 24h1M47 24h1M20 25h1M24 25h1M34 25h1M47 25h1M20 26h1M24 26h1M34 26h1M47 26h1M20 27h1M24 27h1M34 27h1M47 27h1M20 28h1M24 28h1M34 28h1M47 28h1M47 29h1M25 30h1M35 30h1M47 30h1M25 31h1M36 31h1M47 31h1M25 32h1M36 32h1M47 32h1M25 33h1M36 33h1M47 33h1M25 34h1M36 34h1M47 34h1M25 35h1M36 35h1M47 35h1M47 36h1M47 37h1M47 38h1M47 39h1M1 40h46" />
<path stroke="#808000" d="M46 8h1M46 9h1M46 10h1M46 11h1M46 12h1M46 13h1M46 14h1M46 15h1M46 16h1M46 17h1M46 18h1M46 19h1M46 20h1M46 21h1M46 22h1M46 23h1M46 24h1M46 25h1M46 26h1M46 27h1M46 28h1M46 29h1M46 30h1M46 31h1M46 32h1M46 33h1M46 34h1M46 35h1M46 36h1M46 37h1M46 38h1M1 39h46" />
<path stroke="#000080" d="M20 29h5M19 30h1M24 30h1M19 31h1M24 31h1M19 32h1M24 32h1M19 33h1M24 33h1M19 34h1M24 34h1M19 35h1M24 35h1" />
<path stroke="#800000" d="M31 29h4M30 30h1M29 31h1M35 31h1M29 32h1M35 32h1M29 33h1M35 33h1M29 34h1M35 34h1M29 35h1M35 35h1" />
<path stroke="#00ffff" d="M21 30h3M20 31h1M20 32h1M20 33h1M20 34h1M20 35h1" />
<path stroke="#0000ff" d="M22 31h2M22 32h2M22 33h2M22 34h2M22 35h2" />
<path stroke="#ff00ff" d="M31 31h1M30 32h1M30 33h1M30 34h1M30 35h1" />
<path stroke="#ff0000" d="M32 31h3M31 32h4M31 33h4M31 34h4M31 35h4" />
</svg>
