<?xml version="1.0" encoding="UTF-8" ?>
<svg version="1.1" width="40" height="40" xmlns="http://www.w3.org/2000/svg">
<rect x="19" y="0" width="1" height="1" fill="#DE5833" opacity="0.376471" />
<rect x="20" y="0" width="1" height="2" fill="#DE5833" />
<rect x="21" y="0" width="1" height="1" fill="#DE5833" opacity="0.341176" />
<rect x="14" y="1" width="6" height="1" fill="#DE5833" />
<rect x="21" y="1" width="6" height="1" fill="#DE5833" />
<rect x="12" y="2" width="5" height="1" fill="#DE5833" />
<rect x="17" y="2" width="7" height="2" fill="#FFFFFF" />
<rect x="24" y="2" width="5" height="1" fill="#DE5833" />
<rect x="10" y="3" width="3" height="1" fill="#DE5833" />
<rect x="13" y="3" width="1" height="1" fill="#DF5B37" />
<rect x="14" y="3" width="3" height="1" fill="#FFFFFF" />
<rect x="24" y="3" width="3" height="1" fill="#FFFFFF" />
<rect x="27" y="3" width="1" height="1" fill="#DE5631" />
<rect x="28" y="3" width="3" height="1" fill="#DE5833" />
<rect x="8" y="4" width="1" height="1" fill="#DE5833" opacity="0.956863" />
<rect x="9" y="4" width="2" height="1" fill="#DE5833" />
<rect x="11" y="4" width="1" height="1" fill="#F0B1A0" />
<rect x="12" y="4" width="3" height="1" fill="#FFFFFF" />
<rect x="15" y="4" width="10" height="3" fill="#DE5833" />
<rect x="25" y="4" width="1" height="1" fill="#E0613E" />
<rect x="26" y="4" width="3" height="1" fill="#FFFFFF" />
<rect x="29" y="4" width="1" height="1" fill="#E37354" />
<rect x="30" y="4" width="2" height="1" fill="#DE5833" />
<rect x="32" y="4" width="1" height="1" fill="#DD5832" opacity="0.611765" />
<rect x="7" y="5" width="3" height="1" fill="#DE5833" />
<rect x="10" y="5" width="3" height="1" fill="#FFFFFF" />
<rect x="13" y="5" width="2" height="2" fill="#DE5833" />
<rect x="25" y="5" width="3" height="10" fill="#DE5833" />
<rect x="28" y="5" width="3" height="1" fill="#FFFFFF" />
<rect x="31" y="5" width="3" height="1" fill="#DE5833" />
<rect x="6" y="6" width="3" height="1" fill="#DE5833" />
<rect x="9" y="6" width="2" height="1" fill="#FFFFFF" />
<rect x="11" y="6" width="2" height="1" fill="#DE5833" />
<rect x="28" y="6" width="2" height="13" fill="#DE5833" />
<rect x="30" y="6" width="2" height="1" fill="#FFFFFF" />
<rect x="32" y="6" width="3" height="1" fill="#DE5833" />
<rect x="5" y="7" width="2" height="2" fill="#DE5833" />
<rect x="7" y="7" width="1" height="1" fill="#DE5934" />
<rect x="8" y="7" width="2" height="1" fill="#FFFFFF" />
<rect x="10" y="7" width="2" height="6" fill="#DE5833" />
<rect x="12" y="7" width="1" height="1" fill="#D5D7D8" />
<rect x="13" y="7" width="4" height="2" fill="#FFFFFF" />
<rect x="17" y="7" width="8" height="1" fill="#DE5833" />
<rect x="30" y="7" width="1" height="12" fill="#DE5833" />
<rect x="31" y="7" width="2" height="1" fill="#FFFFFF" />
<rect x="33" y="7" width="1" height="1" fill="#DE5832" />
<rect x="34" y="7" width="2" height="2" fill="#DE5833" />
<rect x="4" y="8" width="1" height="1" fill="#DE5833" opacity="0.964706" />
<rect x="7" y="8" width="2" height="1" fill="#FFFFFF" />
<rect x="9" y="8" width="1" height="25" fill="#DE5833" />
<rect x="12" y="8" width="1" height="1" fill="#F7F8F8" />
<rect x="17" y="8" width="2" height="22" fill="#FFFFFF" />
<rect x="19" y="8" width="6" height="1" fill="#DE5833" />
<rect x="31" y="8" width="1" height="10" fill="#DE5833" />
<rect x="32" y="8" width="2" height="1" fill="#FFFFFF" />
<rect x="36" y="8" width="1" height="1" fill="#DD5833" opacity="0.439216" />
<rect x="4" y="9" width="2" height="1" fill="#DE5833" />
<rect x="6" y="9" width="2" height="1" fill="#FFFFFF" />
<rect x="8" y="9" width="1" height="23" fill="#DE5833" />
<rect x="12" y="9" width="3" height="1" fill="#DE5833" />
<rect x="15" y="9" width="1" height="1" fill="#DB836A" />
<rect x="16" y="9" width="1" height="1" fill="#DEDFE0" />
<rect x="19" y="9" width="1" height="13" fill="#FFFFFF" />
<rect x="20" y="9" width="5" height="1" fill="#DE5833" />
<rect x="32" y="9" width="1" height="9" fill="#DE5833" />
<rect x="33" y="9" width="2" height="1" fill="#FFFFFF" />
<rect x="35" y="9" width="2" height="1" fill="#DE5833" />
<rect x="3" y="10" width="2" height="1" fill="#DE5833" />
<rect x="5" y="10" width="2" height="1" fill="#FFFFFF" />
<rect x="7" y="10" width="1" height="21" fill="#DE5833" />
<rect x="12" y="10" width="2" height="1" fill="#DE5833" />
<rect x="14" y="10" width="3" height="6" fill="#FFFFFF" />
<rect x="20" y="10" width="2" height="11" fill="#FFFFFF" />
<rect x="22" y="10" width="1" height="1" fill="#F6D4CB" />
<rect x="23" y="10" width="2" height="1" fill="#DE5833" />
<rect x="33" y="10" width="1" height="9" fill="#DE5833" />
<rect x="34" y="10" width="2" height="1" fill="#FFFFFF" />
<rect x="36" y="10" width="2" height="1" fill="#DE5833" />
<rect x="3" y="11" width="1" height="2" fill="#DE5833" />
<rect x="4" y="11" width="1" height="1" fill="#F0B3A2" />
<rect x="5" y="11" width="1" height="2" fill="#FFFFFF" />
<rect x="6" y="11" width="1" height="19" fill="#DE5833" />
<rect x="12" y="11" width="1" height="1" fill="#DE5833" />
<rect x="13" y="11" width="1" height="3" fill="#FFFFFF" />
<rect x="22" y="11" width="2" height="2" fill="#FFFFFF" />
<rect x="24" y="11" width="1" height="2" fill="#DE5833" />
<rect x="34" y="11" width="1" height="19" fill="#DE5833" />
<rect x="35" y="11" width="1" height="2" fill="#FFFFFF" />
<rect x="36" y="11" width="1" height="1" fill="#DF5B37" />
<rect x="37" y="11" width="1" height="3" fill="#DE5833" />
<rect x="2" y="12" width="1" height="5" fill="#DE5833" />
<rect x="4" y="12" width="1" height="3" fill="#FFFFFF" />
<rect x="12" y="12" width="1" height="9" fill="#FFFFFF" />
<rect x="36" y="12" width="1" height="3" fill="#FFFFFF" />
<rect x="38" y="12" width="1" height="5" fill="#DE5833" />
<rect x="3" y="13" width="1" height="1" fill="#DF5D39" />
<rect x="5" y="13" width="1" height="15" fill="#DE5833" />
<rect x="10" y="13" width="1" height="21" fill="#DE5833" />
<rect x="11" y="13" width="1" height="2" fill="#D5D7D8" />
<rect x="22" y="13" width="1" height="1" fill="#596DB4" />
<rect x="23" y="13" width="1" height="1" fill="#4355A5" />
<rect x="24" y="13" width="1" height="4" fill="#FFFFFF" />
<rect x="35" y="13" width="1" height="15" fill="#DE5833" />
<rect x="1" y="14" width="1" height="13" fill="#DE5833" />
<rect x="3" y="14" width="1" height="13" fill="#FFFFFF" />
<rect x="13" y="14" width="1" height="1" fill="#5A6FB5" />
<rect x="22" y="14" width="2" height="2" fill="#FFFFFF" />
<rect x="37" y="14" width="1" height="13" fill="#FFFFFF" />
<rect x="39" y="14" width="1" height="13" fill="#DE5833" />
<rect x="4" y="15" width="1" height="1" fill="#DE5832" />
<rect x="11" y="15" width="1" height="1" fill="#DBDCDD" />
<rect x="13" y="15" width="1" height="11" fill="#FFFFFF" />
<rect x="25" y="15" width="1" height="5" fill="#FFFFFF" />
<rect x="26" y="15" width="2" height="5" fill="#DE5833" />
<rect x="36" y="15" width="1" height="1" fill="#EEA894" />
<rect x="4" y="16" width="1" height="9" fill="#DE5833" />
<rect x="11" y="16" width="1" height="4" fill="#D5D7D8" />
<rect x="14" y="16" width="1" height="1" fill="#FFFFFF" />
<rect x="15" y="16" width="1" height="1" fill="#2E508E" />
<rect x="16" y="16" width="1" height="1" fill="#FFFFFF" />
<rect x="22" y="16" width="1" height="4" fill="#FFFFFF" />
<rect x="23" y="16" width="1" height="2" fill="#2D4F8E" />
<rect x="36" y="16" width="1" height="9" fill="#DE5833" />
<rect x="2" y="17" width="1" height="7" fill="#FFFFFF" />
<rect x="14" y="17" width="2" height="1" fill="#2D4F8E" />
<rect x="16" y="17" width="1" height="1" fill="#305290" />
<rect x="24" y="17" width="1" height="1" fill="#2D4F8E" />
<rect x="38" y="17" width="1" height="7" fill="#FFFFFF" />
<rect x="14" y="18" width="1" height="13" fill="#FFFFFF" />
<rect x="15" y="18" width="2" height="1" fill="#2D4F8E" />
<rect x="23" y="18" width="2" height="2" fill="#FFFFFF" />
<rect x="31" y="18" width="1" height="3" fill="#FDD20A" />
<rect x="32" y="18" width="1" height="1" fill="#FBCC0C" />
<rect x="0" y="19" width="1" height="1" fill="#DE5833" opacity="0.364706" />
<rect x="15" y="19" width="2" height="11" fill="#FFFFFF" />
<rect x="28" y="19" width="3" height="2" fill="#FDD20A" />
<rect x="32" y="19" width="2" height="1" fill="#FDD20A" />
<rect x="0" y="20" width="1" height="1" fill="#DE5833" />
<rect x="11" y="20" width="1" height="1" fill="#D5D9DB" />
<rect x="22" y="20" width="6" height="2" fill="#FDD20A" />
<rect x="32" y="20" width="2" height="11" fill="#DE5833" />
<rect x="0" y="21" width="1" height="1" fill="#DE5833" opacity="0.333333" />
<rect x="11" y="21" width="1" height="14" fill="#DE5833" />
<rect x="12" y="21" width="1" height="1" fill="#DFE0E1" />
<rect x="20" y="21" width="2" height="4" fill="#FDD20A" />
<rect x="28" y="21" width="1" height="1" fill="#FDD20A" />
<rect x="29" y="21" width="1" height="1" fill="#FDD30A" />
<rect x="30" y="21" width="2" height="3" fill="#DE5833" />
<rect x="12" y="22" width="1" height="3" fill="#D5D7D8" />
<rect x="19" y="22" width="1" height="1" fill="#FFFFFE" />
<rect x="22" y="22" width="1" height="4" fill="#FDD20A" />
<rect x="23" y="22" width="1" height="1" fill="#DE5733" />
<rect x="24" y="22" width="1" height="1" fill="#FDD30A" />
<rect x="25" y="22" width="2" height="1" fill="#FDD20A" />
<rect x="27" y="22" width="3" height="3" fill="#DE5833" />
<rect x="19" y="23" width="1" height="8" fill="#FFFFFF" />
<rect x="23" y="23" width="4" height="2" fill="#DE5833" />
<rect x="2" y="24" width="1" height="5" fill="#DE5833" />
<rect x="30" y="24" width="2" height="1" fill="#FDD20A" />
<rect x="38" y="24" width="1" height="5" fill="#DE5833" />
<rect x="4" y="25" width="1" height="1" fill="#E0613E" />
<rect x="12" y="25" width="1" height="1" fill="#D7BBB3" />
<rect x="20" y="25" width="1" height="6" fill="#FFFFFF" />
<rect x="21" y="25" width="1" height="5" fill="#DE5833" />
<rect x="23" y="25" width="8" height="1" fill="#FDD20A" />
<rect x="31" y="25" width="1" height="8" fill="#DE5833" />
<rect x="36" y="25" width="1" height="1" fill="#F6D0C5" />
<rect x="4" y="26" width="1" height="3" fill="#FFFFFF" />
<rect x="12" y="26" width="1" height="9" fill="#DE5833" />
<rect x="13" y="26" width="1" height="4" fill="#D5D7D8" />
<rect x="22" y="26" width="3" height="4" fill="#DE5833" />
<rect x="25" y="26" width="1" height="1" fill="#EA8A22" />
<rect x="26" y="26" width="2" height="1" fill="#FDD20A" />
<rect x="28" y="26" width="1" height="1" fill="#FDD409" />
<rect x="29" y="26" width="2" height="8" fill="#DE5833" />
<rect x="36" y="26" width="1" height="3" fill="#FFFFFF" />
<rect x="3" y="27" width="1" height="1" fill="#DE5631" />
<rect x="25" y="27" width="4" height="2" fill="#DE5833" />
<rect x="37" y="27" width="1" height="4" fill="#DE5833" />
<rect x="3" y="28" width="1" height="3" fill="#DE5833" />
<rect x="5" y="28" width="1" height="3" fill="#FFFFFF" />
<rect x="35" y="28" width="1" height="3" fill="#FFFFFF" />
<rect x="4" y="29" width="1" height="1" fill="#E37253" />
<rect x="25" y="29" width="1" height="1" fill="#DE5833" />
<rect x="26" y="29" width="1" height="6" fill="#65BC46" />
<rect x="27" y="29" width="2" height="6" fill="#DE5833" />
<rect x="36" y="29" width="1" height="1" fill="#DE5731" />
<rect x="4" y="30" width="1" height="2" fill="#DE5833" />
<rect x="6" y="30" width="1" height="2" fill="#FFFFFF" />
<rect x="13" y="30" width="1" height="1" fill="#DE5731" />
<rect x="15" y="30" width="1" height="6" fill="#FFFFFF" />
<rect x="16" y="30" width="2" height="5" fill="#65BC46" />
<rect x="18" y="30" width="1" height="1" fill="#FFFFFF" />
<rect x="21" y="30" width="1" height="1" fill="#DE5731" />
<rect x="22" y="30" width="2" height="1" fill="#DE5833" />
<rect x="24" y="30" width="1" height="1" fill="#C76B36" />
<rect x="25" y="30" width="1" height="5" fill="#65BC46" />
<rect x="34" y="30" width="1" height="2" fill="#FFFFFF" />
<rect x="36" y="30" width="1" height="2" fill="#DE5833" />
<rect x="5" y="31" width="1" height="3" fill="#DE5833" />
<rect x="7" y="31" width="1" height="2" fill="#FFFFFF" />
<rect x="13" y="31" width="1" height="5" fill="#DE5833" />
<rect x="14" y="31" width="1" height="4" fill="#D5D7D8" />
<rect x="18" y="31" width="7" height="3" fill="#65BC46" />
<rect x="32" y="31" width="1" height="1" fill="#DE5833" />
<rect x="33" y="31" width="1" height="2" fill="#FFFFFF" />
<rect x="35" y="31" width="1" height="3" fill="#DE5833" />
<rect x="4" y="32" width="1" height="1" fill="#DE5833" opacity="0.615686" />
<rect x="6" y="32" width="1" height="3" fill="#DE5833" />
<rect x="8" y="32" width="1" height="2" fill="#FFFFFF" />
<rect x="32" y="32" width="1" height="2" fill="#FFFFFF" />
<rect x="34" y="32" width="1" height="3" fill="#DE5833" />
<rect x="36" y="32" width="1" height="1" fill="#DD5834" opacity="0.054902" />
<rect x="7" y="33" width="1" height="1" fill="#DE5832" />
<rect x="9" y="33" width="1" height="2" fill="#FFFFFF" />
<rect x="31" y="33" width="1" height="2" fill="#FFFFFF" />
<rect x="33" y="33" width="1" height="3" fill="#DE5833" />
<rect x="7" y="34" width="2" height="2" fill="#DE5833" />
<rect x="10" y="34" width="1" height="2" fill="#FFFFFF" />
<rect x="18" y="34" width="2" height="1" fill="#65BC46" />
<rect x="20" y="34" width="2" height="1" fill="#43A244" />
<rect x="22" y="34" width="1" height="1" fill="#EEF7EE" />
<rect x="23" y="34" width="2" height="1" fill="#DE5833" />
<rect x="29" y="34" width="1" height="1" fill="#DE5833" />
<rect x="30" y="34" width="1" height="2" fill="#FFFFFF" />
<rect x="32" y="34" width="1" height="2" fill="#DE5833" />
<rect x="9" y="35" width="1" height="2" fill="#DE5833" />
<rect x="11" y="35" width="2" height="1" fill="#FFFFFF" />
<rect x="14" y="35" width="1" height="1" fill="#DE5833" />
<rect x="16" y="35" width="1" height="3" fill="#FFFFFF" />
<rect x="17" y="35" width="1" height="1" fill="#65BC46" />
<rect x="18" y="35" width="6" height="4" fill="#FFFFFF" />
<rect x="24" y="35" width="4" height="1" fill="#DE5833" />
<rect x="28" y="35" width="2" height="1" fill="#FFFFFF" />
<rect x="31" y="35" width="1" height="2" fill="#DE5833" />
<rect x="8" y="36" width="1" height="1" fill="#DE5833" opacity="0.443137" />
<rect x="10" y="36" width="1" height="2" fill="#DE5833" />
<rect x="11" y="36" width="1" height="1" fill="#DE5A36" />
<rect x="12" y="36" width="3" height="1" fill="#FFFFFF" />
<rect x="15" y="36" width="1" height="1" fill="#E8E9EA" />
<rect x="17" y="36" width="1" height="3" fill="#FFFFFF" />
<rect x="24" y="36" width="1" height="1" fill="#DE5833" />
<rect x="25" y="36" width="1" height="1" fill="#F5CDC3" />
<rect x="26" y="36" width="3" height="1" fill="#FFFFFF" />
<rect x="29" y="36" width="1" height="1" fill="#DE5731" />
<rect x="30" y="36" width="1" height="2" fill="#DE5833" />
<rect x="32" y="36" width="1" height="1" fill="#DE5833" opacity="0.054902" />
<rect x="11" y="37" width="3" height="1" fill="#DE5833" />
<rect x="14" y="37" width="2" height="1" fill="#FFFFFF" />
<rect x="24" y="37" width="3" height="1" fill="#FFFFFF" />
<rect x="27" y="37" width="3" height="1" fill="#DE5833" />
<rect x="12" y="38" width="5" height="1" fill="#DE5833" />
<rect x="24" y="38" width="5" height="1" fill="#DE5833" />
<rect x="14" y="39" width="13" height="1" fill="#DE5833" />
</svg>
