<?xml version="1.0" encoding="UTF-8" ?>
<svg version="1.1" width="32" height="32" xmlns="http://www.w3.org/2000/svg">
<rect x="15" y="0" width="1" height="1" fill="#40BFBF" opacity="0.015686" />
<rect x="16" y="0" width="1" height="1" fill="#2CC3C4" />
<rect x="17" y="0" width="1" height="1" fill="#29C2C2" opacity="0.098039" />
<rect x="11" y="1" width="1" height="1" fill="#2DC2D9" />
<rect x="12" y="1" width="1" height="1" fill="#2DC3D7" />
<rect x="13" y="1" width="1" height="1" fill="#2CC3D5" />
<rect x="14" y="1" width="1" height="1" fill="#2CC3D4" />
<rect x="15" y="1" width="1" height="1" fill="#2BC3D2" />
<rect x="16" y="1" width="1" height="1" fill="#2BC3CD" />
<rect x="17" y="1" width="1" height="1" fill="#2CC3C8" />
<rect x="18" y="1" width="1" height="1" fill="#2CC3C3" />
<rect x="19" y="1" width="1" height="1" fill="#2DC4BE" />
<rect x="20" y="1" width="1" height="1" fill="#2DC4B9" />
<rect x="21" y="1" width="1" height="1" fill="#2EC4B4" />
<rect x="22" y="1" width="1" height="1" fill="#2EC4AF" />
<rect x="9" y="2" width="1" height="1" fill="#2FC2E0" />
<rect x="10" y="2" width="1" height="1" fill="#2FC2DE" />
<rect x="11" y="2" width="1" height="1" fill="#2EC2DD" />
<rect x="12" y="2" width="1" height="1" fill="#2EC2DB" />
<rect x="13" y="2" width="1" height="1" fill="#2DC2D9" />
<rect x="14" y="2" width="1" height="1" fill="#2DC3D7" />
<rect x="15" y="2" width="1" height="1" fill="#2CC3D5" />
<rect x="16" y="2" width="1" height="1" fill="#2BC3D3" />
<rect x="17" y="2" width="1" height="1" fill="#2BC3D0" />
<rect x="18" y="2" width="1" height="1" fill="#2CC3CB" />
<rect x="19" y="2" width="1" height="1" fill="#2CC3C5" />
<rect x="20" y="2" width="1" height="1" fill="#2DC4C0" />
<rect x="21" y="2" width="1" height="1" fill="#2DC4BB" />
<rect x="22" y="2" width="1" height="1" fill="#2FC6B3" />
<rect x="23" y="2" width="1" height="1" fill="#34C8A9" />
<rect x="24" y="2" width="1" height="1" fill="#38CBA0" />
<rect x="7" y="3" width="1" height="1" fill="#32C1E8" />
<rect x="8" y="3" width="1" height="1" fill="#32C1E6" />
<rect x="9" y="3" width="1" height="1" fill="#31C2E4" />
<rect x="10" y="3" width="1" height="1" fill="#30C2E2" />
<rect x="11" y="3" width="1" height="1" fill="#30C2E0" />
<rect x="12" y="3" width="1" height="1" fill="#2FC2DE" />
<rect x="13" y="3" width="1" height="1" fill="#2EC2DC" />
<rect x="14" y="3" width="1" height="1" fill="#2EC2DA" />
<rect x="15" y="3" width="1" height="1" fill="#2DC3D8" />
<rect x="16" y="3" width="1" height="1" fill="#2CC3D6" />
<rect x="17" y="3" width="1" height="1" fill="#2CC3D4" />
<rect x="18" y="3" width="1" height="1" fill="#2BC3D1" />
<rect x="19" y="3" width="1" height="1" fill="#2CC3CB" />
<rect x="20" y="3" width="1" height="1" fill="#2CC3C6" />
<rect x="21" y="3" width="1" height="1" fill="#2DC4C0" />
<rect x="22" y="3" width="1" height="1" fill="#31C7B4" />
<rect x="23" y="3" width="1" height="1" fill="#37CAAA" />
<rect x="24" y="3" width="1" height="1" fill="#3BCDA0" />
<rect x="25" y="3" width="1" height="1" fill="#3FCF97" />
<rect x="26" y="3" width="1" height="1" fill="#42D291" opacity="0.996078" />
<rect x="6" y="4" width="1" height="1" fill="#34C1ED" />
<rect x="7" y="4" width="1" height="1" fill="#34C1EC" />
<rect x="8" y="4" width="1" height="1" fill="#33C1EA" />
<rect x="9" y="4" width="1" height="1" fill="#32C1E8" />
<rect x="10" y="4" width="1" height="1" fill="#31C2E6" />
<rect x="11" y="4" width="1" height="1" fill="#31C2E4" />
<rect x="12" y="4" width="1" height="1" fill="#30C2E1" />
<rect x="13" y="4" width="1" height="1" fill="#2FC2DF" />
<rect x="14" y="4" width="1" height="1" fill="#2EC2DD" />
<rect x="15" y="4" width="1" height="1" fill="#2EC2DA" />
<rect x="16" y="4" width="1" height="1" fill="#2DC3D8" />
<rect x="17" y="4" width="1" height="1" fill="#2CC3D6" />
<rect x="18" y="4" width="1" height="1" fill="#2BC3D3" />
<rect x="19" y="4" width="1" height="1" fill="#2BC3D0" />
<rect x="20" y="4" width="1" height="1" fill="#2CC3CA" />
<rect x="21" y="4" width="1" height="1" fill="#2EC5C2" />
<rect x="22" y="4" width="1" height="1" fill="#34C9B5" />
<rect x="23" y="4" width="1" height="1" fill="#38CCAA" />
<rect x="24" y="4" width="1" height="1" fill="#3DCFA0" />
<rect x="25" y="4" width="1" height="1" fill="#42D297" />
<rect x="26" y="4" width="1" height="1" fill="#45D590" />
<rect x="27" y="4" width="1" height="1" fill="#49D689" />
<rect x="5" y="5" width="1" height="1" fill="#35C1EF" />
<rect x="6" y="5" width="2" height="1" fill="#34C1EE" />
<rect x="8" y="5" width="1" height="3" fill="#34C1ED" />
<rect x="9" y="5" width="1" height="1" fill="#33C1EB" />
<rect x="10" y="5" width="1" height="1" fill="#32C1E8" />
<rect x="11" y="5" width="1" height="1" fill="#31C2E6" />
<rect x="12" y="5" width="1" height="1" fill="#31C2E3" />
<rect x="13" y="5" width="1" height="1" fill="#30C2E1" />
<rect x="14" y="5" width="1" height="1" fill="#2FC2DE" />
<rect x="15" y="5" width="1" height="1" fill="#2EC2DC" />
<rect x="16" y="5" width="1" height="1" fill="#2DC2DA" />
<rect x="17" y="5" width="1" height="1" fill="#2DC3D7" />
<rect x="18" y="5" width="1" height="3" fill="#2CC3D5" />
<rect x="19" y="5" width="1" height="1" fill="#2BC3D2" />
<rect x="20" y="5" width="1" height="1" fill="#2BC3CD" />
<rect x="21" y="5" width="1" height="1" fill="#2FC5C2" />
<rect x="22" y="5" width="1" height="1" fill="#34CAB4" />
<rect x="23" y="5" width="1" height="1" fill="#3ACDA8" />
<rect x="24" y="5" width="1" height="1" fill="#40D19F" />
<rect x="25" y="5" width="1" height="1" fill="#44D494" />
<rect x="26" y="5" width="1" height="1" fill="#48D68D" />
<rect x="27" y="5" width="1" height="1" fill="#4DD986" />
<rect x="28" y="5" width="1" height="1" fill="#4FDB81" />
<rect x="4" y="6" width="2" height="1" fill="#35C1F0" />
<rect x="6" y="6" width="1" height="1" fill="#34C1EF" />
<rect x="7" y="6" width="1" height="2" fill="#34C1EE" />
<rect x="9" y="6" width="1" height="1" fill="#34C1EC" />
<rect x="10" y="6" width="1" height="1" fill="#33C1E9" />
<rect x="11" y="6" width="1" height="1" fill="#32C1E7" />
<rect x="12" y="6" width="1" height="2" fill="#31C2E4" />
<rect x="13" y="6" width="1" height="1" fill="#30C2E2" />
<rect x="14" y="6" width="1" height="2" fill="#2FC2DF" />
<rect x="15" y="6" width="1" height="1" fill="#2EC2DD" />
<rect x="16" y="6" width="1" height="1" fill="#2EC2DA" />
<rect x="17" y="6" width="1" height="2" fill="#2DC3D8" />
<rect x="19" y="6" width="1" height="2" fill="#2BC3D3" />
<rect x="20" y="6" width="1" height="1" fill="#2BC3CE" />
<rect x="21" y="6" width="1" height="1" fill="#31C7C1" />
<rect x="22" y="6" width="1" height="1" fill="#36CBB4" />
<rect x="23" y="6" width="1" height="1" fill="#3CCEA7" />
<rect x="24" y="6" width="1" height="1" fill="#42D19B" />
<rect x="25" y="6" width="1" height="1" fill="#47D694" />
<rect x="26" y="6" width="1" height="1" fill="#4CD88B" />
<rect x="27" y="6" width="1" height="1" fill="#50DB85" />
<rect x="28" y="6" width="1" height="1" fill="#53DE7F" />
<rect x="29" y="6" width="1" height="1" fill="#55DF7B" />
<rect x="3" y="7" width="2" height="1" fill="#35C1EF" />
<rect x="5" y="7" width="1" height="1" fill="#34C1EF" />
<rect x="6" y="7" width="1" height="1" fill="#34C1EE" />
<rect x="9" y="7" width="1" height="1" fill="#33C1EB" />
<rect x="10" y="7" width="1" height="1" fill="#32C1E9" />
<rect x="11" y="7" width="1" height="1" fill="#32C1E6" />
<rect x="13" y="7" width="1" height="1" fill="#30C2E1" />
<rect x="15" y="7" width="1" height="1" fill="#2EC2DC" />
<rect x="16" y="7" width="1" height="1" fill="#2DC2DA" />
<rect x="20" y="7" width="1" height="1" fill="#2BC3CD" />
<rect x="21" y="7" width="1" height="1" fill="#32C7BF" />
<rect x="22" y="7" width="1" height="1" fill="#37CBB2" />
<rect x="23" y="7" width="1" height="1" fill="#3ECFA5" />
<rect x="24" y="7" width="1" height="1" fill="#43D49A" />
<rect x="25" y="7" width="1" height="1" fill="#49D690" />
<rect x="26" y="7" width="1" height="1" fill="#4EDA88" />
<rect x="27" y="7" width="1" height="1" fill="#53DD81" />
<rect x="28" y="7" width="1" height="1" fill="#56E17C" />
<rect x="29" y="7" width="1" height="1" fill="#59E277" />
<rect x="3" y="8" width="3" height="1" fill="#34C1EE" />
<rect x="6" y="8" width="1" height="1" fill="#34C1ED" />
<rect x="7" y="8" width="1" height="1" fill="#0D6395" />
<rect x="8" y="8" width="1" height="1" fill="#0E679A" />
<rect x="9" y="8" width="1" height="1" fill="#106A9D" />
<rect x="10" y="8" width="1" height="1" fill="#106B9E" />
<rect x="11" y="8" width="1" height="1" fill="#116B9C" />
<rect x="12" y="8" width="1" height="1" fill="#116899" />
<rect x="13" y="8" width="1" height="1" fill="#116592" />
<rect x="14" y="8" width="1" height="1" fill="#2FC2DD" />
<rect x="15" y="8" width="1" height="1" fill="#2EC2DB" />
<rect x="16" y="8" width="1" height="1" fill="#2DC2D9" />
<rect x="17" y="8" width="1" height="1" fill="#2CC3D7" />
<rect x="18" y="8" width="1" height="1" fill="#2CC3D4" />
<rect x="19" y="8" width="1" height="1" fill="#2BC3D2" />
<rect x="20" y="8" width="1" height="1" fill="#2CC3CB" />
<rect x="21" y="8" width="1" height="1" fill="#32C7BE" />
<rect x="22" y="8" width="1" height="1" fill="#38CCB1" />
<rect x="23" y="8" width="1" height="1" fill="#3ED0A4" />
<rect x="24" y="8" width="1" height="1" fill="#44D499" />
<rect x="25" y="8" width="1" height="1" fill="#4AD78F" />
<rect x="26" y="8" width="1" height="1" fill="#4FDB86" />
<rect x="27" y="8" width="1" height="1" fill="#55DE7E" />
<rect x="28" y="8" width="1" height="1" fill="#5AE279" />
<rect x="29" y="8" width="1" height="1" fill="#5EE574" />
<rect x="30" y="8" width="1" height="1" fill="#5FE673" />
<rect x="2" y="9" width="1" height="1" fill="#33C1E9" />
<rect x="3" y="9" width="2" height="1" fill="#33C1EA" />
<rect x="5" y="9" width="1" height="1" fill="#0C659C" />
<rect x="6" y="9" width="1" height="1" fill="#0D6DA6" />
<rect x="7" y="9" width="1" height="1" fill="#0F73AE" />
<rect x="8" y="9" width="1" height="1" fill="#1076B2" />
<rect x="9" y="9" width="1" height="1" fill="#117AB7" />
<rect x="10" y="9" width="1" height="1" fill="#127BB7" />
<rect x="11" y="9" width="1" height="1" fill="#137AB5" />
<rect x="12" y="9" width="1" height="1" fill="#1379B1" />
<rect x="13" y="9" width="1" height="1" fill="#1375AB" />
<rect x="14" y="9" width="1" height="1" fill="#1370A2" />
<rect x="15" y="9" width="1" height="1" fill="#126998" />
<rect x="16" y="9" width="1" height="1" fill="#2DC3D7" />
<rect x="17" y="9" width="1" height="1" fill="#2CC3D5" />
<rect x="18" y="9" width="1" height="1" fill="#2BC3D3" />
<rect x="19" y="9" width="1" height="1" fill="#2BC3CF" />
<rect x="20" y="9" width="1" height="1" fill="#2DC3C8" />
<rect x="21" y="9" width="1" height="1" fill="#32C7BA" />
<rect x="22" y="9" width="1" height="1" fill="#39CCAE" />
<rect x="23" y="9" width="1" height="1" fill="#3ED0A2" />
<rect x="24" y="9" width="1" height="1" fill="#44D498" />
<rect x="25" y="9" width="1" height="1" fill="#4AD88D" />
<rect x="26" y="9" width="1" height="1" fill="#51DC84" />
<rect x="27" y="9" width="1" height="1" fill="#56E07D" />
<rect x="28" y="9" width="1" height="1" fill="#5CE377" />
<rect x="29" y="9" width="1" height="2" fill="#60E772" />
<rect x="30" y="9" width="1" height="1" fill="#63E970" />
<rect x="31" y="9" width="1" height="1" fill="#4FDA7A" opacity="0.572549" />
<rect x="2" y="10" width="1" height="1" fill="#31C2E4" />
<rect x="3" y="10" width="1" height="1" fill="#0A6199" />
<rect x="4" y="10" width="1" height="1" fill="#0B6BA7" />
<rect x="5" y="10" width="1" height="1" fill="#0D74B3" />
<rect x="6" y="10" width="1" height="1" fill="#0F7BBF" />
<rect x="7" y="10" width="1" height="1" fill="#1081C6" />
<rect x="8" y="10" width="1" height="1" fill="#1287CD" />
<rect x="9" y="10" width="1" height="1" fill="#1389CF" />
<rect x="10" y="10" width="1" height="1" fill="#148BD0" />
<rect x="11" y="10" width="1" height="1" fill="#148ACE" />
<rect x="12" y="10" width="1" height="1" fill="#1588CA" />
<rect x="13" y="10" width="1" height="1" fill="#1585C2" />
<rect x="14" y="10" width="1" height="1" fill="#157FB9" />
<rect x="15" y="10" width="1" height="1" fill="#1478AE" />
<rect x="16" y="10" width="1" height="1" fill="#136FA0" />
<rect x="17" y="10" width="1" height="1" fill="#116591" />
<rect x="18" y="10" width="1" height="1" fill="#2BC3CF" />
<rect x="19" y="10" width="1" height="1" fill="#2CC3CA" />
<rect x="20" y="10" width="1" height="1" fill="#2CC3C4" />
<rect x="21" y="10" width="1" height="1" fill="#33C8B7" />
<rect x="22" y="10" width="1" height="1" fill="#38CCAB" />
<rect x="23" y="10" width="1" height="1" fill="#3ED09F" />
<rect x="24" y="10" width="1" height="1" fill="#45D496" />
<rect x="25" y="10" width="1" height="1" fill="#4AD78C" />
<rect x="26" y="10" width="1" height="1" fill="#50DB84" />
<rect x="27" y="10" width="1" height="1" fill="#55DF7D" />
<rect x="28" y="10" width="1" height="1" fill="#5BE377" />
<rect x="30" y="10" width="1" height="1" fill="#65EA6F" />
<rect x="31" y="10" width="1" height="1" fill="#61E771" />
<rect x="1" y="11" width="1" height="1" fill="#2FC2DE" />
<rect x="2" y="11" width="1" height="1" fill="#09639F" />
<rect x="3" y="11" width="1" height="1" fill="#0A6EAF" />
<rect x="4" y="11" width="1" height="1" fill="#0C79BF" />
<rect x="5" y="11" width="1" height="1" fill="#0E82CC" />
<rect x="6" y="11" width="1" height="1" fill="#108AD6" />
<rect x="7" y="11" width="1" height="1" fill="#118FDD" />
<rect x="8" y="11" width="1" height="1" fill="#1290DD" />
<rect x="9" y="11" width="1" height="1" fill="#1392DE" />
<rect x="10" y="11" width="1" height="1" fill="#1493DE" />
<rect x="11" y="11" width="1" height="1" fill="#1594DF" />
<rect x="12" y="11" width="1" height="1" fill="#1696DF" />
<rect x="13" y="11" width="1" height="1" fill="#1693DB" />
<rect x="14" y="11" width="1" height="1" fill="#168DD0" />
<rect x="15" y="11" width="1" height="1" fill="#1686C4" />
<rect x="16" y="11" width="1" height="1" fill="#157DB6" />
<rect x="17" y="11" width="1" height="1" fill="#1372A6" />
<rect x="18" y="11" width="1" height="1" fill="#126693" />
<rect x="19" y="11" width="1" height="1" fill="#2CC3C3" />
<rect x="20" y="11" width="1" height="1" fill="#2DC4BF" />
<rect x="21" y="11" width="1" height="1" fill="#31C8B4" />
<rect x="22" y="11" width="1" height="1" fill="#39CCA8" />
<rect x="23" y="11" width="1" height="1" fill="#3ECF9D" />
<rect x="24" y="11" width="1" height="1" fill="#44D293" />
<rect x="25" y="11" width="1" height="1" fill="#4AD68A" />
<rect x="26" y="11" width="1" height="1" fill="#4FDB83" />
<rect x="27" y="11" width="1" height="1" fill="#54DE7D" />
<rect x="28" y="11" width="1" height="1" fill="#59E278" />
<rect x="29" y="11" width="1" height="1" fill="#5EE573" />
<rect x="30" y="11" width="1" height="1" fill="#60E672" />
<rect x="31" y="11" width="1" height="1" fill="#5EE671" />
<rect x="1" y="12" width="1" height="1" fill="#2DC2D9" />
<rect x="2" y="12" width="1" height="1" fill="#096FB4" />
<rect x="3" y="12" width="1" height="1" fill="#0B7BC5" />
<rect x="4" y="12" width="1" height="1" fill="#0D85D5" />
<rect x="5" y="12" width="1" height="1" fill="#0E8BDB" />
<rect x="6" y="12" width="1" height="1" fill="#0F8CDC" />
<rect x="7" y="12" width="1" height="1" fill="#108DDC" />
<rect x="8" y="12" width="1" height="1" fill="#118FDD" />
<rect x="9" y="12" width="1" height="1" fill="#1290DD" />
<rect x="10" y="12" width="1" height="1" fill="#1392DE" />
<rect x="11" y="12" width="1" height="1" fill="#1493DE" />
<rect x="12" y="12" width="1" height="1" fill="#1494DF" />
<rect x="13" y="12" width="1" height="1" fill="#1596DF" />
<rect x="14" y="12" width="1" height="1" fill="#1697E0" />
<rect x="15" y="12" width="1" height="1" fill="#1694DA" />
<rect x="17" y="12" width="1" height="1" fill="#1580B9" />
<rect x="18" y="12" width="1" height="1" fill="#1373A7" />
<rect x="19" y="12" width="1" height="1" fill="#2DC4BC" />
<rect x="20" y="12" width="1" height="1" fill="#2DC4B8" />
<rect x="21" y="12" width="1" height="1" fill="#31C6AF" />
<rect x="22" y="12" width="1" height="1" fill="#37CAA4" />
<rect x="23" y="12" width="1" height="1" fill="#3CCE9A" />
<rect x="24" y="12" width="1" height="1" fill="#43D292" />
<rect x="25" y="12" width="1" height="1" fill="#47D68A" />
<rect x="26" y="12" width="1" height="1" fill="#4DD982" />
<rect x="27" y="12" width="1" height="1" fill="#52DD7D" />
<rect x="28" y="12" width="1" height="1" fill="#56E078" />
<rect x="29" y="12" width="1" height="1" fill="#5AE375" />
<rect x="30" y="12" width="1" height="1" fill="#5CE472" />
<rect x="31" y="12" width="1" height="1" fill="#5BE372" />
<rect x="1" y="13" width="1" height="1" fill="#086EB4" />
<rect x="2" y="13" width="1" height="1" fill="#097BC8" />
<rect x="3" y="13" width="1" height="1" fill="#0B86D9" />
<rect x="4" y="13" width="1" height="1" fill="#0C88DA" />
<rect x="5" y="13" width="1" height="1" fill="#0D89DA" />
<rect x="6" y="13" width="1" height="1" fill="#0E8BDB" />
<rect x="7" y="13" width="1" height="1" fill="#0E8CDC" />
<rect x="8" y="13" width="1" height="1" fill="#0F8DDC" />
<rect x="9" y="13" width="1" height="1" fill="#108FDD" />
<rect x="10" y="13" width="1" height="1" fill="#1190DD" />
<rect x="11" y="13" width="1" height="1" fill="#1291DE" />
<rect x="12" y="13" width="1" height="1" fill="#1393DE" />
<rect x="13" y="13" width="1" height="1" fill="#1494DF" />
<rect x="19" y="13" width="1" height="1" fill="#1371A4" />
<rect x="20" y="13" width="1" height="1" fill="#2EC4B0" />
<rect x="21" y="13" width="1" height="1" fill="#30C5AA" />
<rect x="22" y="13" width="1" height="1" fill="#36C9A0" />
<rect x="23" y="13" width="1" height="1" fill="#3BCD96" />
<rect x="24" y="13" width="1" height="1" fill="#40D08E" />
<rect x="25" y="13" width="1" height="1" fill="#46D488" />
<rect x="26" y="13" width="1" height="1" fill="#4BD882" />
<rect x="27" y="13" width="1" height="1" fill="#4FDB7D" />
<rect x="28" y="13" width="1" height="1" fill="#53DD78" />
<rect x="29" y="13" width="1" height="1" fill="#56E075" />
<rect x="30" y="13" width="1" height="1" fill="#57E173" />
<rect x="31" y="13" width="1" height="1" fill="#57E071" />
<rect x="1" y="14" width="1" height="1" fill="#0778C7" />
<rect x="2" y="14" width="1" height="1" fill="#0883D8" />
<rect x="3" y="14" width="1" height="1" fill="#0985D9" />
<rect x="4" y="14" width="1" height="1" fill="#0A86D9" />
<rect x="5" y="14" width="1" height="1" fill="#0B88DA" />
<rect x="6" y="14" width="1" height="1" fill="#0C89DA" />
<rect x="7" y="14" width="1" height="1" fill="#0D8ADB" />
<rect x="8" y="14" width="1" height="1" fill="#0E8CDB" />
<rect x="9" y="14" width="1" height="1" fill="#0F8DDC" />
<rect x="10" y="14" width="1" height="1" fill="#108FDD" />
<rect x="11" y="14" width="1" height="1" fill="#1190DD" />
<rect x="12" y="14" width="1" height="1" fill="#093C70" />
<rect x="20" y="14" width="1" height="1" fill="#2FC4A7" />
<rect x="21" y="14" width="1" height="1" fill="#2FC4A3" />
<rect x="22" y="14" width="1" height="1" fill="#34C99B" />
<rect x="23" y="14" width="1" height="1" fill="#3ACC94" />
<rect x="24" y="14" width="1" height="1" fill="#3ECF8B" />
<rect x="25" y="14" width="1" height="1" fill="#44D285" />
<rect x="26" y="14" width="1" height="1" fill="#48D57F" />
<rect x="27" y="14" width="1" height="1" fill="#4BD77B" />
<rect x="28" y="14" width="1" height="1" fill="#50DB77" />
<rect x="29" y="14" width="1" height="1" fill="#51DD74" />
<rect x="30" y="14" width="1" height="1" fill="#54DD72" />
<rect x="31" y="14" width="1" height="1" fill="#54DE71" />
<rect x="0" y="15" width="1" height="1" fill="#33BFBF" opacity="0.078431" />
<rect x="1" y="15" width="1" height="1" fill="#0681D7" />
<rect x="2" y="15" width="1" height="1" fill="#0782D8" />
<rect x="3" y="15" width="1" height="1" fill="#0883D8" />
<rect x="4" y="15" width="1" height="1" fill="#0985D9" />
<rect x="5" y="15" width="1" height="1" fill="#0A86D9" />
<rect x="6" y="15" width="1" height="1" fill="#0B88DA" />
<rect x="7" y="15" width="1" height="1" fill="#0C89DA" />
<rect x="8" y="15" width="1" height="1" fill="#0D8ADB" />
<rect x="9" y="15" width="1" height="1" fill="#0E8CDB" />
<rect x="10" y="15" width="1" height="1" fill="#0F8DDC" />
<rect x="11" y="15" width="1" height="1" fill="#093D71" />
<rect x="12" y="15" width="1" height="1" fill="#0B4681" />
<rect x="20" y="15" width="1" height="1" fill="#2FC59E" />
<rect x="21" y="15" width="1" height="1" fill="#30C59B" />
<rect x="22" y="15" width="1" height="1" fill="#32C795" />
<rect x="23" y="15" width="1" height="1" fill="#37CB8E" />
<rect x="24" y="15" width="1" height="1" fill="#3CCD87" />
<rect x="25" y="15" width="1" height="1" fill="#41D081" />
<rect x="26" y="15" width="1" height="1" fill="#46D37E" />
<rect x="27" y="15" width="1" height="1" fill="#48D679" />
<rect x="28" y="15" width="1" height="1" fill="#4BD876" />
<rect x="29" y="15" width="1" height="1" fill="#4EDA72" />
<rect x="30" y="15" width="1" height="1" fill="#4FDB70" />
<rect x="31" y="15" width="1" height="1" fill="#4FDB6F" />
<rect x="0" y="16" width="1" height="1" fill="#057CD3" opacity="0.572549" />
<rect x="1" y="16" width="1" height="1" fill="#067FD7" />
<rect x="2" y="16" width="1" height="1" fill="#0680D7" />
<rect x="3" y="16" width="1" height="1" fill="#0782D8" />
<rect x="4" y="16" width="1" height="1" fill="#0883D8" />
<rect x="5" y="16" width="1" height="1" fill="#0985D9" />
<rect x="6" y="16" width="1" height="1" fill="#0A86D9" />
<rect x="7" y="16" width="1" height="1" fill="#0B87DA" />
<rect x="8" y="16" width="1" height="1" fill="#0C89DA" />
<rect x="9" y="16" width="1" height="1" fill="#0D8ADB" />
<rect x="10" y="16" width="1" height="1" fill="#0E8CDB" />
<rect x="11" y="16" width="1" height="1" fill="#0A4681" />
<rect x="12" y="16" width="1" height="1" fill="#0D4B8C" opacity="0.478431" />
<rect x="20" y="16" width="1" height="1" fill="#30C595" opacity="0.690196" />
<rect x="21" y="16" width="1" height="1" fill="#31C591" />
<rect x="22" y="16" width="1" height="1" fill="#31C58E" />
<rect x="23" y="16" width="1" height="1" fill="#35C887" />
<rect x="24" y="16" width="1" height="1" fill="#3ACB82" />
<rect x="25" y="16" width="1" height="1" fill="#3ECF7E" />
<rect x="26" y="16" width="1" height="1" fill="#42D179" />
<rect x="27" y="16" width="1" height="1" fill="#46D475" />
<rect x="28" y="16" width="1" height="1" fill="#48D572" />
<rect x="29" y="16" width="1" height="1" fill="#4AD66F" />
<rect x="30" y="16" width="1" height="1" fill="#4CD86D" />
<rect x="31" y="16" width="1" height="1" fill="#4CD76B" />
<rect x="1" y="17" width="1" height="1" fill="#057ED6" />
<rect x="2" y="17" width="1" height="1" fill="#067FD7" />
<rect x="3" y="17" width="1" height="1" fill="#0680D7" />
<rect x="4" y="17" width="1" height="1" fill="#0782D8" />
<rect x="5" y="17" width="1" height="1" fill="#0883D8" />
<rect x="6" y="17" width="1" height="1" fill="#0984D9" />
<rect x="7" y="17" width="1" height="1" fill="#0A86D9" />
<rect x="8" y="17" width="1" height="1" fill="#0B87DA" />
<rect x="9" y="17" width="1" height="1" fill="#0C89DA" />
<rect x="10" y="17" width="1" height="1" fill="#0A437C" />
<rect x="11" y="17" width="1" height="1" fill="#0B4B89" />
<rect x="12" y="17" width="1" height="1" fill="#0C4F92" />
<rect x="20" y="17" width="1" height="1" fill="#31C58B" />
<rect x="21" y="17" width="1" height="1" fill="#31C588" />
<rect x="22" y="17" width="1" height="1" fill="#32C584" />
<rect x="23" y="17" width="1" height="1" fill="#33C780" />
<rect x="24" y="17" width="1" height="1" fill="#37C97C" />
<rect x="25" y="17" width="1" height="1" fill="#3CCC77" />
<rect x="26" y="17" width="1" height="1" fill="#3FCE73" />
<rect x="27" y="17" width="1" height="1" fill="#41D071" />
<rect x="28" y="17" width="1" height="1" fill="#45D26E" />
<rect x="29" y="17" width="1" height="1" fill="#46D46B" />
<rect x="30" y="17" width="1" height="1" fill="#47D468" />
<rect x="31" y="17" width="1" height="1" fill="#47D566" />
<rect x="1" y="18" width="1" height="1" fill="#047ED6" />
<rect x="2" y="18" width="1" height="1" fill="#057ED6" />
<rect x="3" y="18" width="1" height="1" fill="#057FD7" />
<rect x="4" y="18" width="1" height="1" fill="#0680D7" />
<rect x="5" y="18" width="1" height="1" fill="#0782D8" />
<rect x="6" y="18" width="1" height="1" fill="#0883D8" />
<rect x="7" y="18" width="1" height="1" fill="#0984D9" />
<rect x="8" y="18" width="1" height="1" fill="#0A86D9" />
<rect x="9" y="18" width="1" height="1" fill="#0B87DA" />
<rect x="10" y="18" width="1" height="1" fill="#0B4886" />
<rect x="11" y="18" width="1" height="1" fill="#0C4E90" />
<rect x="12" y="18" width="1" height="1" fill="#0C5399" />
<rect x="20" y="18" width="1" height="1" fill="#32C681" />
<rect x="21" y="18" width="1" height="1" fill="#32C67E" />
<rect x="22" y="18" width="1" height="1" fill="#33C67A" />
<rect x="23" y="18" width="1" height="1" fill="#33C677" />
<rect x="24" y="18" width="1" height="1" fill="#34C772" />
<rect x="25" y="18" width="1" height="1" fill="#38CA70" />
<rect x="26" y="18" width="1" height="1" fill="#3CCC6C" />
<rect x="27" y="18" width="1" height="1" fill="#3ECE69" />
<rect x="28" y="18" width="1" height="1" fill="#41CF67" />
<rect x="29" y="18" width="1" height="1" fill="#43D164" />
<rect x="30" y="18" width="1" height="1" fill="#44D261" />
<rect x="1" y="19" width="1" height="1" fill="#037DD6" />
<rect x="2" y="19" width="1" height="1" fill="#047DD6" />
<rect x="3" y="19" width="1" height="1" fill="#057ED6" />
<rect x="4" y="19" width="1" height="1" fill="#057FD7" />
<rect x="5" y="19" width="1" height="1" fill="#0680D7" />
<rect x="6" y="19" width="1" height="1" fill="#0781D8" />
<rect x="7" y="19" width="1" height="1" fill="#0883D8" />
<rect x="8" y="19" width="1" height="1" fill="#0984D9" />
<rect x="9" y="19" width="1" height="1" fill="#09437B" />
<rect x="10" y="19" width="1" height="1" fill="#0B4B8B" />
<rect x="11" y="19" width="1" height="1" fill="#0C5195" />
<rect x="12" y="19" width="1" height="1" fill="#0D569E" />
<rect x="19" y="19" width="1" height="1" fill="#33C679" />
<rect x="20" y="19" width="1" height="1" fill="#33C676" />
<rect x="21" y="19" width="1" height="1" fill="#33C673" />
<rect x="22" y="19" width="1" height="1" fill="#33C670" />
<rect x="23" y="19" width="1" height="1" fill="#34C66D" />
<rect x="24" y="19" width="1" height="1" fill="#34C66A" />
<rect x="25" y="19" width="1" height="1" fill="#36C766" />
<rect x="26" y="19" width="1" height="1" fill="#39C964" />
<rect x="27" y="19" width="1" height="1" fill="#3BCB60" />
<rect x="28" y="19" width="1" height="1" fill="#3DCD5E" />
<rect x="29" y="19" width="1" height="1" fill="#3FCE5C" />
<rect x="1" y="20" width="1" height="1" fill="#037CD5" />
<rect x="2" y="20" width="1" height="1" fill="#037CD6" />
<rect x="3" y="20" width="1" height="1" fill="#047DD6" />
<rect x="4" y="20" width="1" height="1" fill="#057ED6" />
<rect x="5" y="20" width="1" height="1" fill="#057FD7" />
<rect x="6" y="20" width="1" height="1" fill="#0680D7" />
<rect x="7" y="20" width="1" height="1" fill="#0781D8" />
<rect x="8" y="20" width="1" height="1" fill="#0883D8" />
<rect x="9" y="20" width="1" height="1" fill="#0A4682" />
<rect x="10" y="20" width="1" height="1" fill="#0B4D8E" />
<rect x="11" y="20" width="1" height="1" fill="#0C5398" />
<rect x="12" y="20" width="1" height="6" fill="#0D569F" />
<rect x="13" y="20" width="1" height="8" fill="#0D559E" />
<rect x="19" y="20" width="1" height="1" fill="#34C66E" />
<rect x="20" y="20" width="1" height="1" fill="#34C66B" />
<rect x="21" y="20" width="1" height="1" fill="#34C668" />
<rect x="22" y="20" width="1" height="1" fill="#34C666" />
<rect x="23" y="20" width="1" height="1" fill="#35C663" />
<rect x="24" y="20" width="1" height="1" fill="#35C75F" />
<rect x="25" y="20" width="1" height="1" fill="#35C75C" />
<rect x="26" y="20" width="1" height="1" fill="#36C759" />
<rect x="27" y="20" width="1" height="1" fill="#38C957" />
<rect x="28" y="20" width="1" height="1" fill="#3ACA55" />
<rect x="1" y="21" width="1" height="1" fill="#027BD5" />
<rect x="2" y="21" width="1" height="1" fill="#037CD5" />
<rect x="3" y="21" width="1" height="1" fill="#037CD6" />
<rect x="4" y="21" width="1" height="1" fill="#047DD6" />
<rect x="5" y="21" width="1" height="1" fill="#057ED6" />
<rect x="6" y="21" width="1" height="1" fill="#057FD7" />
<rect x="7" y="21" width="1" height="1" fill="#0680D7" />
<rect x="8" y="21" width="1" height="1" fill="#0781D7" />
<rect x="9" y="21" width="1" height="1" fill="#0A4986" />
<rect x="10" y="21" width="1" height="1" fill="#0C4E91" />
<rect x="11" y="21" width="1" height="3" fill="#0D559C" />
<rect x="22" y="21" width="1" height="1" fill="#35C75B" />
<rect x="23" y="21" width="1" height="1" fill="#35C758" />
<rect x="24" y="21" width="1" height="1" fill="#36C755" />
<rect x="25" y="21" width="2" height="1" fill="#36C752" />
<rect x="2" y="22" width="1" height="1" fill="#027BD5" />
<rect x="3" y="22" width="1" height="1" fill="#037BD5" />
<rect x="4" y="22" width="1" height="1" fill="#037CD6" />
<rect x="5" y="22" width="1" height="1" fill="#047DD6" />
<rect x="6" y="22" width="1" height="1" fill="#057ED6" />
<rect x="7" y="22" width="1" height="1" fill="#057FD7" />
<rect x="8" y="22" width="1" height="1" fill="#0680D7" />
<rect x="9" y="22" width="1" height="2" fill="#0A4987" />
<rect x="10" y="22" width="1" height="1" fill="#0C4F92" />
<rect x="14" y="22" width="1" height="7" fill="#0D559D" />
<rect x="2" y="23" width="1" height="1" fill="#017AD5" />
<rect x="3" y="23" width="1" height="1" fill="#027AD5" />
<rect x="4" y="23" width="1" height="1" fill="#037BD5" />
<rect x="5" y="23" width="1" height="1" fill="#037CD6" />
<rect x="6" y="23" width="1" height="1" fill="#047DD6" />
<rect x="7" y="23" width="1" height="1" fill="#057ED6" />
<rect x="8" y="23" width="1" height="1" fill="#057FD7" />
<rect x="10" y="23" width="1" height="1" fill="#0C4E91" />
<rect x="15" y="23" width="1" height="6" fill="#0E549B" />
<rect x="16" y="23" width="1" height="1" fill="#0055AA" opacity="0.023529" />
<rect x="3" y="24" width="1" height="1" fill="#017AD5" />
<rect x="4" y="24" width="1" height="1" fill="#027AD5" />
<rect x="5" y="24" width="1" height="1" fill="#027BD5" />
<rect x="6" y="24" width="1" height="1" fill="#037CD6" />
<rect x="7" y="24" width="1" height="1" fill="#047DD6" />
<rect x="8" y="24" width="1" height="1" fill="#047ED6" />
<rect x="9" y="24" width="1" height="1" fill="#0A4884" />
<rect x="10" y="24" width="1" height="1" fill="#0C4E90" />
<rect x="11" y="24" width="1" height="1" fill="#0D549A" />
<rect x="16" y="24" width="1" height="6" fill="#0E539A" />
<rect x="17" y="24" width="1" height="6" fill="#0E5299" />
<rect x="29" y="24" width="1" height="1" fill="#104480" />
<rect x="3" y="25" width="1" height="1" fill="#0079D4" />
<rect x="4" y="25" width="1" height="1" fill="#0179D5" />
<rect x="5" y="25" width="1" height="1" fill="#027AD5" />
<rect x="6" y="25" width="1" height="1" fill="#027BD5" />
<rect x="7" y="25" width="1" height="1" fill="#037CD6" />
<rect x="8" y="25" width="1" height="1" fill="#047DD6" />
<rect x="9" y="25" width="1" height="1" fill="#047ED6" />
<rect x="10" y="25" width="1" height="1" fill="#0B4C8D" />
<rect x="11" y="25" width="1" height="1" fill="#0C5297" />
<rect x="18" y="25" width="1" height="6" fill="#0E5298" />
<rect x="19" y="25" width="1" height="6" fill="#0F5197" />
<rect x="20" y="25" width="1" height="6" fill="#0F5096" />
<rect x="26" y="25" width="1" height="3" fill="#104C8F" />
<rect x="27" y="25" width="1" height="2" fill="#104C8E" />
<rect x="28" y="25" width="1" height="1" fill="#104888" />
<rect x="29" y="25" width="1" height="1" fill="#0F427D" />
<rect x="4" y="26" width="1" height="1" fill="#0079D4" />
<rect x="5" y="26" width="1" height="1" fill="#0179D5" />
<rect x="6" y="26" width="1" height="1" fill="#027AD5" />
<rect x="7" y="26" width="1" height="1" fill="#027BD5" />
<rect x="8" y="26" width="1" height="1" fill="#037CD6" />
<rect x="9" y="26" width="1" height="1" fill="#047DD6" />
<rect x="10" y="26" width="1" height="1" fill="#0B4A89" />
<rect x="11" y="26" width="1" height="1" fill="#0C5093" />
<rect x="12" y="26" width="1" height="1" fill="#0D549C" />
<rect x="21" y="26" width="1" height="5" fill="#0F5095" />
<rect x="22" y="26" width="1" height="4" fill="#0F4F94" />
<rect x="23" y="26" width="1" height="4" fill="#104E92" />
<rect x="24" y="26" width="1" height="4" fill="#104E91" />
<rect x="25" y="26" width="1" height="3" fill="#104D90" />
<rect x="28" y="26" width="1" height="1" fill="#104684" />
<rect x="5" y="27" width="1" height="1" fill="#0078D4" />
<rect x="6" y="27" width="1" height="1" fill="#0179D4" />
<rect x="7" y="27" width="1" height="1" fill="#027AD5" />
<rect x="8" y="27" width="1" height="1" fill="#027BD5" />
<rect x="9" y="27" width="1" height="1" fill="#037CD5" />
<rect x="10" y="27" width="1" height="1" fill="#047DD6" />
<rect x="11" y="27" width="1" height="1" fill="#0B4D8D" />
<rect x="12" y="27" width="1" height="1" fill="#0C5196" />
<rect x="27" y="27" width="1" height="1" fill="#0F4988" />
<rect x="6" y="28" width="1" height="1" fill="#0078D4" />
<rect x="7" y="28" width="1" height="1" fill="#0179D4" />
<rect x="8" y="28" width="1" height="1" fill="#027AD5" />
<rect x="9" y="28" width="1" height="1" fill="#027BD5" />
<rect x="10" y="28" width="1" height="1" fill="#037CD5" />
<rect x="11" y="28" width="1" height="1" fill="#0B4986" />
<rect x="12" y="28" width="1" height="1" fill="#0C4D8F" />
<rect x="13" y="28" width="1" height="1" fill="#0C5197" />
<rect x="26" y="28" width="1" height="1" fill="#0F4A8B" />
<rect x="7" y="29" width="1" height="1" fill="#0078D4" />
<rect x="8" y="29" width="1" height="1" fill="#0179D4" />
<rect x="9" y="29" width="1" height="1" fill="#027AD5" />
<rect x="10" y="29" width="1" height="1" fill="#027BD5" />
<rect x="11" y="29" width="1" height="1" fill="#037CD5" />
<rect x="12" y="29" width="1" height="1" fill="#0B4987" />
<rect x="13" y="29" width="1" height="1" fill="#0C4D8F" />
<rect x="14" y="29" width="1" height="1" fill="#0C5195" />
<rect x="15" y="29" width="1" height="1" fill="#0E539A" />
<rect x="25" y="29" width="1" height="1" fill="#0F4A8A" />
<rect x="9" y="30" width="1" height="1" fill="#0179D4" />
<rect x="10" y="30" width="1" height="1" fill="#017AD5" />
<rect x="11" y="30" width="1" height="1" fill="#027BD5" />
<rect x="12" y="30" width="1" height="1" fill="#037CD5" />
<rect x="13" y="30" width="1" height="1" fill="#0B4987" />
<rect x="14" y="30" width="1" height="1" fill="#0C4B8B" />
<rect x="15" y="30" width="1" height="1" fill="#0D4E8F" />
<rect x="16" y="30" width="1" height="1" fill="#0D5094" />
<rect x="17" y="30" width="1" height="1" fill="#0E5197" />
<rect x="22" y="30" width="1" height="1" fill="#0F4E93" />
<rect x="23" y="30" width="1" height="1" fill="#0F4C8D" />
<rect x="11" y="31" width="1" height="1" fill="#017AD5" />
<rect x="12" y="31" width="1" height="1" fill="#027BD5" />
<rect x="13" y="31" width="1" height="1" fill="#037CD5" />
<rect x="14" y="31" width="1" height="1" fill="#037CD6" />
<rect x="15" y="31" width="1" height="1" fill="#0C4886" />
<rect x="16" y="31" width="1" height="1" fill="#0C4A88" />
<rect x="17" y="31" width="1" height="1" fill="#0D4B8B" />
<rect x="18" y="31" width="1" height="1" fill="#0D4C8D" />
<rect x="19" y="31" width="1" height="1" fill="#0E4C8E" />
<rect x="20" y="31" width="1" height="1" fill="#0E4B8D" />
<rect x="21" y="31" width="1" height="1" fill="#0E4B8B" />
</svg>
