<?xml version="1.0" encoding="UTF-8" ?>
<svg version="1.1" width="256" height="248" xmlns="http://www.w3.org/2000/svg">
<rect x="120" y="0" width="16" height="8" fill="#800080" />
<rect x="136" y="0" width="8" height="8" fill="#000000" />
<rect x="112" y="8" width="8" height="8" fill="#800080" />
<rect x="120" y="8" width="8" height="8" fill="#808080" />
<rect x="128" y="8" width="16" height="40" fill="#800080" />
<rect x="144" y="8" width="16" height="8" fill="#000000" />
<rect x="104" y="16" width="8" height="8" fill="#800080" />
<rect x="112" y="16" width="8" height="8" fill="#808080" />
<rect x="120" y="16" width="8" height="40" fill="#800080" />
<rect x="144" y="16" width="16" height="32" fill="#800080" />
<rect x="160" y="16" width="16" height="8" fill="#000000" />
<rect x="96" y="24" width="8" height="8" fill="#800080" />
<rect x="104" y="24" width="8" height="8" fill="#808080" />
<rect x="112" y="24" width="8" height="40" fill="#800080" />
<rect x="160" y="24" width="16" height="24" fill="#800080" />
<rect x="176" y="24" width="16" height="8" fill="#000000" />
<rect x="88" y="32" width="8" height="8" fill="#800080" />
<rect x="96" y="32" width="8" height="8" fill="#808080" />
<rect x="104" y="32" width="8" height="40" fill="#800080" />
<rect x="176" y="32" width="16" height="32" fill="#800080" />
<rect x="192" y="32" width="16" height="8" fill="#000000" />
<rect x="80" y="40" width="8" height="8" fill="#800080" />
<rect x="88" y="40" width="8" height="8" fill="#808080" />
<rect x="96" y="40" width="8" height="80" fill="#800080" />
<rect x="192" y="40" width="16" height="72" fill="#800080" />
<rect x="208" y="40" width="16" height="8" fill="#000000" />
<rect x="72" y="48" width="8" height="8" fill="#800080" />
<rect x="80" y="48" width="8" height="8" fill="#808080" />
<rect x="88" y="48" width="8" height="104" fill="#800080" />
<rect x="128" y="48" width="8" height="8" fill="#808000" />
<rect x="136" y="48" width="24" height="16" fill="#FFFF00" />
<rect x="160" y="48" width="8" height="8" fill="#808000" />
<rect x="168" y="48" width="8" height="8" fill="#800080" />
<rect x="208" y="48" width="16" height="48" fill="#800080" />
<rect x="224" y="48" width="16" height="8" fill="#000000" />
<rect x="64" y="56" width="8" height="8" fill="#800080" />
<rect x="72" y="56" width="8" height="8" fill="#808080" />
<rect x="80" y="56" width="8" height="96" fill="#800080" />
<rect x="120" y="56" width="16" height="16" fill="#FFFF00" />
<rect x="160" y="56" width="16" height="40" fill="#FFFF00" />
<rect x="224" y="56" width="16" height="24" fill="#800080" />
<rect x="240" y="56" width="16" height="8" fill="#000000" />
<rect x="56" y="64" width="8" height="8" fill="#800080" />
<rect x="64" y="64" width="8" height="8" fill="#808080" />
<rect x="72" y="64" width="8" height="80" fill="#800080" />
<rect x="112" y="64" width="8" height="16" fill="#FFFF00" />
<rect x="136" y="64" width="24" height="8" fill="#808000" />
<rect x="176" y="64" width="8" height="24" fill="#FFFF00" />
<rect x="184" y="64" width="8" height="72" fill="#800080" />
<rect x="240" y="64" width="8" height="8" fill="#800080" />
<rect x="248" y="64" width="8" height="8" fill="#000000" />
<rect x="48" y="72" width="8" height="8" fill="#800080" />
<rect x="56" y="72" width="8" height="8" fill="#808080" />
<rect x="64" y="72" width="8" height="72" fill="#800080" />
<rect x="104" y="72" width="8" height="8" fill="#808000" />
<rect x="120" y="72" width="8" height="8" fill="#FFFF00" />
<rect x="128" y="72" width="32" height="8" fill="#800080" />
<rect x="240" y="72" width="8" height="64" fill="#000000" />
<rect x="40" y="80" width="8" height="8" fill="#800080" />
<rect x="48" y="80" width="8" height="8" fill="#808080" />
<rect x="56" y="80" width="8" height="56" fill="#800080" />
<rect x="104" y="80" width="16" height="16" fill="#800080" />
<rect x="120" y="80" width="8" height="8" fill="#808000" />
<rect x="128" y="80" width="24" height="8" fill="#800080" />
<rect x="152" y="80" width="8" height="8" fill="#808000" />
<rect x="224" y="80" width="8" height="8" fill="#800080" />
<rect x="232" y="80" width="8" height="8" fill="#000000" />
<rect x="32" y="88" width="8" height="8" fill="#800080" />
<rect x="40" y="88" width="8" height="8" fill="#808080" />
<rect x="48" y="88" width="8" height="48" fill="#800080" />
<rect x="120" y="88" width="8" height="8" fill="#800080" />
<rect x="128" y="88" width="8" height="8" fill="#808000" />
<rect x="136" y="88" width="24" height="16" fill="#FFFF00" />
<rect x="176" y="88" width="8" height="48" fill="#800080" />
<rect x="224" y="88" width="8" height="8" fill="#000000" />
<rect x="232" y="88" width="8" height="8" fill="#808080" />
<rect x="24" y="96" width="8" height="8" fill="#800080" />
<rect x="32" y="96" width="8" height="8" fill="#808080" />
<rect x="40" y="96" width="8" height="32" fill="#800080" />
<rect x="104" y="96" width="8" height="8" fill="#800080" />
<rect x="112" y="96" width="8" height="8" fill="#808000" />
<rect x="120" y="96" width="16" height="16" fill="#FFFF00" />
<rect x="160" y="96" width="8" height="8" fill="#808000" />
<rect x="168" y="96" width="8" height="48" fill="#800080" />
<rect x="208" y="96" width="8" height="8" fill="#800080" />
<rect x="216" y="96" width="8" height="8" fill="#000000" />
<rect x="224" y="96" width="8" height="8" fill="#808080" />
<rect x="232" y="96" width="8" height="40" fill="#C0C0C0" />
<rect x="16" y="104" width="8" height="8" fill="#800080" />
<rect x="24" y="104" width="8" height="8" fill="#808080" />
<rect x="32" y="104" width="8" height="24" fill="#800080" />
<rect x="104" y="104" width="8" height="8" fill="#808000" />
<rect x="112" y="104" width="8" height="8" fill="#FFFF00" />
<rect x="136" y="104" width="16" height="8" fill="#808000" />
<rect x="152" y="104" width="16" height="48" fill="#800080" />
<rect x="208" y="104" width="8" height="8" fill="#000000" />
<rect x="216" y="104" width="8" height="8" fill="#808080" />
<rect x="224" y="104" width="8" height="40" fill="#C0C0C0" />
<rect x="8" y="112" width="8" height="8" fill="#800080" />
<rect x="16" y="112" width="8" height="8" fill="#808080" />
<rect x="24" y="112" width="8" height="8" fill="#800080" />
<rect x="104" y="112" width="16" height="8" fill="#800080" />
<rect x="120" y="112" width="16" height="8" fill="#808000" />
<rect x="136" y="112" width="16" height="56" fill="#800080" />
<rect x="192" y="112" width="8" height="8" fill="#800080" />
<rect x="200" y="112" width="8" height="8" fill="#000000" />
<rect x="208" y="112" width="8" height="8" fill="#808080" />
<rect x="216" y="112" width="8" height="40" fill="#C0C0C0" />
<rect x="0" y="120" width="8" height="56" fill="#800080" />
<rect x="8" y="120" width="24" height="8" fill="#000000" />
<rect x="96" y="120" width="8" height="8" fill="#808000" />
<rect x="104" y="120" width="8" height="24" fill="#FFFF00" />
<rect x="112" y="120" width="8" height="8" fill="#808000" />
<rect x="120" y="120" width="16" height="48" fill="#800080" />
<rect x="192" y="120" width="8" height="8" fill="#000000" />
<rect x="200" y="120" width="8" height="8" fill="#808080" />
<rect x="208" y="120" width="8" height="40" fill="#C0C0C0" />
<rect x="8" y="128" width="8" height="40" fill="#000000" />
<rect x="16" y="128" width="16" height="8" fill="#808080" />
<rect x="32" y="128" width="16" height="8" fill="#000000" />
<rect x="96" y="128" width="8" height="8" fill="#FFFF00" />
<rect x="112" y="128" width="8" height="8" fill="#FFFF00" />
<rect x="192" y="128" width="8" height="8" fill="#808080" />
<rect x="200" y="128" width="8" height="40" fill="#C0C0C0" />
<rect x="248" y="128" width="8" height="16" fill="#000000" />
<rect x="16" y="136" width="16" height="8" fill="#C0C0C0" />
<rect x="32" y="136" width="16" height="8" fill="#808080" />
<rect x="48" y="136" width="16" height="8" fill="#000000" />
<rect x="96" y="136" width="8" height="8" fill="#808000" />
<rect x="112" y="136" width="8" height="8" fill="#808000" />
<rect x="176" y="136" width="8" height="8" fill="#000000" />
<rect x="184" y="136" width="8" height="8" fill="#808080" />
<rect x="192" y="136" width="8" height="40" fill="#C0C0C0" />
<rect x="232" y="136" width="8" height="8" fill="#000000" />
<rect x="240" y="136" width="8" height="8" fill="#800080" />
<rect x="16" y="144" width="8" height="24" fill="#C0C0C0" />
<rect x="24" y="144" width="16" height="24" fill="#FFFFFF" />
<rect x="40" y="144" width="8" height="8" fill="#C0C0C0" />
<rect x="48" y="144" width="16" height="8" fill="#808080" />
<rect x="64" y="144" width="16" height="8" fill="#000000" />
<rect x="96" y="144" width="24" height="16" fill="#800080" />
<rect x="168" y="144" width="8" height="8" fill="#000000" />
<rect x="176" y="144" width="8" height="8" fill="#808080" />
<rect x="184" y="144" width="8" height="40" fill="#C0C0C0" />
<rect x="224" y="144" width="8" height="8" fill="#000000" />
<rect x="232" y="144" width="8" height="8" fill="#800080" />
<rect x="240" y="144" width="8" height="8" fill="#000000" />
<rect x="40" y="152" width="16" height="24" fill="#FFFFFF" />
<rect x="56" y="152" width="8" height="8" fill="#C0C0C0" />
<rect x="64" y="152" width="16" height="8" fill="#808080" />
<rect x="80" y="152" width="16" height="8" fill="#000000" />
<rect x="152" y="152" width="8" height="8" fill="#800080" />
<rect x="160" y="152" width="8" height="8" fill="#000000" />
<rect x="168" y="152" width="8" height="8" fill="#808080" />
<rect x="176" y="152" width="8" height="40" fill="#C0C0C0" />
<rect x="216" y="152" width="8" height="8" fill="#000000" />
<rect x="224" y="152" width="8" height="8" fill="#800080" />
<rect x="232" y="152" width="8" height="8" fill="#000000" />
<rect x="56" y="160" width="16" height="24" fill="#FFFFFF" />
<rect x="72" y="160" width="8" height="8" fill="#C0C0C0" />
<rect x="80" y="160" width="16" height="8" fill="#808080" />
<rect x="96" y="160" width="16" height="8" fill="#000000" />
<rect x="112" y="160" width="8" height="8" fill="#800080" />
<rect x="152" y="160" width="8" height="8" fill="#000000" />
<rect x="160" y="160" width="8" height="8" fill="#808080" />
<rect x="168" y="160" width="8" height="40" fill="#C0C0C0" />
<rect x="208" y="160" width="8" height="8" fill="#000000" />
<rect x="216" y="160" width="8" height="8" fill="#800080" />
<rect x="224" y="160" width="8" height="8" fill="#000000" />
<rect x="8" y="168" width="16" height="8" fill="#800080" />
<rect x="24" y="168" width="16" height="8" fill="#808080" />
<rect x="72" y="168" width="16" height="24" fill="#FFFFFF" />
<rect x="88" y="168" width="8" height="8" fill="#C0C0C0" />
<rect x="96" y="168" width="16" height="8" fill="#808080" />
<rect x="112" y="168" width="16" height="8" fill="#000000" />
<rect x="128" y="168" width="16" height="8" fill="#800080" />
<rect x="144" y="168" width="8" height="8" fill="#000000" />
<rect x="152" y="168" width="8" height="8" fill="#808080" />
<rect x="160" y="168" width="8" height="40" fill="#C0C0C0" />
<rect x="200" y="168" width="8" height="8" fill="#000000" />
<rect x="208" y="168" width="8" height="8" fill="#800080" />
<rect x="216" y="168" width="8" height="8" fill="#000000" />
<rect x="8" y="176" width="16" height="8" fill="#000000" />
<rect x="24" y="176" width="16" height="8" fill="#800080" />
<rect x="40" y="176" width="16" height="8" fill="#808080" />
<rect x="88" y="176" width="16" height="24" fill="#FFFFFF" />
<rect x="104" y="176" width="8" height="8" fill="#C0C0C0" />
<rect x="112" y="176" width="16" height="8" fill="#808080" />
<rect x="128" y="176" width="16" height="8" fill="#000000" />
<rect x="144" y="176" width="8" height="8" fill="#808080" />
<rect x="152" y="176" width="8" height="40" fill="#C0C0C0" />
<rect x="192" y="176" width="8" height="8" fill="#000000" />
<rect x="200" y="176" width="8" height="8" fill="#800080" />
<rect x="208" y="176" width="8" height="8" fill="#000000" />
<rect x="24" y="184" width="16" height="8" fill="#000000" />
<rect x="40" y="184" width="16" height="8" fill="#800080" />
<rect x="56" y="184" width="16" height="8" fill="#808080" />
<rect x="104" y="184" width="16" height="24" fill="#FFFFFF" />
<rect x="120" y="184" width="8" height="8" fill="#C0C0C0" />
<rect x="128" y="184" width="16" height="8" fill="#808080" />
<rect x="144" y="184" width="8" height="40" fill="#C0C0C0" />
<rect x="184" y="184" width="8" height="8" fill="#000000" />
<rect x="192" y="184" width="8" height="8" fill="#800080" />
<rect x="200" y="184" width="8" height="8" fill="#000000" />
<rect x="40" y="192" width="16" height="8" fill="#000000" />
<rect x="56" y="192" width="16" height="8" fill="#800080" />
<rect x="72" y="192" width="16" height="8" fill="#808080" />
<rect x="120" y="192" width="24" height="24" fill="#FFFFFF" />
<rect x="176" y="192" width="8" height="8" fill="#000000" />
<rect x="184" y="192" width="8" height="8" fill="#800080" />
<rect x="192" y="192" width="8" height="8" fill="#000000" />
<rect x="56" y="200" width="16" height="8" fill="#000000" />
<rect x="72" y="200" width="16" height="8" fill="#800080" />
<rect x="88" y="200" width="16" height="8" fill="#808080" />
<rect x="168" y="200" width="8" height="8" fill="#000000" />
<rect x="176" y="200" width="8" height="8" fill="#800080" />
<rect x="184" y="200" width="8" height="8" fill="#000000" />
<rect x="72" y="208" width="16" height="8" fill="#000000" />
<rect x="88" y="208" width="16" height="8" fill="#800080" />
<rect x="104" y="208" width="16" height="8" fill="#808080" />
<rect x="160" y="208" width="8" height="8" fill="#000000" />
<rect x="168" y="208" width="8" height="8" fill="#800080" />
<rect x="176" y="208" width="8" height="8" fill="#000000" />
<rect x="88" y="216" width="16" height="8" fill="#000000" />
<rect x="104" y="216" width="16" height="8" fill="#800080" />
<rect x="120" y="216" width="16" height="8" fill="#808080" />
<rect x="136" y="216" width="8" height="8" fill="#FFFFFF" />
<rect x="152" y="216" width="8" height="8" fill="#000000" />
<rect x="160" y="216" width="8" height="8" fill="#800080" />
<rect x="168" y="216" width="8" height="8" fill="#000000" />
<rect x="104" y="224" width="16" height="8" fill="#000000" />
<rect x="120" y="224" width="16" height="8" fill="#800080" />
<rect x="136" y="224" width="8" height="8" fill="#808080" />
<rect x="144" y="224" width="8" height="8" fill="#000000" />
<rect x="152" y="224" width="8" height="8" fill="#800080" />
<rect x="160" y="224" width="8" height="8" fill="#000000" />
<rect x="120" y="232" width="16" height="8" fill="#000000" />
<rect x="136" y="232" width="16" height="8" fill="#800080" />
<rect x="152" y="232" width="8" height="8" fill="#000000" />
<rect x="136" y="240" width="16" height="8" fill="#000000" />
</svg>
