<?xml version="1.0" encoding="UTF-8" ?>
<svg version="1.1" width="29" height="31" xmlns="http://www.w3.org/2000/svg">
<rect x="5" y="0" width="1" height="31" fill="#777777" />
<rect x="6" y="0" width="17" height="1" fill="#868686" />
<rect x="6" y="1" width="17" height="29" fill="#FFFFFF" />
<rect x="22" y="1" width="1" height="5" fill="#999999" />
<rect x="23" y="1" width="1" height="1" fill="#555555" />
<rect x="23" y="2" width="1" height="1" fill="#999999" />
<rect x="24" y="2" width="1" height="1" fill="#555555" />
<rect x="23" y="3" width="1" height="1" fill="#CCCCCC" />
<rect x="24" y="3" width="1" height="1" fill="#999999" />
<rect x="25" y="3" width="1" height="1" fill="#555555" />
<rect x="23" y="4" width="1" height="1" fill="#E7E7D6" />
<rect x="24" y="4" width="1" height="1" fill="#CCCCCC" />
<rect x="25" y="4" width="1" height="1" fill="#999999" />
<rect x="26" y="4" width="1" height="1" fill="#555555" />
<rect x="23" y="5" width="1" height="1" fill="#FFFFFF" />
<rect x="24" y="5" width="1" height="1" fill="#E7E7D6" />
<rect x="25" y="5" width="1" height="1" fill="#CCCCCC" />
<rect x="26" y="5" width="1" height="1" fill="#999999" />
<rect x="27" y="5" width="1" height="1" fill="#555555" />
<rect x="22" y="6" width="1" height="1" fill="#555555" />
<rect x="23" y="6" width="6" height="1" fill="#333333" />
<rect x="13" y="7" width="4" height="1" fill="#0066CC" />
<rect x="21" y="7" width="6" height="23" fill="#FFFFFF" />
<rect x="23" y="7" width="1" height="1" fill="#CCCCCC" />
<rect x="24" y="7" width="1" height="1" fill="#C0C0C0" />
<rect x="25" y="7" width="2" height="1" fill="#999999" />
<rect x="27" y="7" width="1" height="1" fill="#777777" />
<rect x="28" y="7" width="1" height="24" fill="#555555" />
<rect x="11" y="8" width="3" height="2" fill="#0066CC" />
<rect x="17" y="8" width="1" height="1" fill="#0066CC" />
<rect x="24" y="8" width="1" height="1" fill="#CCCCCC" />
<rect x="25" y="8" width="1" height="1" fill="#C0C0C0" />
<rect x="26" y="8" width="2" height="1" fill="#999999" />
<rect x="7" y="9" width="4" height="1" fill="#0066CC" />
<rect x="14" y="9" width="1" height="1" fill="#0066CC" />
<rect x="18" y="9" width="1" height="1" fill="#0066CC" />
<rect x="25" y="9" width="1" height="1" fill="#CCCCCC" />
<rect x="26" y="9" width="1" height="1" fill="#C0C0C0" />
<rect x="27" y="9" width="1" height="1" fill="#999999" />
<rect x="5" y="10" width="1" height="1" fill="#3333CC" />
<rect x="6" y="10" width="1" height="2" fill="#0066CC" />
<rect x="7" y="10" width="6" height="1" fill="#3366FF" />
<rect x="13" y="10" width="1" height="1" fill="#3399CC" />
<rect x="14" y="10" width="1" height="1" fill="#0099FF" />
<rect x="15" y="10" width="1" height="1" fill="#0066CC" />
<rect x="18" y="10" width="1" height="1" fill="#3366FF" />
<rect x="26" y="10" width="1" height="1" fill="#CCCCCC" />
<rect x="27" y="10" width="1" height="1" fill="#C0C0C0" />
<rect x="4" y="11" width="1" height="1" fill="#3333CC" />
<rect x="5" y="11" width="1" height="1" fill="#0066CC" />
<rect x="7" y="11" width="1" height="1" fill="#99CCCC" />
<rect x="8" y="11" width="4" height="1" fill="#3366FF" />
<rect x="12" y="11" width="1" height="1" fill="#3399CC" />
<rect x="13" y="11" width="1" height="1" fill="#0099FF" />
<rect x="14" y="11" width="1" height="1" fill="#3399CC" />
<rect x="15" y="11" width="1" height="1" fill="#0099FF" />
<rect x="16" y="11" width="1" height="1" fill="#0066CC" />
<rect x="27" y="11" width="1" height="19" fill="#CCCCCC" />
<rect x="3" y="12" width="1" height="1" fill="#3333CC" />
<rect x="4" y="12" width="1" height="1" fill="#0066CC" />
<rect x="5" y="12" width="1" height="1" fill="#6699CC" />
<rect x="6" y="12" width="1" height="1" fill="#B2B2B2" />
<rect x="7" y="12" width="2" height="2" fill="#0066CC" />
<rect x="9" y="12" width="3" height="1" fill="#3333CC" />
<rect x="12" y="12" width="1" height="1" fill="#0066CC" />
<rect x="13" y="12" width="1" height="1" fill="#3399CC" />
<rect x="14" y="12" width="1" height="1" fill="#00CCFF" />
<rect x="15" y="12" width="1" height="1" fill="#66FFFF" />
<rect x="16" y="12" width="1" height="1" fill="#0099FF" />
<rect x="17" y="12" width="1" height="2" fill="#0066CC" />
<rect x="2" y="13" width="1" height="1" fill="#3333CC" />
<rect x="3" y="13" width="1" height="1" fill="#333399" />
<rect x="4" y="13" width="1" height="1" fill="#669999" />
<rect x="5" y="13" width="1" height="1" fill="#FFFF99" />
<rect x="6" y="13" width="1" height="1" fill="#3366FF" />
<rect x="12" y="13" width="1" height="1" fill="#000099" />
<rect x="13" y="13" width="1" height="1" fill="#0066CC" />
<rect x="14" y="13" width="1" height="1" fill="#3399CC" />
<rect x="15" y="13" width="1" height="1" fill="#99FFFF" />
<rect x="16" y="13" width="1" height="1" fill="#66FFFF" />
<rect x="2" y="14" width="1" height="1" fill="#333399" />
<rect x="3" y="14" width="1" height="1" fill="#669999" />
<rect x="4" y="14" width="1" height="1" fill="#FFFF99" />
<rect x="5" y="14" width="1" height="3" fill="#3366FF" />
<rect x="6" y="14" width="2" height="2" fill="#0066CC" />
<rect x="13" y="14" width="1" height="1" fill="#000099" />
<rect x="14" y="14" width="1" height="2" fill="#0066CC" />
<rect x="15" y="14" width="1" height="1" fill="#66FFFF" />
<rect x="16" y="14" width="1" height="2" fill="#00CCFF" />
<rect x="17" y="14" width="1" height="3" fill="#0099FF" />
<rect x="18" y="14" width="1" height="4" fill="#0066CC" />
<rect x="1" y="15" width="1" height="1" fill="#3333CC" />
<rect x="2" y="15" width="1" height="1" fill="#999966" />
<rect x="3" y="15" width="1" height="1" fill="#FFCC99" />
<rect x="4" y="15" width="1" height="1" fill="#3366FF" />
<rect x="8" y="15" width="6" height="1" fill="#0066CC" />
<rect x="15" y="15" width="1" height="1" fill="#00CCFF" />
<rect x="1" y="16" width="1" height="1" fill="#777777" />
<rect x="2" y="16" width="1" height="1" fill="#CCCC99" />
<rect x="3" y="16" width="1" height="1" fill="#969696" />
<rect x="4" y="16" width="1" height="1" fill="#0066CC" />
<rect x="6" y="16" width="5" height="1" fill="#3366FF" />
<rect x="11" y="16" width="3" height="1" fill="#3399CC" />
<rect x="14" y="16" width="3" height="1" fill="#0099FF" />
<rect x="0" y="17" width="1" height="2" fill="#777777" />
<rect x="1" y="17" width="1" height="1" fill="#CCCC99" />
<rect x="2" y="17" width="1" height="1" fill="#CC9966" />
<rect x="3" y="17" width="1" height="1" fill="#6666CC" />
<rect x="4" y="17" width="1" height="1" fill="#336699" />
<rect x="5" y="17" width="1" height="1" fill="#0066CC" />
<rect x="6" y="17" width="1" height="3" fill="#3366FF" />
<rect x="7" y="17" width="11" height="1" fill="#0066CC" />
<rect x="1" y="18" width="1" height="1" fill="#CC9966" />
<rect x="2" y="18" width="1" height="1" fill="#808000" />
<rect x="3" y="18" width="1" height="1" fill="#3366CC" />
<rect x="4" y="18" width="1" height="1" fill="#3333CC" />
<rect x="5" y="18" width="1" height="3" fill="#336699" />
<rect x="7" y="18" width="1" height="2" fill="#0066CC" />
<rect x="1" y="19" width="1" height="1" fill="#999966" />
<rect x="2" y="19" width="1" height="1" fill="#3366FF" />
<rect x="3" y="19" width="1" height="1" fill="#3333CC" />
<rect x="4" y="19" width="1" height="1" fill="#333399" />
<rect x="13" y="19" width="1" height="1" fill="#000099" />
<rect x="14" y="19" width="1" height="4" fill="#3366FF" />
<rect x="15" y="19" width="2" height="1" fill="#0099CC" />
<rect x="17" y="19" width="1" height="1" fill="#0099FF" />
<rect x="18" y="19" width="1" height="2" fill="#006699" />
<rect x="1" y="20" width="1" height="1" fill="#808000" />
<rect x="2" y="20" width="1" height="1" fill="#3366CC" />
<rect x="3" y="20" width="1" height="1" fill="#333399" />
<rect x="4" y="20" width="1" height="1" fill="#3333CC" />
<rect x="6" y="20" width="1" height="1" fill="#0066CC" />
<rect x="7" y="20" width="1" height="2" fill="#3366FF" />
<rect x="8" y="20" width="1" height="1" fill="#0066CC" />
<rect x="12" y="20" width="1" height="1" fill="#3333CC" />
<rect x="13" y="20" width="1" height="4" fill="#3366FF" />
<rect x="15" y="20" width="1" height="3" fill="#3366FF" />
<rect x="16" y="20" width="1" height="1" fill="#0099CC" />
<rect x="17" y="20" width="1" height="1" fill="#3366FF" />
<rect x="1" y="21" width="1" height="1" fill="#3366CC" />
<rect x="2" y="21" width="1" height="1" fill="#003399" />
<rect x="3" y="21" width="1" height="1" fill="#333366" />
<rect x="4" y="21" width="1" height="1" fill="#000099" />
<rect x="5" y="21" width="1" height="1" fill="#3333CC" />
<rect x="6" y="21" width="1" height="1" fill="#336699" />
<rect x="8" y="21" width="1" height="2" fill="#3366FF" />
<rect x="9" y="21" width="3" height="1" fill="#0066CC" />
<rect x="12" y="21" width="1" height="3" fill="#3366FF" />
<rect x="16" y="21" width="1" height="1" fill="#3366FF" />
<rect x="17" y="21" width="1" height="1" fill="#006699" />
<rect x="0" y="22" width="1" height="1" fill="#777777" />
<rect x="1" y="22" width="1" height="1" fill="#3333CC" />
<rect x="2" y="22" width="1" height="1" fill="#000080" />
<rect x="4" y="22" width="1" height="1" fill="#333366" />
<rect x="5" y="22" width="1" height="1" fill="#333399" />
<rect x="6" y="22" width="1" height="1" fill="#3333CC" />
<rect x="7" y="22" width="1" height="1" fill="#336699" />
<rect x="9" y="22" width="3" height="1" fill="#3366FF" />
<rect x="16" y="22" width="1" height="1" fill="#006699" />
<rect x="1" y="23" width="1" height="2" fill="#000080" />
<rect x="2" y="23" width="1" height="2" fill="#3333CC" />
<rect x="5" y="23" width="2" height="1" fill="#040404" />
<rect x="7" y="23" width="1" height="1" fill="#3333CC" />
<rect x="8" y="23" width="1" height="1" fill="#336699" />
<rect x="9" y="23" width="1" height="1" fill="#0066CC" />
<rect x="10" y="23" width="2" height="1" fill="#3366FF" />
<rect x="14" y="23" width="2" height="1" fill="#006699" />
<rect x="6" y="24" width="1" height="1" fill="#3333CC" />
<rect x="7" y="24" width="1" height="1" fill="#040404" />
<rect x="8" y="24" width="1" height="1" fill="#000099" />
<rect x="9" y="24" width="1" height="1" fill="#3333CC" />
<rect x="10" y="24" width="4" height="1" fill="#006699" />
<rect x="2" y="25" width="1" height="1" fill="#000080" />
<rect x="3" y="25" width="3" height="1" fill="#3333CC" />
<rect x="6" y="29" width="21" height="1" fill="#CCCCCC" />
<rect x="6" y="30" width="22" height="1" fill="#555555" />
</svg>
