<?xml version="1.0" encoding="UTF-8" ?>
<svg version="1.1" width="256" height="256" xmlns="http://www.w3.org/2000/svg">
<rect x="192" y="0" width="48" height="8" fill="#0000FF" />
<rect x="176" y="8" width="24" height="8" fill="#0000FF" />
<rect x="232" y="8" width="16" height="8" fill="#0000FF" />
<rect x="152" y="16" width="32" height="8" fill="#0000FF" />
<rect x="240" y="16" width="16" height="8" fill="#0000FF" />
<rect x="104" y="24" width="72" height="24" fill="#0000FF" />
<rect x="176" y="24" width="8" height="8" fill="#000080" />
<rect x="248" y="24" width="8" height="32" fill="#0000FF" />
<rect x="80" y="32" width="24" height="24" fill="#0000FF" />
<rect x="176" y="32" width="8" height="56" fill="#0000FF" />
<rect x="184" y="32" width="16" height="8" fill="#000080" />
<rect x="64" y="40" width="16" height="24" fill="#0000FF" />
<rect x="184" y="40" width="16" height="104" fill="#0000FF" />
<rect x="200" y="40" width="16" height="8" fill="#000080" />
<rect x="56" y="48" width="8" height="8" fill="#000080" />
<rect x="104" y="48" width="8" height="8" fill="#FFFF00" />
<rect x="112" y="48" width="8" height="8" fill="#808000" />
<rect x="120" y="48" width="56" height="24" fill="#0000FF" />
<rect x="200" y="48" width="16" height="96" fill="#0000FF" />
<rect x="216" y="48" width="8" height="8" fill="#000080" />
<rect x="48" y="56" width="8" height="16" fill="#000080" />
<rect x="56" y="56" width="8" height="24" fill="#0000FF" />
<rect x="80" y="56" width="8" height="8" fill="#0000FF" />
<rect x="88" y="56" width="8" height="8" fill="#808000" />
<rect x="96" y="56" width="8" height="8" fill="#FFFF00" />
<rect x="104" y="56" width="16" height="24" fill="#0000FF" />
<rect x="216" y="56" width="8" height="88" fill="#0000FF" />
<rect x="224" y="56" width="8" height="16" fill="#000080" />
<rect x="40" y="64" width="8" height="32" fill="#000080" />
<rect x="64" y="64" width="8" height="8" fill="#0000FF" />
<rect x="72" y="64" width="8" height="8" fill="#808000" />
<rect x="80" y="64" width="8" height="8" fill="#C0C0C0" />
<rect x="88" y="64" width="8" height="8" fill="#FFFF00" />
<rect x="96" y="64" width="8" height="32" fill="#0000FF" />
<rect x="32" y="72" width="8" height="32" fill="#000080" />
<rect x="48" y="72" width="8" height="16" fill="#0000FF" />
<rect x="64" y="72" width="8" height="8" fill="#808000" />
<rect x="72" y="72" width="16" height="8" fill="#FFFF00" />
<rect x="88" y="72" width="8" height="120" fill="#0000FF" />
<rect x="120" y="72" width="8" height="8" fill="#000080" />
<rect x="128" y="72" width="24" height="8" fill="#000000" />
<rect x="152" y="72" width="16" height="8" fill="#000080" />
<rect x="168" y="72" width="8" height="8" fill="#0000FF" />
<rect x="224" y="72" width="8" height="72" fill="#0000FF" />
<rect x="232" y="72" width="8" height="32" fill="#000080" />
<rect x="56" y="80" width="8" height="8" fill="#808000" />
<rect x="64" y="80" width="8" height="8" fill="#FFFFFF" />
<rect x="72" y="80" width="8" height="8" fill="#FFFF00" />
<rect x="80" y="80" width="8" height="104" fill="#0000FF" />
<rect x="104" y="80" width="8" height="8" fill="#0000FF" />
<rect x="112" y="80" width="8" height="8" fill="#000080" />
<rect x="152" y="80" width="8" height="8" fill="#000000" />
<rect x="160" y="80" width="16" height="8" fill="#000080" />
<rect x="24" y="88" width="8" height="24" fill="#000080" />
<rect x="48" y="88" width="8" height="8" fill="#808000" />
<rect x="56" y="88" width="16" height="8" fill="#FFFF00" />
<rect x="72" y="88" width="8" height="80" fill="#0000FF" />
<rect x="104" y="88" width="8" height="8" fill="#000080" />
<rect x="160" y="88" width="8" height="8" fill="#000000" />
<rect x="168" y="88" width="16" height="8" fill="#000080" />
<rect x="40" y="96" width="8" height="8" fill="#808000" />
<rect x="48" y="96" width="8" height="8" fill="#FFFFFF" />
<rect x="56" y="96" width="8" height="8" fill="#FFFF00" />
<rect x="64" y="96" width="8" height="40" fill="#0000FF" />
<rect x="96" y="96" width="8" height="24" fill="#000080" />
<rect x="168" y="96" width="8" height="16" fill="#000000" />
<rect x="176" y="96" width="8" height="24" fill="#000080" />
<rect x="16" y="104" width="8" height="16" fill="#000080" />
<rect x="32" y="104" width="8" height="8" fill="#808000" />
<rect x="40" y="104" width="16" height="8" fill="#FFFF00" />
<rect x="56" y="104" width="8" height="40" fill="#0000FF" />
<rect x="232" y="104" width="8" height="40" fill="#0000FF" />
<rect x="240" y="104" width="8" height="40" fill="#000080" />
<rect x="24" y="112" width="8" height="8" fill="#808000" />
<rect x="32" y="112" width="8" height="8" fill="#FFFF00" />
<rect x="40" y="112" width="8" height="8" fill="#FFFFFF" />
<rect x="48" y="112" width="8" height="8" fill="#808080" />
<rect x="104" y="112" width="72" height="8" fill="#000080" />
<rect x="16" y="120" width="8" height="16" fill="#808000" />
<rect x="24" y="120" width="8" height="8" fill="#FFFF00" />
<rect x="32" y="120" width="8" height="8" fill="#808000" />
<rect x="40" y="120" width="8" height="8" fill="#C0C0C0" />
<rect x="48" y="120" width="8" height="40" fill="#0000FF" />
<rect x="96" y="120" width="88" height="24" fill="#0000FF" />
<rect x="24" y="128" width="8" height="8" fill="#808000" />
<rect x="32" y="128" width="8" height="8" fill="#FFFF00" />
<rect x="40" y="128" width="8" height="48" fill="#0000FF" />
<rect x="8" y="136" width="8" height="24" fill="#808000" />
<rect x="16" y="136" width="16" height="8" fill="#C0C0C0" />
<rect x="32" y="136" width="8" height="8" fill="#808000" />
<rect x="64" y="136" width="8" height="8" fill="#000080" />
<rect x="16" y="144" width="8" height="16" fill="#C0C0C0" />
<rect x="24" y="144" width="8" height="16" fill="#808000" />
<rect x="32" y="144" width="8" height="48" fill="#0000FF" />
<rect x="56" y="144" width="8" height="64" fill="#000080" />
<rect x="64" y="144" width="8" height="8" fill="#0000FF" />
<rect x="96" y="144" width="152" height="8" fill="#000000" />
<rect x="0" y="152" width="8" height="64" fill="#808000" />
<rect x="64" y="152" width="8" height="8" fill="#000080" />
<rect x="96" y="152" width="8" height="16" fill="#000080" />
<rect x="8" y="160" width="8" height="8" fill="#C0C0C0" />
<rect x="16" y="160" width="8" height="24" fill="#808000" />
<rect x="24" y="160" width="8" height="48" fill="#0000FF" />
<rect x="48" y="160" width="8" height="40" fill="#000080" />
<rect x="64" y="160" width="8" height="16" fill="#0000FF" />
<rect x="176" y="160" width="8" height="8" fill="#000000" />
<rect x="184" y="160" width="64" height="8" fill="#000080" />
<rect x="8" y="168" width="8" height="8" fill="#808000" />
<rect x="72" y="168" width="8" height="8" fill="#000080" />
<rect x="96" y="168" width="8" height="32" fill="#0000FF" />
<rect x="104" y="168" width="8" height="8" fill="#000080" />
<rect x="168" y="168" width="8" height="8" fill="#000000" />
<rect x="176" y="168" width="16" height="8" fill="#000080" />
<rect x="192" y="168" width="48" height="8" fill="#0000FF" />
<rect x="240" y="168" width="8" height="8" fill="#000080" />
<rect x="8" y="176" width="8" height="8" fill="#C0C0C0" />
<rect x="40" y="176" width="8" height="16" fill="#000080" />
<rect x="64" y="176" width="8" height="32" fill="#000080" />
<rect x="72" y="176" width="8" height="16" fill="#0000FF" />
<rect x="104" y="176" width="8" height="40" fill="#0000FF" />
<rect x="112" y="176" width="8" height="8" fill="#000080" />
<rect x="160" y="176" width="8" height="8" fill="#000000" />
<rect x="168" y="176" width="8" height="8" fill="#000080" />
<rect x="176" y="176" width="56" height="16" fill="#0000FF" />
<rect x="232" y="176" width="8" height="16" fill="#000080" />
<rect x="8" y="184" width="8" height="56" fill="#808000" />
<rect x="16" y="184" width="8" height="56" fill="#0000FF" />
<rect x="80" y="184" width="8" height="8" fill="#000080" />
<rect x="112" y="184" width="8" height="24" fill="#0000FF" />
<rect x="120" y="184" width="40" height="8" fill="#000080" />
<rect x="160" y="184" width="16" height="40" fill="#0000FF" />
<rect x="32" y="192" width="8" height="16" fill="#000080" />
<rect x="40" y="192" width="8" height="8" fill="#000000" />
<rect x="72" y="192" width="8" height="24" fill="#000080" />
<rect x="80" y="192" width="8" height="8" fill="#0000FF" />
<rect x="88" y="192" width="8" height="8" fill="#000080" />
<rect x="120" y="192" width="40" height="24" fill="#0000FF" />
<rect x="176" y="192" width="48" height="8" fill="#0000FF" />
<rect x="224" y="192" width="8" height="8" fill="#000080" />
<rect x="48" y="200" width="8" height="8" fill="#000000" />
<rect x="80" y="200" width="8" height="16" fill="#000080" />
<rect x="88" y="200" width="8" height="8" fill="#0000FF" />
<rect x="96" y="200" width="8" height="32" fill="#000080" />
<rect x="176" y="200" width="40" height="8" fill="#0000FF" />
<rect x="216" y="200" width="8" height="8" fill="#000080" />
<rect x="24" y="208" width="8" height="24" fill="#000080" />
<rect x="56" y="208" width="16" height="8" fill="#000000" />
<rect x="88" y="208" width="8" height="16" fill="#000080" />
<rect x="112" y="208" width="8" height="24" fill="#000080" />
<rect x="176" y="208" width="24" height="8" fill="#0000FF" />
<rect x="200" y="208" width="16" height="8" fill="#000080" />
<rect x="72" y="216" width="16" height="8" fill="#000000" />
<rect x="104" y="216" width="8" height="16" fill="#000080" />
<rect x="120" y="216" width="8" height="8" fill="#0000FF" />
<rect x="128" y="216" width="8" height="16" fill="#000080" />
<rect x="136" y="216" width="8" height="8" fill="#0000FF" />
<rect x="144" y="216" width="8" height="8" fill="#000080" />
<rect x="152" y="216" width="8" height="8" fill="#0000FF" />
<rect x="176" y="216" width="8" height="8" fill="#0000FF" />
<rect x="184" y="216" width="16" height="8" fill="#000080" />
<rect x="88" y="224" width="8" height="8" fill="#000000" />
<rect x="120" y="224" width="8" height="8" fill="#000080" />
<rect x="136" y="224" width="8" height="8" fill="#000080" />
<rect x="144" y="224" width="8" height="8" fill="#0000FF" />
<rect x="152" y="224" width="32" height="8" fill="#000080" />
<rect x="24" y="232" width="8" height="8" fill="#0000FF" />
<rect x="32" y="232" width="8" height="8" fill="#000080" />
<rect x="80" y="232" width="16" height="8" fill="#0000FF" />
<rect x="96" y="232" width="64" height="8" fill="#000000" />
<rect x="16" y="240" width="16" height="8" fill="#000080" />
<rect x="32" y="240" width="48" height="8" fill="#0000FF" />
<rect x="80" y="240" width="16" height="8" fill="#000080" />
<rect x="32" y="248" width="48" height="8" fill="#000000" />
</svg>
