<?xml version="1.0" encoding="UTF-8" ?>
<svg version="1.1" width="32" height="32" xmlns="http://www.w3.org/2000/svg">
<rect x="24" y="0" width="6" height="1" fill="#0000FF" />
<rect x="22" y="1" width="3" height="1" fill="#0000FF" />
<rect x="29" y="1" width="2" height="1" fill="#0000FF" />
<rect x="19" y="2" width="4" height="1" fill="#0000FF" />
<rect x="30" y="2" width="2" height="1" fill="#0000FF" />
<rect x="13" y="3" width="9" height="7" fill="#0000FF" />
<rect x="22" y="3" width="1" height="1" fill="#000080" />
<rect x="31" y="3" width="1" height="4" fill="#0000FF" />
<rect x="10" y="4" width="3" height="23" fill="#0000FF" />
<rect x="22" y="4" width="1" height="7" fill="#0000FF" />
<rect x="23" y="4" width="2" height="1" fill="#000080" />
<rect x="8" y="5" width="3" height="22" fill="#0000FF" />
<rect x="23" y="5" width="2" height="13" fill="#0000FF" />
<rect x="25" y="5" width="2" height="1" fill="#000080" />
<rect x="7" y="6" width="1" height="1" fill="#000080" />
<rect x="13" y="6" width="1" height="1" fill="#FFFF00" />
<rect x="14" y="6" width="1" height="1" fill="#808000" />
<rect x="25" y="6" width="2" height="12" fill="#0000FF" />
<rect x="27" y="6" width="1" height="1" fill="#000080" />
<rect x="6" y="7" width="1" height="2" fill="#000080" />
<rect x="7" y="7" width="1" height="3" fill="#0000FF" />
<rect x="11" y="7" width="1" height="1" fill="#808000" />
<rect x="12" y="7" width="1" height="1" fill="#FFFF00" />
<rect x="27" y="7" width="1" height="11" fill="#0000FF" />
<rect x="28" y="7" width="1" height="2" fill="#000080" />
<rect x="5" y="8" width="1" height="4" fill="#000080" />
<rect x="10" y="8" width="1" height="1" fill="#C0C0C0" />
<rect x="11" y="8" width="1" height="1" fill="#FFFF00" />
<rect x="4" y="9" width="1" height="4" fill="#000080" />
<rect x="6" y="9" width="1" height="2" fill="#0000FF" />
<rect x="8" y="9" width="1" height="1" fill="#808000" />
<rect x="9" y="9" width="2" height="1" fill="#FFFF00" />
<rect x="15" y="9" width="1" height="1" fill="#000080" />
<rect x="16" y="9" width="3" height="1" fill="#000000" />
<rect x="19" y="9" width="2" height="1" fill="#000080" />
<rect x="28" y="9" width="1" height="9" fill="#0000FF" />
<rect x="29" y="9" width="1" height="4" fill="#000080" />
<rect x="7" y="10" width="1" height="1" fill="#808000" />
<rect x="8" y="10" width="1" height="1" fill="#FFFFFF" />
<rect x="9" y="10" width="1" height="1" fill="#FFFF00" />
<rect x="13" y="10" width="1" height="1" fill="#0000FF" />
<rect x="14" y="10" width="1" height="1" fill="#000080" />
<rect x="19" y="10" width="1" height="1" fill="#000000" />
<rect x="20" y="10" width="2" height="1" fill="#000080" />
<rect x="3" y="11" width="1" height="3" fill="#000080" />
<rect x="6" y="11" width="1" height="1" fill="#808000" />
<rect x="7" y="11" width="2" height="1" fill="#FFFF00" />
<rect x="13" y="11" width="1" height="1" fill="#000080" />
<rect x="20" y="11" width="1" height="1" fill="#000000" />
<rect x="21" y="11" width="2" height="1" fill="#000080" />
<rect x="5" y="12" width="1" height="1" fill="#808000" />
<rect x="6" y="12" width="1" height="1" fill="#FFFFFF" />
<rect x="7" y="12" width="1" height="1" fill="#FFFF00" />
<rect x="12" y="12" width="1" height="3" fill="#000080" />
<rect x="21" y="12" width="1" height="2" fill="#000000" />
<rect x="22" y="12" width="1" height="3" fill="#000080" />
<rect x="2" y="13" width="1" height="2" fill="#000080" />
<rect x="4" y="13" width="1" height="1" fill="#808000" />
<rect x="5" y="13" width="2" height="1" fill="#FFFF00" />
<rect x="7" y="13" width="1" height="5" fill="#0000FF" />
<rect x="29" y="13" width="1" height="5" fill="#0000FF" />
<rect x="30" y="13" width="1" height="5" fill="#000080" />
<rect x="3" y="14" width="1" height="1" fill="#808000" />
<rect x="4" y="14" width="1" height="1" fill="#FFFF00" />
<rect x="5" y="14" width="1" height="1" fill="#FFFFFF" />
<rect x="6" y="14" width="1" height="1" fill="#808080" />
<rect x="13" y="14" width="9" height="1" fill="#000080" />
<rect x="2" y="15" width="1" height="2" fill="#808000" />
<rect x="3" y="15" width="1" height="1" fill="#FFFF00" />
<rect x="4" y="15" width="1" height="1" fill="#808000" />
<rect x="5" y="15" width="1" height="1" fill="#C0C0C0" />
<rect x="6" y="15" width="1" height="5" fill="#0000FF" />
<rect x="12" y="15" width="11" height="3" fill="#0000FF" />
<rect x="3" y="16" width="1" height="1" fill="#808000" />
<rect x="4" y="16" width="1" height="1" fill="#FFFF00" />
<rect x="5" y="16" width="1" height="6" fill="#0000FF" />
<rect x="1" y="17" width="1" height="3" fill="#808000" />
<rect x="2" y="17" width="2" height="1" fill="#C0C0C0" />
<rect x="4" y="17" width="1" height="1" fill="#808000" />
<rect x="8" y="17" width="1" height="1" fill="#000080" />
<rect x="2" y="18" width="1" height="2" fill="#C0C0C0" />
<rect x="3" y="18" width="1" height="2" fill="#808000" />
<rect x="4" y="18" width="1" height="6" fill="#0000FF" />
<rect x="7" y="18" width="1" height="8" fill="#000080" />
<rect x="8" y="18" width="1" height="1" fill="#0000FF" />
<rect x="12" y="18" width="19" height="1" fill="#000000" />
<rect x="0" y="19" width="1" height="8" fill="#808000" />
<rect x="8" y="19" width="1" height="1" fill="#000080" />
<rect x="12" y="19" width="1" height="2" fill="#000080" />
<rect x="1" y="20" width="1" height="1" fill="#C0C0C0" />
<rect x="2" y="20" width="1" height="3" fill="#808000" />
<rect x="3" y="20" width="1" height="6" fill="#0000FF" />
<rect x="6" y="20" width="1" height="5" fill="#000080" />
<rect x="8" y="20" width="1" height="2" fill="#0000FF" />
<rect x="22" y="20" width="1" height="1" fill="#000000" />
<rect x="23" y="20" width="8" height="1" fill="#000080" />
<rect x="1" y="21" width="1" height="1" fill="#808000" />
<rect x="9" y="21" width="1" height="1" fill="#000080" />
<rect x="12" y="21" width="1" height="4" fill="#0000FF" />
<rect x="13" y="21" width="1" height="1" fill="#000080" />
<rect x="21" y="21" width="1" height="1" fill="#000000" />
<rect x="22" y="21" width="2" height="1" fill="#000080" />
<rect x="24" y="21" width="6" height="1" fill="#0000FF" />
<rect x="30" y="21" width="1" height="1" fill="#000080" />
<rect x="1" y="22" width="1" height="1" fill="#C0C0C0" />
<rect x="5" y="22" width="1" height="2" fill="#000080" />
<rect x="8" y="22" width="1" height="4" fill="#000080" />
<rect x="9" y="22" width="1" height="2" fill="#0000FF" />
<rect x="13" y="22" width="1" height="5" fill="#0000FF" />
<rect x="14" y="22" width="1" height="1" fill="#000080" />
<rect x="20" y="22" width="1" height="1" fill="#000000" />
<rect x="21" y="22" width="1" height="1" fill="#000080" />
<rect x="22" y="22" width="7" height="2" fill="#0000FF" />
<rect x="29" y="22" width="1" height="2" fill="#000080" />
<rect x="1" y="23" width="1" height="7" fill="#808000" />
<rect x="2" y="23" width="1" height="7" fill="#0000FF" />
<rect x="10" y="23" width="1" height="1" fill="#000080" />
<rect x="14" y="23" width="1" height="3" fill="#0000FF" />
<rect x="15" y="23" width="5" height="1" fill="#000080" />
<rect x="20" y="23" width="2" height="5" fill="#0000FF" />
<rect x="4" y="24" width="1" height="2" fill="#000080" />
<rect x="5" y="24" width="1" height="1" fill="#000000" />
<rect x="9" y="24" width="1" height="3" fill="#000080" />
<rect x="11" y="24" width="1" height="1" fill="#000080" />
<rect x="15" y="24" width="5" height="3" fill="#0000FF" />
<rect x="22" y="24" width="6" height="1" fill="#0000FF" />
<rect x="28" y="24" width="1" height="1" fill="#000080" />
<rect x="6" y="25" width="1" height="1" fill="#000000" />
<rect x="10" y="25" width="1" height="2" fill="#000080" />
<rect x="12" y="25" width="1" height="4" fill="#000080" />
<rect x="22" y="25" width="5" height="1" fill="#0000FF" />
<rect x="27" y="25" width="1" height="1" fill="#000080" />
<rect x="3" y="26" width="1" height="3" fill="#000080" />
<rect x="7" y="26" width="2" height="1" fill="#000000" />
<rect x="11" y="26" width="1" height="2" fill="#000080" />
<rect x="14" y="26" width="1" height="3" fill="#000080" />
<rect x="22" y="26" width="3" height="1" fill="#0000FF" />
<rect x="25" y="26" width="2" height="1" fill="#000080" />
<rect x="9" y="27" width="2" height="1" fill="#000000" />
<rect x="13" y="27" width="1" height="2" fill="#000080" />
<rect x="15" y="27" width="1" height="1" fill="#0000FF" />
<rect x="16" y="27" width="1" height="2" fill="#000080" />
<rect x="17" y="27" width="1" height="1" fill="#0000FF" />
<rect x="18" y="27" width="1" height="1" fill="#000080" />
<rect x="19" y="27" width="1" height="1" fill="#0000FF" />
<rect x="22" y="27" width="1" height="1" fill="#0000FF" />
<rect x="23" y="27" width="2" height="1" fill="#000080" />
<rect x="11" y="28" width="1" height="1" fill="#000000" />
<rect x="15" y="28" width="1" height="1" fill="#000080" />
<rect x="17" y="28" width="1" height="1" fill="#000080" />
<rect x="18" y="28" width="1" height="1" fill="#0000FF" />
<rect x="19" y="28" width="4" height="1" fill="#000080" />
<rect x="3" y="29" width="1" height="1" fill="#0000FF" />
<rect x="4" y="29" width="1" height="1" fill="#000080" />
<rect x="10" y="29" width="2" height="1" fill="#0000FF" />
<rect x="12" y="29" width="8" height="1" fill="#000000" />
<rect x="2" y="30" width="2" height="1" fill="#000080" />
<rect x="4" y="30" width="6" height="1" fill="#0000FF" />
<rect x="10" y="30" width="2" height="1" fill="#000080" />
<rect x="4" y="31" width="6" height="1" fill="#000000" />
</svg>
