<?xml version="1.0" encoding="UTF-8" ?>
<svg version="1.1" width="64" height="64" xmlns="http://www.w3.org/2000/svg">
<rect x="27" y="0" width="11" height="64" fill="#000000" />
<rect x="23" y="1" width="19" height="62" fill="#000000" />
<rect x="21" y="2" width="24" height="60" fill="#000000" />
<rect x="18" y="3" width="29" height="58" fill="#000000" />
<rect x="16" y="4" width="33" height="56" fill="#000000" />
<rect x="15" y="5" width="35" height="12" fill="#000000" />
<rect x="13" y="6" width="39" height="53" fill="#000000" />
<rect x="12" y="7" width="41" height="51" fill="#000000" />
<rect x="11" y="8" width="43" height="48" fill="#000000" />
<rect x="10" y="9" width="45" height="46" fill="#000000" />
<rect x="9" y="10" width="47" height="44" fill="#000000" />
<rect x="8" y="11" width="49" height="42" fill="#000000" />
<rect x="7" y="12" width="51" height="1" fill="#000000" />
<rect x="6" y="13" width="53" height="1" fill="#000000" />
<rect x="7" y="13" width="51" height="39" fill="#000000" />
<rect x="6" y="14" width="53" height="37" fill="#000000" />
<rect x="5" y="15" width="55" height="34" fill="#000000" />
<rect x="4" y="17" width="57" height="31" fill="#000000" />
<rect x="16" y="17" width="2" height="1" fill="#98A1F2" />
<rect x="18" y="17" width="1" height="1" fill="#656CA3" />
<rect x="29" y="17" width="1" height="1" fill="#2D3036" />
<rect x="30" y="17" width="1" height="1" fill="#AEB8D1" />
<rect x="31" y="17" width="3" height="1" fill="#D2DEFD" />
<rect x="34" y="17" width="1" height="1" fill="#959FB9" />
<rect x="46" y="17" width="3" height="1" fill="#9C8AC9" />
<rect x="3" y="18" width="59" height="28" fill="#000000" />
<rect x="15" y="18" width="5" height="1" fill="#9BA4F7" />
<rect x="20" y="18" width="1" height="1" fill="#8891DB" />
<rect x="27" y="18" width="11" height="1" fill="#DBE5FD" />
<rect x="44" y="18" width="6" height="1" fill="#BEA9F3" />
<rect x="18" y="19" width="1" height="1" fill="#4F5580" />
<rect x="19" y="19" width="3" height="1" fill="#9AA5F8" />
<rect x="25" y="19" width="4" height="1" fill="#D0D8ED" />
<rect x="29" y="19" width="1" height="1" fill="#ABB4CB" />
<rect x="35" y="19" width="4" height="1" fill="#C0CDF0" />
<rect x="39" y="19" width="1" height="1" fill="#707A92" />
<rect x="42" y="19" width="1" height="1" fill="#514967" />
<rect x="43" y="19" width="3" height="1" fill="#BDA8EF" />
<rect x="46" y="19" width="1" height="1" fill="#282333" />
<rect x="48" y="19" width="1" height="1" fill="#695C88" />
<rect x="20" y="20" width="2" height="1" fill="#8E99E6" />
<rect x="22" y="20" width="1" height="1" fill="#99A6F8" />
<rect x="24" y="20" width="3" height="1" fill="#E2EAFF" />
<rect x="37" y="20" width="1" height="1" fill="#727B93" />
<rect x="38" y="20" width="3" height="1" fill="#C4D4FF" />
<rect x="41" y="20" width="3" height="1" fill="#AD9BDB" />
<rect x="44" y="20" width="1" height="1" fill="#4F4664" />
<rect x="2" y="21" width="61" height="23" fill="#000000" />
<rect x="14" y="19" width="2" height="9" fill="#9CA4F8" />
<rect x="21" y="21" width="1" height="1" fill="#353956" />
<rect x="22" y="21" width="1" height="1" fill="#98A7F9" />
<rect x="23" y="21" width="3" height="1" fill="#E4ECFF" />
<rect x="39" y="21" width="3" height="1" fill="#C3D5FF" />
<rect x="42" y="21" width="1" height="1" fill="#BEABF1" />
<rect x="22" y="22" width="1" height="1" fill="#E7EEFF" />
<rect x="23" y="22" width="1" height="1" fill="#E5EDFF" />
<rect x="24" y="22" width="1" height="1" fill="#C7D2FD" />
<rect x="25" y="22" width="1" height="1" fill="#454E74" />
<rect x="39" y="22" width="1" height="1" fill="#C3B1F3" />
<rect x="40" y="22" width="1" height="1" fill="#BFD0FE" />
<rect x="41" y="22" width="2" height="1" fill="#BDD0FF" />
<rect x="49" y="22" width="2" height="1" fill="#B59FEE" />
<rect x="15" y="23" width="1" height="1" fill="#9FA2F9" />
<rect x="21" y="23" width="1" height="1" fill="#EAF1FF" />
<rect x="22" y="23" width="1" height="1" fill="#E8EFFF" />
<rect x="23" y="23" width="1" height="1" fill="#8C909B" />
<rect x="24" y="23" width="2" height="1" fill="#96A8F9" />
<rect x="26" y="23" width="1" height="1" fill="#363D5B" />
<rect x="38" y="23" width="3" height="1" fill="#C4B2F4" />
<rect x="41" y="23" width="3" height="1" fill="#BACDFB" />
<rect x="1" y="24" width="1" height="17" fill="#000000" />
<rect x="20" y="24" width="1" height="1" fill="#EFF5FF" />
<rect x="21" y="24" width="1" height="1" fill="#ECF2FF" />
<rect x="22" y="24" width="1" height="1" fill="#D1D6E1" />
<rect x="25" y="24" width="1" height="1" fill="#95A9FA" />
<rect x="26" y="24" width="1" height="1" fill="#95AAFB" />
<rect x="37" y="24" width="1" height="1" fill="#C4B2F2" />
<rect x="38" y="24" width="1" height="1" fill="#C2B1F2" />
<rect x="39" y="24" width="1" height="1" fill="#C4B2F4" />
<rect x="49" y="19" width="2" height="6" fill="#B7A1EF" />
<rect x="42" y="24" width="1" height="1" fill="#BBCFFF" />
<rect x="43" y="24" width="1" height="1" fill="#B9CCFF" />
<rect x="44" y="24" width="1" height="1" fill="#7B88AA" />
<rect x="49" y="24" width="1" height="2" fill="#B39CEE" />
<rect x="50" y="24" width="1" height="1" fill="#B69FF1" />
<rect x="15" y="25" width="1" height="1" fill="#9E9FF5" />
<rect x="19" y="25" width="1" height="1" fill="#65676C" />
<rect x="20" y="25" width="1" height="1" fill="#EFF3FF" />
<rect x="21" y="25" width="1" height="1" fill="#F0F6FF" />
<rect x="26" y="25" width="1" height="1" fill="#95AAFC" />
<rect x="27" y="25" width="1" height="1" fill="#94AAFB" />
<rect x="36" y="25" width="1" height="1" fill="#B6A7E0" />
<rect x="37" y="25" width="1" height="1" fill="#C4B3F2" />
<rect x="38" y="25" width="1" height="1" fill="#C5B3F4" />
<rect x="42" y="25" width="1" height="14" fill="#000000" />
<rect x="43" y="25" width="1" height="1" fill="#B7CBFF" />
<rect x="44" y="25" width="1" height="1" fill="#B6CBFF" />
<rect x="45" y="25" width="1" height="1" fill="#010101" />
<rect x="50" y="25" width="1" height="1" fill="#8876B5" />
<rect x="63" y="25" width="1" height="15" fill="#000000" />
<rect x="15" y="26" width="1" height="1" fill="#9F9FF5" />
<rect x="19" y="26" width="1" height="1" fill="#F1F5FF" />
<rect x="20" y="26" width="1" height="1" fill="#F0F4FF" />
<rect x="26" y="26" width="1" height="1" fill="#394161" />
<rect x="27" y="26" width="1" height="1" fill="#93ABFB" />
<rect x="28" y="26" width="1" height="1" fill="#94ACFD" />
<rect x="34" y="26" width="1" height="1" fill="#000000" />
<rect x="35" y="26" width="1" height="1" fill="#8479A1" />
<rect x="36" y="26" width="1" height="1" fill="#C6B4F2" />
<rect x="37" y="26" width="1" height="1" fill="#C5B4F2" />
<rect x="43" y="26" width="1" height="1" fill="#2F3441" />
<rect x="44" y="26" width="1" height="2" fill="#B5CAFF" />
<rect x="45" y="26" width="1" height="1" fill="#B6CAFF" />
<rect x="48" y="26" width="1" height="1" fill="#9480C5" />
<rect x="49" y="26" width="1" height="1" fill="#B39BEE" />
<rect x="15" y="27" width="1" height="1" fill="#9F9EF5" />
<rect x="16" y="27" width="1" height="1" fill="#8A89D4" />
<rect x="18" y="27" width="1" height="1" fill="#E8ECF3" />
<rect x="19" y="27" width="1" height="1" fill="#F2F6FF" />
<rect x="20" y="27" width="1" height="1" fill="#9EA1A6" />
<rect x="27" y="27" width="1" height="1" fill="#7487C6" />
<rect x="28" y="27" width="1" height="1" fill="#93ACFD" />
<rect x="29" y="27" width="1" height="1" fill="#94AEFF" />
<rect x="35" y="27" width="1" height="1" fill="#C6B6F1" />
<rect x="36" y="27" width="1" height="1" fill="#C6B5F1" />
<rect x="45" y="27" width="1" height="2" fill="#B2C7FF" />
<rect x="46" y="27" width="1" height="1" fill="#40485C" />
<rect x="48" y="27" width="1" height="1" fill="#B39BF0" />
<rect x="49" y="27" width="1" height="1" fill="#B29AEE" />
<rect x="0" y="28" width="1" height="10" fill="#000000" />
<rect x="15" y="28" width="1" height="1" fill="#9F9EF4" />
<rect x="16" y="28" width="1" height="1" fill="#A09EF5" />
<rect x="18" y="28" width="2" height="1" fill="#F3F7FF" />
<rect x="28" y="28" width="2" height="1" fill="#93ADFD" />
<rect x="30" y="28" width="1" height="1" fill="#8BA5F1" />
<rect x="34" y="28" width="1" height="1" fill="#C8B9F2" />
<rect x="35" y="28" width="1" height="1" fill="#C7B8F3" />
<rect x="46" y="28" width="1" height="1" fill="#B1C7FF" />
<rect x="48" y="28" width="1" height="2" fill="#B199EE" />
<rect x="49" y="28" width="1" height="1" fill="#B39BEF" />
<rect x="15" y="29" width="1" height="1" fill="#A29FF7" />
<rect x="16" y="29" width="1" height="1" fill="#A09CF4" />
<rect x="17" y="29" width="1" height="1" fill="#F2F4F7" />
<rect x="18" y="29" width="1" height="1" fill="#F6F9FF" />
<rect x="19" y="29" width="1" height="1" fill="#4C4D4F" />
<rect x="29" y="29" width="2" height="1" fill="#92ADFE" />
<rect x="31" y="29" width="1" height="1" fill="#3F4B6E" />
<rect x="33" y="29" width="1" height="1" fill="#CBBBF3" />
<rect x="34" y="29" width="1" height="1" fill="#C9BAF3" />
<rect x="35" y="29" width="1" height="1" fill="#4F4960" />
<rect x="45" y="29" width="1" height="1" fill="#A5B8ED" />
<rect x="46" y="29" width="1" height="1" fill="#B0C6FF" />
<rect x="47" y="29" width="1" height="1" fill="#7A7EAD" />
<rect x="49" y="29" width="1" height="1" fill="#8E7BBF" />
<rect x="15" y="30" width="1" height="1" fill="#5C5A8C" />
<rect x="16" y="30" width="1" height="1" fill="#9E9BF3" />
<rect x="17" y="30" width="2" height="1" fill="#F8FAFF" />
<rect x="30" y="30" width="2" height="1" fill="#91ADFD" />
<rect x="32" y="30" width="1" height="1" fill="#CCBCF2" />
<rect x="33" y="30" width="1" height="1" fill="#CCBCF3" />
<rect x="34" y="30" width="1" height="1" fill="#B6A9DA" />
<rect x="46" y="30" width="1" height="1" fill="#AEC5FF" />
<rect x="47" y="30" width="1" height="1" fill="#ADC5FF" />
<rect x="48" y="30" width="1" height="1" fill="#B098EE" />
<rect x="16" y="31" width="1" height="1" fill="#E3E3FC" />
<rect x="17" y="31" width="1" height="3" fill="#F8FAFF" />
<rect x="18" y="31" width="1" height="1" fill="#838486" />
<rect x="30" y="31" width="1" height="1" fill="#2F3853" />
<rect x="31" y="31" width="1" height="1" fill="#92AEFE" />
<rect x="32" y="31" width="1" height="1" fill="#91ADFE" />
<rect x="33" y="31" width="1" height="1" fill="#CFBFF5" />
<rect x="46" y="31" width="1" height="1" fill="#ADC4FF" />
<rect x="47" y="31" width="1" height="1" fill="#ACC4FF" />
<rect x="48" y="31" width="1" height="1" fill="#AF9BEF" />
<rect x="16" y="32" width="1" height="3" fill="#F8FAFF" />
<rect x="31" y="32" width="1" height="1" fill="#94AEFD" />
<rect x="32" y="32" width="1" height="1" fill="#91AEFE" />
<rect x="33" y="32" width="1" height="1" fill="#86A2EB" />
<rect x="47" y="32" width="1" height="1" fill="#ABC3FF" />
<rect x="48" y="32" width="1" height="1" fill="#A9C1FD" />
<rect x="18" y="33" width="1" height="1" fill="#8C88D4" />
<rect x="30" y="33" width="1" height="1" fill="#CFC1F4" />
<rect x="31" y="33" width="1" height="1" fill="#CFC1F3" />
<rect x="32" y="33" width="1" height="1" fill="#90AFFF" />
<rect x="33" y="33" width="1" height="1" fill="#91AFFF" />
<rect x="46" y="33" width="1" height="1" fill="#B097EF" />
<rect x="47" y="33" width="1" height="1" fill="#AAC2FF" />
<rect x="48" y="33" width="1" height="1" fill="#A9C1FF" />
<rect x="15" y="34" width="1" height="1" fill="#D1D3D7" />
<rect x="17" y="34" width="1" height="1" fill="#B6B2F5" />
<rect x="18" y="34" width="1" height="1" fill="#A09BF2" />
<rect x="29" y="34" width="1" height="1" fill="#C5B8E6" />
<rect x="30" y="34" width="1" height="1" fill="#D1C3F4" />
<rect x="31" y="34" width="1" height="1" fill="#C8BBEC" />
<rect x="33" y="34" width="1" height="1" fill="#91B0FF" />
<rect x="34" y="34" width="1" height="1" fill="#90AFFF" />
<rect x="46" y="34" width="1" height="1" fill="#AE95ED" />
<rect x="47" y="34" width="1" height="1" fill="#A9BDFD" />
<rect x="48" y="34" width="1" height="1" fill="#A7C1FF" />
<rect x="15" y="35" width="1" height="1" fill="#FAF8FE" />
<rect x="16" y="35" width="1" height="1" fill="#F9F7FD" />
<rect x="17" y="35" width="1" height="1" fill="#7975B7" />
<rect x="18" y="35" width="1" height="1" fill="#A19CF3" />
<rect x="19" y="35" width="1" height="1" fill="#7975B7" />
<rect x="28" y="35" width="1" height="1" fill="#4C4858" />
<rect x="29" y="35" width="1" height="1" fill="#D2C5F4" />
<rect x="30" y="35" width="1" height="1" fill="#D1C4F4" />
<rect x="33" y="35" width="1" height="1" fill="#4A5A82" />
<rect x="34" y="35" width="2" height="1" fill="#91B0FF" />
<rect x="45" y="35" width="1" height="1" fill="#B096F0" />
<rect x="46" y="35" width="1" height="1" fill="#AE94ED" />
<rect x="47" y="35" width="1" height="1" fill="#1B1A26" />
<rect x="48" y="35" width="1" height="1" fill="#A7C0FF" />
<rect x="49" y="35" width="1" height="1" fill="#A0B8F5" />
<rect x="15" y="36" width="1" height="1" fill="#F8F5FD" />
<rect x="16" y="36" width="1" height="1" fill="#FBF9FF" />
<rect x="18" y="36" width="2" height="1" fill="#A19AF2" />
<rect x="28" y="36" width="1" height="1" fill="#D3C6F4" />
<rect x="29" y="36" width="1" height="1" fill="#D2C5F3" />
<rect x="34" y="36" width="1" height="1" fill="#8DABF7" />
<rect x="35" y="36" width="1" height="1" fill="#91B0FF" />
<rect x="36" y="36" width="1" height="1" fill="#90AEFB" />
<rect x="45" y="36" width="1" height="2" fill="#AD93ED" />
<rect x="46" y="36" width="1" height="1" fill="#B095EF" />
<rect x="48" y="36" width="1" height="1" fill="#A5BEFF" />
<rect x="49" y="36" width="1" height="1" fill="#A5BFFF" />
<rect x="14" y="37" width="1" height="1" fill="#4C4B4E" />
<rect x="15" y="37" width="1" height="1" fill="#F6F3FC" />
<rect x="16" y="37" width="1" height="1" fill="#A4A2A8" />
<rect x="18" y="37" width="1" height="1" fill="#615D91" />
<rect x="19" y="37" width="1" height="1" fill="#A29BF2" />
<rect x="20" y="37" width="1" height="1" fill="#9E97ED" />
<rect x="27" y="37" width="1" height="1" fill="#D5C9F5" />
<rect x="28" y="37" width="1" height="1" fill="#D5C8F5" />
<rect x="29" y="37" width="1" height="1" fill="#494454" />
<rect x="35" y="37" width="1" height="1" fill="#92B1FF" />
<rect x="36" y="37" width="1" height="2" fill="#91B0FF" />
<rect x="37" y="37" width="1" height="1" fill="#6B82BB" />
<rect x="44" y="37" width="1" height="1" fill="#AD93ED" />
<rect x="48" y="37" width="1" height="1" fill="#A7C1FF" />
<rect x="49" y="37" width="1" height="1" fill="#A4BEFF" />
<rect x="14" y="38" width="1" height="1" fill="#EAE6F1" />
<rect x="15" y="38" width="1" height="1" fill="#F5F1FC" />
<rect x="19" y="38" width="1" height="1" fill="#A29AF3" />
<rect x="20" y="38" width="1" height="1" fill="#A39AF2" />
<rect x="26" y="38" width="1" height="1" fill="#D9CDF8" />
<rect x="27" y="38" width="1" height="1" fill="#D6CAF5" />
<rect x="28" y="38" width="1" height="1" fill="#B9AED4" />
<rect x="37" y="38" width="1" height="2" fill="#92B1FF" />
<rect x="38" y="38" width="1" height="1" fill="#323D58" />
<rect x="43" y="38" width="1" height="1" fill="#8772B9" />
<rect x="44" y="38" width="1" height="1" fill="#AD92ED" />
<rect x="45" y="38" width="1" height="1" fill="#A88EE6" />
<rect x="48" y="38" width="1" height="1" fill="#6677A0" />
<rect x="49" y="38" width="1" height="1" fill="#A3BEFF" />
<rect x="50" y="38" width="1" height="1" fill="#333B50" />
<rect x="14" y="39" width="1" height="1" fill="#F5F1FE" />
<rect x="15" y="39" width="1" height="1" fill="#F3EFFC" />
<rect x="20" y="39" width="1" height="1" fill="#A398F2" />
<rect x="21" y="39" width="1" height="1" fill="#A398F1" />
<rect x="25" y="39" width="1" height="1" fill="#D4C9F0" />
<rect x="26" y="39" width="1" height="1" fill="#D8CCF6" />
<rect x="27" y="39" width="1" height="1" fill="#D9CDF8" />
<rect x="38" y="39" width="1" height="2" fill="#93B2FF" />
<rect x="43" y="39" width="1" height="2" fill="#AD92ED" />
<rect x="44" y="39" width="1" height="1" fill="#AC91EC" />
<rect x="49" y="39" width="1" height="1" fill="#A1BDFF" />
<rect x="50" y="39" width="1" height="1" fill="#92AAE6" />
<rect x="14" y="40" width="1" height="1" fill="#F1EDFC" />
<rect x="15" y="40" width="1" height="1" fill="#F2EEFC" />
<rect x="20" y="40" width="1" height="1" fill="#7B73B6" />
<rect x="21" y="40" width="1" height="1" fill="#A498F1" />
<rect x="22" y="40" width="1" height="1" fill="#A599F3" />
<rect x="24" y="40" width="1" height="1" fill="#BDB4D6" />
<rect x="25" y="40" width="1" height="1" fill="#D9CEF6" />
<rect x="26" y="40" width="1" height="1" fill="#DACFF7" />
<rect x="39" y="40" width="1" height="1" fill="#92B1FF" />
<rect x="42" y="40" width="1" height="1" fill="#AB90EC" />
<rect x="49" y="40" width="1" height="3" fill="#A0BBFF" />
<rect x="50" y="40" width="1" height="1" fill="#A3BFFF" />
<rect x="14" y="41" width="1" height="1" fill="#F0EBFB" />
<rect x="15" y="41" width="1" height="1" fill="#F4F0FF" />
<rect x="21" y="41" width="1" height="1" fill="#A599F3" />
<rect x="22" y="41" width="1" height="1" fill="#A596F1" />
<rect x="23" y="41" width="1" height="1" fill="#A799F2" />
<rect x="24" y="41" width="1" height="1" fill="#DBD0F7" />
<rect x="25" y="41" width="1" height="1" fill="#DAD0F7" />
<rect x="38" y="41" width="1" height="1" fill="#36425F" />
<rect x="39" y="41" width="2" height="1" fill="#93B2FF" />
<rect x="41" y="41" width="1" height="1" fill="#AB92ED" />
<rect x="42" y="41" width="1" height="1" fill="#AC91EC" />
<rect x="43" y="41" width="1" height="1" fill="#7A66A8" />
<rect x="50" y="41" width="1" height="1" fill="#A0BBFF" />
<rect x="14" y="42" width="1" height="1" fill="#EEE9FB" />
<rect x="15" y="42" width="1" height="1" fill="#EEE9FA" />
<rect x="22" y="42" width="1" height="1" fill="#A597F1" />
<rect x="23" y="42" width="1" height="1" fill="#A595F0" />
<rect x="24" y="42" width="1" height="1" fill="#A595EF" />
<rect x="39" y="42" width="1" height="1" fill="#435274" />
<rect x="40" y="42" width="2" height="1" fill="#95B3FF" />
<rect x="42" y="42" width="1" height="1" fill="#9F8CE0" />
<rect x="50" y="42" width="1" height="3" fill="#9FBAFF" />
<rect x="14" y="43" width="1" height="1" fill="#EDE7FB" />
<rect x="15" y="43" width="1" height="1" fill="#EFE9FD" />
<rect x="21" y="43" width="1" height="1" fill="#DCD3F3" />
<rect x="22" y="43" width="1" height="1" fill="#DFD6F7" />
<rect x="23" y="43" width="1" height="1" fill="#A595EF" />
<rect x="24" y="43" width="1" height="1" fill="#A694EF" />
<rect x="25" y="43" width="1" height="1" fill="#A795F0" />
<rect x="39" y="43" width="1" height="1" fill="#AB90EC" />
<rect x="40" y="43" width="1" height="1" fill="#A39EF3" />
<rect x="41" y="43" width="2" height="1" fill="#96B4FF" />
<rect x="43" y="43" width="1" height="1" fill="#465477" />
<rect x="49" y="43" width="1" height="1" fill="#9FBAFF" />
<rect x="14" y="44" width="1" height="1" fill="#EBE5FB" />
<rect x="15" y="44" width="1" height="1" fill="#ECE5FC" />
<rect x="20" y="44" width="1" height="1" fill="#E3DBF9" />
<rect x="21" y="44" width="2" height="1" fill="#E1D8F8" />
<rect x="24" y="44" width="1" height="1" fill="#A391E9" />
<rect x="25" y="44" width="1" height="1" fill="#A794EF" />
<rect x="26" y="44" width="1" height="1" fill="#A894EF" />
<rect x="27" y="44" width="1" height="1" fill="#9482D2" />
<rect x="37" y="44" width="1" height="1" fill="#AC91EE" />
<rect x="38" y="44" width="2" height="1" fill="#AB90ED" />
<rect x="40" y="44" width="1" height="1" fill="#705E9A" />
<rect x="42" y="44" width="1" height="1" fill="#96B3FF" />
<rect x="43" y="44" width="1" height="1" fill="#98B5FF" />
<rect x="44" y="44" width="1" height="1" fill="#97B3FA" />
<rect x="49" y="44" width="1" height="1" fill="#9EB9FF" />
<rect x="14" y="45" width="1" height="1" fill="#EDE7FE" />
<rect x="15" y="45" width="1" height="1" fill="#E9E2FA" />
<rect x="16" y="45" width="1" height="1" fill="#9F9AAB" />
<rect x="17" y="45" width="1" height="1" fill="#44424A" />
<rect x="18" y="45" width="1" height="1" fill="#E7DFFA" />
<rect x="19" y="45" width="1" height="1" fill="#E5DDF9" />
<rect x="20" y="45" width="1" height="1" fill="#E3DBF8" />
<rect x="21" y="45" width="1" height="1" fill="#DCD4F1" />
<rect x="25" y="45" width="1" height="1" fill="#2F2A44" />
<rect x="26" y="45" width="1" height="1" fill="#A893EF" />
<rect x="27" y="45" width="1" height="1" fill="#A893EE" />
<rect x="28" y="45" width="1" height="1" fill="#A992EE" />
<rect x="29" y="45" width="1" height="1" fill="#AB93F1" />
<rect x="30" y="45" width="1" height="1" fill="#8472BA" />
<rect x="31" y="45" width="1" height="1" fill="#393251" />
<rect x="32" y="45" width="1" height="1" fill="#211C2E" />
<rect x="33" y="45" width="1" height="1" fill="#453B61" />
<rect x="34" y="45" width="1" height="1" fill="#9881D4" />
<rect x="35" y="45" width="1" height="1" fill="#AB90EE" />
<rect x="36" y="45" width="2" height="1" fill="#AB90ED" />
<rect x="38" y="45" width="1" height="1" fill="#AC91EE" />
<rect x="39" y="45" width="1" height="1" fill="#040306" />
<rect x="43" y="45" width="2" height="1" fill="#98B6FF" />
<rect x="45" y="45" width="1" height="1" fill="#99B6FF" />
<rect x="46" y="45" width="1" height="1" fill="#8CA6E7" />
<rect x="47" y="45" width="1" height="1" fill="#202635" />
<rect x="48" y="45" width="1" height="1" fill="#98B2F6" />
<rect x="49" y="45" width="1" height="1" fill="#9CB7FF" />
<rect x="50" y="45" width="1" height="1" fill="#7589BC" />
<rect x="15" y="46" width="1" height="1" fill="#E8E1F9" />
<rect x="16" y="46" width="1" height="1" fill="#E8E1FA" />
<rect x="17" y="46" width="1" height="1" fill="#E6DFF8" />
<rect x="18" y="46" width="1" height="1" fill="#E6DFF9" />
<rect x="19" y="46" width="1" height="1" fill="#E6DEF9" />
<rect x="20" y="46" width="1" height="1" fill="#27262B" />
<rect x="27" y="46" width="1" height="1" fill="#534875" />
<rect x="28" y="46" width="1" height="1" fill="#AA93EF" />
<rect x="29" y="46" width="3" height="1" fill="#A992EE" />
<rect x="32" y="46" width="1" height="1" fill="#A991ED" />
<rect x="33" y="46" width="1" height="1" fill="#AA91ED" />
<rect x="34" y="46" width="2" height="1" fill="#AA90ED" />
<rect x="36" y="46" width="1" height="1" fill="#AD92F0" />
<rect x="37" y="46" width="1" height="1" fill="#221D2F" />
<rect x="44" y="46" width="1" height="1" fill="#6375A4" />
<rect x="45" y="46" width="1" height="1" fill="#9AB6FF" />
<rect x="46" y="46" width="2" height="1" fill="#9BB7FF" />
<rect x="48" y="46" width="1" height="1" fill="#9CB8FF" />
<rect x="49" y="46" width="1" height="1" fill="#9DB9FF" />
<rect x="16" y="47" width="1" height="1" fill="#5A5761" />
<rect x="17" y="47" width="1" height="1" fill="#7A7683" />
<rect x="18" y="47" width="1" height="1" fill="#070708" />
<rect x="30" y="47" width="1" height="1" fill="#13101B" />
<rect x="31" y="47" width="1" height="1" fill="#4C426B" />
<rect x="32" y="47" width="1" height="1" fill="#64558C" />
<rect x="33" y="47" width="1" height="1" fill="#41375B" />
<rect x="34" y="47" width="1" height="1" fill="#08060B" />
<rect x="46" y="47" width="1" height="1" fill="#151922" />
<rect x="47" y="47" width="1" height="1" fill="#5A6A94" />
<rect x="48" y="47" width="1" height="1" fill="#252B3C" />
<rect x="16" y="48" width="3" height="12" fill="#000000" />
<rect x="30" y="48" width="5" height="16" fill="#000000" />
</svg>
