<svg width="76" height="76" version="1.1" xmlns="http://www.w3.org/2000/svg" xmlns:cc="http://creativecommons.org/ns#" xmlns:dc="http://purl.org/dc/elements/1.1/" xmlns:rdf="http://www.w3.org/1999/02/22-rdf-syntax-ns#"><metadata><rdf:RDF><cc:Work rdf:about=""><dc:format>image/svg+xml</dc:format><dc:type rdf:resource="http://purl.org/dc/dcmitype/StillImage"/></cc:Work></rdf:RDF></metadata><g transform="matrix(1.022 0 0 -1.0155 -244.58 101.95)"><g><path d="m239.33 95.036c0 2.96 2.4604 5.361 5.4956 5.361h63.376c3.0351 0 5.4956-2.401 5.4956-5.361v-64.117c0-2.961-2.4605-5.361-5.4956-5.361h-63.376c-3.0352 0-5.4956 2.4-5.4956 5.361z" fill="#069"/><path d="m261.87 37.749v33.794h-11.232v-33.794zm-5.6163 38.408c3.917 0 6.355 2.595 6.355 5.838-0.073 3.316-2.438 5.839-6.2807 5.839-3.8423 0-6.3545-2.523-6.3545-5.839 0-3.243 2.4375-5.838 6.207-5.838h0.073z" fill="#fff" fill-rule="evenodd"/><path d="m268.09 37.749h11.232v18.872c0 1.01 0.073 2.019 0.3696 2.741 0.812 2.018 2.6602 4.108 5.7632 4.108 4.0645 0 5.6904-3.099 5.6904-7.642v-18.079h11.232v19.377c0 10.38-5.5415 15.21-12.932 15.21-6.0596 0-8.7198-3.387-10.198-5.694h0.075v4.901h-11.232c0.1474-3.171 0-33.794 0-33.794z" fill="#fff" fill-rule="evenodd"/></g></g><script/><link/></svg>
