<?xml version="1.0" encoding="UTF-8" ?>
<svg version="1.1" width="32" height="32" xmlns="http://www.w3.org/2000/svg">
<rect x="2" y="0" width="4" height="14" fill="#000000" />
<rect x="13" y="0" width="4" height="14" fill="#000000" />
<rect x="21" y="0" width="5" height="1" fill="#000000" />
<rect x="3" y="1" width="3" height="11" fill="#C0C0C0" />
<rect x="5" y="1" width="1" height="1" fill="#808080" />
<rect x="6" y="1" width="1" height="2" fill="#000000" />
<rect x="12" y="1" width="3" height="7" fill="#C0C0C0" />
<rect x="12" y="1" width="1" height="2" fill="#000000" />
<rect x="15" y="1" width="1" height="11" fill="#808080" />
<rect x="19" y="1" width="8" height="2" fill="#C0C0C0" />
<rect x="19" y="1" width="2" height="5" fill="#C0C0C0"/>
<rect x="19" y="1" width="2" height="1" fill="#000000" />
<rect x="25" y="1" width="1" height="1" fill="#808080" />
<rect x="26" y="1" width="2" height="1" fill="#000000" />
<rect x="18" y="2" width="1" height="4" fill="#000000" />
<rect x="21" y="2" width="1" height="1" fill="#808080" />
<rect x="22" y="2" width="3" height="1" fill="#000000" />
<rect x="27" y="2" width="1" height="2" fill="#808080" />
<rect x="28" y="2" width="1" height="3" fill="#000000" />
<rect x="6" y="3" width="1" height="1" fill="#808080" />
<rect x="7" y="3" width="1" height="2" fill="#000000" />
<rect x="11" y="3" width="1" height="2" fill="#000000" />
<rect x="20" y="3" width="2" height="3" fill="#808080" />
<rect x="21" y="3" width="1" height="2" fill="#000000" />
<rect x="25" y="2" width="2" height="2" fill="#C0C0C0" />
<rect x="25" y="3" width="1" height="2" fill="#000000" />
<rect x="4" y="4" width="1" height="8" fill="#808080" />
<rect x="6" y="4" width="1" height="3" fill="#C0C0C0" />
<rect x="26" y="4" width="2" height="1" fill="#000000" />
<rect x="4" y="5" width="2" height="2" fill="#808080" />
<rect x="7" y="5" width="1" height="1" fill="#808080" />
<rect x="8" y="5" width="1" height="2" fill="#000000" />
<rect x="10" y="5" width="2" height="6" fill="#C0C0C0" />
<rect x="10" y="5" width="1" height="2" fill="#000000" />
<rect x="13" y="5" width="1" height="1" fill="#808080" />
<rect x="14" y="5" width="1" height="7" fill="#C0C0C0" />
<rect x="21" y="5" width="1" height="1" fill="#808080" />
<rect x="22" y="5" width="3" height="1" fill="#000000" />
<rect x="5" y="6" width="1" height="7" fill="#000000" />
<rect x="6" y="6" width="2" height="3" fill="#C0C0C0" />
<rect x="13" y="6" width="1" height="7" fill="#000000" />
<rect x="19" y="6" width="2" height="1" fill="#000000" />
<rect x="21" y="6" width="3" height="1" fill="#C0C0C0" />
<rect x="24" y="6" width="1" height="1" fill="#808080" />
<rect x="25" y="6" width="2" height="1" fill="#000000" />
<rect x="6" y="7" width="1" height="2" fill="#000000" />
<rect x="8" y="7" width="1" height="1" fill="#808080" />
<rect x="7" y="8" width="3" height="3" fill="#C0C0C0" />
<rect x="9" y="7" width="1" height="2" fill="#000000" />
<rect x="12" y="7" width="1" height="2" fill="#000000" />
<rect x="21" y="7" width="3" height="1" fill="#000000" />
<rect x="24" y="7" width="2" height="1" fill="#C0C0C0" />
<rect x="26" y="7" width="1" height="1" fill="#808080" />
<rect x="27" y="7" width="1" height="1" fill="#000000" />
<rect x="18" y="8" width="3" height="1" fill="#000000" />
<rect x="24" y="8" width="1" height="1" fill="#000000" />
<rect x="25" y="8" width="2" height="4" fill="#C0C0C0" />
<rect x="27" y="8" width="1" height="3" fill="#808080" />
<rect x="28" y="8" width="1" height="3" fill="#000000" />
<rect x="7" y="9" width="1" height="2" fill="#000000" />
<rect x="9" y="9" width="1" height="1" fill="#808080" />
<rect x="11" y="9" width="1" height="2" fill="#000000" />
<rect x="18" y="9" width="1" height="2" fill="#000000" />
<rect x="19" y="9" width="2" height="3" fill="#C0C0C0" />
<rect x="21" y="9" width="1" height="2" fill="#000000" />
<rect x="25" y="9" width="1" height="1" fill="#000000" />
<rect x="9" y="10" width="2" height="2" fill="#C0C0C0" />
<rect x="22" y="10" width="3" height="1" fill="#000000" />
<rect x="8" y="11" width="1" height="2" fill="#000000" />
<rect x="10" y="11" width="1" height="2" fill="#000000" />
<rect x="19" y="11" width="1" height="1" fill="#000000" />
<rect x="20" y="11" width="6" height="1" fill="#C0C0C0" />
<rect x="26" y="11" width="1" height="1" fill="#808080" />
<rect x="27" y="11" width="1" height="1" fill="#000000" />
<rect x="1" y="12" width="1" height="19" fill="#000000" />
<rect x="6" y="12" width="2" height="1" fill="#000000" />
<rect x="9" y="12" width="1" height="1" fill="#000000" />
<rect x="12" y="12" width="1" height="1" fill="#000000" />
<rect x="17" y="12" width="2" height="1" fill="#000000" />
<rect x="20" y="12" width="7" height="1" fill="#000000" />
<rect x="10" y="13" width="7" height="3" fill="#0000FF" />
<rect x="10" y="13" width="1" height="1" fill="#800000" />
<rect x="11" y="13" width="1" height="1" fill="#000000" />
<rect x="13" y="13" width="1" height="1" fill="#FF00FF" />
<rect x="15" y="13" width="1" height="1" fill="#FF00FF" />
<rect x="17" y="13" width="1" height="1" fill="#FF00FF" />
<rect x="18" y="13" width="1" height="1" fill="#000080" />
<rect x="19" y="13" width="10" height="4" fill="#FFFF00" />
<rect x="19" y="13" width="1" height="1" fill="#000000" />
<rect x="27" y="13" width="2" height="1" fill="#000000" />
<rect x="2" y="13" width="8" height="3" fill="#FF0000" />
<rect x="9" y="14" width="1" height="1" fill="#800000" />
<rect x="10" y="14" width="1" height="1" fill="#000000" />
<rect x="12" y="14" width="1" height="1" fill="#FF00FF" />
<rect x="14" y="14" width="1" height="1" fill="#FF00FF" />
<rect x="16" y="14" width="1" height="1" fill="#FF00FF" />
<rect x="17" y="14" width="1" height="1" fill="#000080" />
<rect x="18" y="14" width="1" height="1" fill="#000000" />
<rect x="29" y="14" width="1" height="1" fill="#000000" />
<rect x="9" y="15" width="1" height="2" fill="#000000" />
<rect x="11" y="15" width="1" height="1" fill="#FF00FF" />
<rect x="13" y="15" width="1" height="1" fill="#FF00FF" />
<rect x="15" y="15" width="1" height="1" fill="#FF00FF" />
<rect x="17" y="15" width="1" height="5" fill="#000000" />
<rect x="18" y="15" width="2" height="5" fill="#FFFF00" />
<rect x="28" y="15" width="2" height="2" fill="#FFFF00" />
<rect x="30" y="15" width="1" height="3" fill="#000000" />
<rect x="2" y="13" width="3" height="17" fill="#FF0000" />
<rect x="5" y="16" width="4" height="2" fill="#800000" />
<rect x="10" y="16" width="1" height="1" fill="#FF00FF" />
<rect x="11" y="16" width="1" height="1" fill="#0000FF" />
<rect x="12" y="16" width="1" height="1" fill="#800080" />
<rect x="13" y="16" width="3" height="1" fill="#000000" />
<rect x="16" y="16" width="1" height="1" fill="#800080" />
<rect x="21" y="16" width="5" height="1" fill="#000000" />
<rect x="26" y="16" width="1" height="1" fill="#808000" />
<rect x="29" y="16" width="1" height="2" fill="#808000" />
<rect x="8" y="17" width="1" height="7" fill="#000000" />
<rect x="9" y="17" width="2" height="7" fill="#0000FF" />
<rect x="9" y="17" width="1" height="1" fill="#FF00FF" />
<rect x="11" y="17" width="1" height="5" fill="#800080" />
<rect x="12" y="17" width="1" height="7" fill="#000000" />
<rect x="13" y="17" width="2" height="8" fill="#FF0000" />
<rect x="15" y="17" width="1" height="9" fill="#000000" />
<rect x="16" y="17" width="1" height="1" fill="#000080" />
<rect x="20" y="17" width="1" height="7" fill="#000000" />
<rect x="21" y="17" width="1" height="1" fill="#000080" />
<rect x="22" y="17" width="2" height="8" fill="#0000FF" />
<rect x="22" y="17" width="1" height="1" fill="#FF00FF" />
<rect x="24" y="17" width="1" height="7" fill="#000000" />
<rect x="26" y="17" width="1" height="1" fill="#000000" />
<rect x="27" y="17" width="3" height="1" fill="#808000" />
<rect x="5" y="18" width="3" height="1" fill="#000000" />
<rect x="10" y="18" width="1" height="1" fill="#FF00FF" />
<rect x="11" y="18" width="1" height="1" fill="#000080" />
<rect x="16" y="18" width="1" height="1" fill="#000000" />
<rect x="21" y="18" width="1" height="5" fill="#800080" />
<rect x="23" y="18" width="1" height="1" fill="#FF00FF" />
<rect x="27" y="18" width="3" height="1" fill="#000000" />
<rect x="5" y="19" width="1" height="7" fill="#000000" />
<rect x="9" y="19" width="1" height="1" fill="#FF00FF" />
<rect x="11" y="19" width="1" height="1" fill="#800080" />
<rect x="18" y="19" width="1" height="1" fill="#808000" />
<rect x="21" y="19" width="1" height="1" fill="#000080" />
<rect x="22" y="19" width="1" height="1" fill="#FF00FF" />
<rect x="25" y="19" width="2" height="1" fill="#000000" />
<rect x="10" y="20" width="1" height="1" fill="#FF00FF" />
<rect x="11" y="20" width="1" height="1" fill="#000080" />
<rect x="18" y="20" width="1" height="1" fill="#000000" />
<rect x="19" y="20" width="1" height="1" fill="#808000" />
<rect x="23" y="20" width="1" height="1" fill="#FF00FF" />
<rect x="25" y="20" width="3" height="3" fill="#FFFF00" />
<rect x="27" y="20" width="2" height="1" fill="#000000" />
<rect x="9" y="21" width="1" height="1" fill="#FF00FF" />
<rect x="19" y="21" width="1" height="1" fill="#000000" />
<rect x="21" y="21" width="1" height="1" fill="#000080" />
<rect x="22" y="21" width="1" height="1" fill="#FF00FF" />
<rect x="27" y="21" width="3" height="7" fill="#FFFF00" />
<rect x="29" y="21" width="1" height="1" fill="#000000" />
<rect x="10" y="22" width="1" height="1" fill="#FF00FF" />
<rect x="11" y="22" width="1" height="1" fill="#000080" />
<rect x="23" y="22" width="1" height="1" fill="#FF00FF" />
<rect x="25" y="22" width="1" height="1" fill="#808000" />
<rect x="30" y="22" width="1" height="7" fill="#000000" />
<rect x="11" y="24" width="3" height="3" fill="#FF0000" />
<rect x="9" y="23" width="1" height="1" fill="#FF00FF" />
<rect x="11" y="23" width="1" height="2" fill="#000000" />
<rect x="18" y="23" width="2" height="1" fill="#000000" />
<rect x="21" y="23" width="1" height="1" fill="#000080" />
<rect x="22" y="23" width="1" height="1" fill="#FF00FF" />
<rect x="25" y="23" width="1" height="1" fill="#000000" />
<rect x="26" y="23" width="1" height="1" fill="#808000" />
<rect x="9" y="24" width="1" height="2" fill="#000000" />
<rect x="10" y="24" width="1" height="1" fill="#FF00FF" />
<rect x="14" y="24" width="1" height="1" fill="#800000" />
<rect x="13" y="26" width="5" height="3" fill="#0000FF" />
<rect x="17" y="24" width="1" height="4" fill="#000000" />
<rect x="18" y="24" width="6" height="6" fill="#FFFF00" />
<rect x="22" y="25" width="6" height="4" fill="#FFFF00" />
<rect x="21" y="24" width="1" height="1" fill="#000000" />
<rect x="22" y="24" width="1" height="1" fill="#0000FF" />
<rect x="23" y="24" width="1" height="2" fill="#000000" />
<rect x="26" y="24" width="1" height="1" fill="#000000" />
<rect x="6" y="25" width="3" height="1" fill="#000000" />
<rect x="10" y="25" width="1" height="1" fill="#000000" />
<rect x="13" y="25" width="1" height="2" fill="#800000" />
<rect x="14" y="25" width="1" height="2" fill="#000000" />
<rect x="16" y="25" width="1" height="1" fill="#000000" />
<rect x="18" y="25" width="1" height="3" fill="#808000" />
<rect x="22" y="25" width="4" height="1" fill="#000000" />
<rect x="4" y="26" width="8" height="3" fill="#FF0000" />
<rect x="16" y="26" width="1" height="1" fill="#FF00FF" />
<rect x="29" y="26" width="1" height="3" fill="#808000" />
<rect x="12" y="27" width="2" height="1" fill="#000000" />
<rect x="15" y="27" width="1" height="1" fill="#FF00FF" />
<rect x="18" y="27" width="2" height="2" fill="#808000" />
<rect x="28" y="27" width="2" height="3" fill="#808000" />
<rect x="11" y="28" width="1" height="2" fill="#800000" />
<rect x="12" y="28" width="1" height="3" fill="#000000" />
<rect x="14" y="28" width="1" height="1" fill="#FF00FF" />
<rect x="16" y="28" width="1" height="1" fill="#FF00FF" />
<rect x="18" y="28" width="1" height="1" fill="#000000" />
<rect x="19" y="28" width="3" height="3" fill="#808000" />
<rect x="27" y="28" width="2" height="2" fill="#808000" />
<rect x="2" y="29" width="1" height="1" fill="#FF0000" />
<rect x="3" y="29" width="8" height="2" fill="#800000" />
<rect x="13" y="29" width="7" height="2" fill="#800080" />
<rect x="14" y="29" width="1" height="1" fill="#000080" />
<rect x="16" y="29" width="1" height="1" fill="#000080" />
<rect x="18" y="29" width="1" height="1" fill="#000080" />
<rect x="19" y="29" width="1" height="1" fill="#000000" />
<rect x="21" y="29" width="7" height="2" fill="#808000" />
<rect x="29" y="29" width="1" height="1" fill="#000000" />
<rect x="2" y="30" width="1" height="1" fill="#800000" />
<rect x="11" y="30" width="1" height="1" fill="#000000" />
<rect x="13" y="30" width="1" height="1" fill="#000080" />
<rect x="15" y="30" width="1" height="1" fill="#000080" />
<rect x="17" y="30" width="1" height="1" fill="#000080" />
<rect x="19" y="30" width="1" height="1" fill="#000080" />
<rect x="20" y="30" width="1" height="1" fill="#000000" />
<rect x="21" y="30" width="1" height="1" fill="#808000" />
<rect x="27" y="30" width="2" height="1" fill="#000000" />
<rect x="2" y="31" width="9" height="1" fill="#000000" />
<rect x="13" y="31" width="7" height="1" fill="#000000" />
<rect x="21" y="31" width="6" height="1" fill="#000000" />
</svg>
