<?xml version="1.0" encoding="UTF-8" ?>
<svg version="1.1" width="32" height="32" xmlns="http://www.w3.org/2000/svg" shape-rendering="crispEdges">
<rect x="9" y="0" width="18" height="1" fill="#808080" />
<rect x="8" y="1" width="1" height="1" fill="#808080" />
<rect x="9" y="1" width="16" height="1" fill="#C0C0C0" />
<rect x="25" y="1" width="1" height="1" fill="#FFFFFF" />
<rect x="26" y="1" width="1" height="16" fill="#808080" />
<rect x="27" y="1" width="1" height="16" fill="#000000" />
<rect x="7" y="2" width="1" height="1" fill="#808080" />
<rect x="8" y="2" width="17" height="1" fill="#FFFFFF" />
<rect x="25" y="2" width="1" height="16" fill="#808080" />
<rect x="6" y="3" width="1" height="15" fill="#808080" />
<rect x="7" y="3" width="1" height="14" fill="#FFFFFF" />
<rect x="8" y="3" width="17" height="1" fill="#C0C0C0" />
<rect x="8" y="4" width="1" height="13" fill="#C0C0C0" />
<rect x="9" y="4" width="14" height="1" fill="#808080" />
<rect x="23" y="4" width="1" height="12" fill="#FFFFFF" />
<rect x="24" y="4" width="1" height="13" fill="#C0C0C0" />
<rect x="9" y="5" width="13" height="1" fill="#000000" />
<rect x="22" y="5" width="1" height="10" fill="#808080" />
<rect x="9" y="6" width="1" height="8" fill="#000000" />
<rect x="10" y="6" width="12" height="1" fill="#008080" />
<rect x="10" y="7" width="1" height="7" fill="#008080" />
<rect x="11" y="7" width="1" height="2" fill="#00FFFF" />
<rect x="12" y="7" width="6" height="1" fill="#000000" />
<rect x="18" y="7" width="4" height="2" fill="#008080" />
<rect x="12" y="8" width="1" height="3" fill="#808080" />
<rect x="13" y="8" width="4" height="1" fill="#FFFFFF" />
<rect x="17" y="8" width="1" height="1" fill="#000000" />
<rect x="11" y="9" width="1" height="5" fill="#008080" />
<rect x="13" y="9" width="1" height="2" fill="#FFFFFF" />
<rect x="14" y="9" width="1" height="1" fill="#000080" />
<rect x="15" y="9" width="4" height="1" fill="#0000FF" />
<rect x="19" y="9" width="1" height="5" fill="#000000" />
<rect x="20" y="9" width="2" height="5" fill="#008080" />
<rect x="14" y="10" width="1" height="3" fill="#808080" />
<rect x="15" y="10" width="4" height="3" fill="#FFFFFF" />
<rect x="12" y="11" width="2" height="1" fill="#000000" />
<rect x="12" y="12" width="2" height="2" fill="#008080" />
<rect x="14" y="13" width="5" height="1" fill="#000000" />
<rect x="9" y="14" width="13" height="1" fill="#808080" />
<rect x="9" y="15" width="14" height="1" fill="#FFFFFF" />
<rect x="9" y="16" width="15" height="1" fill="#C0C0C0" />
<rect x="28" y="16" width="2" height="1" fill="#808080" />
<rect x="7" y="17" width="18" height="1" fill="#808080" />
<rect x="26" y="17" width="1" height="1" fill="#000000" />
<rect x="27" y="17" width="2" height="1" fill="#808080" />
<rect x="29" y="17" width="1" height="1" fill="#C0C0C0" />
<rect x="30" y="17" width="1" height="9" fill="#000000" />
<rect x="6" y="18" width="20" height="1" fill="#000000" />
<rect x="26" y="18" width="2" height="1" fill="#808080" />
<rect x="28" y="18" width="1" height="1" fill="#C0C0C0" />
<rect x="29" y="18" width="1" height="8" fill="#808080" />
<rect x="4" y="19" width="23" height="1" fill="#808080" />
<rect x="27" y="19" width="1" height="1" fill="#C0C0C0" />
<rect x="28" y="19" width="1" height="8" fill="#808080" />
<rect x="3" y="20" width="1" height="7" fill="#808080" />
<rect x="4" y="20" width="23" height="1" fill="#FFFFFF" />
<rect x="27" y="20" width="1" height="7" fill="#808080" />
<rect x="4" y="21" width="1" height="5" fill="#FFFFFF" />
<rect x="5" y="21" width="22" height="1" fill="#C0C0C0" />
<rect x="5" y="22" width="10" height="1" fill="#C0C0C0" />
<rect x="15" y="22" width="10" height="1" fill="#808080" />
<rect x="25" y="22" width="2" height="4" fill="#C0C0C0" />
<rect x="5" y="23" width="2" height="3" fill="#C0C0C0" />
<rect x="7" y="23" width="2" height="1" fill="#00FF00" />
<rect x="9" y="23" width="6" height="3" fill="#C0C0C0" />
<rect x="15" y="23" width="10" height="1" fill="#000000" />
<rect x="7" y="24" width="2" height="1" fill="#008000" />
<rect x="15" y="24" width="6" height="2" fill="#C0C0C0" />
<rect x="21" y="24" width="1" height="1" fill="#808080" />
<rect x="22" y="24" width="3" height="2" fill="#C0C0C0" />
<rect x="7" y="25" width="2" height="1" fill="#C0C0C0" />
<rect x="21" y="25" width="1" height="1" fill="#C0C0C0" />
<rect x="4" y="26" width="2" height="1" fill="#808080" />
<rect x="6" y="26" width="1" height="1" fill="#000000" />
<rect x="7" y="26" width="1" height="1" fill="#FFFFFF" />
<rect x="8" y="26" width="1" height="1" fill="#808080" />
<rect x="9" y="26" width="1" height="1" fill="#000000" />
<rect x="10" y="26" width="1" height="1" fill="#FFFFFF" />
<rect x="11" y="26" width="1" height="1" fill="#808080" />
<rect x="12" y="26" width="1" height="1" fill="#000000" />
<rect x="13" y="26" width="1" height="1" fill="#FFFFFF" />
<rect x="14" y="26" width="1" height="1" fill="#808080" />
<rect x="15" y="26" width="1" height="1" fill="#000000" />
<rect x="16" y="26" width="1" height="1" fill="#FFFFFF" />
<rect x="17" y="26" width="1" height="1" fill="#808080" />
<rect x="18" y="26" width="1" height="1" fill="#000000" />
<rect x="19" y="26" width="1" height="1" fill="#FFFFFF" />
<rect x="20" y="26" width="1" height="1" fill="#808080" />
<rect x="21" y="26" width="1" height="1" fill="#000000" />
<rect x="22" y="26" width="1" height="1" fill="#FFFFFF" />
<rect x="23" y="26" width="1" height="1" fill="#808080" />
<rect x="24" y="26" width="1" height="1" fill="#000000" />
<rect x="25" y="26" width="1" height="1" fill="#FFFFFF" />
<rect x="26" y="26" width="1" height="1" fill="#000000" />
<rect x="29" y="26" width="1" height="1" fill="#000000" />
<rect x="2" y="27" width="1" height="1" fill="#808080" />
<rect x="3" y="27" width="1" height="1" fill="#FFFFFF" />
<rect x="4" y="27" width="1" height="1" fill="#808080" />
<rect x="5" y="27" width="1" height="1" fill="#000000" />
<rect x="6" y="27" width="1" height="1" fill="#FFFFFF" />
<rect x="7" y="27" width="1" height="1" fill="#808080" />
<rect x="8" y="27" width="1" height="1" fill="#000000" />
<rect x="9" y="27" width="1" height="1" fill="#FFFFFF" />
<rect x="10" y="27" width="1" height="1" fill="#808080" />
<rect x="11" y="27" width="1" height="1" fill="#000000" />
<rect x="12" y="27" width="1" height="1" fill="#FFFFFF" />
<rect x="13" y="27" width="1" height="1" fill="#808080" />
<rect x="14" y="27" width="1" height="1" fill="#000000" />
<rect x="15" y="27" width="1" height="1" fill="#FFFFFF" />
<rect x="16" y="27" width="1" height="1" fill="#808080" />
<rect x="17" y="27" width="1" height="1" fill="#000000" />
<rect x="18" y="27" width="1" height="1" fill="#FFFFFF" />
<rect x="19" y="27" width="1" height="1" fill="#808080" />
<rect x="20" y="27" width="1" height="1" fill="#000000" />
<rect x="21" y="27" width="1" height="1" fill="#FFFFFF" />
<rect x="22" y="27" width="1" height="1" fill="#808080" />
<rect x="23" y="27" width="1" height="1" fill="#000000" />
<rect x="24" y="27" width="1" height="1" fill="#FFFFFF" />
<rect x="25" y="27" width="2" height="2" fill="#808080" />
<rect x="27" y="27" width="2" height="1" fill="#000000" />
<rect x="1" y="28" width="1" height="1" fill="#808080" />
<rect x="2" y="28" width="1" height="2" fill="#FFFFFF" />
<rect x="3" y="28" width="1" height="1" fill="#808080" />
<rect x="4" y="28" width="1" height="1" fill="#000000" />
<rect x="5" y="28" width="2" height="1" fill="#808080" />
<rect x="7" y="28" width="1" height="1" fill="#000000" />
<rect x="8" y="28" width="2" height="1" fill="#808080" />
<rect x="10" y="28" width="1" height="1" fill="#000000" />
<rect x="11" y="28" width="2" height="1" fill="#808080" />
<rect x="13" y="28" width="1" height="1" fill="#000000" />
<rect x="14" y="28" width="2" height="1" fill="#808080" />
<rect x="16" y="28" width="1" height="1" fill="#000000" />
<rect x="17" y="28" width="2" height="1" fill="#808080" />
<rect x="19" y="28" width="1" height="1" fill="#000000" />
<rect x="20" y="28" width="2" height="1" fill="#808080" />
<rect x="22" y="28" width="1" height="1" fill="#000000" />
<rect x="23" y="28" width="2" height="1" fill="#808080" />
<rect x="27" y="28" width="1" height="1" fill="#000000" />
<rect x="0" y="29" width="1" height="2" fill="#808080" />
<rect x="1" y="29" width="1" height="1" fill="#FFFFFF" />
<rect x="3" y="29" width="21" height="1" fill="#FFFFFF" />
<rect x="24" y="29" width="1" height="1" fill="#C0C0C0" />
<rect x="25" y="29" width="1" height="1" fill="#808080" />
<rect x="26" y="29" width="1" height="1" fill="#000000" />
<rect x="1" y="30" width="23" height="1" fill="#C0C0C0" />
<rect x="24" y="30" width="1" height="1" fill="#808080" />
<rect x="25" y="30" width="1" height="1" fill="#000000" />
<rect x="1" y="31" width="24" height="1" fill="#000000" />
</svg>