<?xml version="1.0" encoding="UTF-8" ?>
<svg version="1.1" width="32" height="31" xmlns="http://www.w3.org/2000/svg">
<rect x="4" y="0" width="14" height="1" fill="#808080" />
<rect x="3" y="1" width="1" height="1" fill="#808080" />
<rect x="4" y="1" width="13" height="1" fill="#C0C0C0" />
<rect x="17" y="0" width="1" height="11" fill="#808080" />
<rect x="18" y="1" width="1" height="9" fill="#000000" />
<rect x="2" y="2" width="1" height="13" fill="#808080" />
<rect x="3" y="2" width="13" height="11" fill="#FFFFFF" />
<rect x="16" y="2" width="2" height="10" fill="#808080" />
<rect x="4" y="3" width="10" height="1" fill="#808080" />
<rect x="15" y="3" width="1" height="7" fill="#C0C0C0" />
<rect x="4" y="3" width="1" height="8" fill="#808080" />
<rect x="5" y="4" width="8" height="1" fill="#000000" />
<rect x="13" y="4" width="1" height="7" fill="#000080" />
<rect x="5" y="4" width="1" height="7" fill="#000000" />
<rect x="6" y="5" width="7" height="5" fill="#0000FF" />
<rect x="7" y="6" width="1" height="2" fill="#00FFFF" />
<rect x="5" y="10" width="8" height="1" fill="#000080" />
<rect x="15" y="10" width="13" height="1" fill="#808080" />
<rect x="14" y="11" width="1" height="1" fill="#808080" />
<rect x="15" y="11" width="13" height="1" fill="#C0C0C0" />
<rect x="28" y="11" width="1" height="11" fill="#808080" />
<rect x="29" y="11" width="1" height="11" fill="#000000" />
<rect x="3" y="12" width="10" height="1" fill="#C0C0C0" />
<rect x="13" y="12" width="1" height="13" fill="#808080" />
<rect x="14" y="12" width="13" height="11" fill="#FFFFFF" />
<rect x="27" y="12" width="2" height="11" fill="#808080" />
<rect x="3" y="13" width="10" height="1" fill="#000000" />
<rect x="15" y="13" width="10" height="8" fill="#808080" />
<rect x="26" y="13" width="1" height="10" fill="#C0C0C0" />
<rect x="1" y="14" width="13" height="1" fill="#808080" />
<rect x="16" y="14" width="8" height="1" fill="#000000" />
<rect x="0" y="15" width="2" height="5" fill="#808080" />
<rect x="1" y="15" width="12" height="4" fill="#FFFFFF" />
<rect x="16" y="14" width="1" height="6" fill="#000000" />
<rect x="17" y="15" width="7" height="5" fill="#008080" />
<rect x="2" y="16" width="11" height="3" fill="#C0C0C0" />
<rect x="11" y="16" width="2" height="1" fill="#808080" />
<rect x="18" y="16" width="1" height="2" fill="#00FFFF" />
<rect x="3" y="17" width="2" height="1" fill="#00FF00" />
<rect x="11" y="17" width="2" height="1" fill="#000000" />
<rect x="3" y="18" width="2" height="1" fill="#008000" />
<rect x="1" y="19" width="13" height="1" fill="#808080" />
<rect x="1" y="20" width="12" height="1" fill="#000000" />
<rect x="5" y="21" width="1" height="4" fill="#808080" />
<rect x="6" y="21" width="1" height="4" fill="#C0C0C0" />
<rect x="7" y="21" width="1" height="4" fill="#000000" />
<rect x="14" y="22" width="12" height="1" fill="#C0C0C0" />
<rect x="28" y="22" width="1" height="1" fill="#000000" />
<rect x="29" y="22" width="2" height="2" fill="#808080" />
<rect x="14" y="23" width="14" height="1" fill="#000000" />
<rect x="28" y="23" width="2" height="2" fill="#808080" />
<rect x="30" y="23" width="1" height="1" fill="#C0C0C0" />
<rect x="31" y="23" width="1" height="6" fill="#000000" />
<rect x="12" y="24" width="19" height="6" fill="#808080" />
<rect x="29" y="24" width="1" height="1" fill="#C0C0C0" />
<rect x="30" y="24" width="1" height="5" fill="#808080" />
<rect x="0" y="25" width="1" height="1" fill="#808080" />
<rect x="2" y="25" width="10" height="1" fill="#808080" />
<rect x="2" y="26" width="9" height="1" fill="#C0C0C0" />
<rect x="8" y="25" width="1" height="4" fill="#000000" />
<rect x="12" y="25" width="17" height="4" fill="#FFFFFF" />
<rect x="0" y="26" width="1" height="1" fill="#C0C0C0" />
<rect x="2" y="27" width="9" height="1" fill="#000000" />
<rect x="4" y="25" width="4" height="3" fill="#808000" />
<rect x="5" y="26" width="2" height="2" fill="#FFFFFF" />
<rect x="6" y="26" width="1" height="2" fill="#FFFF00" />
<rect x="11" y="25" width="1" height="5" fill="#808080" />
<rect x="13" y="26" width="16" height="3" fill="#C0C0C0" />
<rect x="22" y="26" width="6" height="1" fill="#808080" />
<rect x="0" y="27" width="1" height="1" fill="#000000" />
<rect x="14" y="27" width="2" height="1" fill="#00FF00" />
<rect x="22" y="27" width="6" height="1" fill="#000000" />
<rect x="4" y="28" width="4" height="1" fill="#000000" />
<rect x="14" y="28" width="2" height="1" fill="#008000" />
<rect x="30" y="29" width="1" height="1" fill="#000000" />
<rect x="12" y="30" width="18" height="1" fill="#000000" />
</svg>
