<?xml version="1.0" encoding="UTF-8" ?>
<svg version="1.1" width="240" height="240" xmlns="http://www.w3.org/2000/svg">
<rect x="72" y="0" width="16" height="8" fill="#000000" />
<rect x="96" y="0" width="16" height="8" fill="#000000" />
<rect x="120" y="0" width="16" height="8" fill="#000000" />
<rect x="144" y="0" width="16" height="8" fill="#000000" />
<rect x="168" y="0" width="16" height="8" fill="#000000" />
<rect x="192" y="0" width="16" height="8" fill="#000000" />
<rect x="64" y="8" width="8" height="8" fill="#000000" />
<rect x="72" y="8" width="8" height="8" fill="#FFFFFF" />
<rect x="80" y="8" width="16" height="8" fill="#000000" />
<rect x="96" y="8" width="8" height="8" fill="#FFFFFF" />
<rect x="104" y="8" width="16" height="8" fill="#000000" />
<rect x="120" y="8" width="8" height="8" fill="#FFFFFF" />
<rect x="128" y="8" width="16" height="8" fill="#000000" />
<rect x="144" y="8" width="8" height="8" fill="#FFFFFF" />
<rect x="152" y="8" width="16" height="8" fill="#000000" />
<rect x="168" y="8" width="8" height="8" fill="#FFFFFF" />
<rect x="176" y="8" width="16" height="8" fill="#000000" />
<rect x="192" y="8" width="8" height="8" fill="#FFFFFF" />
<rect x="200" y="8" width="24" height="8" fill="#000000" />
<rect x="56" y="16" width="8" height="16" fill="#000000" />
<rect x="64" y="16" width="8" height="8" fill="#00FFFF" />
<rect x="72" y="16" width="8" height="8" fill="#000000" />
<rect x="80" y="16" width="8" height="8" fill="#00FFFF" />
<rect x="88" y="16" width="8" height="8" fill="#C0C0C0" />
<rect x="96" y="16" width="8" height="8" fill="#000000" />
<rect x="104" y="16" width="8" height="8" fill="#C0C0C0" />
<rect x="112" y="16" width="8" height="8" fill="#00FFFF" />
<rect x="120" y="16" width="8" height="8" fill="#000000" />
<rect x="128" y="16" width="8" height="8" fill="#00FFFF" />
<rect x="136" y="16" width="8" height="8" fill="#C0C0C0" />
<rect x="144" y="16" width="8" height="8" fill="#000000" />
<rect x="152" y="16" width="8" height="8" fill="#C0C0C0" />
<rect x="160" y="16" width="8" height="8" fill="#00FFFF" />
<rect x="168" y="16" width="8" height="8" fill="#000000" />
<rect x="176" y="16" width="8" height="8" fill="#00FFFF" />
<rect x="184" y="16" width="8" height="8" fill="#C0C0C0" />
<rect x="192" y="16" width="8" height="8" fill="#000000" />
<rect x="200" y="16" width="8" height="8" fill="#C0C0C0" />
<rect x="208" y="16" width="8" height="8" fill="#008080" />
<rect x="216" y="16" width="16" height="8" fill="#000000" />
<rect x="64" y="24" width="8" height="8" fill="#C0C0C0" />
<rect x="72" y="24" width="8" height="8" fill="#00FFFF" />
<rect x="80" y="24" width="8" height="8" fill="#C0C0C0" />
<rect x="88" y="24" width="8" height="8" fill="#00FFFF" />
<rect x="96" y="24" width="8" height="8" fill="#C0C0C0" />
<rect x="104" y="24" width="8" height="8" fill="#00FFFF" />
<rect x="112" y="24" width="8" height="8" fill="#C0C0C0" />
<rect x="120" y="24" width="8" height="8" fill="#00FFFF" />
<rect x="128" y="24" width="8" height="8" fill="#C0C0C0" />
<rect x="136" y="24" width="8" height="8" fill="#00FFFF" />
<rect x="144" y="24" width="8" height="8" fill="#C0C0C0" />
<rect x="152" y="24" width="8" height="8" fill="#00FFFF" />
<rect x="160" y="24" width="8" height="8" fill="#C0C0C0" />
<rect x="168" y="24" width="8" height="8" fill="#00FFFF" />
<rect x="176" y="24" width="8" height="8" fill="#C0C0C0" />
<rect x="184" y="24" width="8" height="8" fill="#00FFFF" />
<rect x="192" y="24" width="8" height="8" fill="#C0C0C0" />
<rect x="200" y="24" width="8" height="16" fill="#008080" />
<rect x="208" y="24" width="8" height="16" fill="#000000" />
<rect x="216" y="24" width="8" height="192" fill="#C0C0C0" />
<rect x="224" y="24" width="8" height="200" fill="#808080" />
<rect x="232" y="24" width="8" height="200" fill="#000000" />
<rect x="48" y="32" width="8" height="16" fill="#000000" />
<rect x="56" y="32" width="8" height="8" fill="#C0C0C0" />
<rect x="64" y="32" width="8" height="8" fill="#00FFFF" />
<rect x="72" y="32" width="8" height="8" fill="#C0C0C0" />
<rect x="80" y="32" width="8" height="8" fill="#00FFFF" />
<rect x="88" y="32" width="8" height="8" fill="#C0C0C0" />
<rect x="96" y="32" width="8" height="8" fill="#00FFFF" />
<rect x="104" y="32" width="8" height="8" fill="#C0C0C0" />
<rect x="112" y="32" width="8" height="8" fill="#00FFFF" />
<rect x="120" y="32" width="8" height="8" fill="#C0C0C0" />
<rect x="128" y="32" width="8" height="8" fill="#00FFFF" />
<rect x="136" y="32" width="8" height="8" fill="#C0C0C0" />
<rect x="144" y="32" width="8" height="8" fill="#00FFFF" />
<rect x="152" y="32" width="8" height="8" fill="#C0C0C0" />
<rect x="160" y="32" width="8" height="8" fill="#00FFFF" />
<rect x="168" y="32" width="8" height="8" fill="#C0C0C0" />
<rect x="176" y="32" width="8" height="8" fill="#00FFFF" />
<rect x="184" y="32" width="8" height="8" fill="#C0C0C0" />
<rect x="192" y="32" width="8" height="8" fill="#00FFFF" />
<rect x="56" y="40" width="8" height="8" fill="#00FFFF" />
<rect x="64" y="40" width="8" height="8" fill="#C0C0C0" />
<rect x="72" y="40" width="8" height="8" fill="#00FFFF" />
<rect x="80" y="40" width="8" height="8" fill="#C0C0C0" />
<rect x="88" y="40" width="8" height="8" fill="#00FFFF" />
<rect x="96" y="40" width="8" height="8" fill="#C0C0C0" />
<rect x="104" y="40" width="8" height="8" fill="#00FFFF" />
<rect x="112" y="40" width="8" height="8" fill="#C0C0C0" />
<rect x="120" y="40" width="8" height="8" fill="#00FFFF" />
<rect x="128" y="40" width="8" height="8" fill="#C0C0C0" />
<rect x="136" y="40" width="8" height="8" fill="#00FFFF" />
<rect x="144" y="40" width="8" height="8" fill="#C0C0C0" />
<rect x="152" y="40" width="8" height="8" fill="#00FFFF" />
<rect x="160" y="40" width="8" height="8" fill="#C0C0C0" />
<rect x="168" y="40" width="8" height="8" fill="#00FFFF" />
<rect x="176" y="40" width="8" height="8" fill="#C0C0C0" />
<rect x="184" y="40" width="8" height="8" fill="#00FFFF" />
<rect x="192" y="40" width="8" height="16" fill="#008080" />
<rect x="200" y="40" width="8" height="16" fill="#000000" />
<rect x="208" y="40" width="8" height="32" fill="#C0C0C0" />
<rect x="40" y="48" width="8" height="16" fill="#000000" />
<rect x="48" y="48" width="8" height="8" fill="#00FFFF" />
<rect x="56" y="48" width="8" height="8" fill="#C0C0C0" />
<rect x="64" y="48" width="8" height="8" fill="#00FFFF" />
<rect x="72" y="48" width="8" height="8" fill="#C0C0C0" />
<rect x="80" y="48" width="80" height="8" fill="#000000" />
<rect x="160" y="48" width="8" height="8" fill="#00FFFF" />
<rect x="168" y="48" width="8" height="8" fill="#C0C0C0" />
<rect x="176" y="48" width="8" height="8" fill="#00FFFF" />
<rect x="184" y="48" width="8" height="8" fill="#C0C0C0" />
<rect x="48" y="56" width="8" height="8" fill="#C0C0C0" />
<rect x="56" y="56" width="8" height="8" fill="#00FFFF" />
<rect x="64" y="56" width="8" height="8" fill="#C0C0C0" />
<rect x="72" y="56" width="8" height="8" fill="#00FFFF" />
<rect x="80" y="56" width="8" height="8" fill="#C0C0C0" />
<rect x="88" y="56" width="8" height="8" fill="#00FFFF" />
<rect x="96" y="56" width="8" height="8" fill="#C0C0C0" />
<rect x="104" y="56" width="8" height="8" fill="#00FFFF" />
<rect x="112" y="56" width="8" height="8" fill="#C0C0C0" />
<rect x="120" y="56" width="8" height="8" fill="#00FFFF" />
<rect x="128" y="56" width="8" height="8" fill="#C0C0C0" />
<rect x="136" y="56" width="8" height="8" fill="#00FFFF" />
<rect x="144" y="56" width="8" height="8" fill="#C0C0C0" />
<rect x="152" y="56" width="8" height="8" fill="#00FFFF" />
<rect x="160" y="56" width="8" height="8" fill="#C0C0C0" />
<rect x="168" y="56" width="8" height="8" fill="#00FFFF" />
<rect x="176" y="56" width="8" height="8" fill="#C0C0C0" />
<rect x="184" y="56" width="8" height="16" fill="#008080" />
<rect x="192" y="56" width="8" height="16" fill="#000000" />
<rect x="200" y="56" width="8" height="16" fill="#C0C0C0" />
<rect x="32" y="64" width="8" height="16" fill="#000000" />
<rect x="40" y="64" width="8" height="8" fill="#C0C0C0" />
<rect x="48" y="64" width="8" height="8" fill="#00FFFF" />
<rect x="56" y="64" width="8" height="8" fill="#C0C0C0" />
<rect x="64" y="64" width="8" height="8" fill="#00FFFF" />
<rect x="72" y="64" width="80" height="8" fill="#000000" />
<rect x="152" y="64" width="8" height="8" fill="#C0C0C0" />
<rect x="160" y="64" width="8" height="8" fill="#00FFFF" />
<rect x="168" y="64" width="8" height="8" fill="#C0C0C0" />
<rect x="176" y="64" width="8" height="8" fill="#00FFFF" />
<rect x="40" y="72" width="8" height="8" fill="#00FFFF" />
<rect x="48" y="72" width="8" height="8" fill="#C0C0C0" />
<rect x="56" y="72" width="8" height="8" fill="#00FFFF" />
<rect x="64" y="72" width="8" height="8" fill="#C0C0C0" />
<rect x="72" y="72" width="8" height="8" fill="#00FFFF" />
<rect x="80" y="72" width="8" height="8" fill="#C0C0C0" />
<rect x="88" y="72" width="8" height="8" fill="#00FFFF" />
<rect x="96" y="72" width="8" height="8" fill="#C0C0C0" />
<rect x="104" y="72" width="8" height="8" fill="#00FFFF" />
<rect x="112" y="72" width="8" height="8" fill="#C0C0C0" />
<rect x="120" y="72" width="8" height="8" fill="#00FFFF" />
<rect x="128" y="72" width="8" height="8" fill="#C0C0C0" />
<rect x="136" y="72" width="8" height="8" fill="#00FFFF" />
<rect x="144" y="72" width="8" height="8" fill="#C0C0C0" />
<rect x="152" y="72" width="8" height="8" fill="#00FFFF" />
<rect x="160" y="72" width="8" height="8" fill="#C0C0C0" />
<rect x="168" y="72" width="8" height="8" fill="#00FFFF" />
<rect x="176" y="72" width="8" height="16" fill="#008080" />
<rect x="184" y="72" width="8" height="16" fill="#000000" />
<rect x="192" y="72" width="24" height="8" fill="#808080" />
<rect x="24" y="80" width="8" height="16" fill="#000000" />
<rect x="32" y="80" width="8" height="8" fill="#00FFFF" />
<rect x="40" y="80" width="8" height="8" fill="#C0C0C0" />
<rect x="48" y="80" width="8" height="8" fill="#00FFFF" />
<rect x="56" y="80" width="8" height="8" fill="#C0C0C0" />
<rect x="64" y="80" width="8" height="8" fill="#00FFFF" />
<rect x="72" y="80" width="8" height="8" fill="#C0C0C0" />
<rect x="80" y="80" width="8" height="8" fill="#00FFFF" />
<rect x="88" y="80" width="8" height="8" fill="#C0C0C0" />
<rect x="96" y="80" width="8" height="8" fill="#00FFFF" />
<rect x="104" y="80" width="8" height="8" fill="#C0C0C0" />
<rect x="112" y="80" width="8" height="8" fill="#00FFFF" />
<rect x="120" y="80" width="8" height="8" fill="#C0C0C0" />
<rect x="128" y="80" width="8" height="8" fill="#00FFFF" />
<rect x="136" y="80" width="8" height="8" fill="#C0C0C0" />
<rect x="144" y="80" width="8" height="8" fill="#00FFFF" />
<rect x="152" y="80" width="8" height="8" fill="#C0C0C0" />
<rect x="160" y="80" width="8" height="8" fill="#00FFFF" />
<rect x="168" y="80" width="8" height="8" fill="#C0C0C0" />
<rect x="192" y="80" width="16" height="16" fill="#C0C0C0" />
<rect x="208" y="80" width="8" height="16" fill="#FFFFFF" />
<rect x="32" y="88" width="8" height="8" fill="#C0C0C0" />
<rect x="40" y="88" width="8" height="8" fill="#00FFFF" />
<rect x="48" y="88" width="8" height="8" fill="#C0C0C0" />
<rect x="56" y="88" width="8" height="8" fill="#00FFFF" />
<rect x="64" y="88" width="8" height="8" fill="#C0C0C0" />
<rect x="72" y="88" width="8" height="8" fill="#00FFFF" />
<rect x="80" y="88" width="8" height="8" fill="#C0C0C0" />
<rect x="88" y="88" width="8" height="8" fill="#00FFFF" />
<rect x="96" y="88" width="8" height="8" fill="#C0C0C0" />
<rect x="104" y="88" width="8" height="8" fill="#00FFFF" />
<rect x="112" y="88" width="8" height="8" fill="#C0C0C0" />
<rect x="120" y="88" width="8" height="8" fill="#00FFFF" />
<rect x="128" y="88" width="8" height="8" fill="#C0C0C0" />
<rect x="136" y="88" width="8" height="8" fill="#00FFFF" />
<rect x="144" y="88" width="8" height="8" fill="#C0C0C0" />
<rect x="152" y="88" width="8" height="8" fill="#00FFFF" />
<rect x="160" y="88" width="8" height="8" fill="#C0C0C0" />
<rect x="168" y="88" width="8" height="16" fill="#008080" />
<rect x="176" y="88" width="8" height="16" fill="#000000" />
<rect x="184" y="88" width="8" height="8" fill="#C0C0C0" />
<rect x="16" y="96" width="8" height="16" fill="#000000" />
<rect x="24" y="96" width="8" height="8" fill="#C0C0C0" />
<rect x="32" y="96" width="8" height="8" fill="#00FFFF" />
<rect x="40" y="96" width="8" height="8" fill="#C0C0C0" />
<rect x="48" y="96" width="8" height="8" fill="#00FFFF" />
<rect x="56" y="96" width="8" height="8" fill="#C0C0C0" />
<rect x="64" y="96" width="8" height="8" fill="#00FFFF" />
<rect x="72" y="96" width="8" height="8" fill="#C0C0C0" />
<rect x="80" y="96" width="8" height="8" fill="#00FFFF" />
<rect x="88" y="96" width="8" height="8" fill="#C0C0C0" />
<rect x="96" y="96" width="8" height="8" fill="#00FFFF" />
<rect x="104" y="96" width="8" height="8" fill="#C0C0C0" />
<rect x="112" y="96" width="8" height="8" fill="#00FFFF" />
<rect x="120" y="96" width="8" height="8" fill="#C0C0C0" />
<rect x="128" y="96" width="8" height="8" fill="#00FFFF" />
<rect x="136" y="96" width="8" height="8" fill="#C0C0C0" />
<rect x="144" y="96" width="8" height="8" fill="#00FFFF" />
<rect x="152" y="96" width="8" height="8" fill="#C0C0C0" />
<rect x="160" y="96" width="8" height="8" fill="#00FFFF" />
<rect x="184" y="96" width="32" height="8" fill="#808080" />
<rect x="24" y="104" width="8" height="8" fill="#00FFFF" />
<rect x="32" y="104" width="8" height="8" fill="#C0C0C0" />
<rect x="40" y="104" width="8" height="8" fill="#00FFFF" />
<rect x="48" y="104" width="8" height="8" fill="#C0C0C0" />
<rect x="56" y="104" width="8" height="8" fill="#00FFFF" />
<rect x="64" y="104" width="8" height="8" fill="#C0C0C0" />
<rect x="72" y="104" width="8" height="8" fill="#00FFFF" />
<rect x="80" y="104" width="8" height="8" fill="#C0C0C0" />
<rect x="88" y="104" width="8" height="8" fill="#00FFFF" />
<rect x="96" y="104" width="8" height="8" fill="#C0C0C0" />
<rect x="104" y="104" width="8" height="8" fill="#00FFFF" />
<rect x="112" y="104" width="8" height="8" fill="#C0C0C0" />
<rect x="120" y="104" width="8" height="8" fill="#00FFFF" />
<rect x="128" y="104" width="8" height="8" fill="#C0C0C0" />
<rect x="136" y="104" width="8" height="8" fill="#00FFFF" />
<rect x="144" y="104" width="8" height="8" fill="#C0C0C0" />
<rect x="152" y="104" width="8" height="8" fill="#00FFFF" />
<rect x="160" y="104" width="8" height="16" fill="#008080" />
<rect x="168" y="104" width="8" height="16" fill="#000000" />
<rect x="176" y="104" width="24" height="16" fill="#C0C0C0" />
<rect x="200" y="104" width="16" height="16" fill="#FFFFFF" />
<rect x="8" y="112" width="8" height="16" fill="#000000" />
<rect x="16" y="112" width="8" height="8" fill="#00FFFF" />
<rect x="24" y="112" width="8" height="8" fill="#C0C0C0" />
<rect x="32" y="112" width="8" height="8" fill="#00FFFF" />
<rect x="40" y="112" width="8" height="8" fill="#C0C0C0" />
<rect x="48" y="112" width="8" height="8" fill="#00FFFF" />
<rect x="56" y="112" width="8" height="8" fill="#C0C0C0" />
<rect x="64" y="112" width="8" height="8" fill="#00FFFF" />
<rect x="72" y="112" width="8" height="8" fill="#C0C0C0" />
<rect x="80" y="112" width="8" height="8" fill="#00FFFF" />
<rect x="88" y="112" width="8" height="8" fill="#C0C0C0" />
<rect x="96" y="112" width="8" height="8" fill="#00FFFF" />
<rect x="104" y="112" width="8" height="8" fill="#C0C0C0" />
<rect x="112" y="112" width="8" height="8" fill="#00FFFF" />
<rect x="120" y="112" width="8" height="8" fill="#C0C0C0" />
<rect x="128" y="112" width="8" height="8" fill="#00FFFF" />
<rect x="136" y="112" width="8" height="8" fill="#C0C0C0" />
<rect x="144" y="112" width="8" height="8" fill="#00FFFF" />
<rect x="152" y="112" width="8" height="8" fill="#C0C0C0" />
<rect x="16" y="120" width="8" height="8" fill="#C0C0C0" />
<rect x="24" y="120" width="8" height="8" fill="#00FFFF" />
<rect x="32" y="120" width="8" height="8" fill="#C0C0C0" />
<rect x="40" y="120" width="8" height="8" fill="#00FFFF" />
<rect x="48" y="120" width="8" height="8" fill="#C0C0C0" />
<rect x="56" y="120" width="8" height="8" fill="#00FFFF" />
<rect x="64" y="120" width="8" height="8" fill="#C0C0C0" />
<rect x="72" y="120" width="8" height="8" fill="#00FFFF" />
<rect x="80" y="120" width="8" height="8" fill="#C0C0C0" />
<rect x="88" y="120" width="8" height="8" fill="#00FFFF" />
<rect x="96" y="120" width="8" height="8" fill="#C0C0C0" />
<rect x="104" y="120" width="8" height="8" fill="#00FFFF" />
<rect x="112" y="120" width="8" height="8" fill="#C0C0C0" />
<rect x="120" y="120" width="8" height="8" fill="#00FFFF" />
<rect x="128" y="120" width="8" height="8" fill="#C0C0C0" />
<rect x="136" y="120" width="8" height="8" fill="#00FFFF" />
<rect x="144" y="120" width="8" height="8" fill="#C0C0C0" />
<rect x="152" y="120" width="8" height="16" fill="#008080" />
<rect x="160" y="120" width="8" height="16" fill="#000000" />
<rect x="168" y="120" width="48" height="8" fill="#808080" />
<rect x="0" y="128" width="8" height="24" fill="#000000" />
<rect x="8" y="128" width="8" height="8" fill="#C0C0C0" />
<rect x="16" y="128" width="8" height="8" fill="#00FFFF" />
<rect x="24" y="128" width="8" height="8" fill="#C0C0C0" />
<rect x="32" y="128" width="8" height="8" fill="#00FFFF" />
<rect x="40" y="128" width="8" height="8" fill="#C0C0C0" />
<rect x="48" y="128" width="8" height="8" fill="#00FFFF" />
<rect x="56" y="128" width="8" height="8" fill="#C0C0C0" />
<rect x="64" y="128" width="8" height="8" fill="#00FFFF" />
<rect x="72" y="128" width="8" height="8" fill="#C0C0C0" />
<rect x="80" y="128" width="8" height="8" fill="#00FFFF" />
<rect x="88" y="128" width="8" height="8" fill="#C0C0C0" />
<rect x="96" y="128" width="8" height="8" fill="#00FFFF" />
<rect x="104" y="128" width="8" height="8" fill="#C0C0C0" />
<rect x="112" y="128" width="8" height="8" fill="#00FFFF" />
<rect x="120" y="128" width="8" height="8" fill="#C0C0C0" />
<rect x="128" y="128" width="8" height="8" fill="#00FFFF" />
<rect x="136" y="128" width="8" height="8" fill="#C0C0C0" />
<rect x="144" y="128" width="8" height="8" fill="#00FFFF" />
<rect x="168" y="128" width="24" height="16" fill="#C0C0C0" />
<rect x="192" y="128" width="24" height="16" fill="#FFFFFF" />
<rect x="8" y="136" width="8" height="8" fill="#00FFFF" />
<rect x="16" y="136" width="8" height="8" fill="#C0C0C0" />
<rect x="24" y="136" width="8" height="8" fill="#00FFFF" />
<rect x="32" y="136" width="8" height="8" fill="#C0C0C0" />
<rect x="40" y="136" width="8" height="8" fill="#00FFFF" />
<rect x="48" y="136" width="8" height="8" fill="#C0C0C0" />
<rect x="56" y="136" width="8" height="8" fill="#00FFFF" />
<rect x="64" y="136" width="8" height="8" fill="#C0C0C0" />
<rect x="72" y="136" width="8" height="8" fill="#00FFFF" />
<rect x="80" y="136" width="8" height="8" fill="#C0C0C0" />
<rect x="88" y="136" width="8" height="8" fill="#00FFFF" />
<rect x="96" y="136" width="8" height="8" fill="#C0C0C0" />
<rect x="104" y="136" width="8" height="8" fill="#00FFFF" />
<rect x="112" y="136" width="8" height="8" fill="#C0C0C0" />
<rect x="120" y="136" width="8" height="8" fill="#00FFFF" />
<rect x="128" y="136" width="8" height="8" fill="#C0C0C0" />
<rect x="136" y="136" width="8" height="8" fill="#00FFFF" />
<rect x="144" y="136" width="8" height="16" fill="#008080" />
<rect x="152" y="136" width="8" height="16" fill="#000000" />
<rect x="160" y="136" width="8" height="8" fill="#C0C0C0" />
<rect x="8" y="144" width="136" height="8" fill="#008080" />
<rect x="160" y="144" width="56" height="8" fill="#808080" />
<rect x="8" y="152" width="144" height="8" fill="#000000" />
<rect x="152" y="152" width="32" height="16" fill="#C0C0C0" />
<rect x="184" y="152" width="32" height="16" fill="#FFFFFF" />
<rect x="64" y="160" width="8" height="56" fill="#000000" />
<rect x="72" y="160" width="80" height="8" fill="#C0C0C0" />
<rect x="72" y="168" width="144" height="8" fill="#808080" />
<rect x="72" y="176" width="104" height="16" fill="#C0C0C0" />
<rect x="176" y="176" width="40" height="16" fill="#FFFFFF" />
<rect x="72" y="192" width="144" height="8" fill="#808080" />
<rect x="72" y="200" width="88" height="8" fill="#C0C0C0" />
<rect x="160" y="200" width="56" height="8" fill="#FFFFFF" />
<rect x="72" y="208" width="136" height="8" fill="#FFFFFF" />
<rect x="208" y="208" width="8" height="16" fill="#C0C0C0" />
<rect x="72" y="216" width="8" height="8" fill="#000000" />
<rect x="80" y="216" width="128" height="8" fill="#C0C0C0" />
<rect x="216" y="216" width="8" height="16" fill="#808080" />
<rect x="80" y="224" width="8" height="8" fill="#000000" />
<rect x="88" y="224" width="128" height="8" fill="#808080" />
<rect x="224" y="224" width="8" height="8" fill="#000000" />
<rect x="88" y="232" width="136" height="8" fill="#000000" />
</svg>
