<?xml version="1.0" encoding="UTF-8" ?>
<svg version="1.1" width="32" height="26" xmlns="http://www.w3.org/2000/svg">
<rect x="18" y="0" width="6" height="2" fill="#EB181E" />
<rect x="16" y="1" width="2" height="4" fill="#EB181E" />
<rect x="24" y="1" width="2" height="4" fill="#EB181E" />
<rect x="14" y="2" width="2" height="22" fill="#EB181E" />
<rect x="18" y="2" width="1" height="1" fill="#EB181E" />
<rect x="23" y="2" width="1" height="1" fill="#EB181E" />
<rect x="26" y="2" width="2" height="22" fill="#EB181E" />
<rect x="13" y="3" width="1" height="20" fill="#EB181E" />
<rect x="28" y="3" width="1" height="20" fill="#EB181E" />
<rect x="12" y="4" width="1" height="18" fill="#EB181E" />
<rect x="29" y="4" width="1" height="18" fill="#EB181E" />
<rect x="16" y="5" width="1" height="20" fill="#EB181E" />
<rect x="25" y="5" width="1" height="20" fill="#EB181E" />
<rect x="11" y="6" width="1" height="14" fill="#EB181E" />
<rect x="30" y="6" width="1" height="14" fill="#EB181E" />
<rect x="10" y="9" width="1" height="8" fill="#EB181E" />
<rect x="31" y="9" width="1" height="8" fill="#EB181E" />
<rect x="4" y="13" width="6" height="1" fill="#787878" />
<rect x="17" y="13" width="2" height="2" fill="#787878" />
<rect x="1" y="14" width="5" height="6" fill="#787878" />
<rect x="19" y="14" width="3" height="3" fill="#787878" />
<rect x="0" y="15" width="1" height="4" fill="#787878" />
<rect x="18" y="15" width="1" height="1" fill="#787878" />
<rect x="22" y="15" width="2" height="5" fill="#787878" />
<rect x="24" y="16" width="1" height="5" fill="#787878" />
<rect x="6" y="17" width="1" height="7" fill="#787878" />
<rect x="20" y="17" width="2" height="1" fill="#787878" />
<rect x="7" y="18" width="1" height="6" fill="#787878" />
<rect x="21" y="18" width="1" height="1" fill="#787878" />
<rect x="8" y="19" width="1" height="5" fill="#787878" />
<rect x="2" y="20" width="4" height="1" fill="#787878" />
<rect x="9" y="20" width="1" height="5" fill="#787878" />
<rect x="23" y="20" width="1" height="1" fill="#787878" />
<rect x="3" y="21" width="3" height="1" fill="#787878" />
<rect x="10" y="21" width="1" height="4" fill="#787878" />
<rect x="17" y="21" width="1" height="5" fill="#EB181E" />
<rect x="24" y="21" width="1" height="4" fill="#EB181E" />
<rect x="4" y="22" width="2" height="1" fill="#787878" />
<rect x="11" y="22" width="2" height="3" fill="#787878" />
<rect x="13" y="23" width="1" height="3" fill="#787878" />
<rect x="18" y="23" width="1" height="3" fill="#EB181E" />
<rect x="23" y="23" width="1" height="3" fill="#EB181E" />
<rect x="14" y="24" width="1" height="2" fill="#787878" />
<rect x="15" y="24" width="1" height="1" fill="#EB181E" />
<rect x="19" y="24" width="4" height="2" fill="#EB181E" />
<rect x="12" y="25" width="1" height="1" fill="#787878" />
<rect x="15" y="25" width="2" height="1" fill="#787878" />
</svg>
