<?xml version="1.0" encoding="UTF-8" ?>
<svg version="1.1" width="32" height="32" xmlns="http://www.w3.org/2000/svg">
<rect x="16" y="0" width="1" height="1" fill="#F91E4E" opacity="0.333333" />
<rect x="11" y="1" width="11" height="1" fill="#FA1E4E" />
<rect x="9" y="2" width="4" height="1" fill="#FA1E4E" />
<rect x="20" y="2" width="4" height="2" fill="#FA1E4E" />
<rect x="7" y="3" width="3" height="1" fill="#FA1E4E" />
<rect x="16" y="3" width="4" height="1" fill="#FA1E4E" />
<rect x="24" y="3" width="2" height="2" fill="#FA1E4E" />
<rect x="6" y="4" width="2" height="1" fill="#FA1E4E" />
<rect x="14" y="4" width="3" height="1" fill="#FA1E4E" />
<rect x="23" y="4" width="1" height="1" fill="#F91E4E" opacity="0.721569" />
<rect x="26" y="4" width="1" height="2" fill="#FA1E4E" />
<rect x="5" y="5" width="2" height="1" fill="#FA1E4E" />
<rect x="13" y="5" width="2" height="1" fill="#FA1E4E" />
<rect x="27" y="5" width="1" height="2" fill="#FA1E4E" />
<rect x="4" y="6" width="2" height="1" fill="#FA1E4E" />
<rect x="12" y="6" width="2" height="1" fill="#FA1E4E" />
<rect x="19" y="6" width="1" height="1" fill="#FA1E4E" opacity="0.921569" />
<rect x="28" y="6" width="1" height="3" fill="#FA1E4E" />
<rect x="3" y="7" width="2" height="1" fill="#FA1E4E" />
<rect x="11" y="7" width="2" height="1" fill="#FA1E4E" />
<rect x="21" y="7" width="1" height="1" fill="#FA1E4E" />
<rect x="29" y="7" width="1" height="3" fill="#FA1E4E" />
<rect x="3" y="8" width="1" height="2" fill="#FA1E4E" />
<rect x="10" y="8" width="2" height="1" fill="#FA1E4E" />
<rect x="22" y="8" width="1" height="2" fill="#FA1E4E" />
<rect x="2" y="9" width="1" height="4" fill="#FA1E4E" />
<rect x="9" y="9" width="1" height="1" fill="#FA1E4E" opacity="0.592157" />
<rect x="10" y="9" width="1" height="2" fill="#FA1E4E" />
<rect x="23" y="9" width="1" height="3" fill="#FA1E4E" />
<rect x="30" y="9" width="1" height="4" fill="#FA1E4E" />
<rect x="9" y="10" width="1" height="4" fill="#FA1E4E" />
<rect x="24" y="10" width="1" height="1" fill="#FF1E4B" opacity="0.066667" />
<rect x="29" y="10" width="1" height="1" fill="#FF1746" opacity="0.043137" />
<rect x="1" y="11" width="1" height="11" fill="#FA1E4E" />
<rect x="24" y="11" width="1" height="11" fill="#FA1E4E" />
<rect x="31" y="11" width="1" height="1" fill="#FA1E4E" opacity="0.984314" />
<rect x="8" y="12" width="1" height="9" fill="#FA1E4E" />
<rect x="31" y="12" width="1" height="9" fill="#FA1E4E" />
<rect x="25" y="13" width="1" height="6" fill="#FA1E4E" />
<rect x="30" y="13" width="1" height="1" fill="#FA1F4E" opacity="0.654902" />
<rect x="9" y="14" width="1" height="1" fill="#FA1E4E" opacity="0.729412" />
<rect x="9" y="18" width="1" height="1" fill="#FA1E4E" opacity="0.988235" />
<rect x="9" y="19" width="1" height="4" fill="#FA1E4E" />
<rect x="25" y="19" width="1" height="1" fill="#FA1E4E" opacity="0.874510" />
<rect x="30" y="19" width="1" height="5" fill="#FA1E4E" />
<rect x="2" y="20" width="1" height="4" fill="#FA1E4E" />
<rect x="23" y="21" width="1" height="3" fill="#FA1E4E" />
<rect x="31" y="21" width="1" height="1" fill="#FB1F4D" opacity="0.258824" />
<rect x="10" y="22" width="1" height="3" fill="#FA1E4E" />
<rect x="29" y="22" width="1" height="1" fill="#FA1E4E" opacity="0.956863" />
<rect x="3" y="23" width="1" height="3" fill="#FA1E4E" />
<rect x="22" y="23" width="1" height="2" fill="#FA1E4E" />
<rect x="29" y="23" width="1" height="2" fill="#FA1E4E" />
<rect x="4" y="24" width="1" height="1" fill="#F61B52" opacity="0.109804" />
<rect x="11" y="24" width="1" height="2" fill="#FA1E4E" />
<rect x="28" y="24" width="1" height="3" fill="#FA1E4E" />
<rect x="4" y="25" width="1" height="2" fill="#FA1E4E" />
<rect x="12" y="25" width="1" height="2" fill="#FA1E4E" />
<rect x="21" y="25" width="1" height="1" fill="#FA1E4E" />
<rect x="29" y="25" width="1" height="1" fill="#FA1E4E" opacity="0.886275" />
<rect x="5" y="26" width="1" height="2" fill="#FA1E4E" />
<rect x="13" y="26" width="1" height="2" fill="#FA1E4E" />
<rect x="19" y="26" width="1" height="1" fill="#FA1E4E" />
<rect x="27" y="26" width="1" height="2" fill="#FA1E4E" />
<rect x="6" y="27" width="1" height="2" fill="#FA1E4E" />
<rect x="14" y="27" width="1" height="2" fill="#FA1E4E" />
<rect x="26" y="27" width="1" height="2" fill="#FA1E4E" />
<rect x="7" y="28" width="1" height="2" fill="#FA1E4E" />
<rect x="8" y="28" width="1" height="1" fill="#FF1746" opacity="0.043137" />
<rect x="15" y="28" width="3" height="1" fill="#FA1E4E" />
<rect x="23" y="28" width="3" height="2" fill="#FA1E4E" />
<rect x="8" y="29" width="2" height="1" fill="#FA1E4E" />
<rect x="16" y="29" width="7" height="1" fill="#FA1E4E" />
<rect x="9" y="30" width="4" height="1" fill="#FA1E4E" />
<rect x="20" y="30" width="4" height="1" fill="#FA1E4E" />
<rect x="11" y="31" width="11" height="1" fill="#FA1E4E" />
</svg>
