<?xml version="1.0" encoding="UTF-8" ?>
<svg version="1.1" width="256" height="256" xmlns="http://www.w3.org/2000/svg">
<rect x="64" y="0" width="8" height="56" fill="#008000" />
<rect x="128" y="0" width="8" height="16" fill="#000000" />
<rect x="208" y="0" width="8" height="48" fill="#000000" />
<rect x="240" y="0" width="8" height="56" fill="#000000" />
<rect x="72" y="8" width="8" height="8" fill="#000000" />
<rect x="120" y="8" width="8" height="16" fill="#808080" />
<rect x="136" y="8" width="8" height="16" fill="#000000" />
<rect x="200" y="8" width="8" height="8" fill="#808000" />
<rect x="232" y="8" width="8" height="8" fill="#808080" />
<rect x="72" y="16" width="8" height="8" fill="#008000" />
<rect x="80" y="16" width="8" height="8" fill="#000000" />
<rect x="128" y="16" width="8" height="8" fill="#FFFFFF" />
<rect x="192" y="16" width="8" height="8" fill="#808000" />
<rect x="200" y="16" width="8" height="16" fill="#C0C0C0" />
<rect x="224" y="16" width="8" height="8" fill="#808080" />
<rect x="232" y="16" width="8" height="24" fill="#C0C0C0" />
<rect x="72" y="24" width="8" height="24" fill="#00FF00" />
<rect x="80" y="24" width="8" height="8" fill="#008000" />
<rect x="88" y="24" width="8" height="8" fill="#000000" />
<rect x="112" y="24" width="8" height="80" fill="#808000" />
<rect x="120" y="24" width="8" height="8" fill="#FFFFFF" />
<rect x="128" y="24" width="8" height="8" fill="#C0C0C0" />
<rect x="136" y="24" width="8" height="56" fill="#808000" />
<rect x="144" y="24" width="8" height="48" fill="#000000" />
<rect x="184" y="24" width="8" height="8" fill="#808000" />
<rect x="192" y="24" width="8" height="16" fill="#C0C0C0" />
<rect x="216" y="24" width="8" height="16" fill="#808080" />
<rect x="224" y="24" width="8" height="8" fill="#C0C0C0" />
<rect x="80" y="32" width="8" height="8" fill="#00FF00" />
<rect x="88" y="32" width="8" height="8" fill="#008000" />
<rect x="96" y="32" width="8" height="8" fill="#000000" />
<rect x="120" y="32" width="16" height="8" fill="#808000" />
<rect x="176" y="32" width="8" height="16" fill="#808000" />
<rect x="184" y="32" width="8" height="16" fill="#C0C0C0" />
<rect x="200" y="32" width="8" height="24" fill="#000000" />
<rect x="224" y="32" width="8" height="8" fill="#FFFFFF" />
<rect x="80" y="40" width="8" height="16" fill="#008000" />
<rect x="88" y="40" width="16" height="8" fill="#808080" />
<rect x="104" y="40" width="8" height="24" fill="#000000" />
<rect x="120" y="40" width="8" height="56" fill="#FFFFFF" />
<rect x="128" y="40" width="8" height="48" fill="#FFFF00" />
<rect x="192" y="40" width="8" height="16" fill="#000000" />
<rect x="216" y="40" width="16" height="8" fill="#C0C0C0" />
<rect x="232" y="40" width="8" height="24" fill="#000000" />
<rect x="72" y="48" width="8" height="16" fill="#008000" />
<rect x="88" y="48" width="8" height="16" fill="#C0C0C0" />
<rect x="96" y="48" width="8" height="16" fill="#808080" />
<rect x="168" y="48" width="8" height="8" fill="#808000" />
<rect x="176" y="48" width="8" height="8" fill="#FFFFFF" />
<rect x="184" y="48" width="8" height="16" fill="#000000" />
<rect x="208" y="48" width="8" height="8" fill="#808080" />
<rect x="216" y="48" width="8" height="8" fill="#C0C0C0" />
<rect x="224" y="48" width="8" height="16" fill="#000000" />
<rect x="64" y="56" width="8" height="8" fill="#808080" />
<rect x="80" y="56" width="8" height="8" fill="#C0C0C0" />
<rect x="152" y="56" width="8" height="8" fill="#808000" />
<rect x="160" y="56" width="8" height="8" fill="#800000" />
<rect x="168" y="56" width="8" height="8" fill="#FFFFFF" />
<rect x="176" y="56" width="8" height="8" fill="#FFFF00" />
<rect x="200" y="56" width="8" height="8" fill="#808080" />
<rect x="208" y="56" width="8" height="8" fill="#FFFFFF" />
<rect x="216" y="56" width="8" height="16" fill="#000000" />
<rect x="72" y="64" width="8" height="8" fill="#808000" />
<rect x="80" y="64" width="16" height="8" fill="#808080" />
<rect x="96" y="64" width="8" height="8" fill="#000000" />
<rect x="104" y="64" width="8" height="8" fill="#C0C0C0" />
<rect x="152" y="64" width="8" height="8" fill="#800000" />
<rect x="160" y="64" width="8" height="16" fill="#FF0000" />
<rect x="168" y="64" width="8" height="8" fill="#FFFF00" />
<rect x="176" y="64" width="8" height="16" fill="#000000" />
<rect x="184" y="64" width="8" height="8" fill="#808000" />
<rect x="192" y="64" width="8" height="8" fill="#808080" />
<rect x="200" y="64" width="8" height="8" fill="#FFFFFF" />
<rect x="208" y="64" width="8" height="8" fill="#FFFF00" />
<rect x="56" y="72" width="16" height="8" fill="#808000" />
<rect x="72" y="72" width="8" height="16" fill="#808080" />
<rect x="80" y="72" width="8" height="8" fill="#FFFFFF" />
<rect x="88" y="72" width="8" height="16" fill="#C0C0C0" />
<rect x="96" y="72" width="8" height="16" fill="#808080" />
<rect x="104" y="72" width="8" height="48" fill="#000000" />
<rect x="144" y="72" width="8" height="8" fill="#800000" />
<rect x="152" y="72" width="8" height="16" fill="#FF0000" />
<rect x="168" y="72" width="8" height="8" fill="#800000" />
<rect x="184" y="72" width="8" height="8" fill="#00FFFF" />
<rect x="192" y="72" width="8" height="16" fill="#0000FF" />
<rect x="200" y="72" width="8" height="8" fill="#FFFF00" />
<rect x="208" y="72" width="8" height="8" fill="#000000" />
<rect x="48" y="80" width="8" height="8" fill="#808000" />
<rect x="56" y="80" width="8" height="8" fill="#FFFFFF" />
<rect x="64" y="80" width="8" height="8" fill="#C0C0C0" />
<rect x="80" y="80" width="8" height="8" fill="#C0C0C0" />
<rect x="136" y="80" width="8" height="8" fill="#800000" />
<rect x="144" y="80" width="8" height="16" fill="#FF0000" />
<rect x="160" y="80" width="8" height="8" fill="#800000" />
<rect x="168" y="80" width="8" height="8" fill="#000000" />
<rect x="176" y="80" width="8" height="8" fill="#00FFFF" />
<rect x="184" y="80" width="8" height="24" fill="#0000FF" />
<rect x="200" y="80" width="8" height="24" fill="#000000" />
<rect x="208" y="80" width="8" height="8" fill="#808000" />
<rect x="40" y="88" width="8" height="16" fill="#808000" />
<rect x="48" y="88" width="8" height="24" fill="#FFFFFF" />
<rect x="56" y="88" width="8" height="8" fill="#C0C0C0" />
<rect x="64" y="88" width="8" height="32" fill="#000000" />
<rect x="72" y="88" width="8" height="32" fill="#800080" />
<rect x="80" y="88" width="16" height="40" fill="#FF00FF" />
<rect x="96" y="88" width="8" height="32" fill="#800080" />
<rect x="128" y="88" width="8" height="8" fill="#800000" />
<rect x="136" y="88" width="8" height="16" fill="#FF0000" />
<rect x="152" y="88" width="8" height="8" fill="#800000" />
<rect x="160" y="88" width="8" height="8" fill="#000000" />
<rect x="168" y="88" width="8" height="8" fill="#00FFFF" />
<rect x="176" y="88" width="8" height="24" fill="#0000FF" />
<rect x="192" y="88" width="8" height="8" fill="#000080" />
<rect x="208" y="88" width="8" height="24" fill="#FFFFFF" />
<rect x="216" y="88" width="8" height="104" fill="#000000" />
<rect x="56" y="96" width="8" height="16" fill="#000000" />
<rect x="120" y="96" width="8" height="8" fill="#800000" />
<rect x="128" y="96" width="8" height="16" fill="#FF0000" />
<rect x="144" y="96" width="8" height="8" fill="#800000" />
<rect x="152" y="96" width="8" height="8" fill="#000000" />
<rect x="160" y="96" width="8" height="8" fill="#00FFFF" />
<rect x="168" y="96" width="8" height="24" fill="#0000FF" />
<rect x="192" y="96" width="8" height="16" fill="#000000" />
<rect x="32" y="104" width="8" height="8" fill="#C0C0C0" />
<rect x="40" y="104" width="8" height="8" fill="#808080" />
<rect x="112" y="104" width="8" height="8" fill="#800000" />
<rect x="120" y="104" width="8" height="16" fill="#FF0000" />
<rect x="136" y="104" width="8" height="8" fill="#800000" />
<rect x="144" y="104" width="8" height="8" fill="#000000" />
<rect x="152" y="104" width="8" height="8" fill="#00FFFF" />
<rect x="160" y="104" width="8" height="24" fill="#0000FF" />
<rect x="184" y="104" width="8" height="16" fill="#000000" />
<rect x="200" y="104" width="8" height="8" fill="#C0C0C0" />
<rect x="224" y="104" width="8" height="24" fill="#000000" />
<rect x="32" y="112" width="8" height="8" fill="#000000" />
<rect x="40" y="112" width="8" height="8" fill="#C0C0C0" />
<rect x="48" y="112" width="8" height="8" fill="#808000" />
<rect x="56" y="112" width="8" height="8" fill="#FFFFFF" />
<rect x="112" y="112" width="8" height="16" fill="#FF0000" />
<rect x="128" y="112" width="8" height="8" fill="#800000" />
<rect x="136" y="112" width="8" height="8" fill="#000000" />
<rect x="144" y="112" width="8" height="8" fill="#00FFFF" />
<rect x="152" y="112" width="8" height="16" fill="#0000FF" />
<rect x="176" y="112" width="8" height="8" fill="#000000" />
<rect x="192" y="112" width="16" height="8" fill="#FFFFFF" />
<rect x="208" y="112" width="8" height="80" fill="#808000" />
<rect x="40" y="120" width="8" height="8" fill="#000000" />
<rect x="48" y="120" width="8" height="8" fill="#C0C0C0" />
<rect x="56" y="120" width="8" height="8" fill="#808000" />
<rect x="64" y="120" width="16" height="8" fill="#00FF00" />
<rect x="96" y="120" width="8" height="8" fill="#000000" />
<rect x="104" y="120" width="8" height="8" fill="#FF0000" />
<rect x="120" y="120" width="8" height="8" fill="#800000" />
<rect x="128" y="120" width="8" height="8" fill="#000000" />
<rect x="136" y="120" width="8" height="8" fill="#00FFFF" />
<rect x="144" y="120" width="8" height="8" fill="#0000FF" />
<rect x="168" y="120" width="8" height="8" fill="#000000" />
<rect x="176" y="120" width="16" height="8" fill="#FFFFFF" />
<rect x="192" y="120" width="16" height="8" fill="#808000" />
<rect x="40" y="128" width="8" height="32" fill="#808000" />
<rect x="48" y="128" width="8" height="8" fill="#000000" />
<rect x="56" y="128" width="8" height="8" fill="#C0C0C0" />
<rect x="64" y="128" width="8" height="32" fill="#00FF00" />
<rect x="72" y="128" width="16" height="8" fill="#008000" />
<rect x="88" y="128" width="88" height="8" fill="#FFFFFF" />
<rect x="176" y="128" width="16" height="8" fill="#808000" />
<rect x="192" y="128" width="8" height="64" fill="#C0C0C0" />
<rect x="200" y="128" width="8" height="64" fill="#808000" />
<rect x="224" y="128" width="8" height="8" fill="#808080" />
<rect x="232" y="128" width="8" height="8" fill="#000000" />
<rect x="48" y="136" width="8" height="24" fill="#FFFFFF" />
<rect x="56" y="136" width="8" height="8" fill="#000000" />
<rect x="72" y="136" width="8" height="24" fill="#008000" />
<rect x="80" y="136" width="96" height="8" fill="#808000" />
<rect x="176" y="136" width="8" height="8" fill="#FFFF00" />
<rect x="184" y="136" width="8" height="56" fill="#C0C0C0" />
<rect x="232" y="136" width="8" height="16" fill="#808080" />
<rect x="240" y="136" width="8" height="16" fill="#000000" />
<rect x="56" y="144" width="8" height="48" fill="#00FF00" />
<rect x="80" y="144" width="16" height="8" fill="#C0C0C0" />
<rect x="96" y="144" width="16" height="8" fill="#FFFFFF" />
<rect x="112" y="144" width="8" height="8" fill="#FFFF00" />
<rect x="120" y="144" width="8" height="8" fill="#FFFFFF" />
<rect x="128" y="144" width="8" height="8" fill="#FFFF00" />
<rect x="136" y="144" width="8" height="8" fill="#FFFFFF" />
<rect x="144" y="144" width="8" height="8" fill="#FFFF00" />
<rect x="152" y="144" width="8" height="8" fill="#FFFFFF" />
<rect x="160" y="144" width="16" height="8" fill="#FFFF00" />
<rect x="176" y="144" width="8" height="8" fill="#C0C0C0" />
<rect x="80" y="152" width="16" height="8" fill="#000000" />
<rect x="96" y="152" width="16" height="8" fill="#C0C0C0" />
<rect x="112" y="152" width="8" height="8" fill="#FFFFFF" />
<rect x="120" y="152" width="8" height="8" fill="#FFFF00" />
<rect x="128" y="152" width="8" height="16" fill="#FFFFFF" />
<rect x="136" y="152" width="8" height="8" fill="#FFFF00" />
<rect x="144" y="152" width="8" height="8" fill="#FFFFFF" />
<rect x="152" y="152" width="16" height="8" fill="#FFFF00" />
<rect x="168" y="152" width="8" height="8" fill="#C0C0C0" />
<rect x="176" y="152" width="8" height="8" fill="#FFFF00" />
<rect x="240" y="152" width="8" height="40" fill="#808080" />
<rect x="248" y="152" width="8" height="40" fill="#000000" />
<rect x="40" y="160" width="8" height="40" fill="#008000" />
<rect x="48" y="160" width="8" height="40" fill="#00FF00" />
<rect x="64" y="160" width="8" height="40" fill="#008000" />
<rect x="72" y="160" width="8" height="8" fill="#FFFFFF" />
<rect x="80" y="160" width="8" height="8" fill="#FFFF00" />
<rect x="88" y="160" width="8" height="8" fill="#FFFFFF" />
<rect x="96" y="160" width="16" height="8" fill="#000000" />
<rect x="112" y="160" width="16" height="8" fill="#C0C0C0" />
<rect x="136" y="160" width="8" height="8" fill="#FFFFFF" />
<rect x="144" y="160" width="8" height="8" fill="#FFFF00" />
<rect x="152" y="160" width="8" height="8" fill="#FFFFFF" />
<rect x="160" y="160" width="16" height="8" fill="#FFFF00" />
<rect x="176" y="160" width="8" height="8" fill="#C0C0C0" />
<rect x="72" y="168" width="8" height="8" fill="#FFFF00" />
<rect x="80" y="168" width="8" height="8" fill="#FFFFFF" />
<rect x="88" y="168" width="8" height="8" fill="#FFFF00" />
<rect x="96" y="168" width="8" height="8" fill="#FFFFFF" />
<rect x="104" y="168" width="8" height="8" fill="#FFFF00" />
<rect x="112" y="168" width="16" height="8" fill="#000000" />
<rect x="128" y="168" width="16" height="8" fill="#C0C0C0" />
<rect x="144" y="168" width="8" height="8" fill="#FFFFFF" />
<rect x="152" y="168" width="16" height="8" fill="#FFFF00" />
<rect x="168" y="168" width="8" height="8" fill="#C0C0C0" />
<rect x="176" y="168" width="8" height="8" fill="#FFFF00" />
<rect x="72" y="176" width="8" height="8" fill="#FFFFFF" />
<rect x="80" y="176" width="8" height="8" fill="#FFFF00" />
<rect x="88" y="176" width="8" height="8" fill="#FFFFFF" />
<rect x="96" y="176" width="8" height="8" fill="#FFFF00" />
<rect x="104" y="176" width="8" height="8" fill="#FFFFFF" />
<rect x="112" y="176" width="8" height="8" fill="#FFFF00" />
<rect x="120" y="176" width="8" height="8" fill="#FFFFFF" />
<rect x="128" y="176" width="16" height="8" fill="#000000" />
<rect x="144" y="176" width="16" height="8" fill="#C0C0C0" />
<rect x="160" y="176" width="16" height="8" fill="#FFFF00" />
<rect x="176" y="176" width="8" height="8" fill="#C0C0C0" />
<rect x="72" y="184" width="8" height="8" fill="#FFFF00" />
<rect x="80" y="184" width="8" height="8" fill="#FFFFFF" />
<rect x="88" y="184" width="8" height="8" fill="#FFFF00" />
<rect x="96" y="184" width="8" height="8" fill="#FFFFFF" />
<rect x="104" y="184" width="8" height="8" fill="#FFFF00" />
<rect x="112" y="184" width="8" height="8" fill="#FFFFFF" />
<rect x="120" y="184" width="8" height="8" fill="#FFFF00" />
<rect x="128" y="184" width="8" height="8" fill="#FFFFFF" />
<rect x="136" y="184" width="8" height="8" fill="#FFFF00" />
<rect x="144" y="184" width="16" height="8" fill="#000000" />
<rect x="160" y="184" width="16" height="8" fill="#C0C0C0" />
<rect x="176" y="184" width="8" height="8" fill="#FFFF00" />
<rect x="56" y="192" width="8" height="16" fill="#008000" />
<rect x="72" y="192" width="8" height="8" fill="#FFFFFF" />
<rect x="80" y="192" width="8" height="8" fill="#FFFF00" />
<rect x="88" y="192" width="8" height="8" fill="#FFFFFF" />
<rect x="96" y="192" width="8" height="8" fill="#FFFF00" />
<rect x="104" y="192" width="8" height="8" fill="#FFFFFF" />
<rect x="112" y="192" width="8" height="8" fill="#FFFF00" />
<rect x="120" y="192" width="8" height="8" fill="#FFFFFF" />
<rect x="128" y="192" width="8" height="8" fill="#FFFF00" />
<rect x="136" y="192" width="8" height="8" fill="#FFFFFF" />
<rect x="144" y="192" width="8" height="8" fill="#FFFF00" />
<rect x="152" y="192" width="8" height="8" fill="#FFFFFF" />
<rect x="160" y="192" width="24" height="8" fill="#000000" />
<rect x="184" y="192" width="56" height="8" fill="#808080" />
<rect x="240" y="192" width="8" height="8" fill="#000000" />
<rect x="40" y="200" width="8" height="24" fill="#808000" />
<rect x="48" y="200" width="8" height="8" fill="#008000" />
<rect x="64" y="200" width="8" height="8" fill="#FFFFFF" />
<rect x="72" y="200" width="8" height="8" fill="#FFFF00" />
<rect x="80" y="200" width="8" height="8" fill="#FFFFFF" />
<rect x="88" y="200" width="8" height="8" fill="#FFFF00" />
<rect x="96" y="200" width="8" height="8" fill="#FFFFFF" />
<rect x="104" y="200" width="8" height="8" fill="#FFFF00" />
<rect x="112" y="200" width="8" height="8" fill="#FFFFFF" />
<rect x="120" y="200" width="8" height="8" fill="#FFFF00" />
<rect x="128" y="200" width="8" height="8" fill="#FFFFFF" />
<rect x="136" y="200" width="8" height="8" fill="#FFFF00" />
<rect x="144" y="200" width="8" height="8" fill="#FFFFFF" />
<rect x="152" y="200" width="16" height="8" fill="#FFFF00" />
<rect x="168" y="200" width="8" height="8" fill="#C0C0C0" />
<rect x="176" y="200" width="8" height="8" fill="#FFFF00" />
<rect x="184" y="200" width="56" height="8" fill="#000000" />
<rect x="48" y="208" width="16" height="8" fill="#FFFFFF" />
<rect x="64" y="208" width="8" height="8" fill="#FFFF00" />
<rect x="72" y="208" width="8" height="8" fill="#FFFFFF" />
<rect x="80" y="208" width="8" height="8" fill="#FFFF00" />
<rect x="88" y="208" width="8" height="8" fill="#FFFFFF" />
<rect x="96" y="208" width="8" height="8" fill="#FFFF00" />
<rect x="104" y="208" width="8" height="8" fill="#FFFFFF" />
<rect x="112" y="208" width="8" height="8" fill="#FFFF00" />
<rect x="120" y="208" width="8" height="8" fill="#FFFFFF" />
<rect x="128" y="208" width="8" height="8" fill="#FFFF00" />
<rect x="136" y="208" width="8" height="8" fill="#FFFFFF" />
<rect x="144" y="208" width="8" height="8" fill="#FFFF00" />
<rect x="152" y="208" width="8" height="8" fill="#FFFFFF" />
<rect x="160" y="208" width="16" height="8" fill="#FFFF00" />
<rect x="176" y="208" width="24" height="8" fill="#C0C0C0" />
<rect x="200" y="208" width="16" height="16" fill="#808000" />
<rect x="216" y="208" width="8" height="16" fill="#000000" />
<rect x="48" y="216" width="8" height="8" fill="#808000" />
<rect x="56" y="216" width="8" height="8" fill="#FFFF00" />
<rect x="64" y="216" width="8" height="8" fill="#FFFFFF" />
<rect x="72" y="216" width="8" height="8" fill="#FFFF00" />
<rect x="80" y="216" width="8" height="8" fill="#FFFFFF" />
<rect x="88" y="216" width="8" height="8" fill="#FFFF00" />
<rect x="96" y="216" width="8" height="8" fill="#FFFFFF" />
<rect x="104" y="216" width="8" height="8" fill="#FFFF00" />
<rect x="112" y="216" width="8" height="8" fill="#FFFFFF" />
<rect x="120" y="216" width="8" height="8" fill="#FFFF00" />
<rect x="128" y="216" width="8" height="8" fill="#FFFFFF" />
<rect x="136" y="216" width="8" height="8" fill="#FFFF00" />
<rect x="144" y="216" width="8" height="8" fill="#FFFFFF" />
<rect x="152" y="216" width="16" height="8" fill="#FFFF00" />
<rect x="168" y="216" width="8" height="8" fill="#C0C0C0" />
<rect x="176" y="216" width="8" height="8" fill="#FFFF00" />
<rect x="184" y="216" width="16" height="8" fill="#C0C0C0" />
<rect x="24" y="224" width="24" height="16" fill="#00FF00" />
<rect x="48" y="224" width="8" height="8" fill="#000000" />
<rect x="56" y="224" width="16" height="8" fill="#808000" />
<rect x="72" y="224" width="8" height="8" fill="#FFFFFF" />
<rect x="80" y="224" width="8" height="8" fill="#FFFF00" />
<rect x="88" y="224" width="8" height="8" fill="#FFFFFF" />
<rect x="96" y="224" width="8" height="8" fill="#FFFF00" />
<rect x="104" y="224" width="8" height="8" fill="#FFFFFF" />
<rect x="112" y="224" width="8" height="8" fill="#FFFF00" />
<rect x="120" y="224" width="8" height="8" fill="#FFFFFF" />
<rect x="128" y="224" width="8" height="8" fill="#FFFF00" />
<rect x="136" y="224" width="8" height="8" fill="#FFFFFF" />
<rect x="144" y="224" width="8" height="8" fill="#FFFF00" />
<rect x="152" y="224" width="8" height="8" fill="#FFFFFF" />
<rect x="160" y="224" width="16" height="8" fill="#FFFF00" />
<rect x="176" y="224" width="16" height="8" fill="#C0C0C0" />
<rect x="192" y="224" width="16" height="8" fill="#808000" />
<rect x="208" y="224" width="8" height="8" fill="#000000" />
<rect x="8" y="232" width="16" height="8" fill="#00FF00" />
<rect x="48" y="232" width="8" height="16" fill="#00FF00" />
<rect x="56" y="232" width="16" height="8" fill="#000000" />
<rect x="72" y="232" width="16" height="8" fill="#808000" />
<rect x="88" y="232" width="8" height="8" fill="#FFFF00" />
<rect x="96" y="232" width="8" height="8" fill="#FFFFFF" />
<rect x="104" y="232" width="8" height="8" fill="#FFFF00" />
<rect x="112" y="232" width="8" height="8" fill="#FFFFFF" />
<rect x="120" y="232" width="8" height="8" fill="#FFFF00" />
<rect x="128" y="232" width="8" height="8" fill="#FFFFFF" />
<rect x="136" y="232" width="8" height="8" fill="#FFFF00" />
<rect x="144" y="232" width="8" height="8" fill="#FFFFFF" />
<rect x="152" y="232" width="16" height="8" fill="#FFFF00" />
<rect x="168" y="232" width="8" height="8" fill="#C0C0C0" />
<rect x="176" y="232" width="16" height="8" fill="#808000" />
<rect x="192" y="232" width="16" height="8" fill="#000000" />
<rect x="0" y="240" width="8" height="8" fill="#00FF00" />
<rect x="8" y="240" width="24" height="8" fill="#008000" />
<rect x="32" y="240" width="16" height="8" fill="#00FF00" />
<rect x="56" y="240" width="8" height="8" fill="#008000" />
<rect x="72" y="240" width="16" height="8" fill="#000000" />
<rect x="88" y="240" width="88" height="8" fill="#808000" />
<rect x="176" y="240" width="16" height="8" fill="#000000" />
<rect x="32" y="248" width="24" height="8" fill="#008000" />
<rect x="88" y="248" width="88" height="8" fill="#000000" />
</svg>
