<?xml version="1.0" encoding="UTF-8" ?>
<svg version="1.1" width="24" height="24" xmlns="http://www.w3.org/2000/svg">
<rect x="2" y="0" width="8" height="1" fill="#808080" />
<rect x="1" y="1" width="1" height="1" fill="#808080" />
<rect x="2" y="1" width="1" height="1" fill="#FFFFFF" />
<rect x="3" y="1" width="7" height="1" fill="#FFFF00" />
<rect x="10" y="1" width="1" height="1" fill="#808080" />
<rect x="0" y="2" width="1" height="13" fill="#808080" />
<rect x="1" y="2" width="10" height="1" fill="#C0C0C0" />
<rect x="11" y="2" width="7" height="1" fill="#808080" />
<rect x="1" y="3" width="17" height="1" fill="#FFFFFF" />
<rect x="18" y="3" width="1" height="1" fill="#000000" />
<rect x="1" y="4" width="1" height="11" fill="#FFFFFF" />
<rect x="2" y="4" width="16" height="12" fill="#FFFF00" />
<rect x="3" y="4" width="1" height="1" fill="#C0C0C0" />
<!-- <rect x="4" y="4" width="1" height="1" fill="#FFFF00" /> -->
<rect x="5" y="4" width="1" height="1" fill="#C0C0C0" />
<!-- <rect x="6" y="4" width="1" height="1" fill="#FFFF00" /> -->
<rect x="7" y="4" width="1" height="1" fill="#C0C0C0" />
<!-- <rect x="8" y="4" width="1" height="1" fill="#FFFF00" /> -->
<rect x="9" y="4" width="1" height="1" fill="#C0C0C0" />
<!-- <rect x="10" y="4" width="1" height="1" fill="#FFFF00" /> -->
<rect x="11" y="4" width="1" height="1" fill="#C0C0C0" />
<!-- <rect x="12" y="4" width="1" height="1" fill="#FFFF00" /> -->
<rect x="13" y="4" width="1" height="1" fill="#C0C0C0" />
<!-- <rect x="14" y="4" width="1" height="1" fill="#FFFF00" /> -->
<rect x="15" y="4" width="1" height="1" fill="#C0C0C0" />
<!-- <rect x="16" y="4" width="1" height="1" fill="#FFFF00" /> -->
<rect x="17" y="4" width="1" height="1" fill="#C0C0C0" />
<rect x="18" y="4" width="1" height="3" fill="#808000" />
<rect x="19" y="4" width="1" height="3" fill="#000000" />
<rect x="2" y="5" width="1" height="1" fill="#C0C0C0" />
<!-- <rect x="3" y="5" width="1" height="1" fill="#FFFF00" /> -->
<rect x="4" y="5" width="1" height="1" fill="#C0C0C0" />
<!-- <rect x="5" y="5" width="1" height="1" fill="#FFFF00" /> -->
<rect x="6" y="5" width="1" height="1" fill="#C0C0C0" />
<!-- <rect x="7" y="5" width="1" height="1" fill="#FFFF00" /> -->
<rect x="8" y="5" width="1" height="1" fill="#C0C0C0" />
<!-- <rect x="9" y="5" width="1" height="1" fill="#FFFF00" /> -->
<rect x="10" y="5" width="1" height="1" fill="#C0C0C0" />
<!-- <rect x="11" y="5" width="1" height="1" fill="#FFFF00" /> -->
<rect x="12" y="5" width="1" height="1" fill="#C0C0C0" />
<!-- <rect x="13" y="5" width="1" height="1" fill="#FFFF00" /> -->
<rect x="14" y="5" width="1" height="1" fill="#C0C0C0" />
<!-- <rect x="15" y="5" width="1" height="1" fill="#FFFF00" /> -->
<rect x="16" y="5" width="1" height="1" fill="#C0C0C0" />
<!-- <rect x="17" y="5" width="1" height="1" fill="#FFFF00" /> -->
<!-- <rect x="2" y="6" width="1" height="1" fill="#FFFF00" /> -->
<rect x="3" y="6" width="1" height="1" fill="#C0C0C0" />
<!-- <rect x="4" y="6" width="1" height="1" fill="#FFFF00" /> -->
<rect x="5" y="6" width="1" height="1" fill="#C0C0C0" />
<!-- <rect x="6" y="6" width="1" height="1" fill="#FFFF00" /> -->
<rect x="7" y="6" width="1" height="1" fill="#C0C0C0" />
<!-- <rect x="8" y="6" width="1" height="1" fill="#FFFF00" /> -->
<rect x="9" y="6" width="1" height="1" fill="#C0C0C0" />
<!-- <rect x="10" y="6" width="1" height="1" fill="#FFFF00" /> -->
<rect x="11" y="6" width="1" height="1" fill="#C0C0C0" />
<!-- <rect x="12" y="6" width="1" height="1" fill="#FFFF00" /> -->
<rect x="13" y="6" width="1" height="1" fill="#C0C0C0" />
<!-- <rect x="14" y="6" width="1" height="1" fill="#FFFF00" /> -->
<rect x="15" y="6" width="1" height="1" fill="#C0C0C0" />
<!-- <rect x="16" y="6" width="1" height="1" fill="#FFFF00" /> -->
<rect x="17" y="6" width="1" height="1" fill="#C0C0C0" />
<rect x="2" y="7" width="1" height="1" fill="#C0C0C0" />
<!-- <rect x="3" y="7" width="1" height="1" fill="#FFFF00" /> -->
<rect x="4" y="7" width="1" height="1" fill="#C0C0C0" />
<rect x="5" y="7" width="18" height="1" fill="#808080" />
<rect x="23" y="7" width="1" height="17" fill="#000000" />
<!-- <rect x="2" y="8" width="1" height="1" fill="#FFFF00" /> -->
<rect x="3" y="8" width="1" height="1" fill="#C0C0C0" />
<!-- <rect x="4" y="8" width="1" height="1" fill="#FFFF00" /> -->
<rect x="5" y="8" width="1" height="15" fill="#808080" />
<rect x="6" y="8" width="17" height="1" fill="#C0C0C0" />
<rect x="2" y="9" width="1" height="1" fill="#C0C0C0" />
<!-- <rect x="3" y="9" width="1" height="1" fill="#FFFF00" /> -->
<rect x="4" y="9" width="1" height="1" fill="#C0C0C0" />
<rect x="6" y="9" width="1" height="14" fill="#C0C0C0" />
<rect x="7" y="9" width="9" height="2" fill="#000080" />
<rect x="16" y="9" width="1" height="1" fill="#FFFFFF" />
<rect x="17" y="9" width="1" height="2" fill="#000000" />
<rect x="18" y="9" width="1" height="1" fill="#FFFFFF" />
<rect x="19" y="9" width="1" height="2" fill="#000000" />
<rect x="20" y="9" width="1" height="1" fill="#FFFFFF" />
<rect x="21" y="9" width="1" height="2" fill="#000000" />
<rect x="22" y="9" width="1" height="14" fill="#C0C0C0" />
<!-- <rect x="2" y="10" width="1" height="1" fill="#FFFF00" /> -->
<rect x="3" y="10" width="1" height="1" fill="#C0C0C0" />
<!-- <rect x="4" y="10" width="1" height="1" fill="#FFFF00" /> -->
<rect x="16" y="10" width="1" height="1" fill="#000000" />
<rect x="18" y="10" width="1" height="1" fill="#000000" />
<rect x="20" y="10" width="1" height="1" fill="#000000" />
<rect x="2" y="11" width="1" height="1" fill="#C0C0C0" />
<!-- <rect x="3" y="11" width="1" height="1" fill="#FFFF00" /> -->
<rect x="4" y="11" width="1" height="1" fill="#C0C0C0" />
<rect x="7" y="11" width="15" height="1" fill="#C0C0C0" />
<!-- <rect x="2" y="12" width="1" height="1" fill="#FFFF00" /> -->
<rect x="3" y="12" width="1" height="1" fill="#C0C0C0" />
<!-- <rect x="4" y="12" width="1" height="1" fill="#FFFF00" /> -->
<rect x="7" y="12" width="15" height="2" fill="#FFFFFF" />
<rect x="2" y="13" width="1" height="1" fill="#C0C0C0" />
<!-- <rect x="3" y="13" width="1" height="1" fill="#FFFF00" /> -->
<rect x="4" y="13" width="1" height="1" fill="#C0C0C0" />
<rect x="3" y="14" width="1" height="1" fill="#C0C0C0" />
<rect x="7" y="14" width="2" height="1" fill="#FFFFFF" />
<rect x="9" y="14" width="1" height="1" fill="#FF0000" />
<rect x="10" y="14" width="1" height="3" fill="#800000" />
<rect x="11" y="14" width="2" height="3" fill="#FFFFFF" />
<rect x="13" y="14" width="1" height="1" fill="#0000FF" />
<rect x="14" y="14" width="5" height="1" fill="#FFFFFF" />
<rect x="19" y="14" width="1" height="2" fill="#008000" />
<rect x="20" y="14" width="2" height="1" fill="#FFFFFF" />
<rect x="0" y="15" width="5" height="1" fill="#808000" />
<rect x="7" y="15" width="1" height="7" fill="#FFFFFF" />
<rect x="8" y="15" width="1" height="1" fill="#FF0000" />
<rect x="9" y="15" width="1" height="1" fill="#FFFF00" />
<rect x="13" y="15" width="1" height="1" fill="#00FFFF" />
<rect x="14" y="15" width="2" height="1" fill="#0000FF" />
<rect x="16" y="15" width="3" height="1" fill="#FFFFFF" />
<rect x="20" y="15" width="1" height="1" fill="#008000" />
<rect x="21" y="15" width="1" height="7" fill="#FFFFFF" />
<rect x="1" y="16" width="4" height="1" fill="#000000" />
<rect x="8" y="16" width="1" height="1" fill="#800000" />
<rect x="9" y="16" width="1" height="1" fill="#FF0000" />
<rect x="13" y="16" width="2" height="1" fill="#0000FF" />
<rect x="15" y="16" width="1" height="1" fill="#C0C0C0" />
<rect x="16" y="16" width="2" height="6" fill="#FFFFFF" />
<rect x="18" y="16" width="1" height="2" fill="#008000" />
<rect x="19" y="16" width="1" height="1" fill="#00FF00" />
<rect x="20" y="16" width="1" height="1" fill="#0000FF" />
<rect x="8" y="17" width="1" height="1" fill="#C0C0C0" />
<rect x="9" y="17" width="1" height="1" fill="#800000" />
<rect x="10" y="17" width="2" height="2" fill="#FFFFFF" />
<rect x="12" y="17" width="1" height="1" fill="#800080" />
<rect x="13" y="17" width="1" height="1" fill="#C0C0C0" />
<rect x="14" y="17" width="2" height="1" fill="#800080" />
<rect x="19" y="17" width="2" height="1" fill="#008000" />
<rect x="8" y="18" width="2" height="1" fill="#FFFFFF" />
<rect x="12" y="18" width="4" height="1" fill="#FFFFFF" />
<rect x="18" y="18" width="3" height="1" fill="#FFFFFF" />
<rect x="8" y="19" width="3" height="1" fill="#808080" />
<rect x="11" y="19" width="2" height="3" fill="#FFFFFF" />
<rect x="13" y="19" width="3" height="1" fill="#808080" />
<rect x="18" y="19" width="3" height="1" fill="#808080" />
<rect x="8" y="20" width="3" height="2" fill="#FFFFFF" />
<rect x="13" y="20" width="3" height="2" fill="#FFFFFF" />
<rect x="18" y="20" width="3" height="2" fill="#FFFFFF" />
<rect x="7" y="22" width="15" height="1" fill="#C0C0C0" />
<rect x="5" y="23" width="18" height="1" fill="#000000" />
</svg>
