<?xml version="1.0" encoding="UTF-8" ?>
<svg version="1.1" width="24" height="24" xmlns="http://www.w3.org/2000/svg">
<rect x="0" y="0" width="16" height="1" fill="#808080" />
<rect x="16" y="0" width="1" height="10" fill="#000000" />
<rect x="0" y="1" width="1" height="18" fill="#808080" />
<rect x="1" y="1" width="14" height="1" fill="#C0C0C0" />
<rect x="15" y="1" width="1" height="6" fill="#808080" />
<rect x="1" y="2" width="3" height="11" fill="#C0C0C0" />
<rect x="4" y="2" width="7" height="1" fill="#808080" />
<rect x="11" y="2" width="1" height="4" fill="#FFFFFF" />
<rect x="12" y="2" width="3" height="4" fill="#C0C0C0" />
<rect x="4" y="3" width="1" height="6" fill="#808080" />
<rect x="5" y="3" width="5" height="1" fill="#000000" />
<rect x="10" y="3" width="1" height="4" fill="#C0C0C0" />
<rect x="5" y="4" width="1" height="5" fill="#000000" />
<rect x="6" y="4" width="3" height="1" fill="#FFFFFF" />
<rect x="9" y="4" width="1" height="1" fill="#C0C0C0" />
<rect x="6" y="5" width="2" height="1" fill="#FFFFFF" />
<rect x="8" y="5" width="1" height="1" fill="#C0C0C0" />
<rect x="9" y="5" width="1" height="1" fill="#000000" />
<rect x="6" y="6" width="1" height="1" fill="#000000" />
<rect x="7" y="6" width="1" height="1" fill="#C0C0C0" />
<rect x="8" y="6" width="1" height="1" fill="#000000" />
<rect x="9" y="6" width="1" height="2" fill="#FFFFFF" />
<rect x="11" y="6" width="4" height="1" fill="#808080" />
<rect x="6" y="7" width="1" height="1" fill="#FFFFFF" />
<rect x="7" y="7" width="1" height="1" fill="#000000" />
<rect x="8" y="7" width="1" height="1" fill="#FFFFFF" />
<rect x="10" y="7" width="1" height="8" fill="#808080" />
<rect x="11" y="7" width="3" height="1" fill="#FFFFFF" />
<rect x="14" y="7" width="1" height="1" fill="#C0C0C0" />
<rect x="15" y="7" width="1" height="9" fill="#000000" />
<rect x="6" y="8" width="2" height="1" fill="#808000" />
<rect x="8" y="8" width="2" height="1" fill="#C0C0C0" />
<rect x="11" y="8" width="4" height="1" fill="#808080" />
<rect x="18" y="8" width="2" height="1" fill="#808080" />
<rect x="4" y="9" width="1" height="1" fill="#FFFFFF" />
<rect x="5" y="9" width="1" height="2" fill="#808000" />
<rect x="6" y="9" width="1" height="1" fill="#FFFF00" />
<rect x="7" y="9" width="1" height="1" fill="#FFFFFF" />
<rect x="8" y="9" width="2" height="1" fill="#000000" />
<rect x="11" y="9" width="1" height="6" fill="#FFFFFF" />
<rect x="12" y="9" width="1" height="6" fill="#C0C0C0" />
<rect x="13" y="9" width="2" height="6" fill="#808080" />
<rect x="17" y="9" width="1" height="1" fill="#000000" />
<rect x="18" y="9" width="1" height="1" fill="#FFFF00" />
<rect x="19" y="9" width="1" height="1" fill="#FFFFFF" />
<rect x="20" y="9" width="1" height="5" fill="#000000" />
<rect x="4" y="10" width="1" height="2" fill="#C0C0C0" />
<rect x="6" y="10" width="1" height="1" fill="#FFFFFF" />
<rect x="7" y="10" width="1" height="1" fill="#FFFF00" />
<rect x="8" y="10" width="1" height="1" fill="#FFFFFF" />
<rect x="9" y="10" width="1" height="1" fill="#808000" />
<rect x="16" y="10" width="1" height="1" fill="#808000" />
<rect x="17" y="10" width="1" height="1" fill="#FFFF00" />
<rect x="18" y="10" width="1" height="1" fill="#FFFFFF" />
<rect x="19" y="10" width="1" height="1" fill="#FFFF00" />
<rect x="5" y="11" width="1" height="2" fill="#000000" />
<rect x="6" y="11" width="1" height="2" fill="#808000" />
<rect x="7" y="11" width="1" height="3" fill="#FFFFFF" />
<rect x="8" y="11" width="1" height="1" fill="#FFFF00" />
<rect x="9" y="11" width="1" height="1" fill="#FFFFFF" />
<rect x="16" y="11" width="1" height="1" fill="#FFFF00" />
<rect x="17" y="11" width="1" height="1" fill="#FFFFFF" />
<rect x="18" y="11" width="1" height="1" fill="#FFFF00" />
<rect x="19" y="11" width="1" height="2" fill="#808000" />
<rect x="4" y="12" width="1" height="1" fill="#808080" />
<rect x="8" y="12" width="1" height="1" fill="#FFFFFF" />
<rect x="9" y="12" width="1" height="1" fill="#000000" />
<rect x="16" y="12" width="1" height="1" fill="#000000" />
<rect x="17" y="12" width="1" height="1" fill="#FFFF00" />
<rect x="18" y="12" width="1" height="1" fill="#FFFFFF" />
<rect x="1" y="13" width="1" height="6" fill="#C0C0C0" />
<rect x="2" y="13" width="4" height="1" fill="#808000" />
<rect x="6" y="13" width="1" height="1" fill="#FFFF00" />
<rect x="8" y="13" width="1" height="1" fill="#000000" />
<rect x="9" y="13" width="1" height="1" fill="#FFFFFF" />
<rect x="16" y="13" width="1" height="1" fill="#FFFFFF" />
<rect x="17" y="13" width="1" height="1" fill="#000000" />
<rect x="18" y="13" width="1" height="1" fill="#FFFF00" />
<rect x="19" y="13" width="1" height="1" fill="#FFFFFF" />
<rect x="21" y="13" width="2" height="1" fill="#000000" />
<rect x="2" y="14" width="1" height="1" fill="#808000" />
<rect x="3" y="14" width="1" height="1" fill="#FFFF00" />
<rect x="4" y="14" width="1" height="1" fill="#FFFFFF" />
<rect x="5" y="14" width="1" height="1" fill="#FFFF00" />
<rect x="6" y="14" width="1" height="1" fill="#FFFFFF" />
<rect x="7" y="14" width="1" height="1" fill="#FFFF00" />
<rect x="8" y="14" width="1" height="1" fill="#FFFFFF" />
<rect x="9" y="14" width="1" height="1" fill="#000000" />
<rect x="16" y="14" width="1" height="1" fill="#000000" />
<rect x="17" y="14" width="1" height="1" fill="#FFFF00" />
<rect x="18" y="14" width="1" height="1" fill="#FFFFFF" />
<rect x="19" y="14" width="1" height="1" fill="#FFFF00" />
<rect x="20" y="14" width="1" height="1" fill="#FFFFFF" />
<rect x="21" y="14" width="1" height="1" fill="#FFFF00" />
<rect x="22" y="14" width="1" height="1" fill="#FFFFFF" />
<rect x="23" y="14" width="1" height="4" fill="#000000" />
<rect x="2" y="15" width="1" height="3" fill="#000000" />
<rect x="3" y="15" width="4" height="1" fill="#808000" />
<rect x="7" y="15" width="1" height="1" fill="#FFFFFF" />
<rect x="8" y="15" width="1" height="1" fill="#FFFF00" />
<rect x="9" y="15" width="1" height="1" fill="#FFFFFF" />
<rect x="10" y="15" width="5" height="1" fill="#000000" />
<rect x="16" y="15" width="1" height="1" fill="#FFFF00" />
<rect x="17" y="15" width="1" height="1" fill="#FFFFFF" />
<rect x="18" y="15" width="1" height="1" fill="#FFFF00" />
<rect x="19" y="15" width="1" height="2" fill="#000000" />
<rect x="20" y="15" width="3" height="2" fill="#808000" />
<rect x="3" y="16" width="3" height="1" fill="#808000" />
<rect x="6" y="16" width="1" height="1" fill="#000000" />
<rect x="7" y="16" width="1" height="1" fill="#808000" />
<rect x="8" y="16" width="1" height="1" fill="#FFFFFF" />
<rect x="9" y="16" width="1" height="1" fill="#FFFF00" />
<rect x="10" y="16" width="1" height="1" fill="#FFFFFF" />
<rect x="11" y="16" width="1" height="1" fill="#FFFF00" />
<rect x="12" y="16" width="1" height="1" fill="#FFFFFF" />
<rect x="13" y="16" width="1" height="1" fill="#FFFF00" />
<rect x="14" y="16" width="1" height="1" fill="#FFFFFF" />
<rect x="15" y="16" width="1" height="1" fill="#FFFF00" />
<rect x="16" y="16" width="1" height="1" fill="#FFFFFF" />
<rect x="17" y="16" width="1" height="1" fill="#FFFF00" />
<rect x="18" y="16" width="1" height="1" fill="#808000" />
<rect x="3" y="17" width="2" height="1" fill="#808000" />
<rect x="5" y="17" width="1" height="1" fill="#000000" />
<rect x="6" y="17" width="1" height="1" fill="#FFFF00" />
<rect x="7" y="17" width="1" height="1" fill="#FFFFFF" />
<rect x="8" y="17" width="1" height="1" fill="#FFFF00" />
<rect x="9" y="17" width="2" height="1" fill="#000000" />
<rect x="11" y="17" width="1" height="5" fill="#808000" />
<rect x="12" y="17" width="1" height="1" fill="#FFFF00" />
<rect x="13" y="17" width="1" height="1" fill="#FFFFFF" />
<rect x="14" y="17" width="1" height="1" fill="#808000" />
<rect x="15" y="17" width="2" height="1" fill="#000000" />
<rect x="17" y="17" width="1" height="1" fill="#FFFFFF" />
<rect x="18" y="17" width="1" height="1" fill="#FFFF00" />
<rect x="19" y="17" width="1" height="1" fill="#FFFFFF" />
<rect x="20" y="17" width="1" height="5" fill="#000000" />
<rect x="21" y="17" width="2" height="1" fill="#808000" />
<rect x="2" y="18" width="1" height="1" fill="#C0C0C0" />
<rect x="3" y="18" width="2" height="2" fill="#000000" />
<rect x="5" y="18" width="2" height="1" fill="#808000" />
<rect x="7" y="18" width="1" height="1" fill="#FFFF00" />
<rect x="8" y="18" width="1" height="1" fill="#000000" />
<rect x="9" y="18" width="2" height="2" fill="#808000" />
<rect x="12" y="18" width="1" height="1" fill="#FFFFFF" />
<rect x="13" y="18" width="1" height="1" fill="#FFFF00" />
<rect x="14" y="18" width="1" height="6" fill="#000000" />
<rect x="15" y="18" width="3" height="2" fill="#808000" />
<rect x="18" y="18" width="1" height="1" fill="#FFFFFF" />
<rect x="19" y="18" width="1" height="4" fill="#808000" />
<rect x="21" y="18" width="2" height="1" fill="#000000" />
<rect x="0" y="19" width="3" height="1" fill="#000000" />
<rect x="5" y="19" width="1" height="3" fill="#808000" />
<rect x="6" y="19" width="1" height="3" fill="#FFFF00" />
<rect x="7" y="19" width="1" height="4" fill="#000000" />
<rect x="8" y="19" width="1" height="2" fill="#808000" />
<rect x="12" y="19" width="1" height="1" fill="#FFFF00" />
<rect x="13" y="19" width="1" height="1" fill="#FFFFFF" />
<rect x="18" y="19" width="1" height="3" fill="#808000" />
<rect x="21" y="19" width="1" height="1" fill="#000000" />
<rect x="9" y="20" width="2" height="1" fill="#000000" />
<rect x="12" y="20" width="2" height="3" fill="#808000" />
<rect x="15" y="20" width="2" height="1" fill="#000000" />
<rect x="17" y="20" width="1" height="1" fill="#808000" />
<rect x="8" y="21" width="1" height="1" fill="#000000" />
<rect x="17" y="21" width="1" height="1" fill="#000000" />
<rect x="6" y="22" width="1" height="1" fill="#000000" />
<rect x="11" y="22" width="1" height="2" fill="#000000" />
<rect x="18" y="22" width="2" height="1" fill="#000000" />
<rect x="12" y="23" width="2" height="1" fill="#000000" />
</svg>
