<?xml version="1.0" encoding="UTF-8" ?>
<svg version="1.1" width="27" height="31" xmlns="http://www.w3.org/2000/svg">
<rect x="6" y="0" width="4" height="1" fill="#808080" />
<rect x="4" y="1" width="2" height="1" fill="#808080" />
<rect x="6" y="1" width="4" height="2" fill="#C0C0C0" />
<rect x="10" y="1" width="2" height="1" fill="#808080" />
<rect x="2" y="2" width="2" height="1" fill="#808080" />
<rect x="4" y="2" width="2" height="1" fill="#C0C0C0" />
<rect x="10" y="2" width="2" height="3" fill="#C0C0C0" />
<rect x="12" y="2" width="8" height="1" fill="#808080" />
<rect x="1" y="3" width="1" height="14" fill="#808080" />
<rect x="2" y="3" width="5" height="1" fill="#FFFFFF" />
<rect x="7" y="3" width="3" height="1" fill="#C0C0C0" />
<rect x="12" y="3" width="2" height="3" fill="#C0C0C0" />
<rect x="14" y="3" width="2" height="1" fill="#808080" />
<rect x="16" y="3" width="4" height="1" fill="#C0C0C0" />
<rect x="20" y="3" width="2" height="1" fill="#808080" />
<rect x="2" y="4" width="1" height="11" fill="#FFFFFF" />
<rect x="3" y="4" width="4" height="1" fill="#C0C0C0" />
<rect x="7" y="4" width="2" height="1" fill="#FFFFFF" />
<rect x="9" y="4" width="1" height="1" fill="#C0C0C0" />
<rect x="14" y="4" width="2" height="3" fill="#C0C0C0" />
<rect x="16" y="4" width="2" height="1" fill="#808080" />
<rect x="18" y="4" width="4" height="1" fill="#C0C0C0" />
<rect x="22" y="4" width="2" height="1" fill="#808080" />
<rect x="3" y="5" width="1" height="10" fill="#C0C0C0" />
<rect x="4" y="5" width="1" height="10" fill="#000000" />
<rect x="5" y="5" width="2" height="1" fill="#808080" />
<rect x="7" y="5" width="2" height="1" fill="#C0C0C0" />
<rect x="9" y="5" width="2" height="1" fill="#FFFFFF" />
<rect x="11" y="5" width="1" height="1" fill="#C0C0C0" />
<rect x="16" y="5" width="2" height="3" fill="#C0C0C0" />
<rect x="18" y="5" width="2" height="1" fill="#808080" />
<rect x="20" y="5" width="4" height="1" fill="#C0C0C0" />
<rect x="24" y="5" width="1" height="11" fill="#808080" />
<rect x="5" y="6" width="2" height="1" fill="#000080" />
<rect x="7" y="6" width="2" height="1" fill="#808080" />
<rect x="9" y="6" width="2" height="1" fill="#C0C0C0" />
<rect x="11" y="6" width="2" height="1" fill="#FFFFFF" />
<rect x="13" y="6" width="1" height="1" fill="#C0C0C0" />
<rect x="18" y="6" width="2" height="1" fill="#C0C0C0" />
<rect x="20" y="6" width="1" height="16" fill="#000000" />
<rect x="21" y="6" width="1" height="1" fill="#C0C0C0" />
<rect x="22" y="6" width="2" height="11" fill="#808080" />
<rect x="25" y="6" width="1" height="10" fill="#000000" />
<rect x="5" y="7" width="2" height="3" fill="#0000FF" />
<rect x="7" y="7" width="2" height="1" fill="#000080" />
<rect x="9" y="7" width="2" height="1" fill="#808080" />
<rect x="11" y="7" width="2" height="1" fill="#C0C0C0" />
<rect x="13" y="7" width="2" height="1" fill="#FFFFFF" />
<rect x="15" y="7" width="1" height="16" fill="#C0C0C0" />
<rect x="18" y="7" width="2" height="15" fill="#808080" />
<rect x="21" y="7" width="1" height="12" fill="#808080" />
<rect x="7" y="8" width="2" height="1" fill="#0000FF" />
<rect x="9" y="8" width="2" height="1" fill="#000080" />
<rect x="11" y="8" width="2" height="1" fill="#808080" />
<rect x="13" y="8" width="2" height="1" fill="#C0C0C0" />
<rect x="16" y="8" width="2" height="15" fill="#808080" />
<rect x="7" y="9" width="1" height="2" fill="#0000FF" />
<rect x="8" y="9" width="1" height="2" fill="#00FFFF" />
<rect x="9" y="9" width="2" height="2" fill="#0000FF" />
<rect x="11" y="9" width="2" height="1" fill="#000080" />
<rect x="13" y="9" width="2" height="1" fill="#808080" />
<rect x="5" y="10" width="1" height="4" fill="#0000FF" />
<rect x="6" y="10" width="1" height="1" fill="#00FFFF" />
<rect x="11" y="10" width="1" height="1" fill="#00FFFF" />
<rect x="12" y="10" width="1" height="8" fill="#0000FF" />
<rect x="13" y="10" width="2" height="1" fill="#000080" />
<rect x="6" y="11" width="1" height="1" fill="#0000FF" />
<rect x="7" y="11" width="1" height="1" fill="#00FFFF" />
<rect x="8" y="11" width="1" height="1" fill="#FFFFFF" />
<rect x="9" y="11" width="1" height="1" fill="#0000FF" />
<rect x="10" y="11" width="1" height="1" fill="#00FFFF" />
<rect x="11" y="11" width="1" height="6" fill="#0000FF" />
<rect x="13" y="11" width="1" height="7" fill="#0000FF" />
<rect x="14" y="11" width="1" height="9" fill="#000080" />
<rect x="6" y="12" width="1" height="1" fill="#00FFFF" />
<rect x="7" y="12" width="1" height="3" fill="#0000FF" />
<rect x="8" y="12" width="1" height="1" fill="#FFFF00" />
<rect x="9" y="12" width="1" height="1" fill="#00FFFF" />
<rect x="10" y="12" width="1" height="2" fill="#0000FF" />
<rect x="6" y="13" width="1" height="2" fill="#0000FF" />
<rect x="8" y="13" width="1" height="2" fill="#00FFFF" />
<rect x="9" y="13" width="1" height="3" fill="#0000FF" />
<rect x="5" y="14" width="1" height="1" fill="#000080" />
<rect x="10" y="14" width="1" height="1" fill="#00FFFF" />
<rect x="2" y="15" width="1" height="1" fill="#C0C0C0" />
<rect x="3" y="15" width="3" height="1" fill="#808080" />
<rect x="6" y="15" width="2" height="1" fill="#000080" />
<rect x="8" y="15" width="1" height="1" fill="#0000FF" />
<rect x="10" y="15" width="1" height="2" fill="#0000FF" />
<rect x="2" y="16" width="1" height="1" fill="#000000" />
<rect x="3" y="16" width="3" height="1" fill="#C0C0C0" />
<rect x="6" y="16" width="2" height="1" fill="#808080" />
<rect x="8" y="16" width="2" height="1" fill="#000080" />
<rect x="24" y="16" width="1" height="1" fill="#000000" />
<rect x="0" y="17" width="1" height="6" fill="#808080" />
<rect x="1" y="17" width="2" height="1" fill="#C0C0C0" />
<rect x="3" y="17" width="2" height="1" fill="#000000" />
<rect x="5" y="17" width="3" height="1" fill="#C0C0C0" />
<rect x="8" y="17" width="2" height="1" fill="#808080" />
<rect x="10" y="17" width="2" height="1" fill="#000080" />
<rect x="22" y="17" width="1" height="1" fill="#808080" />
<rect x="23" y="17" width="1" height="2" fill="#000000" />
<rect x="1" y="18" width="2" height="1" fill="#FFFFFF" />
<rect x="3" y="18" width="2" height="1" fill="#C0C0C0" />
<rect x="5" y="18" width="2" height="1" fill="#000000" />
<rect x="7" y="18" width="3" height="1" fill="#C0C0C0" />
<rect x="10" y="18" width="2" height="1" fill="#808080" />
<rect x="12" y="18" width="2" height="1" fill="#000080" />
<rect x="22" y="18" width="1" height="1" fill="#000000" />
<rect x="1" y="19" width="1" height="4" fill="#FFFFFF" />
<rect x="2" y="19" width="1" height="4" fill="#C0C0C0" />
<rect x="3" y="19" width="2" height="1" fill="#FFFFFF" />
<rect x="5" y="19" width="2" height="1" fill="#C0C0C0" />
<rect x="7" y="19" width="2" height="1" fill="#000000" />
<rect x="9" y="19" width="3" height="1" fill="#C0C0C0" />
<rect x="12" y="19" width="2" height="1" fill="#808080" />
<rect x="21" y="19" width="1" height="1" fill="#000000" />
<rect x="22" y="19" width="2" height="3" fill="#808080" />
<rect x="24" y="19" width="2" height="1" fill="#000000" />
<rect x="3" y="20" width="2" height="1" fill="#C0C0C0" />
<rect x="5" y="20" width="2" height="1" fill="#FFFFFF" />
<rect x="7" y="20" width="2" height="1" fill="#C0C0C0" />
<rect x="9" y="20" width="2" height="1" fill="#000000" />
<rect x="11" y="20" width="3" height="1" fill="#C0C0C0" />
<rect x="14" y="20" width="1" height="1" fill="#808080" />
<rect x="21" y="20" width="1" height="3" fill="#808080" />
<rect x="24" y="20" width="2" height="1" fill="#808080" />
<rect x="26" y="20" width="1" height="6" fill="#000000" />
<rect x="3" y="21" width="2" height="1" fill="#00FF00" />
<rect x="5" y="21" width="2" height="4" fill="#C0C0C0" />
<rect x="7" y="21" width="2" height="1" fill="#FFFFFF" />
<rect x="9" y="21" width="2" height="1" fill="#C0C0C0" />
<rect x="11" y="21" width="2" height="1" fill="#000000" />
<rect x="13" y="21" width="2" height="1" fill="#C0C0C0" />
<rect x="24" y="21" width="2" height="1" fill="#C0C0C0" />
<rect x="3" y="22" width="2" height="1" fill="#008000" />
<rect x="7" y="22" width="2" height="4" fill="#C0C0C0" />
<rect x="9" y="22" width="2" height="1" fill="#FFFFFF" />
<rect x="11" y="22" width="2" height="1" fill="#C0C0C0" />
<rect x="13" y="22" width="2" height="1" fill="#000000" />
<rect x="18" y="22" width="2" height="1" fill="#000000" />
<rect x="20" y="22" width="1" height="1" fill="#808080" />
<rect x="22" y="22" width="2" height="1" fill="#C0C0C0" />
<rect x="24" y="22" width="2" height="4" fill="#808080" />
<rect x="1" y="23" width="2" height="1" fill="#000000" />
<rect x="3" y="23" width="2" height="1" fill="#C0C0C0" />
<rect x="9" y="23" width="2" height="4" fill="#C0C0C0" />
<rect x="11" y="23" width="2" height="1" fill="#FFFFFF" />
<rect x="13" y="23" width="2" height="1" fill="#C0C0C0" />
<rect x="15" y="23" width="3" height="1" fill="#000000" />
<rect x="18" y="23" width="2" height="1" fill="#808080" />
<rect x="20" y="23" width="2" height="1" fill="#C0C0C0" />
<rect x="22" y="23" width="2" height="4" fill="#808080" />
<rect x="3" y="24" width="2" height="1" fill="#000000" />
<rect x="11" y="24" width="2" height="4" fill="#C0C0C0" />
<rect x="13" y="24" width="2" height="1" fill="#FFFFFF" />
<rect x="15" y="24" width="1" height="1" fill="#C0C0C0" />
<rect x="16" y="24" width="2" height="1" fill="#808080" />
<rect x="18" y="24" width="2" height="1" fill="#C0C0C0" />
<rect x="20" y="24" width="2" height="4" fill="#808080" />
<rect x="5" y="25" width="2" height="1" fill="#000000" />
<rect x="13" y="25" width="2" height="4" fill="#C0C0C0" />
<rect x="15" y="25" width="1" height="1" fill="#FFFFFF" />
<rect x="16" y="25" width="2" height="1" fill="#C0C0C0" />
<rect x="18" y="25" width="2" height="4" fill="#808080" />
<rect x="7" y="26" width="2" height="1" fill="#000000" />
<rect x="15" y="26" width="1" height="4" fill="#C0C0C0" />
<rect x="16" y="26" width="2" height="4" fill="#808080" />
<rect x="24" y="26" width="2" height="1" fill="#000000" />
<rect x="9" y="27" width="2" height="1" fill="#000000" />
<rect x="22" y="27" width="2" height="1" fill="#000000" />
<rect x="11" y="28" width="2" height="1" fill="#000000" />
<rect x="20" y="28" width="2" height="1" fill="#000000" />
<rect x="13" y="29" width="2" height="1" fill="#000000" />
<rect x="18" y="29" width="2" height="1" fill="#000000" />
<rect x="15" y="30" width="3" height="1" fill="#000000" />
</svg>
