<?xml version="1.0" encoding="UTF-8" ?>
<svg version="1.1" width="24" height="24" xmlns="http://www.w3.org/2000/svg" shape-rendering="crispEdges">
<rect x="5" y="0" width="4" height="1" fill="#808080" />
<rect x="3" y="1" width="2" height="1" fill="#808080" />
<rect x="5" y="1" width="4" height="2" fill="#C0C0C0" />
<rect x="9" y="1" width="2" height="1" fill="#808080" />
<rect x="1" y="2" width="2" height="1" fill="#808080" />
<rect x="3" y="2" width="1" height="2" fill="#FFFFFF" />
<rect x="4" y="2" width="1" height="1" fill="#C0C0C0" />
<rect x="9" y="2" width="2" height="3" fill="#C0C0C0" />
<rect x="11" y="2" width="7" height="1" fill="#808080" />
<rect x="0" y="3" width="1" height="14" fill="#808080" />
<rect x="1" y="3" width="2" height="1" fill="#FFFFFF" />
<rect x="4" y="3" width="2" height="1" fill="#FFFFFF" />
<rect x="6" y="3" width="3" height="1" fill="#C0C0C0" />
<rect x="11" y="3" width="2" height="3" fill="#C0C0C0" />
<rect x="13" y="3" width="2" height="1" fill="#808080" />
<rect x="15" y="3" width="3" height="1" fill="#C0C0C0" />
<rect x="18" y="3" width="2" height="1" fill="#808080" />
<rect x="1" y="4" width="1" height="11" fill="#FFFFFF" />
<rect x="2" y="4" width="4" height="1" fill="#C0C0C0" />
<rect x="6" y="4" width="2" height="1" fill="#FFFFFF" />
<rect x="8" y="4" width="1" height="1" fill="#C0C0C0" />
<rect x="13" y="4" width="2" height="3" fill="#C0C0C0" />
<rect x="15" y="4" width="2" height="1" fill="#808080" />
<rect x="17" y="4" width="3" height="1" fill="#C0C0C0" />
<rect x="20" y="4" width="2" height="1" fill="#808080" />
<rect x="2" y="5" width="1" height="11" fill="#C0C0C0" />
<rect x="3" y="5" width="1" height="9" fill="#000000" />
<rect x="4" y="5" width="2" height="1" fill="#808080" />
<rect x="6" y="5" width="2" height="1" fill="#C0C0C0" />
<rect x="8" y="5" width="2" height="1" fill="#FFFFFF" />
<rect x="10" y="5" width="1" height="1" fill="#C0C0C0" />
<rect x="15" y="5" width="2" height="3" fill="#C0C0C0" />
<rect x="17" y="5" width="2" height="1" fill="#808080" />
<rect x="19" y="5" width="3" height="1" fill="#C0C0C0" />
<rect x="22" y="5" width="1" height="11" fill="#808080" />
<rect x="4" y="6" width="2" height="1" fill="#000080" />
<rect x="6" y="6" width="2" height="1" fill="#808080" />
<rect x="8" y="6" width="2" height="1" fill="#C0C0C0" />
<rect x="10" y="6" width="2" height="1" fill="#FFFFFF" />
<rect x="12" y="6" width="1" height="1" fill="#C0C0C0" />
<rect x="17" y="6" width="2" height="1" fill="#C0C0C0" />
<rect x="19" y="6" width="1" height="16" fill="#000000" />
<rect x="20" y="6" width="1" height="1" fill="#C0C0C0" />
<rect x="21" y="6" width="1" height="11" fill="#808080" />
<rect x="23" y="6" width="1" height="10" fill="#000000" />
<rect x="4" y="7" width="2" height="3" fill="#0000FF" />
<rect x="6" y="7" width="2" height="1" fill="#000080" />
<rect x="8" y="7" width="2" height="1" fill="#808080" />
<rect x="10" y="7" width="2" height="1" fill="#C0C0C0" />
<rect x="12" y="7" width="2" height="1" fill="#FFFFFF" />
<rect x="14" y="7" width="1" height="1" fill="#C0C0C0" />
<rect x="17" y="7" width="2" height="15" fill="#808080" />
<rect x="20" y="7" width="1" height="11" fill="#808080" />
<rect x="6" y="8" width="2" height="1" fill="#0000FF" />
<rect x="8" y="8" width="2" height="1" fill="#000080" />
<rect x="10" y="8" width="2" height="1" fill="#808080" />
<rect x="12" y="8" width="2" height="1" fill="#C0C0C0" />
<rect x="14" y="8" width="1" height="1" fill="#FFFFFF" />
<rect x="15" y="8" width="2" height="15" fill="#808080" />
<rect x="6" y="9" width="1" height="2" fill="#0000FF" />
<rect x="7" y="9" width="1" height="2" fill="#00FFFF" />
<rect x="8" y="9" width="2" height="2" fill="#0000FF" />
<rect x="10" y="9" width="2" height="1" fill="#000080" />
<rect x="12" y="9" width="1" height="1" fill="#808080" />
<rect x="13" y="9" width="2" height="12" fill="#C0C0C0" />
<rect x="4" y="10" width="1" height="4" fill="#0000FF" />
<rect x="5" y="10" width="1" height="1" fill="#00FFFF" />
<rect x="10" y="10" width="1" height="1" fill="#00FFFF" />
<rect x="11" y="10" width="1" height="8" fill="#0000FF" />
<rect x="12" y="10" width="1" height="9" fill="#000080" />
<rect x="5" y="11" width="1" height="1" fill="#0000FF" />
<rect x="6" y="11" width="1" height="1" fill="#00FFFF" />
<rect x="7" y="11" width="1" height="1" fill="#FFFFFF" />
<rect x="8" y="11" width="1" height="1" fill="#0000FF" />
<rect x="9" y="11" width="1" height="1" fill="#00FFFF" />
<rect x="10" y="11" width="1" height="6" fill="#0000FF" />
<rect x="5" y="12" width="1" height="1" fill="#00FFFF" />
<rect x="6" y="12" width="1" height="3" fill="#0000FF" />
<rect x="7" y="12" width="1" height="1" fill="#FFFF00" />
<rect x="8" y="12" width="1" height="1" fill="#00FFFF" />
<rect x="9" y="12" width="1" height="2" fill="#0000FF" />
<rect x="5" y="13" width="1" height="2" fill="#0000FF" />
<rect x="7" y="13" width="1" height="2" fill="#00FFFF" />
<rect x="8" y="13" width="1" height="3" fill="#0000FF" />
<rect x="3" y="14" width="2" height="1" fill="#000080" />
<rect x="9" y="14" width="1" height="1" fill="#00FFFF" />
<rect x="1" y="15" width="1" height="1" fill="#808080" />
<rect x="3" y="15" width="2" height="1" fill="#C0C0C0" />
<rect x="5" y="15" width="2" height="1" fill="#000080" />
<rect x="7" y="15" width="1" height="1" fill="#0000FF" />
<rect x="9" y="15" width="1" height="2" fill="#0000FF" />
<rect x="1" y="16" width="1" height="1" fill="#000000" />
<rect x="2" y="16" width="2" height="1" fill="#808080" />
<rect x="4" y="16" width="3" height="1" fill="#C0C0C0" />
<rect x="7" y="16" width="2" height="1" fill="#000080" />
<rect x="22" y="16" width="1" height="1" fill="#000000" />
<rect x="2" y="17" width="2" height="1" fill="#000000" />
<rect x="4" y="17" width="2" height="1" fill="#808080" />
<rect x="6" y="17" width="3" height="1" fill="#C0C0C0" />
<rect x="9" y="17" width="2" height="1" fill="#000080" />
<rect x="21" y="17" width="1" height="1" fill="#000000" />
<rect x="4" y="18" width="2" height="1" fill="#000000" />
<rect x="6" y="18" width="2" height="1" fill="#808080" />
<rect x="8" y="18" width="3" height="1" fill="#C0C0C0" />
<rect x="11" y="18" width="1" height="1" fill="#000080" />
<rect x="20" y="18" width="1" height="1" fill="#000000" />
<rect x="6" y="19" width="2" height="1" fill="#000000" />
<rect x="8" y="19" width="2" height="1" fill="#808080" />
<rect x="10" y="19" width="3" height="1" fill="#C0C0C0" />
<rect x="8" y="20" width="2" height="1" fill="#000000" />
<rect x="10" y="20" width="2" height="1" fill="#808080" />
<rect x="12" y="20" width="1" height="1" fill="#C0C0C0" />
<rect x="10" y="21" width="2" height="1" fill="#000000" />
<rect x="12" y="21" width="2" height="1" fill="#808080" />
<rect x="14" y="21" width="1" height="1" fill="#C0C0C0" />
<rect x="12" y="22" width="2" height="1" fill="#000000" />
<rect x="14" y="22" width="1" height="1" fill="#808080" />
<rect x="17" y="22" width="2" height="1" fill="#000000" />
<rect x="14" y="23" width="3" height="1" fill="#000000" />
</svg>