<?xml version="1.0" encoding="UTF-8" ?>
<svg version="1.1" width="32" height="32" xmlns="http://www.w3.org/2000/svg">
<rect x="1" y="3" width="1" height="2" fill="#000000" />
<rect x="18" y="4" width="10" height="3" fill="#000000" />
<rect x="3" y="5" width="1" height="2" fill="#000000" />
<rect x="16" y="5" width="2" height="3" fill="#000000" />
<rect x="28" y="5" width="2" height="3" fill="#000000" />
<rect x="6" y="6" width="1" height="2" fill="#000000" />
<rect x="13" y="6" width="1" height="3" fill="#000000" />
<rect x="15" y="6" width="1" height="20" fill="#000000" />
<rect x="30" y="6" width="1" height="20" fill="#000000" />
<rect x="1" y="7" width="1" height="2" fill="#FF0000" />
<rect x="5" y="7" width="1" height="2" fill="#000000" />
<rect x="9" y="7" width="1" height="2" fill="#000000" />
<rect x="11" y="7" width="2" height="2" fill="#000000" />
<rect x="18" y="7" width="2" height="1" fill="#800000" />
<rect x="20" y="7" width="2" height="6" fill="#FF0000" />
<rect x="22" y="7" width="2" height="17" fill="#000000" />
<rect x="24" y="7" width="2" height="6" fill="#00FF00" />
<rect x="26" y="7" width="2" height="1" fill="#008000" />
<rect x="8" y="8" width="1" height="2" fill="#000000" />
<rect x="16" y="8" width="1" height="18" fill="#000000" />
<rect x="17" y="8" width="3" height="5" fill="#FF0000" />
<rect x="26" y="8" width="3" height="5" fill="#00FF00" />
<rect x="29" y="8" width="1" height="18" fill="#000000" />
<rect x="3" y="9" width="1" height="2" fill="#FF0000" />
<rect x="11" y="9" width="1" height="1" fill="#000000" />
<rect x="6" y="10" width="1" height="2" fill="#FF0000" />
<rect x="13" y="10" width="1" height="3" fill="#FF0000" />
<rect x="1" y="11" width="1" height="2" fill="#000000" />
<rect x="5" y="11" width="1" height="2" fill="#FF0000" />
<rect x="9" y="11" width="1" height="2" fill="#FF0000" />
<rect x="11" y="11" width="2" height="2" fill="#FF0000" />
<rect x="8" y="12" width="1" height="2" fill="#FF0000" />
<rect x="3" y="13" width="1" height="2" fill="#000000" />
<rect x="11" y="13" width="1" height="1" fill="#FF0000" />
<rect x="17" y="13" width="1" height="1" fill="#FF0000" />
<rect x="18" y="13" width="2" height="1" fill="#800000" />
<rect x="20" y="13" width="2" height="2" fill="#000000" />
<rect x="24" y="13" width="2" height="2" fill="#000000" />
<rect x="26" y="13" width="2" height="1" fill="#008000" />
<rect x="28" y="13" width="1" height="1" fill="#00FF00" />
<rect x="6" y="14" width="1" height="2" fill="#000000" />
<rect x="13" y="14" width="1" height="3" fill="#000000" />
<rect x="17" y="14" width="3" height="1" fill="#000000" />
<rect x="26" y="14" width="3" height="1" fill="#000000" />
<rect x="1" y="15" width="1" height="2" fill="#0000FF" />
<rect x="5" y="15" width="1" height="2" fill="#000000" />
<rect x="9" y="15" width="1" height="2" fill="#000000" />
<rect x="11" y="15" width="2" height="2" fill="#000000" />
<rect x="17" y="15" width="1" height="1" fill="#000000" />
<rect x="18" y="15" width="2" height="1" fill="#000080" />
<rect x="20" y="15" width="2" height="6" fill="#0000FF" />
<rect x="24" y="15" width="2" height="6" fill="#FFFF00" />
<rect x="26" y="15" width="2" height="1" fill="#808000" />
<rect x="28" y="15" width="1" height="1" fill="#000000" />
<rect x="8" y="16" width="1" height="2" fill="#000000" />
<rect x="17" y="16" width="3" height="5" fill="#0000FF" />
<rect x="26" y="16" width="3" height="5" fill="#FFFF00" />
<rect x="3" y="17" width="1" height="2" fill="#0000FF" />
<rect x="11" y="17" width="1" height="1" fill="#000000" />
<rect x="6" y="18" width="1" height="2" fill="#0000FF" />
<rect x="13" y="18" width="1" height="3" fill="#0000FF" />
<rect x="1" y="19" width="1" height="2" fill="#000000" />
<rect x="5" y="19" width="1" height="2" fill="#0000FF" />
<rect x="9" y="19" width="1" height="2" fill="#0000FF" />
<rect x="11" y="19" width="2" height="2" fill="#0000FF" />
<rect x="8" y="20" width="1" height="2" fill="#0000FF" />
<rect x="3" y="21" width="1" height="2" fill="#000000" />
<rect x="11" y="21" width="1" height="1" fill="#0000FF" />
<rect x="17" y="21" width="1" height="1" fill="#0000FF" />
<rect x="18" y="21" width="2" height="1" fill="#000080" />
<rect x="20" y="21" width="2" height="3" fill="#000000" />
<rect x="24" y="21" width="2" height="3" fill="#000000" />
<rect x="26" y="21" width="2" height="1" fill="#808000" />
<rect x="28" y="21" width="1" height="1" fill="#FFFF00" />
<rect x="6" y="22" width="1" height="2" fill="#000000" />
<rect x="13" y="22" width="1" height="3" fill="#000000" />
<rect x="17" y="22" width="3" height="2" fill="#000000" />
<rect x="26" y="22" width="3" height="2" fill="#000000" />
<rect x="5" y="23" width="1" height="2" fill="#000000" />
<rect x="9" y="23" width="1" height="2" fill="#000000" />
<rect x="11" y="23" width="2" height="2" fill="#000000" />
<rect x="8" y="24" width="1" height="2" fill="#000000" />
<rect x="17" y="24" width="2" height="1" fill="#000000" />
<rect x="27" y="24" width="2" height="1" fill="#000000" />
<rect x="11" y="25" width="1" height="1" fill="#000000" />
</svg>
