<?xml version="1.0" encoding="UTF-8" ?>
<svg version="1.1" width="32" height="32" xmlns="http://www.w3.org/2000/svg">
<rect x="0" y="0" width="32" height="32" fill="#FFFFFF" />
<rect x="0" y="0" width="31" height="1" fill="#000000" />
<rect x="0" y="0" width="1" height="32" fill="#000000" />
<rect x="30" y="0" width="1" height="32" fill="#000000" />
<rect x="31" y="1" width="1" height="31" fill="#808080" />
<rect x="1" y="6" width="29" height="1" fill="#C0C0C0" />
<rect x="7" y="10" width="1" height="1" fill="#000000" />
<rect x="1" y="12" width="29" height="1" fill="#C0C0C0"/>
<rect x="6" y="11" width="3" height="2" fill="#000000" />
<rect x="7" y="11" width="1" height="3" fill="#800080" />
<rect x="7" y="12" width="2" height="2" fill="#800080" />
<rect x="9" y="12" width="1" height="1" fill="#000000" />
<rect x="5" y="13" width="6" height="4" fill="#800080"/>
<rect x="5" y="13" width="1" height="2" fill="#000000" />
<rect x="10" y="13" width="1" height="1" fill="#000000" />
<rect x="10" y="15" width="2" height="2" fill="#800080" />
<rect x="11" y="14" width="1" height="1" fill="#000000" />
<rect x="25" y="14" width="3" height="1" fill="#000000" />
<rect x="1" y="15" width="4" height="1" fill="#000000" />
<rect x="12" y="15" width="4" height="1" fill="#000000" />
<rect x="24" y="15" width="5" height="3" fill="#800080"/>
<rect x="24" y="15" width="1" height="2" fill="#000000" />
<rect x="28" y="15" width="1" height="1" fill="#000000" />
<rect x="1" y="24" width="29" height="5" fill="#00FFFF" />
<rect x="1" y="16" width="16" height="11" fill="#800080" />
<rect x="1" y="26" width="3" height="2" fill="#00FFFF"/>
<rect x="16" y="16" width="1" height="2" fill="#000000" />
<rect x="29" y="16" width="1" height="1" fill="#000000" />
<rect x="23" y="17" width="7" height="4" fill="#800080" />
<rect x="23" y="17" width="1" height="2" fill="#000000" />
<rect x="17" y="18" width="1" height="2" fill="#000000" />
<rect x="18" y="18" width="5" height="1" fill="#C0C0C0" />
<rect x="22" y="19" width="1" height="1" fill="#000000" />
<rect x="16" y="20" width="14" height="6" fill="#800082" />
<rect x="13" y="25" width="6" height="3" fill="#00FFFF"/>
<rect x="18" y="20" width="4" height="1" fill="#000000"/>
<rect x="15" y="23" width="2" height="1" fill="#000000" />
<rect x="26" y="23" width="1" height="1" fill="#000000" />
<rect x="14" y="24" width="4" height="2" fill="#00FFFF"/>
<rect x="14" y="24" width="1" height="1" fill="#000000" />
<rect x="17" y="24" width="1" height="1" fill="#000000" />
<rect x="25" y="24" width="3" height="3" fill="#00FFFF"/>
<rect x="25" y="24" width="1" height="2" fill="#000000" />
<rect x="27" y="24" width="1" height="1" fill="#000000" />
<rect x="0" y="25" width="4" height="1" fill="#000000" />
<rect x="13" y="25" width="1" height="1" fill="#000000" />
<rect x="18" y="25" width="1" height="1" fill="#000000" />
<rect x="28" y="25" width="1" height="1" fill="#000000" />
<rect x="4" y="26" width="2" height="1" fill="#000000" />
<rect x="10" y="26" width="3" height="1" fill="#000000" />
<rect x="19" y="26" width="6" height="1" fill="#000000" />
<rect x="29" y="26" width="2" height="1" fill="#000000" />
<rect x="6" y="27" width="4" height="1" fill="#000000" />
<rect x="1" y="29" width="30" height="2" fill="#000000" />
<rect x="1" y="31" width="31" height="1" fill="#808080" />
</svg>
