<?xml version="1.0" encoding="UTF-8" ?>
<svg version="1.1" width="32" height="32" xmlns="http://www.w3.org/2000/svg">
<rect x="0" y="0" width="3" height="1" fill="#000000" />
<rect x="3" y="0" width="1" height="1" fill="#020000" />
<rect x="4" y="0" width="3" height="1" fill="#000000" />
<rect x="7" y="0" width="1" height="1" fill="#000300" />
<rect x="8" y="0" width="4" height="1" fill="#000000" />
<rect x="12" y="0" width="1" height="1" fill="#000002" />
<rect x="13" y="0" width="1" height="1" fill="#000000" />
<rect x="14" y="0" width="1" height="1" fill="#010000" />
<rect x="15" y="0" width="5" height="1" fill="#000000" />
<rect x="20" y="0" width="1" height="1" fill="#020000" />
<rect x="21" y="0" width="1" height="1" fill="#000000" />
<rect x="22" y="0" width="1" height="1" fill="#000001" />
<rect x="23" y="0" width="3" height="1" fill="#000000" />
<rect x="26" y="0" width="1" height="1" fill="#020000" />
<rect x="27" y="0" width="4" height="1" fill="#000000" />
<rect x="31" y="0" width="1" height="1" fill="#FFFFFF" />
<rect x="0" y="1" width="1" height="10" fill="#000000" />
<rect x="1" y="1" width="1" height="5" fill="#FFFFFF" />
<rect x="2" y="1" width="1" height="1" fill="#FDFFFF" />
<rect x="3" y="1" width="1" height="5" fill="#FFFFFF" />
<rect x="4" y="1" width="1" height="1" fill="#FFFFFE" />
<rect x="5" y="1" width="2" height="5" fill="#FFFFFF" />
<rect x="7" y="1" width="1" height="1" fill="#FFFFFD" />
<rect x="8" y="1" width="1" height="1" fill="#FFFEFF" />
<rect x="9" y="1" width="2" height="2" fill="#FFFFFF" />
<rect x="11" y="1" width="1" height="1" fill="#FDFFFF" />
<rect x="12" y="1" width="2" height="4" fill="#FFFFFF" />
<rect x="14" y="1" width="1" height="1" fill="#FCFFFF" />
<rect x="15" y="1" width="12" height="1" fill="#FFFFFF" />
<rect x="27" y="1" width="1" height="1" fill="#FEFFFF" />
<rect x="28" y="1" width="2" height="3" fill="#FFFFFF" />
<rect x="30" y="1" width="1" height="1" fill="#000000" />
<rect x="31" y="1" width="1" height="18" fill="#808080" />
<rect x="2" y="2" width="1" height="2" fill="#FFFFFF" />
<rect x="4" y="2" width="1" height="4" fill="#FFFFFF" />
<rect x="7" y="2" width="2" height="1" fill="#FFFFFF" />
<rect x="11" y="2" width="1" height="4" fill="#FFFFFF" />
<rect x="14" y="2" width="5" height="1" fill="#FFFFFF" />
<rect x="19" y="2" width="1" height="1" fill="#FEFFFF" />
<rect x="20" y="2" width="1" height="1" fill="#FFFDFF" />
<rect x="21" y="2" width="5" height="2" fill="#FFFFFF" />
<rect x="26" y="2" width="1" height="1" fill="#FFFFFD" />
<rect x="27" y="2" width="1" height="2" fill="#FFFFFF" />
<rect x="30" y="2" width="1" height="1" fill="#000002" />
<rect x="7" y="3" width="1" height="1" fill="#FFFDFF" />
<rect x="8" y="3" width="1" height="3" fill="#FFFFFF" />
<rect x="9" y="3" width="1" height="1" fill="#FEFDFF" />
<rect x="10" y="3" width="1" height="3" fill="#FFFFFF" />
<rect x="14" y="3" width="3" height="3" fill="#FFFFFF" />
<rect x="17" y="3" width="1" height="1" fill="#FFFFFE" />
<rect x="18" y="3" width="2" height="2" fill="#FFFFFF" />
<rect x="20" y="3" width="1" height="1" fill="#FFFFFD" />
<rect x="26" y="3" width="1" height="3" fill="#FFFFFF" />
<rect x="30" y="3" width="1" height="1" fill="#000000" />
<rect x="2" y="4" width="1" height="1" fill="#FDFFFF" />
<rect x="7" y="4" width="1" height="2" fill="#FFFFFF" />
<rect x="9" y="4" width="1" height="2" fill="#FFFFFF" />
<rect x="17" y="4" width="1" height="2" fill="#FFFFFF" />
<rect x="20" y="4" width="2" height="2" fill="#FFFFFF" />
<rect x="22" y="4" width="1" height="1" fill="#FFFDFF" />
<rect x="23" y="4" width="1" height="1" fill="#FEFFFF" />
<rect x="24" y="4" width="1" height="1" fill="#FFFFFF" />
<rect x="25" y="4" width="1" height="1" fill="#FFFFFE" />
<rect x="27" y="4" width="1" height="1" fill="#FFFDFF" />
<rect x="28" y="4" width="1" height="2" fill="#FFFFFF" />
<rect x="29" y="4" width="1" height="1" fill="#FFFDFF" />
<rect x="30" y="4" width="1" height="1" fill="#000100" />
<rect x="2" y="5" width="1" height="1" fill="#FFFFFF" />
<rect x="12" y="5" width="1" height="1" fill="#FFFFFF" />
<rect x="13" y="5" width="1" height="1" fill="#FFFDFF" />
<rect x="18" y="5" width="1" height="1" fill="#FFFFFF" />
<rect x="19" y="5" width="1" height="1" fill="#FFFDFF" />
<rect x="22" y="5" width="1" height="1" fill="#FFFFFF" />
<rect x="23" y="5" width="2" height="1" fill="#FFFFFE" />
<rect x="25" y="5" width="1" height="1" fill="#FFFFFF" />
<rect x="27" y="5" width="1" height="1" fill="#FFFFFF" />
<rect x="29" y="5" width="1" height="1" fill="#FFFFFF" />
<rect x="30" y="5" width="1" height="6" fill="#000000" />
<rect x="1" y="6" width="3" height="1" fill="#C0C0C0" />
<rect x="4" y="6" width="1" height="1" fill="#C0C1C0" />
<rect x="5" y="6" width="7" height="1" fill="#C0C0C0" />
<rect x="12" y="6" width="1" height="1" fill="#C0C1C0" />
<rect x="13" y="6" width="3" height="1" fill="#C0C0C0" />
<rect x="16" y="6" width="1" height="1" fill="#C0C0C1" />
<rect x="17" y="6" width="1" height="1" fill="#C2C0C0" />
<rect x="18" y="6" width="4" height="1" fill="#C0C0C0" />
<rect x="22" y="6" width="1" height="1" fill="#C1C0C0" />
<rect x="23" y="6" width="5" height="1" fill="#C0C0C0" />
<rect x="28" y="6" width="1" height="1" fill="#C0C2C1" />
<rect x="29" y="6" width="1" height="1" fill="#C0C0C0" />
<rect x="1" y="7" width="6" height="2" fill="#FFFFFF" />
<rect x="7" y="7" width="1" height="1" fill="#FFFFFE" />
<rect x="8" y="7" width="9" height="1" fill="#FFFFFF" />
<rect x="17" y="7" width="1" height="1" fill="#FFFEFF" />
<rect x="18" y="7" width="1" height="1" fill="#FEFFFF" />
<rect x="19" y="7" width="6" height="1" fill="#FFFFFF" />
<rect x="25" y="7" width="1" height="1" fill="#FEFFFE" />
<rect x="26" y="7" width="4" height="3" fill="#FFFFFF" />
<rect x="7" y="8" width="9" height="1" fill="#FFFFFF" />
<rect x="16" y="8" width="1" height="1" fill="#FDFFFF" />
<rect x="17" y="8" width="1" height="1" fill="#FFFFFF" />
<rect x="18" y="8" width="1" height="1" fill="#FFFFFD" />
<rect x="19" y="8" width="1" height="1" fill="#FDFFFF" />
<rect x="20" y="8" width="1" height="1" fill="#FFFFFE" />
<rect x="21" y="8" width="3" height="1" fill="#FFFFFF" />
<rect x="24" y="8" width="1" height="1" fill="#FFFEFF" />
<rect x="25" y="8" width="1" height="4" fill="#FFFFFF" />
<rect x="1" y="9" width="1" height="1" fill="#FFFEFF" />
<rect x="2" y="9" width="3" height="1" fill="#FFFFFF" />
<rect x="5" y="9" width="1" height="1" fill="#FFFFFE" />
<rect x="6" y="9" width="1" height="2" fill="#FFFFFF" />
<rect x="7" y="9" width="1" height="1" fill="#FDFFFF" />
<rect x="8" y="9" width="2" height="2" fill="#FFFFFF" />
<rect x="10" y="9" width="1" height="1" fill="#FFFFFE" />
<rect x="11" y="9" width="1" height="1" fill="#FFFDFF" />
<rect x="12" y="9" width="1" height="2" fill="#FFFFFF" />
<rect x="13" y="9" width="1" height="1" fill="#FEFFFF" />
<rect x="14" y="9" width="1" height="3" fill="#FFFFFF" />
<rect x="15" y="9" width="1" height="1" fill="#FFFDFF" />
<rect x="16" y="9" width="1" height="2" fill="#FFFFFF" />
<rect x="17" y="9" width="1" height="1" fill="#FFFFFE" />
<rect x="18" y="9" width="4" height="1" fill="#FFFFFF" />
<rect x="22" y="9" width="1" height="1" fill="#FFFFFE" />
<rect x="23" y="9" width="2" height="2" fill="#FFFFFF" />
<rect x="1" y="10" width="1" height="2" fill="#FFFFFF" />
<rect x="2" y="10" width="1" height="1" fill="#FDFFFF" />
<rect x="3" y="10" width="3" height="2" fill="#FFFFFF" />
<rect x="7" y="10" width="1" height="1" fill="#000000" />
<rect x="10" y="10" width="2" height="2" fill="#FFFFFF" />
<rect x="13" y="10" width="1" height="2" fill="#FFFFFF" />
<rect x="15" y="10" width="1" height="1" fill="#FFFFFF" />
<rect x="17" y="10" width="2" height="1" fill="#FFFFFF" />
<rect x="19" y="10" width="1" height="1" fill="#FFFDFF" />
<rect x="20" y="10" width="3" height="2" fill="#FFFFFF" />
<rect x="26" y="10" width="1" height="2" fill="#FFFFFF" />
<rect x="27" y="10" width="1" height="2" fill="#FFFFFD" />
<rect x="28" y="10" width="2" height="2" fill="#FFFFFF" />
<rect x="0" y="11" width="1" height="1" fill="#000001" />
<rect x="2" y="11" width="1" height="1" fill="#FFFFFF" />
<rect x="6" y="11" width="1" height="2" fill="#000000" />
<rect x="7" y="11" width="1" height="8" fill="#800080" />
<rect x="8" y="11" width="1" height="1" fill="#000000" />
<rect x="9" y="11" width="1" height="1" fill="#FFFFFF" />
<rect x="12" y="11" width="1" height="1" fill="#FFFFFE" />
<rect x="15" y="11" width="1" height="1" fill="#FFFDFF" />
<rect x="16" y="11" width="1" height="1" fill="#FFFEFF" />
<rect x="17" y="11" width="1" height="1" fill="#FFFFFF" />
<rect x="18" y="11" width="1" height="1" fill="#FDFDFF" />
<rect x="19" y="11" width="1" height="1" fill="#FFFFFF" />
<rect x="23" y="11" width="1" height="1" fill="#FEFFFF" />
<rect x="24" y="11" width="1" height="1" fill="#FFFFFF" />
<rect x="30" y="11" width="1" height="1" fill="#000001" />
<rect x="0" y="12" width="1" height="2" fill="#000000" />
<rect x="1" y="12" width="1" height="1" fill="#C0C2C0" />
<rect x="2" y="12" width="4" height="1" fill="#C0C0C0" />
<rect x="8" y="12" width="1" height="3" fill="#800080" />
<rect x="9" y="12" width="1" height="1" fill="#000000" />
<rect x="10" y="12" width="2" height="1" fill="#C0C0C0" />
<rect x="12" y="12" width="1" height="1" fill="#C0C1C0" />
<rect x="13" y="12" width="2" height="1" fill="#C0C0C0" />
<rect x="15" y="12" width="1" height="1" fill="#C0C1C0" />
<rect x="16" y="12" width="1" height="1" fill="#C0C0C0" />
<rect x="17" y="12" width="1" height="1" fill="#C2C0C0" />
<rect x="18" y="12" width="2" height="1" fill="#C0C0C0" />
<rect x="20" y="12" width="1" height="1" fill="#C0C1C0" />
<rect x="21" y="12" width="3" height="1" fill="#C0C0C0" />
<rect x="24" y="12" width="1" height="1" fill="#C1C0C0" />
<rect x="25" y="12" width="3" height="1" fill="#C0C0C0" />
<rect x="28" y="12" width="1" height="1" fill="#C0C0C1" />
<rect x="29" y="12" width="1" height="1" fill="#C0C0C0" />
<rect x="30" y="12" width="1" height="5" fill="#000000" />
<rect x="1" y="13" width="1" height="1" fill="#FFFFFF" />
<rect x="2" y="13" width="1" height="1" fill="#FFFEFF" />
<rect x="3" y="13" width="2" height="1" fill="#FFFFFF" />
<rect x="5" y="13" width="1" height="2" fill="#000000" />
<rect x="6" y="13" width="1" height="8" fill="#800080" />
<rect x="9" y="13" width="1" height="5" fill="#800080" />
<rect x="10" y="13" width="1" height="1" fill="#000000" />
<rect x="11" y="13" width="1" height="1" fill="#FFFFFD" />
<rect x="12" y="13" width="7" height="1" fill="#FFFFFF" />
<rect x="19" y="13" width="1" height="2" fill="#FFFFFD" />
<rect x="20" y="13" width="1" height="5" fill="#FFFFFF" />
<rect x="21" y="13" width="1" height="1" fill="#FFFEFF" />
<rect x="22" y="13" width="1" height="1" fill="#FFFFFE" />
<rect x="23" y="13" width="5" height="1" fill="#FFFFFF" />
<rect x="28" y="13" width="1" height="1" fill="#FFFFFD" />
<rect x="29" y="13" width="1" height="3" fill="#FFFFFF" />
<rect x="0" y="14" width="1" height="1" fill="#000200" />
<rect x="1" y="14" width="1" height="1" fill="#FFFEFF" />
<rect x="2" y="14" width="1" height="1" fill="#FFFDFE" />
<rect x="3" y="14" width="1" height="1" fill="#FFFFFF" />
<rect x="4" y="14" width="1" height="1" fill="#FFFFFE" />
<rect x="10" y="14" width="1" height="1" fill="#800082" />
<rect x="11" y="14" width="1" height="1" fill="#000000" />
<rect x="12" y="14" width="6" height="1" fill="#FFFFFF" />
<rect x="18" y="14" width="1" height="1" fill="#FEFFFF" />
<rect x="21" y="14" width="3" height="1" fill="#FFFFFF" />
<rect x="24" y="14" width="1" height="1" fill="#FFFFFD" />
<rect x="25" y="14" width="1" height="1" fill="#000001" />
<rect x="26" y="14" width="2" height="1" fill="#000000" />
<rect x="28" y="14" width="1" height="1" fill="#FFFFFF" />
<rect x="0" y="15" width="1" height="1" fill="#010000" />
<rect x="1" y="15" width="2" height="1" fill="#000000" />
<rect x="3" y="15" width="1" height="1" fill="#000200" />
<rect x="4" y="15" width="1" height="1" fill="#000000" />
<rect x="5" y="15" width="1" height="7" fill="#800080" />
<rect x="8" y="15" width="1" height="1" fill="#810080" />
<rect x="10" y="15" width="2" height="2" fill="#800080" />
<rect x="12" y="15" width="4" height="1" fill="#000000" />
<rect x="16" y="15" width="4" height="1" fill="#FFFFFF" />
<rect x="21" y="15" width="1" height="3" fill="#FFFFFF" />
<rect x="22" y="15" width="1" height="1" fill="#FDFFFF" />
<rect x="23" y="15" width="1" height="2" fill="#FFFFFF" />
<rect x="24" y="15" width="1" height="2" fill="#000000" />
<rect x="25" y="15" width="2" height="1" fill="#800080" />
<rect x="27" y="15" width="1" height="1" fill="#820080" />
<rect x="28" y="15" width="1" height="1" fill="#000000" />
<rect x="0" y="16" width="1" height="4" fill="#000000" />
<rect x="1" y="16" width="2" height="1" fill="#800080" />
<rect x="3" y="16" width="1" height="1" fill="#800081" />
<rect x="4" y="16" width="1" height="2" fill="#800080" />
<rect x="8" y="16" width="1" height="7" fill="#800080" />
<rect x="12" y="16" width="4" height="3" fill="#800080" />
<rect x="16" y="16" width="1" height="2" fill="#000000" />
<rect x="17" y="16" width="1" height="2" fill="#FFFFFF" />
<rect x="18" y="16" width="1" height="1" fill="#FFFEFF" />
<rect x="19" y="16" width="1" height="2" fill="#FFFFFF" />
<rect x="22" y="16" width="1" height="2" fill="#FFFFFF" />
<rect x="25" y="16" width="1" height="1" fill="#820080" />
<rect x="26" y="16" width="3" height="4" fill="#800080" />
<rect x="29" y="16" width="1" height="1" fill="#000000" />
<rect x="1" y="17" width="1" height="1" fill="#800182" />
<rect x="2" y="17" width="1" height="7" fill="#800080" />
<rect x="3" y="17" width="1" height="1" fill="#820180" />
<rect x="10" y="17" width="1" height="1" fill="#800280" />
<rect x="11" y="17" width="1" height="9" fill="#800080" />
<rect x="18" y="17" width="1" height="1" fill="#FFFFFF" />
<rect x="23" y="17" width="1" height="2" fill="#000000" />
<rect x="24" y="17" width="1" height="1" fill="#800180" />
<rect x="25" y="17" width="1" height="1" fill="#800080" />
<rect x="29" y="17" width="1" height="4" fill="#800080" />
<rect x="30" y="17" width="1" height="1" fill="#000001" />
<rect x="1" y="18" width="1" height="4" fill="#800080" />
<rect x="3" y="18" width="1" height="4" fill="#800080" />
<rect x="4" y="18" width="1" height="1" fill="#800081" />
<rect x="9" y="18" width="1" height="1" fill="#800081" />
<rect x="10" y="18" width="1" height="1" fill="#800082" />
<rect x="16" y="18" width="1" height="1" fill="#800080" />
<rect x="17" y="18" width="1" height="1" fill="#000100" />
<rect x="18" y="18" width="2" height="1" fill="#C0C0C0" />
<rect x="20" y="18" width="1" height="1" fill="#C0C1C0" />
<rect x="21" y="18" width="2" height="1" fill="#C0C0C0" />
<rect x="24" y="18" width="1" height="3" fill="#800080" />
<rect x="25" y="18" width="1" height="1" fill="#800082" />
<rect x="30" y="18" width="1" height="4" fill="#000000" />
<rect x="4" y="19" width="1" height="1" fill="#810080" />
<rect x="7" y="19" width="1" height="2" fill="#800280" />
<rect x="9" y="19" width="2" height="1" fill="#800080" />
<rect x="12" y="19" width="3" height="3" fill="#800080" />
<rect x="15" y="19" width="1" height="1" fill="#800280" />
<rect x="16" y="19" width="1" height="1" fill="#800082" />
<rect x="17" y="19" width="1" height="1" fill="#000000" />
<rect x="18" y="19" width="3" height="1" fill="#FFFFFF" />
<rect x="21" y="19" width="1" height="1" fill="#FFFFFD" />
<rect x="22" y="19" width="1" height="1" fill="#020000" />
<rect x="23" y="19" width="1" height="1" fill="#800180" />
<rect x="25" y="19" width="1" height="5" fill="#800080" />
<rect x="31" y="19" width="1" height="1" fill="#808280" />
<rect x="0" y="20" width="1" height="1" fill="#000002" />
<rect x="4" y="20" width="1" height="1" fill="#800080" />
<rect x="9" y="20" width="1" height="1" fill="#800081" />
<rect x="10" y="20" width="1" height="3" fill="#800080" />
<rect x="15" y="20" width="3" height="2" fill="#800080" />
<rect x="18" y="20" width="1" height="1" fill="#000000" />
<rect x="19" y="20" width="1" height="1" fill="#000100" />
<rect x="20" y="20" width="2" height="1" fill="#000000" />
<rect x="22" y="20" width="2" height="1" fill="#800080" />
<rect x="26" y="20" width="1" height="1" fill="#800082" />
<rect x="27" y="20" width="2" height="2" fill="#800080" />
<rect x="31" y="20" width="1" height="1" fill="#808080" />
<rect x="0" y="21" width="1" height="10" fill="#000000" />
<rect x="4" y="21" width="1" height="1" fill="#800180" />
<rect x="6" y="21" width="1" height="1" fill="#810080" />
<rect x="7" y="21" width="1" height="1" fill="#800180" />
<rect x="9" y="21" width="1" height="6" fill="#800080" />
<rect x="18" y="21" width="1" height="1" fill="#800082" />
<rect x="19" y="21" width="4" height="1" fill="#800080" />
<rect x="23" y="21" width="1" height="1" fill="#820180" />
<rect x="24" y="21" width="1" height="1" fill="#800081" />
<rect x="26" y="21" width="1" height="2" fill="#800080" />
<rect x="29" y="21" width="1" height="1" fill="#800180" />
<rect x="31" y="21" width="1" height="1" fill="#808081" />
<rect x="1" y="22" width="1" height="1" fill="#800280" />
<rect x="3" y="22" width="1" height="1" fill="#800082" />
<rect x="4" y="22" width="1" height="1" fill="#800280" />
<rect x="5" y="22" width="1" height="1" fill="#800180" />
<rect x="6" y="22" width="2" height="2" fill="#800080" />
<rect x="12" y="22" width="1" height="4" fill="#800080" />
<rect x="13" y="22" width="1" height="1" fill="#800081" />
<rect x="14" y="22" width="1" height="2" fill="#800080" />
<rect x="15" y="22" width="1" height="1" fill="#800081" />
<rect x="16" y="22" width="4" height="1" fill="#800080" />
<rect x="20" y="22" width="2" height="1" fill="#800081" />
<rect x="22" y="22" width="1" height="4" fill="#800080" />
<rect x="23" y="22" width="1" height="1" fill="#800180" />
<rect x="24" y="22" width="1" height="2" fill="#800080" />
<rect x="27" y="22" width="1" height="2" fill="#800080" />
<rect x="28" y="22" width="1" height="1" fill="#820080" />
<rect x="29" y="22" width="1" height="1" fill="#800080" />
<rect x="30" y="22" width="1" height="1" fill="#020200" />
<rect x="31" y="22" width="1" height="2" fill="#808080" />
<rect x="1" y="23" width="1" height="2" fill="#800080" />
<rect x="3" y="23" width="3" height="1" fill="#800080" />
<rect x="8" y="23" width="1" height="1" fill="#800280" />
<rect x="10" y="23" width="1" height="1" fill="#800180" />
<rect x="13" y="23" width="1" height="2" fill="#800080" />
<rect x="15" y="23" width="1" height="1" fill="#000000" />
<rect x="16" y="23" width="1" height="1" fill="#020000" />
<rect x="17" y="23" width="1" height="1" fill="#800080" />
<rect x="18" y="23" width="1" height="1" fill="#810080" />
<rect x="19" y="23" width="3" height="3" fill="#800080" />
<rect x="23" y="23" width="1" height="3" fill="#800080" />
<rect x="26" y="23" width="1" height="1" fill="#000100" />
<rect x="28" y="23" width="1" height="2" fill="#800080" />
<rect x="29" y="23" width="1" height="1" fill="#800280" />
<rect x="30" y="23" width="1" height="1" fill="#000000" />
<rect x="2" y="24" width="2" height="1" fill="#800280" />
<rect x="4" y="24" width="2" height="2" fill="#800080" />
<rect x="6" y="24" width="1" height="1" fill="#800180" />
<rect x="7" y="24" width="2" height="1" fill="#800080" />
<rect x="10" y="24" width="1" height="2" fill="#800080" />
<rect x="14" y="24" width="1" height="1" fill="#000000" />
<rect x="15" y="24" width="2" height="5" fill="#00FFFF" />
<rect x="17" y="24" width="1" height="1" fill="#000000" />
<rect x="18" y="24" width="1" height="1" fill="#800080" />
<rect x="24" y="24" width="1" height="1" fill="#800180" />
<rect x="25" y="24" width="1" height="1" fill="#000001" />
<rect x="26" y="24" width="1" height="3" fill="#00FFFF" />
<rect x="27" y="24" width="1" height="1" fill="#000000" />
<rect x="29" y="24" width="1" height="2" fill="#800080" />
<rect x="30" y="24" width="1" height="1" fill="#000100" />
<rect x="31" y="24" width="1" height="1" fill="#808181" />
<rect x="1" y="25" width="1" height="1" fill="#000000" />
<rect x="2" y="25" width="1" height="1" fill="#000102" />
<rect x="3" y="25" width="1" height="1" fill="#000001" />
<rect x="6" y="25" width="2" height="2" fill="#800080" />
<rect x="8" y="25" width="1" height="1" fill="#800082" />
<rect x="13" y="25" width="1" height="1" fill="#000001" />
<rect x="14" y="25" width="1" height="1" fill="#00FFFF" />
<rect x="17" y="25" width="1" height="4" fill="#00FFFF" />
<rect x="18" y="25" width="1" height="1" fill="#000000" />
<rect x="24" y="25" width="1" height="1" fill="#800080" />
<rect x="25" y="25" width="1" height="1" fill="#000200" />
<rect x="27" y="25" width="1" height="2" fill="#00FFFF" />
<rect x="28" y="25" width="1" height="1" fill="#000000" />
<rect x="30" y="25" width="1" height="2" fill="#000000" />
<rect x="31" y="25" width="1" height="1" fill="#808080" />
<rect x="1" y="26" width="3" height="2" fill="#00FFFF" />
<rect x="4" y="26" width="1" height="1" fill="#000000" />
<rect x="5" y="26" width="1" height="1" fill="#010000" />
<rect x="8" y="26" width="1" height="1" fill="#800080" />
<rect x="10" y="26" width="1" height="1" fill="#000002" />
<rect x="11" y="26" width="2" height="1" fill="#000000" />
<rect x="13" y="26" width="1" height="1" fill="#00FFFF" />
<rect x="14" y="26" width="1" height="1" fill="#00FFFC" />
<rect x="18" y="26" width="1" height="3" fill="#00FFFF" />
<rect x="19" y="26" width="3" height="1" fill="#000000" />
<rect x="22" y="26" width="1" height="1" fill="#000002" />
<rect x="23" y="26" width="1" height="1" fill="#000100" />
<rect x="24" y="26" width="1" height="1" fill="#000000" />
<rect x="25" y="26" width="1" height="1" fill="#00FFFF" />
<rect x="28" y="26" width="1" height="3" fill="#00FFFF" />
<rect x="29" y="26" width="1" height="1" fill="#000000" />
<rect x="31" y="26" width="1" height="2" fill="#808081" />
<rect x="4" y="27" width="1" height="1" fill="#00FFFE" />
<rect x="5" y="27" width="1" height="2" fill="#00FFFF" />
<rect x="6" y="27" width="1" height="1" fill="#000000" />
<rect x="7" y="27" width="1" height="1" fill="#020000" />
<rect x="8" y="27" width="2" height="1" fill="#000000" />
<rect x="10" y="27" width="1" height="2" fill="#00FFFF" />
<rect x="11" y="27" width="1" height="2" fill="#00FFFD" />
<rect x="12" y="27" width="1" height="2" fill="#00FFFF" />
<rect x="13" y="27" width="1" height="1" fill="#00FEFF" />
<rect x="14" y="27" width="1" height="2" fill="#00FFFF" />
<rect x="19" y="27" width="3" height="2" fill="#00FFFF" />
<rect x="22" y="27" width="2" height="1" fill="#00FDFF" />
<rect x="24" y="27" width="1" height="2" fill="#00FFFF" />
<rect x="25" y="27" width="1" height="1" fill="#00FEFF" />
<rect x="26" y="27" width="1" height="1" fill="#00FDFF" />
<rect x="27" y="27" width="1" height="1" fill="#02FFFF" />
<rect x="29" y="27" width="1" height="1" fill="#00FFFE" />
<rect x="30" y="27" width="1" height="1" fill="#010000" />
<rect x="1" y="28" width="1" height="1" fill="#00FDFF" />
<rect x="2" y="28" width="3" height="1" fill="#00FFFF" />
<rect x="6" y="28" width="1" height="1" fill="#00FEFF" />
<rect x="7" y="28" width="1" height="1" fill="#00FFFF" />
<rect x="8" y="28" width="1" height="1" fill="#00FDFF" />
<rect x="9" y="28" width="1" height="1" fill="#00FEFF" />
<rect x="13" y="28" width="1" height="1" fill="#00FFFF" />
<rect x="22" y="28" width="2" height="1" fill="#00FFFF" />
<rect x="25" y="28" width="3" height="1" fill="#00FFFF" />
<rect x="29" y="28" width="1" height="1" fill="#02FFFF" />
<rect x="30" y="28" width="1" height="2" fill="#000000" />
<rect x="31" y="28" width="1" height="4" fill="#808080" />
<rect x="1" y="29" width="3" height="2" fill="#000000" />
<rect x="4" y="29" width="1" height="1" fill="#000002" />
<rect x="5" y="29" width="1" height="1" fill="#020000" />
<rect x="6" y="29" width="8" height="1" fill="#000000" />
<rect x="14" y="29" width="1" height="1" fill="#020000" />
<rect x="15" y="29" width="9" height="1" fill="#000000" />
<rect x="24" y="29" width="1" height="1" fill="#020000" />
<rect x="25" y="29" width="5" height="1" fill="#000000" />
<rect x="4" y="30" width="4" height="1" fill="#000000" />
<rect x="8" y="30" width="1" height="1" fill="#010000" />
<rect x="9" y="30" width="7" height="1" fill="#000000" />
<rect x="16" y="30" width="1" height="1" fill="#000002" />
<rect x="17" y="30" width="4" height="1" fill="#000000" />
<rect x="21" y="30" width="1" height="1" fill="#000001" />
<rect x="22" y="30" width="6" height="1" fill="#000000" />
<rect x="28" y="30" width="1" height="1" fill="#020000" />
<rect x="29" y="30" width="1" height="1" fill="#000000" />
<rect x="30" y="30" width="1" height="1" fill="#000002" />
<rect x="0" y="31" width="1" height="1" fill="#FFFFFF" />
<rect x="1" y="31" width="6" height="1" fill="#808080" />
<rect x="7" y="31" width="1" height="1" fill="#808180" />
<rect x="8" y="31" width="2" height="1" fill="#808080" />
<rect x="10" y="31" width="1" height="1" fill="#808180" />
<rect x="11" y="31" width="2" height="1" fill="#808080" />
<rect x="13" y="31" width="1" height="1" fill="#808180" />
<rect x="14" y="31" width="3" height="1" fill="#808080" />
<rect x="17" y="31" width="1" height="1" fill="#808280" />
<rect x="18" y="31" width="1" height="1" fill="#808080" />
<rect x="19" y="31" width="1" height="1" fill="#828080" />
<rect x="20" y="31" width="3" height="1" fill="#808080" />
<rect x="23" y="31" width="1" height="1" fill="#818080" />
<rect x="24" y="31" width="1" height="1" fill="#808080" />
<rect x="25" y="31" width="1" height="1" fill="#808280" />
<rect x="26" y="31" width="5" height="1" fill="#808080" />
</svg>
