<?xml version="1.0" encoding="UTF-8" ?>
<svg version="1.1" width="21" height="20" xmlns="http://www.w3.org/2000/svg">
<rect x="12" y="0" width="1" height="1" fill="#0D0D0D" />
<rect x="13" y="0" width="4" height="1" fill="#000000" />
<rect x="0" y="1" width="1" height="1" fill="#A5A5A5" />
<rect x="1" y="1" width="1" height="1" fill="#A6A6A6" />
<rect x="10" y="1" width="1" height="2" fill="#000000" />
<rect x="11" y="1" width="1" height="1" fill="#060000" />
<rect x="12" y="1" width="1" height="1" fill="#320000" />
<rect x="13" y="1" width="1" height="1" fill="#140000" />
<rect x="14" y="1" width="1" height="9" fill="#000000" />
<rect x="15" y="1" width="1" height="1" fill="#000B00" />
<rect x="16" y="1" width="1" height="1" fill="#003600" />
<rect x="17" y="1" width="1" height="1" fill="#000F00" />
<rect x="18" y="1" width="1" height="2" fill="#000000" />
<rect x="0" y="2" width="1" height="1" fill="#4A4A4A" />
<rect x="1" y="2" width="1" height="1" fill="#4C4C4C" />
<rect x="9" y="2" width="1" height="1" fill="#010101" />
<rect x="11" y="2" width="1" height="1" fill="#1A0000" />
<rect x="12" y="2" width="1" height="1" fill="#DD0000" />
<rect x="13" y="2" width="1" height="1" fill="#5A0000" />
<rect x="15" y="2" width="1" height="1" fill="#002F00" />
<rect x="16" y="2" width="1" height="1" fill="#00F200" />
<rect x="17" y="2" width="1" height="1" fill="#004400" />
<rect x="19" y="2" width="1" height="13" fill="#000000" />
<rect x="20" y="2" width="1" height="1" fill="#0A0A0A" />
<rect x="0" y="3" width="1" height="1" fill="#494949" />
<rect x="1" y="3" width="1" height="1" fill="#4B4B4B" />
<rect x="2" y="3" width="1" height="1" fill="#A8A8A8" />
<rect x="3" y="3" width="1" height="1" fill="#373737" />
<rect x="4" y="3" width="1" height="1" fill="#949494" />
<rect x="5" y="3" width="1" height="1" fill="#7A7A7A" />
<rect x="6" y="3" width="1" height="1" fill="#2D2D2D" />
<rect x="8" y="3" width="1" height="1" fill="#090909" />
<rect x="9" y="3" width="1" height="7" fill="#000000" />
<rect x="10" y="3" width="1" height="1" fill="#410000" />
<rect x="11" y="3" width="1" height="1" fill="#C90000" />
<rect x="12" y="3" width="1" height="1" fill="#F80000" />
<rect x="13" y="3" width="1" height="2" fill="#5B0000" />
<rect x="15" y="3" width="1" height="2" fill="#003000" />
<rect x="16" y="3" width="1" height="2" fill="#00F400" />
<rect x="17" y="3" width="1" height="1" fill="#00D300" />
<rect x="18" y="3" width="1" height="1" fill="#006200" />
<rect x="20" y="3" width="1" height="14" fill="#080808" />
<rect x="0" y="4" width="1" height="1" fill="#898989" />
<rect x="1" y="4" width="1" height="1" fill="#8A8A8A" />
<rect x="2" y="4" width="1" height="1" fill="#A0A0A0" />
<rect x="3" y="4" width="1" height="1" fill="#0D0D0D" />
<rect x="4" y="4" width="1" height="1" fill="#3F3F3F" />
<rect x="5" y="4" width="1" height="1" fill="#2F2F2F" />
<rect x="6" y="4" width="3" height="1" fill="#000000" />
<rect x="10" y="4" width="1" height="2" fill="#550000" />
<rect x="11" y="4" width="2" height="1" fill="#FF0000" />
<rect x="17" y="4" width="1" height="1" fill="#00FF00" />
<rect x="18" y="4" width="1" height="2" fill="#008000" />
<rect x="0" y="5" width="1" height="1" fill="#CC9B9B" />
<rect x="1" y="5" width="1" height="1" fill="#CC9C9C" />
<rect x="2" y="5" width="1" height="1" fill="#AAAAAA" />
<rect x="3" y="5" width="1" height="1" fill="#444444" />
<rect x="4" y="5" width="3" height="1" fill="#3B3B3B" />
<rect x="7" y="5" width="1" height="1" fill="#3A3A3A" />
<rect x="8" y="5" width="1" height="1" fill="#0C0C0C" />
<rect x="11" y="5" width="1" height="1" fill="#F70000" />
<rect x="12" y="5" width="1" height="1" fill="#BA0000" />
<rect x="13" y="5" width="1" height="1" fill="#3F0000" />
<rect x="15" y="5" width="1" height="1" fill="#002100" />
<rect x="16" y="5" width="1" height="1" fill="#00A900" />
<rect x="17" y="5" width="1" height="1" fill="#00EA00" />
<rect x="0" y="6" width="1" height="2" fill="#E74949" />
<rect x="1" y="6" width="1" height="2" fill="#E64B4B" />
<rect x="2" y="6" width="1" height="1" fill="#C1BEBE" />
<rect x="3" y="6" width="1" height="1" fill="#C5B2B2" />
<rect x="4" y="6" width="1" height="1" fill="#C1BCBC" />
<rect x="5" y="6" width="1" height="1" fill="#C2B9B9" />
<rect x="6" y="6" width="1" height="1" fill="#C5B1B1" />
<rect x="7" y="6" width="1" height="1" fill="#C1AEAE" />
<rect x="8" y="6" width="1" height="1" fill="#2A2525" />
<rect x="10" y="6" width="1" height="1" fill="#4E0000" />
<rect x="11" y="6" width="1" height="1" fill="#D30000" />
<rect x="12" y="6" width="1" height="1" fill="#1D0000" />
<rect x="13" y="6" width="1" height="2" fill="#000000" />
<rect x="15" y="6" width="2" height="2" fill="#000000" />
<rect x="17" y="6" width="1" height="1" fill="#00AC00" />
<rect x="18" y="6" width="1" height="1" fill="#007600" />
<rect x="2" y="7" width="1" height="1" fill="#C9A5A5" />
<rect x="3" y="7" width="1" height="1" fill="#F22828" />
<rect x="4" y="7" width="1" height="1" fill="#D09090" />
<rect x="5" y="7" width="1" height="1" fill="#D97272" />
<rect x="6" y="7" width="1" height="1" fill="#F51D1D" />
<rect x="7" y="7" width="1" height="1" fill="#F11D1D" />
<rect x="8" y="7" width="1" height="1" fill="#340606" />
<rect x="10" y="7" width="1" height="1" fill="#0D0000" />
<rect x="11" y="7" width="1" height="1" fill="#230000" />
<rect x="12" y="7" width="1" height="1" fill="#050000" />
<rect x="17" y="7" width="1" height="1" fill="#001C00" />
<rect x="18" y="7" width="1" height="1" fill="#001300" />
<rect x="0" y="8" width="1" height="1" fill="#CF9393" />
<rect x="1" y="8" width="1" height="1" fill="#CF9494" />
<rect x="2" y="8" width="1" height="1" fill="#CAA0A0" />
<rect x="3" y="8" width="1" height="1" fill="#FB0D0D" />
<rect x="4" y="8" width="1" height="1" fill="#EE3333" />
<rect x="5" y="8" width="1" height="1" fill="#F32626" />
<rect x="6" y="8" width="1" height="1" fill="#FF0000" />
<rect x="7" y="8" width="1" height="1" fill="#FA0000" />
<rect x="8" y="8" width="1" height="1" fill="#360000" />
<rect x="10" y="8" width="1" height="1" fill="#000000" />
<rect x="11" y="8" width="1" height="1" fill="#000010" />
<rect x="12" y="8" width="1" height="1" fill="#00008B" />
<rect x="13" y="8" width="1" height="1" fill="#000038" />
<rect x="15" y="8" width="1" height="1" fill="#1E1E00" />
<rect x="16" y="8" width="1" height="1" fill="#989800" />
<rect x="17" y="8" width="1" height="1" fill="#2B2B00" />
<rect x="18" y="8" width="1" height="1" fill="#000000" />
<rect x="0" y="9" width="1" height="1" fill="#9191CF" />
<rect x="1" y="9" width="1" height="1" fill="#9292CF" />
<rect x="2" y="9" width="1" height="1" fill="#C6ADAD" />
<rect x="3" y="9" width="1" height="1" fill="#E45353" />
<rect x="4" y="9" width="3" height="1" fill="#E64B4B" />
<rect x="7" y="9" width="1" height="1" fill="#E24A4A" />
<rect x="8" y="9" width="1" height="1" fill="#311010" />
<rect x="10" y="9" width="1" height="1" fill="#000021" />
<rect x="11" y="9" width="1" height="1" fill="#000073" />
<rect x="12" y="9" width="1" height="1" fill="#0000EC" />
<rect x="13" y="9" width="1" height="1" fill="#00005B" />
<rect x="15" y="9" width="1" height="3" fill="#303000" />
<rect x="16" y="9" width="1" height="3" fill="#F4F400" />
<rect x="17" y="9" width="1" height="1" fill="#8D8D00" />
<rect x="18" y="9" width="1" height="1" fill="#323200" />
<rect x="0" y="10" width="1" height="1" fill="#5656DA" />
<rect x="1" y="10" width="1" height="1" fill="#5454D6" />
<rect x="2" y="10" width="5" height="1" fill="#B5B5B5" />
<rect x="7" y="10" width="1" height="1" fill="#B2B2B2" />
<rect x="8" y="10" width="1" height="1" fill="#373737" />
<rect x="9" y="10" width="1" height="1" fill="#151515" />
<rect x="10" y="10" width="1" height="1" fill="#15155C" />
<rect x="11" y="10" width="2" height="1" fill="#1515EA" />
<rect x="13" y="10" width="1" height="1" fill="#151561" />
<rect x="14" y="10" width="1" height="1" fill="#0C0C0C" />
<rect x="17" y="10" width="1" height="2" fill="#FFFF00" />
<rect x="18" y="10" width="1" height="3" fill="#808000" />
<rect x="0" y="11" width="1" height="1" fill="#93939D" />
<rect x="1" y="11" width="1" height="1" fill="#7C7C87" />
<rect x="2" y="11" width="6" height="1" fill="#848484" />
<rect x="8" y="11" width="1" height="1" fill="#7A7A7A" />
<rect x="9" y="11" width="1" height="1" fill="#777777" />
<rect x="10" y="11" width="1" height="1" fill="#77777D" />
<rect x="11" y="11" width="2" height="1" fill="#777788" />
<rect x="13" y="11" width="1" height="1" fill="#77777E" />
<rect x="14" y="11" width="1" height="1" fill="#464646" />
<rect x="0" y="12" width="1" height="6" fill="#989898" />
<rect x="1" y="12" width="1" height="1" fill="#A3A3A3" />
<rect x="2" y="12" width="11" height="1" fill="#D9D9D9" />
<rect x="13" y="12" width="1" height="1" fill="#A0A0A0" />
<rect x="14" y="12" width="1" height="6" fill="#4B4B4B" />
<rect x="15" y="12" width="1" height="1" fill="#0E0E00" />
<rect x="16" y="12" width="1" height="1" fill="#484800" />
<rect x="17" y="12" width="1" height="1" fill="#CFCF00" />
<rect x="1" y="13" width="1" height="4" fill="#B2B2B2" />
<rect x="2" y="13" width="1" height="1" fill="#FAFAFA" />
<rect x="3" y="13" width="1" height="1" fill="#E3E3E3" />
<rect x="4" y="13" width="9" height="1" fill="#E1E1E1" />
<rect x="13" y="13" width="1" height="1" fill="#A2A2A2" />
<rect x="15" y="13" width="2" height="1" fill="#000000" />
<rect x="17" y="13" width="1" height="1" fill="#626200" />
<rect x="18" y="13" width="1" height="1" fill="#434300" />
<rect x="2" y="14" width="1" height="3" fill="#F5F5F5" />
<rect x="3" y="14" width="1" height="3" fill="#C4C4C4" />
<rect x="4" y="14" width="9" height="3" fill="#C0C0C0" />
<rect x="13" y="14" width="1" height="3" fill="#979797" />
<rect x="15" y="14" width="1" height="1" fill="#090909" />
<rect x="16" y="14" width="1" height="1" fill="#2D2D2D" />
<rect x="17" y="14" width="1" height="1" fill="#0D0D0D" />
<rect x="18" y="14" width="1" height="1" fill="#000000" />
<rect x="15" y="15" width="1" height="4" fill="#242424" />
<rect x="18" y="15" width="1" height="1" fill="#040404" />
<rect x="19" y="15" width="1" height="1" fill="#030303" />
<rect x="1" y="17" width="1" height="1" fill="#969696" />
<rect x="2" y="17" width="1" height="1" fill="#B3B3B3" />
<rect x="3" y="17" width="1" height="1" fill="#9E9E9E" />
<rect x="4" y="17" width="9" height="1" fill="#9C9C9C" />
<rect x="13" y="17" width="1" height="1" fill="#8A8A8A" />
<rect x="0" y="18" width="1" height="1" fill="#7E7E7E" />
<rect x="1" y="18" width="13" height="1" fill="#555555" />
<rect x="14" y="18" width="1" height="1" fill="#323232" />
<rect x="0" y="19" width="1" height="1" fill="#555555" />
<rect x="1" y="19" width="14" height="1" fill="#131313" />
<rect x="15" y="19" width="1" height="1" fill="#343434" />
</svg>
