<?xml version="1.0" encoding="UTF-8" ?>
<svg version="1.1" width="24" height="32" xmlns="http://www.w3.org/2000/svg" shape-rendering="crispEdges">
<!-- Keep crispEdges -->
<rect x="0" y="0" width="19" height="1" fill="#808080" />
<rect x="0" y="1" width="1" height="30" fill="#808080" />
<rect x="1" y="1" width="2" height="1" fill="#FFFFFF" />
<rect x="3" y="1" width="1" height="1" fill="#FFFF00" />
<rect x="4" y="1" width="3" height="1" fill="#FFFFFF" />
<rect x="7" y="1" width="1" height="1" fill="#FFFF00" />
<rect x="8" y="1" width="3" height="1" fill="#FFFFFF" />
<rect x="11" y="1" width="1" height="1" fill="#FFFF00" />
<rect x="12" y="1" width="3" height="1" fill="#FFFFFF" />
<rect x="15" y="1" width="1" height="1" fill="#FFFF00" />
<rect x="16" y="1" width="2" height="1" fill="#FFFFFF" />
<rect x="18" y="1" width="1" height="5" fill="#808080" />
<rect x="19" y="1" width="1" height="1" fill="#000000" />
<rect x="1" y="2" width="1" height="1" fill="#FFFF00" />
<rect x="2" y="2" width="3" height="1" fill="#FFFFFF" />
<rect x="5" y="2" width="1" height="1" fill="#FFFF00" />
<rect x="6" y="2" width="3" height="1" fill="#FFFFFF" />
<rect x="9" y="2" width="1" height="1" fill="#FFFF00" />
<rect x="10" y="2" width="3" height="1" fill="#FFFFFF" />
<rect x="13" y="2" width="1" height="1" fill="#FFFF00" />
<rect x="14" y="2" width="3" height="1" fill="#FFFFFF" />
<rect x="17" y="2" width="1" height="1" fill="#FFFF00" />
<rect x="19" y="2" width="1" height="1" fill="#808080" />
<rect x="20" y="2" width="1" height="1" fill="#000000" />
<rect x="1" y="3" width="2" height="1" fill="#FFFFFF" />
<rect x="3" y="3" width="1" height="1" fill="#FFFF00" />
<rect x="4" y="3" width="3" height="1" fill="#FFFFFF" />
<rect x="7" y="3" width="1" height="1" fill="#FFFF00" />
<rect x="8" y="3" width="3" height="1" fill="#FFFFFF" />
<rect x="11" y="3" width="1" height="1" fill="#FFFF00" />
<rect x="12" y="3" width="3" height="1" fill="#FFFFFF" />
<rect x="15" y="3" width="1" height="1" fill="#FFFF00" />
<rect x="16" y="3" width="2" height="1" fill="#FFFFFF" />
<rect x="19" y="3" width="1" height="2" fill="#FFFFFF" />
<rect x="20" y="3" width="1" height="1" fill="#808080" />
<rect x="21" y="3" width="1" height="1" fill="#000000" />
<rect x="1" y="4" width="1" height="1" fill="#FFFF00" />
<rect x="2" y="4" width="3" height="1" fill="#FFFFFF" />
<rect x="5" y="4" width="1" height="1" fill="#FFFF00" />
<rect x="6" y="4" width="3" height="1" fill="#FFFFFF" />
<rect x="9" y="4" width="1" height="1" fill="#FFFF00" />
<rect x="10" y="4" width="3" height="1" fill="#FFFFFF" />
<rect x="13" y="4" width="1" height="1" fill="#FFFF00" />
<rect x="14" y="4" width="3" height="1" fill="#FFFFFF" />
<rect x="17" y="4" width="1" height="1" fill="#FFFF00" />
<rect x="20" y="4" width="1" height="1" fill="#FFFFFF" />
<rect x="21" y="4" width="1" height="1" fill="#808080" />
<rect x="22" y="4" width="1" height="2" fill="#000000" />
<rect x="1" y="5" width="2" height="1" fill="#FFFFFF" />
<rect x="3" y="5" width="1" height="1" fill="#FFFF00" />
<rect x="4" y="5" width="3" height="1" fill="#FFFFFF" />
<rect x="7" y="5" width="1" height="1" fill="#FFFF00" />
<rect x="8" y="5" width="3" height="1" fill="#FFFFFF" />
<rect x="11" y="5" width="1" height="1" fill="#FFFF00" />
<rect x="12" y="5" width="3" height="1" fill="#FFFFFF" />
<rect x="15" y="5" width="1" height="1" fill="#FFFF00" />
<rect x="16" y="5" width="2" height="1" fill="#FFFFFF" />
<rect x="19" y="5" width="3" height="1" fill="#000000" />
<rect x="23" y="5" width="1" height="27" fill="#000000" />
<rect x="1" y="6" width="1" height="1" fill="#FFFF00" />
<rect x="2" y="6" width="3" height="1" fill="#FFFFFF" />
<rect x="5" y="6" width="1" height="1" fill="#FFFF00" />
<rect x="6" y="6" width="3" height="1" fill="#FFFFFF" />
<rect x="9" y="6" width="1" height="1" fill="#FFFF00" />
<rect x="10" y="6" width="3" height="1" fill="#FFFFFF" />
<rect x="13" y="6" width="1" height="1" fill="#FFFF00" />
<rect x="14" y="6" width="3" height="1" fill="#FFFFFF" />
<rect x="17" y="6" width="1" height="1" fill="#FFFF00" />
<rect x="18" y="6" width="3" height="1" fill="#FFFFFF" />
<rect x="21" y="6" width="1" height="1" fill="#FFFF00" />
<rect x="22" y="6" width="1" height="25" fill="#C0C0C0" />
<rect x="1" y="7" width="2" height="1" fill="#FFFFFF" />
<rect x="3" y="7" width="1" height="1" fill="#FFFF00" />
<rect x="4" y="7" width="3" height="1" fill="#FFFFFF" />
<rect x="7" y="7" width="1" height="1" fill="#FFFF00" />
<rect x="8" y="7" width="1" height="1" fill="#FFFFFF" />
<rect x="9" y="7" width="1" height="1" fill="#008080" />
<rect x="10" y="7" width="3" height="2" fill="#0000FF" />
<rect x="13" y="7" width="1" height="1" fill="#008080" />
<rect x="14" y="7" width="1" height="1" fill="#C0C0C0" />
<rect x="15" y="7" width="1" height="1" fill="#FFFF00" />
<rect x="16" y="7" width="3" height="1" fill="#FFFFFF" />
<rect x="19" y="7" width="1" height="1" fill="#FFFF00" />
<rect x="20" y="7" width="2" height="1" fill="#FFFFFF" />
<rect x="1" y="8" width="1" height="1" fill="#FFFF00" />
<rect x="2" y="8" width="3" height="1" fill="#FFFFFF" />
<rect x="5" y="8" width="1" height="1" fill="#FFFF00" />
<rect x="6" y="8" width="2" height="1" fill="#FFFFFF" />
<rect x="8" y="8" width="2" height="1" fill="#0000FF" />
<rect x="13" y="8" width="2" height="8" fill="#0000FF" />
<rect x="15" y="8" width="1" height="1" fill="#C0C0C0" />
<rect x="16" y="8" width="1" height="1" fill="#FFFFFF" />
<rect x="17" y="8" width="1" height="1" fill="#FFFF00" />
<rect x="18" y="8" width="3" height="1" fill="#FFFFFF" />
<rect x="21" y="8" width="1" height="1" fill="#FFFF00" />
<rect x="1" y="9" width="2" height="1" fill="#FFFFFF" />
<rect x="3" y="9" width="1" height="1" fill="#FFFF00" />
<rect x="4" y="9" width="3" height="1" fill="#FFFFFF" />
<rect x="7" y="9" width="2" height="3" fill="#0000FF" />
<rect x="9" y="9" width="1" height="1" fill="#C0C0C0" />
<rect x="10" y="9" width="1" height="13" fill="#FFFFFF" />
<rect x="11" y="9" width="1" height="1" fill="#FFFF00" />
<rect x="12" y="9" width="1" height="1" fill="#0000FF" />
<rect x="15" y="9" width="1" height="6" fill="#0000FF" />
<rect x="16" y="9" width="1" height="1" fill="#C0C0C0" />
<rect x="17" y="9" width="2" height="1" fill="#FFFFFF" />
<rect x="19" y="9" width="1" height="1" fill="#FFFF00" />
<rect x="20" y="9" width="2" height="1" fill="#FFFFFF" />
<rect x="1" y="10" width="1" height="1" fill="#FFFF00" />
<rect x="2" y="10" width="3" height="1" fill="#FFFFFF" />
<rect x="5" y="10" width="1" height="1" fill="#FFFF00" />
<rect x="6" y="10" width="1" height="2" fill="#0000FF" />
<rect x="9" y="10" width="1" height="1" fill="#FFFF00" />
<rect x="11" y="10" width="1" height="1" fill="#FFFFFF" />
<rect x="12" y="10" width="1" height="1" fill="#C0C0C0" />
<rect x="16" y="10" width="1" height="3" fill="#0000FF" />
<rect x="17" y="10" width="1" height="1" fill="#FFFF00" />
<rect x="18" y="10" width="3" height="1" fill="#FFFFFF" />
<rect x="21" y="10" width="1" height="1" fill="#FFFF00" />
<rect x="1" y="11" width="2" height="1" fill="#FFFFFF" />
<rect x="3" y="11" width="1" height="1" fill="#FFFF00" />
<rect x="4" y="11" width="2" height="1" fill="#FFFFFF" />
<rect x="9" y="11" width="1" height="1" fill="#FFFFFF" />
<rect x="11" y="11" width="1" height="1" fill="#FFFF00" />
<rect x="12" y="11" width="1" height="2" fill="#FFFFFF" />
<rect x="17" y="11" width="2" height="1" fill="#FFFFFF" />
<rect x="19" y="11" width="1" height="1" fill="#FFFF00" />
<rect x="20" y="11" width="2" height="1" fill="#FFFFFF" />
<rect x="1" y="12" width="1" height="1" fill="#FFFF00" />
<rect x="2" y="12" width="3" height="1" fill="#FFFFFF" />
<rect x="5" y="12" width="1" height="1" fill="#FFFF00" />
<rect x="6" y="12" width="1" height="1" fill="#C0C0C0" />
<rect x="7" y="12" width="1" height="1" fill="#0000FF" />
<rect x="8" y="12" width="1" height="1" fill="#C0C0C0" />
<rect x="9" y="12" width="1" height="1" fill="#FFFF00" />
<rect x="11" y="12" width="1" height="1" fill="#FFFFFF" />
<rect x="17" y="12" width="1" height="1" fill="#FFFF00" />
<rect x="18" y="12" width="3" height="1" fill="#FFFFFF" />
<rect x="21" y="12" width="1" height="1" fill="#FFFF00" />
<rect x="1" y="13" width="2" height="1" fill="#FFFFFF" />
<rect x="3" y="13" width="1" height="1" fill="#FFFF00" />
<rect x="4" y="13" width="3" height="1" fill="#FFFFFF" />
<rect x="7" y="13" width="1" height="1" fill="#FFFF00" />
<rect x="8" y="13" width="2" height="1" fill="#FFFFFF" />
<rect x="11" y="13" width="1" height="1" fill="#FFFF00" />
<rect x="12" y="13" width="1" height="1" fill="#C0C0C0" />
<rect x="16" y="13" width="1" height="1" fill="#808080" />
<rect x="17" y="13" width="2" height="1" fill="#FFFFFF" />
<rect x="19" y="13" width="1" height="1" fill="#FFFF00" />
<rect x="20" y="13" width="2" height="1" fill="#FFFFFF" />
<rect x="1" y="14" width="1" height="1" fill="#FFFF00" />
<rect x="2" y="14" width="3" height="1" fill="#FFFFFF" />
<rect x="5" y="14" width="1" height="1" fill="#FFFF00" />
<rect x="6" y="14" width="3" height="1" fill="#FFFFFF" />
<rect x="9" y="14" width="1" height="1" fill="#FFFF00" />
<rect x="11" y="14" width="1" height="1" fill="#FFFFFF" />
<rect x="12" y="14" width="1" height="6" fill="#0000FF" />
<rect x="16" y="14" width="1" height="16" fill="#FFFFFF" />
<rect x="17" y="14" width="1" height="1" fill="#FFFF00" />
<rect x="18" y="14" width="3" height="1" fill="#FFFFFF" />
<rect x="21" y="14" width="1" height="1" fill="#FFFF00" />
<rect x="1" y="15" width="2" height="1" fill="#FFFFFF" />
<rect x="3" y="15" width="1" height="1" fill="#FFFF00" />
<rect x="4" y="15" width="3" height="1" fill="#FFFFFF" />
<rect x="7" y="15" width="1" height="1" fill="#FFFF00" />
<rect x="8" y="15" width="2" height="1" fill="#FFFFFF" />
<rect x="11" y="15" width="1" height="1" fill="#C0C0C0" />
<rect x="15" y="15" width="1" height="1" fill="#FFFF00" />
<rect x="17" y="15" width="2" height="1" fill="#FFFFFF" />
<rect x="19" y="15" width="1" height="1" fill="#FFFF00" />
<rect x="20" y="15" width="2" height="1" fill="#FFFFFF" />
<rect x="1" y="16" width="1" height="1" fill="#FFFF00" />
<rect x="2" y="16" width="3" height="1" fill="#FFFFFF" />
<rect x="5" y="16" width="1" height="1" fill="#FFFF00" />
<rect x="6" y="16" width="3" height="1" fill="#FFFFFF" />
<rect x="9" y="16" width="1" height="1" fill="#FFFF00" />
<rect x="11" y="16" width="1" height="4" fill="#0000FF" />
<rect x="13" y="16" width="1" height="1" fill="#0000FF" />
<rect x="14" y="16" width="2" height="1" fill="#FFFFFF" />
<rect x="17" y="16" width="1" height="1" fill="#FFFF00" />
<rect x="18" y="16" width="3" height="1" fill="#FFFFFF" />
<rect x="21" y="16" width="1" height="1" fill="#FFFF00" />
<rect x="1" y="17" width="2" height="1" fill="#FFFFFF" />
<rect x="3" y="17" width="1" height="1" fill="#FFFF00" />
<rect x="4" y="17" width="3" height="1" fill="#FFFFFF" />
<rect x="7" y="17" width="1" height="1" fill="#FFFF00" />
<rect x="8" y="17" width="2" height="1" fill="#FFFFFF" />
<rect x="13" y="17" width="2" height="1" fill="#FFFFFF" />
<rect x="15" y="17" width="1" height="1" fill="#FFFF00" />
<rect x="17" y="17" width="2" height="1" fill="#FFFFFF" />
<rect x="19" y="17" width="1" height="1" fill="#FFFF00" />
<rect x="20" y="17" width="2" height="1" fill="#FFFFFF" />
<rect x="1" y="18" width="1" height="1" fill="#FFFF00" />
<rect x="2" y="18" width="3" height="1" fill="#FFFFFF" />
<rect x="5" y="18" width="1" height="1" fill="#FFFF00" />
<rect x="6" y="18" width="3" height="1" fill="#FFFFFF" />
<rect x="9" y="18" width="1" height="1" fill="#FFFF00" />
<rect x="13" y="18" width="1" height="1" fill="#FFFF00" />
<rect x="14" y="18" width="2" height="1" fill="#FFFFFF" />
<rect x="17" y="18" width="1" height="1" fill="#FFFF00" />
<rect x="18" y="18" width="3" height="1" fill="#FFFFFF" />
<rect x="21" y="18" width="1" height="1" fill="#FFFF00" />
<rect x="1" y="19" width="2" height="1" fill="#FFFFFF" />
<rect x="3" y="19" width="1" height="1" fill="#FFFF00" />
<rect x="4" y="19" width="3" height="1" fill="#FFFFFF" />
<rect x="7" y="19" width="1" height="1" fill="#FFFF00" />
<rect x="8" y="19" width="2" height="1" fill="#FFFFFF" />
<rect x="13" y="19" width="2" height="1" fill="#FFFFFF" />
<rect x="15" y="19" width="1" height="1" fill="#FFFF00" />
<rect x="17" y="19" width="2" height="1" fill="#FFFFFF" />
<rect x="19" y="19" width="1" height="1" fill="#FFFF00" />
<rect x="20" y="19" width="2" height="1" fill="#FFFFFF" />
<rect x="1" y="20" width="1" height="1" fill="#FFFF00" />
<rect x="2" y="20" width="3" height="1" fill="#FFFFFF" />
<rect x="5" y="20" width="1" height="1" fill="#FFFF00" />
<rect x="6" y="20" width="3" height="1" fill="#FFFFFF" />
<rect x="9" y="20" width="1" height="1" fill="#FFFF00" />
<rect x="11" y="20" width="2" height="1" fill="#FFFFFF" />
<rect x="13" y="20" width="1" height="1" fill="#FFFF00" />
<rect x="14" y="20" width="2" height="1" fill="#FFFFFF" />
<rect x="17" y="20" width="1" height="1" fill="#FFFF00" />
<rect x="18" y="20" width="3" height="1" fill="#FFFFFF" />
<rect x="21" y="20" width="1" height="1" fill="#FFFF00" />
<rect x="1" y="21" width="2" height="1" fill="#FFFFFF" />
<rect x="3" y="21" width="1" height="1" fill="#FFFF00" />
<rect x="4" y="21" width="3" height="1" fill="#FFFFFF" />
<rect x="7" y="21" width="1" height="1" fill="#FFFF00" />
<rect x="8" y="21" width="2" height="1" fill="#FFFFFF" />
<rect x="11" y="21" width="1" height="1" fill="#FFFF00" />
<rect x="12" y="21" width="3" height="1" fill="#FFFFFF" />
<rect x="15" y="21" width="1" height="1" fill="#FFFF00" />
<rect x="17" y="21" width="2" height="1" fill="#FFFFFF" />
<rect x="19" y="21" width="1" height="1" fill="#FFFF00" />
<rect x="20" y="21" width="2" height="1" fill="#FFFFFF" />
<rect x="1" y="22" width="1" height="1" fill="#FFFF00" />
<rect x="2" y="22" width="3" height="1" fill="#FFFFFF" />
<rect x="5" y="22" width="1" height="1" fill="#FFFF00" />
<rect x="6" y="22" width="3" height="1" fill="#FFFFFF" />
<rect x="9" y="22" width="1" height="1" fill="#FFFF00" />
<rect x="10" y="22" width="1" height="1" fill="#C0C0C0" />
<rect x="11" y="22" width="2" height="4" fill="#0000FF" />
<rect x="13" y="22" width="1" height="1" fill="#C0C0C0" />
<rect x="14" y="22" width="2" height="1" fill="#FFFFFF" />
<rect x="17" y="22" width="1" height="1" fill="#FFFF00" />
<rect x="18" y="22" width="3" height="1" fill="#FFFFFF" />
<rect x="21" y="22" width="1" height="1" fill="#FFFF00" />
<rect x="1" y="23" width="2" height="1" fill="#FFFFFF" />
<rect x="3" y="23" width="1" height="1" fill="#FFFF00" />
<rect x="4" y="23" width="3" height="1" fill="#FFFFFF" />
<rect x="7" y="23" width="1" height="1" fill="#FFFF00" />
<rect x="8" y="23" width="2" height="1" fill="#FFFFFF" />
<rect x="10" y="23" width="1" height="2" fill="#0000FF" />
<rect x="13" y="23" width="1" height="2" fill="#0000FF" />
<rect x="14" y="23" width="1" height="7" fill="#FFFFFF" />
<rect x="15" y="23" width="1" height="1" fill="#FFFF00" />
<rect x="17" y="23" width="2" height="1" fill="#FFFFFF" />
<rect x="19" y="23" width="1" height="1" fill="#FFFF00" />
<rect x="20" y="23" width="2" height="1" fill="#FFFFFF" />
<rect x="1" y="24" width="1" height="1" fill="#FFFF00" />
<rect x="2" y="24" width="3" height="1" fill="#FFFFFF" />
<rect x="5" y="24" width="1" height="1" fill="#FFFF00" />
<rect x="6" y="24" width="3" height="1" fill="#FFFFFF" />
<rect x="9" y="24" width="1" height="1" fill="#FFFF00" />
<rect x="15" y="24" width="1" height="1" fill="#FFFFFF" />
<rect x="17" y="24" width="1" height="1" fill="#FFFF00" />
<rect x="18" y="24" width="3" height="1" fill="#FFFFFF" />
<rect x="21" y="24" width="1" height="1" fill="#FFFF00" />
<rect x="1" y="25" width="2" height="1" fill="#FFFFFF" />
<rect x="3" y="25" width="1" height="1" fill="#FFFF00" />
<rect x="4" y="25" width="3" height="1" fill="#FFFFFF" />
<rect x="7" y="25" width="1" height="1" fill="#FFFF00" />
<rect x="8" y="25" width="2" height="1" fill="#FFFFFF" />
<rect x="10" y="25" width="1" height="1" fill="#C0C0C0" />
<rect x="13" y="25" width="1" height="1" fill="#C0C0C0" />
<rect x="15" y="25" width="1" height="1" fill="#FFFF00" />
<rect x="17" y="25" width="2" height="1" fill="#FFFFFF" />
<rect x="19" y="25" width="1" height="1" fill="#FFFF00" />
<rect x="20" y="25" width="2" height="1" fill="#FFFFFF" />
<rect x="1" y="26" width="1" height="1" fill="#FFFF00" />
<rect x="2" y="26" width="3" height="1" fill="#FFFFFF" />
<rect x="5" y="26" width="1" height="1" fill="#FFFF00" />
<rect x="6" y="26" width="3" height="1" fill="#FFFFFF" />
<rect x="9" y="26" width="1" height="1" fill="#FFFF00" />
<rect x="10" y="26" width="3" height="1" fill="#FFFFFF" />
<rect x="13" y="26" width="1" height="1" fill="#FFFF00" />
<rect x="15" y="26" width="1" height="1" fill="#FFFFFF" />
<rect x="17" y="26" width="1" height="1" fill="#FFFF00" />
<rect x="18" y="26" width="3" height="1" fill="#FFFFFF" />
<rect x="21" y="26" width="1" height="1" fill="#FFFF00" />
<rect x="1" y="27" width="2" height="1" fill="#FFFFFF" />
<rect x="3" y="27" width="1" height="1" fill="#FFFF00" />
<rect x="4" y="27" width="3" height="1" fill="#FFFFFF" />
<rect x="7" y="27" width="1" height="1" fill="#FFFF00" />
<rect x="8" y="27" width="3" height="1" fill="#FFFFFF" />
<rect x="11" y="27" width="1" height="1" fill="#FFFF00" />
<rect x="12" y="27" width="2" height="1" fill="#FFFFFF" />
<rect x="15" y="27" width="1" height="1" fill="#FFFF00" />
<rect x="17" y="27" width="2" height="1" fill="#FFFFFF" />
<rect x="19" y="27" width="1" height="1" fill="#FFFF00" />
<rect x="20" y="27" width="2" height="1" fill="#FFFFFF" />
<rect x="1" y="28" width="1" height="1" fill="#FFFF00" />
<rect x="2" y="28" width="3" height="1" fill="#FFFFFF" />
<rect x="5" y="28" width="1" height="1" fill="#FFFF00" />
<rect x="6" y="28" width="3" height="1" fill="#FFFFFF" />
<rect x="9" y="28" width="1" height="1" fill="#FFFF00" />
<rect x="10" y="28" width="3" height="1" fill="#FFFFFF" />
<rect x="13" y="28" width="1" height="1" fill="#FFFF00" />
<rect x="15" y="28" width="1" height="1" fill="#FFFFFF" />
<rect x="17" y="28" width="1" height="1" fill="#FFFF00" />
<rect x="18" y="28" width="3" height="1" fill="#FFFFFF" />
<rect x="21" y="28" width="1" height="1" fill="#FFFF00" />
<rect x="1" y="29" width="2" height="1" fill="#FFFFFF" />
<rect x="3" y="29" width="1" height="1" fill="#FFFF00" />
<rect x="4" y="29" width="3" height="1" fill="#FFFFFF" />
<rect x="7" y="29" width="1" height="1" fill="#FFFF00" />
<rect x="8" y="29" width="3" height="1" fill="#FFFFFF" />
<rect x="11" y="29" width="1" height="1" fill="#FFFF00" />
<rect x="12" y="29" width="2" height="1" fill="#FFFFFF" />
<rect x="15" y="29" width="1" height="1" fill="#FFFF00" />
<rect x="17" y="29" width="2" height="1" fill="#FFFFFF" />
<rect x="19" y="29" width="1" height="1" fill="#FFFF00" />
<rect x="20" y="29" width="2" height="1" fill="#FFFFFF" />
<rect x="1" y="30" width="21" height="1" fill="#C0C0C0" />
<rect x="0" y="31" width="23" height="1" fill="#000000" />
</svg>
