<?xml version="1.0" encoding="UTF-8" ?>
<svg version="1.1" width="240" height="256" xmlns="http://www.w3.org/2000/svg">
<rect x="32" y="0" width="80" height="16" fill="#808080" />
<rect x="16" y="16" width="16" height="16" fill="#808080" />
<rect x="32" y="16" width="16" height="16" fill="#C0C0C0" />
<rect x="48" y="16" width="16" height="16" fill="#FFFF00" />
<rect x="64" y="16" width="16" height="16" fill="#C0C0C0" />
<rect x="80" y="16" width="16" height="16" fill="#FFFF00" />
<rect x="96" y="16" width="16" height="16" fill="#C0C0C0" />
<rect x="112" y="16" width="16" height="16" fill="#808080" />
<rect x="0" y="32" width="16" height="160" fill="#808080" />
<rect x="16" y="32" width="16" height="16" fill="#C0C0C0" />
<rect x="32" y="32" width="16" height="16" fill="#FFFF00" />
<rect x="48" y="32" width="16" height="16" fill="#C0C0C0" />
<rect x="64" y="32" width="16" height="16" fill="#FFFF00" />
<rect x="80" y="32" width="16" height="16" fill="#C0C0C0" />
<rect x="96" y="32" width="16" height="16" fill="#FFFF00" />
<rect x="112" y="32" width="16" height="16" fill="#C0C0C0" />
<rect x="128" y="32" width="96" height="16" fill="#808080" />
<rect x="16" y="48" width="192" height="16" fill="#FFFFFF" />
<rect x="208" y="48" width="16" height="144" fill="#808000" />
<rect x="224" y="48" width="16" height="144" fill="#000000" />
<rect x="16" y="64" width="16" height="112" fill="#FFFFFF" />
<rect x="32" y="64" width="16" height="16" fill="#FFFF00" />
<rect x="48" y="64" width="16" height="16" fill="#C0C0C0" />
<rect x="64" y="64" width="32" height="16" fill="#808080" />
<rect x="96" y="64" width="16" height="16" fill="#000000" />
<rect x="112" y="64" width="16" height="16" fill="#808080" />
<rect x="128" y="64" width="16" height="16" fill="#FFFF00" />
<rect x="144" y="64" width="16" height="16" fill="#C0C0C0" />
<rect x="160" y="64" width="16" height="16" fill="#FFFF00" />
<rect x="176" y="64" width="16" height="16" fill="#C0C0C0" />
<rect x="192" y="64" width="16" height="16" fill="#FFFF00" />
<rect x="32" y="80" width="16" height="16" fill="#C0C0C0" />
<rect x="48" y="80" width="16" height="16" fill="#808080" />
<rect x="64" y="80" width="16" height="16" fill="#FFFFFF" />
<rect x="80" y="80" width="16" height="16" fill="#00FFFF" />
<rect x="96" y="80" width="16" height="16" fill="#FFFFFF" />
<rect x="112" y="80" width="16" height="16" fill="#000000" />
<rect x="128" y="80" width="16" height="16" fill="#808080" />
<rect x="144" y="80" width="16" height="16" fill="#FFFF00" />
<rect x="160" y="80" width="16" height="16" fill="#C0C0C0" />
<rect x="176" y="80" width="16" height="16" fill="#FFFF00" />
<rect x="192" y="80" width="16" height="16" fill="#C0C0C0" />
<rect x="32" y="96" width="16" height="48" fill="#808080" />
<rect x="48" y="96" width="16" height="16" fill="#FFFFFF" />
<rect x="64" y="96" width="16" height="16" fill="#00FFFF" />
<rect x="80" y="96" width="16" height="16" fill="#FFFFFF" />
<rect x="96" y="96" width="16" height="16" fill="#00FFFF" />
<rect x="112" y="96" width="16" height="16" fill="#C0C0C0" />
<rect x="128" y="96" width="16" height="48" fill="#000000" />
<rect x="144" y="96" width="16" height="16" fill="#808080" />
<rect x="160" y="96" width="16" height="16" fill="#FFFF00" />
<rect x="176" y="96" width="16" height="16" fill="#C0C0C0" />
<rect x="192" y="96" width="16" height="16" fill="#FFFF00" />
<rect x="48" y="112" width="16" height="16" fill="#00FFFF" />
<rect x="64" y="112" width="16" height="16" fill="#FFFFFF" />
<rect x="80" y="112" width="16" height="16" fill="#00FFFF" />
<rect x="96" y="112" width="16" height="16" fill="#C0C0C0" />
<rect x="112" y="112" width="16" height="16" fill="#00FFFF" />
<rect x="144" y="112" width="16" height="48" fill="#808000" />
<rect x="160" y="112" width="16" height="16" fill="#C0C0C0" />
<rect x="176" y="112" width="16" height="16" fill="#FFFF00" />
<rect x="192" y="112" width="16" height="16" fill="#C0C0C0" />
<rect x="48" y="128" width="16" height="16" fill="#FFFFFF" />
<rect x="64" y="128" width="16" height="16" fill="#00FFFF" />
<rect x="80" y="128" width="16" height="16" fill="#C0C0C0" />
<rect x="96" y="128" width="16" height="16" fill="#00FFFF" />
<rect x="112" y="128" width="16" height="16" fill="#C0C0C0" />
<rect x="160" y="128" width="16" height="16" fill="#FFFF00" />
<rect x="176" y="128" width="16" height="16" fill="#C0C0C0" />
<rect x="192" y="128" width="16" height="16" fill="#FFFF00" />
<rect x="32" y="144" width="16" height="16" fill="#C0C0C0" />
<rect x="48" y="144" width="16" height="16" fill="#808080" />
<rect x="64" y="144" width="16" height="16" fill="#C0C0C0" />
<rect x="80" y="144" width="16" height="16" fill="#00FFFF" />
<rect x="96" y="144" width="16" height="16" fill="#C0C0C0" />
<rect x="112" y="144" width="16" height="16" fill="#000000" />
<rect x="128" y="144" width="16" height="16" fill="#808080" />
<rect x="160" y="144" width="16" height="16" fill="#808000" />
<rect x="176" y="144" width="16" height="16" fill="#FFFF00" />
<rect x="192" y="144" width="16" height="16" fill="#C0C0C0" />
<rect x="32" y="160" width="16" height="16" fill="#FFFF00" />
<rect x="48" y="160" width="16" height="16" fill="#C0C0C0" />
<rect x="64" y="160" width="16" height="16" fill="#808080" />
<rect x="80" y="160" width="32" height="16" fill="#000000" />
<rect x="112" y="160" width="16" height="16" fill="#808080" />
<rect x="128" y="160" width="16" height="16" fill="#C0C0C0" />
<rect x="144" y="160" width="32" height="16" fill="#0000FF" />
<rect x="176" y="160" width="16" height="16" fill="#808000" />
<rect x="192" y="160" width="16" height="16" fill="#FFFF00" />
<rect x="16" y="176" width="112" height="16" fill="#808000" />
<rect x="128" y="176" width="16" height="16" fill="#000080" />
<rect x="144" y="176" width="16" height="16" fill="#00FFFF" />
<rect x="160" y="176" width="32" height="16" fill="#0000FF" />
<rect x="192" y="176" width="16" height="16" fill="#808000" />
<rect x="16" y="192" width="128" height="16" fill="#000000" />
<rect x="144" y="192" width="16" height="16" fill="#000080" />
<rect x="160" y="192" width="16" height="16" fill="#00FFFF" />
<rect x="176" y="192" width="32" height="16" fill="#0000FF" />
<rect x="208" y="192" width="16" height="16" fill="#000000" />
<rect x="160" y="208" width="16" height="16" fill="#000080" />
<rect x="176" y="208" width="16" height="16" fill="#00FFFF" />
<rect x="192" y="208" width="32" height="16" fill="#0000FF" />
<rect x="224" y="208" width="16" height="32" fill="#000000" />
<rect x="176" y="224" width="16" height="16" fill="#000080" />
<rect x="192" y="224" width="16" height="16" fill="#00FFFF" />
<rect x="208" y="224" width="16" height="16" fill="#0000FF" />
<rect x="192" y="240" width="32" height="16" fill="#000000" />
</svg>
